G75*
%MOIN*%
%OFA0B0*%
%FSLAX25Y25*%
%IPPOS*%
%LPD*%
%AMOC8*
5,1,8,0,0,1.08239X$1,22.5*
%
%ADD10C,0.00000*%
%ADD11C,0.00500*%
%ADD12C,0.00600*%
%ADD13C,0.00800*%
%ADD14C,0.00200*%
%ADD15R,0.00126X0.02370*%
%ADD16R,0.00124X0.03130*%
%ADD17R,0.00126X0.03630*%
%ADD18R,0.00125X0.03870*%
%ADD19R,0.00124X0.04370*%
%ADD20R,0.00126X0.04630*%
%ADD21R,0.00125X0.05130*%
%ADD22R,0.00124X0.05370*%
%ADD23R,0.00126X0.05630*%
%ADD24R,0.00125X0.05870*%
%ADD25R,0.00124X0.06130*%
%ADD26R,0.00126X0.06370*%
%ADD27R,0.00124X0.06630*%
%ADD28R,0.00126X0.06870*%
%ADD29R,0.00124X0.07130*%
%ADD30R,0.00125X0.07370*%
%ADD31R,0.00126X0.07630*%
%ADD32R,0.00125X0.07870*%
%ADD33R,0.00124X0.08130*%
%ADD34R,0.00126X0.08370*%
%ADD35R,0.00125X0.08630*%
%ADD36R,0.00124X0.08870*%
%ADD37R,0.00126X0.09130*%
%ADD38R,0.00125X0.09370*%
%ADD39R,0.00124X0.09630*%
%ADD40R,0.00126X0.09870*%
%ADD41R,0.00125X0.10130*%
%ADD42R,0.00125X0.10370*%
%ADD43R,0.00125X0.10630*%
%ADD44R,0.00124X0.10870*%
%ADD45R,0.00125X0.11130*%
%ADD46R,0.00126X0.11370*%
%ADD47R,0.00125X0.11630*%
%ADD48R,0.00125X0.05250*%
%ADD49R,0.00124X0.05250*%
%ADD50R,0.00124X0.05120*%
%ADD51R,0.00126X0.05120*%
%ADD52R,0.00125X0.05120*%
%ADD53R,0.00124X0.05130*%
%ADD54R,0.00126X0.05250*%
%ADD55R,0.00126X0.05130*%
%ADD56R,0.00125X0.05370*%
%ADD57R,0.00125X0.06130*%
%ADD58R,0.00125X0.06370*%
%ADD59R,0.00125X0.06630*%
%ADD60R,0.00125X0.06870*%
%ADD61R,0.00125X0.07130*%
%ADD62R,0.00124X0.07630*%
%ADD63R,0.00125X0.02870*%
%ADD64R,0.00125X0.04620*%
%ADD65R,0.00125X0.02880*%
%ADD66R,0.00125X0.04630*%
%ADD67R,0.00126X0.02870*%
%ADD68R,0.00126X0.04620*%
%ADD69R,0.00124X0.02880*%
%ADD70R,0.00124X0.04630*%
%ADD71R,0.00125X0.04500*%
%ADD72R,0.00125X0.04250*%
%ADD73R,0.00125X0.04000*%
%ADD74R,0.00125X0.03750*%
%ADD75R,0.00125X0.03500*%
%ADD76R,0.00125X0.03250*%
%ADD77R,0.00124X0.02870*%
%ADD78R,0.00124X0.03250*%
%ADD79R,0.00125X0.03120*%
%ADD80R,0.00125X0.03130*%
%ADD81R,0.00126X0.03250*%
%ADD82R,0.00124X0.03120*%
%ADD83R,0.00125X0.00250*%
%ADD84R,0.00125X0.00500*%
%ADD85R,0.00125X0.00630*%
%ADD86R,0.00126X0.05000*%
%ADD87R,0.00126X0.04000*%
%ADD88R,0.00126X0.00870*%
%ADD89R,0.00125X0.05000*%
%ADD90R,0.00125X0.04120*%
%ADD91R,0.00125X0.01130*%
%ADD92R,0.00124X0.05000*%
%ADD93R,0.00124X0.04250*%
%ADD94R,0.00124X0.01250*%
%ADD95R,0.00125X0.04870*%
%ADD96R,0.00125X0.04370*%
%ADD97R,0.00125X0.01500*%
%ADD98R,0.00125X0.04880*%
%ADD99R,0.00125X0.04380*%
%ADD100R,0.00125X0.01750*%
%ADD101R,0.00125X0.01880*%
%ADD102R,0.00125X0.04750*%
%ADD103R,0.00125X0.02120*%
%ADD104R,0.00125X0.02250*%
%ADD105R,0.00125X0.02370*%
%ADD106R,0.00125X0.01630*%
%ADD107R,0.00125X0.02000*%
%ADD108R,0.00125X0.02630*%
%ADD109R,0.00125X0.01380*%
%ADD110R,0.00125X0.02750*%
%ADD111R,0.00125X0.01370*%
%ADD112R,0.00126X0.04120*%
%ADD113R,0.00126X0.01250*%
%ADD114R,0.00126X0.01370*%
%ADD115R,0.00126X0.03130*%
%ADD116R,0.00125X0.01250*%
%ADD117R,0.00125X0.03370*%
%ADD118R,0.00125X0.01120*%
%ADD119R,0.00125X0.03620*%
%ADD120R,0.00125X0.05380*%
%ADD121R,0.00125X0.03630*%
%ADD122R,0.00124X0.03370*%
%ADD123R,0.00125X0.01870*%
%ADD124R,0.00125X0.05500*%
%ADD125R,0.00126X0.05500*%
%ADD126R,0.00126X0.01620*%
%ADD127R,0.00125X0.05630*%
%ADD128R,0.00125X0.05620*%
%ADD129R,0.00125X0.01620*%
%ADD130R,0.00124X0.05630*%
%ADD131R,0.00124X0.01750*%
%ADD132R,0.00124X0.05500*%
%ADD133R,0.00126X0.05620*%
%ADD134R,0.00126X0.03000*%
%ADD135R,0.00125X0.01000*%
%ADD136R,0.00124X0.05620*%
%ADD137R,0.00126X0.11250*%
%ADD138R,0.00124X0.11000*%
%ADD139R,0.00126X0.10750*%
%ADD140R,0.00124X0.10500*%
%ADD141R,0.00126X0.10250*%
%ADD142R,0.00124X0.10000*%
%ADD143R,0.00126X0.09750*%
%ADD144R,0.00125X0.09500*%
%ADD145R,0.00125X0.09250*%
%ADD146R,0.00125X0.09000*%
%ADD147R,0.00125X0.08750*%
%ADD148R,0.00125X0.08500*%
%ADD149R,0.00124X0.08370*%
%ADD150R,0.00126X0.08130*%
%ADD151R,0.00124X0.07870*%
%ADD152R,0.00124X0.07370*%
%ADD153R,0.00126X0.07130*%
%ADD154R,0.00124X0.06870*%
%ADD155R,0.00126X0.06630*%
%ADD156R,0.00124X0.06370*%
%ADD157R,0.00126X0.06130*%
%ADD158R,0.00124X0.05870*%
%ADD159R,0.00126X0.04370*%
%ADD160R,0.00124X0.03870*%
%ADD161R,0.00126X0.03370*%
D10*
X0001500Y0001500D02*
X0001500Y0135500D01*
X0156500Y0135500D01*
X0156500Y0001500D01*
X0001500Y0001500D01*
D11*
X0003500Y0004000D02*
X0003500Y0084000D01*
X0039500Y0084000D01*
X0039500Y0004000D01*
X0003500Y0004000D01*
X0036500Y0034000D02*
X0036500Y0054000D01*
X0041500Y0054000D01*
X0041500Y0034000D01*
X0036500Y0034000D01*
X0036500Y0034402D02*
X0041500Y0034402D01*
X0041500Y0034900D02*
X0036500Y0034900D01*
X0036500Y0035399D02*
X0041500Y0035399D01*
X0041500Y0035897D02*
X0036500Y0035897D01*
X0036500Y0036396D02*
X0041500Y0036396D01*
X0041500Y0036894D02*
X0036500Y0036894D01*
X0036500Y0037393D02*
X0041500Y0037393D01*
X0041500Y0037891D02*
X0036500Y0037891D01*
X0036500Y0038390D02*
X0041500Y0038390D01*
X0041500Y0038888D02*
X0036500Y0038888D01*
X0036500Y0039387D02*
X0041500Y0039387D01*
X0041500Y0039885D02*
X0036500Y0039885D01*
X0036500Y0040384D02*
X0041500Y0040384D01*
X0041500Y0040882D02*
X0036500Y0040882D01*
X0036500Y0041381D02*
X0041500Y0041381D01*
X0041500Y0041879D02*
X0036500Y0041879D01*
X0036500Y0042378D02*
X0041500Y0042378D01*
X0041500Y0042876D02*
X0036500Y0042876D01*
X0036500Y0043375D02*
X0041500Y0043375D01*
X0041500Y0043873D02*
X0036500Y0043873D01*
X0036500Y0044372D02*
X0041500Y0044372D01*
X0041500Y0044870D02*
X0036500Y0044870D01*
X0036500Y0045369D02*
X0041500Y0045369D01*
X0041500Y0045868D02*
X0036500Y0045868D01*
X0036500Y0046366D02*
X0041500Y0046366D01*
X0041500Y0046865D02*
X0036500Y0046865D01*
X0036500Y0047363D02*
X0041500Y0047363D01*
X0041500Y0047862D02*
X0036500Y0047862D01*
X0036500Y0048360D02*
X0041500Y0048360D01*
X0041500Y0048859D02*
X0036500Y0048859D01*
X0036500Y0049357D02*
X0041500Y0049357D01*
X0041500Y0049856D02*
X0036500Y0049856D01*
X0036500Y0050354D02*
X0041500Y0050354D01*
X0041500Y0050853D02*
X0036500Y0050853D01*
X0036500Y0051351D02*
X0041500Y0051351D01*
X0041500Y0051850D02*
X0036500Y0051850D01*
X0036500Y0052348D02*
X0041500Y0052348D01*
X0041500Y0052847D02*
X0036500Y0052847D01*
X0036500Y0053345D02*
X0041500Y0053345D01*
X0041500Y0053844D02*
X0036500Y0053844D01*
X0050548Y0058546D02*
X0050548Y0060347D01*
X0051899Y0059447D02*
X0051899Y0058546D01*
X0051899Y0057401D02*
X0051448Y0056950D01*
X0051448Y0056050D01*
X0051899Y0055599D01*
X0052800Y0055599D01*
X0053250Y0056050D01*
X0053250Y0056950D01*
X0052800Y0057401D01*
X0051899Y0057401D01*
X0053250Y0058546D02*
X0050548Y0058546D01*
X0052800Y0061492D02*
X0052349Y0061943D01*
X0052349Y0063294D01*
X0051899Y0063294D02*
X0053250Y0063294D01*
X0053250Y0061943D01*
X0052800Y0061492D01*
X0051448Y0061943D02*
X0051448Y0062843D01*
X0051899Y0063294D01*
X0051448Y0064439D02*
X0051448Y0065790D01*
X0051899Y0066240D01*
X0052800Y0066240D01*
X0053250Y0065790D01*
X0053250Y0064439D01*
X0050548Y0064439D01*
X0052800Y0067836D02*
X0053250Y0067836D01*
X0053250Y0068286D01*
X0052800Y0068286D01*
X0052800Y0067836D01*
X0053250Y0068286D02*
X0054151Y0067385D01*
X0053250Y0072296D02*
X0053250Y0073197D01*
X0053250Y0072747D02*
X0050548Y0072747D01*
X0050548Y0073197D02*
X0050548Y0072296D01*
X0051448Y0074261D02*
X0051448Y0075612D01*
X0051899Y0076062D01*
X0053250Y0076062D01*
X0052800Y0077207D02*
X0051899Y0077207D01*
X0051448Y0077657D01*
X0051448Y0079009D01*
X0053250Y0079009D02*
X0053250Y0077657D01*
X0052800Y0077207D01*
X0053250Y0074261D02*
X0051448Y0074261D01*
X0060548Y0069228D02*
X0060548Y0068327D01*
X0060998Y0067876D01*
X0062800Y0067876D01*
X0063250Y0068327D01*
X0063250Y0069228D01*
X0062800Y0069678D01*
X0060998Y0069678D02*
X0060548Y0069228D01*
X0060548Y0066731D02*
X0060548Y0064930D01*
X0060548Y0065831D02*
X0063250Y0065831D01*
X0063250Y0063785D02*
X0063250Y0061983D01*
X0061448Y0063785D01*
X0060998Y0063785D01*
X0060548Y0063335D01*
X0060548Y0062434D01*
X0060998Y0061983D01*
X0061448Y0060879D02*
X0061448Y0060429D01*
X0062349Y0059528D01*
X0063250Y0059528D02*
X0061448Y0059528D01*
X0061899Y0058383D02*
X0061448Y0057933D01*
X0061448Y0057032D01*
X0061899Y0056581D01*
X0062800Y0056581D01*
X0063250Y0057032D01*
X0063250Y0057933D01*
X0062349Y0058383D02*
X0062349Y0056581D01*
X0061448Y0055518D02*
X0061448Y0054617D01*
X0060998Y0055068D02*
X0062800Y0055068D01*
X0063250Y0055518D01*
X0062800Y0053472D02*
X0062349Y0053022D01*
X0062349Y0052121D01*
X0061899Y0051671D01*
X0061448Y0052121D01*
X0061448Y0053472D01*
X0062800Y0053472D02*
X0063250Y0053022D01*
X0063250Y0051671D01*
X0063250Y0050526D02*
X0061899Y0050526D01*
X0061448Y0050075D01*
X0061448Y0049174D01*
X0062349Y0049174D02*
X0062349Y0050526D01*
X0063250Y0050526D02*
X0063250Y0049174D01*
X0062800Y0048724D01*
X0062349Y0049174D01*
X0063250Y0047661D02*
X0063250Y0046760D01*
X0063250Y0047210D02*
X0060548Y0047210D01*
X0060548Y0046760D01*
X0060998Y0045615D02*
X0061448Y0045615D01*
X0061899Y0045164D01*
X0061899Y0043813D01*
X0062349Y0042668D02*
X0062800Y0042668D01*
X0063250Y0042218D01*
X0063250Y0040867D01*
X0060548Y0040867D01*
X0060548Y0042218D01*
X0060998Y0042668D01*
X0061448Y0042668D01*
X0061899Y0042218D01*
X0061899Y0040867D01*
X0062349Y0039722D02*
X0062800Y0039722D01*
X0063250Y0039271D01*
X0063250Y0038371D01*
X0062800Y0037920D01*
X0061899Y0038371D02*
X0061899Y0039271D01*
X0062349Y0039722D01*
X0060998Y0039722D02*
X0060548Y0039271D01*
X0060548Y0038371D01*
X0060998Y0037920D01*
X0061448Y0037920D01*
X0061899Y0038371D01*
X0062800Y0036775D02*
X0060548Y0036775D01*
X0060548Y0034974D02*
X0062800Y0034974D01*
X0063250Y0035424D01*
X0063250Y0036325D01*
X0062800Y0036775D01*
X0063250Y0033829D02*
X0061899Y0033829D01*
X0061448Y0033378D01*
X0061448Y0032478D01*
X0062349Y0032478D02*
X0062349Y0033829D01*
X0063250Y0033829D02*
X0063250Y0032478D01*
X0062800Y0032027D01*
X0062349Y0032478D01*
X0061448Y0030923D02*
X0061448Y0030472D01*
X0062349Y0029572D01*
X0063250Y0029572D02*
X0061448Y0029572D01*
X0061899Y0028427D02*
X0061448Y0027976D01*
X0061448Y0027076D01*
X0061899Y0026625D01*
X0062800Y0026625D01*
X0063250Y0027076D01*
X0063250Y0027976D01*
X0062349Y0028427D02*
X0062349Y0026625D01*
X0061448Y0025562D02*
X0061448Y0024661D01*
X0060998Y0025111D02*
X0062800Y0025111D01*
X0063250Y0025562D01*
X0063250Y0023597D02*
X0063250Y0022697D01*
X0063250Y0023147D02*
X0060548Y0023147D01*
X0060548Y0022697D01*
X0061448Y0021552D02*
X0063250Y0021552D01*
X0061899Y0021552D02*
X0061899Y0019750D01*
X0061448Y0019750D02*
X0060548Y0020651D01*
X0061448Y0021552D01*
X0061448Y0019750D02*
X0063250Y0019750D01*
X0065548Y0019750D02*
X0065548Y0021101D01*
X0065998Y0021552D01*
X0066899Y0021552D01*
X0067349Y0021101D01*
X0067349Y0019750D01*
X0067349Y0020651D02*
X0068250Y0021552D01*
X0068250Y0022697D02*
X0068250Y0024498D01*
X0067349Y0025643D02*
X0068250Y0026544D01*
X0067349Y0027445D01*
X0065548Y0027445D01*
X0066448Y0028590D02*
X0066448Y0029040D01*
X0066899Y0029040D01*
X0066899Y0028590D01*
X0066448Y0028590D01*
X0067800Y0028590D02*
X0068250Y0028590D01*
X0068250Y0029040D01*
X0067800Y0029040D01*
X0067800Y0028590D01*
X0070548Y0028098D02*
X0073250Y0028098D01*
X0072349Y0028098D02*
X0071448Y0029450D01*
X0071899Y0030554D02*
X0071448Y0031004D01*
X0071448Y0031905D01*
X0071899Y0032355D01*
X0072349Y0032355D01*
X0072349Y0030554D01*
X0071899Y0030554D02*
X0072800Y0030554D01*
X0073250Y0031004D01*
X0073250Y0031905D01*
X0073250Y0033500D02*
X0071448Y0033500D01*
X0072349Y0033500D02*
X0071448Y0034401D01*
X0071448Y0034852D01*
X0068250Y0034811D02*
X0068250Y0033009D01*
X0068250Y0033910D02*
X0065548Y0033910D01*
X0066448Y0033009D01*
X0062349Y0028427D02*
X0061899Y0028427D01*
X0065548Y0025643D02*
X0067349Y0025643D01*
X0066899Y0023597D02*
X0066899Y0022697D01*
X0065548Y0022697D02*
X0068250Y0022697D01*
X0070548Y0021101D02*
X0070998Y0021552D01*
X0071899Y0021552D01*
X0072349Y0021101D01*
X0072349Y0019750D01*
X0073250Y0019750D02*
X0070548Y0019750D01*
X0070548Y0021101D01*
X0071448Y0023147D02*
X0071448Y0024048D01*
X0071899Y0024498D01*
X0073250Y0024498D01*
X0073250Y0023147D01*
X0072800Y0022697D01*
X0072349Y0023147D01*
X0072349Y0024498D01*
X0072349Y0025643D02*
X0071448Y0026544D01*
X0071448Y0026994D01*
X0071448Y0025643D02*
X0073250Y0025643D01*
X0072349Y0028098D02*
X0073250Y0029450D01*
X0065548Y0024498D02*
X0065548Y0022697D01*
X0065548Y0019750D02*
X0068250Y0019750D01*
X0058250Y0019750D02*
X0055548Y0019750D01*
X0056448Y0020651D01*
X0055548Y0021552D01*
X0058250Y0021552D01*
X0057800Y0022697D02*
X0057349Y0023147D01*
X0057349Y0024498D01*
X0056899Y0024498D02*
X0058250Y0024498D01*
X0058250Y0023147D01*
X0057800Y0022697D01*
X0056448Y0023147D02*
X0056448Y0024048D01*
X0056899Y0024498D01*
X0056899Y0025643D02*
X0057800Y0025643D01*
X0058250Y0026093D01*
X0058250Y0027445D01*
X0058250Y0028590D02*
X0056448Y0028590D01*
X0056448Y0029490D02*
X0056448Y0029941D01*
X0056448Y0029490D02*
X0057349Y0028590D01*
X0056448Y0027445D02*
X0056448Y0026093D01*
X0056899Y0025643D01*
X0053250Y0024661D02*
X0052349Y0025562D01*
X0051448Y0025562D01*
X0050548Y0024661D01*
X0051448Y0023516D02*
X0051448Y0022165D01*
X0051899Y0021714D01*
X0052800Y0021714D01*
X0053250Y0022165D01*
X0053250Y0023516D01*
X0053250Y0020651D02*
X0052349Y0019750D01*
X0051448Y0019750D01*
X0050548Y0020651D01*
X0042850Y0022777D02*
X0042850Y0024578D01*
X0042850Y0023677D02*
X0040148Y0023677D01*
X0041048Y0022777D01*
X0050548Y0030022D02*
X0050548Y0030923D01*
X0050998Y0031373D01*
X0051448Y0031373D01*
X0053250Y0029572D01*
X0053250Y0031373D01*
X0052800Y0032518D02*
X0050998Y0032518D01*
X0050548Y0032969D01*
X0050548Y0033869D01*
X0050998Y0034320D01*
X0052800Y0032518D01*
X0053250Y0032969D01*
X0053250Y0033869D01*
X0052800Y0034320D01*
X0050998Y0034320D01*
X0051448Y0035465D02*
X0050548Y0036366D01*
X0053250Y0036366D01*
X0053250Y0037266D02*
X0053250Y0035465D01*
X0055548Y0035793D02*
X0055548Y0033991D01*
X0058250Y0033991D01*
X0057800Y0032847D02*
X0056899Y0032847D01*
X0056448Y0032396D01*
X0056448Y0031495D01*
X0056899Y0031045D01*
X0057800Y0031045D01*
X0058250Y0031495D01*
X0058250Y0032396D01*
X0057800Y0032847D01*
X0056899Y0033991D02*
X0056899Y0034892D01*
X0057800Y0036938D02*
X0057349Y0037388D01*
X0057349Y0038740D01*
X0056899Y0038740D02*
X0058250Y0038740D01*
X0058250Y0037388D01*
X0057800Y0036938D01*
X0056448Y0037388D02*
X0056448Y0038289D01*
X0056899Y0038740D01*
X0056448Y0039885D02*
X0056448Y0041236D01*
X0056899Y0041686D01*
X0057800Y0041686D01*
X0058250Y0041236D01*
X0058250Y0039885D01*
X0055548Y0039885D01*
X0053250Y0039762D02*
X0053250Y0038862D01*
X0052800Y0038411D01*
X0051899Y0038411D01*
X0051899Y0039762D01*
X0052349Y0040213D01*
X0052800Y0040213D01*
X0053250Y0039762D01*
X0051899Y0038411D02*
X0050998Y0039312D01*
X0050548Y0040213D01*
X0050548Y0044304D02*
X0051448Y0045205D01*
X0050548Y0046106D01*
X0053250Y0046106D01*
X0052800Y0047251D02*
X0052349Y0047701D01*
X0052349Y0049052D01*
X0051899Y0049052D02*
X0053250Y0049052D01*
X0053250Y0047701D01*
X0052800Y0047251D01*
X0051448Y0047701D02*
X0051448Y0048602D01*
X0051899Y0049052D01*
X0051899Y0050197D02*
X0052800Y0050197D01*
X0053250Y0050648D01*
X0053250Y0051999D01*
X0053250Y0053144D02*
X0051448Y0053144D01*
X0051448Y0054045D02*
X0051448Y0054495D01*
X0051448Y0054045D02*
X0052349Y0053144D01*
X0051448Y0051999D02*
X0051448Y0050648D01*
X0051899Y0050197D01*
X0056448Y0050197D02*
X0056448Y0050648D01*
X0056899Y0051098D01*
X0056448Y0051548D01*
X0056899Y0051999D01*
X0058250Y0051999D01*
X0058250Y0051098D02*
X0056899Y0051098D01*
X0056448Y0050197D02*
X0058250Y0050197D01*
X0057800Y0049052D02*
X0056899Y0049052D01*
X0056448Y0048602D01*
X0056448Y0047701D01*
X0056899Y0047251D01*
X0057800Y0047251D01*
X0058250Y0047701D01*
X0058250Y0048602D01*
X0057800Y0049052D01*
X0058250Y0046106D02*
X0058250Y0044755D01*
X0057800Y0044304D01*
X0056899Y0044304D01*
X0056448Y0044755D01*
X0056448Y0046106D01*
X0057800Y0043281D02*
X0058250Y0043281D01*
X0058250Y0042831D01*
X0057800Y0042831D01*
X0057800Y0043281D01*
X0060548Y0043813D02*
X0060548Y0045164D01*
X0060998Y0045615D01*
X0061899Y0045164D02*
X0062349Y0045615D01*
X0062800Y0045615D01*
X0063250Y0045164D01*
X0063250Y0043813D01*
X0060548Y0043813D01*
X0061899Y0042218D02*
X0062349Y0042668D01*
X0070097Y0042299D02*
X0070548Y0042299D01*
X0071448Y0042299D02*
X0073250Y0042299D01*
X0073250Y0041849D02*
X0073250Y0042750D01*
X0073250Y0043813D02*
X0073250Y0044714D01*
X0073250Y0044264D02*
X0070548Y0044264D01*
X0070548Y0043813D01*
X0071448Y0042299D02*
X0071448Y0041849D01*
X0070998Y0040704D02*
X0070548Y0040253D01*
X0070548Y0038902D01*
X0073250Y0038902D01*
X0073250Y0040253D01*
X0072800Y0040704D01*
X0070998Y0040704D01*
X0070548Y0045778D02*
X0070548Y0046228D01*
X0073250Y0046228D01*
X0073250Y0045778D02*
X0073250Y0046678D01*
X0073250Y0047742D02*
X0071448Y0047742D01*
X0071448Y0048192D01*
X0071899Y0048643D01*
X0071448Y0049093D01*
X0071899Y0049543D01*
X0073250Y0049543D01*
X0073250Y0048643D02*
X0071899Y0048643D01*
X0072800Y0050688D02*
X0072349Y0051139D01*
X0072349Y0052490D01*
X0071899Y0052490D02*
X0073250Y0052490D01*
X0073250Y0051139D01*
X0072800Y0050688D01*
X0071448Y0051139D02*
X0071448Y0052040D01*
X0071899Y0052490D01*
X0071448Y0053635D02*
X0071448Y0054986D01*
X0071899Y0055436D01*
X0073250Y0055436D01*
X0073250Y0056581D02*
X0071448Y0056581D01*
X0071448Y0057933D01*
X0071899Y0058383D01*
X0073250Y0058383D01*
X0073250Y0053635D02*
X0071448Y0053635D01*
X0062349Y0058383D02*
X0061899Y0058383D01*
X0053250Y0044304D02*
X0050548Y0044304D01*
X0050548Y0030022D02*
X0050998Y0029572D01*
X0037517Y0085750D02*
X0036616Y0086651D01*
X0037066Y0086651D02*
X0035715Y0086651D01*
X0035715Y0085750D02*
X0035715Y0088452D01*
X0037066Y0088452D01*
X0037517Y0088002D01*
X0037517Y0087101D01*
X0037066Y0086651D01*
X0034570Y0085750D02*
X0032769Y0085750D01*
X0032769Y0088452D01*
X0034570Y0088452D01*
X0033669Y0087101D02*
X0032769Y0087101D01*
X0031624Y0088452D02*
X0029822Y0088452D01*
X0030723Y0088452D02*
X0030723Y0085750D01*
X0028677Y0086200D02*
X0028677Y0086651D01*
X0028227Y0087101D01*
X0027326Y0087101D01*
X0026876Y0087552D01*
X0026876Y0088002D01*
X0027326Y0088452D01*
X0028227Y0088452D01*
X0028677Y0088002D01*
X0028677Y0086200D02*
X0028227Y0085750D01*
X0027326Y0085750D01*
X0026876Y0086200D01*
X0025731Y0085750D02*
X0025731Y0087552D01*
X0024830Y0088452D01*
X0023929Y0087552D01*
X0023929Y0085750D01*
X0022784Y0085750D02*
X0020983Y0085750D01*
X0020983Y0088452D01*
X0019838Y0088002D02*
X0019838Y0087552D01*
X0019387Y0087101D01*
X0018036Y0087101D01*
X0018036Y0085750D02*
X0019387Y0085750D01*
X0019838Y0086200D01*
X0019838Y0086651D01*
X0019387Y0087101D01*
X0019838Y0088002D02*
X0019387Y0088452D01*
X0018036Y0088452D01*
X0018036Y0085750D01*
X0016891Y0085300D02*
X0015090Y0085300D01*
X0013945Y0086200D02*
X0013945Y0086651D01*
X0013494Y0087101D01*
X0012143Y0087101D01*
X0010998Y0086651D02*
X0010998Y0086200D01*
X0010548Y0085750D01*
X0009647Y0085750D01*
X0009197Y0086200D01*
X0009647Y0087101D02*
X0009197Y0087552D01*
X0009197Y0088002D01*
X0009647Y0088452D01*
X0010548Y0088452D01*
X0010998Y0088002D01*
X0010548Y0087101D02*
X0010998Y0086651D01*
X0010548Y0087101D02*
X0009647Y0087101D01*
X0008052Y0086200D02*
X0008052Y0088452D01*
X0006250Y0088452D02*
X0006250Y0086200D01*
X0006700Y0085750D01*
X0007601Y0085750D01*
X0008052Y0086200D01*
X0012143Y0085750D02*
X0012143Y0088452D01*
X0013494Y0088452D01*
X0013945Y0088002D01*
X0013945Y0087552D01*
X0013494Y0087101D01*
X0013945Y0086200D02*
X0013494Y0085750D01*
X0012143Y0085750D01*
X0018118Y0094000D02*
X0001760Y0094000D01*
X0001760Y0134000D01*
X0018118Y0134000D01*
X0022055Y0130063D01*
X0022055Y0097937D01*
X0018118Y0094000D01*
X0023929Y0087101D02*
X0025731Y0087101D01*
X0033744Y0098988D02*
X0039256Y0098988D01*
X0039256Y0110012D01*
X0033744Y0110012D01*
X0033744Y0098988D01*
X0034026Y0111801D02*
X0031323Y0111801D01*
X0031323Y0113603D01*
X0032224Y0114748D02*
X0031323Y0115648D01*
X0034026Y0115648D01*
X0034026Y0114748D02*
X0034026Y0116549D01*
X0032674Y0112702D02*
X0032674Y0111801D01*
X0049571Y0115535D02*
X0083429Y0115535D01*
X0083429Y0132465D01*
X0049571Y0132465D01*
X0049571Y0115535D01*
X0052839Y0113331D02*
X0052839Y0104669D01*
X0070161Y0104669D01*
X0070161Y0113331D01*
X0052839Y0113331D01*
X0089248Y0119840D02*
X0089248Y0121191D01*
X0089698Y0121641D01*
X0090599Y0121641D01*
X0091049Y0121191D01*
X0091049Y0119840D01*
X0091950Y0119840D02*
X0089248Y0119840D01*
X0089248Y0122786D02*
X0091950Y0122786D01*
X0091049Y0123687D01*
X0091950Y0124588D01*
X0089248Y0124588D01*
X0089248Y0125733D02*
X0089248Y0127084D01*
X0089698Y0127534D01*
X0090599Y0127534D01*
X0091049Y0127084D01*
X0091049Y0125733D01*
X0091049Y0126633D02*
X0091950Y0127534D01*
X0091950Y0125733D02*
X0089248Y0125733D01*
X0107110Y0126795D02*
X0120890Y0126795D01*
X0120890Y0101205D01*
X0107110Y0101205D01*
X0107110Y0126795D01*
X0135929Y0124846D02*
X0135929Y0118154D01*
X0152071Y0118154D01*
X0152071Y0124846D01*
X0152858Y0124846D01*
X0152858Y0118154D01*
X0152071Y0118154D01*
X0152071Y0124846D01*
X0135929Y0124846D01*
X0143409Y0122681D02*
X0143409Y0120319D01*
X0144591Y0121500D01*
X0143409Y0122681D01*
X0143409Y0122638D02*
X0143452Y0122638D01*
X0143409Y0122140D02*
X0143951Y0122140D01*
X0144449Y0121641D02*
X0143409Y0121641D01*
X0143409Y0121143D02*
X0144233Y0121143D01*
X0143735Y0120644D02*
X0143409Y0120644D01*
X0138781Y0116963D02*
X0138781Y0115162D01*
X0138781Y0116063D02*
X0136078Y0116063D01*
X0136979Y0115162D01*
X0136529Y0114017D02*
X0136078Y0113566D01*
X0136078Y0112215D01*
X0138781Y0112215D01*
X0138781Y0113566D01*
X0138330Y0114017D01*
X0136529Y0114017D01*
X0136913Y0110043D02*
X0136913Y0102957D01*
X0151087Y0102957D01*
X0151087Y0110043D01*
X0136913Y0110043D01*
X0139781Y0101192D02*
X0139781Y0099390D01*
X0139781Y0100291D02*
X0137078Y0100291D01*
X0137979Y0099390D01*
X0137529Y0098245D02*
X0137078Y0097795D01*
X0137078Y0096444D01*
X0139781Y0096444D01*
X0138880Y0096444D02*
X0138880Y0097795D01*
X0138430Y0098245D01*
X0137529Y0098245D01*
X0138880Y0097344D02*
X0139781Y0098245D01*
X0139876Y0088452D02*
X0141677Y0085750D01*
X0141677Y0088452D01*
X0142822Y0088452D02*
X0142822Y0085750D01*
X0144624Y0085750D01*
X0145769Y0086200D02*
X0146219Y0085750D01*
X0147120Y0085750D01*
X0147570Y0086200D01*
X0145769Y0086200D02*
X0145769Y0088002D01*
X0146219Y0088452D01*
X0147120Y0088452D01*
X0147570Y0088002D01*
X0148715Y0088452D02*
X0150517Y0088452D01*
X0149616Y0088452D02*
X0149616Y0085750D01*
X0152000Y0084000D02*
X0116000Y0084000D01*
X0116000Y0004000D01*
X0152000Y0004000D01*
X0152000Y0084000D01*
X0144624Y0088452D02*
X0142822Y0088452D01*
X0142822Y0087101D02*
X0143723Y0087101D01*
X0139876Y0085750D02*
X0139876Y0088452D01*
X0138731Y0088452D02*
X0138731Y0085750D01*
X0136929Y0088452D01*
X0136929Y0085750D01*
X0135784Y0086200D02*
X0135784Y0088002D01*
X0135334Y0088452D01*
X0134433Y0088452D01*
X0133983Y0088002D01*
X0133983Y0086200D01*
X0134433Y0085750D01*
X0135334Y0085750D01*
X0135784Y0086200D01*
X0132838Y0086200D02*
X0132387Y0085750D01*
X0131486Y0085750D01*
X0131036Y0086200D01*
X0131036Y0088002D01*
X0131486Y0088452D01*
X0132387Y0088452D01*
X0132838Y0088002D01*
X0129891Y0085300D02*
X0128090Y0085300D01*
X0126945Y0086200D02*
X0126945Y0087101D01*
X0126044Y0087101D01*
X0126945Y0086200D02*
X0126494Y0085750D01*
X0125593Y0085750D01*
X0125143Y0086200D01*
X0125143Y0088002D01*
X0125593Y0088452D01*
X0126494Y0088452D01*
X0126945Y0088002D01*
X0123998Y0087552D02*
X0123998Y0085750D01*
X0123998Y0087101D02*
X0122197Y0087101D01*
X0122197Y0087552D02*
X0123097Y0088452D01*
X0123998Y0087552D01*
X0122197Y0087552D02*
X0122197Y0085750D01*
X0120151Y0085750D02*
X0120151Y0088452D01*
X0119250Y0088452D02*
X0121052Y0088452D01*
X0122661Y0090169D02*
X0122661Y0098831D01*
X0105339Y0098831D01*
X0105339Y0090169D01*
X0122661Y0090169D01*
X0152071Y0118650D02*
X0152858Y0118650D01*
X0152858Y0119149D02*
X0152071Y0119149D01*
X0152071Y0119647D02*
X0152858Y0119647D01*
X0152858Y0120146D02*
X0152071Y0120146D01*
X0152071Y0120644D02*
X0152858Y0120644D01*
X0152858Y0121143D02*
X0152071Y0121143D01*
X0152071Y0121641D02*
X0152858Y0121641D01*
X0152858Y0122140D02*
X0152071Y0122140D01*
X0152071Y0122638D02*
X0152858Y0122638D01*
X0152858Y0123137D02*
X0152071Y0123137D01*
X0152071Y0123635D02*
X0152858Y0123635D01*
X0152858Y0124134D02*
X0152071Y0124134D01*
X0152071Y0124632D02*
X0152858Y0124632D01*
X0154000Y0054000D02*
X0149000Y0054000D01*
X0149000Y0034000D01*
X0154000Y0034000D01*
X0154000Y0054000D01*
X0154000Y0053844D02*
X0149000Y0053844D01*
X0149000Y0053345D02*
X0154000Y0053345D01*
X0154000Y0052847D02*
X0149000Y0052847D01*
X0149000Y0052348D02*
X0154000Y0052348D01*
X0154000Y0051850D02*
X0149000Y0051850D01*
X0149000Y0051351D02*
X0154000Y0051351D01*
X0154000Y0050853D02*
X0149000Y0050853D01*
X0149000Y0050354D02*
X0154000Y0050354D01*
X0154000Y0049856D02*
X0149000Y0049856D01*
X0149000Y0049357D02*
X0154000Y0049357D01*
X0154000Y0048859D02*
X0149000Y0048859D01*
X0149000Y0048360D02*
X0154000Y0048360D01*
X0154000Y0047862D02*
X0149000Y0047862D01*
X0149000Y0047363D02*
X0154000Y0047363D01*
X0154000Y0046865D02*
X0149000Y0046865D01*
X0149000Y0046366D02*
X0154000Y0046366D01*
X0154000Y0045868D02*
X0149000Y0045868D01*
X0149000Y0045369D02*
X0154000Y0045369D01*
X0154000Y0044870D02*
X0149000Y0044870D01*
X0149000Y0044372D02*
X0154000Y0044372D01*
X0154000Y0043873D02*
X0149000Y0043873D01*
X0149000Y0043375D02*
X0154000Y0043375D01*
X0154000Y0042876D02*
X0149000Y0042876D01*
X0149000Y0042378D02*
X0154000Y0042378D01*
X0154000Y0041879D02*
X0149000Y0041879D01*
X0149000Y0041381D02*
X0154000Y0041381D01*
X0154000Y0040882D02*
X0149000Y0040882D01*
X0149000Y0040384D02*
X0154000Y0040384D01*
X0154000Y0039885D02*
X0149000Y0039885D01*
X0149000Y0039387D02*
X0154000Y0039387D01*
X0154000Y0038888D02*
X0149000Y0038888D01*
X0149000Y0038390D02*
X0154000Y0038390D01*
X0154000Y0037891D02*
X0149000Y0037891D01*
X0149000Y0037393D02*
X0154000Y0037393D01*
X0154000Y0036894D02*
X0149000Y0036894D01*
X0149000Y0036396D02*
X0154000Y0036396D01*
X0154000Y0035897D02*
X0149000Y0035897D01*
X0149000Y0035399D02*
X0154000Y0035399D01*
X0154000Y0034900D02*
X0149000Y0034900D01*
X0149000Y0034402D02*
X0154000Y0034402D01*
X0155350Y0024578D02*
X0155350Y0022777D01*
X0155350Y0023677D02*
X0152648Y0023677D01*
X0153548Y0022777D01*
D12*
X0103515Y0090639D02*
X0101246Y0090639D01*
X0100679Y0091206D01*
X0100679Y0092340D01*
X0101246Y0092907D01*
X0101246Y0094322D02*
X0100679Y0094889D01*
X0100679Y0096023D01*
X0101246Y0096590D01*
X0101813Y0096590D01*
X0102380Y0096023D01*
X0102948Y0096590D01*
X0103515Y0096590D01*
X0104082Y0096023D01*
X0104082Y0094889D01*
X0103515Y0094322D01*
X0103515Y0092907D02*
X0104082Y0092340D01*
X0104082Y0091206D01*
X0103515Y0090639D01*
X0102380Y0095456D02*
X0102380Y0096023D01*
X0056818Y0097662D02*
X0056251Y0097095D01*
X0053982Y0097095D01*
X0053415Y0097662D01*
X0053415Y0098797D01*
X0053982Y0099364D01*
X0054550Y0100778D02*
X0053415Y0101913D01*
X0056818Y0101913D01*
X0056818Y0103047D02*
X0056818Y0100778D01*
X0056251Y0099364D02*
X0056818Y0098797D01*
X0056818Y0097662D01*
X0044531Y0102946D02*
X0044531Y0105214D01*
X0044531Y0106629D02*
X0044531Y0108897D01*
X0044531Y0107763D02*
X0041128Y0107763D01*
X0042262Y0106629D01*
X0041128Y0102946D02*
X0044531Y0102946D01*
X0026763Y0123251D02*
X0023927Y0123251D01*
X0026763Y0123251D02*
X0027330Y0123818D01*
X0027330Y0124952D01*
X0026763Y0125519D01*
X0023927Y0125519D01*
X0024494Y0126934D02*
X0025061Y0126934D01*
X0025628Y0127501D01*
X0025628Y0128635D01*
X0026196Y0129202D01*
X0026763Y0129202D01*
X0027330Y0128635D01*
X0027330Y0127501D01*
X0026763Y0126934D01*
X0024494Y0126934D02*
X0023927Y0127501D01*
X0023927Y0128635D01*
X0024494Y0129202D01*
X0023927Y0130617D02*
X0023927Y0132318D01*
X0024494Y0132885D01*
X0025061Y0132885D01*
X0025628Y0132318D01*
X0025628Y0130617D01*
X0023927Y0130617D02*
X0027330Y0130617D01*
X0027330Y0132318D01*
X0026763Y0132885D01*
X0026196Y0132885D01*
X0025628Y0132318D01*
D13*
X0091680Y0107610D02*
X0093081Y0106209D01*
X0091680Y0107610D02*
X0095883Y0107610D01*
X0095883Y0106209D02*
X0095883Y0109011D01*
X0095183Y0104407D02*
X0091680Y0104407D01*
X0091680Y0101605D02*
X0095183Y0101605D01*
X0095883Y0102305D01*
X0095883Y0103707D01*
X0095183Y0104407D01*
D14*
X0043331Y0111551D02*
X0034669Y0111551D01*
X0034669Y0130449D01*
X0043331Y0130449D01*
X0043331Y0111551D01*
D15*
X0112500Y0044375D03*
D16*
X0112375Y0044375D03*
D17*
X0112250Y0044375D03*
D18*
X0112124Y0044375D03*
X0096874Y0040125D03*
X0096749Y0040125D03*
X0097749Y0031375D03*
X0097874Y0031375D03*
X0097999Y0031375D03*
X0098124Y0031375D03*
X0097749Y0057375D03*
D19*
X0112000Y0044375D03*
D20*
X0111875Y0044375D03*
D21*
X0111749Y0044375D03*
X0108249Y0047875D03*
X0108001Y0048125D03*
X0107749Y0048375D03*
X0107499Y0048625D03*
X0106749Y0049375D03*
X0108001Y0040625D03*
X0107749Y0040375D03*
X0107499Y0040125D03*
X0106749Y0039375D03*
X0105999Y0038625D03*
X0105749Y0038375D03*
X0105001Y0037625D03*
X0104751Y0037375D03*
X0104499Y0037125D03*
X0104249Y0036875D03*
X0103501Y0036125D03*
X0103251Y0035875D03*
X0102999Y0035625D03*
X0102749Y0035375D03*
X0102499Y0035125D03*
X0102249Y0034875D03*
X0102001Y0034625D03*
X0101751Y0034375D03*
X0101499Y0034125D03*
X0101249Y0033875D03*
X0100999Y0033625D03*
X0100749Y0033375D03*
X0100251Y0032875D03*
X0096251Y0032125D03*
X0096376Y0056625D03*
D22*
X0096500Y0046625D03*
X0111625Y0044375D03*
D23*
X0111500Y0044375D03*
X0106250Y0049625D03*
X0083750Y0044375D03*
D24*
X0106124Y0049625D03*
X0111374Y0044375D03*
D25*
X0111250Y0044375D03*
D26*
X0111125Y0044375D03*
D27*
X0111000Y0044375D03*
D28*
X0110875Y0044375D03*
D29*
X0110750Y0044375D03*
D30*
X0110626Y0044375D03*
X0105374Y0049625D03*
D31*
X0110500Y0044375D03*
X0084750Y0044375D03*
D32*
X0110374Y0044375D03*
D33*
X0110250Y0044375D03*
D34*
X0110125Y0044375D03*
D35*
X0109999Y0044375D03*
D36*
X0109875Y0044375D03*
D37*
X0109750Y0044375D03*
D38*
X0109624Y0044375D03*
D39*
X0109500Y0044375D03*
D40*
X0109375Y0044375D03*
D41*
X0109249Y0044375D03*
D42*
X0109124Y0044375D03*
D43*
X0108999Y0044375D03*
D44*
X0108875Y0044375D03*
D45*
X0108751Y0044375D03*
D46*
X0108625Y0044375D03*
D47*
X0108499Y0044375D03*
D48*
X0108374Y0047685D03*
X0108374Y0041065D03*
X0108249Y0040935D03*
X0106874Y0039565D03*
X0105624Y0038315D03*
X0105499Y0038185D03*
X0105374Y0038065D03*
X0104124Y0036815D03*
X0103999Y0036685D03*
X0096126Y0032185D03*
X0096001Y0032315D03*
X0095876Y0032435D03*
X0096999Y0047185D03*
X0096001Y0056315D03*
X0096126Y0056435D03*
D49*
X0106500Y0049565D03*
X0108125Y0040815D03*
X0083625Y0044315D03*
D50*
X0102125Y0034750D03*
X0108125Y0048000D03*
D51*
X0107875Y0048250D03*
X0107875Y0040500D03*
X0104625Y0037250D03*
X0103125Y0035750D03*
X0101625Y0034250D03*
D52*
X0101876Y0034500D03*
X0102374Y0035000D03*
X0102624Y0035250D03*
X0102874Y0035500D03*
X0103376Y0036000D03*
X0103626Y0036250D03*
X0103874Y0036500D03*
X0104374Y0037000D03*
X0104876Y0037500D03*
X0105126Y0037750D03*
X0105874Y0038500D03*
X0106124Y0038750D03*
X0106376Y0039000D03*
X0106624Y0039250D03*
X0107126Y0039750D03*
X0107374Y0040000D03*
X0107624Y0040250D03*
X0101374Y0034000D03*
X0101124Y0033750D03*
X0100874Y0033500D03*
X0100624Y0033250D03*
X0100376Y0033000D03*
X0100126Y0032750D03*
X0107624Y0048500D03*
X0107374Y0048750D03*
X0107126Y0049000D03*
X0106874Y0049250D03*
X0106624Y0049500D03*
X0096251Y0056500D03*
D53*
X0107250Y0048875D03*
X0107250Y0039875D03*
X0106500Y0039125D03*
X0105250Y0037875D03*
X0103750Y0036375D03*
X0100500Y0033125D03*
D54*
X0107000Y0039685D03*
D55*
X0106250Y0038875D03*
X0107000Y0049125D03*
D56*
X0106376Y0049625D03*
X0096749Y0046875D03*
X0096251Y0046375D03*
X0095751Y0056125D03*
X0095626Y0032625D03*
D57*
X0105999Y0049625D03*
D58*
X0105874Y0049625D03*
D59*
X0105749Y0049625D03*
D60*
X0105624Y0049625D03*
D61*
X0105499Y0049625D03*
D62*
X0105250Y0049625D03*
D63*
X0105126Y0047125D03*
X0104876Y0046875D03*
X0104374Y0046375D03*
X0104124Y0046125D03*
X0103874Y0045875D03*
X0103626Y0045625D03*
X0103376Y0045375D03*
X0102874Y0044875D03*
X0102624Y0044625D03*
X0102374Y0044375D03*
X0101876Y0043875D03*
X0101374Y0043375D03*
X0101124Y0043125D03*
X0100874Y0042875D03*
X0100624Y0042625D03*
X0100376Y0042375D03*
X0100126Y0042125D03*
X0096251Y0040125D03*
X0082874Y0044375D03*
D64*
X0096874Y0031750D03*
X0105126Y0051250D03*
X0104876Y0051500D03*
X0104374Y0052000D03*
X0104124Y0052250D03*
X0103874Y0052500D03*
X0103626Y0052750D03*
X0103376Y0053000D03*
X0096999Y0057000D03*
D65*
X0098626Y0057750D03*
X0105001Y0047000D03*
X0104751Y0046750D03*
X0104499Y0046500D03*
X0104249Y0046250D03*
X0103999Y0046000D03*
X0103501Y0045500D03*
X0103251Y0045250D03*
X0102999Y0045000D03*
X0102749Y0044750D03*
X0102499Y0044500D03*
X0102249Y0044250D03*
X0102001Y0044000D03*
X0101751Y0043750D03*
X0101499Y0043500D03*
X0101249Y0043250D03*
X0100999Y0043000D03*
X0100749Y0042750D03*
X0100251Y0042250D03*
D66*
X0105001Y0051375D03*
X0104751Y0051625D03*
X0104499Y0051875D03*
X0104249Y0052125D03*
X0103999Y0052375D03*
X0103501Y0052875D03*
X0103251Y0053125D03*
X0102999Y0053375D03*
X0099001Y0031875D03*
D67*
X0101625Y0043625D03*
X0103125Y0045125D03*
X0104625Y0046625D03*
D68*
X0104625Y0051750D03*
X0103125Y0053250D03*
D69*
X0103750Y0045750D03*
X0100500Y0042500D03*
D70*
X0103750Y0052625D03*
X0083375Y0044375D03*
D71*
X0092751Y0045810D03*
X0102874Y0053440D03*
X0097124Y0057060D03*
X0098876Y0031810D03*
X0098751Y0031690D03*
X0096999Y0031690D03*
D72*
X0097249Y0031565D03*
X0098501Y0031565D03*
X0099001Y0040315D03*
X0099126Y0040435D03*
X0099251Y0040565D03*
X0092626Y0045815D03*
X0102749Y0053435D03*
X0097374Y0057185D03*
D73*
X0097624Y0057310D03*
X0102624Y0053440D03*
X0092501Y0045810D03*
X0097499Y0031440D03*
X0097624Y0031440D03*
X0098249Y0031440D03*
D74*
X0092376Y0045815D03*
X0102499Y0053435D03*
X0097874Y0057435D03*
D75*
X0098124Y0057560D03*
X0102374Y0053440D03*
X0092251Y0045810D03*
D76*
X0098501Y0049685D03*
X0098626Y0049815D03*
X0098751Y0049935D03*
X0099376Y0050565D03*
X0099501Y0050685D03*
X0099626Y0050815D03*
X0099874Y0051065D03*
X0100126Y0051315D03*
X0100251Y0051435D03*
X0100749Y0051935D03*
X0100874Y0052065D03*
X0100999Y0052185D03*
X0101124Y0052315D03*
X0101249Y0052435D03*
X0101374Y0052565D03*
X0101499Y0052685D03*
X0102249Y0053435D03*
D77*
X0102125Y0044125D03*
D78*
X0099750Y0050935D03*
X0102125Y0053315D03*
D79*
X0102001Y0053250D03*
X0101751Y0053000D03*
X0099251Y0050500D03*
X0099001Y0050250D03*
X0098249Y0049500D03*
X0097999Y0049250D03*
X0097749Y0049000D03*
X0097499Y0048750D03*
X0097249Y0048500D03*
X0098501Y0057750D03*
D80*
X0101876Y0053125D03*
X0100624Y0051875D03*
X0100376Y0051625D03*
X0099126Y0050375D03*
X0098876Y0050125D03*
X0098124Y0049375D03*
X0097874Y0049125D03*
X0097624Y0048875D03*
X0097374Y0048625D03*
X0096376Y0040125D03*
D81*
X0100000Y0051185D03*
X0101625Y0052815D03*
X0098375Y0057685D03*
D82*
X0100500Y0051750D03*
D83*
X0100376Y0058185D03*
D84*
X0100251Y0058190D03*
D85*
X0100126Y0058125D03*
D86*
X0083500Y0044310D03*
X0100000Y0032690D03*
D87*
X0100000Y0041440D03*
D88*
X0100000Y0058125D03*
D89*
X0097124Y0047440D03*
X0099874Y0032560D03*
X0096376Y0032060D03*
D90*
X0097374Y0031500D03*
X0099874Y0041250D03*
X0097499Y0057250D03*
D91*
X0099874Y0058125D03*
D92*
X0096500Y0056690D03*
X0099750Y0032440D03*
X0096500Y0031940D03*
D93*
X0099750Y0041065D03*
D94*
X0099750Y0058065D03*
D95*
X0096749Y0056875D03*
X0099626Y0032375D03*
X0099376Y0032125D03*
X0096624Y0031875D03*
D96*
X0097124Y0031625D03*
X0098626Y0031625D03*
X0099376Y0040625D03*
X0099626Y0040875D03*
X0097249Y0057125D03*
D97*
X0099626Y0058060D03*
X0095249Y0047810D03*
X0094874Y0047940D03*
X0094249Y0047940D03*
X0093874Y0047810D03*
X0093749Y0047810D03*
X0093624Y0043940D03*
X0093749Y0043810D03*
X0095501Y0043940D03*
X0095626Y0044060D03*
X0097374Y0041560D03*
X0097249Y0041440D03*
X0098626Y0041440D03*
D98*
X0099501Y0032250D03*
X0096624Y0056750D03*
D99*
X0099501Y0040750D03*
D100*
X0098751Y0041435D03*
X0096999Y0038935D03*
X0095876Y0040065D03*
X0095876Y0044315D03*
X0093374Y0044065D03*
X0093374Y0047565D03*
X0099501Y0058065D03*
D101*
X0099376Y0058000D03*
X0096999Y0041250D03*
D102*
X0093001Y0045815D03*
X0092876Y0045815D03*
X0096874Y0056935D03*
X0099251Y0032065D03*
X0099126Y0031935D03*
X0096749Y0031815D03*
D103*
X0096001Y0044500D03*
X0093126Y0047250D03*
X0099251Y0058000D03*
D104*
X0099126Y0057935D03*
X0095876Y0047565D03*
X0096001Y0040065D03*
X0082749Y0044315D03*
D105*
X0099001Y0057875D03*
D106*
X0095501Y0047625D03*
X0093499Y0047625D03*
X0095751Y0044125D03*
X0097124Y0041375D03*
X0098876Y0038875D03*
D107*
X0098876Y0041310D03*
X0093126Y0044310D03*
X0091874Y0045810D03*
X0095751Y0047560D03*
D108*
X0091999Y0045875D03*
X0096126Y0040125D03*
X0098876Y0057875D03*
D109*
X0094749Y0048000D03*
X0094624Y0048000D03*
X0094499Y0048000D03*
X0094374Y0048000D03*
X0094124Y0043750D03*
X0093999Y0043750D03*
X0093874Y0043750D03*
X0094999Y0043750D03*
X0095124Y0043750D03*
X0098501Y0041500D03*
X0098626Y0038750D03*
X0098751Y0038750D03*
X0097124Y0038750D03*
D110*
X0096001Y0047435D03*
X0098751Y0057815D03*
D111*
X0095124Y0047875D03*
X0094999Y0047875D03*
X0094124Y0047875D03*
X0093999Y0047875D03*
X0095249Y0043875D03*
X0097499Y0041625D03*
X0097624Y0041625D03*
X0097749Y0041625D03*
X0097874Y0041625D03*
X0097999Y0041625D03*
X0098124Y0041625D03*
X0098249Y0041625D03*
X0098501Y0038625D03*
X0097374Y0038625D03*
X0097249Y0038625D03*
D112*
X0098375Y0031500D03*
D113*
X0098375Y0038565D03*
D114*
X0098375Y0041625D03*
X0095375Y0043875D03*
D115*
X0098375Y0049625D03*
D116*
X0094874Y0043685D03*
X0094749Y0043685D03*
X0094624Y0043685D03*
X0094499Y0043685D03*
X0094374Y0043685D03*
X0094249Y0043685D03*
X0095751Y0040065D03*
X0097499Y0038565D03*
X0097624Y0038565D03*
X0098249Y0038565D03*
X0082624Y0044315D03*
D117*
X0098249Y0057625D03*
D118*
X0098124Y0038500D03*
X0097999Y0038500D03*
X0097874Y0038500D03*
X0097749Y0038500D03*
D119*
X0097999Y0057500D03*
D120*
X0095876Y0056250D03*
X0095501Y0056000D03*
X0096874Y0047000D03*
X0096624Y0046750D03*
X0096376Y0046500D03*
X0096126Y0046250D03*
X0095751Y0032500D03*
D121*
X0096624Y0040125D03*
D122*
X0096500Y0040125D03*
D123*
X0095626Y0047625D03*
D124*
X0091249Y0051810D03*
X0091124Y0051690D03*
X0090999Y0051560D03*
X0090874Y0051440D03*
X0090749Y0051310D03*
X0090624Y0051190D03*
X0090499Y0051060D03*
X0090374Y0050940D03*
X0090249Y0050810D03*
X0090001Y0050560D03*
X0089876Y0050440D03*
X0089751Y0050310D03*
X0089626Y0050190D03*
X0089501Y0050060D03*
X0089376Y0049940D03*
X0089251Y0049810D03*
X0088999Y0049560D03*
X0088874Y0049440D03*
X0088749Y0049310D03*
X0088624Y0049190D03*
X0088499Y0049060D03*
X0088374Y0048940D03*
X0088249Y0048810D03*
X0088124Y0048690D03*
X0087999Y0048560D03*
X0087874Y0048440D03*
X0087749Y0048310D03*
X0087624Y0048190D03*
X0091374Y0051940D03*
X0091499Y0052060D03*
X0091624Y0052190D03*
X0091749Y0052310D03*
X0091874Y0052440D03*
X0091999Y0052560D03*
X0092251Y0052810D03*
X0092376Y0052940D03*
X0092501Y0053060D03*
X0092626Y0053190D03*
X0092751Y0053310D03*
X0092876Y0053440D03*
X0093001Y0053560D03*
X0093126Y0053690D03*
X0093374Y0053940D03*
X0093499Y0054060D03*
X0093624Y0054190D03*
X0093749Y0054310D03*
X0093874Y0054440D03*
X0093999Y0054560D03*
X0094124Y0054690D03*
X0094249Y0054810D03*
X0094374Y0054940D03*
X0094499Y0055060D03*
X0094624Y0055190D03*
X0094749Y0055310D03*
X0094874Y0055440D03*
X0094999Y0055560D03*
X0095124Y0055690D03*
X0095249Y0055810D03*
X0095626Y0056060D03*
X0095124Y0033060D03*
X0095249Y0032940D03*
X0095501Y0032690D03*
D125*
X0095375Y0032810D03*
X0087125Y0040940D03*
X0086875Y0041190D03*
X0086875Y0047440D03*
X0087125Y0047690D03*
X0087375Y0047940D03*
X0089125Y0049690D03*
X0092125Y0052690D03*
X0095375Y0055940D03*
D126*
X0095375Y0047750D03*
D127*
X0087999Y0040125D03*
X0087749Y0040375D03*
X0088249Y0039875D03*
X0088499Y0039625D03*
X0088749Y0039375D03*
X0088999Y0039125D03*
X0089251Y0038875D03*
X0089501Y0038625D03*
X0089751Y0038375D03*
X0090001Y0038125D03*
X0090249Y0037875D03*
X0090499Y0037625D03*
X0090749Y0037375D03*
X0090999Y0037125D03*
X0091249Y0036875D03*
X0091499Y0036625D03*
X0091749Y0036375D03*
X0091999Y0036125D03*
X0092251Y0035875D03*
X0092501Y0035625D03*
X0092751Y0035375D03*
X0093001Y0035125D03*
X0093499Y0034625D03*
X0093749Y0034375D03*
X0093999Y0034125D03*
X0094249Y0033875D03*
X0094499Y0033625D03*
X0094749Y0033375D03*
X0094999Y0033125D03*
D128*
X0094874Y0033250D03*
X0094624Y0033500D03*
X0094374Y0033750D03*
X0094124Y0034000D03*
X0093874Y0034250D03*
X0093624Y0034500D03*
X0093374Y0034750D03*
X0093126Y0035000D03*
X0092876Y0035250D03*
X0092626Y0035500D03*
X0092376Y0035750D03*
X0091874Y0036250D03*
X0091624Y0036500D03*
X0091374Y0036750D03*
X0091124Y0037000D03*
X0090874Y0037250D03*
X0090624Y0037500D03*
X0090374Y0037750D03*
X0089876Y0038250D03*
X0089626Y0038500D03*
X0089376Y0038750D03*
X0088874Y0039250D03*
X0088624Y0039500D03*
X0088374Y0039750D03*
X0088124Y0040000D03*
X0087874Y0040250D03*
X0087624Y0040500D03*
D129*
X0093499Y0044000D03*
X0093624Y0047750D03*
D130*
X0086750Y0041375D03*
X0087250Y0040875D03*
X0087500Y0040625D03*
X0093250Y0034875D03*
D131*
X0093250Y0044185D03*
X0093250Y0047435D03*
D132*
X0090125Y0050690D03*
X0087500Y0048060D03*
X0087250Y0047810D03*
X0087000Y0047560D03*
X0087000Y0041060D03*
X0093250Y0053810D03*
D133*
X0087375Y0040750D03*
X0089125Y0039000D03*
X0092125Y0036000D03*
D134*
X0092125Y0045810D03*
D135*
X0091749Y0045810D03*
D136*
X0086750Y0047250D03*
X0090125Y0038000D03*
D137*
X0086625Y0044315D03*
D138*
X0086500Y0044310D03*
D139*
X0086375Y0044315D03*
D140*
X0086250Y0044310D03*
D141*
X0086125Y0044315D03*
D142*
X0086000Y0044310D03*
D143*
X0085875Y0044315D03*
D144*
X0085749Y0044310D03*
D145*
X0085624Y0044315D03*
D146*
X0085499Y0044310D03*
D147*
X0085374Y0044315D03*
D148*
X0085249Y0044310D03*
D149*
X0085125Y0044375D03*
D150*
X0085000Y0044375D03*
D151*
X0084875Y0044375D03*
D152*
X0084625Y0044375D03*
D153*
X0084500Y0044375D03*
D154*
X0084375Y0044375D03*
D155*
X0084250Y0044375D03*
D156*
X0084125Y0044375D03*
D157*
X0084000Y0044375D03*
D158*
X0083875Y0044375D03*
D159*
X0083250Y0044375D03*
D160*
X0083125Y0044375D03*
D161*
X0083000Y0044375D03*
M02*
