%
M48
M72
T01C0.0120
T02C0.0390
T03C0.0394
T04C0.0935
%
T01
X1125Y2295
X2725Y2640
X5175Y3145
X5675Y3145
X6625Y2590
X6925Y2590
X6925Y2290
X6625Y2290
X7575Y2145
X6075Y1240
X9975Y1340
T02
X3475Y2240
X3475Y3040
X1475Y2640
T03
X875Y640
X1875Y640
X2875Y640
X3875Y640
X4875Y640
X5875Y640
X6875Y640
X7875Y640
X8875Y640
X2875Y4640
X3875Y4640
X4875Y4640
X5875Y4640
X6875Y4640
X7875Y4640
X8875Y4640
X9875Y4640
X1875Y4640
X875Y4640
T04
X1475Y1640
X2725Y1640
X2725Y3640
X1475Y3640
M30
