%
M48
M72
T01C0.0120
T02C0.0315
T03C0.0512
%
T01
X730Y4450
X730Y5450
X4630Y1830
X6730Y2050
X8430Y4930
X9630Y4250
X10030Y5950
X11280Y4800
X12280Y5900
X9730Y11450
X8430Y9850
X5430Y9550
X4740Y9540
X5730Y15750
X4730Y16050
X5460Y18200
X4630Y18290
X4030Y18290
X5130Y20600
X5480Y21350
X5150Y22510
X6180Y21350
X6480Y21350
X7180Y21350
X7530Y20600
X8130Y20600
X8730Y20600
X7511Y22510
X5860Y19820
X7630Y16770
X7930Y17550
X9430Y16350
X11630Y23250
X3630Y25450
X2280Y24960
X1030Y16850
X1030Y15450
T02
X1930Y750
X2930Y750
X3930Y750
X4930Y750
X5930Y750
X6930Y750
X7930Y750
X8930Y750
T03
X1830Y9550
X1530Y17750
X9330Y19050
X9530Y23950
M30
