G75*
%MOIN*%
%OFA0B0*%
%FSLAX25Y25*%
%IPPOS*%
%LPD*%
%AMOC8*
5,1,8,0,0,1.08239X$1,22.5*
%
%ADD10C,0.00000*%
%ADD11C,0.00600*%
%ADD12C,0.00500*%
%ADD13C,0.00800*%
%ADD14C,0.00200*%
%ADD15R,0.00126X0.02370*%
%ADD16R,0.00124X0.03130*%
%ADD17R,0.00126X0.03630*%
%ADD18R,0.00125X0.03870*%
%ADD19R,0.00124X0.04370*%
%ADD20R,0.00126X0.04630*%
%ADD21R,0.00125X0.05130*%
%ADD22R,0.00124X0.05370*%
%ADD23R,0.00126X0.05630*%
%ADD24R,0.00125X0.05870*%
%ADD25R,0.00124X0.06130*%
%ADD26R,0.00126X0.06370*%
%ADD27R,0.00124X0.06630*%
%ADD28R,0.00126X0.06870*%
%ADD29R,0.00124X0.07130*%
%ADD30R,0.00125X0.07370*%
%ADD31R,0.00126X0.07630*%
%ADD32R,0.00125X0.07870*%
%ADD33R,0.00124X0.08130*%
%ADD34R,0.00126X0.08370*%
%ADD35R,0.00125X0.08630*%
%ADD36R,0.00124X0.08870*%
%ADD37R,0.00126X0.09130*%
%ADD38R,0.00125X0.09370*%
%ADD39R,0.00124X0.09630*%
%ADD40R,0.00126X0.09870*%
%ADD41R,0.00125X0.10130*%
%ADD42R,0.00125X0.10370*%
%ADD43R,0.00125X0.10630*%
%ADD44R,0.00124X0.10870*%
%ADD45R,0.00125X0.11130*%
%ADD46R,0.00126X0.11370*%
%ADD47R,0.00125X0.11630*%
%ADD48R,0.00125X0.05250*%
%ADD49R,0.00124X0.05250*%
%ADD50R,0.00124X0.05120*%
%ADD51R,0.00126X0.05120*%
%ADD52R,0.00125X0.05120*%
%ADD53R,0.00124X0.05130*%
%ADD54R,0.00126X0.05250*%
%ADD55R,0.00126X0.05130*%
%ADD56R,0.00125X0.05370*%
%ADD57R,0.00125X0.06130*%
%ADD58R,0.00125X0.06370*%
%ADD59R,0.00125X0.06630*%
%ADD60R,0.00125X0.06870*%
%ADD61R,0.00125X0.07130*%
%ADD62R,0.00124X0.07630*%
%ADD63R,0.00125X0.02870*%
%ADD64R,0.00125X0.04620*%
%ADD65R,0.00125X0.02880*%
%ADD66R,0.00125X0.04630*%
%ADD67R,0.00126X0.02870*%
%ADD68R,0.00126X0.04620*%
%ADD69R,0.00124X0.02880*%
%ADD70R,0.00124X0.04630*%
%ADD71R,0.00125X0.04500*%
%ADD72R,0.00125X0.04250*%
%ADD73R,0.00125X0.04000*%
%ADD74R,0.00125X0.03750*%
%ADD75R,0.00125X0.03500*%
%ADD76R,0.00125X0.03250*%
%ADD77R,0.00124X0.02870*%
%ADD78R,0.00124X0.03250*%
%ADD79R,0.00125X0.03120*%
%ADD80R,0.00125X0.03130*%
%ADD81R,0.00126X0.03250*%
%ADD82R,0.00124X0.03120*%
%ADD83R,0.00125X0.00250*%
%ADD84R,0.00125X0.00500*%
%ADD85R,0.00125X0.00630*%
%ADD86R,0.00126X0.05000*%
%ADD87R,0.00126X0.04000*%
%ADD88R,0.00126X0.00870*%
%ADD89R,0.00125X0.05000*%
%ADD90R,0.00125X0.04120*%
%ADD91R,0.00125X0.01130*%
%ADD92R,0.00124X0.05000*%
%ADD93R,0.00124X0.04250*%
%ADD94R,0.00124X0.01250*%
%ADD95R,0.00125X0.04870*%
%ADD96R,0.00125X0.04370*%
%ADD97R,0.00125X0.01500*%
%ADD98R,0.00125X0.04880*%
%ADD99R,0.00125X0.04380*%
%ADD100R,0.00125X0.01750*%
%ADD101R,0.00125X0.01880*%
%ADD102R,0.00125X0.04750*%
%ADD103R,0.00125X0.02120*%
%ADD104R,0.00125X0.02250*%
%ADD105R,0.00125X0.02370*%
%ADD106R,0.00125X0.01630*%
%ADD107R,0.00125X0.02000*%
%ADD108R,0.00125X0.02630*%
%ADD109R,0.00125X0.01380*%
%ADD110R,0.00125X0.02750*%
%ADD111R,0.00125X0.01370*%
%ADD112R,0.00126X0.04120*%
%ADD113R,0.00126X0.01250*%
%ADD114R,0.00126X0.01370*%
%ADD115R,0.00126X0.03130*%
%ADD116R,0.00125X0.01250*%
%ADD117R,0.00125X0.03370*%
%ADD118R,0.00125X0.01120*%
%ADD119R,0.00125X0.03620*%
%ADD120R,0.00125X0.05380*%
%ADD121R,0.00125X0.03630*%
%ADD122R,0.00124X0.03370*%
%ADD123R,0.00125X0.01870*%
%ADD124R,0.00125X0.05500*%
%ADD125R,0.00126X0.05500*%
%ADD126R,0.00126X0.01620*%
%ADD127R,0.00125X0.05630*%
%ADD128R,0.00125X0.05620*%
%ADD129R,0.00125X0.01620*%
%ADD130R,0.00124X0.05630*%
%ADD131R,0.00124X0.01750*%
%ADD132R,0.00124X0.05500*%
%ADD133R,0.00126X0.05620*%
%ADD134R,0.00126X0.03000*%
%ADD135R,0.00125X0.01000*%
%ADD136R,0.00124X0.05620*%
%ADD137R,0.00126X0.11250*%
%ADD138R,0.00124X0.11000*%
%ADD139R,0.00126X0.10750*%
%ADD140R,0.00124X0.10500*%
%ADD141R,0.00126X0.10250*%
%ADD142R,0.00124X0.10000*%
%ADD143R,0.00126X0.09750*%
%ADD144R,0.00125X0.09500*%
%ADD145R,0.00125X0.09250*%
%ADD146R,0.00125X0.09000*%
%ADD147R,0.00125X0.08750*%
%ADD148R,0.00125X0.08500*%
%ADD149R,0.00124X0.08370*%
%ADD150R,0.00126X0.08130*%
%ADD151R,0.00124X0.07870*%
%ADD152R,0.00124X0.07370*%
%ADD153R,0.00126X0.07130*%
%ADD154R,0.00124X0.06870*%
%ADD155R,0.00126X0.06630*%
%ADD156R,0.00124X0.06370*%
%ADD157R,0.00126X0.06130*%
%ADD158R,0.00124X0.05870*%
%ADD159R,0.00126X0.04370*%
%ADD160R,0.00124X0.03870*%
%ADD161R,0.00126X0.03370*%
D10*
X0001500Y0001500D02*
X0001500Y0135500D01*
X0156500Y0135500D01*
X0156500Y0001500D01*
X0001500Y0001500D01*
D11*
X0041128Y0102946D02*
X0044531Y0102946D01*
X0044531Y0105214D01*
X0044531Y0106629D02*
X0044531Y0108897D01*
X0044531Y0107763D02*
X0041128Y0107763D01*
X0042262Y0106629D01*
X0026763Y0123251D02*
X0023927Y0123251D01*
X0026763Y0123251D02*
X0027330Y0123818D01*
X0027330Y0124952D01*
X0026763Y0125519D01*
X0023927Y0125519D01*
X0024494Y0126934D02*
X0025061Y0126934D01*
X0025628Y0127501D01*
X0025628Y0128635D01*
X0026196Y0129202D01*
X0026763Y0129202D01*
X0027330Y0128635D01*
X0027330Y0127501D01*
X0026763Y0126934D01*
X0024494Y0126934D02*
X0023927Y0127501D01*
X0023927Y0128635D01*
X0024494Y0129202D01*
X0023927Y0130617D02*
X0023927Y0132318D01*
X0024494Y0132885D01*
X0025061Y0132885D01*
X0025628Y0132318D01*
X0025628Y0130617D01*
X0023927Y0130617D02*
X0027330Y0130617D01*
X0027330Y0132318D01*
X0026763Y0132885D01*
X0026196Y0132885D01*
X0025628Y0132318D01*
X0072415Y0109913D02*
X0075818Y0109913D01*
X0075818Y0111047D02*
X0075818Y0108778D01*
X0075251Y0107364D02*
X0075818Y0106797D01*
X0075818Y0105662D01*
X0075251Y0105095D01*
X0072982Y0105095D01*
X0072415Y0105662D01*
X0072415Y0106797D01*
X0072982Y0107364D01*
X0073550Y0108778D02*
X0072415Y0109913D01*
X0124679Y0097023D02*
X0124679Y0095889D01*
X0125246Y0095322D01*
X0125246Y0093907D02*
X0124679Y0093340D01*
X0124679Y0092206D01*
X0125246Y0091639D01*
X0127515Y0091639D01*
X0128082Y0092206D01*
X0128082Y0093340D01*
X0127515Y0093907D01*
X0127515Y0095322D02*
X0128082Y0095889D01*
X0128082Y0097023D01*
X0127515Y0097590D01*
X0126948Y0097590D01*
X0126380Y0097023D01*
X0126380Y0096456D01*
X0126380Y0097023D02*
X0125813Y0097590D01*
X0125246Y0097590D01*
X0124679Y0097023D01*
D12*
X0122661Y0098831D02*
X0105339Y0098831D01*
X0105339Y0090169D01*
X0122661Y0090169D01*
X0122661Y0098831D01*
X0120890Y0101205D02*
X0107110Y0101205D01*
X0107110Y0126795D01*
X0120890Y0126795D01*
X0120890Y0101205D01*
X0136913Y0102957D02*
X0151087Y0102957D01*
X0151087Y0110043D01*
X0136913Y0110043D01*
X0136913Y0102957D01*
X0137078Y0100291D02*
X0139781Y0100291D01*
X0139781Y0099390D02*
X0139781Y0101192D01*
X0137979Y0099390D02*
X0137078Y0100291D01*
X0137529Y0098245D02*
X0137078Y0097795D01*
X0137078Y0096444D01*
X0139781Y0096444D01*
X0138880Y0096444D02*
X0138880Y0097795D01*
X0138430Y0098245D01*
X0137529Y0098245D01*
X0138880Y0097344D02*
X0139781Y0098245D01*
X0138781Y0112215D02*
X0136078Y0112215D01*
X0136078Y0113566D01*
X0136529Y0114017D01*
X0138330Y0114017D01*
X0138781Y0113566D01*
X0138781Y0112215D01*
X0138781Y0115162D02*
X0138781Y0116963D01*
X0138781Y0116063D02*
X0136078Y0116063D01*
X0136979Y0115162D01*
X0135929Y0118154D02*
X0152071Y0118154D01*
X0152071Y0124846D01*
X0152858Y0124846D01*
X0152858Y0118154D01*
X0152071Y0118154D01*
X0152071Y0124846D01*
X0135929Y0124846D01*
X0135929Y0118154D01*
X0143409Y0120319D02*
X0143409Y0122681D01*
X0144591Y0121500D01*
X0143409Y0120319D01*
X0143409Y0120644D02*
X0143735Y0120644D01*
X0143409Y0121143D02*
X0144233Y0121143D01*
X0144449Y0121641D02*
X0143409Y0121641D01*
X0143409Y0122140D02*
X0143951Y0122140D01*
X0143452Y0122638D02*
X0143409Y0122638D01*
X0152071Y0122638D02*
X0152858Y0122638D01*
X0152858Y0122140D02*
X0152071Y0122140D01*
X0152071Y0121641D02*
X0152858Y0121641D01*
X0152858Y0121143D02*
X0152071Y0121143D01*
X0152071Y0120644D02*
X0152858Y0120644D01*
X0152858Y0120146D02*
X0152071Y0120146D01*
X0152071Y0119647D02*
X0152858Y0119647D01*
X0152858Y0119149D02*
X0152071Y0119149D01*
X0152071Y0118650D02*
X0152858Y0118650D01*
X0152858Y0123137D02*
X0152071Y0123137D01*
X0152071Y0123635D02*
X0152858Y0123635D01*
X0152858Y0124134D02*
X0152071Y0124134D01*
X0152071Y0124632D02*
X0152858Y0124632D01*
X0101009Y0097552D02*
X0099657Y0097552D01*
X0099207Y0097101D01*
X0099207Y0096200D01*
X0099657Y0095750D01*
X0101009Y0095750D01*
X0098062Y0095750D02*
X0098062Y0097101D01*
X0097612Y0097552D01*
X0096261Y0097552D01*
X0096261Y0095750D01*
X0095197Y0095750D02*
X0094296Y0095750D01*
X0094747Y0095750D02*
X0094747Y0098452D01*
X0095197Y0098452D02*
X0094296Y0098452D01*
X0090286Y0096200D02*
X0090286Y0095750D01*
X0089836Y0095750D01*
X0089836Y0096200D01*
X0090286Y0096200D01*
X0090286Y0095750D02*
X0089385Y0094849D01*
X0088240Y0096200D02*
X0088240Y0097101D01*
X0087790Y0097552D01*
X0086439Y0097552D01*
X0086439Y0098452D02*
X0086439Y0095750D01*
X0087790Y0095750D01*
X0088240Y0096200D01*
X0085294Y0095750D02*
X0083943Y0095750D01*
X0083492Y0096200D01*
X0083943Y0096651D01*
X0085294Y0096651D01*
X0085294Y0097101D02*
X0085294Y0095750D01*
X0085294Y0097101D02*
X0084843Y0097552D01*
X0083943Y0097552D01*
X0082347Y0098452D02*
X0080546Y0098452D01*
X0080546Y0095750D01*
X0079401Y0096200D02*
X0079401Y0097101D01*
X0078950Y0097552D01*
X0078050Y0097552D01*
X0077599Y0097101D01*
X0077599Y0096200D01*
X0078050Y0095750D01*
X0078950Y0095750D01*
X0079401Y0096200D01*
X0080546Y0097101D02*
X0081447Y0097101D01*
X0076495Y0097552D02*
X0076045Y0097552D01*
X0075144Y0096651D01*
X0075144Y0095750D02*
X0075144Y0097552D01*
X0073999Y0097552D02*
X0072648Y0097552D01*
X0072197Y0097101D01*
X0072197Y0096200D01*
X0072648Y0095750D01*
X0073999Y0095750D01*
X0071052Y0095750D02*
X0069701Y0095750D01*
X0069251Y0096200D01*
X0069701Y0096651D01*
X0071052Y0096651D01*
X0071052Y0097101D02*
X0071052Y0095750D01*
X0071052Y0097101D02*
X0070602Y0097552D01*
X0069701Y0097552D01*
X0068106Y0098452D02*
X0068106Y0095750D01*
X0066304Y0095750D02*
X0066304Y0098452D01*
X0067205Y0097552D01*
X0068106Y0098452D01*
X0062213Y0098452D02*
X0061312Y0098002D01*
X0060411Y0097101D01*
X0061762Y0097101D01*
X0062213Y0096651D01*
X0062213Y0096200D01*
X0061762Y0095750D01*
X0060862Y0095750D01*
X0060411Y0096200D01*
X0060411Y0097101D01*
X0059266Y0095750D02*
X0057465Y0095750D01*
X0058366Y0095750D02*
X0058366Y0098452D01*
X0057465Y0097552D01*
X0056320Y0098002D02*
X0056320Y0096200D01*
X0055869Y0095750D01*
X0054969Y0095750D01*
X0054518Y0096200D01*
X0056320Y0098002D01*
X0055869Y0098452D01*
X0054969Y0098452D01*
X0054518Y0098002D01*
X0054518Y0096200D01*
X0053373Y0095750D02*
X0051572Y0095750D01*
X0053373Y0097552D01*
X0053373Y0098002D01*
X0052923Y0098452D01*
X0052022Y0098452D01*
X0051572Y0098002D01*
X0047562Y0097552D02*
X0047562Y0096651D01*
X0046661Y0095750D01*
X0045516Y0095750D02*
X0044165Y0095750D01*
X0043714Y0096200D01*
X0043714Y0097101D01*
X0044165Y0097552D01*
X0045516Y0097552D01*
X0046661Y0098452D02*
X0047562Y0097552D01*
X0043552Y0093452D02*
X0043552Y0090750D01*
X0044697Y0091200D02*
X0045147Y0091651D01*
X0046498Y0091651D01*
X0046498Y0092101D02*
X0046498Y0090750D01*
X0045147Y0090750D01*
X0044697Y0091200D01*
X0045147Y0092552D02*
X0046048Y0092552D01*
X0046498Y0092101D01*
X0047643Y0092101D02*
X0047643Y0091200D01*
X0048093Y0090750D01*
X0049445Y0090750D01*
X0050590Y0090750D02*
X0050590Y0092552D01*
X0051490Y0092552D02*
X0051941Y0092552D01*
X0051490Y0092552D02*
X0050590Y0091651D01*
X0049445Y0092552D02*
X0048093Y0092552D01*
X0047643Y0092101D01*
X0047643Y0088452D02*
X0048994Y0088452D01*
X0049445Y0088002D01*
X0049445Y0087101D01*
X0048994Y0086651D01*
X0047643Y0086651D01*
X0048544Y0086651D02*
X0049445Y0085750D01*
X0050590Y0085750D02*
X0051490Y0085750D01*
X0051040Y0085750D02*
X0051040Y0088452D01*
X0050590Y0088452D02*
X0051490Y0088452D01*
X0052554Y0088002D02*
X0052554Y0087552D01*
X0053004Y0087101D01*
X0053905Y0087101D01*
X0054355Y0086651D01*
X0054355Y0086200D01*
X0053905Y0085750D01*
X0053004Y0085750D01*
X0052554Y0086200D01*
X0052554Y0088002D02*
X0053004Y0088452D01*
X0053905Y0088452D01*
X0054355Y0088002D01*
X0055500Y0088452D02*
X0056852Y0088452D01*
X0057302Y0088002D01*
X0057302Y0087101D01*
X0056852Y0086651D01*
X0055500Y0086651D01*
X0055500Y0085750D02*
X0055500Y0088452D01*
X0058447Y0088002D02*
X0058897Y0088452D01*
X0059798Y0088452D01*
X0060248Y0088002D01*
X0060248Y0087552D01*
X0058447Y0085750D01*
X0060248Y0085750D01*
X0062294Y0085750D02*
X0062294Y0088452D01*
X0061393Y0088452D02*
X0063195Y0088452D01*
X0064340Y0088002D02*
X0064340Y0086200D01*
X0064790Y0085750D01*
X0065691Y0085750D01*
X0066142Y0086200D01*
X0066142Y0088002D02*
X0065691Y0088452D01*
X0064790Y0088452D01*
X0064340Y0088002D01*
X0064831Y0090750D02*
X0065281Y0090750D01*
X0065281Y0091200D01*
X0064831Y0091200D01*
X0064831Y0090750D01*
X0063686Y0091200D02*
X0063686Y0092101D01*
X0063236Y0092552D01*
X0061885Y0092552D01*
X0061885Y0093452D02*
X0061885Y0090750D01*
X0063236Y0090750D01*
X0063686Y0091200D01*
X0066304Y0091200D02*
X0066304Y0092101D01*
X0066755Y0092552D01*
X0068106Y0092552D01*
X0069251Y0092101D02*
X0069251Y0091200D01*
X0069701Y0090750D01*
X0070602Y0090750D01*
X0071052Y0091200D01*
X0071052Y0092101D01*
X0070602Y0092552D01*
X0069701Y0092552D01*
X0069251Y0092101D01*
X0068106Y0090750D02*
X0066755Y0090750D01*
X0066304Y0091200D01*
X0060740Y0090750D02*
X0059388Y0090750D01*
X0058938Y0091200D01*
X0059388Y0091651D01*
X0060740Y0091651D01*
X0060740Y0092101D02*
X0060740Y0090750D01*
X0060740Y0092101D02*
X0060289Y0092552D01*
X0059388Y0092552D01*
X0057793Y0093452D02*
X0055991Y0093452D01*
X0055991Y0090750D01*
X0054847Y0091200D02*
X0054847Y0092101D01*
X0054396Y0092552D01*
X0053495Y0092552D01*
X0053045Y0092101D01*
X0053045Y0091200D01*
X0053495Y0090750D01*
X0054396Y0090750D01*
X0054847Y0091200D01*
X0055991Y0092101D02*
X0056892Y0092101D01*
X0047643Y0088452D02*
X0047643Y0085750D01*
X0046498Y0086651D02*
X0046498Y0088452D01*
X0046498Y0086651D02*
X0045597Y0085750D01*
X0044697Y0086651D01*
X0044697Y0088452D01*
X0043552Y0087552D02*
X0043552Y0085750D01*
X0043552Y0087101D02*
X0041750Y0087101D01*
X0041750Y0087552D02*
X0042651Y0088452D01*
X0043552Y0087552D01*
X0041750Y0087552D02*
X0041750Y0085750D01*
X0039500Y0084000D02*
X0003500Y0084000D01*
X0003500Y0004000D01*
X0039500Y0004000D01*
X0039500Y0084000D01*
X0041750Y0083452D02*
X0043101Y0083452D01*
X0043552Y0083002D01*
X0043552Y0082101D01*
X0043101Y0081651D01*
X0041750Y0081651D01*
X0042651Y0081651D02*
X0043552Y0080750D01*
X0044697Y0080750D02*
X0046498Y0080750D01*
X0047643Y0081651D02*
X0048544Y0080750D01*
X0049445Y0081651D01*
X0049445Y0083452D01*
X0050590Y0082552D02*
X0050590Y0082101D01*
X0051040Y0082101D01*
X0051040Y0082552D01*
X0050590Y0082552D01*
X0050590Y0081200D02*
X0050590Y0080750D01*
X0051040Y0080750D01*
X0051040Y0081200D01*
X0050590Y0081200D01*
X0050098Y0078452D02*
X0050098Y0075750D01*
X0050098Y0076651D02*
X0051450Y0077552D01*
X0052554Y0077101D02*
X0052554Y0076200D01*
X0053004Y0075750D01*
X0053905Y0075750D01*
X0054355Y0076651D02*
X0052554Y0076651D01*
X0052554Y0077101D02*
X0053004Y0077552D01*
X0053905Y0077552D01*
X0054355Y0077101D01*
X0054355Y0076651D01*
X0055500Y0076651D02*
X0056401Y0077552D01*
X0056852Y0077552D01*
X0055500Y0077552D02*
X0055500Y0075750D01*
X0051450Y0075750D02*
X0050098Y0076651D01*
X0048994Y0077552D02*
X0048544Y0077552D01*
X0047643Y0076651D01*
X0047643Y0075750D02*
X0047643Y0077552D01*
X0046498Y0077101D02*
X0046498Y0075750D01*
X0045147Y0075750D01*
X0044697Y0076200D01*
X0045147Y0076651D01*
X0046498Y0076651D01*
X0046498Y0077101D02*
X0046048Y0077552D01*
X0045147Y0077552D01*
X0043552Y0078002D02*
X0043101Y0078452D01*
X0041750Y0078452D01*
X0041750Y0075750D01*
X0041750Y0076651D02*
X0043101Y0076651D01*
X0043552Y0077101D01*
X0043552Y0078002D01*
X0044697Y0080750D02*
X0044697Y0083452D01*
X0046498Y0083452D01*
X0047643Y0083452D02*
X0047643Y0081651D01*
X0045597Y0082101D02*
X0044697Y0082101D01*
X0041750Y0080750D02*
X0041750Y0083452D01*
X0041750Y0090750D02*
X0041750Y0093452D01*
X0042651Y0092552D01*
X0043552Y0093452D01*
X0042651Y0095750D02*
X0041750Y0096651D01*
X0041750Y0097552D01*
X0042651Y0098452D01*
X0039256Y0098988D02*
X0039256Y0110012D01*
X0033744Y0110012D01*
X0033744Y0098988D01*
X0039256Y0098988D01*
X0027659Y0088002D02*
X0027659Y0087101D01*
X0027209Y0086651D01*
X0025858Y0086651D01*
X0025858Y0085750D02*
X0025858Y0088452D01*
X0027209Y0088452D01*
X0027659Y0088002D01*
X0024713Y0088002D02*
X0024262Y0088452D01*
X0023362Y0088452D01*
X0022911Y0088002D01*
X0022911Y0087552D01*
X0023362Y0087101D01*
X0024262Y0087101D01*
X0024713Y0086651D01*
X0024713Y0086200D01*
X0024262Y0085750D01*
X0023362Y0085750D01*
X0022911Y0086200D01*
X0021848Y0085750D02*
X0020947Y0085750D01*
X0021397Y0085750D02*
X0021397Y0088452D01*
X0020947Y0088452D02*
X0021848Y0088452D01*
X0019802Y0085300D02*
X0018000Y0085300D01*
X0016855Y0085750D02*
X0016855Y0088452D01*
X0015054Y0088452D02*
X0016855Y0085750D01*
X0015054Y0085750D02*
X0015054Y0088452D01*
X0013990Y0088452D02*
X0013090Y0088452D01*
X0013540Y0088452D02*
X0013540Y0085750D01*
X0013090Y0085750D02*
X0013990Y0085750D01*
X0011945Y0087101D02*
X0011494Y0086651D01*
X0010143Y0086651D01*
X0010143Y0085750D02*
X0010143Y0088452D01*
X0011494Y0088452D01*
X0011945Y0088002D01*
X0011945Y0087101D01*
X0008998Y0086200D02*
X0008548Y0085750D01*
X0007647Y0085750D01*
X0007197Y0086200D01*
X0008998Y0088002D01*
X0008998Y0086200D01*
X0007197Y0086200D02*
X0007197Y0088002D01*
X0007647Y0088452D01*
X0008548Y0088452D01*
X0008998Y0088002D01*
X0006052Y0085750D02*
X0004250Y0085750D01*
X0005151Y0085750D02*
X0005151Y0088452D01*
X0004250Y0087552D01*
X0001760Y0094000D02*
X0018118Y0094000D01*
X0022055Y0097937D01*
X0022055Y0130063D01*
X0018118Y0134000D01*
X0001760Y0134000D01*
X0001760Y0094000D01*
X0031323Y0111801D02*
X0031323Y0113603D01*
X0032224Y0114748D02*
X0031323Y0115648D01*
X0034026Y0115648D01*
X0034026Y0114748D02*
X0034026Y0116549D01*
X0032674Y0112702D02*
X0032674Y0111801D01*
X0031323Y0111801D02*
X0034026Y0111801D01*
X0049571Y0115535D02*
X0083429Y0115535D01*
X0083429Y0132465D01*
X0049571Y0132465D01*
X0049571Y0115535D01*
X0052839Y0113331D02*
X0052839Y0104669D01*
X0070161Y0104669D01*
X0070161Y0113331D01*
X0052839Y0113331D01*
X0072197Y0092552D02*
X0072648Y0092552D01*
X0073098Y0092101D01*
X0073548Y0092552D01*
X0073999Y0092101D01*
X0073999Y0090750D01*
X0073098Y0090750D02*
X0073098Y0092101D01*
X0072197Y0092552D02*
X0072197Y0090750D01*
X0068228Y0078452D02*
X0067778Y0078452D01*
X0068228Y0078452D02*
X0068228Y0075750D01*
X0067778Y0075750D02*
X0068678Y0075750D01*
X0069742Y0075750D02*
X0069742Y0077552D01*
X0070192Y0077552D01*
X0070643Y0077101D01*
X0071093Y0077552D01*
X0071543Y0077101D01*
X0071543Y0075750D01*
X0070643Y0075750D02*
X0070643Y0077101D01*
X0072688Y0076200D02*
X0073139Y0076651D01*
X0074490Y0076651D01*
X0074490Y0077101D02*
X0074490Y0075750D01*
X0073139Y0075750D01*
X0072688Y0076200D01*
X0073139Y0077552D02*
X0074040Y0077552D01*
X0074490Y0077101D01*
X0075635Y0077552D02*
X0076986Y0077552D01*
X0077436Y0077101D01*
X0077436Y0075750D01*
X0078581Y0075750D02*
X0078581Y0077552D01*
X0079933Y0077552D01*
X0080383Y0077101D01*
X0080383Y0075750D01*
X0080521Y0072713D02*
X0080971Y0072262D01*
X0080971Y0070911D01*
X0081872Y0070911D02*
X0079170Y0070911D01*
X0079170Y0072262D01*
X0079620Y0072713D01*
X0080521Y0072713D01*
X0077035Y0074000D02*
X0043965Y0074000D01*
X0043965Y0014000D01*
X0077035Y0014000D01*
X0077035Y0074000D01*
X0075635Y0075750D02*
X0075635Y0077552D01*
X0066714Y0075750D02*
X0065813Y0075750D01*
X0066264Y0075750D02*
X0066264Y0078452D01*
X0065813Y0078452D01*
X0064299Y0078452D02*
X0064299Y0078903D01*
X0064299Y0077552D02*
X0064299Y0075750D01*
X0063849Y0075750D02*
X0064750Y0075750D01*
X0064299Y0077552D02*
X0063849Y0077552D01*
X0062704Y0078002D02*
X0062704Y0076200D01*
X0062253Y0075750D01*
X0060902Y0075750D01*
X0060902Y0078452D01*
X0062253Y0078452D01*
X0062704Y0078002D01*
X0056811Y0080750D02*
X0055009Y0080750D01*
X0055910Y0080750D02*
X0055910Y0083452D01*
X0055009Y0082552D01*
X0079170Y0069316D02*
X0079170Y0068415D01*
X0079620Y0067965D01*
X0080071Y0067965D01*
X0080521Y0068415D01*
X0080521Y0069316D01*
X0080971Y0069766D01*
X0081422Y0069766D01*
X0081872Y0069316D01*
X0081872Y0068415D01*
X0081422Y0067965D01*
X0081872Y0066901D02*
X0081872Y0066000D01*
X0081872Y0066451D02*
X0079170Y0066451D01*
X0079170Y0066901D02*
X0079170Y0066000D01*
X0079170Y0069316D02*
X0079620Y0069766D01*
X0082322Y0064855D02*
X0082322Y0063054D01*
X0081872Y0061909D02*
X0079170Y0061909D01*
X0079170Y0060107D02*
X0081872Y0061909D01*
X0081872Y0060107D02*
X0079170Y0060107D01*
X0079170Y0059044D02*
X0079170Y0058143D01*
X0079170Y0058593D02*
X0081872Y0058593D01*
X0081872Y0058143D02*
X0081872Y0059044D01*
X0080521Y0056998D02*
X0080971Y0056548D01*
X0080971Y0055197D01*
X0081872Y0055197D02*
X0079170Y0055197D01*
X0079170Y0056548D01*
X0079620Y0056998D01*
X0080521Y0056998D01*
X0080971Y0054052D02*
X0080521Y0053601D01*
X0080521Y0052250D01*
X0081422Y0052250D01*
X0081872Y0052700D01*
X0081872Y0053601D01*
X0081422Y0054052D01*
X0080971Y0054052D01*
X0079620Y0053151D02*
X0080521Y0052250D01*
X0079620Y0053151D02*
X0079170Y0054052D01*
X0080500Y0049000D02*
X0077035Y0049000D01*
X0077035Y0039000D01*
X0080500Y0039000D01*
X0080500Y0049000D01*
X0080500Y0048859D02*
X0077035Y0048859D01*
X0077035Y0048360D02*
X0080500Y0048360D01*
X0080500Y0047862D02*
X0077035Y0047862D01*
X0077035Y0047363D02*
X0080500Y0047363D01*
X0080500Y0046865D02*
X0077035Y0046865D01*
X0077035Y0046366D02*
X0080500Y0046366D01*
X0080500Y0045868D02*
X0077035Y0045868D01*
X0077035Y0045369D02*
X0080500Y0045369D01*
X0080500Y0044870D02*
X0077035Y0044870D01*
X0077035Y0044372D02*
X0080500Y0044372D01*
X0080500Y0043873D02*
X0077035Y0043873D01*
X0077035Y0043375D02*
X0080500Y0043375D01*
X0080500Y0042876D02*
X0077035Y0042876D01*
X0077035Y0042378D02*
X0080500Y0042378D01*
X0080500Y0041879D02*
X0077035Y0041879D01*
X0077035Y0041381D02*
X0080500Y0041381D01*
X0080500Y0040882D02*
X0077035Y0040882D01*
X0077035Y0040384D02*
X0080500Y0040384D01*
X0080500Y0039885D02*
X0077035Y0039885D01*
X0077035Y0039387D02*
X0080500Y0039387D01*
X0081850Y0034578D02*
X0081850Y0032777D01*
X0081850Y0033677D02*
X0079148Y0033677D01*
X0080048Y0032777D01*
X0110626Y0056571D02*
X0110626Y0058372D01*
X0110626Y0057472D02*
X0113328Y0057472D01*
X0112878Y0059517D02*
X0111076Y0059517D01*
X0110626Y0059968D01*
X0110626Y0060869D01*
X0111076Y0061319D01*
X0111076Y0062464D02*
X0110626Y0062914D01*
X0110626Y0063815D01*
X0111076Y0064265D01*
X0111526Y0064265D01*
X0113328Y0062464D01*
X0113328Y0064265D01*
X0112878Y0065410D02*
X0111076Y0065410D01*
X0110626Y0065861D01*
X0110626Y0066762D01*
X0111076Y0067212D01*
X0112878Y0065410D01*
X0113328Y0065861D01*
X0113328Y0066762D01*
X0112878Y0067212D01*
X0111076Y0067212D01*
X0111076Y0068357D02*
X0110626Y0068807D01*
X0110626Y0069708D01*
X0111076Y0070159D01*
X0111526Y0070159D01*
X0111977Y0069708D01*
X0112427Y0070159D01*
X0112878Y0070159D01*
X0113328Y0069708D01*
X0113328Y0068807D01*
X0112878Y0068357D01*
X0111977Y0069258D02*
X0111977Y0069708D01*
X0112878Y0071303D02*
X0111076Y0071303D01*
X0110626Y0071754D01*
X0110626Y0072655D01*
X0111076Y0073105D01*
X0112878Y0071303D01*
X0113328Y0071754D01*
X0113328Y0072655D01*
X0112878Y0073105D01*
X0111076Y0073105D01*
X0117465Y0074000D02*
X0117465Y0014000D01*
X0150535Y0014000D01*
X0150535Y0074000D01*
X0117465Y0074000D01*
X0112878Y0061319D02*
X0113328Y0060869D01*
X0113328Y0059968D01*
X0112878Y0059517D01*
X0150535Y0049000D02*
X0150535Y0039000D01*
X0154000Y0039000D01*
X0154000Y0049000D01*
X0150535Y0049000D01*
X0150535Y0048859D02*
X0154000Y0048859D01*
X0154000Y0048360D02*
X0150535Y0048360D01*
X0150535Y0047862D02*
X0154000Y0047862D01*
X0154000Y0047363D02*
X0150535Y0047363D01*
X0150535Y0046865D02*
X0154000Y0046865D01*
X0154000Y0046366D02*
X0150535Y0046366D01*
X0150535Y0045868D02*
X0154000Y0045868D01*
X0154000Y0045369D02*
X0150535Y0045369D01*
X0150535Y0044870D02*
X0154000Y0044870D01*
X0154000Y0044372D02*
X0150535Y0044372D01*
X0150535Y0043873D02*
X0154000Y0043873D01*
X0154000Y0043375D02*
X0150535Y0043375D01*
X0150535Y0042876D02*
X0154000Y0042876D01*
X0154000Y0042378D02*
X0150535Y0042378D01*
X0150535Y0041879D02*
X0154000Y0041879D01*
X0154000Y0041381D02*
X0150535Y0041381D01*
X0150535Y0040882D02*
X0154000Y0040882D01*
X0154000Y0040384D02*
X0150535Y0040384D01*
X0150535Y0039885D02*
X0154000Y0039885D01*
X0154000Y0039387D02*
X0150535Y0039387D01*
X0155350Y0034578D02*
X0155350Y0032777D01*
X0155350Y0033677D02*
X0152648Y0033677D01*
X0153548Y0032777D01*
X0091950Y0119840D02*
X0089248Y0119840D01*
X0089248Y0121191D01*
X0089698Y0121641D01*
X0090599Y0121641D01*
X0091049Y0121191D01*
X0091049Y0119840D01*
X0091950Y0122786D02*
X0089248Y0122786D01*
X0089248Y0124588D02*
X0091950Y0124588D01*
X0091049Y0123687D01*
X0091950Y0122786D01*
X0091950Y0125733D02*
X0089248Y0125733D01*
X0089248Y0127084D01*
X0089698Y0127534D01*
X0090599Y0127534D01*
X0091049Y0127084D01*
X0091049Y0125733D01*
X0091049Y0126633D02*
X0091950Y0127534D01*
X0041500Y0054000D02*
X0036500Y0054000D01*
X0036500Y0034000D01*
X0041500Y0034000D01*
X0041500Y0054000D01*
X0041500Y0053844D02*
X0036500Y0053844D01*
X0036500Y0053345D02*
X0041500Y0053345D01*
X0041500Y0052847D02*
X0036500Y0052847D01*
X0036500Y0052348D02*
X0041500Y0052348D01*
X0041500Y0051850D02*
X0036500Y0051850D01*
X0036500Y0051351D02*
X0041500Y0051351D01*
X0041500Y0050853D02*
X0036500Y0050853D01*
X0036500Y0050354D02*
X0041500Y0050354D01*
X0041500Y0049856D02*
X0036500Y0049856D01*
X0036500Y0049357D02*
X0041500Y0049357D01*
X0041500Y0048859D02*
X0036500Y0048859D01*
X0036500Y0048360D02*
X0041500Y0048360D01*
X0041500Y0047862D02*
X0036500Y0047862D01*
X0036500Y0047363D02*
X0041500Y0047363D01*
X0041500Y0046865D02*
X0036500Y0046865D01*
X0036500Y0046366D02*
X0041500Y0046366D01*
X0041500Y0045868D02*
X0036500Y0045868D01*
X0036500Y0045369D02*
X0041500Y0045369D01*
X0041500Y0044870D02*
X0036500Y0044870D01*
X0036500Y0044372D02*
X0041500Y0044372D01*
X0041500Y0043873D02*
X0036500Y0043873D01*
X0036500Y0043375D02*
X0041500Y0043375D01*
X0041500Y0042876D02*
X0036500Y0042876D01*
X0036500Y0042378D02*
X0041500Y0042378D01*
X0041500Y0041879D02*
X0036500Y0041879D01*
X0036500Y0041381D02*
X0041500Y0041381D01*
X0041500Y0040882D02*
X0036500Y0040882D01*
X0036500Y0040384D02*
X0041500Y0040384D01*
X0041500Y0039885D02*
X0036500Y0039885D01*
X0036500Y0039387D02*
X0041500Y0039387D01*
X0041500Y0038888D02*
X0036500Y0038888D01*
X0036500Y0038390D02*
X0041500Y0038390D01*
X0041500Y0037891D02*
X0036500Y0037891D01*
X0036500Y0037393D02*
X0041500Y0037393D01*
X0041500Y0036894D02*
X0036500Y0036894D01*
X0036500Y0036396D02*
X0041500Y0036396D01*
X0041500Y0035897D02*
X0036500Y0035897D01*
X0036500Y0035399D02*
X0041500Y0035399D01*
X0041500Y0034900D02*
X0036500Y0034900D01*
X0036500Y0034402D02*
X0041500Y0034402D01*
X0042850Y0024578D02*
X0042850Y0022777D01*
X0042850Y0023677D02*
X0040148Y0023677D01*
X0041048Y0022777D01*
D13*
X0090680Y0105605D02*
X0094183Y0105605D01*
X0094883Y0106305D01*
X0094883Y0107707D01*
X0094183Y0108407D01*
X0090680Y0108407D01*
X0092081Y0110209D02*
X0090680Y0111610D01*
X0094883Y0111610D01*
X0094883Y0110209D02*
X0094883Y0113011D01*
D14*
X0043331Y0111551D02*
X0034669Y0111551D01*
X0034669Y0130449D01*
X0043331Y0130449D01*
X0043331Y0111551D01*
D15*
X0112500Y0044375D03*
D16*
X0112375Y0044375D03*
D17*
X0112250Y0044375D03*
D18*
X0112124Y0044375D03*
X0096874Y0040125D03*
X0096749Y0040125D03*
X0097749Y0031375D03*
X0097874Y0031375D03*
X0097999Y0031375D03*
X0098124Y0031375D03*
X0097749Y0057375D03*
D19*
X0112000Y0044375D03*
D20*
X0111875Y0044375D03*
D21*
X0111749Y0044375D03*
X0108249Y0047875D03*
X0108001Y0048125D03*
X0107749Y0048375D03*
X0107499Y0048625D03*
X0106749Y0049375D03*
X0108001Y0040625D03*
X0107749Y0040375D03*
X0107499Y0040125D03*
X0106749Y0039375D03*
X0105999Y0038625D03*
X0105749Y0038375D03*
X0105001Y0037625D03*
X0104751Y0037375D03*
X0104499Y0037125D03*
X0104249Y0036875D03*
X0103501Y0036125D03*
X0103251Y0035875D03*
X0102999Y0035625D03*
X0102749Y0035375D03*
X0102499Y0035125D03*
X0102249Y0034875D03*
X0102001Y0034625D03*
X0101751Y0034375D03*
X0101499Y0034125D03*
X0101249Y0033875D03*
X0100999Y0033625D03*
X0100749Y0033375D03*
X0100251Y0032875D03*
X0096251Y0032125D03*
X0096376Y0056625D03*
D22*
X0096500Y0046625D03*
X0111625Y0044375D03*
D23*
X0111500Y0044375D03*
X0106250Y0049625D03*
X0083750Y0044375D03*
D24*
X0106124Y0049625D03*
X0111374Y0044375D03*
D25*
X0111250Y0044375D03*
D26*
X0111125Y0044375D03*
D27*
X0111000Y0044375D03*
D28*
X0110875Y0044375D03*
D29*
X0110750Y0044375D03*
D30*
X0110626Y0044375D03*
X0105374Y0049625D03*
D31*
X0110500Y0044375D03*
X0084750Y0044375D03*
D32*
X0110374Y0044375D03*
D33*
X0110250Y0044375D03*
D34*
X0110125Y0044375D03*
D35*
X0109999Y0044375D03*
D36*
X0109875Y0044375D03*
D37*
X0109750Y0044375D03*
D38*
X0109624Y0044375D03*
D39*
X0109500Y0044375D03*
D40*
X0109375Y0044375D03*
D41*
X0109249Y0044375D03*
D42*
X0109124Y0044375D03*
D43*
X0108999Y0044375D03*
D44*
X0108875Y0044375D03*
D45*
X0108751Y0044375D03*
D46*
X0108625Y0044375D03*
D47*
X0108499Y0044375D03*
D48*
X0108374Y0047685D03*
X0108374Y0041065D03*
X0108249Y0040935D03*
X0106874Y0039565D03*
X0105624Y0038315D03*
X0105499Y0038185D03*
X0105374Y0038065D03*
X0104124Y0036815D03*
X0103999Y0036685D03*
X0096126Y0032185D03*
X0096001Y0032315D03*
X0095876Y0032435D03*
X0096999Y0047185D03*
X0096001Y0056315D03*
X0096126Y0056435D03*
D49*
X0106500Y0049565D03*
X0108125Y0040815D03*
X0083625Y0044315D03*
D50*
X0102125Y0034750D03*
X0108125Y0048000D03*
D51*
X0107875Y0048250D03*
X0107875Y0040500D03*
X0104625Y0037250D03*
X0103125Y0035750D03*
X0101625Y0034250D03*
D52*
X0101876Y0034500D03*
X0102374Y0035000D03*
X0102624Y0035250D03*
X0102874Y0035500D03*
X0103376Y0036000D03*
X0103626Y0036250D03*
X0103874Y0036500D03*
X0104374Y0037000D03*
X0104876Y0037500D03*
X0105126Y0037750D03*
X0105874Y0038500D03*
X0106124Y0038750D03*
X0106376Y0039000D03*
X0106624Y0039250D03*
X0107126Y0039750D03*
X0107374Y0040000D03*
X0107624Y0040250D03*
X0101374Y0034000D03*
X0101124Y0033750D03*
X0100874Y0033500D03*
X0100624Y0033250D03*
X0100376Y0033000D03*
X0100126Y0032750D03*
X0107624Y0048500D03*
X0107374Y0048750D03*
X0107126Y0049000D03*
X0106874Y0049250D03*
X0106624Y0049500D03*
X0096251Y0056500D03*
D53*
X0107250Y0048875D03*
X0107250Y0039875D03*
X0106500Y0039125D03*
X0105250Y0037875D03*
X0103750Y0036375D03*
X0100500Y0033125D03*
D54*
X0107000Y0039685D03*
D55*
X0106250Y0038875D03*
X0107000Y0049125D03*
D56*
X0106376Y0049625D03*
X0096749Y0046875D03*
X0096251Y0046375D03*
X0095751Y0056125D03*
X0095626Y0032625D03*
D57*
X0105999Y0049625D03*
D58*
X0105874Y0049625D03*
D59*
X0105749Y0049625D03*
D60*
X0105624Y0049625D03*
D61*
X0105499Y0049625D03*
D62*
X0105250Y0049625D03*
D63*
X0105126Y0047125D03*
X0104876Y0046875D03*
X0104374Y0046375D03*
X0104124Y0046125D03*
X0103874Y0045875D03*
X0103626Y0045625D03*
X0103376Y0045375D03*
X0102874Y0044875D03*
X0102624Y0044625D03*
X0102374Y0044375D03*
X0101876Y0043875D03*
X0101374Y0043375D03*
X0101124Y0043125D03*
X0100874Y0042875D03*
X0100624Y0042625D03*
X0100376Y0042375D03*
X0100126Y0042125D03*
X0096251Y0040125D03*
X0082874Y0044375D03*
D64*
X0096874Y0031750D03*
X0105126Y0051250D03*
X0104876Y0051500D03*
X0104374Y0052000D03*
X0104124Y0052250D03*
X0103874Y0052500D03*
X0103626Y0052750D03*
X0103376Y0053000D03*
X0096999Y0057000D03*
D65*
X0098626Y0057750D03*
X0105001Y0047000D03*
X0104751Y0046750D03*
X0104499Y0046500D03*
X0104249Y0046250D03*
X0103999Y0046000D03*
X0103501Y0045500D03*
X0103251Y0045250D03*
X0102999Y0045000D03*
X0102749Y0044750D03*
X0102499Y0044500D03*
X0102249Y0044250D03*
X0102001Y0044000D03*
X0101751Y0043750D03*
X0101499Y0043500D03*
X0101249Y0043250D03*
X0100999Y0043000D03*
X0100749Y0042750D03*
X0100251Y0042250D03*
D66*
X0105001Y0051375D03*
X0104751Y0051625D03*
X0104499Y0051875D03*
X0104249Y0052125D03*
X0103999Y0052375D03*
X0103501Y0052875D03*
X0103251Y0053125D03*
X0102999Y0053375D03*
X0099001Y0031875D03*
D67*
X0101625Y0043625D03*
X0103125Y0045125D03*
X0104625Y0046625D03*
D68*
X0104625Y0051750D03*
X0103125Y0053250D03*
D69*
X0103750Y0045750D03*
X0100500Y0042500D03*
D70*
X0103750Y0052625D03*
X0083375Y0044375D03*
D71*
X0092751Y0045810D03*
X0102874Y0053440D03*
X0097124Y0057060D03*
X0098876Y0031810D03*
X0098751Y0031690D03*
X0096999Y0031690D03*
D72*
X0097249Y0031565D03*
X0098501Y0031565D03*
X0099001Y0040315D03*
X0099126Y0040435D03*
X0099251Y0040565D03*
X0092626Y0045815D03*
X0102749Y0053435D03*
X0097374Y0057185D03*
D73*
X0097624Y0057310D03*
X0102624Y0053440D03*
X0092501Y0045810D03*
X0097499Y0031440D03*
X0097624Y0031440D03*
X0098249Y0031440D03*
D74*
X0092376Y0045815D03*
X0102499Y0053435D03*
X0097874Y0057435D03*
D75*
X0098124Y0057560D03*
X0102374Y0053440D03*
X0092251Y0045810D03*
D76*
X0098501Y0049685D03*
X0098626Y0049815D03*
X0098751Y0049935D03*
X0099376Y0050565D03*
X0099501Y0050685D03*
X0099626Y0050815D03*
X0099874Y0051065D03*
X0100126Y0051315D03*
X0100251Y0051435D03*
X0100749Y0051935D03*
X0100874Y0052065D03*
X0100999Y0052185D03*
X0101124Y0052315D03*
X0101249Y0052435D03*
X0101374Y0052565D03*
X0101499Y0052685D03*
X0102249Y0053435D03*
D77*
X0102125Y0044125D03*
D78*
X0099750Y0050935D03*
X0102125Y0053315D03*
D79*
X0102001Y0053250D03*
X0101751Y0053000D03*
X0099251Y0050500D03*
X0099001Y0050250D03*
X0098249Y0049500D03*
X0097999Y0049250D03*
X0097749Y0049000D03*
X0097499Y0048750D03*
X0097249Y0048500D03*
X0098501Y0057750D03*
D80*
X0101876Y0053125D03*
X0100624Y0051875D03*
X0100376Y0051625D03*
X0099126Y0050375D03*
X0098876Y0050125D03*
X0098124Y0049375D03*
X0097874Y0049125D03*
X0097624Y0048875D03*
X0097374Y0048625D03*
X0096376Y0040125D03*
D81*
X0100000Y0051185D03*
X0101625Y0052815D03*
X0098375Y0057685D03*
D82*
X0100500Y0051750D03*
D83*
X0100376Y0058185D03*
D84*
X0100251Y0058190D03*
D85*
X0100126Y0058125D03*
D86*
X0083500Y0044310D03*
X0100000Y0032690D03*
D87*
X0100000Y0041440D03*
D88*
X0100000Y0058125D03*
D89*
X0097124Y0047440D03*
X0099874Y0032560D03*
X0096376Y0032060D03*
D90*
X0097374Y0031500D03*
X0099874Y0041250D03*
X0097499Y0057250D03*
D91*
X0099874Y0058125D03*
D92*
X0096500Y0056690D03*
X0099750Y0032440D03*
X0096500Y0031940D03*
D93*
X0099750Y0041065D03*
D94*
X0099750Y0058065D03*
D95*
X0096749Y0056875D03*
X0099626Y0032375D03*
X0099376Y0032125D03*
X0096624Y0031875D03*
D96*
X0097124Y0031625D03*
X0098626Y0031625D03*
X0099376Y0040625D03*
X0099626Y0040875D03*
X0097249Y0057125D03*
D97*
X0099626Y0058060D03*
X0095249Y0047810D03*
X0094874Y0047940D03*
X0094249Y0047940D03*
X0093874Y0047810D03*
X0093749Y0047810D03*
X0093624Y0043940D03*
X0093749Y0043810D03*
X0095501Y0043940D03*
X0095626Y0044060D03*
X0097374Y0041560D03*
X0097249Y0041440D03*
X0098626Y0041440D03*
D98*
X0099501Y0032250D03*
X0096624Y0056750D03*
D99*
X0099501Y0040750D03*
D100*
X0098751Y0041435D03*
X0096999Y0038935D03*
X0095876Y0040065D03*
X0095876Y0044315D03*
X0093374Y0044065D03*
X0093374Y0047565D03*
X0099501Y0058065D03*
D101*
X0099376Y0058000D03*
X0096999Y0041250D03*
D102*
X0093001Y0045815D03*
X0092876Y0045815D03*
X0096874Y0056935D03*
X0099251Y0032065D03*
X0099126Y0031935D03*
X0096749Y0031815D03*
D103*
X0096001Y0044500D03*
X0093126Y0047250D03*
X0099251Y0058000D03*
D104*
X0099126Y0057935D03*
X0095876Y0047565D03*
X0096001Y0040065D03*
X0082749Y0044315D03*
D105*
X0099001Y0057875D03*
D106*
X0095501Y0047625D03*
X0093499Y0047625D03*
X0095751Y0044125D03*
X0097124Y0041375D03*
X0098876Y0038875D03*
D107*
X0098876Y0041310D03*
X0093126Y0044310D03*
X0091874Y0045810D03*
X0095751Y0047560D03*
D108*
X0091999Y0045875D03*
X0096126Y0040125D03*
X0098876Y0057875D03*
D109*
X0094749Y0048000D03*
X0094624Y0048000D03*
X0094499Y0048000D03*
X0094374Y0048000D03*
X0094124Y0043750D03*
X0093999Y0043750D03*
X0093874Y0043750D03*
X0094999Y0043750D03*
X0095124Y0043750D03*
X0098501Y0041500D03*
X0098626Y0038750D03*
X0098751Y0038750D03*
X0097124Y0038750D03*
D110*
X0096001Y0047435D03*
X0098751Y0057815D03*
D111*
X0095124Y0047875D03*
X0094999Y0047875D03*
X0094124Y0047875D03*
X0093999Y0047875D03*
X0095249Y0043875D03*
X0097499Y0041625D03*
X0097624Y0041625D03*
X0097749Y0041625D03*
X0097874Y0041625D03*
X0097999Y0041625D03*
X0098124Y0041625D03*
X0098249Y0041625D03*
X0098501Y0038625D03*
X0097374Y0038625D03*
X0097249Y0038625D03*
D112*
X0098375Y0031500D03*
D113*
X0098375Y0038565D03*
D114*
X0098375Y0041625D03*
X0095375Y0043875D03*
D115*
X0098375Y0049625D03*
D116*
X0094874Y0043685D03*
X0094749Y0043685D03*
X0094624Y0043685D03*
X0094499Y0043685D03*
X0094374Y0043685D03*
X0094249Y0043685D03*
X0095751Y0040065D03*
X0097499Y0038565D03*
X0097624Y0038565D03*
X0098249Y0038565D03*
X0082624Y0044315D03*
D117*
X0098249Y0057625D03*
D118*
X0098124Y0038500D03*
X0097999Y0038500D03*
X0097874Y0038500D03*
X0097749Y0038500D03*
D119*
X0097999Y0057500D03*
D120*
X0095876Y0056250D03*
X0095501Y0056000D03*
X0096874Y0047000D03*
X0096624Y0046750D03*
X0096376Y0046500D03*
X0096126Y0046250D03*
X0095751Y0032500D03*
D121*
X0096624Y0040125D03*
D122*
X0096500Y0040125D03*
D123*
X0095626Y0047625D03*
D124*
X0091249Y0051810D03*
X0091124Y0051690D03*
X0090999Y0051560D03*
X0090874Y0051440D03*
X0090749Y0051310D03*
X0090624Y0051190D03*
X0090499Y0051060D03*
X0090374Y0050940D03*
X0090249Y0050810D03*
X0090001Y0050560D03*
X0089876Y0050440D03*
X0089751Y0050310D03*
X0089626Y0050190D03*
X0089501Y0050060D03*
X0089376Y0049940D03*
X0089251Y0049810D03*
X0088999Y0049560D03*
X0088874Y0049440D03*
X0088749Y0049310D03*
X0088624Y0049190D03*
X0088499Y0049060D03*
X0088374Y0048940D03*
X0088249Y0048810D03*
X0088124Y0048690D03*
X0087999Y0048560D03*
X0087874Y0048440D03*
X0087749Y0048310D03*
X0087624Y0048190D03*
X0091374Y0051940D03*
X0091499Y0052060D03*
X0091624Y0052190D03*
X0091749Y0052310D03*
X0091874Y0052440D03*
X0091999Y0052560D03*
X0092251Y0052810D03*
X0092376Y0052940D03*
X0092501Y0053060D03*
X0092626Y0053190D03*
X0092751Y0053310D03*
X0092876Y0053440D03*
X0093001Y0053560D03*
X0093126Y0053690D03*
X0093374Y0053940D03*
X0093499Y0054060D03*
X0093624Y0054190D03*
X0093749Y0054310D03*
X0093874Y0054440D03*
X0093999Y0054560D03*
X0094124Y0054690D03*
X0094249Y0054810D03*
X0094374Y0054940D03*
X0094499Y0055060D03*
X0094624Y0055190D03*
X0094749Y0055310D03*
X0094874Y0055440D03*
X0094999Y0055560D03*
X0095124Y0055690D03*
X0095249Y0055810D03*
X0095626Y0056060D03*
X0095124Y0033060D03*
X0095249Y0032940D03*
X0095501Y0032690D03*
D125*
X0095375Y0032810D03*
X0087125Y0040940D03*
X0086875Y0041190D03*
X0086875Y0047440D03*
X0087125Y0047690D03*
X0087375Y0047940D03*
X0089125Y0049690D03*
X0092125Y0052690D03*
X0095375Y0055940D03*
D126*
X0095375Y0047750D03*
D127*
X0087999Y0040125D03*
X0087749Y0040375D03*
X0088249Y0039875D03*
X0088499Y0039625D03*
X0088749Y0039375D03*
X0088999Y0039125D03*
X0089251Y0038875D03*
X0089501Y0038625D03*
X0089751Y0038375D03*
X0090001Y0038125D03*
X0090249Y0037875D03*
X0090499Y0037625D03*
X0090749Y0037375D03*
X0090999Y0037125D03*
X0091249Y0036875D03*
X0091499Y0036625D03*
X0091749Y0036375D03*
X0091999Y0036125D03*
X0092251Y0035875D03*
X0092501Y0035625D03*
X0092751Y0035375D03*
X0093001Y0035125D03*
X0093499Y0034625D03*
X0093749Y0034375D03*
X0093999Y0034125D03*
X0094249Y0033875D03*
X0094499Y0033625D03*
X0094749Y0033375D03*
X0094999Y0033125D03*
D128*
X0094874Y0033250D03*
X0094624Y0033500D03*
X0094374Y0033750D03*
X0094124Y0034000D03*
X0093874Y0034250D03*
X0093624Y0034500D03*
X0093374Y0034750D03*
X0093126Y0035000D03*
X0092876Y0035250D03*
X0092626Y0035500D03*
X0092376Y0035750D03*
X0091874Y0036250D03*
X0091624Y0036500D03*
X0091374Y0036750D03*
X0091124Y0037000D03*
X0090874Y0037250D03*
X0090624Y0037500D03*
X0090374Y0037750D03*
X0089876Y0038250D03*
X0089626Y0038500D03*
X0089376Y0038750D03*
X0088874Y0039250D03*
X0088624Y0039500D03*
X0088374Y0039750D03*
X0088124Y0040000D03*
X0087874Y0040250D03*
X0087624Y0040500D03*
D129*
X0093499Y0044000D03*
X0093624Y0047750D03*
D130*
X0086750Y0041375D03*
X0087250Y0040875D03*
X0087500Y0040625D03*
X0093250Y0034875D03*
D131*
X0093250Y0044185D03*
X0093250Y0047435D03*
D132*
X0090125Y0050690D03*
X0087500Y0048060D03*
X0087250Y0047810D03*
X0087000Y0047560D03*
X0087000Y0041060D03*
X0093250Y0053810D03*
D133*
X0087375Y0040750D03*
X0089125Y0039000D03*
X0092125Y0036000D03*
D134*
X0092125Y0045810D03*
D135*
X0091749Y0045810D03*
D136*
X0086750Y0047250D03*
X0090125Y0038000D03*
D137*
X0086625Y0044315D03*
D138*
X0086500Y0044310D03*
D139*
X0086375Y0044315D03*
D140*
X0086250Y0044310D03*
D141*
X0086125Y0044315D03*
D142*
X0086000Y0044310D03*
D143*
X0085875Y0044315D03*
D144*
X0085749Y0044310D03*
D145*
X0085624Y0044315D03*
D146*
X0085499Y0044310D03*
D147*
X0085374Y0044315D03*
D148*
X0085249Y0044310D03*
D149*
X0085125Y0044375D03*
D150*
X0085000Y0044375D03*
D151*
X0084875Y0044375D03*
D152*
X0084625Y0044375D03*
D153*
X0084500Y0044375D03*
D154*
X0084375Y0044375D03*
D155*
X0084250Y0044375D03*
D156*
X0084125Y0044375D03*
D157*
X0084000Y0044375D03*
D158*
X0083875Y0044375D03*
D159*
X0083250Y0044375D03*
D160*
X0083125Y0044375D03*
D161*
X0083000Y0044375D03*
M02*
