%
M48
M72
T01C0.0197
T02C0.0315
T03C0.0354
T04C0.0591
%
T01
X4850Y10850
X13450Y10650
T02
X5860Y12400
X6650Y12400
X7440Y12400
T03
X1650Y6400
X2650Y6400
X2650Y5400
X1650Y5400
X1650Y4400
X2650Y4400
X2650Y3400
X1650Y3400
X1650Y2400
X2650Y2400
X5550Y3400
X6550Y3400
X6550Y4400
X5550Y4400
X5550Y5400
X6550Y5400
X12900Y5400
X13900Y5400
X13900Y4400
X12900Y4400
X12900Y3400
X13900Y3400
T04
X5035Y12400
X8265Y12400
M30
