G75*
%MOIN*%
%OFA0B0*%
%FSLAX25Y25*%
%IPPOS*%
%LPD*%
%AMOC8*
5,1,8,0,0,1.08239X$1,22.5*
%
%ADD10C,0.00000*%
%ADD11R,0.05715X0.01975*%
%ADD12R,0.05912X0.06699*%
%ADD13R,0.07880X0.07880*%
%ADD14C,0.03943*%
%ADD15R,0.06306X0.16148*%
%ADD16R,0.06306X0.04337*%
%ADD17R,0.07487X0.06699*%
%ADD18C,0.06000*%
%ADD19C,0.09258*%
%ADD20R,0.03943X0.02762*%
%ADD21R,0.04731X0.05321*%
%ADD22R,0.03156X0.05518*%
%ADD23R,0.03943X0.06699*%
%ADD24R,0.05715X0.05715*%
D10*
X0001500Y0001500D02*
X0001500Y0135500D01*
X0156500Y0135500D01*
X0156500Y0001500D01*
X0001500Y0001500D01*
D11*
X0018000Y0108882D03*
X0018000Y0111441D03*
X0018000Y0114000D03*
X0018000Y0116559D03*
X0018000Y0119118D03*
D12*
X0018000Y0126598D03*
X0018000Y0101402D03*
D13*
X0007469Y0109276D03*
X0007469Y0118724D03*
D14*
X0008866Y0126992D02*
X0008866Y0126992D01*
X0006110Y0126992D01*
X0006110Y0126992D01*
X0008866Y0126992D01*
X0008866Y0101008D02*
X0008866Y0101008D01*
X0006110Y0101008D01*
X0006110Y0101008D01*
X0008866Y0101008D01*
D15*
X0101205Y0114000D03*
D16*
X0126795Y0114000D03*
X0126795Y0123055D03*
X0126795Y0104945D03*
D17*
X0039000Y0115488D03*
X0039000Y0126512D03*
D18*
X0058600Y0124000D03*
X0066500Y0124000D03*
X0074400Y0124000D03*
D19*
X0082650Y0124000D03*
X0050350Y0124000D03*
D20*
X0036500Y0107453D03*
X0036500Y0101547D03*
D21*
X0139079Y0121500D03*
X0148921Y0121500D03*
D22*
X0147740Y0106500D03*
X0140260Y0106500D03*
D23*
X0119709Y0094500D03*
X0108291Y0094500D03*
X0067209Y0109000D03*
X0055791Y0109000D03*
D24*
X0026500Y0064000D03*
X0016500Y0064000D03*
X0016500Y0054000D03*
X0026500Y0054000D03*
X0026500Y0044000D03*
X0016500Y0044000D03*
X0016500Y0034000D03*
X0026500Y0034000D03*
X0026500Y0024000D03*
X0016500Y0024000D03*
X0055500Y0034000D03*
X0065500Y0034000D03*
X0065500Y0044000D03*
X0055500Y0044000D03*
X0055500Y0054000D03*
X0065500Y0054000D03*
X0129000Y0054000D03*
X0139000Y0054000D03*
X0139000Y0044000D03*
X0129000Y0044000D03*
X0129000Y0034000D03*
X0139000Y0034000D03*
M02*
