G75*
%MOIN*%
%OFA0B0*%
%FSLAX25Y25*%
%IPPOS*%
%LPD*%
%AMOC8*
5,1,8,0,0,1.08239X$1,22.5*
%
%ADD10C,0.00000*%
%ADD11C,0.00039*%
D10*
X0001500Y0001500D02*
X0001500Y0135500D01*
X0156500Y0135500D01*
X0156500Y0001500D01*
X0001500Y0001500D01*
D11*
X0006110Y0100024D02*
X0008866Y0100024D01*
X0009850Y0101008D02*
X0009848Y0101070D01*
X0009842Y0101131D01*
X0009833Y0101192D01*
X0009819Y0101253D01*
X0009802Y0101312D01*
X0009781Y0101370D01*
X0009756Y0101427D01*
X0009728Y0101482D01*
X0009697Y0101535D01*
X0009662Y0101586D01*
X0009624Y0101635D01*
X0009583Y0101682D01*
X0009540Y0101725D01*
X0009493Y0101766D01*
X0009444Y0101804D01*
X0009393Y0101839D01*
X0009340Y0101870D01*
X0009285Y0101898D01*
X0009228Y0101923D01*
X0009170Y0101944D01*
X0009111Y0101961D01*
X0009050Y0101975D01*
X0008989Y0101984D01*
X0008928Y0101990D01*
X0008866Y0101992D01*
X0006110Y0101992D01*
X0005126Y0101008D02*
X0005128Y0100946D01*
X0005134Y0100885D01*
X0005143Y0100824D01*
X0005157Y0100763D01*
X0005174Y0100704D01*
X0005195Y0100646D01*
X0005220Y0100589D01*
X0005248Y0100534D01*
X0005279Y0100481D01*
X0005314Y0100430D01*
X0005352Y0100381D01*
X0005393Y0100334D01*
X0005436Y0100291D01*
X0005483Y0100250D01*
X0005532Y0100212D01*
X0005583Y0100177D01*
X0005636Y0100146D01*
X0005691Y0100118D01*
X0005748Y0100093D01*
X0005806Y0100072D01*
X0005865Y0100055D01*
X0005926Y0100041D01*
X0005987Y0100032D01*
X0006048Y0100026D01*
X0006110Y0100024D01*
X0005126Y0101008D02*
X0005128Y0101070D01*
X0005134Y0101131D01*
X0005143Y0101192D01*
X0005157Y0101253D01*
X0005174Y0101312D01*
X0005195Y0101370D01*
X0005220Y0101427D01*
X0005248Y0101482D01*
X0005279Y0101535D01*
X0005314Y0101586D01*
X0005352Y0101635D01*
X0005393Y0101682D01*
X0005436Y0101725D01*
X0005483Y0101766D01*
X0005532Y0101804D01*
X0005583Y0101839D01*
X0005636Y0101870D01*
X0005691Y0101898D01*
X0005748Y0101923D01*
X0005806Y0101944D01*
X0005865Y0101961D01*
X0005926Y0101975D01*
X0005987Y0101984D01*
X0006048Y0101990D01*
X0006110Y0101992D01*
X0008866Y0100024D02*
X0008928Y0100026D01*
X0008989Y0100032D01*
X0009050Y0100041D01*
X0009111Y0100055D01*
X0009170Y0100072D01*
X0009228Y0100093D01*
X0009285Y0100118D01*
X0009340Y0100146D01*
X0009393Y0100177D01*
X0009444Y0100212D01*
X0009493Y0100250D01*
X0009540Y0100291D01*
X0009583Y0100334D01*
X0009624Y0100381D01*
X0009662Y0100430D01*
X0009697Y0100481D01*
X0009728Y0100534D01*
X0009756Y0100589D01*
X0009781Y0100646D01*
X0009802Y0100704D01*
X0009819Y0100763D01*
X0009833Y0100824D01*
X0009842Y0100885D01*
X0009848Y0100946D01*
X0009850Y0101008D01*
X0008866Y0126008D02*
X0006110Y0126008D01*
X0006048Y0126010D01*
X0005987Y0126016D01*
X0005926Y0126025D01*
X0005865Y0126039D01*
X0005806Y0126056D01*
X0005748Y0126077D01*
X0005691Y0126102D01*
X0005636Y0126130D01*
X0005583Y0126161D01*
X0005532Y0126196D01*
X0005483Y0126234D01*
X0005436Y0126275D01*
X0005393Y0126318D01*
X0005352Y0126365D01*
X0005314Y0126414D01*
X0005279Y0126465D01*
X0005248Y0126518D01*
X0005220Y0126573D01*
X0005195Y0126630D01*
X0005174Y0126688D01*
X0005157Y0126747D01*
X0005143Y0126808D01*
X0005134Y0126869D01*
X0005128Y0126930D01*
X0005126Y0126992D01*
X0005128Y0127054D01*
X0005134Y0127115D01*
X0005143Y0127176D01*
X0005157Y0127237D01*
X0005174Y0127296D01*
X0005195Y0127354D01*
X0005220Y0127411D01*
X0005248Y0127466D01*
X0005279Y0127519D01*
X0005314Y0127570D01*
X0005352Y0127619D01*
X0005393Y0127666D01*
X0005436Y0127709D01*
X0005483Y0127750D01*
X0005532Y0127788D01*
X0005583Y0127823D01*
X0005636Y0127854D01*
X0005691Y0127882D01*
X0005748Y0127907D01*
X0005806Y0127928D01*
X0005865Y0127945D01*
X0005926Y0127959D01*
X0005987Y0127968D01*
X0006048Y0127974D01*
X0006110Y0127976D01*
X0008866Y0127976D01*
X0008928Y0127974D01*
X0008989Y0127968D01*
X0009050Y0127959D01*
X0009111Y0127945D01*
X0009170Y0127928D01*
X0009228Y0127907D01*
X0009285Y0127882D01*
X0009340Y0127854D01*
X0009393Y0127823D01*
X0009444Y0127788D01*
X0009493Y0127750D01*
X0009540Y0127709D01*
X0009583Y0127666D01*
X0009624Y0127619D01*
X0009662Y0127570D01*
X0009697Y0127519D01*
X0009728Y0127466D01*
X0009756Y0127411D01*
X0009781Y0127354D01*
X0009802Y0127296D01*
X0009819Y0127237D01*
X0009833Y0127176D01*
X0009842Y0127115D01*
X0009848Y0127054D01*
X0009850Y0126992D01*
X0009848Y0126930D01*
X0009842Y0126869D01*
X0009833Y0126808D01*
X0009819Y0126747D01*
X0009802Y0126688D01*
X0009781Y0126630D01*
X0009756Y0126573D01*
X0009728Y0126518D01*
X0009697Y0126465D01*
X0009662Y0126414D01*
X0009624Y0126365D01*
X0009583Y0126318D01*
X0009540Y0126275D01*
X0009493Y0126234D01*
X0009444Y0126196D01*
X0009393Y0126161D01*
X0009340Y0126130D01*
X0009285Y0126102D01*
X0009228Y0126077D01*
X0009170Y0126056D01*
X0009111Y0126039D01*
X0009050Y0126025D01*
X0008989Y0126016D01*
X0008928Y0126010D01*
X0008866Y0126008D01*
M02*
