G75*
%MOIN*%
%OFA0B0*%
%FSLAX25Y25*%
%IPPOS*%
%LPD*%
%AMOC8*
5,1,8,0,0,1.08239X$1,22.5*
%
%ADD10C,0.00000*%
%ADD11C,0.03943*%
%ADD12C,0.06000*%
%ADD13C,0.09258*%
%ADD14R,0.05715X0.05715*%
%ADD15C,0.06306*%
D10*
X0001500Y0001500D02*
X0001500Y0181500D01*
X0156500Y0181500D01*
X0156500Y0001500D01*
X0001500Y0001500D01*
D11*
X0008866Y0147008D02*
X0008866Y0147008D01*
X0006110Y0147008D01*
X0006110Y0147008D01*
X0008866Y0147008D01*
X0008866Y0172992D02*
X0008866Y0172992D01*
X0006110Y0172992D01*
X0006110Y0172992D01*
X0008866Y0172992D01*
D12*
X0058600Y0170000D03*
X0066500Y0170000D03*
X0074400Y0170000D03*
D13*
X0082650Y0170000D03*
X0050350Y0170000D03*
D14*
X0128000Y0078500D03*
X0128000Y0068500D03*
X0128000Y0058500D03*
X0138000Y0058500D03*
X0138000Y0068500D03*
X0138000Y0078500D03*
D15*
X0025500Y0073500D03*
X0025500Y0083500D03*
X0025500Y0093500D03*
X0025500Y0103500D03*
X0025500Y0113500D03*
X0015500Y0113500D03*
X0015500Y0103500D03*
X0015500Y0093500D03*
X0015500Y0083500D03*
X0015500Y0073500D03*
X0015500Y0063500D03*
X0015500Y0053500D03*
X0015500Y0043500D03*
X0015500Y0033500D03*
X0015500Y0023500D03*
X0025500Y0023500D03*
X0025500Y0033500D03*
X0025500Y0043500D03*
X0025500Y0053500D03*
X0025500Y0063500D03*
M02*
