G75*
%MOIN*%
%OFA0B0*%
%FSLAX25Y25*%
%IPPOS*%
%LPD*%
%AMOC8*
5,1,8,0,0,1.08239X$1,22.5*
%
%ADD10C,0.00000*%
%ADD11C,0.00600*%
%ADD12C,0.00500*%
%ADD13C,0.00800*%
%ADD14C,0.00200*%
%ADD15R,0.00126X0.02370*%
%ADD16R,0.00124X0.03130*%
%ADD17R,0.00126X0.03630*%
%ADD18R,0.00125X0.03870*%
%ADD19R,0.00124X0.04370*%
%ADD20R,0.00126X0.04630*%
%ADD21R,0.00125X0.05130*%
%ADD22R,0.00124X0.05370*%
%ADD23R,0.00126X0.05630*%
%ADD24R,0.00125X0.05870*%
%ADD25R,0.00124X0.06130*%
%ADD26R,0.00126X0.06370*%
%ADD27R,0.00124X0.06630*%
%ADD28R,0.00126X0.06870*%
%ADD29R,0.00124X0.07130*%
%ADD30R,0.00125X0.07370*%
%ADD31R,0.00126X0.07630*%
%ADD32R,0.00125X0.07870*%
%ADD33R,0.00124X0.08130*%
%ADD34R,0.00126X0.08370*%
%ADD35R,0.00125X0.08630*%
%ADD36R,0.00124X0.08870*%
%ADD37R,0.00126X0.09130*%
%ADD38R,0.00125X0.09370*%
%ADD39R,0.00124X0.09630*%
%ADD40R,0.00126X0.09870*%
%ADD41R,0.00125X0.10130*%
%ADD42R,0.00125X0.10370*%
%ADD43R,0.00125X0.10630*%
%ADD44R,0.00124X0.10870*%
%ADD45R,0.00125X0.11130*%
%ADD46R,0.00126X0.11370*%
%ADD47R,0.00125X0.11630*%
%ADD48R,0.00125X0.05250*%
%ADD49R,0.00124X0.05250*%
%ADD50R,0.00124X0.05120*%
%ADD51R,0.00126X0.05120*%
%ADD52R,0.00125X0.05120*%
%ADD53R,0.00124X0.05130*%
%ADD54R,0.00126X0.05250*%
%ADD55R,0.00126X0.05130*%
%ADD56R,0.00125X0.05370*%
%ADD57R,0.00125X0.06130*%
%ADD58R,0.00125X0.06370*%
%ADD59R,0.00125X0.06630*%
%ADD60R,0.00125X0.06870*%
%ADD61R,0.00125X0.07130*%
%ADD62R,0.00124X0.07630*%
%ADD63R,0.00125X0.02870*%
%ADD64R,0.00125X0.04620*%
%ADD65R,0.00125X0.02880*%
%ADD66R,0.00125X0.04630*%
%ADD67R,0.00126X0.02870*%
%ADD68R,0.00126X0.04620*%
%ADD69R,0.00124X0.02880*%
%ADD70R,0.00124X0.04630*%
%ADD71R,0.00125X0.04500*%
%ADD72R,0.00125X0.04250*%
%ADD73R,0.00125X0.04000*%
%ADD74R,0.00125X0.03750*%
%ADD75R,0.00125X0.03500*%
%ADD76R,0.00125X0.03250*%
%ADD77R,0.00124X0.02870*%
%ADD78R,0.00124X0.03250*%
%ADD79R,0.00125X0.03120*%
%ADD80R,0.00125X0.03130*%
%ADD81R,0.00126X0.03250*%
%ADD82R,0.00124X0.03120*%
%ADD83R,0.00125X0.00250*%
%ADD84R,0.00125X0.00500*%
%ADD85R,0.00125X0.00630*%
%ADD86R,0.00126X0.05000*%
%ADD87R,0.00126X0.04000*%
%ADD88R,0.00126X0.00870*%
%ADD89R,0.00125X0.05000*%
%ADD90R,0.00125X0.04120*%
%ADD91R,0.00125X0.01130*%
%ADD92R,0.00124X0.05000*%
%ADD93R,0.00124X0.04250*%
%ADD94R,0.00124X0.01250*%
%ADD95R,0.00125X0.04870*%
%ADD96R,0.00125X0.04370*%
%ADD97R,0.00125X0.01500*%
%ADD98R,0.00125X0.04880*%
%ADD99R,0.00125X0.04380*%
%ADD100R,0.00125X0.01750*%
%ADD101R,0.00125X0.01880*%
%ADD102R,0.00125X0.04750*%
%ADD103R,0.00125X0.02120*%
%ADD104R,0.00125X0.02250*%
%ADD105R,0.00125X0.02370*%
%ADD106R,0.00125X0.01630*%
%ADD107R,0.00125X0.02000*%
%ADD108R,0.00125X0.02630*%
%ADD109R,0.00125X0.01380*%
%ADD110R,0.00125X0.02750*%
%ADD111R,0.00125X0.01370*%
%ADD112R,0.00126X0.04120*%
%ADD113R,0.00126X0.01250*%
%ADD114R,0.00126X0.01370*%
%ADD115R,0.00126X0.03130*%
%ADD116R,0.00125X0.01250*%
%ADD117R,0.00125X0.03370*%
%ADD118R,0.00125X0.01120*%
%ADD119R,0.00125X0.03620*%
%ADD120R,0.00125X0.05380*%
%ADD121R,0.00125X0.03630*%
%ADD122R,0.00124X0.03370*%
%ADD123R,0.00125X0.01870*%
%ADD124R,0.00125X0.05500*%
%ADD125R,0.00126X0.05500*%
%ADD126R,0.00126X0.01620*%
%ADD127R,0.00125X0.05630*%
%ADD128R,0.00125X0.05620*%
%ADD129R,0.00125X0.01620*%
%ADD130R,0.00124X0.05630*%
%ADD131R,0.00124X0.01750*%
%ADD132R,0.00124X0.05500*%
%ADD133R,0.00126X0.05620*%
%ADD134R,0.00126X0.03000*%
%ADD135R,0.00125X0.01000*%
%ADD136R,0.00124X0.05620*%
%ADD137R,0.00126X0.11250*%
%ADD138R,0.00124X0.11000*%
%ADD139R,0.00126X0.10750*%
%ADD140R,0.00124X0.10500*%
%ADD141R,0.00126X0.10250*%
%ADD142R,0.00124X0.10000*%
%ADD143R,0.00126X0.09750*%
%ADD144R,0.00125X0.09500*%
%ADD145R,0.00125X0.09250*%
%ADD146R,0.00125X0.09000*%
%ADD147R,0.00125X0.08750*%
%ADD148R,0.00125X0.08500*%
%ADD149R,0.00124X0.08370*%
%ADD150R,0.00126X0.08130*%
%ADD151R,0.00124X0.07870*%
%ADD152R,0.00124X0.07370*%
%ADD153R,0.00126X0.07130*%
%ADD154R,0.00124X0.06870*%
%ADD155R,0.00126X0.06630*%
%ADD156R,0.00124X0.06370*%
%ADD157R,0.00126X0.06130*%
%ADD158R,0.00124X0.05870*%
%ADD159R,0.00126X0.04370*%
%ADD160R,0.00124X0.03870*%
%ADD161R,0.00126X0.03370*%
%ADD162C,0.00300*%
D10*
X0001500Y0001500D02*
X0001500Y0181500D01*
X0156500Y0181500D01*
X0156500Y0001500D01*
X0001500Y0001500D01*
D11*
X0125246Y0137639D02*
X0124679Y0138206D01*
X0124679Y0139340D01*
X0125246Y0139907D01*
X0125246Y0141322D02*
X0124679Y0141889D01*
X0124679Y0143023D01*
X0125246Y0143590D01*
X0125813Y0143590D01*
X0126380Y0143023D01*
X0126948Y0143590D01*
X0127515Y0143590D01*
X0128082Y0143023D01*
X0128082Y0141889D01*
X0127515Y0141322D01*
X0127515Y0139907D02*
X0128082Y0139340D01*
X0128082Y0138206D01*
X0127515Y0137639D01*
X0125246Y0137639D01*
X0126380Y0142456D02*
X0126380Y0143023D01*
X0075818Y0151662D02*
X0075818Y0152797D01*
X0075251Y0153364D01*
X0075818Y0154778D02*
X0075818Y0157047D01*
X0075818Y0155913D02*
X0072415Y0155913D01*
X0073550Y0154778D01*
X0072982Y0153364D02*
X0072415Y0152797D01*
X0072415Y0151662D01*
X0072982Y0151095D01*
X0075251Y0151095D01*
X0075818Y0151662D01*
X0044531Y0151214D02*
X0044531Y0148946D01*
X0041128Y0148946D01*
X0042262Y0152629D02*
X0041128Y0153763D01*
X0044531Y0153763D01*
X0044531Y0152629D02*
X0044531Y0154897D01*
X0027330Y0169818D02*
X0027330Y0170952D01*
X0026763Y0171519D01*
X0023927Y0171519D01*
X0024494Y0172934D02*
X0025061Y0172934D01*
X0025628Y0173501D01*
X0025628Y0174635D01*
X0026196Y0175202D01*
X0026763Y0175202D01*
X0027330Y0174635D01*
X0027330Y0173501D01*
X0026763Y0172934D01*
X0024494Y0172934D02*
X0023927Y0173501D01*
X0023927Y0174635D01*
X0024494Y0175202D01*
X0023927Y0176617D02*
X0023927Y0178318D01*
X0024494Y0178885D01*
X0025061Y0178885D01*
X0025628Y0178318D01*
X0025628Y0176617D01*
X0023927Y0176617D02*
X0027330Y0176617D01*
X0027330Y0178318D01*
X0026763Y0178885D01*
X0026196Y0178885D01*
X0025628Y0178318D01*
X0027330Y0169818D02*
X0026763Y0169251D01*
X0023927Y0169251D01*
D12*
X0022055Y0176063D02*
X0022055Y0143937D01*
X0018118Y0140000D01*
X0001760Y0140000D01*
X0001760Y0180000D01*
X0018118Y0180000D01*
X0022055Y0176063D01*
X0031323Y0161648D02*
X0034026Y0161648D01*
X0034026Y0160748D02*
X0034026Y0162549D01*
X0032224Y0160748D02*
X0031323Y0161648D01*
X0031323Y0159603D02*
X0031323Y0157801D01*
X0034026Y0157801D01*
X0032674Y0157801D02*
X0032674Y0158702D01*
X0033744Y0156012D02*
X0033744Y0144988D01*
X0039256Y0144988D01*
X0039256Y0156012D01*
X0033744Y0156012D01*
X0042651Y0144452D02*
X0041750Y0143552D01*
X0041750Y0142651D01*
X0042651Y0141750D01*
X0043714Y0142200D02*
X0043714Y0143101D01*
X0044165Y0143552D01*
X0045516Y0143552D01*
X0046661Y0144452D02*
X0047562Y0143552D01*
X0047562Y0142651D01*
X0046661Y0141750D01*
X0045516Y0141750D02*
X0044165Y0141750D01*
X0043714Y0142200D01*
X0043552Y0139452D02*
X0043552Y0136750D01*
X0044697Y0137200D02*
X0045147Y0137651D01*
X0046498Y0137651D01*
X0046498Y0138101D02*
X0046498Y0136750D01*
X0045147Y0136750D01*
X0044697Y0137200D01*
X0045147Y0138552D02*
X0046048Y0138552D01*
X0046498Y0138101D01*
X0047643Y0138101D02*
X0047643Y0137200D01*
X0048093Y0136750D01*
X0049445Y0136750D01*
X0050590Y0136750D02*
X0050590Y0138552D01*
X0051490Y0138552D02*
X0051941Y0138552D01*
X0051490Y0138552D02*
X0050590Y0137651D01*
X0049445Y0138552D02*
X0048093Y0138552D01*
X0047643Y0138101D01*
X0047643Y0134452D02*
X0048994Y0134452D01*
X0049445Y0134002D01*
X0049445Y0132200D01*
X0048994Y0131750D01*
X0047643Y0131750D01*
X0047643Y0134452D01*
X0046498Y0134452D02*
X0046498Y0131750D01*
X0045597Y0132651D01*
X0044697Y0131750D01*
X0044697Y0134452D01*
X0043552Y0134002D02*
X0043101Y0134452D01*
X0042200Y0134452D01*
X0041750Y0134002D01*
X0041750Y0133552D01*
X0042200Y0133101D01*
X0043101Y0133101D01*
X0043552Y0132651D01*
X0043552Y0132200D01*
X0043101Y0131750D01*
X0042200Y0131750D01*
X0041750Y0132200D01*
X0041750Y0129452D02*
X0043101Y0129452D01*
X0043552Y0129002D01*
X0043552Y0128101D01*
X0043101Y0127651D01*
X0041750Y0127651D01*
X0042651Y0127651D02*
X0043552Y0126750D01*
X0044697Y0126750D02*
X0044697Y0129452D01*
X0046498Y0129452D01*
X0047643Y0129452D02*
X0047643Y0127651D01*
X0048544Y0126750D01*
X0049445Y0127651D01*
X0049445Y0129452D01*
X0050590Y0128552D02*
X0050590Y0128101D01*
X0051040Y0128101D01*
X0051040Y0128552D01*
X0050590Y0128552D01*
X0050590Y0127200D02*
X0050590Y0126750D01*
X0051040Y0126750D01*
X0051040Y0127200D01*
X0050590Y0127200D01*
X0050098Y0124452D02*
X0050098Y0121750D01*
X0050098Y0122651D02*
X0051450Y0123552D01*
X0052554Y0123101D02*
X0052554Y0122200D01*
X0053004Y0121750D01*
X0053905Y0121750D01*
X0054355Y0122651D02*
X0052554Y0122651D01*
X0052554Y0123101D02*
X0053004Y0123552D01*
X0053905Y0123552D01*
X0054355Y0123101D01*
X0054355Y0122651D01*
X0055500Y0122651D02*
X0056401Y0123552D01*
X0056852Y0123552D01*
X0055500Y0123552D02*
X0055500Y0121750D01*
X0051450Y0121750D02*
X0050098Y0122651D01*
X0048994Y0123552D02*
X0048544Y0123552D01*
X0047643Y0122651D01*
X0047643Y0121750D02*
X0047643Y0123552D01*
X0046498Y0123101D02*
X0046498Y0121750D01*
X0045147Y0121750D01*
X0044697Y0122200D01*
X0045147Y0122651D01*
X0046498Y0122651D01*
X0046498Y0123101D02*
X0046048Y0123552D01*
X0045147Y0123552D01*
X0043552Y0124002D02*
X0043101Y0124452D01*
X0041750Y0124452D01*
X0041750Y0121750D01*
X0041750Y0122651D02*
X0043101Y0122651D01*
X0043552Y0123101D01*
X0043552Y0124002D01*
X0044697Y0126750D02*
X0046498Y0126750D01*
X0045597Y0128101D02*
X0044697Y0128101D01*
X0041750Y0126750D02*
X0041750Y0129452D01*
X0038020Y0133461D02*
X0038020Y0003539D01*
X0002980Y0003539D01*
X0002980Y0133461D01*
X0038020Y0133461D01*
X0041750Y0136750D02*
X0041750Y0139452D01*
X0042651Y0138552D01*
X0043552Y0139452D01*
X0051572Y0141750D02*
X0053373Y0143552D01*
X0053373Y0144002D01*
X0052923Y0144452D01*
X0052022Y0144452D01*
X0051572Y0144002D01*
X0051572Y0141750D02*
X0053373Y0141750D01*
X0054518Y0142200D02*
X0054518Y0144002D01*
X0054969Y0144452D01*
X0055869Y0144452D01*
X0056320Y0144002D01*
X0054518Y0142200D01*
X0054969Y0141750D01*
X0055869Y0141750D01*
X0056320Y0142200D01*
X0056320Y0144002D01*
X0057465Y0143552D02*
X0058366Y0144452D01*
X0058366Y0141750D01*
X0059266Y0141750D02*
X0057465Y0141750D01*
X0057793Y0139452D02*
X0055991Y0139452D01*
X0055991Y0136750D01*
X0054847Y0137200D02*
X0054847Y0138101D01*
X0054396Y0138552D01*
X0053495Y0138552D01*
X0053045Y0138101D01*
X0053045Y0137200D01*
X0053495Y0136750D01*
X0054396Y0136750D01*
X0054847Y0137200D01*
X0055991Y0138101D02*
X0056892Y0138101D01*
X0058938Y0137200D02*
X0059388Y0137651D01*
X0060740Y0137651D01*
X0060740Y0138101D02*
X0060740Y0136750D01*
X0059388Y0136750D01*
X0058938Y0137200D01*
X0059388Y0138552D02*
X0060289Y0138552D01*
X0060740Y0138101D01*
X0061885Y0138552D02*
X0063236Y0138552D01*
X0063686Y0138101D01*
X0063686Y0137200D01*
X0063236Y0136750D01*
X0061885Y0136750D01*
X0061885Y0139452D01*
X0061762Y0141750D02*
X0060862Y0141750D01*
X0060411Y0142200D01*
X0060411Y0143101D01*
X0061762Y0143101D01*
X0062213Y0142651D01*
X0062213Y0142200D01*
X0061762Y0141750D01*
X0060411Y0143101D02*
X0061312Y0144002D01*
X0062213Y0144452D01*
X0066304Y0144452D02*
X0066304Y0141750D01*
X0067205Y0143552D02*
X0066304Y0144452D01*
X0067205Y0143552D02*
X0068106Y0144452D01*
X0068106Y0141750D01*
X0069251Y0142200D02*
X0069701Y0142651D01*
X0071052Y0142651D01*
X0071052Y0143101D02*
X0071052Y0141750D01*
X0069701Y0141750D01*
X0069251Y0142200D01*
X0069701Y0143552D02*
X0070602Y0143552D01*
X0071052Y0143101D01*
X0072197Y0143101D02*
X0072197Y0142200D01*
X0072648Y0141750D01*
X0073999Y0141750D01*
X0075144Y0141750D02*
X0075144Y0143552D01*
X0075144Y0142651D02*
X0076045Y0143552D01*
X0076495Y0143552D01*
X0077599Y0143101D02*
X0077599Y0142200D01*
X0078050Y0141750D01*
X0078950Y0141750D01*
X0079401Y0142200D01*
X0079401Y0143101D01*
X0078950Y0143552D01*
X0078050Y0143552D01*
X0077599Y0143101D01*
X0080546Y0143101D02*
X0081447Y0143101D01*
X0080546Y0144452D02*
X0082347Y0144452D01*
X0083943Y0143552D02*
X0084843Y0143552D01*
X0085294Y0143101D01*
X0085294Y0141750D01*
X0083943Y0141750D01*
X0083492Y0142200D01*
X0083943Y0142651D01*
X0085294Y0142651D01*
X0086439Y0143552D02*
X0087790Y0143552D01*
X0088240Y0143101D01*
X0088240Y0142200D01*
X0087790Y0141750D01*
X0086439Y0141750D01*
X0086439Y0144452D01*
X0089836Y0142200D02*
X0089836Y0141750D01*
X0090286Y0141750D01*
X0090286Y0142200D01*
X0089836Y0142200D01*
X0090286Y0141750D02*
X0089385Y0140849D01*
X0094296Y0141750D02*
X0095197Y0141750D01*
X0094747Y0141750D02*
X0094747Y0144452D01*
X0095197Y0144452D02*
X0094296Y0144452D01*
X0096261Y0143552D02*
X0096261Y0141750D01*
X0096261Y0143552D02*
X0097612Y0143552D01*
X0098062Y0143101D01*
X0098062Y0141750D01*
X0099207Y0142200D02*
X0099657Y0141750D01*
X0101009Y0141750D01*
X0101009Y0143552D02*
X0099657Y0143552D01*
X0099207Y0143101D01*
X0099207Y0142200D01*
X0105339Y0144831D02*
X0105339Y0136169D01*
X0122661Y0136169D01*
X0122661Y0144831D01*
X0105339Y0144831D01*
X0107110Y0147205D02*
X0120890Y0147205D01*
X0120890Y0172795D01*
X0107110Y0172795D01*
X0107110Y0147205D01*
X0091950Y0165840D02*
X0089248Y0165840D01*
X0089248Y0167191D01*
X0089698Y0167641D01*
X0090599Y0167641D01*
X0091049Y0167191D01*
X0091049Y0165840D01*
X0091950Y0168786D02*
X0089248Y0168786D01*
X0089248Y0170588D02*
X0091950Y0170588D01*
X0091049Y0169687D01*
X0091950Y0168786D01*
X0091950Y0171733D02*
X0089248Y0171733D01*
X0089248Y0173084D01*
X0089698Y0173534D01*
X0090599Y0173534D01*
X0091049Y0173084D01*
X0091049Y0171733D01*
X0091049Y0172633D02*
X0091950Y0173534D01*
X0083429Y0178465D02*
X0083429Y0161535D01*
X0049571Y0161535D01*
X0049571Y0178465D01*
X0083429Y0178465D01*
X0070161Y0159331D02*
X0052839Y0159331D01*
X0052839Y0150669D01*
X0070161Y0150669D01*
X0070161Y0159331D01*
X0072648Y0143552D02*
X0072197Y0143101D01*
X0072648Y0143552D02*
X0073999Y0143552D01*
X0073548Y0138552D02*
X0073999Y0138101D01*
X0073999Y0136750D01*
X0073098Y0136750D02*
X0073098Y0138101D01*
X0073548Y0138552D01*
X0073098Y0138101D02*
X0072648Y0138552D01*
X0072197Y0138552D01*
X0072197Y0136750D01*
X0071052Y0137200D02*
X0071052Y0138101D01*
X0070602Y0138552D01*
X0069701Y0138552D01*
X0069251Y0138101D01*
X0069251Y0137200D01*
X0069701Y0136750D01*
X0070602Y0136750D01*
X0071052Y0137200D01*
X0068106Y0136750D02*
X0066755Y0136750D01*
X0066304Y0137200D01*
X0066304Y0138101D01*
X0066755Y0138552D01*
X0068106Y0138552D01*
X0065281Y0137200D02*
X0065281Y0136750D01*
X0064831Y0136750D01*
X0064831Y0137200D01*
X0065281Y0137200D01*
X0058284Y0134002D02*
X0057834Y0134452D01*
X0056933Y0134452D01*
X0056483Y0134002D01*
X0056483Y0132200D01*
X0056933Y0131750D01*
X0057834Y0131750D01*
X0058284Y0132200D01*
X0055338Y0134452D02*
X0053536Y0134452D01*
X0054437Y0134452D02*
X0054437Y0131750D01*
X0052391Y0131750D02*
X0050590Y0131750D01*
X0052391Y0133552D01*
X0052391Y0134002D01*
X0051941Y0134452D01*
X0051040Y0134452D01*
X0050590Y0134002D01*
X0055910Y0129452D02*
X0055009Y0128552D01*
X0055910Y0129452D02*
X0055910Y0126750D01*
X0055009Y0126750D02*
X0056811Y0126750D01*
X0060902Y0124452D02*
X0060902Y0121750D01*
X0062253Y0121750D01*
X0062704Y0122200D01*
X0062704Y0124002D01*
X0062253Y0124452D01*
X0060902Y0124452D01*
X0063849Y0123552D02*
X0064299Y0123552D01*
X0064299Y0121750D01*
X0063849Y0121750D02*
X0064750Y0121750D01*
X0065813Y0121750D02*
X0066714Y0121750D01*
X0066264Y0121750D02*
X0066264Y0124452D01*
X0065813Y0124452D01*
X0064299Y0124452D02*
X0064299Y0124903D01*
X0067778Y0124452D02*
X0068228Y0124452D01*
X0068228Y0121750D01*
X0067778Y0121750D02*
X0068678Y0121750D01*
X0069742Y0121750D02*
X0069742Y0123552D01*
X0070192Y0123552D01*
X0070643Y0123101D01*
X0071093Y0123552D01*
X0071543Y0123101D01*
X0071543Y0121750D01*
X0070643Y0121750D02*
X0070643Y0123101D01*
X0072688Y0122200D02*
X0073139Y0122651D01*
X0074490Y0122651D01*
X0074490Y0123101D02*
X0074490Y0121750D01*
X0073139Y0121750D01*
X0072688Y0122200D01*
X0073139Y0123552D02*
X0074040Y0123552D01*
X0074490Y0123101D01*
X0075635Y0123552D02*
X0076986Y0123552D01*
X0077436Y0123101D01*
X0077436Y0121750D01*
X0078581Y0121750D02*
X0078581Y0123552D01*
X0079933Y0123552D01*
X0080383Y0123101D01*
X0080383Y0121750D01*
X0075635Y0121750D02*
X0075635Y0123552D01*
X0080546Y0141750D02*
X0080546Y0144452D01*
X0110076Y0097605D02*
X0111878Y0095803D01*
X0112328Y0096254D01*
X0112328Y0097155D01*
X0111878Y0097605D01*
X0110076Y0097605D01*
X0109626Y0097155D01*
X0109626Y0096254D01*
X0110076Y0095803D01*
X0111878Y0095803D01*
X0111878Y0094659D02*
X0112328Y0094208D01*
X0112328Y0093307D01*
X0111878Y0092857D01*
X0111878Y0091712D02*
X0112328Y0091262D01*
X0112328Y0090361D01*
X0111878Y0089910D01*
X0110076Y0091712D01*
X0111878Y0091712D01*
X0111878Y0089910D02*
X0110076Y0089910D01*
X0109626Y0090361D01*
X0109626Y0091262D01*
X0110076Y0091712D01*
X0110076Y0092857D02*
X0109626Y0093307D01*
X0109626Y0094208D01*
X0110076Y0094659D01*
X0110526Y0094659D01*
X0110977Y0094208D01*
X0111427Y0094659D01*
X0111878Y0094659D01*
X0110977Y0094208D02*
X0110977Y0093758D01*
X0110526Y0088765D02*
X0110076Y0088765D01*
X0109626Y0088315D01*
X0109626Y0087414D01*
X0110076Y0086964D01*
X0110076Y0085819D02*
X0109626Y0085369D01*
X0109626Y0084468D01*
X0110076Y0084017D01*
X0111878Y0084017D01*
X0112328Y0084468D01*
X0112328Y0085369D01*
X0111878Y0085819D01*
X0112328Y0086964D02*
X0110526Y0088765D01*
X0112328Y0088765D02*
X0112328Y0086964D01*
X0109626Y0082872D02*
X0109626Y0081071D01*
X0109626Y0081972D02*
X0112328Y0081972D01*
X0116465Y0098500D02*
X0116465Y0038500D01*
X0149535Y0038500D01*
X0149535Y0098500D01*
X0116465Y0098500D01*
X0149535Y0073500D02*
X0149535Y0063500D01*
X0153000Y0063500D01*
X0153000Y0073500D01*
X0149535Y0073500D01*
X0149535Y0073286D02*
X0153000Y0073286D01*
X0153000Y0072787D02*
X0149535Y0072787D01*
X0149535Y0072289D02*
X0153000Y0072289D01*
X0153000Y0071790D02*
X0149535Y0071790D01*
X0149535Y0071292D02*
X0153000Y0071292D01*
X0153000Y0070793D02*
X0149535Y0070793D01*
X0149535Y0070295D02*
X0153000Y0070295D01*
X0153000Y0069796D02*
X0149535Y0069796D01*
X0149535Y0069298D02*
X0153000Y0069298D01*
X0153000Y0068799D02*
X0149535Y0068799D01*
X0149535Y0068301D02*
X0153000Y0068301D01*
X0153000Y0067802D02*
X0149535Y0067802D01*
X0149535Y0067303D02*
X0153000Y0067303D01*
X0153000Y0066805D02*
X0149535Y0066805D01*
X0149535Y0066306D02*
X0153000Y0066306D01*
X0153000Y0065808D02*
X0149535Y0065808D01*
X0149535Y0065309D02*
X0153000Y0065309D01*
X0153000Y0064811D02*
X0149535Y0064811D01*
X0149535Y0064312D02*
X0153000Y0064312D01*
X0153000Y0063814D02*
X0149535Y0063814D01*
X0151648Y0058177D02*
X0154350Y0058177D01*
X0154350Y0057277D02*
X0154350Y0059078D01*
X0152548Y0057277D02*
X0151648Y0058177D01*
X0139781Y0142444D02*
X0137078Y0142444D01*
X0137078Y0143795D01*
X0137529Y0144245D01*
X0138430Y0144245D01*
X0138880Y0143795D01*
X0138880Y0142444D01*
X0138880Y0143344D02*
X0139781Y0144245D01*
X0139781Y0145390D02*
X0139781Y0147192D01*
X0139781Y0146291D02*
X0137078Y0146291D01*
X0137979Y0145390D01*
X0136913Y0148957D02*
X0151087Y0148957D01*
X0151087Y0156043D01*
X0136913Y0156043D01*
X0136913Y0148957D01*
X0136078Y0158215D02*
X0136078Y0159566D01*
X0136529Y0160017D01*
X0138330Y0160017D01*
X0138781Y0159566D01*
X0138781Y0158215D01*
X0136078Y0158215D01*
X0136979Y0161162D02*
X0136078Y0162063D01*
X0138781Y0162063D01*
X0138781Y0162963D02*
X0138781Y0161162D01*
X0135929Y0164154D02*
X0152071Y0164154D01*
X0152071Y0170846D01*
X0152858Y0170846D01*
X0152858Y0164154D01*
X0152071Y0164154D01*
X0152071Y0170846D01*
X0135929Y0170846D01*
X0135929Y0164154D01*
X0143409Y0166319D02*
X0143409Y0168681D01*
X0144591Y0167500D01*
X0143409Y0166319D01*
X0143409Y0166507D02*
X0143598Y0166507D01*
X0143409Y0167006D02*
X0144096Y0167006D01*
X0144586Y0167504D02*
X0143409Y0167504D01*
X0143409Y0168003D02*
X0144088Y0168003D01*
X0143589Y0168501D02*
X0143409Y0168501D01*
X0152071Y0168501D02*
X0152858Y0168501D01*
X0152858Y0168003D02*
X0152071Y0168003D01*
X0152071Y0167504D02*
X0152858Y0167504D01*
X0152858Y0167006D02*
X0152071Y0167006D01*
X0152071Y0166507D02*
X0152858Y0166507D01*
X0152858Y0166009D02*
X0152071Y0166009D01*
X0152071Y0165510D02*
X0152858Y0165510D01*
X0152858Y0165012D02*
X0152071Y0165012D01*
X0152071Y0164513D02*
X0152858Y0164513D01*
X0152858Y0169000D02*
X0152071Y0169000D01*
X0152071Y0169498D02*
X0152858Y0169498D01*
X0152858Y0169997D02*
X0152071Y0169997D01*
X0152071Y0170495D02*
X0152858Y0170495D01*
X0040520Y0078500D02*
X0040520Y0058500D01*
X0030500Y0058500D01*
X0030500Y0078500D01*
X0040520Y0078500D01*
X0040520Y0078271D02*
X0030500Y0078271D01*
X0030500Y0077772D02*
X0040520Y0077772D01*
X0040520Y0077274D02*
X0030500Y0077274D01*
X0030500Y0076775D02*
X0040520Y0076775D01*
X0040520Y0076277D02*
X0030500Y0076277D01*
X0030500Y0075778D02*
X0040520Y0075778D01*
X0040520Y0075280D02*
X0030500Y0075280D01*
X0030500Y0074781D02*
X0040520Y0074781D01*
X0040520Y0074283D02*
X0030500Y0074283D01*
X0030500Y0073784D02*
X0040520Y0073784D01*
X0040520Y0073286D02*
X0030500Y0073286D01*
X0030500Y0072787D02*
X0040520Y0072787D01*
X0040520Y0072289D02*
X0030500Y0072289D01*
X0030500Y0071790D02*
X0040520Y0071790D01*
X0040520Y0071292D02*
X0030500Y0071292D01*
X0030500Y0070793D02*
X0040520Y0070793D01*
X0040520Y0070295D02*
X0030500Y0070295D01*
X0030500Y0069796D02*
X0040520Y0069796D01*
X0040520Y0069298D02*
X0030500Y0069298D01*
X0030500Y0068799D02*
X0040520Y0068799D01*
X0040520Y0068301D02*
X0030500Y0068301D01*
X0030500Y0067802D02*
X0040520Y0067802D01*
X0040520Y0067303D02*
X0030500Y0067303D01*
X0030500Y0066805D02*
X0040520Y0066805D01*
X0040520Y0066306D02*
X0030500Y0066306D01*
X0030500Y0065808D02*
X0040520Y0065808D01*
X0040520Y0065309D02*
X0030500Y0065309D01*
X0030500Y0064811D02*
X0040520Y0064811D01*
X0040520Y0064312D02*
X0030500Y0064312D01*
X0030500Y0063814D02*
X0040520Y0063814D01*
X0040520Y0063315D02*
X0030500Y0063315D01*
X0030500Y0062817D02*
X0040520Y0062817D01*
X0040520Y0062318D02*
X0030500Y0062318D01*
X0030500Y0061820D02*
X0040520Y0061820D01*
X0040520Y0061321D02*
X0030500Y0061321D01*
X0030500Y0060823D02*
X0040520Y0060823D01*
X0040520Y0060324D02*
X0030500Y0060324D01*
X0030500Y0059826D02*
X0040520Y0059826D01*
X0040520Y0059327D02*
X0030500Y0059327D01*
X0030500Y0058829D02*
X0040520Y0058829D01*
D13*
X0091113Y0149987D02*
X0094616Y0149987D01*
X0095317Y0150688D01*
X0095317Y0152089D01*
X0094616Y0152790D01*
X0091113Y0152790D01*
X0092514Y0154591D02*
X0091113Y0155993D01*
X0095317Y0155993D01*
X0095317Y0157394D02*
X0095317Y0154591D01*
D14*
X0043331Y0157551D02*
X0034669Y0157551D01*
X0034669Y0176449D01*
X0043331Y0176449D01*
X0043331Y0157551D01*
D15*
X0148500Y0020375D03*
D16*
X0148375Y0020375D03*
D17*
X0148250Y0020375D03*
D18*
X0148124Y0020375D03*
X0132874Y0016125D03*
X0132749Y0016125D03*
X0133749Y0007375D03*
X0133874Y0007375D03*
X0133999Y0007375D03*
X0134124Y0007375D03*
X0133749Y0033375D03*
D19*
X0148000Y0020375D03*
D20*
X0147875Y0020375D03*
D21*
X0147749Y0020375D03*
X0144249Y0023875D03*
X0144001Y0024125D03*
X0143749Y0024375D03*
X0143499Y0024625D03*
X0142749Y0025375D03*
X0144001Y0016625D03*
X0143749Y0016375D03*
X0143499Y0016125D03*
X0142749Y0015375D03*
X0141999Y0014625D03*
X0141749Y0014375D03*
X0141001Y0013625D03*
X0140751Y0013375D03*
X0140499Y0013125D03*
X0140249Y0012875D03*
X0139501Y0012125D03*
X0139251Y0011875D03*
X0138999Y0011625D03*
X0138749Y0011375D03*
X0138499Y0011125D03*
X0138249Y0010875D03*
X0138001Y0010625D03*
X0137751Y0010375D03*
X0137499Y0010125D03*
X0137249Y0009875D03*
X0136999Y0009625D03*
X0136749Y0009375D03*
X0136251Y0008875D03*
X0132251Y0008125D03*
X0132376Y0032625D03*
D22*
X0132500Y0022625D03*
X0147625Y0020375D03*
D23*
X0147500Y0020375D03*
X0142250Y0025625D03*
X0119750Y0020375D03*
D24*
X0142124Y0025625D03*
X0147374Y0020375D03*
D25*
X0147250Y0020375D03*
D26*
X0147125Y0020375D03*
D27*
X0147000Y0020375D03*
D28*
X0146875Y0020375D03*
D29*
X0146750Y0020375D03*
D30*
X0146626Y0020375D03*
X0141374Y0025625D03*
D31*
X0146500Y0020375D03*
X0120750Y0020375D03*
D32*
X0146374Y0020375D03*
D33*
X0146250Y0020375D03*
D34*
X0146125Y0020375D03*
D35*
X0145999Y0020375D03*
D36*
X0145875Y0020375D03*
D37*
X0145750Y0020375D03*
D38*
X0145624Y0020375D03*
D39*
X0145500Y0020375D03*
D40*
X0145375Y0020375D03*
D41*
X0145249Y0020375D03*
D42*
X0145124Y0020375D03*
D43*
X0144999Y0020375D03*
D44*
X0144875Y0020375D03*
D45*
X0144751Y0020375D03*
D46*
X0144625Y0020375D03*
D47*
X0144499Y0020375D03*
D48*
X0144374Y0023685D03*
X0144374Y0017065D03*
X0144249Y0016935D03*
X0142874Y0015565D03*
X0141624Y0014315D03*
X0141499Y0014185D03*
X0141374Y0014065D03*
X0140124Y0012815D03*
X0139999Y0012685D03*
X0132126Y0008185D03*
X0132001Y0008315D03*
X0131876Y0008435D03*
X0132999Y0023185D03*
X0132001Y0032315D03*
X0132126Y0032435D03*
D49*
X0142500Y0025565D03*
X0144125Y0016815D03*
X0119625Y0020315D03*
D50*
X0138125Y0010750D03*
X0144125Y0024000D03*
D51*
X0143875Y0024250D03*
X0143875Y0016500D03*
X0140625Y0013250D03*
X0139125Y0011750D03*
X0137625Y0010250D03*
D52*
X0137876Y0010500D03*
X0138374Y0011000D03*
X0138624Y0011250D03*
X0138874Y0011500D03*
X0139376Y0012000D03*
X0139626Y0012250D03*
X0139874Y0012500D03*
X0140374Y0013000D03*
X0140876Y0013500D03*
X0141126Y0013750D03*
X0141874Y0014500D03*
X0142124Y0014750D03*
X0142376Y0015000D03*
X0142624Y0015250D03*
X0143126Y0015750D03*
X0143374Y0016000D03*
X0143624Y0016250D03*
X0137374Y0010000D03*
X0137124Y0009750D03*
X0136874Y0009500D03*
X0136624Y0009250D03*
X0136376Y0009000D03*
X0136126Y0008750D03*
X0143624Y0024500D03*
X0143374Y0024750D03*
X0143126Y0025000D03*
X0142874Y0025250D03*
X0142624Y0025500D03*
X0132251Y0032500D03*
D53*
X0143250Y0024875D03*
X0143250Y0015875D03*
X0142500Y0015125D03*
X0141250Y0013875D03*
X0139750Y0012375D03*
X0136500Y0009125D03*
D54*
X0143000Y0015685D03*
D55*
X0142250Y0014875D03*
X0143000Y0025125D03*
D56*
X0142376Y0025625D03*
X0132749Y0022875D03*
X0132251Y0022375D03*
X0131751Y0032125D03*
X0131626Y0008625D03*
D57*
X0141999Y0025625D03*
D58*
X0141874Y0025625D03*
D59*
X0141749Y0025625D03*
D60*
X0141624Y0025625D03*
D61*
X0141499Y0025625D03*
D62*
X0141250Y0025625D03*
D63*
X0141126Y0023125D03*
X0140876Y0022875D03*
X0140374Y0022375D03*
X0140124Y0022125D03*
X0139874Y0021875D03*
X0139626Y0021625D03*
X0139376Y0021375D03*
X0138874Y0020875D03*
X0138624Y0020625D03*
X0138374Y0020375D03*
X0137876Y0019875D03*
X0137374Y0019375D03*
X0137124Y0019125D03*
X0136874Y0018875D03*
X0136624Y0018625D03*
X0136376Y0018375D03*
X0136126Y0018125D03*
X0132251Y0016125D03*
X0118874Y0020375D03*
D64*
X0132874Y0007750D03*
X0141126Y0027250D03*
X0140876Y0027500D03*
X0140374Y0028000D03*
X0140124Y0028250D03*
X0139874Y0028500D03*
X0139626Y0028750D03*
X0139376Y0029000D03*
X0132999Y0033000D03*
D65*
X0134626Y0033750D03*
X0141001Y0023000D03*
X0140751Y0022750D03*
X0140499Y0022500D03*
X0140249Y0022250D03*
X0139999Y0022000D03*
X0139501Y0021500D03*
X0139251Y0021250D03*
X0138999Y0021000D03*
X0138749Y0020750D03*
X0138499Y0020500D03*
X0138249Y0020250D03*
X0138001Y0020000D03*
X0137751Y0019750D03*
X0137499Y0019500D03*
X0137249Y0019250D03*
X0136999Y0019000D03*
X0136749Y0018750D03*
X0136251Y0018250D03*
D66*
X0141001Y0027375D03*
X0140751Y0027625D03*
X0140499Y0027875D03*
X0140249Y0028125D03*
X0139999Y0028375D03*
X0139501Y0028875D03*
X0139251Y0029125D03*
X0138999Y0029375D03*
X0135001Y0007875D03*
D67*
X0137625Y0019625D03*
X0139125Y0021125D03*
X0140625Y0022625D03*
D68*
X0140625Y0027750D03*
X0139125Y0029250D03*
D69*
X0139750Y0021750D03*
X0136500Y0018500D03*
D70*
X0139750Y0028625D03*
X0119375Y0020375D03*
D71*
X0128751Y0021810D03*
X0138874Y0029440D03*
X0133124Y0033060D03*
X0134876Y0007810D03*
X0134751Y0007690D03*
X0132999Y0007690D03*
D72*
X0133249Y0007565D03*
X0134501Y0007565D03*
X0135001Y0016315D03*
X0135126Y0016435D03*
X0135251Y0016565D03*
X0128626Y0021815D03*
X0138749Y0029435D03*
X0133374Y0033185D03*
D73*
X0133624Y0033310D03*
X0138624Y0029440D03*
X0128501Y0021810D03*
X0133499Y0007440D03*
X0133624Y0007440D03*
X0134249Y0007440D03*
D74*
X0128376Y0021815D03*
X0138499Y0029435D03*
X0133874Y0033435D03*
D75*
X0134124Y0033560D03*
X0138374Y0029440D03*
X0128251Y0021810D03*
D76*
X0134501Y0025685D03*
X0134626Y0025815D03*
X0134751Y0025935D03*
X0135376Y0026565D03*
X0135501Y0026685D03*
X0135626Y0026815D03*
X0135874Y0027065D03*
X0136126Y0027315D03*
X0136251Y0027435D03*
X0136749Y0027935D03*
X0136874Y0028065D03*
X0136999Y0028185D03*
X0137124Y0028315D03*
X0137249Y0028435D03*
X0137374Y0028565D03*
X0137499Y0028685D03*
X0138249Y0029435D03*
D77*
X0138125Y0020125D03*
D78*
X0135750Y0026935D03*
X0138125Y0029315D03*
D79*
X0138001Y0029250D03*
X0137751Y0029000D03*
X0135251Y0026500D03*
X0135001Y0026250D03*
X0134249Y0025500D03*
X0133999Y0025250D03*
X0133749Y0025000D03*
X0133499Y0024750D03*
X0133249Y0024500D03*
X0134501Y0033750D03*
D80*
X0137876Y0029125D03*
X0136624Y0027875D03*
X0136376Y0027625D03*
X0135126Y0026375D03*
X0134876Y0026125D03*
X0134124Y0025375D03*
X0133874Y0025125D03*
X0133624Y0024875D03*
X0133374Y0024625D03*
X0132376Y0016125D03*
D81*
X0136000Y0027185D03*
X0137625Y0028815D03*
X0134375Y0033685D03*
D82*
X0136500Y0027750D03*
D83*
X0136376Y0034185D03*
D84*
X0136251Y0034190D03*
D85*
X0136126Y0034125D03*
D86*
X0119500Y0020310D03*
X0136000Y0008690D03*
D87*
X0136000Y0017440D03*
D88*
X0136000Y0034125D03*
D89*
X0133124Y0023440D03*
X0135874Y0008560D03*
X0132376Y0008060D03*
D90*
X0133374Y0007500D03*
X0135874Y0017250D03*
X0133499Y0033250D03*
D91*
X0135874Y0034125D03*
D92*
X0132500Y0032690D03*
X0135750Y0008440D03*
X0132500Y0007940D03*
D93*
X0135750Y0017065D03*
D94*
X0135750Y0034065D03*
D95*
X0132749Y0032875D03*
X0135626Y0008375D03*
X0135376Y0008125D03*
X0132624Y0007875D03*
D96*
X0133124Y0007625D03*
X0134626Y0007625D03*
X0135376Y0016625D03*
X0135626Y0016875D03*
X0133249Y0033125D03*
D97*
X0135626Y0034060D03*
X0131249Y0023810D03*
X0130874Y0023940D03*
X0130249Y0023940D03*
X0129874Y0023810D03*
X0129749Y0023810D03*
X0129624Y0019940D03*
X0129749Y0019810D03*
X0131501Y0019940D03*
X0131626Y0020060D03*
X0133374Y0017560D03*
X0133249Y0017440D03*
X0134626Y0017440D03*
D98*
X0135501Y0008250D03*
X0132624Y0032750D03*
D99*
X0135501Y0016750D03*
D100*
X0134751Y0017435D03*
X0132999Y0014935D03*
X0131876Y0016065D03*
X0129374Y0020065D03*
X0131876Y0020315D03*
X0129374Y0023565D03*
X0135501Y0034065D03*
D101*
X0135376Y0034000D03*
X0132999Y0017250D03*
D102*
X0129001Y0021815D03*
X0128876Y0021815D03*
X0132874Y0032935D03*
X0135251Y0008065D03*
X0135126Y0007935D03*
X0132749Y0007815D03*
D103*
X0132001Y0020500D03*
X0129126Y0023250D03*
X0135251Y0034000D03*
D104*
X0135126Y0033935D03*
X0131876Y0023565D03*
X0132001Y0016065D03*
X0118749Y0020315D03*
D105*
X0135001Y0033875D03*
D106*
X0131501Y0023625D03*
X0129499Y0023625D03*
X0131751Y0020125D03*
X0133124Y0017375D03*
X0134876Y0014875D03*
D107*
X0134876Y0017310D03*
X0131751Y0023560D03*
X0129126Y0020310D03*
X0127874Y0021810D03*
D108*
X0127999Y0021875D03*
X0132126Y0016125D03*
X0134876Y0033875D03*
D109*
X0130749Y0024000D03*
X0130624Y0024000D03*
X0130499Y0024000D03*
X0130374Y0024000D03*
X0130124Y0019750D03*
X0129999Y0019750D03*
X0129874Y0019750D03*
X0130999Y0019750D03*
X0131124Y0019750D03*
X0133124Y0014750D03*
X0134626Y0014750D03*
X0134751Y0014750D03*
X0134501Y0017500D03*
D110*
X0132001Y0023435D03*
X0134751Y0033815D03*
D111*
X0131124Y0023875D03*
X0130999Y0023875D03*
X0130124Y0023875D03*
X0129999Y0023875D03*
X0131249Y0019875D03*
X0133499Y0017625D03*
X0133624Y0017625D03*
X0133749Y0017625D03*
X0133874Y0017625D03*
X0133999Y0017625D03*
X0134124Y0017625D03*
X0134249Y0017625D03*
X0134501Y0014625D03*
X0133374Y0014625D03*
X0133249Y0014625D03*
D112*
X0134375Y0007500D03*
D113*
X0134375Y0014565D03*
D114*
X0134375Y0017625D03*
X0131375Y0019875D03*
D115*
X0134375Y0025625D03*
D116*
X0130874Y0019685D03*
X0130749Y0019685D03*
X0130624Y0019685D03*
X0130499Y0019685D03*
X0130374Y0019685D03*
X0130249Y0019685D03*
X0131751Y0016065D03*
X0133499Y0014565D03*
X0133624Y0014565D03*
X0134249Y0014565D03*
X0118624Y0020315D03*
D117*
X0134249Y0033625D03*
D118*
X0134124Y0014500D03*
X0133999Y0014500D03*
X0133874Y0014500D03*
X0133749Y0014500D03*
D119*
X0133999Y0033500D03*
D120*
X0131876Y0032250D03*
X0131501Y0032000D03*
X0132874Y0023000D03*
X0132624Y0022750D03*
X0132376Y0022500D03*
X0132126Y0022250D03*
X0131751Y0008500D03*
D121*
X0132624Y0016125D03*
D122*
X0132500Y0016125D03*
D123*
X0131626Y0023625D03*
D124*
X0127249Y0027810D03*
X0127124Y0027690D03*
X0126999Y0027560D03*
X0126874Y0027440D03*
X0126749Y0027310D03*
X0126624Y0027190D03*
X0126499Y0027060D03*
X0126374Y0026940D03*
X0126249Y0026810D03*
X0126001Y0026560D03*
X0125876Y0026440D03*
X0125751Y0026310D03*
X0125626Y0026190D03*
X0125501Y0026060D03*
X0125376Y0025940D03*
X0125251Y0025810D03*
X0124999Y0025560D03*
X0124874Y0025440D03*
X0124749Y0025310D03*
X0124624Y0025190D03*
X0124499Y0025060D03*
X0124374Y0024940D03*
X0124249Y0024810D03*
X0124124Y0024690D03*
X0123999Y0024560D03*
X0123874Y0024440D03*
X0123749Y0024310D03*
X0123624Y0024190D03*
X0127374Y0027940D03*
X0127499Y0028060D03*
X0127624Y0028190D03*
X0127749Y0028310D03*
X0127874Y0028440D03*
X0127999Y0028560D03*
X0128251Y0028810D03*
X0128376Y0028940D03*
X0128501Y0029060D03*
X0128626Y0029190D03*
X0128751Y0029310D03*
X0128876Y0029440D03*
X0129001Y0029560D03*
X0129126Y0029690D03*
X0129374Y0029940D03*
X0129499Y0030060D03*
X0129624Y0030190D03*
X0129749Y0030310D03*
X0129874Y0030440D03*
X0129999Y0030560D03*
X0130124Y0030690D03*
X0130249Y0030810D03*
X0130374Y0030940D03*
X0130499Y0031060D03*
X0130624Y0031190D03*
X0130749Y0031310D03*
X0130874Y0031440D03*
X0130999Y0031560D03*
X0131124Y0031690D03*
X0131249Y0031810D03*
X0131626Y0032060D03*
X0131124Y0009060D03*
X0131249Y0008940D03*
X0131501Y0008690D03*
D125*
X0131375Y0008810D03*
X0123125Y0016940D03*
X0122875Y0017190D03*
X0122875Y0023440D03*
X0123125Y0023690D03*
X0123375Y0023940D03*
X0125125Y0025690D03*
X0128125Y0028690D03*
X0131375Y0031940D03*
D126*
X0131375Y0023750D03*
D127*
X0124999Y0015125D03*
X0124749Y0015375D03*
X0124499Y0015625D03*
X0124249Y0015875D03*
X0123999Y0016125D03*
X0123749Y0016375D03*
X0125251Y0014875D03*
X0125501Y0014625D03*
X0125751Y0014375D03*
X0126001Y0014125D03*
X0126249Y0013875D03*
X0126499Y0013625D03*
X0126749Y0013375D03*
X0126999Y0013125D03*
X0127249Y0012875D03*
X0127499Y0012625D03*
X0127749Y0012375D03*
X0127999Y0012125D03*
X0128251Y0011875D03*
X0128501Y0011625D03*
X0128751Y0011375D03*
X0129001Y0011125D03*
X0129499Y0010625D03*
X0129749Y0010375D03*
X0129999Y0010125D03*
X0130249Y0009875D03*
X0130499Y0009625D03*
X0130749Y0009375D03*
X0130999Y0009125D03*
D128*
X0130874Y0009250D03*
X0130624Y0009500D03*
X0130374Y0009750D03*
X0130124Y0010000D03*
X0129874Y0010250D03*
X0129624Y0010500D03*
X0129374Y0010750D03*
X0129126Y0011000D03*
X0128876Y0011250D03*
X0128626Y0011500D03*
X0128376Y0011750D03*
X0127874Y0012250D03*
X0127624Y0012500D03*
X0127374Y0012750D03*
X0127124Y0013000D03*
X0126874Y0013250D03*
X0126624Y0013500D03*
X0126374Y0013750D03*
X0125876Y0014250D03*
X0125626Y0014500D03*
X0125376Y0014750D03*
X0124874Y0015250D03*
X0124624Y0015500D03*
X0124374Y0015750D03*
X0124124Y0016000D03*
X0123874Y0016250D03*
X0123624Y0016500D03*
D129*
X0129499Y0020000D03*
X0129624Y0023750D03*
D130*
X0123250Y0016875D03*
X0123500Y0016625D03*
X0122750Y0017375D03*
X0129250Y0010875D03*
D131*
X0129250Y0020185D03*
X0129250Y0023435D03*
D132*
X0126125Y0026690D03*
X0123500Y0024060D03*
X0123250Y0023810D03*
X0123000Y0023560D03*
X0123000Y0017060D03*
X0129250Y0029810D03*
D133*
X0123375Y0016750D03*
X0125125Y0015000D03*
X0128125Y0012000D03*
D134*
X0128125Y0021810D03*
D135*
X0127749Y0021810D03*
D136*
X0122750Y0023250D03*
X0126125Y0014000D03*
D137*
X0122625Y0020315D03*
D138*
X0122500Y0020310D03*
D139*
X0122375Y0020315D03*
D140*
X0122250Y0020310D03*
D141*
X0122125Y0020315D03*
D142*
X0122000Y0020310D03*
D143*
X0121875Y0020315D03*
D144*
X0121749Y0020310D03*
D145*
X0121624Y0020315D03*
D146*
X0121499Y0020310D03*
D147*
X0121374Y0020315D03*
D148*
X0121249Y0020310D03*
D149*
X0121125Y0020375D03*
D150*
X0121000Y0020375D03*
D151*
X0120875Y0020375D03*
D152*
X0120625Y0020375D03*
D153*
X0120500Y0020375D03*
D154*
X0120375Y0020375D03*
D155*
X0120250Y0020375D03*
D156*
X0120125Y0020375D03*
D157*
X0120000Y0020375D03*
D158*
X0119875Y0020375D03*
D159*
X0119250Y0020375D03*
D160*
X0119125Y0020375D03*
D161*
X0119000Y0020375D03*
D162*
X0041950Y0022177D02*
X0041950Y0024112D01*
X0041950Y0023144D02*
X0039048Y0023144D01*
X0040015Y0022177D01*
M02*
