G75*
%MOIN*%
%OFA0B0*%
%FSLAX25Y25*%
%IPPOS*%
%LPD*%
%AMOC8*
5,1,8,0,0,1.08239X$1,22.5*
%
%ADD10C,0.00000*%
%ADD11C,0.03543*%
%ADD12C,0.05600*%
%ADD13C,0.08858*%
%ADD14R,0.05315X0.05315*%
%ADD15C,0.05906*%
%ADD16C,0.01000*%
%ADD17C,0.03169*%
%ADD18C,0.01600*%
D10*
X0001500Y0001500D02*
X0001500Y0181500D01*
X0156500Y0181500D01*
X0156500Y0001500D01*
X0001500Y0001500D01*
D11*
X0008866Y0147008D02*
X0008866Y0147008D01*
X0006110Y0147008D01*
X0006110Y0147008D01*
X0008866Y0147008D01*
X0008866Y0172992D02*
X0008866Y0172992D01*
X0006110Y0172992D01*
X0006110Y0172992D01*
X0008866Y0172992D01*
D12*
X0058600Y0170000D03*
X0066500Y0170000D03*
X0074400Y0170000D03*
D13*
X0082650Y0170000D03*
X0050350Y0170000D03*
D14*
X0128000Y0078500D03*
X0128000Y0068500D03*
X0128000Y0058500D03*
X0138000Y0058500D03*
X0138000Y0068500D03*
X0138000Y0078500D03*
D15*
X0025500Y0073500D03*
X0025500Y0083500D03*
X0025500Y0093500D03*
X0025500Y0103500D03*
X0025500Y0113500D03*
X0015500Y0113500D03*
X0015500Y0103500D03*
X0015500Y0093500D03*
X0015500Y0083500D03*
X0015500Y0073500D03*
X0015500Y0063500D03*
X0015500Y0053500D03*
X0015500Y0043500D03*
X0015500Y0033500D03*
X0015500Y0023500D03*
X0025500Y0023500D03*
X0025500Y0033500D03*
X0025500Y0043500D03*
X0025500Y0053500D03*
X0025500Y0063500D03*
D16*
X0028002Y0060412D02*
X0123843Y0060412D01*
X0123843Y0061355D02*
X0123843Y0058886D01*
X0127614Y0058886D01*
X0127614Y0062657D01*
X0125145Y0062657D01*
X0124764Y0062555D01*
X0124421Y0062358D01*
X0124142Y0062078D01*
X0123945Y0061736D01*
X0123843Y0061355D01*
X0123857Y0061411D02*
X0028913Y0061411D01*
X0028851Y0061261D02*
X0029453Y0062714D01*
X0029453Y0064286D01*
X0028851Y0065739D01*
X0027739Y0066851D01*
X0026286Y0067453D01*
X0024714Y0067453D01*
X0023261Y0066851D01*
X0022149Y0065739D01*
X0021547Y0064286D01*
X0021547Y0062714D01*
X0022149Y0061261D01*
X0023261Y0060149D01*
X0024714Y0059547D01*
X0026286Y0059547D01*
X0027739Y0060149D01*
X0028851Y0061261D01*
X0029327Y0062409D02*
X0124511Y0062409D01*
X0124928Y0064843D02*
X0124343Y0065428D01*
X0124343Y0071572D01*
X0124928Y0072157D01*
X0131072Y0072157D01*
X0131657Y0071572D01*
X0131657Y0065428D01*
X0131072Y0064843D01*
X0124928Y0064843D01*
X0124366Y0065405D02*
X0028989Y0065405D01*
X0029403Y0064406D02*
X0155000Y0064406D01*
X0155000Y0063408D02*
X0029453Y0063408D01*
X0028187Y0066403D02*
X0124343Y0066403D01*
X0124343Y0067402D02*
X0026409Y0067402D01*
X0024591Y0067402D02*
X0017650Y0067402D01*
X0017834Y0067308D02*
X0017209Y0067627D01*
X0016543Y0067843D01*
X0015984Y0067932D01*
X0015984Y0063984D01*
X0015016Y0063984D01*
X0015016Y0063016D01*
X0011068Y0063016D01*
X0011157Y0062457D01*
X0011373Y0061791D01*
X0011692Y0061166D01*
X0012104Y0060599D01*
X0012599Y0060104D01*
X0013166Y0059692D01*
X0013791Y0059373D01*
X0014457Y0059157D01*
X0015016Y0059068D01*
X0015016Y0063016D01*
X0015984Y0063016D01*
X0015984Y0059068D01*
X0016543Y0059157D01*
X0017209Y0059373D01*
X0017834Y0059692D01*
X0018401Y0060104D01*
X0018896Y0060599D01*
X0019308Y0061166D01*
X0019627Y0061791D01*
X0019843Y0062457D01*
X0019932Y0063016D01*
X0015984Y0063016D01*
X0015984Y0063984D01*
X0019932Y0063984D01*
X0019843Y0064543D01*
X0019627Y0065209D01*
X0019308Y0065834D01*
X0018896Y0066401D01*
X0018401Y0066896D01*
X0017834Y0067308D01*
X0018894Y0066403D02*
X0022813Y0066403D01*
X0022011Y0065405D02*
X0019527Y0065405D01*
X0019865Y0064406D02*
X0021597Y0064406D01*
X0021547Y0063408D02*
X0015984Y0063408D01*
X0015016Y0063408D02*
X0003000Y0063408D01*
X0003000Y0064406D02*
X0011135Y0064406D01*
X0011157Y0064543D02*
X0011068Y0063984D01*
X0015016Y0063984D01*
X0015016Y0067932D01*
X0014457Y0067843D01*
X0013791Y0067627D01*
X0013166Y0067308D01*
X0012599Y0066896D01*
X0012104Y0066401D01*
X0011692Y0065834D01*
X0011373Y0065209D01*
X0011157Y0064543D01*
X0011473Y0065405D02*
X0003000Y0065405D01*
X0003000Y0066403D02*
X0012106Y0066403D01*
X0013350Y0067402D02*
X0003000Y0067402D01*
X0003000Y0068400D02*
X0124343Y0068400D01*
X0124343Y0069399D02*
X0017259Y0069399D01*
X0017209Y0069373D02*
X0017834Y0069692D01*
X0018401Y0070104D01*
X0018896Y0070599D01*
X0019308Y0071166D01*
X0019627Y0071791D01*
X0019843Y0072457D01*
X0019932Y0073016D01*
X0015984Y0073016D01*
X0015984Y0069068D01*
X0016543Y0069157D01*
X0017209Y0069373D01*
X0015984Y0069399D02*
X0015016Y0069399D01*
X0015016Y0069068D02*
X0015016Y0073016D01*
X0011068Y0073016D01*
X0011157Y0072457D01*
X0011373Y0071791D01*
X0011692Y0071166D01*
X0012104Y0070599D01*
X0012599Y0070104D01*
X0013166Y0069692D01*
X0013791Y0069373D01*
X0014457Y0069157D01*
X0015016Y0069068D01*
X0013741Y0069399D02*
X0003000Y0069399D01*
X0003000Y0070397D02*
X0012306Y0070397D01*
X0011575Y0071396D02*
X0003000Y0071396D01*
X0003000Y0072394D02*
X0011177Y0072394D01*
X0011068Y0073984D02*
X0015016Y0073984D01*
X0015016Y0073016D01*
X0015984Y0073016D01*
X0015984Y0073984D01*
X0015016Y0073984D01*
X0015016Y0077932D01*
X0014457Y0077843D01*
X0013791Y0077627D01*
X0013166Y0077308D01*
X0012599Y0076896D01*
X0012104Y0076401D01*
X0011692Y0075834D01*
X0011373Y0075209D01*
X0011157Y0074543D01*
X0011068Y0073984D01*
X0011133Y0074391D02*
X0003000Y0074391D01*
X0003000Y0073393D02*
X0015016Y0073393D01*
X0015984Y0073393D02*
X0021547Y0073393D01*
X0021547Y0072714D02*
X0021547Y0074286D01*
X0022149Y0075739D01*
X0023261Y0076851D01*
X0024714Y0077453D01*
X0026286Y0077453D01*
X0027739Y0076851D01*
X0028851Y0075739D01*
X0029453Y0074286D01*
X0029453Y0072714D01*
X0028851Y0071261D01*
X0027739Y0070149D01*
X0026286Y0069547D01*
X0024714Y0069547D01*
X0023261Y0070149D01*
X0022149Y0071261D01*
X0021547Y0072714D01*
X0021680Y0072394D02*
X0019823Y0072394D01*
X0019425Y0071396D02*
X0022093Y0071396D01*
X0023013Y0070397D02*
X0018694Y0070397D01*
X0015984Y0070397D02*
X0015016Y0070397D01*
X0015016Y0071396D02*
X0015984Y0071396D01*
X0015984Y0072394D02*
X0015016Y0072394D01*
X0015984Y0073984D02*
X0019932Y0073984D01*
X0019843Y0074543D01*
X0019627Y0075209D01*
X0019308Y0075834D01*
X0018896Y0076401D01*
X0018401Y0076896D01*
X0017834Y0077308D01*
X0017209Y0077627D01*
X0016543Y0077843D01*
X0015984Y0077932D01*
X0015984Y0073984D01*
X0015984Y0074391D02*
X0015016Y0074391D01*
X0015016Y0075390D02*
X0015984Y0075390D01*
X0015984Y0076388D02*
X0015016Y0076388D01*
X0015016Y0077387D02*
X0015984Y0077387D01*
X0015984Y0079068D02*
X0016543Y0079157D01*
X0017209Y0079373D01*
X0017834Y0079692D01*
X0018401Y0080104D01*
X0018896Y0080599D01*
X0019308Y0081166D01*
X0019627Y0081791D01*
X0019843Y0082457D01*
X0019932Y0083016D01*
X0015984Y0083016D01*
X0015984Y0079068D01*
X0015984Y0079384D02*
X0015016Y0079384D01*
X0015016Y0079068D02*
X0015016Y0083016D01*
X0011068Y0083016D01*
X0011157Y0082457D01*
X0011373Y0081791D01*
X0011692Y0081166D01*
X0012104Y0080599D01*
X0012599Y0080104D01*
X0013166Y0079692D01*
X0013791Y0079373D01*
X0014457Y0079157D01*
X0015016Y0079068D01*
X0013770Y0079384D02*
X0003000Y0079384D01*
X0003000Y0080382D02*
X0012320Y0080382D01*
X0011582Y0081381D02*
X0003000Y0081381D01*
X0003000Y0082379D02*
X0011182Y0082379D01*
X0011068Y0083984D02*
X0015016Y0083984D01*
X0015016Y0083016D01*
X0015984Y0083016D01*
X0015984Y0083984D01*
X0015016Y0083984D01*
X0015016Y0087932D01*
X0014457Y0087843D01*
X0013791Y0087627D01*
X0013166Y0087308D01*
X0012599Y0086896D01*
X0012104Y0086401D01*
X0011692Y0085834D01*
X0011373Y0085209D01*
X0011157Y0084543D01*
X0011068Y0083984D01*
X0011131Y0084376D02*
X0003000Y0084376D01*
X0003000Y0083378D02*
X0015016Y0083378D01*
X0015984Y0083378D02*
X0021547Y0083378D01*
X0021547Y0082714D02*
X0022149Y0081261D01*
X0023261Y0080149D01*
X0024714Y0079547D01*
X0026286Y0079547D01*
X0027739Y0080149D01*
X0028851Y0081261D01*
X0029453Y0082714D01*
X0029453Y0084286D01*
X0028851Y0085739D01*
X0027739Y0086851D01*
X0026286Y0087453D01*
X0024714Y0087453D01*
X0023261Y0086851D01*
X0022149Y0085739D01*
X0021547Y0084286D01*
X0021547Y0082714D01*
X0021686Y0082379D02*
X0019818Y0082379D01*
X0019418Y0081381D02*
X0022099Y0081381D01*
X0023028Y0080382D02*
X0018680Y0080382D01*
X0017230Y0079384D02*
X0124343Y0079384D01*
X0124343Y0080382D02*
X0027972Y0080382D01*
X0028901Y0081381D02*
X0124343Y0081381D01*
X0124343Y0081572D02*
X0124343Y0075428D01*
X0124928Y0074843D01*
X0131072Y0074843D01*
X0131657Y0075428D01*
X0131657Y0081572D01*
X0131072Y0082157D01*
X0124928Y0082157D01*
X0124343Y0081572D01*
X0124343Y0078385D02*
X0003000Y0078385D01*
X0003000Y0077387D02*
X0013320Y0077387D01*
X0012095Y0076388D02*
X0003000Y0076388D01*
X0003000Y0075390D02*
X0011465Y0075390D01*
X0015016Y0080382D02*
X0015984Y0080382D01*
X0015984Y0081381D02*
X0015016Y0081381D01*
X0015016Y0082379D02*
X0015984Y0082379D01*
X0015984Y0083984D02*
X0019932Y0083984D01*
X0019843Y0084543D01*
X0019627Y0085209D01*
X0019308Y0085834D01*
X0018896Y0086401D01*
X0018401Y0086896D01*
X0017834Y0087308D01*
X0017209Y0087627D01*
X0016543Y0087843D01*
X0015984Y0087932D01*
X0015984Y0083984D01*
X0015984Y0084376D02*
X0015016Y0084376D01*
X0015016Y0085375D02*
X0015984Y0085375D01*
X0015984Y0086373D02*
X0015016Y0086373D01*
X0015016Y0087372D02*
X0015984Y0087372D01*
X0015984Y0089068D02*
X0016543Y0089157D01*
X0017209Y0089373D01*
X0017834Y0089692D01*
X0018401Y0090104D01*
X0018896Y0090599D01*
X0019308Y0091166D01*
X0019627Y0091791D01*
X0019843Y0092457D01*
X0019932Y0093016D01*
X0015984Y0093016D01*
X0015984Y0089068D01*
X0015984Y0089369D02*
X0015016Y0089369D01*
X0015016Y0089068D02*
X0015016Y0093016D01*
X0011068Y0093016D01*
X0011157Y0092457D01*
X0011373Y0091791D01*
X0011692Y0091166D01*
X0012104Y0090599D01*
X0012599Y0090104D01*
X0013166Y0089692D01*
X0013791Y0089373D01*
X0014457Y0089157D01*
X0015016Y0089068D01*
X0013805Y0089369D02*
X0003000Y0089369D01*
X0003000Y0088370D02*
X0155000Y0088370D01*
X0155000Y0087372D02*
X0026481Y0087372D01*
X0024519Y0087372D02*
X0017709Y0087372D01*
X0018916Y0086373D02*
X0022783Y0086373D01*
X0021998Y0085375D02*
X0019542Y0085375D01*
X0019869Y0084376D02*
X0021585Y0084376D01*
X0023261Y0090149D02*
X0024714Y0089547D01*
X0026286Y0089547D01*
X0027739Y0090149D01*
X0028851Y0091261D01*
X0029453Y0092714D01*
X0029453Y0094286D01*
X0028851Y0095739D01*
X0027739Y0096851D01*
X0026286Y0097453D01*
X0024714Y0097453D01*
X0023261Y0096851D01*
X0022149Y0095739D01*
X0021547Y0094286D01*
X0021547Y0092714D01*
X0022149Y0091261D01*
X0023261Y0090149D01*
X0023042Y0090368D02*
X0018665Y0090368D01*
X0019410Y0091366D02*
X0022105Y0091366D01*
X0021692Y0092365D02*
X0019813Y0092365D01*
X0019932Y0093984D02*
X0019843Y0094543D01*
X0019627Y0095209D01*
X0019308Y0095834D01*
X0018896Y0096401D01*
X0018401Y0096896D01*
X0017834Y0097308D01*
X0017209Y0097627D01*
X0016543Y0097843D01*
X0015984Y0097932D01*
X0015984Y0093984D01*
X0015016Y0093984D01*
X0015016Y0093016D01*
X0015984Y0093016D01*
X0015984Y0093984D01*
X0019932Y0093984D01*
X0019872Y0094362D02*
X0021578Y0094362D01*
X0021547Y0093363D02*
X0015984Y0093363D01*
X0015016Y0093363D02*
X0003000Y0093363D01*
X0003000Y0092365D02*
X0011187Y0092365D01*
X0011590Y0091366D02*
X0003000Y0091366D01*
X0003000Y0090368D02*
X0012335Y0090368D01*
X0015016Y0090368D02*
X0015984Y0090368D01*
X0015984Y0091366D02*
X0015016Y0091366D01*
X0015016Y0092365D02*
X0015984Y0092365D01*
X0015016Y0093984D02*
X0011068Y0093984D01*
X0011157Y0094543D01*
X0011373Y0095209D01*
X0011692Y0095834D01*
X0012104Y0096401D01*
X0012599Y0096896D01*
X0013166Y0097308D01*
X0013791Y0097627D01*
X0014457Y0097843D01*
X0015016Y0097932D01*
X0015016Y0093984D01*
X0015016Y0094362D02*
X0015984Y0094362D01*
X0015984Y0095360D02*
X0015016Y0095360D01*
X0015016Y0096359D02*
X0015984Y0096359D01*
X0015984Y0097357D02*
X0015016Y0097357D01*
X0015016Y0099068D02*
X0015016Y0103016D01*
X0011068Y0103016D01*
X0011157Y0102457D01*
X0011373Y0101791D01*
X0011692Y0101166D01*
X0012104Y0100599D01*
X0012599Y0100104D01*
X0013166Y0099692D01*
X0013791Y0099373D01*
X0014457Y0099157D01*
X0015016Y0099068D01*
X0015016Y0099354D02*
X0015984Y0099354D01*
X0015984Y0099068D02*
X0016543Y0099157D01*
X0017209Y0099373D01*
X0017834Y0099692D01*
X0018401Y0100104D01*
X0018896Y0100599D01*
X0019308Y0101166D01*
X0019627Y0101791D01*
X0019843Y0102457D01*
X0019932Y0103016D01*
X0015984Y0103016D01*
X0015984Y0099068D01*
X0017150Y0099354D02*
X0155000Y0099354D01*
X0155000Y0098356D02*
X0003000Y0098356D01*
X0003000Y0099354D02*
X0013850Y0099354D01*
X0015016Y0100353D02*
X0015984Y0100353D01*
X0015984Y0101351D02*
X0015016Y0101351D01*
X0015016Y0102350D02*
X0015984Y0102350D01*
X0015984Y0103016D02*
X0015016Y0103016D01*
X0015016Y0103984D01*
X0011068Y0103984D01*
X0011157Y0104543D01*
X0011373Y0105209D01*
X0011692Y0105834D01*
X0012104Y0106401D01*
X0012599Y0106896D01*
X0013166Y0107308D01*
X0013791Y0107627D01*
X0014457Y0107843D01*
X0015016Y0107932D01*
X0015016Y0103984D01*
X0015984Y0103984D01*
X0015984Y0107932D01*
X0016543Y0107843D01*
X0017209Y0107627D01*
X0017834Y0107308D01*
X0018401Y0106896D01*
X0018896Y0106401D01*
X0019308Y0105834D01*
X0019627Y0105209D01*
X0019843Y0104543D01*
X0019932Y0103984D01*
X0015984Y0103984D01*
X0015984Y0103016D01*
X0015984Y0103348D02*
X0021547Y0103348D01*
X0021547Y0102714D02*
X0022149Y0101261D01*
X0023261Y0100149D01*
X0024714Y0099547D01*
X0026286Y0099547D01*
X0027739Y0100149D01*
X0028851Y0101261D01*
X0029453Y0102714D01*
X0029453Y0104286D01*
X0028851Y0105739D01*
X0027739Y0106851D01*
X0026286Y0107453D01*
X0024714Y0107453D01*
X0023261Y0106851D01*
X0022149Y0105739D01*
X0021547Y0104286D01*
X0021547Y0102714D01*
X0021698Y0102350D02*
X0019808Y0102350D01*
X0019403Y0101351D02*
X0022112Y0101351D01*
X0023057Y0100353D02*
X0018650Y0100353D01*
X0017738Y0097357D02*
X0024483Y0097357D01*
X0022769Y0096359D02*
X0018927Y0096359D01*
X0019550Y0095360D02*
X0021992Y0095360D01*
X0026517Y0097357D02*
X0155000Y0097357D01*
X0155000Y0096359D02*
X0028231Y0096359D01*
X0029008Y0095360D02*
X0155000Y0095360D01*
X0155000Y0094362D02*
X0029422Y0094362D01*
X0029453Y0093363D02*
X0155000Y0093363D01*
X0155000Y0092365D02*
X0029308Y0092365D01*
X0028894Y0091366D02*
X0155000Y0091366D01*
X0155000Y0090368D02*
X0027958Y0090368D01*
X0028217Y0086373D02*
X0155000Y0086373D01*
X0155000Y0085375D02*
X0029002Y0085375D01*
X0029415Y0084376D02*
X0155000Y0084376D01*
X0155000Y0083378D02*
X0029453Y0083378D01*
X0029314Y0082379D02*
X0155000Y0082379D01*
X0155000Y0081381D02*
X0141657Y0081381D01*
X0141657Y0081572D02*
X0141072Y0082157D01*
X0134928Y0082157D01*
X0134343Y0081572D01*
X0134343Y0075428D01*
X0134928Y0074843D01*
X0141072Y0074843D01*
X0141657Y0075428D01*
X0141657Y0081572D01*
X0141657Y0080382D02*
X0155000Y0080382D01*
X0155000Y0079384D02*
X0141657Y0079384D01*
X0141657Y0078385D02*
X0155000Y0078385D01*
X0155000Y0077387D02*
X0141657Y0077387D01*
X0141657Y0076388D02*
X0155000Y0076388D01*
X0155000Y0075390D02*
X0141619Y0075390D01*
X0141072Y0072157D02*
X0141657Y0071572D01*
X0141657Y0065428D01*
X0141072Y0064843D01*
X0134928Y0064843D01*
X0134343Y0065428D01*
X0134343Y0071572D01*
X0134928Y0072157D01*
X0141072Y0072157D01*
X0141657Y0071396D02*
X0155000Y0071396D01*
X0155000Y0072394D02*
X0029320Y0072394D01*
X0029453Y0073393D02*
X0155000Y0073393D01*
X0155000Y0074391D02*
X0029409Y0074391D01*
X0028996Y0075390D02*
X0124381Y0075390D01*
X0124343Y0076388D02*
X0028202Y0076388D01*
X0026445Y0077387D02*
X0124343Y0077387D01*
X0124343Y0071396D02*
X0028907Y0071396D01*
X0027987Y0070397D02*
X0124343Y0070397D01*
X0127614Y0062409D02*
X0128386Y0062409D01*
X0128386Y0062657D02*
X0128386Y0058886D01*
X0127614Y0058886D01*
X0127614Y0058114D01*
X0128386Y0058114D01*
X0128386Y0058886D01*
X0132157Y0058886D01*
X0132157Y0061355D01*
X0132055Y0061736D01*
X0131858Y0062078D01*
X0131578Y0062358D01*
X0131236Y0062555D01*
X0130855Y0062657D01*
X0128386Y0062657D01*
X0128386Y0061411D02*
X0127614Y0061411D01*
X0127614Y0060412D02*
X0128386Y0060412D01*
X0128386Y0059414D02*
X0127614Y0059414D01*
X0127614Y0058415D02*
X0003000Y0058415D01*
X0003000Y0057417D02*
X0013379Y0057417D01*
X0013166Y0057308D02*
X0012599Y0056896D01*
X0012104Y0056401D01*
X0011692Y0055834D01*
X0011373Y0055209D01*
X0011157Y0054543D01*
X0011068Y0053984D01*
X0015016Y0053984D01*
X0015016Y0053016D01*
X0011068Y0053016D01*
X0011157Y0052457D01*
X0011373Y0051791D01*
X0011692Y0051166D01*
X0012104Y0050599D01*
X0012599Y0050104D01*
X0013166Y0049692D01*
X0013791Y0049373D01*
X0014457Y0049157D01*
X0015016Y0049068D01*
X0015016Y0053016D01*
X0015984Y0053016D01*
X0015984Y0049068D01*
X0016543Y0049157D01*
X0017209Y0049373D01*
X0017834Y0049692D01*
X0018401Y0050104D01*
X0018896Y0050599D01*
X0019308Y0051166D01*
X0019627Y0051791D01*
X0019843Y0052457D01*
X0019932Y0053016D01*
X0015984Y0053016D01*
X0015984Y0053984D01*
X0015016Y0053984D01*
X0015016Y0057932D01*
X0014457Y0057843D01*
X0013791Y0057627D01*
X0013166Y0057308D01*
X0012121Y0056418D02*
X0003000Y0056418D01*
X0003000Y0055420D02*
X0011481Y0055420D01*
X0011138Y0054421D02*
X0003000Y0054421D01*
X0003000Y0053423D02*
X0015016Y0053423D01*
X0015984Y0053423D02*
X0021547Y0053423D01*
X0021547Y0052714D02*
X0021547Y0054286D01*
X0022149Y0055739D01*
X0023261Y0056851D01*
X0024714Y0057453D01*
X0026286Y0057453D01*
X0027739Y0056851D01*
X0028851Y0055739D01*
X0029453Y0054286D01*
X0029453Y0052714D01*
X0028851Y0051261D01*
X0027739Y0050149D01*
X0026286Y0049547D01*
X0024714Y0049547D01*
X0023261Y0050149D01*
X0022149Y0051261D01*
X0021547Y0052714D01*
X0021667Y0052424D02*
X0019832Y0052424D01*
X0019440Y0051426D02*
X0022081Y0051426D01*
X0022983Y0050427D02*
X0018724Y0050427D01*
X0017317Y0049429D02*
X0155000Y0049429D01*
X0155000Y0050427D02*
X0028017Y0050427D01*
X0028919Y0051426D02*
X0155000Y0051426D01*
X0155000Y0052424D02*
X0029333Y0052424D01*
X0029453Y0053423D02*
X0155000Y0053423D01*
X0155000Y0054421D02*
X0131148Y0054421D01*
X0131236Y0054445D02*
X0131578Y0054642D01*
X0131858Y0054921D01*
X0132055Y0055264D01*
X0132157Y0055645D01*
X0132157Y0058114D01*
X0128386Y0058114D01*
X0128386Y0054343D01*
X0130855Y0054343D01*
X0131236Y0054445D01*
X0132097Y0055420D02*
X0134351Y0055420D01*
X0134343Y0055428D02*
X0134928Y0054843D01*
X0141072Y0054843D01*
X0141657Y0055428D01*
X0141657Y0061572D01*
X0141072Y0062157D01*
X0134928Y0062157D01*
X0134343Y0061572D01*
X0134343Y0055428D01*
X0134343Y0056418D02*
X0132157Y0056418D01*
X0132157Y0057417D02*
X0134343Y0057417D01*
X0134343Y0058415D02*
X0128386Y0058415D01*
X0127614Y0058114D02*
X0127614Y0054343D01*
X0125145Y0054343D01*
X0124764Y0054445D01*
X0124421Y0054642D01*
X0124142Y0054921D01*
X0123945Y0055264D01*
X0123843Y0055645D01*
X0123843Y0058114D01*
X0127614Y0058114D01*
X0127614Y0057417D02*
X0128386Y0057417D01*
X0128386Y0056418D02*
X0127614Y0056418D01*
X0127614Y0055420D02*
X0128386Y0055420D01*
X0128386Y0054421D02*
X0127614Y0054421D01*
X0124852Y0054421D02*
X0029397Y0054421D01*
X0028983Y0055420D02*
X0123903Y0055420D01*
X0123843Y0056418D02*
X0028172Y0056418D01*
X0026373Y0057417D02*
X0123843Y0057417D01*
X0123843Y0059414D02*
X0017288Y0059414D01*
X0015984Y0059414D02*
X0015016Y0059414D01*
X0015016Y0060412D02*
X0015984Y0060412D01*
X0015984Y0061411D02*
X0015016Y0061411D01*
X0015016Y0062409D02*
X0015984Y0062409D01*
X0015984Y0064406D02*
X0015016Y0064406D01*
X0015016Y0065405D02*
X0015984Y0065405D01*
X0015984Y0066403D02*
X0015016Y0066403D01*
X0015016Y0067402D02*
X0015984Y0067402D01*
X0019827Y0062409D02*
X0021673Y0062409D01*
X0022087Y0061411D02*
X0019433Y0061411D01*
X0018709Y0060412D02*
X0022998Y0060412D01*
X0024627Y0057417D02*
X0017621Y0057417D01*
X0017834Y0057308D02*
X0017209Y0057627D01*
X0016543Y0057843D01*
X0015984Y0057932D01*
X0015984Y0053984D01*
X0019932Y0053984D01*
X0019843Y0054543D01*
X0019627Y0055209D01*
X0019308Y0055834D01*
X0018896Y0056401D01*
X0018401Y0056896D01*
X0017834Y0057308D01*
X0018879Y0056418D02*
X0022828Y0056418D01*
X0022017Y0055420D02*
X0019519Y0055420D01*
X0019862Y0054421D02*
X0021603Y0054421D01*
X0015984Y0054421D02*
X0015016Y0054421D01*
X0015016Y0055420D02*
X0015984Y0055420D01*
X0015984Y0056418D02*
X0015016Y0056418D01*
X0015016Y0057417D02*
X0015984Y0057417D01*
X0013712Y0059414D02*
X0003000Y0059414D01*
X0003000Y0060412D02*
X0012291Y0060412D01*
X0011567Y0061411D02*
X0003000Y0061411D01*
X0003000Y0062409D02*
X0011173Y0062409D01*
X0011168Y0052424D02*
X0003000Y0052424D01*
X0003000Y0051426D02*
X0011560Y0051426D01*
X0012276Y0050427D02*
X0003000Y0050427D01*
X0003000Y0049429D02*
X0013683Y0049429D01*
X0015016Y0049429D02*
X0015984Y0049429D01*
X0015984Y0050427D02*
X0015016Y0050427D01*
X0015016Y0051426D02*
X0015984Y0051426D01*
X0015984Y0052424D02*
X0015016Y0052424D01*
X0015016Y0047932D02*
X0014457Y0047843D01*
X0013791Y0047627D01*
X0013166Y0047308D01*
X0012599Y0046896D01*
X0012104Y0046401D01*
X0011692Y0045834D01*
X0011373Y0045209D01*
X0011157Y0044543D01*
X0011068Y0043984D01*
X0015016Y0043984D01*
X0015016Y0043016D01*
X0011068Y0043016D01*
X0011157Y0042457D01*
X0011373Y0041791D01*
X0011692Y0041166D01*
X0012104Y0040599D01*
X0012599Y0040104D01*
X0013166Y0039692D01*
X0013791Y0039373D01*
X0014457Y0039157D01*
X0015016Y0039068D01*
X0015016Y0043016D01*
X0015984Y0043016D01*
X0015984Y0039068D01*
X0016543Y0039157D01*
X0017209Y0039373D01*
X0017834Y0039692D01*
X0018401Y0040104D01*
X0018896Y0040599D01*
X0019308Y0041166D01*
X0019627Y0041791D01*
X0019843Y0042457D01*
X0019932Y0043016D01*
X0015984Y0043016D01*
X0015984Y0043984D01*
X0015016Y0043984D01*
X0015016Y0047932D01*
X0015016Y0047432D02*
X0015984Y0047432D01*
X0015984Y0047932D02*
X0015984Y0043984D01*
X0019932Y0043984D01*
X0019843Y0044543D01*
X0019627Y0045209D01*
X0019308Y0045834D01*
X0018896Y0046401D01*
X0018401Y0046896D01*
X0017834Y0047308D01*
X0017209Y0047627D01*
X0016543Y0047843D01*
X0015984Y0047932D01*
X0015984Y0046433D02*
X0015016Y0046433D01*
X0015016Y0045434D02*
X0015984Y0045434D01*
X0015984Y0044436D02*
X0015016Y0044436D01*
X0015016Y0043437D02*
X0003000Y0043437D01*
X0003000Y0042439D02*
X0011163Y0042439D01*
X0011552Y0041440D02*
X0003000Y0041440D01*
X0003000Y0040442D02*
X0012261Y0040442D01*
X0013653Y0039443D02*
X0003000Y0039443D01*
X0003000Y0038445D02*
X0155000Y0038445D01*
X0155000Y0039443D02*
X0027347Y0039443D01*
X0027209Y0039373D02*
X0027834Y0039692D01*
X0028401Y0040104D01*
X0028896Y0040599D01*
X0029308Y0041166D01*
X0029627Y0041791D01*
X0029843Y0042457D01*
X0029932Y0043016D01*
X0025984Y0043016D01*
X0025984Y0039068D01*
X0026543Y0039157D01*
X0027209Y0039373D01*
X0025984Y0039443D02*
X0025016Y0039443D01*
X0025016Y0039068D02*
X0025016Y0043016D01*
X0021068Y0043016D01*
X0021157Y0042457D01*
X0021373Y0041791D01*
X0021692Y0041166D01*
X0022104Y0040599D01*
X0022599Y0040104D01*
X0023166Y0039692D01*
X0023791Y0039373D01*
X0024457Y0039157D01*
X0025016Y0039068D01*
X0025016Y0037932D02*
X0024457Y0037843D01*
X0023791Y0037627D01*
X0023166Y0037308D01*
X0022599Y0036896D01*
X0022104Y0036401D01*
X0021692Y0035834D01*
X0021373Y0035209D01*
X0021157Y0034543D01*
X0021068Y0033984D01*
X0025016Y0033984D01*
X0025016Y0033016D01*
X0021068Y0033016D01*
X0021157Y0032457D01*
X0021373Y0031791D01*
X0021692Y0031166D01*
X0022104Y0030599D01*
X0022599Y0030104D01*
X0023166Y0029692D01*
X0023791Y0029373D01*
X0024457Y0029157D01*
X0025016Y0029068D01*
X0025016Y0033016D01*
X0025984Y0033016D01*
X0025984Y0029068D01*
X0026543Y0029157D01*
X0027209Y0029373D01*
X0027834Y0029692D01*
X0028401Y0030104D01*
X0028896Y0030599D01*
X0029308Y0031166D01*
X0029627Y0031791D01*
X0029843Y0032457D01*
X0029932Y0033016D01*
X0025984Y0033016D01*
X0025984Y0033984D01*
X0025016Y0033984D01*
X0025016Y0037932D01*
X0025016Y0037446D02*
X0025984Y0037446D01*
X0025984Y0037932D02*
X0025984Y0033984D01*
X0029932Y0033984D01*
X0029843Y0034543D01*
X0029627Y0035209D01*
X0029308Y0035834D01*
X0028896Y0036401D01*
X0028401Y0036896D01*
X0027834Y0037308D01*
X0027209Y0037627D01*
X0026543Y0037843D01*
X0025984Y0037932D01*
X0025984Y0036448D02*
X0025016Y0036448D01*
X0025016Y0035449D02*
X0025984Y0035449D01*
X0025984Y0034451D02*
X0025016Y0034451D01*
X0025016Y0033452D02*
X0015984Y0033452D01*
X0015984Y0033016D02*
X0015984Y0033984D01*
X0015016Y0033984D01*
X0015016Y0033016D01*
X0011068Y0033016D01*
X0011157Y0032457D01*
X0011373Y0031791D01*
X0011692Y0031166D01*
X0012104Y0030599D01*
X0012599Y0030104D01*
X0013166Y0029692D01*
X0013791Y0029373D01*
X0014457Y0029157D01*
X0015016Y0029068D01*
X0015016Y0033016D01*
X0015984Y0033016D01*
X0015984Y0029068D01*
X0016543Y0029157D01*
X0017209Y0029373D01*
X0017834Y0029692D01*
X0018401Y0030104D01*
X0018896Y0030599D01*
X0019308Y0031166D01*
X0019627Y0031791D01*
X0019843Y0032457D01*
X0019932Y0033016D01*
X0015984Y0033016D01*
X0015984Y0032454D02*
X0015016Y0032454D01*
X0015016Y0033452D02*
X0003000Y0033452D01*
X0003000Y0032454D02*
X0011158Y0032454D01*
X0011544Y0031455D02*
X0003000Y0031455D01*
X0003000Y0030457D02*
X0012246Y0030457D01*
X0013624Y0029458D02*
X0003000Y0029458D01*
X0003000Y0028460D02*
X0155000Y0028460D01*
X0155000Y0029458D02*
X0027376Y0029458D01*
X0025984Y0029458D02*
X0025016Y0029458D01*
X0025016Y0030457D02*
X0025984Y0030457D01*
X0025984Y0031455D02*
X0025016Y0031455D01*
X0025016Y0032454D02*
X0025984Y0032454D01*
X0025984Y0033452D02*
X0155000Y0033452D01*
X0155000Y0032454D02*
X0029842Y0032454D01*
X0029456Y0031455D02*
X0155000Y0031455D01*
X0155000Y0030457D02*
X0028754Y0030457D01*
X0027739Y0026851D02*
X0026286Y0027453D01*
X0024714Y0027453D01*
X0023261Y0026851D01*
X0022149Y0025739D01*
X0021547Y0024286D01*
X0021547Y0022714D01*
X0022149Y0021261D01*
X0023261Y0020149D01*
X0024714Y0019547D01*
X0026286Y0019547D01*
X0027739Y0020149D01*
X0028851Y0021261D01*
X0029453Y0022714D01*
X0029453Y0024286D01*
X0028851Y0025739D01*
X0027739Y0026851D01*
X0028127Y0026463D02*
X0155000Y0026463D01*
X0155000Y0027461D02*
X0003000Y0027461D01*
X0003000Y0026463D02*
X0012873Y0026463D01*
X0013261Y0026851D02*
X0012149Y0025739D01*
X0011547Y0024286D01*
X0011547Y0022714D01*
X0012149Y0021261D01*
X0013261Y0020149D01*
X0014714Y0019547D01*
X0016286Y0019547D01*
X0017739Y0020149D01*
X0018851Y0021261D01*
X0019453Y0022714D01*
X0019453Y0024286D01*
X0018851Y0025739D01*
X0017739Y0026851D01*
X0016286Y0027453D01*
X0014714Y0027453D01*
X0013261Y0026851D01*
X0012035Y0025464D02*
X0003000Y0025464D01*
X0003000Y0024466D02*
X0011622Y0024466D01*
X0011547Y0023467D02*
X0003000Y0023467D01*
X0003000Y0022469D02*
X0011649Y0022469D01*
X0012062Y0021470D02*
X0003000Y0021470D01*
X0003000Y0020472D02*
X0012938Y0020472D01*
X0018062Y0020472D02*
X0022938Y0020472D01*
X0022062Y0021470D02*
X0018938Y0021470D01*
X0019351Y0022469D02*
X0021649Y0022469D01*
X0021547Y0023467D02*
X0019453Y0023467D01*
X0019378Y0024466D02*
X0021622Y0024466D01*
X0022035Y0025464D02*
X0018965Y0025464D01*
X0018127Y0026463D02*
X0022873Y0026463D01*
X0023624Y0029458D02*
X0017376Y0029458D01*
X0015984Y0029458D02*
X0015016Y0029458D01*
X0015016Y0030457D02*
X0015984Y0030457D01*
X0015984Y0031455D02*
X0015016Y0031455D01*
X0015016Y0033984D02*
X0011068Y0033984D01*
X0011157Y0034543D01*
X0011373Y0035209D01*
X0011692Y0035834D01*
X0012104Y0036401D01*
X0012599Y0036896D01*
X0013166Y0037308D01*
X0013791Y0037627D01*
X0014457Y0037843D01*
X0015016Y0037932D01*
X0015016Y0033984D01*
X0015016Y0034451D02*
X0015984Y0034451D01*
X0015984Y0033984D02*
X0015984Y0037932D01*
X0016543Y0037843D01*
X0017209Y0037627D01*
X0017834Y0037308D01*
X0018401Y0036896D01*
X0018896Y0036401D01*
X0019308Y0035834D01*
X0019627Y0035209D01*
X0019843Y0034543D01*
X0019932Y0033984D01*
X0015984Y0033984D01*
X0015984Y0035449D02*
X0015016Y0035449D01*
X0015016Y0036448D02*
X0015984Y0036448D01*
X0015984Y0037446D02*
X0015016Y0037446D01*
X0013437Y0037446D02*
X0003000Y0037446D01*
X0003000Y0036448D02*
X0012151Y0036448D01*
X0011496Y0035449D02*
X0003000Y0035449D01*
X0003000Y0034451D02*
X0011142Y0034451D01*
X0015016Y0039443D02*
X0015984Y0039443D01*
X0015984Y0040442D02*
X0015016Y0040442D01*
X0015016Y0041440D02*
X0015984Y0041440D01*
X0015984Y0042439D02*
X0015016Y0042439D01*
X0015984Y0043437D02*
X0025016Y0043437D01*
X0025016Y0043016D02*
X0025016Y0043984D01*
X0021068Y0043984D01*
X0021157Y0044543D01*
X0021373Y0045209D01*
X0021692Y0045834D01*
X0022104Y0046401D01*
X0022599Y0046896D01*
X0023166Y0047308D01*
X0023791Y0047627D01*
X0024457Y0047843D01*
X0025016Y0047932D01*
X0025016Y0043984D01*
X0025984Y0043984D01*
X0025984Y0047932D01*
X0026543Y0047843D01*
X0027209Y0047627D01*
X0027834Y0047308D01*
X0028401Y0046896D01*
X0028896Y0046401D01*
X0029308Y0045834D01*
X0029627Y0045209D01*
X0029843Y0044543D01*
X0029932Y0043984D01*
X0025984Y0043984D01*
X0025984Y0043016D01*
X0025016Y0043016D01*
X0025016Y0042439D02*
X0025984Y0042439D01*
X0025984Y0043437D02*
X0155000Y0043437D01*
X0155000Y0042439D02*
X0029837Y0042439D01*
X0029448Y0041440D02*
X0155000Y0041440D01*
X0155000Y0040442D02*
X0028739Y0040442D01*
X0025984Y0040442D02*
X0025016Y0040442D01*
X0025016Y0041440D02*
X0025984Y0041440D01*
X0025984Y0044436D02*
X0025016Y0044436D01*
X0025016Y0045434D02*
X0025984Y0045434D01*
X0025984Y0046433D02*
X0025016Y0046433D01*
X0025016Y0047432D02*
X0025984Y0047432D01*
X0027592Y0047432D02*
X0155000Y0047432D01*
X0155000Y0048430D02*
X0003000Y0048430D01*
X0003000Y0047432D02*
X0013408Y0047432D01*
X0012136Y0046433D02*
X0003000Y0046433D01*
X0003000Y0045434D02*
X0011488Y0045434D01*
X0011140Y0044436D02*
X0003000Y0044436D01*
X0017347Y0039443D02*
X0023653Y0039443D01*
X0022261Y0040442D02*
X0018739Y0040442D01*
X0019448Y0041440D02*
X0021552Y0041440D01*
X0021163Y0042439D02*
X0019837Y0042439D01*
X0019860Y0044436D02*
X0021140Y0044436D01*
X0021488Y0045434D02*
X0019512Y0045434D01*
X0018864Y0046433D02*
X0022136Y0046433D01*
X0023408Y0047432D02*
X0017592Y0047432D01*
X0017563Y0037446D02*
X0023437Y0037446D01*
X0022151Y0036448D02*
X0018849Y0036448D01*
X0019504Y0035449D02*
X0021496Y0035449D01*
X0021142Y0034451D02*
X0019858Y0034451D01*
X0019842Y0032454D02*
X0021158Y0032454D01*
X0021544Y0031455D02*
X0019456Y0031455D01*
X0018754Y0030457D02*
X0022246Y0030457D01*
X0028965Y0025464D02*
X0155000Y0025464D01*
X0155000Y0024466D02*
X0029378Y0024466D01*
X0029453Y0023467D02*
X0155000Y0023467D01*
X0155000Y0022469D02*
X0029351Y0022469D01*
X0028938Y0021470D02*
X0155000Y0021470D01*
X0155000Y0020472D02*
X0028062Y0020472D01*
X0029858Y0034451D02*
X0155000Y0034451D01*
X0155000Y0035449D02*
X0029504Y0035449D01*
X0028849Y0036448D02*
X0155000Y0036448D01*
X0155000Y0037446D02*
X0027563Y0037446D01*
X0029860Y0044436D02*
X0155000Y0044436D01*
X0155000Y0045434D02*
X0029512Y0045434D01*
X0028864Y0046433D02*
X0155000Y0046433D01*
X0155000Y0055420D02*
X0141649Y0055420D01*
X0141657Y0056418D02*
X0155000Y0056418D01*
X0155000Y0057417D02*
X0141657Y0057417D01*
X0141657Y0058415D02*
X0155000Y0058415D01*
X0155000Y0059414D02*
X0141657Y0059414D01*
X0141657Y0060412D02*
X0155000Y0060412D01*
X0155000Y0061411D02*
X0141657Y0061411D01*
X0141634Y0065405D02*
X0155000Y0065405D01*
X0155000Y0066403D02*
X0141657Y0066403D01*
X0141657Y0067402D02*
X0155000Y0067402D01*
X0155000Y0068400D02*
X0141657Y0068400D01*
X0141657Y0069399D02*
X0155000Y0069399D01*
X0155000Y0070397D02*
X0141657Y0070397D01*
X0134343Y0070397D02*
X0131657Y0070397D01*
X0131657Y0069399D02*
X0134343Y0069399D01*
X0134343Y0068400D02*
X0131657Y0068400D01*
X0131657Y0067402D02*
X0134343Y0067402D01*
X0134343Y0066403D02*
X0131657Y0066403D01*
X0131634Y0065405D02*
X0134366Y0065405D01*
X0134343Y0061411D02*
X0132143Y0061411D01*
X0132157Y0060412D02*
X0134343Y0060412D01*
X0134343Y0059414D02*
X0132157Y0059414D01*
X0131489Y0062409D02*
X0155000Y0062409D01*
X0134343Y0071396D02*
X0131657Y0071396D01*
X0131619Y0075390D02*
X0134381Y0075390D01*
X0134343Y0076388D02*
X0131657Y0076388D01*
X0131657Y0077387D02*
X0134343Y0077387D01*
X0134343Y0078385D02*
X0131657Y0078385D01*
X0131657Y0079384D02*
X0134343Y0079384D01*
X0134343Y0080382D02*
X0131657Y0080382D01*
X0131657Y0081381D02*
X0134343Y0081381D01*
X0155000Y0089369D02*
X0017195Y0089369D01*
X0013291Y0087372D02*
X0003000Y0087372D01*
X0003000Y0086373D02*
X0012084Y0086373D01*
X0011458Y0085375D02*
X0003000Y0085375D01*
X0003000Y0094362D02*
X0011128Y0094362D01*
X0011450Y0095360D02*
X0003000Y0095360D01*
X0003000Y0096359D02*
X0012073Y0096359D01*
X0013262Y0097357D02*
X0003000Y0097357D01*
X0003000Y0100353D02*
X0012350Y0100353D01*
X0011597Y0101351D02*
X0003000Y0101351D01*
X0003000Y0102350D02*
X0011192Y0102350D01*
X0011126Y0104347D02*
X0003000Y0104347D01*
X0003000Y0105345D02*
X0011443Y0105345D01*
X0012062Y0106344D02*
X0003000Y0106344D01*
X0003000Y0107342D02*
X0013233Y0107342D01*
X0015016Y0107342D02*
X0015984Y0107342D01*
X0015984Y0106344D02*
X0015016Y0106344D01*
X0015016Y0105345D02*
X0015984Y0105345D01*
X0015984Y0104347D02*
X0015016Y0104347D01*
X0015016Y0103348D02*
X0003000Y0103348D01*
X0003000Y0108341D02*
X0155000Y0108341D01*
X0155000Y0109339D02*
X0017104Y0109339D01*
X0017209Y0109373D02*
X0017834Y0109692D01*
X0018401Y0110104D01*
X0018896Y0110599D01*
X0019308Y0111166D01*
X0019627Y0111791D01*
X0019843Y0112457D01*
X0019932Y0113016D01*
X0015984Y0113016D01*
X0015984Y0109068D01*
X0016543Y0109157D01*
X0017209Y0109373D01*
X0015984Y0109339D02*
X0015016Y0109339D01*
X0015016Y0109068D02*
X0015016Y0113016D01*
X0011068Y0113016D01*
X0011157Y0112457D01*
X0011373Y0111791D01*
X0011692Y0111166D01*
X0012104Y0110599D01*
X0012599Y0110104D01*
X0013166Y0109692D01*
X0013791Y0109373D01*
X0014457Y0109157D01*
X0015016Y0109068D01*
X0013896Y0109339D02*
X0003000Y0109339D01*
X0003000Y0110338D02*
X0012365Y0110338D01*
X0011605Y0111336D02*
X0003000Y0111336D01*
X0003000Y0112335D02*
X0011197Y0112335D01*
X0011068Y0113984D02*
X0015016Y0113984D01*
X0015016Y0113016D01*
X0015984Y0113016D01*
X0015984Y0113984D01*
X0015016Y0113984D01*
X0015016Y0117932D01*
X0014457Y0117843D01*
X0013791Y0117627D01*
X0013166Y0117308D01*
X0012599Y0116896D01*
X0012104Y0116401D01*
X0011692Y0115834D01*
X0011373Y0115209D01*
X0011157Y0114543D01*
X0011068Y0113984D01*
X0011123Y0114332D02*
X0003000Y0114332D01*
X0003000Y0115330D02*
X0011435Y0115330D01*
X0012051Y0116329D02*
X0003000Y0116329D01*
X0003000Y0117327D02*
X0013204Y0117327D01*
X0015016Y0117327D02*
X0015984Y0117327D01*
X0015984Y0117932D02*
X0015984Y0113984D01*
X0019932Y0113984D01*
X0019843Y0114543D01*
X0019627Y0115209D01*
X0019308Y0115834D01*
X0018896Y0116401D01*
X0018401Y0116896D01*
X0017834Y0117308D01*
X0017209Y0117627D01*
X0016543Y0117843D01*
X0015984Y0117932D01*
X0015984Y0116329D02*
X0015016Y0116329D01*
X0015016Y0115330D02*
X0015984Y0115330D01*
X0015984Y0114332D02*
X0015016Y0114332D01*
X0015016Y0113333D02*
X0003000Y0113333D01*
X0003000Y0118326D02*
X0155000Y0118326D01*
X0155000Y0119324D02*
X0003000Y0119324D01*
X0003000Y0120323D02*
X0155000Y0120323D01*
X0155000Y0121321D02*
X0003000Y0121321D01*
X0003000Y0122320D02*
X0155000Y0122320D01*
X0155000Y0123318D02*
X0003000Y0123318D01*
X0003000Y0124317D02*
X0155000Y0124317D01*
X0155000Y0125315D02*
X0003000Y0125315D01*
X0003000Y0126314D02*
X0155000Y0126314D01*
X0155000Y0127312D02*
X0003000Y0127312D01*
X0003000Y0128311D02*
X0155000Y0128311D01*
X0155000Y0129309D02*
X0003000Y0129309D01*
X0003000Y0130308D02*
X0155000Y0130308D01*
X0155000Y0131306D02*
X0003000Y0131306D01*
X0003000Y0132305D02*
X0155000Y0132305D01*
X0155000Y0133303D02*
X0003000Y0133303D01*
X0003000Y0134302D02*
X0155000Y0134302D01*
X0155000Y0135301D02*
X0003000Y0135301D01*
X0003000Y0136299D02*
X0155000Y0136299D01*
X0155000Y0137298D02*
X0003000Y0137298D01*
X0003000Y0138296D02*
X0155000Y0138296D01*
X0155000Y0139295D02*
X0003000Y0139295D01*
X0003000Y0140293D02*
X0155000Y0140293D01*
X0155000Y0141292D02*
X0003000Y0141292D01*
X0003000Y0142290D02*
X0155000Y0142290D01*
X0155000Y0143289D02*
X0003000Y0143289D01*
X0003000Y0144287D02*
X0005436Y0144287D01*
X0005559Y0144236D02*
X0009417Y0144236D01*
X0010436Y0144658D01*
X0011216Y0145438D01*
X0011638Y0146457D01*
X0011638Y0147559D01*
X0011216Y0148578D01*
X0010436Y0149358D01*
X0009417Y0149780D01*
X0005559Y0149780D01*
X0004540Y0149358D01*
X0003761Y0148578D01*
X0003339Y0147559D01*
X0003339Y0146457D01*
X0003761Y0145438D01*
X0004540Y0144658D01*
X0005559Y0144236D01*
X0003913Y0145286D02*
X0003000Y0145286D01*
X0003000Y0146284D02*
X0003410Y0146284D01*
X0003339Y0147283D02*
X0003000Y0147283D01*
X0003000Y0148281D02*
X0003638Y0148281D01*
X0003000Y0149280D02*
X0004462Y0149280D01*
X0003000Y0150278D02*
X0155000Y0150278D01*
X0155000Y0149280D02*
X0010514Y0149280D01*
X0011339Y0148281D02*
X0155000Y0148281D01*
X0155000Y0147283D02*
X0011638Y0147283D01*
X0011566Y0146284D02*
X0155000Y0146284D01*
X0155000Y0145286D02*
X0011064Y0145286D01*
X0009540Y0144287D02*
X0155000Y0144287D01*
X0155000Y0151277D02*
X0003000Y0151277D01*
X0003000Y0152275D02*
X0155000Y0152275D01*
X0155000Y0153274D02*
X0003000Y0153274D01*
X0003000Y0154272D02*
X0155000Y0154272D01*
X0155000Y0155271D02*
X0003000Y0155271D01*
X0003000Y0156269D02*
X0155000Y0156269D01*
X0155000Y0157268D02*
X0003000Y0157268D01*
X0003000Y0158266D02*
X0155000Y0158266D01*
X0155000Y0159265D02*
X0003000Y0159265D01*
X0003000Y0160263D02*
X0155000Y0160263D01*
X0155000Y0161262D02*
X0003000Y0161262D01*
X0003000Y0162260D02*
X0155000Y0162260D01*
X0155000Y0163259D02*
X0003000Y0163259D01*
X0003000Y0164257D02*
X0155000Y0164257D01*
X0155000Y0165256D02*
X0085384Y0165256D01*
X0085725Y0165397D02*
X0087253Y0166925D01*
X0088079Y0168920D01*
X0088079Y0171080D01*
X0087253Y0173075D01*
X0085725Y0174603D01*
X0083730Y0175429D01*
X0081570Y0175429D01*
X0079575Y0174603D01*
X0078047Y0173075D01*
X0077643Y0172100D01*
X0077621Y0172153D01*
X0076553Y0173221D01*
X0075156Y0173800D01*
X0073644Y0173800D01*
X0072247Y0173221D01*
X0071179Y0172153D01*
X0070600Y0170756D01*
X0070600Y0169244D01*
X0071179Y0167847D01*
X0072247Y0166779D01*
X0073644Y0166200D01*
X0075156Y0166200D01*
X0076553Y0166779D01*
X0077621Y0167847D01*
X0077643Y0167900D01*
X0078047Y0166925D01*
X0079575Y0165397D01*
X0081570Y0164571D01*
X0083730Y0164571D01*
X0085725Y0165397D01*
X0086582Y0166254D02*
X0155000Y0166254D01*
X0155000Y0167253D02*
X0087389Y0167253D01*
X0087802Y0168251D02*
X0155000Y0168251D01*
X0155000Y0169250D02*
X0088079Y0169250D01*
X0088079Y0170248D02*
X0155000Y0170248D01*
X0155000Y0171247D02*
X0088010Y0171247D01*
X0087596Y0172245D02*
X0155000Y0172245D01*
X0155000Y0173244D02*
X0087084Y0173244D01*
X0086085Y0174242D02*
X0155000Y0174242D01*
X0155000Y0175241D02*
X0084184Y0175241D01*
X0081116Y0175241D02*
X0051884Y0175241D01*
X0051430Y0175429D02*
X0049270Y0175429D01*
X0047275Y0174603D01*
X0045747Y0173075D01*
X0044921Y0171080D01*
X0044921Y0168920D01*
X0045747Y0166925D01*
X0047275Y0165397D01*
X0049270Y0164571D01*
X0051430Y0164571D01*
X0053425Y0165397D01*
X0054953Y0166925D01*
X0055357Y0167900D01*
X0055379Y0167847D01*
X0056447Y0166779D01*
X0057844Y0166200D01*
X0059356Y0166200D01*
X0060753Y0166779D01*
X0061821Y0167847D01*
X0062400Y0169244D01*
X0062400Y0170756D01*
X0061821Y0172153D01*
X0060753Y0173221D01*
X0059356Y0173800D01*
X0057844Y0173800D01*
X0056447Y0173221D01*
X0055379Y0172153D01*
X0055357Y0172100D01*
X0054953Y0173075D01*
X0053425Y0174603D01*
X0051430Y0175429D01*
X0048816Y0175241D02*
X0010537Y0175241D01*
X0010436Y0175342D02*
X0009417Y0175764D01*
X0005559Y0175764D01*
X0004540Y0175342D01*
X0003761Y0174562D01*
X0003339Y0173543D01*
X0003339Y0172441D01*
X0003761Y0171422D01*
X0004540Y0170642D01*
X0005559Y0170220D01*
X0009417Y0170220D01*
X0010436Y0170642D01*
X0011216Y0171422D01*
X0011638Y0172441D01*
X0011638Y0173543D01*
X0011216Y0174562D01*
X0010436Y0175342D01*
X0011348Y0174242D02*
X0046915Y0174242D01*
X0045916Y0173244D02*
X0011638Y0173244D01*
X0011557Y0172245D02*
X0045404Y0172245D01*
X0044990Y0171247D02*
X0011041Y0171247D01*
X0009485Y0170248D02*
X0044921Y0170248D01*
X0044921Y0169250D02*
X0003000Y0169250D01*
X0003000Y0170248D02*
X0005491Y0170248D01*
X0003936Y0171247D02*
X0003000Y0171247D01*
X0003000Y0172245D02*
X0003420Y0172245D01*
X0003339Y0173244D02*
X0003000Y0173244D01*
X0003000Y0174242D02*
X0003628Y0174242D01*
X0003000Y0175241D02*
X0004439Y0175241D01*
X0003000Y0176239D02*
X0155000Y0176239D01*
X0155000Y0177238D02*
X0003000Y0177238D01*
X0003000Y0178237D02*
X0155000Y0178237D01*
X0155000Y0179235D02*
X0003000Y0179235D01*
X0003000Y0180000D02*
X0155000Y0180000D01*
X0155000Y0003000D01*
X0003000Y0003000D01*
X0003000Y0180000D01*
X0003000Y0168251D02*
X0045198Y0168251D01*
X0045611Y0167253D02*
X0003000Y0167253D01*
X0003000Y0166254D02*
X0046418Y0166254D01*
X0047616Y0165256D02*
X0003000Y0165256D01*
X0017796Y0117327D02*
X0024411Y0117327D01*
X0024714Y0117453D02*
X0023261Y0116851D01*
X0022149Y0115739D01*
X0021547Y0114286D01*
X0021547Y0112714D01*
X0022149Y0111261D01*
X0023261Y0110149D01*
X0024714Y0109547D01*
X0026286Y0109547D01*
X0027739Y0110149D01*
X0028851Y0111261D01*
X0029453Y0112714D01*
X0029453Y0114286D01*
X0028851Y0115739D01*
X0027739Y0116851D01*
X0026286Y0117453D01*
X0024714Y0117453D01*
X0026589Y0117327D02*
X0155000Y0117327D01*
X0155000Y0116329D02*
X0028261Y0116329D01*
X0029020Y0115330D02*
X0155000Y0115330D01*
X0155000Y0114332D02*
X0029434Y0114332D01*
X0029453Y0113333D02*
X0155000Y0113333D01*
X0155000Y0112335D02*
X0029296Y0112335D01*
X0028882Y0111336D02*
X0155000Y0111336D01*
X0155000Y0110338D02*
X0027928Y0110338D01*
X0026553Y0107342D02*
X0155000Y0107342D01*
X0155000Y0106344D02*
X0028246Y0106344D01*
X0029014Y0105345D02*
X0155000Y0105345D01*
X0155000Y0104347D02*
X0029428Y0104347D01*
X0029453Y0103348D02*
X0155000Y0103348D01*
X0155000Y0102350D02*
X0029302Y0102350D01*
X0028888Y0101351D02*
X0155000Y0101351D01*
X0155000Y0100353D02*
X0027943Y0100353D01*
X0021572Y0104347D02*
X0019874Y0104347D01*
X0019557Y0105345D02*
X0021986Y0105345D01*
X0022754Y0106344D02*
X0018938Y0106344D01*
X0017767Y0107342D02*
X0024447Y0107342D01*
X0023072Y0110338D02*
X0018635Y0110338D01*
X0019395Y0111336D02*
X0022118Y0111336D01*
X0021704Y0112335D02*
X0019803Y0112335D01*
X0019877Y0114332D02*
X0021566Y0114332D01*
X0021547Y0113333D02*
X0015984Y0113333D01*
X0015984Y0112335D02*
X0015016Y0112335D01*
X0015016Y0111336D02*
X0015984Y0111336D01*
X0015984Y0110338D02*
X0015016Y0110338D01*
X0019565Y0115330D02*
X0021980Y0115330D01*
X0022739Y0116329D02*
X0018949Y0116329D01*
X0017680Y0077387D02*
X0024555Y0077387D01*
X0022798Y0076388D02*
X0018905Y0076388D01*
X0019535Y0075390D02*
X0022004Y0075390D01*
X0021591Y0074391D02*
X0019867Y0074391D01*
X0003000Y0019473D02*
X0155000Y0019473D01*
X0155000Y0018475D02*
X0003000Y0018475D01*
X0003000Y0017476D02*
X0155000Y0017476D01*
X0155000Y0016478D02*
X0003000Y0016478D01*
X0003000Y0015479D02*
X0155000Y0015479D01*
X0155000Y0014481D02*
X0003000Y0014481D01*
X0003000Y0013482D02*
X0155000Y0013482D01*
X0155000Y0012484D02*
X0003000Y0012484D01*
X0003000Y0011485D02*
X0155000Y0011485D01*
X0155000Y0010487D02*
X0003000Y0010487D01*
X0003000Y0009488D02*
X0155000Y0009488D01*
X0155000Y0008490D02*
X0003000Y0008490D01*
X0003000Y0007491D02*
X0155000Y0007491D01*
X0155000Y0006493D02*
X0003000Y0006493D01*
X0003000Y0005494D02*
X0155000Y0005494D01*
X0155000Y0004496D02*
X0003000Y0004496D01*
X0003000Y0003497D02*
X0155000Y0003497D01*
X0134500Y0152500D02*
X0135500Y0153500D01*
X0135500Y0155500D01*
X0079916Y0165256D02*
X0053084Y0165256D01*
X0054282Y0166254D02*
X0057713Y0166254D01*
X0059487Y0166254D02*
X0065613Y0166254D01*
X0065744Y0166200D02*
X0067256Y0166200D01*
X0068653Y0166779D01*
X0069721Y0167847D01*
X0070300Y0169244D01*
X0070300Y0170756D01*
X0069721Y0172153D01*
X0068653Y0173221D01*
X0067256Y0173800D01*
X0065744Y0173800D01*
X0064347Y0173221D01*
X0063279Y0172153D01*
X0062700Y0170756D01*
X0062700Y0169244D01*
X0063279Y0167847D01*
X0064347Y0166779D01*
X0065744Y0166200D01*
X0067387Y0166254D02*
X0073513Y0166254D01*
X0075287Y0166254D02*
X0078718Y0166254D01*
X0077911Y0167253D02*
X0077027Y0167253D01*
X0077529Y0172245D02*
X0077704Y0172245D01*
X0078216Y0173244D02*
X0076498Y0173244D01*
X0079215Y0174242D02*
X0053785Y0174242D01*
X0054784Y0173244D02*
X0056502Y0173244D01*
X0055471Y0172245D02*
X0055296Y0172245D01*
X0055089Y0167253D02*
X0055973Y0167253D01*
X0061227Y0167253D02*
X0063873Y0167253D01*
X0063111Y0168251D02*
X0061989Y0168251D01*
X0062400Y0169250D02*
X0062700Y0169250D01*
X0062700Y0170248D02*
X0062400Y0170248D01*
X0062197Y0171247D02*
X0062903Y0171247D01*
X0063371Y0172245D02*
X0061729Y0172245D01*
X0060698Y0173244D02*
X0064402Y0173244D01*
X0068598Y0173244D02*
X0072302Y0173244D01*
X0071271Y0172245D02*
X0069629Y0172245D01*
X0070097Y0171247D02*
X0070803Y0171247D01*
X0070600Y0170248D02*
X0070300Y0170248D01*
X0070300Y0169250D02*
X0070600Y0169250D01*
X0071011Y0168251D02*
X0069889Y0168251D01*
X0069127Y0167253D02*
X0071773Y0167253D01*
D17*
X0048500Y0154500D03*
X0134500Y0152500D03*
D18*
X0048500Y0154500D02*
X0048500Y0156500D01*
M02*
