%
M48
M72
T01C0.0197
T02C0.0315
T03C0.0354
T04C0.0394
T05C0.0591
%
T01
X4850Y15450
X13450Y15250
T02
X5860Y17000
X6650Y17000
X7440Y17000
T03
X12800Y7850
X12800Y6850
X12800Y5850
X13800Y5850
X13800Y6850
X13800Y7850
T04
X1550Y2350
X1550Y3350
X1550Y4350
X1550Y5350
X1550Y6350
X1550Y7350
X1550Y8350
X1550Y9350
X1550Y10350
X1550Y11350
X2550Y11350
X2550Y10350
X2550Y9350
X2550Y8350
X2550Y7350
X2550Y6350
X2550Y5350
X2550Y4350
X2550Y3350
X2550Y2350
T05
X5035Y17000
X8265Y17000
M30
