G75*
%MOIN*%
%OFA0B0*%
%FSLAX25Y25*%
%IPPOS*%
%LPD*%
%AMOC8*
5,1,8,0,0,1.08239X$1,22.5*
%
%ADD10C,0.00000*%
%ADD11R,0.05315X0.01575*%
%ADD12R,0.05512X0.06299*%
%ADD13R,0.07480X0.07480*%
%ADD14C,0.03543*%
%ADD15R,0.05906X0.15748*%
%ADD16R,0.05906X0.03937*%
%ADD17R,0.07087X0.06299*%
%ADD18R,0.03543X0.02362*%
%ADD19R,0.04331X0.04921*%
%ADD20R,0.02756X0.05118*%
%ADD21R,0.03543X0.06299*%
D10*
X0001500Y0001500D02*
X0001500Y0181500D01*
X0156500Y0181500D01*
X0156500Y0001500D01*
X0001500Y0001500D01*
D11*
X0018000Y0154882D03*
X0018000Y0157441D03*
X0018000Y0160000D03*
X0018000Y0162559D03*
X0018000Y0165118D03*
D12*
X0018000Y0172598D03*
X0018000Y0147402D03*
D13*
X0007469Y0155276D03*
X0007469Y0164724D03*
D14*
X0008866Y0172992D02*
X0008866Y0172992D01*
X0006110Y0172992D01*
X0006110Y0172992D01*
X0008866Y0172992D01*
X0008866Y0147008D02*
X0008866Y0147008D01*
X0006110Y0147008D01*
X0006110Y0147008D01*
X0008866Y0147008D01*
D15*
X0101205Y0160000D03*
D16*
X0126795Y0160000D03*
X0126795Y0150945D03*
X0126795Y0169055D03*
D17*
X0039000Y0172512D03*
X0039000Y0161488D03*
D18*
X0036500Y0153453D03*
X0036500Y0147547D03*
D19*
X0139079Y0167500D03*
X0148921Y0167500D03*
D20*
X0147740Y0152500D03*
X0140260Y0152500D03*
D21*
X0119709Y0140500D03*
X0108291Y0140500D03*
X0067209Y0155000D03*
X0055791Y0155000D03*
M02*
