G75*
%MOIN*%
%OFA0B0*%
%FSLAX25Y25*%
%IPPOS*%
%LPD*%
%AMOC8*
5,1,8,0,0,1.08239X$1,22.5*
%
%ADD10C,0.00000*%
%ADD11R,0.05715X0.01975*%
%ADD12R,0.05912X0.06699*%
%ADD13R,0.07880X0.07880*%
%ADD14C,0.03943*%
%ADD15R,0.06306X0.16148*%
%ADD16R,0.06306X0.04337*%
%ADD17R,0.07487X0.06699*%
%ADD18C,0.06000*%
%ADD19C,0.09258*%
%ADD20R,0.03943X0.02762*%
%ADD21R,0.04731X0.05321*%
%ADD22R,0.03156X0.05518*%
%ADD23R,0.03943X0.06699*%
%ADD24R,0.05715X0.05715*%
%ADD25C,0.06306*%
D10*
X0001500Y0001500D02*
X0001500Y0181500D01*
X0156500Y0181500D01*
X0156500Y0001500D01*
X0001500Y0001500D01*
D11*
X0018000Y0154882D03*
X0018000Y0157441D03*
X0018000Y0160000D03*
X0018000Y0162559D03*
X0018000Y0165118D03*
D12*
X0018000Y0172598D03*
X0018000Y0147402D03*
D13*
X0007469Y0155276D03*
X0007469Y0164724D03*
D14*
X0008866Y0172992D02*
X0008866Y0172992D01*
X0006110Y0172992D01*
X0006110Y0172992D01*
X0008866Y0172992D01*
X0008866Y0147008D02*
X0008866Y0147008D01*
X0006110Y0147008D01*
X0006110Y0147008D01*
X0008866Y0147008D01*
D15*
X0101205Y0160000D03*
D16*
X0126795Y0160000D03*
X0126795Y0150945D03*
X0126795Y0169055D03*
D17*
X0039000Y0172512D03*
X0039000Y0161488D03*
D18*
X0058600Y0170000D03*
X0066500Y0170000D03*
X0074400Y0170000D03*
D19*
X0082650Y0170000D03*
X0050350Y0170000D03*
D20*
X0036500Y0153453D03*
X0036500Y0147547D03*
D21*
X0139079Y0167500D03*
X0148921Y0167500D03*
D22*
X0147740Y0152500D03*
X0140260Y0152500D03*
D23*
X0119709Y0140500D03*
X0108291Y0140500D03*
X0067209Y0155000D03*
X0055791Y0155000D03*
D24*
X0128000Y0078500D03*
X0128000Y0068500D03*
X0128000Y0058500D03*
X0138000Y0058500D03*
X0138000Y0068500D03*
X0138000Y0078500D03*
D25*
X0025500Y0073500D03*
X0025500Y0083500D03*
X0025500Y0093500D03*
X0025500Y0103500D03*
X0025500Y0113500D03*
X0015500Y0113500D03*
X0015500Y0103500D03*
X0015500Y0093500D03*
X0015500Y0083500D03*
X0015500Y0073500D03*
X0015500Y0063500D03*
X0015500Y0053500D03*
X0015500Y0043500D03*
X0015500Y0033500D03*
X0015500Y0023500D03*
X0025500Y0023500D03*
X0025500Y0033500D03*
X0025500Y0043500D03*
X0025500Y0053500D03*
X0025500Y0063500D03*
M02*
