G75*
%MOIN*%
%OFA0B0*%
%FSLAX25Y25*%
%IPPOS*%
%LPD*%
%AMOC8*
5,1,8,0,0,1.08239X$1,22.5*
%
%ADD10C,0.01000*%
%ADD11C,0.00000*%
%ADD12C,0.00600*%
%ADD13C,0.00500*%
%ADD14C,0.00236*%
%ADD15R,0.00100X0.00050*%
%ADD16R,0.00550X0.00050*%
%ADD17R,0.00600X0.00050*%
%ADD18R,0.00700X0.00050*%
%ADD19R,0.00800X0.00050*%
%ADD20R,0.00850X0.00050*%
%ADD21R,0.00900X0.00050*%
%ADD22R,0.00950X0.00050*%
%ADD23R,0.01000X0.00050*%
%ADD24R,0.01050X0.00050*%
%ADD25R,0.01100X0.00050*%
%ADD26R,0.00650X0.00050*%
%ADD27R,0.00500X0.00050*%
%ADD28R,0.00050X0.00050*%
%ADD29R,0.00150X0.00050*%
%ADD30R,0.00250X0.00050*%
%ADD31R,0.00200X0.00050*%
%ADD32R,0.00350X0.00050*%
%ADD33R,0.00300X0.00050*%
%ADD34R,0.00450X0.00050*%
%ADD35R,0.01150X0.00050*%
%ADD36R,0.01250X0.00050*%
%ADD37R,0.01450X0.00050*%
%ADD38R,0.01750X0.00050*%
%ADD39R,0.01850X0.00050*%
%ADD40R,0.01900X0.00050*%
%ADD41R,0.01950X0.00050*%
%ADD42R,0.02000X0.00050*%
%ADD43R,0.02100X0.00050*%
%ADD44R,0.02050X0.00050*%
%ADD45R,0.02150X0.00050*%
%ADD46R,0.02200X0.00050*%
%ADD47R,0.02250X0.00050*%
%ADD48R,0.02300X0.00050*%
%ADD49R,0.02350X0.00050*%
%ADD50R,0.02400X0.00050*%
%ADD51R,0.02450X0.00050*%
%ADD52R,0.02500X0.00050*%
%ADD53R,0.02550X0.00050*%
%ADD54R,0.02600X0.00050*%
%ADD55R,0.02650X0.00050*%
%ADD56R,0.02700X0.00050*%
%ADD57R,0.02750X0.00050*%
%ADD58R,0.02800X0.00050*%
%ADD59R,0.02900X0.00050*%
%ADD60R,0.02850X0.00050*%
%ADD61R,0.05850X0.00050*%
%ADD62R,0.06000X0.00050*%
%ADD63R,0.05950X0.00050*%
%ADD64R,0.06100X0.00050*%
%ADD65R,0.06200X0.00050*%
%ADD66R,0.05800X0.00050*%
%ADD67R,0.06300X0.00050*%
%ADD68R,0.05750X0.00050*%
%ADD69R,0.05900X0.00050*%
%ADD70R,0.06500X0.00050*%
%ADD71R,0.02410X0.00300*%
%ADD72R,0.04210X0.00300*%
%ADD73R,0.06010X0.00301*%
%ADD74R,0.06610X0.00300*%
%ADD75R,0.07810X0.00300*%
%ADD76R,0.08410X0.00301*%
%ADD77R,0.09010X0.00300*%
%ADD78R,0.09610X0.00300*%
%ADD79R,0.10210X0.00301*%
%ADD80R,0.10810X0.00300*%
%ADD81R,0.11410X0.00300*%
%ADD82R,0.12010X0.00300*%
%ADD83R,0.12610X0.00301*%
%ADD84R,0.13210X0.00300*%
%ADD85R,0.13810X0.00300*%
%ADD86R,0.14410X0.00301*%
%ADD87R,0.15010X0.00300*%
%ADD88R,0.15610X0.00300*%
%ADD89R,0.16210X0.00301*%
%ADD90R,0.16810X0.00300*%
%ADD91R,0.17410X0.00300*%
%ADD92R,0.18020X0.00300*%
%ADD93R,0.08710X0.00301*%
%ADD94R,0.08410X0.00301*%
%ADD95R,0.08410X0.00300*%
%ADD96R,0.08100X0.00300*%
%ADD97R,0.08110X0.00300*%
%ADD98R,0.08110X0.00301*%
%ADD99R,0.08100X0.00301*%
%ADD100R,0.08410X0.00301*%
%ADD101R,0.08100X0.00301*%
%ADD102R,0.09010X0.00300*%
%ADD103R,0.09610X0.00301*%
%ADD104R,0.10210X0.00300*%
%ADD105R,0.10810X0.00300*%
%ADD106R,0.08410X0.00301*%
%ADD107R,0.11410X0.00301*%
%ADD108R,0.12010X0.00300*%
%ADD109R,0.04500X0.00300*%
%ADD110R,0.07510X0.00300*%
%ADD111R,0.08110X0.00301*%
%ADD112R,0.04500X0.00301*%
%ADD113R,0.07510X0.00301*%
%ADD114R,0.04510X0.00300*%
%ADD115R,0.04510X0.00301*%
%ADD116R,0.07510X0.00301*%
%ADD117R,0.07210X0.00301*%
%ADD118R,0.06610X0.00300*%
%ADD119R,0.06000X0.00300*%
%ADD120R,0.04510X0.00301*%
%ADD121R,0.05400X0.00301*%
%ADD122R,0.05100X0.00300*%
%ADD123R,0.05110X0.00301*%
%ADD124R,0.05110X0.00300*%
%ADD125R,0.04500X0.00301*%
%ADD126R,0.05110X0.00301*%
%ADD127R,0.00600X0.00301*%
%ADD128R,0.01200X0.00300*%
%ADD129R,0.06600X0.00300*%
%ADD130R,0.01810X0.00300*%
%ADD131R,0.07810X0.00301*%
%ADD132R,0.06900X0.00301*%
%ADD133R,0.02110X0.00301*%
%ADD134R,0.07810X0.00300*%
%ADD135R,0.06910X0.00300*%
%ADD136R,0.02710X0.00300*%
%ADD137R,0.03010X0.00300*%
%ADD138R,0.03610X0.00300*%
%ADD139R,0.06910X0.00301*%
%ADD140R,0.03910X0.00301*%
%ADD141R,0.07210X0.00300*%
%ADD142R,0.02410X0.00300*%
%ADD143R,0.03000X0.00300*%
%ADD144R,0.04210X0.00300*%
%ADD145R,0.02700X0.00300*%
%ADD146R,0.04510X0.00300*%
%ADD147R,0.06610X0.00301*%
%ADD148R,0.02400X0.00301*%
%ADD149R,0.05100X0.00301*%
%ADD150R,0.04810X0.00301*%
%ADD151R,0.02100X0.00300*%
%ADD152R,0.05410X0.00300*%
%ADD153R,0.06310X0.00301*%
%ADD154R,0.01810X0.00301*%
%ADD155R,0.02100X0.00301*%
%ADD156R,0.05100X0.00301*%
%ADD157R,0.06010X0.00301*%
%ADD158R,0.06310X0.00300*%
%ADD159R,0.02110X0.00300*%
%ADD160R,0.02400X0.00300*%
%ADD161R,0.02410X0.00301*%
%ADD162R,0.02410X0.00301*%
%ADD163R,0.08410X0.00300*%
%ADD164R,0.06010X0.00300*%
%ADD165R,0.08710X0.00300*%
%ADD166R,0.05710X0.00301*%
%ADD167R,0.08710X0.00301*%
%ADD168R,0.03900X0.00301*%
%ADD169R,0.08710X0.00301*%
%ADD170R,0.08710X0.00300*%
%ADD171R,0.02710X0.00300*%
%ADD172R,0.03600X0.00300*%
%ADD173R,0.09010X0.00301*%
%ADD174R,0.02100X0.00301*%
%ADD175R,0.09000X0.00301*%
%ADD176R,0.09000X0.00300*%
%ADD177R,0.09010X0.00301*%
%ADD178R,0.02700X0.00301*%
%ADD179R,0.03000X0.00301*%
%ADD180R,0.03010X0.00300*%
%ADD181R,0.07510X0.00301*%
%ADD182R,0.06910X0.00300*%
%ADD183R,0.06310X0.00300*%
%ADD184R,0.05710X0.00301*%
%ADD185R,0.04810X0.00300*%
%ADD186R,0.03610X0.00300*%
%ADD187R,0.01800X0.00300*%
%ADD188R,0.09010X0.00301*%
%ADD189R,0.18020X0.00301*%
%ADD190R,0.16210X0.00300*%
%ADD191R,0.15610X0.00301*%
%ADD192R,0.14410X0.00300*%
%ADD193R,0.13810X0.00301*%
%ADD194R,0.12610X0.00300*%
%ADD195R,0.12010X0.00301*%
%ADD196R,0.10210X0.00300*%
%ADD197R,0.09610X0.00301*%
%ADD198R,0.07810X0.00301*%
%ADD199R,0.05710X0.00300*%
%ADD200R,0.04210X0.00301*%
D10*
X0008793Y0007187D02*
X0008793Y0209313D01*
X0008795Y0209437D01*
X0008801Y0209560D01*
X0008810Y0209684D01*
X0008824Y0209806D01*
X0008841Y0209929D01*
X0008863Y0210051D01*
X0008888Y0210172D01*
X0008917Y0210292D01*
X0008949Y0210411D01*
X0008986Y0210530D01*
X0009026Y0210647D01*
X0009069Y0210762D01*
X0009117Y0210877D01*
X0009168Y0210989D01*
X0009222Y0211100D01*
X0009280Y0211210D01*
X0009341Y0211317D01*
X0009406Y0211423D01*
X0009474Y0211526D01*
X0009545Y0211627D01*
X0009619Y0211726D01*
X0009696Y0211823D01*
X0009777Y0211917D01*
X0009860Y0212008D01*
X0009946Y0212097D01*
X0010035Y0212183D01*
X0010126Y0212266D01*
X0010220Y0212347D01*
X0010317Y0212424D01*
X0010416Y0212498D01*
X0010517Y0212569D01*
X0010620Y0212637D01*
X0010726Y0212702D01*
X0010833Y0212763D01*
X0010943Y0212821D01*
X0011054Y0212875D01*
X0011166Y0212926D01*
X0011281Y0212974D01*
X0011396Y0213017D01*
X0011513Y0213057D01*
X0011632Y0213094D01*
X0011751Y0213126D01*
X0011871Y0213155D01*
X0011992Y0213180D01*
X0012114Y0213202D01*
X0012237Y0213219D01*
X0012359Y0213233D01*
X0012483Y0213242D01*
X0012606Y0213248D01*
X0012730Y0213250D01*
X0263793Y0213250D01*
X0268793Y0208250D01*
X0268793Y0163250D01*
X0278793Y0153250D01*
X0278793Y0023250D01*
X0268793Y0013250D01*
X0268793Y0007187D01*
X0268791Y0007063D01*
X0268785Y0006940D01*
X0268776Y0006816D01*
X0268762Y0006694D01*
X0268745Y0006571D01*
X0268723Y0006449D01*
X0268698Y0006328D01*
X0268669Y0006208D01*
X0268637Y0006089D01*
X0268600Y0005970D01*
X0268560Y0005853D01*
X0268517Y0005738D01*
X0268469Y0005623D01*
X0268418Y0005511D01*
X0268364Y0005400D01*
X0268306Y0005290D01*
X0268245Y0005183D01*
X0268180Y0005077D01*
X0268112Y0004974D01*
X0268041Y0004873D01*
X0267967Y0004774D01*
X0267890Y0004677D01*
X0267809Y0004583D01*
X0267726Y0004492D01*
X0267640Y0004403D01*
X0267551Y0004317D01*
X0267460Y0004234D01*
X0267366Y0004153D01*
X0267269Y0004076D01*
X0267170Y0004002D01*
X0267069Y0003931D01*
X0266966Y0003863D01*
X0266860Y0003798D01*
X0266753Y0003737D01*
X0266643Y0003679D01*
X0266532Y0003625D01*
X0266420Y0003574D01*
X0266305Y0003526D01*
X0266190Y0003483D01*
X0266073Y0003443D01*
X0265954Y0003406D01*
X0265835Y0003374D01*
X0265715Y0003345D01*
X0265594Y0003320D01*
X0265472Y0003298D01*
X0265349Y0003281D01*
X0265227Y0003267D01*
X0265103Y0003258D01*
X0264980Y0003252D01*
X0264856Y0003250D01*
X0012730Y0003250D01*
X0012606Y0003252D01*
X0012483Y0003258D01*
X0012359Y0003267D01*
X0012237Y0003281D01*
X0012114Y0003298D01*
X0011992Y0003320D01*
X0011871Y0003345D01*
X0011751Y0003374D01*
X0011632Y0003406D01*
X0011513Y0003443D01*
X0011396Y0003483D01*
X0011281Y0003526D01*
X0011166Y0003574D01*
X0011054Y0003625D01*
X0010943Y0003679D01*
X0010833Y0003737D01*
X0010726Y0003798D01*
X0010620Y0003863D01*
X0010517Y0003931D01*
X0010416Y0004002D01*
X0010317Y0004076D01*
X0010220Y0004153D01*
X0010126Y0004234D01*
X0010035Y0004317D01*
X0009946Y0004403D01*
X0009860Y0004492D01*
X0009777Y0004583D01*
X0009696Y0004677D01*
X0009619Y0004774D01*
X0009545Y0004873D01*
X0009474Y0004974D01*
X0009406Y0005077D01*
X0009341Y0005183D01*
X0009280Y0005290D01*
X0009222Y0005400D01*
X0009168Y0005511D01*
X0009117Y0005623D01*
X0009069Y0005738D01*
X0009026Y0005853D01*
X0008986Y0005970D01*
X0008949Y0006089D01*
X0008917Y0006208D01*
X0008888Y0006328D01*
X0008863Y0006449D01*
X0008841Y0006571D01*
X0008824Y0006694D01*
X0008810Y0006816D01*
X0008801Y0006940D01*
X0008795Y0007063D01*
X0008793Y0007187D01*
D11*
X0078281Y0013250D02*
X0078283Y0013398D01*
X0078289Y0013546D01*
X0078299Y0013694D01*
X0078313Y0013841D01*
X0078331Y0013988D01*
X0078352Y0014134D01*
X0078378Y0014280D01*
X0078408Y0014425D01*
X0078441Y0014569D01*
X0078479Y0014712D01*
X0078520Y0014854D01*
X0078565Y0014995D01*
X0078613Y0015135D01*
X0078666Y0015274D01*
X0078722Y0015411D01*
X0078782Y0015546D01*
X0078845Y0015680D01*
X0078912Y0015812D01*
X0078983Y0015942D01*
X0079057Y0016070D01*
X0079134Y0016196D01*
X0079215Y0016320D01*
X0079299Y0016442D01*
X0079386Y0016561D01*
X0079477Y0016678D01*
X0079571Y0016793D01*
X0079667Y0016905D01*
X0079767Y0017015D01*
X0079869Y0017121D01*
X0079975Y0017225D01*
X0080083Y0017326D01*
X0080194Y0017424D01*
X0080307Y0017520D01*
X0080423Y0017612D01*
X0080541Y0017701D01*
X0080662Y0017786D01*
X0080785Y0017869D01*
X0080910Y0017948D01*
X0081037Y0018024D01*
X0081166Y0018096D01*
X0081297Y0018165D01*
X0081430Y0018230D01*
X0081565Y0018291D01*
X0081701Y0018349D01*
X0081838Y0018404D01*
X0081977Y0018454D01*
X0082118Y0018501D01*
X0082259Y0018544D01*
X0082402Y0018584D01*
X0082546Y0018619D01*
X0082690Y0018651D01*
X0082836Y0018678D01*
X0082982Y0018702D01*
X0083129Y0018722D01*
X0083276Y0018738D01*
X0083423Y0018750D01*
X0083571Y0018758D01*
X0083719Y0018762D01*
X0083867Y0018762D01*
X0084015Y0018758D01*
X0084163Y0018750D01*
X0084310Y0018738D01*
X0084457Y0018722D01*
X0084604Y0018702D01*
X0084750Y0018678D01*
X0084896Y0018651D01*
X0085040Y0018619D01*
X0085184Y0018584D01*
X0085327Y0018544D01*
X0085468Y0018501D01*
X0085609Y0018454D01*
X0085748Y0018404D01*
X0085885Y0018349D01*
X0086021Y0018291D01*
X0086156Y0018230D01*
X0086289Y0018165D01*
X0086420Y0018096D01*
X0086549Y0018024D01*
X0086676Y0017948D01*
X0086801Y0017869D01*
X0086924Y0017786D01*
X0087045Y0017701D01*
X0087163Y0017612D01*
X0087279Y0017520D01*
X0087392Y0017424D01*
X0087503Y0017326D01*
X0087611Y0017225D01*
X0087717Y0017121D01*
X0087819Y0017015D01*
X0087919Y0016905D01*
X0088015Y0016793D01*
X0088109Y0016678D01*
X0088200Y0016561D01*
X0088287Y0016442D01*
X0088371Y0016320D01*
X0088452Y0016196D01*
X0088529Y0016070D01*
X0088603Y0015942D01*
X0088674Y0015812D01*
X0088741Y0015680D01*
X0088804Y0015546D01*
X0088864Y0015411D01*
X0088920Y0015274D01*
X0088973Y0015135D01*
X0089021Y0014995D01*
X0089066Y0014854D01*
X0089107Y0014712D01*
X0089145Y0014569D01*
X0089178Y0014425D01*
X0089208Y0014280D01*
X0089234Y0014134D01*
X0089255Y0013988D01*
X0089273Y0013841D01*
X0089287Y0013694D01*
X0089297Y0013546D01*
X0089303Y0013398D01*
X0089305Y0013250D01*
X0089303Y0013102D01*
X0089297Y0012954D01*
X0089287Y0012806D01*
X0089273Y0012659D01*
X0089255Y0012512D01*
X0089234Y0012366D01*
X0089208Y0012220D01*
X0089178Y0012075D01*
X0089145Y0011931D01*
X0089107Y0011788D01*
X0089066Y0011646D01*
X0089021Y0011505D01*
X0088973Y0011365D01*
X0088920Y0011226D01*
X0088864Y0011089D01*
X0088804Y0010954D01*
X0088741Y0010820D01*
X0088674Y0010688D01*
X0088603Y0010558D01*
X0088529Y0010430D01*
X0088452Y0010304D01*
X0088371Y0010180D01*
X0088287Y0010058D01*
X0088200Y0009939D01*
X0088109Y0009822D01*
X0088015Y0009707D01*
X0087919Y0009595D01*
X0087819Y0009485D01*
X0087717Y0009379D01*
X0087611Y0009275D01*
X0087503Y0009174D01*
X0087392Y0009076D01*
X0087279Y0008980D01*
X0087163Y0008888D01*
X0087045Y0008799D01*
X0086924Y0008714D01*
X0086801Y0008631D01*
X0086676Y0008552D01*
X0086549Y0008476D01*
X0086420Y0008404D01*
X0086289Y0008335D01*
X0086156Y0008270D01*
X0086021Y0008209D01*
X0085885Y0008151D01*
X0085748Y0008096D01*
X0085609Y0008046D01*
X0085468Y0007999D01*
X0085327Y0007956D01*
X0085184Y0007916D01*
X0085040Y0007881D01*
X0084896Y0007849D01*
X0084750Y0007822D01*
X0084604Y0007798D01*
X0084457Y0007778D01*
X0084310Y0007762D01*
X0084163Y0007750D01*
X0084015Y0007742D01*
X0083867Y0007738D01*
X0083719Y0007738D01*
X0083571Y0007742D01*
X0083423Y0007750D01*
X0083276Y0007762D01*
X0083129Y0007778D01*
X0082982Y0007798D01*
X0082836Y0007822D01*
X0082690Y0007849D01*
X0082546Y0007881D01*
X0082402Y0007916D01*
X0082259Y0007956D01*
X0082118Y0007999D01*
X0081977Y0008046D01*
X0081838Y0008096D01*
X0081701Y0008151D01*
X0081565Y0008209D01*
X0081430Y0008270D01*
X0081297Y0008335D01*
X0081166Y0008404D01*
X0081037Y0008476D01*
X0080910Y0008552D01*
X0080785Y0008631D01*
X0080662Y0008714D01*
X0080541Y0008799D01*
X0080423Y0008888D01*
X0080307Y0008980D01*
X0080194Y0009076D01*
X0080083Y0009174D01*
X0079975Y0009275D01*
X0079869Y0009379D01*
X0079767Y0009485D01*
X0079667Y0009595D01*
X0079571Y0009707D01*
X0079477Y0009822D01*
X0079386Y0009939D01*
X0079299Y0010058D01*
X0079215Y0010180D01*
X0079134Y0010304D01*
X0079057Y0010430D01*
X0078983Y0010558D01*
X0078912Y0010688D01*
X0078845Y0010820D01*
X0078782Y0010954D01*
X0078722Y0011089D01*
X0078666Y0011226D01*
X0078613Y0011365D01*
X0078565Y0011505D01*
X0078520Y0011646D01*
X0078479Y0011788D01*
X0078441Y0011931D01*
X0078408Y0012075D01*
X0078378Y0012220D01*
X0078352Y0012366D01*
X0078331Y0012512D01*
X0078313Y0012659D01*
X0078299Y0012806D01*
X0078289Y0012954D01*
X0078283Y0013102D01*
X0078281Y0013250D01*
X0221618Y0110750D02*
X0221620Y0110887D01*
X0221626Y0111023D01*
X0221636Y0111159D01*
X0221650Y0111295D01*
X0221668Y0111431D01*
X0221690Y0111566D01*
X0221715Y0111700D01*
X0221745Y0111833D01*
X0221779Y0111965D01*
X0221816Y0112097D01*
X0221857Y0112227D01*
X0221903Y0112356D01*
X0221951Y0112484D01*
X0222004Y0112610D01*
X0222060Y0112734D01*
X0222120Y0112857D01*
X0222183Y0112978D01*
X0222250Y0113097D01*
X0222320Y0113214D01*
X0222394Y0113330D01*
X0222471Y0113442D01*
X0222551Y0113553D01*
X0222635Y0113661D01*
X0222722Y0113767D01*
X0222811Y0113870D01*
X0222904Y0113970D01*
X0222999Y0114068D01*
X0223098Y0114163D01*
X0223199Y0114255D01*
X0223303Y0114343D01*
X0223409Y0114429D01*
X0223518Y0114512D01*
X0223629Y0114591D01*
X0223742Y0114668D01*
X0223858Y0114741D01*
X0223975Y0114810D01*
X0224095Y0114876D01*
X0224216Y0114938D01*
X0224340Y0114997D01*
X0224465Y0115053D01*
X0224591Y0115104D01*
X0224719Y0115152D01*
X0224848Y0115196D01*
X0224979Y0115237D01*
X0225111Y0115273D01*
X0225243Y0115306D01*
X0225377Y0115334D01*
X0225511Y0115359D01*
X0225646Y0115380D01*
X0225782Y0115397D01*
X0225918Y0115410D01*
X0226054Y0115419D01*
X0226191Y0115424D01*
X0226327Y0115425D01*
X0226464Y0115422D01*
X0226600Y0115415D01*
X0226736Y0115404D01*
X0226872Y0115389D01*
X0227007Y0115370D01*
X0227142Y0115347D01*
X0227276Y0115320D01*
X0227409Y0115290D01*
X0227541Y0115255D01*
X0227673Y0115217D01*
X0227802Y0115175D01*
X0227931Y0115129D01*
X0228058Y0115079D01*
X0228184Y0115025D01*
X0228308Y0114968D01*
X0228431Y0114908D01*
X0228551Y0114843D01*
X0228670Y0114776D01*
X0228786Y0114705D01*
X0228901Y0114630D01*
X0229013Y0114552D01*
X0229123Y0114471D01*
X0229231Y0114387D01*
X0229336Y0114299D01*
X0229438Y0114209D01*
X0229538Y0114116D01*
X0229635Y0114019D01*
X0229729Y0113920D01*
X0229820Y0113819D01*
X0229908Y0113714D01*
X0229993Y0113607D01*
X0230075Y0113498D01*
X0230154Y0113386D01*
X0230229Y0113272D01*
X0230301Y0113156D01*
X0230370Y0113038D01*
X0230435Y0112918D01*
X0230497Y0112796D01*
X0230555Y0112672D01*
X0230609Y0112547D01*
X0230660Y0112420D01*
X0230706Y0112292D01*
X0230750Y0112162D01*
X0230789Y0112031D01*
X0230825Y0111899D01*
X0230856Y0111766D01*
X0230884Y0111633D01*
X0230908Y0111498D01*
X0230928Y0111363D01*
X0230944Y0111227D01*
X0230956Y0111091D01*
X0230964Y0110955D01*
X0230968Y0110818D01*
X0230968Y0110682D01*
X0230964Y0110545D01*
X0230956Y0110409D01*
X0230944Y0110273D01*
X0230928Y0110137D01*
X0230908Y0110002D01*
X0230884Y0109867D01*
X0230856Y0109734D01*
X0230825Y0109601D01*
X0230789Y0109469D01*
X0230750Y0109338D01*
X0230706Y0109208D01*
X0230660Y0109080D01*
X0230609Y0108953D01*
X0230555Y0108828D01*
X0230497Y0108704D01*
X0230435Y0108582D01*
X0230370Y0108462D01*
X0230301Y0108344D01*
X0230229Y0108228D01*
X0230154Y0108114D01*
X0230075Y0108002D01*
X0229993Y0107893D01*
X0229908Y0107786D01*
X0229820Y0107681D01*
X0229729Y0107580D01*
X0229635Y0107481D01*
X0229538Y0107384D01*
X0229438Y0107291D01*
X0229336Y0107201D01*
X0229231Y0107113D01*
X0229123Y0107029D01*
X0229013Y0106948D01*
X0228901Y0106870D01*
X0228786Y0106795D01*
X0228670Y0106724D01*
X0228551Y0106657D01*
X0228431Y0106592D01*
X0228308Y0106532D01*
X0228184Y0106475D01*
X0228058Y0106421D01*
X0227931Y0106371D01*
X0227802Y0106325D01*
X0227673Y0106283D01*
X0227541Y0106245D01*
X0227409Y0106210D01*
X0227276Y0106180D01*
X0227142Y0106153D01*
X0227007Y0106130D01*
X0226872Y0106111D01*
X0226736Y0106096D01*
X0226600Y0106085D01*
X0226464Y0106078D01*
X0226327Y0106075D01*
X0226191Y0106076D01*
X0226054Y0106081D01*
X0225918Y0106090D01*
X0225782Y0106103D01*
X0225646Y0106120D01*
X0225511Y0106141D01*
X0225377Y0106166D01*
X0225243Y0106194D01*
X0225111Y0106227D01*
X0224979Y0106263D01*
X0224848Y0106304D01*
X0224719Y0106348D01*
X0224591Y0106396D01*
X0224465Y0106447D01*
X0224340Y0106503D01*
X0224216Y0106562D01*
X0224095Y0106624D01*
X0223975Y0106690D01*
X0223858Y0106759D01*
X0223742Y0106832D01*
X0223629Y0106909D01*
X0223518Y0106988D01*
X0223409Y0107071D01*
X0223303Y0107157D01*
X0223199Y0107245D01*
X0223098Y0107337D01*
X0222999Y0107432D01*
X0222904Y0107530D01*
X0222811Y0107630D01*
X0222722Y0107733D01*
X0222635Y0107839D01*
X0222551Y0107947D01*
X0222471Y0108058D01*
X0222394Y0108170D01*
X0222320Y0108286D01*
X0222250Y0108403D01*
X0222183Y0108522D01*
X0222120Y0108643D01*
X0222060Y0108766D01*
X0222004Y0108890D01*
X0221951Y0109016D01*
X0221903Y0109144D01*
X0221857Y0109273D01*
X0221816Y0109403D01*
X0221779Y0109535D01*
X0221745Y0109667D01*
X0221715Y0109800D01*
X0221690Y0109934D01*
X0221668Y0110069D01*
X0221650Y0110205D01*
X0221636Y0110341D01*
X0221626Y0110477D01*
X0221620Y0110613D01*
X0221618Y0110750D01*
X0230343Y0103250D02*
X0230345Y0103338D01*
X0230351Y0103426D01*
X0230361Y0103514D01*
X0230375Y0103601D01*
X0230393Y0103687D01*
X0230414Y0103772D01*
X0230440Y0103857D01*
X0230469Y0103940D01*
X0230502Y0104022D01*
X0230539Y0104102D01*
X0230579Y0104180D01*
X0230623Y0104257D01*
X0230670Y0104331D01*
X0230721Y0104403D01*
X0230774Y0104473D01*
X0230831Y0104541D01*
X0230891Y0104605D01*
X0230954Y0104667D01*
X0231019Y0104726D01*
X0231087Y0104782D01*
X0231158Y0104835D01*
X0231230Y0104885D01*
X0231305Y0104931D01*
X0231382Y0104974D01*
X0231461Y0105014D01*
X0231542Y0105049D01*
X0231624Y0105082D01*
X0231707Y0105110D01*
X0231792Y0105135D01*
X0231878Y0105155D01*
X0231964Y0105172D01*
X0232051Y0105185D01*
X0232139Y0105194D01*
X0232227Y0105199D01*
X0232315Y0105200D01*
X0232403Y0105197D01*
X0232491Y0105190D01*
X0232578Y0105179D01*
X0232665Y0105164D01*
X0232751Y0105145D01*
X0232837Y0105123D01*
X0232921Y0105096D01*
X0233003Y0105066D01*
X0233085Y0105032D01*
X0233165Y0104994D01*
X0233242Y0104953D01*
X0233318Y0104909D01*
X0233392Y0104861D01*
X0233464Y0104809D01*
X0233533Y0104755D01*
X0233600Y0104697D01*
X0233664Y0104637D01*
X0233725Y0104573D01*
X0233784Y0104507D01*
X0233839Y0104439D01*
X0233891Y0104367D01*
X0233940Y0104294D01*
X0233985Y0104219D01*
X0234027Y0104141D01*
X0234066Y0104062D01*
X0234101Y0103981D01*
X0234132Y0103898D01*
X0234159Y0103815D01*
X0234183Y0103730D01*
X0234203Y0103644D01*
X0234219Y0103557D01*
X0234231Y0103470D01*
X0234239Y0103382D01*
X0234243Y0103294D01*
X0234243Y0103206D01*
X0234239Y0103118D01*
X0234231Y0103030D01*
X0234219Y0102943D01*
X0234203Y0102856D01*
X0234183Y0102770D01*
X0234159Y0102685D01*
X0234132Y0102602D01*
X0234101Y0102519D01*
X0234066Y0102438D01*
X0234027Y0102359D01*
X0233985Y0102281D01*
X0233940Y0102206D01*
X0233891Y0102133D01*
X0233839Y0102061D01*
X0233784Y0101993D01*
X0233725Y0101927D01*
X0233664Y0101863D01*
X0233600Y0101803D01*
X0233533Y0101745D01*
X0233464Y0101691D01*
X0233392Y0101639D01*
X0233318Y0101591D01*
X0233242Y0101547D01*
X0233165Y0101506D01*
X0233085Y0101468D01*
X0233003Y0101434D01*
X0232921Y0101404D01*
X0232837Y0101377D01*
X0232751Y0101355D01*
X0232665Y0101336D01*
X0232578Y0101321D01*
X0232491Y0101310D01*
X0232403Y0101303D01*
X0232315Y0101300D01*
X0232227Y0101301D01*
X0232139Y0101306D01*
X0232051Y0101315D01*
X0231964Y0101328D01*
X0231878Y0101345D01*
X0231792Y0101365D01*
X0231707Y0101390D01*
X0231624Y0101418D01*
X0231542Y0101451D01*
X0231461Y0101486D01*
X0231382Y0101526D01*
X0231305Y0101569D01*
X0231230Y0101615D01*
X0231158Y0101665D01*
X0231087Y0101718D01*
X0231019Y0101774D01*
X0230954Y0101833D01*
X0230891Y0101895D01*
X0230831Y0101959D01*
X0230774Y0102027D01*
X0230721Y0102097D01*
X0230670Y0102169D01*
X0230623Y0102243D01*
X0230579Y0102320D01*
X0230539Y0102398D01*
X0230502Y0102478D01*
X0230469Y0102560D01*
X0230440Y0102643D01*
X0230414Y0102728D01*
X0230393Y0102813D01*
X0230375Y0102899D01*
X0230361Y0102986D01*
X0230351Y0103074D01*
X0230345Y0103162D01*
X0230343Y0103250D01*
X0238343Y0103250D02*
X0238345Y0103338D01*
X0238351Y0103426D01*
X0238361Y0103514D01*
X0238375Y0103601D01*
X0238393Y0103687D01*
X0238414Y0103772D01*
X0238440Y0103857D01*
X0238469Y0103940D01*
X0238502Y0104022D01*
X0238539Y0104102D01*
X0238579Y0104180D01*
X0238623Y0104257D01*
X0238670Y0104331D01*
X0238721Y0104403D01*
X0238774Y0104473D01*
X0238831Y0104541D01*
X0238891Y0104605D01*
X0238954Y0104667D01*
X0239019Y0104726D01*
X0239087Y0104782D01*
X0239158Y0104835D01*
X0239230Y0104885D01*
X0239305Y0104931D01*
X0239382Y0104974D01*
X0239461Y0105014D01*
X0239542Y0105049D01*
X0239624Y0105082D01*
X0239707Y0105110D01*
X0239792Y0105135D01*
X0239878Y0105155D01*
X0239964Y0105172D01*
X0240051Y0105185D01*
X0240139Y0105194D01*
X0240227Y0105199D01*
X0240315Y0105200D01*
X0240403Y0105197D01*
X0240491Y0105190D01*
X0240578Y0105179D01*
X0240665Y0105164D01*
X0240751Y0105145D01*
X0240837Y0105123D01*
X0240921Y0105096D01*
X0241003Y0105066D01*
X0241085Y0105032D01*
X0241165Y0104994D01*
X0241242Y0104953D01*
X0241318Y0104909D01*
X0241392Y0104861D01*
X0241464Y0104809D01*
X0241533Y0104755D01*
X0241600Y0104697D01*
X0241664Y0104637D01*
X0241725Y0104573D01*
X0241784Y0104507D01*
X0241839Y0104439D01*
X0241891Y0104367D01*
X0241940Y0104294D01*
X0241985Y0104219D01*
X0242027Y0104141D01*
X0242066Y0104062D01*
X0242101Y0103981D01*
X0242132Y0103898D01*
X0242159Y0103815D01*
X0242183Y0103730D01*
X0242203Y0103644D01*
X0242219Y0103557D01*
X0242231Y0103470D01*
X0242239Y0103382D01*
X0242243Y0103294D01*
X0242243Y0103206D01*
X0242239Y0103118D01*
X0242231Y0103030D01*
X0242219Y0102943D01*
X0242203Y0102856D01*
X0242183Y0102770D01*
X0242159Y0102685D01*
X0242132Y0102602D01*
X0242101Y0102519D01*
X0242066Y0102438D01*
X0242027Y0102359D01*
X0241985Y0102281D01*
X0241940Y0102206D01*
X0241891Y0102133D01*
X0241839Y0102061D01*
X0241784Y0101993D01*
X0241725Y0101927D01*
X0241664Y0101863D01*
X0241600Y0101803D01*
X0241533Y0101745D01*
X0241464Y0101691D01*
X0241392Y0101639D01*
X0241318Y0101591D01*
X0241242Y0101547D01*
X0241165Y0101506D01*
X0241085Y0101468D01*
X0241003Y0101434D01*
X0240921Y0101404D01*
X0240837Y0101377D01*
X0240751Y0101355D01*
X0240665Y0101336D01*
X0240578Y0101321D01*
X0240491Y0101310D01*
X0240403Y0101303D01*
X0240315Y0101300D01*
X0240227Y0101301D01*
X0240139Y0101306D01*
X0240051Y0101315D01*
X0239964Y0101328D01*
X0239878Y0101345D01*
X0239792Y0101365D01*
X0239707Y0101390D01*
X0239624Y0101418D01*
X0239542Y0101451D01*
X0239461Y0101486D01*
X0239382Y0101526D01*
X0239305Y0101569D01*
X0239230Y0101615D01*
X0239158Y0101665D01*
X0239087Y0101718D01*
X0239019Y0101774D01*
X0238954Y0101833D01*
X0238891Y0101895D01*
X0238831Y0101959D01*
X0238774Y0102027D01*
X0238721Y0102097D01*
X0238670Y0102169D01*
X0238623Y0102243D01*
X0238579Y0102320D01*
X0238539Y0102398D01*
X0238502Y0102478D01*
X0238469Y0102560D01*
X0238440Y0102643D01*
X0238414Y0102728D01*
X0238393Y0102813D01*
X0238375Y0102899D01*
X0238361Y0102986D01*
X0238351Y0103074D01*
X0238345Y0103162D01*
X0238343Y0103250D01*
X0241618Y0110750D02*
X0241620Y0110887D01*
X0241626Y0111023D01*
X0241636Y0111159D01*
X0241650Y0111295D01*
X0241668Y0111431D01*
X0241690Y0111566D01*
X0241715Y0111700D01*
X0241745Y0111833D01*
X0241779Y0111965D01*
X0241816Y0112097D01*
X0241857Y0112227D01*
X0241903Y0112356D01*
X0241951Y0112484D01*
X0242004Y0112610D01*
X0242060Y0112734D01*
X0242120Y0112857D01*
X0242183Y0112978D01*
X0242250Y0113097D01*
X0242320Y0113214D01*
X0242394Y0113330D01*
X0242471Y0113442D01*
X0242551Y0113553D01*
X0242635Y0113661D01*
X0242722Y0113767D01*
X0242811Y0113870D01*
X0242904Y0113970D01*
X0242999Y0114068D01*
X0243098Y0114163D01*
X0243199Y0114255D01*
X0243303Y0114343D01*
X0243409Y0114429D01*
X0243518Y0114512D01*
X0243629Y0114591D01*
X0243742Y0114668D01*
X0243858Y0114741D01*
X0243975Y0114810D01*
X0244095Y0114876D01*
X0244216Y0114938D01*
X0244340Y0114997D01*
X0244465Y0115053D01*
X0244591Y0115104D01*
X0244719Y0115152D01*
X0244848Y0115196D01*
X0244979Y0115237D01*
X0245111Y0115273D01*
X0245243Y0115306D01*
X0245377Y0115334D01*
X0245511Y0115359D01*
X0245646Y0115380D01*
X0245782Y0115397D01*
X0245918Y0115410D01*
X0246054Y0115419D01*
X0246191Y0115424D01*
X0246327Y0115425D01*
X0246464Y0115422D01*
X0246600Y0115415D01*
X0246736Y0115404D01*
X0246872Y0115389D01*
X0247007Y0115370D01*
X0247142Y0115347D01*
X0247276Y0115320D01*
X0247409Y0115290D01*
X0247541Y0115255D01*
X0247673Y0115217D01*
X0247802Y0115175D01*
X0247931Y0115129D01*
X0248058Y0115079D01*
X0248184Y0115025D01*
X0248308Y0114968D01*
X0248431Y0114908D01*
X0248551Y0114843D01*
X0248670Y0114776D01*
X0248786Y0114705D01*
X0248901Y0114630D01*
X0249013Y0114552D01*
X0249123Y0114471D01*
X0249231Y0114387D01*
X0249336Y0114299D01*
X0249438Y0114209D01*
X0249538Y0114116D01*
X0249635Y0114019D01*
X0249729Y0113920D01*
X0249820Y0113819D01*
X0249908Y0113714D01*
X0249993Y0113607D01*
X0250075Y0113498D01*
X0250154Y0113386D01*
X0250229Y0113272D01*
X0250301Y0113156D01*
X0250370Y0113038D01*
X0250435Y0112918D01*
X0250497Y0112796D01*
X0250555Y0112672D01*
X0250609Y0112547D01*
X0250660Y0112420D01*
X0250706Y0112292D01*
X0250750Y0112162D01*
X0250789Y0112031D01*
X0250825Y0111899D01*
X0250856Y0111766D01*
X0250884Y0111633D01*
X0250908Y0111498D01*
X0250928Y0111363D01*
X0250944Y0111227D01*
X0250956Y0111091D01*
X0250964Y0110955D01*
X0250968Y0110818D01*
X0250968Y0110682D01*
X0250964Y0110545D01*
X0250956Y0110409D01*
X0250944Y0110273D01*
X0250928Y0110137D01*
X0250908Y0110002D01*
X0250884Y0109867D01*
X0250856Y0109734D01*
X0250825Y0109601D01*
X0250789Y0109469D01*
X0250750Y0109338D01*
X0250706Y0109208D01*
X0250660Y0109080D01*
X0250609Y0108953D01*
X0250555Y0108828D01*
X0250497Y0108704D01*
X0250435Y0108582D01*
X0250370Y0108462D01*
X0250301Y0108344D01*
X0250229Y0108228D01*
X0250154Y0108114D01*
X0250075Y0108002D01*
X0249993Y0107893D01*
X0249908Y0107786D01*
X0249820Y0107681D01*
X0249729Y0107580D01*
X0249635Y0107481D01*
X0249538Y0107384D01*
X0249438Y0107291D01*
X0249336Y0107201D01*
X0249231Y0107113D01*
X0249123Y0107029D01*
X0249013Y0106948D01*
X0248901Y0106870D01*
X0248786Y0106795D01*
X0248670Y0106724D01*
X0248551Y0106657D01*
X0248431Y0106592D01*
X0248308Y0106532D01*
X0248184Y0106475D01*
X0248058Y0106421D01*
X0247931Y0106371D01*
X0247802Y0106325D01*
X0247673Y0106283D01*
X0247541Y0106245D01*
X0247409Y0106210D01*
X0247276Y0106180D01*
X0247142Y0106153D01*
X0247007Y0106130D01*
X0246872Y0106111D01*
X0246736Y0106096D01*
X0246600Y0106085D01*
X0246464Y0106078D01*
X0246327Y0106075D01*
X0246191Y0106076D01*
X0246054Y0106081D01*
X0245918Y0106090D01*
X0245782Y0106103D01*
X0245646Y0106120D01*
X0245511Y0106141D01*
X0245377Y0106166D01*
X0245243Y0106194D01*
X0245111Y0106227D01*
X0244979Y0106263D01*
X0244848Y0106304D01*
X0244719Y0106348D01*
X0244591Y0106396D01*
X0244465Y0106447D01*
X0244340Y0106503D01*
X0244216Y0106562D01*
X0244095Y0106624D01*
X0243975Y0106690D01*
X0243858Y0106759D01*
X0243742Y0106832D01*
X0243629Y0106909D01*
X0243518Y0106988D01*
X0243409Y0107071D01*
X0243303Y0107157D01*
X0243199Y0107245D01*
X0243098Y0107337D01*
X0242999Y0107432D01*
X0242904Y0107530D01*
X0242811Y0107630D01*
X0242722Y0107733D01*
X0242635Y0107839D01*
X0242551Y0107947D01*
X0242471Y0108058D01*
X0242394Y0108170D01*
X0242320Y0108286D01*
X0242250Y0108403D01*
X0242183Y0108522D01*
X0242120Y0108643D01*
X0242060Y0108766D01*
X0242004Y0108890D01*
X0241951Y0109016D01*
X0241903Y0109144D01*
X0241857Y0109273D01*
X0241816Y0109403D01*
X0241779Y0109535D01*
X0241745Y0109667D01*
X0241715Y0109800D01*
X0241690Y0109934D01*
X0241668Y0110069D01*
X0241650Y0110205D01*
X0241636Y0110341D01*
X0241626Y0110477D01*
X0241620Y0110613D01*
X0241618Y0110750D01*
X0241618Y0123250D02*
X0241620Y0123387D01*
X0241626Y0123523D01*
X0241636Y0123659D01*
X0241650Y0123795D01*
X0241668Y0123931D01*
X0241690Y0124066D01*
X0241715Y0124200D01*
X0241745Y0124333D01*
X0241779Y0124465D01*
X0241816Y0124597D01*
X0241857Y0124727D01*
X0241903Y0124856D01*
X0241951Y0124984D01*
X0242004Y0125110D01*
X0242060Y0125234D01*
X0242120Y0125357D01*
X0242183Y0125478D01*
X0242250Y0125597D01*
X0242320Y0125714D01*
X0242394Y0125830D01*
X0242471Y0125942D01*
X0242551Y0126053D01*
X0242635Y0126161D01*
X0242722Y0126267D01*
X0242811Y0126370D01*
X0242904Y0126470D01*
X0242999Y0126568D01*
X0243098Y0126663D01*
X0243199Y0126755D01*
X0243303Y0126843D01*
X0243409Y0126929D01*
X0243518Y0127012D01*
X0243629Y0127091D01*
X0243742Y0127168D01*
X0243858Y0127241D01*
X0243975Y0127310D01*
X0244095Y0127376D01*
X0244216Y0127438D01*
X0244340Y0127497D01*
X0244465Y0127553D01*
X0244591Y0127604D01*
X0244719Y0127652D01*
X0244848Y0127696D01*
X0244979Y0127737D01*
X0245111Y0127773D01*
X0245243Y0127806D01*
X0245377Y0127834D01*
X0245511Y0127859D01*
X0245646Y0127880D01*
X0245782Y0127897D01*
X0245918Y0127910D01*
X0246054Y0127919D01*
X0246191Y0127924D01*
X0246327Y0127925D01*
X0246464Y0127922D01*
X0246600Y0127915D01*
X0246736Y0127904D01*
X0246872Y0127889D01*
X0247007Y0127870D01*
X0247142Y0127847D01*
X0247276Y0127820D01*
X0247409Y0127790D01*
X0247541Y0127755D01*
X0247673Y0127717D01*
X0247802Y0127675D01*
X0247931Y0127629D01*
X0248058Y0127579D01*
X0248184Y0127525D01*
X0248308Y0127468D01*
X0248431Y0127408D01*
X0248551Y0127343D01*
X0248670Y0127276D01*
X0248786Y0127205D01*
X0248901Y0127130D01*
X0249013Y0127052D01*
X0249123Y0126971D01*
X0249231Y0126887D01*
X0249336Y0126799D01*
X0249438Y0126709D01*
X0249538Y0126616D01*
X0249635Y0126519D01*
X0249729Y0126420D01*
X0249820Y0126319D01*
X0249908Y0126214D01*
X0249993Y0126107D01*
X0250075Y0125998D01*
X0250154Y0125886D01*
X0250229Y0125772D01*
X0250301Y0125656D01*
X0250370Y0125538D01*
X0250435Y0125418D01*
X0250497Y0125296D01*
X0250555Y0125172D01*
X0250609Y0125047D01*
X0250660Y0124920D01*
X0250706Y0124792D01*
X0250750Y0124662D01*
X0250789Y0124531D01*
X0250825Y0124399D01*
X0250856Y0124266D01*
X0250884Y0124133D01*
X0250908Y0123998D01*
X0250928Y0123863D01*
X0250944Y0123727D01*
X0250956Y0123591D01*
X0250964Y0123455D01*
X0250968Y0123318D01*
X0250968Y0123182D01*
X0250964Y0123045D01*
X0250956Y0122909D01*
X0250944Y0122773D01*
X0250928Y0122637D01*
X0250908Y0122502D01*
X0250884Y0122367D01*
X0250856Y0122234D01*
X0250825Y0122101D01*
X0250789Y0121969D01*
X0250750Y0121838D01*
X0250706Y0121708D01*
X0250660Y0121580D01*
X0250609Y0121453D01*
X0250555Y0121328D01*
X0250497Y0121204D01*
X0250435Y0121082D01*
X0250370Y0120962D01*
X0250301Y0120844D01*
X0250229Y0120728D01*
X0250154Y0120614D01*
X0250075Y0120502D01*
X0249993Y0120393D01*
X0249908Y0120286D01*
X0249820Y0120181D01*
X0249729Y0120080D01*
X0249635Y0119981D01*
X0249538Y0119884D01*
X0249438Y0119791D01*
X0249336Y0119701D01*
X0249231Y0119613D01*
X0249123Y0119529D01*
X0249013Y0119448D01*
X0248901Y0119370D01*
X0248786Y0119295D01*
X0248670Y0119224D01*
X0248551Y0119157D01*
X0248431Y0119092D01*
X0248308Y0119032D01*
X0248184Y0118975D01*
X0248058Y0118921D01*
X0247931Y0118871D01*
X0247802Y0118825D01*
X0247673Y0118783D01*
X0247541Y0118745D01*
X0247409Y0118710D01*
X0247276Y0118680D01*
X0247142Y0118653D01*
X0247007Y0118630D01*
X0246872Y0118611D01*
X0246736Y0118596D01*
X0246600Y0118585D01*
X0246464Y0118578D01*
X0246327Y0118575D01*
X0246191Y0118576D01*
X0246054Y0118581D01*
X0245918Y0118590D01*
X0245782Y0118603D01*
X0245646Y0118620D01*
X0245511Y0118641D01*
X0245377Y0118666D01*
X0245243Y0118694D01*
X0245111Y0118727D01*
X0244979Y0118763D01*
X0244848Y0118804D01*
X0244719Y0118848D01*
X0244591Y0118896D01*
X0244465Y0118947D01*
X0244340Y0119003D01*
X0244216Y0119062D01*
X0244095Y0119124D01*
X0243975Y0119190D01*
X0243858Y0119259D01*
X0243742Y0119332D01*
X0243629Y0119409D01*
X0243518Y0119488D01*
X0243409Y0119571D01*
X0243303Y0119657D01*
X0243199Y0119745D01*
X0243098Y0119837D01*
X0242999Y0119932D01*
X0242904Y0120030D01*
X0242811Y0120130D01*
X0242722Y0120233D01*
X0242635Y0120339D01*
X0242551Y0120447D01*
X0242471Y0120558D01*
X0242394Y0120670D01*
X0242320Y0120786D01*
X0242250Y0120903D01*
X0242183Y0121022D01*
X0242120Y0121143D01*
X0242060Y0121266D01*
X0242004Y0121390D01*
X0241951Y0121516D01*
X0241903Y0121644D01*
X0241857Y0121773D01*
X0241816Y0121903D01*
X0241779Y0122035D01*
X0241745Y0122167D01*
X0241715Y0122300D01*
X0241690Y0122434D01*
X0241668Y0122569D01*
X0241650Y0122705D01*
X0241636Y0122841D01*
X0241626Y0122977D01*
X0241620Y0123113D01*
X0241618Y0123250D01*
X0234343Y0123250D02*
X0234345Y0123338D01*
X0234351Y0123426D01*
X0234361Y0123514D01*
X0234375Y0123601D01*
X0234393Y0123687D01*
X0234414Y0123772D01*
X0234440Y0123857D01*
X0234469Y0123940D01*
X0234502Y0124022D01*
X0234539Y0124102D01*
X0234579Y0124180D01*
X0234623Y0124257D01*
X0234670Y0124331D01*
X0234721Y0124403D01*
X0234774Y0124473D01*
X0234831Y0124541D01*
X0234891Y0124605D01*
X0234954Y0124667D01*
X0235019Y0124726D01*
X0235087Y0124782D01*
X0235158Y0124835D01*
X0235230Y0124885D01*
X0235305Y0124931D01*
X0235382Y0124974D01*
X0235461Y0125014D01*
X0235542Y0125049D01*
X0235624Y0125082D01*
X0235707Y0125110D01*
X0235792Y0125135D01*
X0235878Y0125155D01*
X0235964Y0125172D01*
X0236051Y0125185D01*
X0236139Y0125194D01*
X0236227Y0125199D01*
X0236315Y0125200D01*
X0236403Y0125197D01*
X0236491Y0125190D01*
X0236578Y0125179D01*
X0236665Y0125164D01*
X0236751Y0125145D01*
X0236837Y0125123D01*
X0236921Y0125096D01*
X0237003Y0125066D01*
X0237085Y0125032D01*
X0237165Y0124994D01*
X0237242Y0124953D01*
X0237318Y0124909D01*
X0237392Y0124861D01*
X0237464Y0124809D01*
X0237533Y0124755D01*
X0237600Y0124697D01*
X0237664Y0124637D01*
X0237725Y0124573D01*
X0237784Y0124507D01*
X0237839Y0124439D01*
X0237891Y0124367D01*
X0237940Y0124294D01*
X0237985Y0124219D01*
X0238027Y0124141D01*
X0238066Y0124062D01*
X0238101Y0123981D01*
X0238132Y0123898D01*
X0238159Y0123815D01*
X0238183Y0123730D01*
X0238203Y0123644D01*
X0238219Y0123557D01*
X0238231Y0123470D01*
X0238239Y0123382D01*
X0238243Y0123294D01*
X0238243Y0123206D01*
X0238239Y0123118D01*
X0238231Y0123030D01*
X0238219Y0122943D01*
X0238203Y0122856D01*
X0238183Y0122770D01*
X0238159Y0122685D01*
X0238132Y0122602D01*
X0238101Y0122519D01*
X0238066Y0122438D01*
X0238027Y0122359D01*
X0237985Y0122281D01*
X0237940Y0122206D01*
X0237891Y0122133D01*
X0237839Y0122061D01*
X0237784Y0121993D01*
X0237725Y0121927D01*
X0237664Y0121863D01*
X0237600Y0121803D01*
X0237533Y0121745D01*
X0237464Y0121691D01*
X0237392Y0121639D01*
X0237318Y0121591D01*
X0237242Y0121547D01*
X0237165Y0121506D01*
X0237085Y0121468D01*
X0237003Y0121434D01*
X0236921Y0121404D01*
X0236837Y0121377D01*
X0236751Y0121355D01*
X0236665Y0121336D01*
X0236578Y0121321D01*
X0236491Y0121310D01*
X0236403Y0121303D01*
X0236315Y0121300D01*
X0236227Y0121301D01*
X0236139Y0121306D01*
X0236051Y0121315D01*
X0235964Y0121328D01*
X0235878Y0121345D01*
X0235792Y0121365D01*
X0235707Y0121390D01*
X0235624Y0121418D01*
X0235542Y0121451D01*
X0235461Y0121486D01*
X0235382Y0121526D01*
X0235305Y0121569D01*
X0235230Y0121615D01*
X0235158Y0121665D01*
X0235087Y0121718D01*
X0235019Y0121774D01*
X0234954Y0121833D01*
X0234891Y0121895D01*
X0234831Y0121959D01*
X0234774Y0122027D01*
X0234721Y0122097D01*
X0234670Y0122169D01*
X0234623Y0122243D01*
X0234579Y0122320D01*
X0234539Y0122398D01*
X0234502Y0122478D01*
X0234469Y0122560D01*
X0234440Y0122643D01*
X0234414Y0122728D01*
X0234393Y0122813D01*
X0234375Y0122899D01*
X0234361Y0122986D01*
X0234351Y0123074D01*
X0234345Y0123162D01*
X0234343Y0123250D01*
X0221618Y0123250D02*
X0221620Y0123387D01*
X0221626Y0123523D01*
X0221636Y0123659D01*
X0221650Y0123795D01*
X0221668Y0123931D01*
X0221690Y0124066D01*
X0221715Y0124200D01*
X0221745Y0124333D01*
X0221779Y0124465D01*
X0221816Y0124597D01*
X0221857Y0124727D01*
X0221903Y0124856D01*
X0221951Y0124984D01*
X0222004Y0125110D01*
X0222060Y0125234D01*
X0222120Y0125357D01*
X0222183Y0125478D01*
X0222250Y0125597D01*
X0222320Y0125714D01*
X0222394Y0125830D01*
X0222471Y0125942D01*
X0222551Y0126053D01*
X0222635Y0126161D01*
X0222722Y0126267D01*
X0222811Y0126370D01*
X0222904Y0126470D01*
X0222999Y0126568D01*
X0223098Y0126663D01*
X0223199Y0126755D01*
X0223303Y0126843D01*
X0223409Y0126929D01*
X0223518Y0127012D01*
X0223629Y0127091D01*
X0223742Y0127168D01*
X0223858Y0127241D01*
X0223975Y0127310D01*
X0224095Y0127376D01*
X0224216Y0127438D01*
X0224340Y0127497D01*
X0224465Y0127553D01*
X0224591Y0127604D01*
X0224719Y0127652D01*
X0224848Y0127696D01*
X0224979Y0127737D01*
X0225111Y0127773D01*
X0225243Y0127806D01*
X0225377Y0127834D01*
X0225511Y0127859D01*
X0225646Y0127880D01*
X0225782Y0127897D01*
X0225918Y0127910D01*
X0226054Y0127919D01*
X0226191Y0127924D01*
X0226327Y0127925D01*
X0226464Y0127922D01*
X0226600Y0127915D01*
X0226736Y0127904D01*
X0226872Y0127889D01*
X0227007Y0127870D01*
X0227142Y0127847D01*
X0227276Y0127820D01*
X0227409Y0127790D01*
X0227541Y0127755D01*
X0227673Y0127717D01*
X0227802Y0127675D01*
X0227931Y0127629D01*
X0228058Y0127579D01*
X0228184Y0127525D01*
X0228308Y0127468D01*
X0228431Y0127408D01*
X0228551Y0127343D01*
X0228670Y0127276D01*
X0228786Y0127205D01*
X0228901Y0127130D01*
X0229013Y0127052D01*
X0229123Y0126971D01*
X0229231Y0126887D01*
X0229336Y0126799D01*
X0229438Y0126709D01*
X0229538Y0126616D01*
X0229635Y0126519D01*
X0229729Y0126420D01*
X0229820Y0126319D01*
X0229908Y0126214D01*
X0229993Y0126107D01*
X0230075Y0125998D01*
X0230154Y0125886D01*
X0230229Y0125772D01*
X0230301Y0125656D01*
X0230370Y0125538D01*
X0230435Y0125418D01*
X0230497Y0125296D01*
X0230555Y0125172D01*
X0230609Y0125047D01*
X0230660Y0124920D01*
X0230706Y0124792D01*
X0230750Y0124662D01*
X0230789Y0124531D01*
X0230825Y0124399D01*
X0230856Y0124266D01*
X0230884Y0124133D01*
X0230908Y0123998D01*
X0230928Y0123863D01*
X0230944Y0123727D01*
X0230956Y0123591D01*
X0230964Y0123455D01*
X0230968Y0123318D01*
X0230968Y0123182D01*
X0230964Y0123045D01*
X0230956Y0122909D01*
X0230944Y0122773D01*
X0230928Y0122637D01*
X0230908Y0122502D01*
X0230884Y0122367D01*
X0230856Y0122234D01*
X0230825Y0122101D01*
X0230789Y0121969D01*
X0230750Y0121838D01*
X0230706Y0121708D01*
X0230660Y0121580D01*
X0230609Y0121453D01*
X0230555Y0121328D01*
X0230497Y0121204D01*
X0230435Y0121082D01*
X0230370Y0120962D01*
X0230301Y0120844D01*
X0230229Y0120728D01*
X0230154Y0120614D01*
X0230075Y0120502D01*
X0229993Y0120393D01*
X0229908Y0120286D01*
X0229820Y0120181D01*
X0229729Y0120080D01*
X0229635Y0119981D01*
X0229538Y0119884D01*
X0229438Y0119791D01*
X0229336Y0119701D01*
X0229231Y0119613D01*
X0229123Y0119529D01*
X0229013Y0119448D01*
X0228901Y0119370D01*
X0228786Y0119295D01*
X0228670Y0119224D01*
X0228551Y0119157D01*
X0228431Y0119092D01*
X0228308Y0119032D01*
X0228184Y0118975D01*
X0228058Y0118921D01*
X0227931Y0118871D01*
X0227802Y0118825D01*
X0227673Y0118783D01*
X0227541Y0118745D01*
X0227409Y0118710D01*
X0227276Y0118680D01*
X0227142Y0118653D01*
X0227007Y0118630D01*
X0226872Y0118611D01*
X0226736Y0118596D01*
X0226600Y0118585D01*
X0226464Y0118578D01*
X0226327Y0118575D01*
X0226191Y0118576D01*
X0226054Y0118581D01*
X0225918Y0118590D01*
X0225782Y0118603D01*
X0225646Y0118620D01*
X0225511Y0118641D01*
X0225377Y0118666D01*
X0225243Y0118694D01*
X0225111Y0118727D01*
X0224979Y0118763D01*
X0224848Y0118804D01*
X0224719Y0118848D01*
X0224591Y0118896D01*
X0224465Y0118947D01*
X0224340Y0119003D01*
X0224216Y0119062D01*
X0224095Y0119124D01*
X0223975Y0119190D01*
X0223858Y0119259D01*
X0223742Y0119332D01*
X0223629Y0119409D01*
X0223518Y0119488D01*
X0223409Y0119571D01*
X0223303Y0119657D01*
X0223199Y0119745D01*
X0223098Y0119837D01*
X0222999Y0119932D01*
X0222904Y0120030D01*
X0222811Y0120130D01*
X0222722Y0120233D01*
X0222635Y0120339D01*
X0222551Y0120447D01*
X0222471Y0120558D01*
X0222394Y0120670D01*
X0222320Y0120786D01*
X0222250Y0120903D01*
X0222183Y0121022D01*
X0222120Y0121143D01*
X0222060Y0121266D01*
X0222004Y0121390D01*
X0221951Y0121516D01*
X0221903Y0121644D01*
X0221857Y0121773D01*
X0221816Y0121903D01*
X0221779Y0122035D01*
X0221745Y0122167D01*
X0221715Y0122300D01*
X0221690Y0122434D01*
X0221668Y0122569D01*
X0221650Y0122705D01*
X0221636Y0122841D01*
X0221626Y0122977D01*
X0221620Y0123113D01*
X0221618Y0123250D01*
X0263281Y0143250D02*
X0263283Y0143398D01*
X0263289Y0143546D01*
X0263299Y0143694D01*
X0263313Y0143841D01*
X0263331Y0143988D01*
X0263352Y0144134D01*
X0263378Y0144280D01*
X0263408Y0144425D01*
X0263441Y0144569D01*
X0263479Y0144712D01*
X0263520Y0144854D01*
X0263565Y0144995D01*
X0263613Y0145135D01*
X0263666Y0145274D01*
X0263722Y0145411D01*
X0263782Y0145546D01*
X0263845Y0145680D01*
X0263912Y0145812D01*
X0263983Y0145942D01*
X0264057Y0146070D01*
X0264134Y0146196D01*
X0264215Y0146320D01*
X0264299Y0146442D01*
X0264386Y0146561D01*
X0264477Y0146678D01*
X0264571Y0146793D01*
X0264667Y0146905D01*
X0264767Y0147015D01*
X0264869Y0147121D01*
X0264975Y0147225D01*
X0265083Y0147326D01*
X0265194Y0147424D01*
X0265307Y0147520D01*
X0265423Y0147612D01*
X0265541Y0147701D01*
X0265662Y0147786D01*
X0265785Y0147869D01*
X0265910Y0147948D01*
X0266037Y0148024D01*
X0266166Y0148096D01*
X0266297Y0148165D01*
X0266430Y0148230D01*
X0266565Y0148291D01*
X0266701Y0148349D01*
X0266838Y0148404D01*
X0266977Y0148454D01*
X0267118Y0148501D01*
X0267259Y0148544D01*
X0267402Y0148584D01*
X0267546Y0148619D01*
X0267690Y0148651D01*
X0267836Y0148678D01*
X0267982Y0148702D01*
X0268129Y0148722D01*
X0268276Y0148738D01*
X0268423Y0148750D01*
X0268571Y0148758D01*
X0268719Y0148762D01*
X0268867Y0148762D01*
X0269015Y0148758D01*
X0269163Y0148750D01*
X0269310Y0148738D01*
X0269457Y0148722D01*
X0269604Y0148702D01*
X0269750Y0148678D01*
X0269896Y0148651D01*
X0270040Y0148619D01*
X0270184Y0148584D01*
X0270327Y0148544D01*
X0270468Y0148501D01*
X0270609Y0148454D01*
X0270748Y0148404D01*
X0270885Y0148349D01*
X0271021Y0148291D01*
X0271156Y0148230D01*
X0271289Y0148165D01*
X0271420Y0148096D01*
X0271549Y0148024D01*
X0271676Y0147948D01*
X0271801Y0147869D01*
X0271924Y0147786D01*
X0272045Y0147701D01*
X0272163Y0147612D01*
X0272279Y0147520D01*
X0272392Y0147424D01*
X0272503Y0147326D01*
X0272611Y0147225D01*
X0272717Y0147121D01*
X0272819Y0147015D01*
X0272919Y0146905D01*
X0273015Y0146793D01*
X0273109Y0146678D01*
X0273200Y0146561D01*
X0273287Y0146442D01*
X0273371Y0146320D01*
X0273452Y0146196D01*
X0273529Y0146070D01*
X0273603Y0145942D01*
X0273674Y0145812D01*
X0273741Y0145680D01*
X0273804Y0145546D01*
X0273864Y0145411D01*
X0273920Y0145274D01*
X0273973Y0145135D01*
X0274021Y0144995D01*
X0274066Y0144854D01*
X0274107Y0144712D01*
X0274145Y0144569D01*
X0274178Y0144425D01*
X0274208Y0144280D01*
X0274234Y0144134D01*
X0274255Y0143988D01*
X0274273Y0143841D01*
X0274287Y0143694D01*
X0274297Y0143546D01*
X0274303Y0143398D01*
X0274305Y0143250D01*
X0274303Y0143102D01*
X0274297Y0142954D01*
X0274287Y0142806D01*
X0274273Y0142659D01*
X0274255Y0142512D01*
X0274234Y0142366D01*
X0274208Y0142220D01*
X0274178Y0142075D01*
X0274145Y0141931D01*
X0274107Y0141788D01*
X0274066Y0141646D01*
X0274021Y0141505D01*
X0273973Y0141365D01*
X0273920Y0141226D01*
X0273864Y0141089D01*
X0273804Y0140954D01*
X0273741Y0140820D01*
X0273674Y0140688D01*
X0273603Y0140558D01*
X0273529Y0140430D01*
X0273452Y0140304D01*
X0273371Y0140180D01*
X0273287Y0140058D01*
X0273200Y0139939D01*
X0273109Y0139822D01*
X0273015Y0139707D01*
X0272919Y0139595D01*
X0272819Y0139485D01*
X0272717Y0139379D01*
X0272611Y0139275D01*
X0272503Y0139174D01*
X0272392Y0139076D01*
X0272279Y0138980D01*
X0272163Y0138888D01*
X0272045Y0138799D01*
X0271924Y0138714D01*
X0271801Y0138631D01*
X0271676Y0138552D01*
X0271549Y0138476D01*
X0271420Y0138404D01*
X0271289Y0138335D01*
X0271156Y0138270D01*
X0271021Y0138209D01*
X0270885Y0138151D01*
X0270748Y0138096D01*
X0270609Y0138046D01*
X0270468Y0137999D01*
X0270327Y0137956D01*
X0270184Y0137916D01*
X0270040Y0137881D01*
X0269896Y0137849D01*
X0269750Y0137822D01*
X0269604Y0137798D01*
X0269457Y0137778D01*
X0269310Y0137762D01*
X0269163Y0137750D01*
X0269015Y0137742D01*
X0268867Y0137738D01*
X0268719Y0137738D01*
X0268571Y0137742D01*
X0268423Y0137750D01*
X0268276Y0137762D01*
X0268129Y0137778D01*
X0267982Y0137798D01*
X0267836Y0137822D01*
X0267690Y0137849D01*
X0267546Y0137881D01*
X0267402Y0137916D01*
X0267259Y0137956D01*
X0267118Y0137999D01*
X0266977Y0138046D01*
X0266838Y0138096D01*
X0266701Y0138151D01*
X0266565Y0138209D01*
X0266430Y0138270D01*
X0266297Y0138335D01*
X0266166Y0138404D01*
X0266037Y0138476D01*
X0265910Y0138552D01*
X0265785Y0138631D01*
X0265662Y0138714D01*
X0265541Y0138799D01*
X0265423Y0138888D01*
X0265307Y0138980D01*
X0265194Y0139076D01*
X0265083Y0139174D01*
X0264975Y0139275D01*
X0264869Y0139379D01*
X0264767Y0139485D01*
X0264667Y0139595D01*
X0264571Y0139707D01*
X0264477Y0139822D01*
X0264386Y0139939D01*
X0264299Y0140058D01*
X0264215Y0140180D01*
X0264134Y0140304D01*
X0264057Y0140430D01*
X0263983Y0140558D01*
X0263912Y0140688D01*
X0263845Y0140820D01*
X0263782Y0140954D01*
X0263722Y0141089D01*
X0263666Y0141226D01*
X0263613Y0141365D01*
X0263565Y0141505D01*
X0263520Y0141646D01*
X0263479Y0141788D01*
X0263441Y0141931D01*
X0263408Y0142075D01*
X0263378Y0142220D01*
X0263352Y0142366D01*
X0263331Y0142512D01*
X0263313Y0142659D01*
X0263299Y0142806D01*
X0263289Y0142954D01*
X0263283Y0143102D01*
X0263281Y0143250D01*
X0263281Y0033250D02*
X0263283Y0033398D01*
X0263289Y0033546D01*
X0263299Y0033694D01*
X0263313Y0033841D01*
X0263331Y0033988D01*
X0263352Y0034134D01*
X0263378Y0034280D01*
X0263408Y0034425D01*
X0263441Y0034569D01*
X0263479Y0034712D01*
X0263520Y0034854D01*
X0263565Y0034995D01*
X0263613Y0035135D01*
X0263666Y0035274D01*
X0263722Y0035411D01*
X0263782Y0035546D01*
X0263845Y0035680D01*
X0263912Y0035812D01*
X0263983Y0035942D01*
X0264057Y0036070D01*
X0264134Y0036196D01*
X0264215Y0036320D01*
X0264299Y0036442D01*
X0264386Y0036561D01*
X0264477Y0036678D01*
X0264571Y0036793D01*
X0264667Y0036905D01*
X0264767Y0037015D01*
X0264869Y0037121D01*
X0264975Y0037225D01*
X0265083Y0037326D01*
X0265194Y0037424D01*
X0265307Y0037520D01*
X0265423Y0037612D01*
X0265541Y0037701D01*
X0265662Y0037786D01*
X0265785Y0037869D01*
X0265910Y0037948D01*
X0266037Y0038024D01*
X0266166Y0038096D01*
X0266297Y0038165D01*
X0266430Y0038230D01*
X0266565Y0038291D01*
X0266701Y0038349D01*
X0266838Y0038404D01*
X0266977Y0038454D01*
X0267118Y0038501D01*
X0267259Y0038544D01*
X0267402Y0038584D01*
X0267546Y0038619D01*
X0267690Y0038651D01*
X0267836Y0038678D01*
X0267982Y0038702D01*
X0268129Y0038722D01*
X0268276Y0038738D01*
X0268423Y0038750D01*
X0268571Y0038758D01*
X0268719Y0038762D01*
X0268867Y0038762D01*
X0269015Y0038758D01*
X0269163Y0038750D01*
X0269310Y0038738D01*
X0269457Y0038722D01*
X0269604Y0038702D01*
X0269750Y0038678D01*
X0269896Y0038651D01*
X0270040Y0038619D01*
X0270184Y0038584D01*
X0270327Y0038544D01*
X0270468Y0038501D01*
X0270609Y0038454D01*
X0270748Y0038404D01*
X0270885Y0038349D01*
X0271021Y0038291D01*
X0271156Y0038230D01*
X0271289Y0038165D01*
X0271420Y0038096D01*
X0271549Y0038024D01*
X0271676Y0037948D01*
X0271801Y0037869D01*
X0271924Y0037786D01*
X0272045Y0037701D01*
X0272163Y0037612D01*
X0272279Y0037520D01*
X0272392Y0037424D01*
X0272503Y0037326D01*
X0272611Y0037225D01*
X0272717Y0037121D01*
X0272819Y0037015D01*
X0272919Y0036905D01*
X0273015Y0036793D01*
X0273109Y0036678D01*
X0273200Y0036561D01*
X0273287Y0036442D01*
X0273371Y0036320D01*
X0273452Y0036196D01*
X0273529Y0036070D01*
X0273603Y0035942D01*
X0273674Y0035812D01*
X0273741Y0035680D01*
X0273804Y0035546D01*
X0273864Y0035411D01*
X0273920Y0035274D01*
X0273973Y0035135D01*
X0274021Y0034995D01*
X0274066Y0034854D01*
X0274107Y0034712D01*
X0274145Y0034569D01*
X0274178Y0034425D01*
X0274208Y0034280D01*
X0274234Y0034134D01*
X0274255Y0033988D01*
X0274273Y0033841D01*
X0274287Y0033694D01*
X0274297Y0033546D01*
X0274303Y0033398D01*
X0274305Y0033250D01*
X0274303Y0033102D01*
X0274297Y0032954D01*
X0274287Y0032806D01*
X0274273Y0032659D01*
X0274255Y0032512D01*
X0274234Y0032366D01*
X0274208Y0032220D01*
X0274178Y0032075D01*
X0274145Y0031931D01*
X0274107Y0031788D01*
X0274066Y0031646D01*
X0274021Y0031505D01*
X0273973Y0031365D01*
X0273920Y0031226D01*
X0273864Y0031089D01*
X0273804Y0030954D01*
X0273741Y0030820D01*
X0273674Y0030688D01*
X0273603Y0030558D01*
X0273529Y0030430D01*
X0273452Y0030304D01*
X0273371Y0030180D01*
X0273287Y0030058D01*
X0273200Y0029939D01*
X0273109Y0029822D01*
X0273015Y0029707D01*
X0272919Y0029595D01*
X0272819Y0029485D01*
X0272717Y0029379D01*
X0272611Y0029275D01*
X0272503Y0029174D01*
X0272392Y0029076D01*
X0272279Y0028980D01*
X0272163Y0028888D01*
X0272045Y0028799D01*
X0271924Y0028714D01*
X0271801Y0028631D01*
X0271676Y0028552D01*
X0271549Y0028476D01*
X0271420Y0028404D01*
X0271289Y0028335D01*
X0271156Y0028270D01*
X0271021Y0028209D01*
X0270885Y0028151D01*
X0270748Y0028096D01*
X0270609Y0028046D01*
X0270468Y0027999D01*
X0270327Y0027956D01*
X0270184Y0027916D01*
X0270040Y0027881D01*
X0269896Y0027849D01*
X0269750Y0027822D01*
X0269604Y0027798D01*
X0269457Y0027778D01*
X0269310Y0027762D01*
X0269163Y0027750D01*
X0269015Y0027742D01*
X0268867Y0027738D01*
X0268719Y0027738D01*
X0268571Y0027742D01*
X0268423Y0027750D01*
X0268276Y0027762D01*
X0268129Y0027778D01*
X0267982Y0027798D01*
X0267836Y0027822D01*
X0267690Y0027849D01*
X0267546Y0027881D01*
X0267402Y0027916D01*
X0267259Y0027956D01*
X0267118Y0027999D01*
X0266977Y0028046D01*
X0266838Y0028096D01*
X0266701Y0028151D01*
X0266565Y0028209D01*
X0266430Y0028270D01*
X0266297Y0028335D01*
X0266166Y0028404D01*
X0266037Y0028476D01*
X0265910Y0028552D01*
X0265785Y0028631D01*
X0265662Y0028714D01*
X0265541Y0028799D01*
X0265423Y0028888D01*
X0265307Y0028980D01*
X0265194Y0029076D01*
X0265083Y0029174D01*
X0264975Y0029275D01*
X0264869Y0029379D01*
X0264767Y0029485D01*
X0264667Y0029595D01*
X0264571Y0029707D01*
X0264477Y0029822D01*
X0264386Y0029939D01*
X0264299Y0030058D01*
X0264215Y0030180D01*
X0264134Y0030304D01*
X0264057Y0030430D01*
X0263983Y0030558D01*
X0263912Y0030688D01*
X0263845Y0030820D01*
X0263782Y0030954D01*
X0263722Y0031089D01*
X0263666Y0031226D01*
X0263613Y0031365D01*
X0263565Y0031505D01*
X0263520Y0031646D01*
X0263479Y0031788D01*
X0263441Y0031931D01*
X0263408Y0032075D01*
X0263378Y0032220D01*
X0263352Y0032366D01*
X0263331Y0032512D01*
X0263313Y0032659D01*
X0263299Y0032806D01*
X0263289Y0032954D01*
X0263283Y0033102D01*
X0263281Y0033250D01*
X0078281Y0203250D02*
X0078283Y0203398D01*
X0078289Y0203546D01*
X0078299Y0203694D01*
X0078313Y0203841D01*
X0078331Y0203988D01*
X0078352Y0204134D01*
X0078378Y0204280D01*
X0078408Y0204425D01*
X0078441Y0204569D01*
X0078479Y0204712D01*
X0078520Y0204854D01*
X0078565Y0204995D01*
X0078613Y0205135D01*
X0078666Y0205274D01*
X0078722Y0205411D01*
X0078782Y0205546D01*
X0078845Y0205680D01*
X0078912Y0205812D01*
X0078983Y0205942D01*
X0079057Y0206070D01*
X0079134Y0206196D01*
X0079215Y0206320D01*
X0079299Y0206442D01*
X0079386Y0206561D01*
X0079477Y0206678D01*
X0079571Y0206793D01*
X0079667Y0206905D01*
X0079767Y0207015D01*
X0079869Y0207121D01*
X0079975Y0207225D01*
X0080083Y0207326D01*
X0080194Y0207424D01*
X0080307Y0207520D01*
X0080423Y0207612D01*
X0080541Y0207701D01*
X0080662Y0207786D01*
X0080785Y0207869D01*
X0080910Y0207948D01*
X0081037Y0208024D01*
X0081166Y0208096D01*
X0081297Y0208165D01*
X0081430Y0208230D01*
X0081565Y0208291D01*
X0081701Y0208349D01*
X0081838Y0208404D01*
X0081977Y0208454D01*
X0082118Y0208501D01*
X0082259Y0208544D01*
X0082402Y0208584D01*
X0082546Y0208619D01*
X0082690Y0208651D01*
X0082836Y0208678D01*
X0082982Y0208702D01*
X0083129Y0208722D01*
X0083276Y0208738D01*
X0083423Y0208750D01*
X0083571Y0208758D01*
X0083719Y0208762D01*
X0083867Y0208762D01*
X0084015Y0208758D01*
X0084163Y0208750D01*
X0084310Y0208738D01*
X0084457Y0208722D01*
X0084604Y0208702D01*
X0084750Y0208678D01*
X0084896Y0208651D01*
X0085040Y0208619D01*
X0085184Y0208584D01*
X0085327Y0208544D01*
X0085468Y0208501D01*
X0085609Y0208454D01*
X0085748Y0208404D01*
X0085885Y0208349D01*
X0086021Y0208291D01*
X0086156Y0208230D01*
X0086289Y0208165D01*
X0086420Y0208096D01*
X0086549Y0208024D01*
X0086676Y0207948D01*
X0086801Y0207869D01*
X0086924Y0207786D01*
X0087045Y0207701D01*
X0087163Y0207612D01*
X0087279Y0207520D01*
X0087392Y0207424D01*
X0087503Y0207326D01*
X0087611Y0207225D01*
X0087717Y0207121D01*
X0087819Y0207015D01*
X0087919Y0206905D01*
X0088015Y0206793D01*
X0088109Y0206678D01*
X0088200Y0206561D01*
X0088287Y0206442D01*
X0088371Y0206320D01*
X0088452Y0206196D01*
X0088529Y0206070D01*
X0088603Y0205942D01*
X0088674Y0205812D01*
X0088741Y0205680D01*
X0088804Y0205546D01*
X0088864Y0205411D01*
X0088920Y0205274D01*
X0088973Y0205135D01*
X0089021Y0204995D01*
X0089066Y0204854D01*
X0089107Y0204712D01*
X0089145Y0204569D01*
X0089178Y0204425D01*
X0089208Y0204280D01*
X0089234Y0204134D01*
X0089255Y0203988D01*
X0089273Y0203841D01*
X0089287Y0203694D01*
X0089297Y0203546D01*
X0089303Y0203398D01*
X0089305Y0203250D01*
X0089303Y0203102D01*
X0089297Y0202954D01*
X0089287Y0202806D01*
X0089273Y0202659D01*
X0089255Y0202512D01*
X0089234Y0202366D01*
X0089208Y0202220D01*
X0089178Y0202075D01*
X0089145Y0201931D01*
X0089107Y0201788D01*
X0089066Y0201646D01*
X0089021Y0201505D01*
X0088973Y0201365D01*
X0088920Y0201226D01*
X0088864Y0201089D01*
X0088804Y0200954D01*
X0088741Y0200820D01*
X0088674Y0200688D01*
X0088603Y0200558D01*
X0088529Y0200430D01*
X0088452Y0200304D01*
X0088371Y0200180D01*
X0088287Y0200058D01*
X0088200Y0199939D01*
X0088109Y0199822D01*
X0088015Y0199707D01*
X0087919Y0199595D01*
X0087819Y0199485D01*
X0087717Y0199379D01*
X0087611Y0199275D01*
X0087503Y0199174D01*
X0087392Y0199076D01*
X0087279Y0198980D01*
X0087163Y0198888D01*
X0087045Y0198799D01*
X0086924Y0198714D01*
X0086801Y0198631D01*
X0086676Y0198552D01*
X0086549Y0198476D01*
X0086420Y0198404D01*
X0086289Y0198335D01*
X0086156Y0198270D01*
X0086021Y0198209D01*
X0085885Y0198151D01*
X0085748Y0198096D01*
X0085609Y0198046D01*
X0085468Y0197999D01*
X0085327Y0197956D01*
X0085184Y0197916D01*
X0085040Y0197881D01*
X0084896Y0197849D01*
X0084750Y0197822D01*
X0084604Y0197798D01*
X0084457Y0197778D01*
X0084310Y0197762D01*
X0084163Y0197750D01*
X0084015Y0197742D01*
X0083867Y0197738D01*
X0083719Y0197738D01*
X0083571Y0197742D01*
X0083423Y0197750D01*
X0083276Y0197762D01*
X0083129Y0197778D01*
X0082982Y0197798D01*
X0082836Y0197822D01*
X0082690Y0197849D01*
X0082546Y0197881D01*
X0082402Y0197916D01*
X0082259Y0197956D01*
X0082118Y0197999D01*
X0081977Y0198046D01*
X0081838Y0198096D01*
X0081701Y0198151D01*
X0081565Y0198209D01*
X0081430Y0198270D01*
X0081297Y0198335D01*
X0081166Y0198404D01*
X0081037Y0198476D01*
X0080910Y0198552D01*
X0080785Y0198631D01*
X0080662Y0198714D01*
X0080541Y0198799D01*
X0080423Y0198888D01*
X0080307Y0198980D01*
X0080194Y0199076D01*
X0080083Y0199174D01*
X0079975Y0199275D01*
X0079869Y0199379D01*
X0079767Y0199485D01*
X0079667Y0199595D01*
X0079571Y0199707D01*
X0079477Y0199822D01*
X0079386Y0199939D01*
X0079299Y0200058D01*
X0079215Y0200180D01*
X0079134Y0200304D01*
X0079057Y0200430D01*
X0078983Y0200558D01*
X0078912Y0200688D01*
X0078845Y0200820D01*
X0078782Y0200954D01*
X0078722Y0201089D01*
X0078666Y0201226D01*
X0078613Y0201365D01*
X0078565Y0201505D01*
X0078520Y0201646D01*
X0078479Y0201788D01*
X0078441Y0201931D01*
X0078408Y0202075D01*
X0078378Y0202220D01*
X0078352Y0202366D01*
X0078331Y0202512D01*
X0078313Y0202659D01*
X0078299Y0202806D01*
X0078289Y0202954D01*
X0078283Y0203102D01*
X0078281Y0203250D01*
D12*
X0064958Y0202716D02*
X0064391Y0203284D01*
X0063257Y0203284D01*
X0062690Y0202716D01*
X0061275Y0202716D02*
X0061275Y0201582D01*
X0060708Y0201015D01*
X0059007Y0201015D01*
X0060141Y0201015D02*
X0061275Y0199881D01*
X0062690Y0199881D02*
X0064958Y0202149D01*
X0064958Y0202716D01*
X0064958Y0199881D02*
X0062690Y0199881D01*
X0061275Y0202716D02*
X0060708Y0203284D01*
X0059007Y0203284D01*
X0059007Y0199881D01*
X0058581Y0195284D02*
X0060283Y0195284D01*
X0060850Y0194716D01*
X0060850Y0193582D01*
X0060283Y0193015D01*
X0058581Y0193015D01*
X0058581Y0191881D02*
X0058581Y0195284D01*
X0059716Y0193015D02*
X0060850Y0191881D01*
X0062265Y0192448D02*
X0062265Y0193015D01*
X0062832Y0193582D01*
X0063966Y0193582D01*
X0064533Y0193015D01*
X0064533Y0192448D01*
X0063966Y0191881D01*
X0062832Y0191881D01*
X0062265Y0192448D01*
X0062832Y0193582D02*
X0062265Y0194149D01*
X0062265Y0194716D01*
X0062832Y0195284D01*
X0063966Y0195284D01*
X0064533Y0194716D01*
X0064533Y0194149D01*
X0063966Y0193582D01*
X0063399Y0187284D02*
X0063399Y0183881D01*
X0062265Y0183881D02*
X0064533Y0183881D01*
X0065948Y0184448D02*
X0068216Y0186716D01*
X0068216Y0184448D01*
X0067649Y0183881D01*
X0066515Y0183881D01*
X0065948Y0184448D01*
X0065948Y0186716D01*
X0066515Y0187284D01*
X0067649Y0187284D01*
X0068216Y0186716D01*
X0063399Y0187284D02*
X0062265Y0186149D01*
X0060850Y0185582D02*
X0060283Y0185015D01*
X0058581Y0185015D01*
X0058581Y0183881D02*
X0058581Y0187284D01*
X0060283Y0187284D01*
X0060850Y0186716D01*
X0060850Y0185582D01*
X0059716Y0185015D02*
X0060850Y0183881D01*
X0062832Y0181284D02*
X0062265Y0180716D01*
X0062832Y0181284D02*
X0063966Y0181284D01*
X0064533Y0180716D01*
X0064533Y0180149D01*
X0062265Y0177881D01*
X0064533Y0177881D01*
X0060850Y0177881D02*
X0058581Y0177881D01*
X0058581Y0181284D01*
X0058581Y0173284D02*
X0060283Y0173284D01*
X0060850Y0172716D01*
X0060850Y0171582D01*
X0060283Y0171015D01*
X0058581Y0171015D01*
X0058581Y0169881D02*
X0058581Y0173284D01*
X0059716Y0171015D02*
X0060850Y0169881D01*
X0062265Y0170448D02*
X0062832Y0169881D01*
X0063966Y0169881D01*
X0064533Y0170448D01*
X0064533Y0171015D01*
X0063966Y0171582D01*
X0063399Y0171582D01*
X0063966Y0171582D02*
X0064533Y0172149D01*
X0064533Y0172716D01*
X0063966Y0173284D01*
X0062832Y0173284D01*
X0062265Y0172716D01*
X0063399Y0166284D02*
X0063399Y0162881D01*
X0062265Y0162881D02*
X0064533Y0162881D01*
X0065948Y0163448D02*
X0066515Y0162881D01*
X0067649Y0162881D01*
X0068216Y0163448D01*
X0068216Y0165716D01*
X0065948Y0163448D01*
X0065948Y0165716D01*
X0066515Y0166284D01*
X0067649Y0166284D01*
X0068216Y0165716D01*
X0063399Y0166284D02*
X0062265Y0165149D01*
X0060850Y0165716D02*
X0060283Y0166284D01*
X0059149Y0166284D01*
X0058581Y0165716D01*
X0058581Y0163448D01*
X0059149Y0162881D01*
X0060283Y0162881D01*
X0060850Y0163448D01*
X0060283Y0160284D02*
X0058581Y0160284D01*
X0058581Y0156881D01*
X0058581Y0158015D02*
X0060283Y0158015D01*
X0060850Y0158582D01*
X0060850Y0159716D01*
X0060283Y0160284D01*
X0059716Y0158015D02*
X0060850Y0156881D01*
X0060283Y0155284D02*
X0059149Y0155284D01*
X0058581Y0154716D01*
X0058581Y0152448D01*
X0059149Y0151881D01*
X0060283Y0151881D01*
X0060850Y0152448D01*
X0062265Y0151881D02*
X0064533Y0151881D01*
X0063399Y0151881D02*
X0063399Y0155284D01*
X0062265Y0154149D01*
X0060850Y0154716D02*
X0060283Y0155284D01*
X0062265Y0158582D02*
X0064533Y0158582D01*
X0063966Y0156881D02*
X0063966Y0160284D01*
X0062265Y0158582D01*
X0065948Y0154716D02*
X0066515Y0155284D01*
X0067649Y0155284D01*
X0068216Y0154716D01*
X0068216Y0154149D01*
X0067649Y0153582D01*
X0068216Y0153015D01*
X0068216Y0152448D01*
X0067649Y0151881D01*
X0066515Y0151881D01*
X0065948Y0152448D01*
X0067082Y0153582D02*
X0067649Y0153582D01*
X0074286Y0162111D02*
X0075421Y0162111D01*
X0075988Y0162678D01*
X0075988Y0165514D01*
X0077402Y0164947D02*
X0077970Y0165514D01*
X0079104Y0165514D01*
X0079671Y0164947D01*
X0079671Y0164380D01*
X0077402Y0162111D01*
X0079671Y0162111D01*
X0074286Y0162111D02*
X0073719Y0162678D01*
X0073719Y0165514D01*
X0094581Y0171448D02*
X0095149Y0170881D01*
X0096283Y0170881D01*
X0096850Y0171448D01*
X0098265Y0172582D02*
X0100533Y0172582D01*
X0099966Y0170881D02*
X0099966Y0174284D01*
X0098265Y0172582D01*
X0096850Y0173716D02*
X0096283Y0174284D01*
X0095149Y0174284D01*
X0094581Y0173716D01*
X0094581Y0171448D01*
X0102225Y0183817D02*
X0101090Y0184952D01*
X0102225Y0186086D01*
X0104493Y0186086D01*
X0104493Y0187501D02*
X0101090Y0187501D01*
X0101090Y0189202D01*
X0101658Y0189769D01*
X0102792Y0189769D01*
X0103359Y0189202D01*
X0103359Y0187501D01*
X0103359Y0188635D02*
X0104493Y0189769D01*
X0104493Y0191184D02*
X0101090Y0191184D01*
X0101090Y0193452D01*
X0101090Y0194867D02*
X0101090Y0197135D01*
X0102792Y0196001D02*
X0102792Y0194867D01*
X0104493Y0194867D02*
X0101090Y0194867D01*
X0102792Y0192318D02*
X0102792Y0191184D01*
X0104493Y0191184D02*
X0104493Y0193452D01*
X0111090Y0193452D02*
X0114493Y0193452D01*
X0111090Y0191184D01*
X0114493Y0191184D01*
X0113926Y0189769D02*
X0112792Y0189769D01*
X0112792Y0188635D01*
X0113926Y0189769D02*
X0114493Y0189202D01*
X0114493Y0188068D01*
X0113926Y0187501D01*
X0111658Y0187501D01*
X0111090Y0188068D01*
X0111090Y0189202D01*
X0111658Y0189769D01*
X0111090Y0194867D02*
X0111090Y0196568D01*
X0111658Y0197135D01*
X0113926Y0197135D01*
X0114493Y0196568D01*
X0114493Y0194867D01*
X0111090Y0194867D01*
X0121090Y0195434D02*
X0121658Y0194867D01*
X0121090Y0195434D02*
X0121090Y0196568D01*
X0121658Y0197135D01*
X0122225Y0197135D01*
X0122792Y0196568D01*
X0123359Y0197135D01*
X0123926Y0197135D01*
X0124493Y0196568D01*
X0124493Y0195434D01*
X0123926Y0194867D01*
X0124493Y0193452D02*
X0124493Y0191184D01*
X0124493Y0192318D02*
X0121090Y0192318D01*
X0122225Y0191184D01*
X0122792Y0196001D02*
X0122792Y0196568D01*
X0131090Y0196568D02*
X0131090Y0195434D01*
X0131658Y0194867D01*
X0131090Y0196568D02*
X0131658Y0197135D01*
X0132225Y0197135D01*
X0134493Y0194867D01*
X0134493Y0197135D01*
X0134493Y0193452D02*
X0134493Y0191184D01*
X0134493Y0192318D02*
X0131090Y0192318D01*
X0132225Y0191184D01*
X0140523Y0188068D02*
X0141658Y0189202D01*
X0141090Y0189769D01*
X0140523Y0188068D02*
X0141090Y0187501D01*
X0142225Y0191184D02*
X0141090Y0192318D01*
X0144493Y0192318D01*
X0144493Y0191184D02*
X0144493Y0193452D01*
X0144493Y0194867D02*
X0144493Y0197135D01*
X0144493Y0196001D02*
X0141090Y0196001D01*
X0142225Y0194867D01*
X0151090Y0195434D02*
X0151090Y0196568D01*
X0151658Y0197135D01*
X0153926Y0194867D01*
X0154493Y0195434D01*
X0154493Y0196568D01*
X0153926Y0197135D01*
X0151658Y0197135D01*
X0151090Y0195434D02*
X0151658Y0194867D01*
X0153926Y0194867D01*
X0154493Y0193452D02*
X0154493Y0191184D01*
X0154493Y0192318D02*
X0151090Y0192318D01*
X0152225Y0191184D01*
X0151090Y0189769D02*
X0151658Y0189202D01*
X0150523Y0188068D01*
X0151090Y0187501D01*
X0160523Y0191751D02*
X0161658Y0192885D01*
X0161090Y0193452D01*
X0161658Y0194867D02*
X0162225Y0194867D01*
X0162792Y0195434D01*
X0162792Y0197135D01*
X0163926Y0197135D02*
X0161658Y0197135D01*
X0161090Y0196568D01*
X0161090Y0195434D01*
X0161658Y0194867D01*
X0163926Y0194867D02*
X0164493Y0195434D01*
X0164493Y0196568D01*
X0163926Y0197135D01*
X0160523Y0191751D02*
X0161090Y0191184D01*
X0171090Y0195434D02*
X0171658Y0194867D01*
X0172225Y0194867D01*
X0172792Y0195434D01*
X0172792Y0196568D01*
X0173359Y0197135D01*
X0173926Y0197135D01*
X0174493Y0196568D01*
X0174493Y0195434D01*
X0173926Y0194867D01*
X0173359Y0194867D01*
X0172792Y0195434D01*
X0172792Y0196568D02*
X0172225Y0197135D01*
X0171658Y0197135D01*
X0171090Y0196568D01*
X0171090Y0195434D01*
X0187090Y0194867D02*
X0187090Y0197135D01*
X0187658Y0197135D01*
X0189926Y0194867D01*
X0190493Y0194867D01*
X0197090Y0193452D02*
X0197658Y0192885D01*
X0196523Y0191751D01*
X0197090Y0191184D01*
X0198792Y0194867D02*
X0198792Y0196568D01*
X0199359Y0197135D01*
X0199926Y0197135D01*
X0200493Y0196568D01*
X0200493Y0195434D01*
X0199926Y0194867D01*
X0198792Y0194867D01*
X0197658Y0196001D01*
X0197090Y0197135D01*
X0207090Y0197135D02*
X0207090Y0194867D01*
X0208792Y0194867D01*
X0208225Y0196001D01*
X0208225Y0196568D01*
X0208792Y0197135D01*
X0209926Y0197135D01*
X0210493Y0196568D01*
X0210493Y0195434D01*
X0209926Y0194867D01*
X0207658Y0192885D02*
X0206523Y0191751D01*
X0207090Y0191184D01*
X0207658Y0192885D02*
X0207090Y0193452D01*
X0217090Y0196568D02*
X0218792Y0194867D01*
X0218792Y0197135D01*
X0220493Y0196568D02*
X0217090Y0196568D01*
X0226523Y0191751D02*
X0227658Y0192885D01*
X0227090Y0193452D01*
X0227658Y0194867D02*
X0227090Y0195434D01*
X0227090Y0196568D01*
X0227658Y0197135D01*
X0228225Y0197135D01*
X0228792Y0196568D01*
X0229359Y0197135D01*
X0229926Y0197135D01*
X0230493Y0196568D01*
X0230493Y0195434D01*
X0229926Y0194867D01*
X0228792Y0196001D02*
X0228792Y0196568D01*
X0226523Y0191751D02*
X0227090Y0191184D01*
X0237090Y0195434D02*
X0237658Y0194867D01*
X0237090Y0195434D02*
X0237090Y0196568D01*
X0237658Y0197135D01*
X0238225Y0197135D01*
X0240493Y0194867D01*
X0240493Y0197135D01*
X0247090Y0196001D02*
X0248225Y0194867D01*
X0248792Y0193452D02*
X0250493Y0191184D01*
X0248792Y0189769D02*
X0248792Y0187501D01*
X0250493Y0186086D02*
X0247090Y0183817D01*
X0247090Y0182403D02*
X0247090Y0180134D01*
X0247090Y0181269D02*
X0250493Y0181269D01*
X0250493Y0183817D02*
X0247090Y0186086D01*
X0247090Y0191184D02*
X0248792Y0193452D01*
X0250493Y0194867D02*
X0250493Y0197135D01*
X0250493Y0196001D02*
X0247090Y0196001D01*
X0257090Y0195434D02*
X0257658Y0194867D01*
X0259926Y0194867D01*
X0257658Y0197135D01*
X0259926Y0197135D01*
X0260493Y0196568D01*
X0260493Y0195434D01*
X0259926Y0194867D01*
X0258792Y0193452D02*
X0258792Y0191184D01*
X0260493Y0189769D02*
X0258792Y0187501D01*
X0257090Y0189769D01*
X0257090Y0186086D02*
X0260493Y0183817D01*
X0260493Y0182403D02*
X0259359Y0181269D01*
X0259359Y0181836D02*
X0259359Y0180134D01*
X0260493Y0180134D02*
X0257090Y0180134D01*
X0257090Y0181836D01*
X0257658Y0182403D01*
X0258792Y0182403D01*
X0259359Y0181836D01*
X0257090Y0183817D02*
X0260493Y0186086D01*
X0257090Y0195434D02*
X0257090Y0196568D01*
X0257658Y0197135D01*
X0219615Y0166904D02*
X0219615Y0163696D01*
X0220016Y0163294D01*
X0218614Y0162695D02*
X0218614Y0161893D01*
X0217812Y0161091D01*
X0217010Y0161091D01*
X0215406Y0162695D01*
X0215406Y0163497D01*
X0216208Y0164299D01*
X0217010Y0164299D01*
X0217609Y0165701D02*
X0219214Y0167305D01*
X0219615Y0166904D01*
X0198283Y0176631D02*
X0196015Y0176631D01*
X0197149Y0176631D02*
X0197149Y0180034D01*
X0196015Y0178899D01*
X0194600Y0179466D02*
X0194033Y0180034D01*
X0192899Y0180034D01*
X0192331Y0179466D01*
X0192331Y0177198D01*
X0192899Y0176631D01*
X0194033Y0176631D01*
X0194600Y0177198D01*
X0195208Y0158284D02*
X0192940Y0158284D01*
X0192940Y0156582D01*
X0194074Y0157149D01*
X0194641Y0157149D01*
X0195208Y0156582D01*
X0195208Y0155448D01*
X0194641Y0154881D01*
X0193507Y0154881D01*
X0192940Y0155448D01*
X0191525Y0155448D02*
X0190958Y0154881D01*
X0189824Y0154881D01*
X0189257Y0155448D01*
X0189257Y0157716D01*
X0189824Y0158284D01*
X0190958Y0158284D01*
X0191525Y0157716D01*
X0174208Y0158059D02*
X0173074Y0157492D01*
X0171940Y0156358D01*
X0173641Y0156358D01*
X0174208Y0155791D01*
X0174208Y0155223D01*
X0173641Y0154656D01*
X0172507Y0154656D01*
X0171940Y0155223D01*
X0171940Y0156358D01*
X0170525Y0157492D02*
X0169958Y0158059D01*
X0168824Y0158059D01*
X0168257Y0157492D01*
X0168257Y0155223D01*
X0168824Y0154656D01*
X0169958Y0154656D01*
X0170525Y0155223D01*
X0165309Y0154800D02*
X0163040Y0154800D01*
X0164175Y0154800D02*
X0164175Y0158203D01*
X0163040Y0157069D01*
X0161626Y0158203D02*
X0159357Y0154800D01*
X0161626Y0154800D02*
X0159357Y0158203D01*
X0154283Y0159631D02*
X0152015Y0159631D01*
X0154283Y0161899D01*
X0154283Y0162466D01*
X0153716Y0163034D01*
X0152582Y0163034D01*
X0152015Y0162466D01*
X0150600Y0162466D02*
X0150033Y0163034D01*
X0148899Y0163034D01*
X0148331Y0162466D01*
X0148331Y0160198D01*
X0148899Y0159631D01*
X0150033Y0159631D01*
X0150600Y0160198D01*
X0153940Y0145575D02*
X0153940Y0142739D01*
X0154507Y0142172D01*
X0155641Y0142172D01*
X0156208Y0142739D01*
X0156208Y0145575D01*
X0157623Y0144441D02*
X0158757Y0145575D01*
X0158757Y0142172D01*
X0157623Y0142172D02*
X0159892Y0142172D01*
X0151793Y0117250D02*
X0133793Y0117250D01*
X0133793Y0105250D01*
X0151793Y0105250D01*
X0151793Y0111250D01*
X0116793Y0111250D01*
X0088793Y0111250D01*
X0088793Y0117250D01*
X0116793Y0117250D01*
X0133793Y0117250D01*
X0129094Y0115953D02*
X0129094Y0112550D01*
X0127960Y0112550D02*
X0130228Y0112550D01*
X0131070Y0109953D02*
X0131070Y0107684D01*
X0129935Y0106550D01*
X0128801Y0107684D01*
X0128801Y0109953D01*
X0127387Y0109386D02*
X0126819Y0109953D01*
X0125685Y0109953D01*
X0125118Y0109386D01*
X0125118Y0107117D01*
X0127387Y0109386D01*
X0127387Y0107117D01*
X0126819Y0106550D01*
X0125685Y0106550D01*
X0125118Y0107117D01*
X0123844Y0107117D02*
X0123844Y0106550D01*
X0123276Y0106550D01*
X0123276Y0107117D01*
X0123844Y0107117D01*
X0121862Y0107117D02*
X0121862Y0108251D01*
X0121295Y0108819D01*
X0120728Y0108819D01*
X0119593Y0108251D01*
X0119593Y0109953D01*
X0121862Y0109953D01*
X0121728Y0112550D02*
X0122295Y0113117D01*
X0122295Y0115953D01*
X0121728Y0115953D02*
X0122862Y0115953D01*
X0124276Y0115953D02*
X0124276Y0112550D01*
X0124276Y0113684D02*
X0125978Y0113684D01*
X0126545Y0114251D01*
X0126545Y0115386D01*
X0125978Y0115953D01*
X0124276Y0115953D01*
X0127960Y0114819D02*
X0129094Y0115953D01*
X0121728Y0112550D02*
X0121160Y0112550D01*
X0120593Y0113117D01*
X0116793Y0111250D02*
X0116793Y0117250D01*
X0116793Y0111250D02*
X0116793Y0105250D01*
X0088793Y0105250D01*
X0088793Y0111250D01*
X0090093Y0109386D02*
X0090093Y0108819D01*
X0090660Y0108251D01*
X0091795Y0108251D01*
X0092362Y0107684D01*
X0092362Y0107117D01*
X0091795Y0106550D01*
X0090660Y0106550D01*
X0090093Y0107117D01*
X0090093Y0109386D02*
X0090660Y0109953D01*
X0091795Y0109953D01*
X0092362Y0109386D01*
X0093776Y0109953D02*
X0093776Y0106550D01*
X0093776Y0108251D02*
X0096045Y0108251D01*
X0096045Y0106550D02*
X0096045Y0109953D01*
X0097460Y0109386D02*
X0098027Y0109953D01*
X0099161Y0109953D01*
X0099728Y0109386D01*
X0099728Y0107117D01*
X0099161Y0106550D01*
X0098027Y0106550D01*
X0097460Y0107117D01*
X0097460Y0109386D01*
X0101143Y0109953D02*
X0101143Y0106550D01*
X0101143Y0107684D02*
X0102844Y0107684D01*
X0103411Y0108251D01*
X0103411Y0109386D01*
X0102844Y0109953D01*
X0101143Y0109953D01*
X0102277Y0107684D02*
X0103411Y0106550D01*
X0105960Y0106550D02*
X0105960Y0109953D01*
X0104826Y0109953D02*
X0107094Y0109953D01*
X0108509Y0109953D02*
X0108509Y0106550D01*
X0110778Y0106550D01*
X0112192Y0106550D02*
X0113894Y0106550D01*
X0114461Y0107117D01*
X0114461Y0109386D01*
X0113894Y0109953D01*
X0112192Y0109953D01*
X0112192Y0106550D01*
X0109643Y0108251D02*
X0108509Y0108251D01*
X0108509Y0109953D02*
X0110778Y0109953D01*
X0116793Y0105250D02*
X0133793Y0105250D01*
X0137093Y0107117D02*
X0137660Y0106550D01*
X0138795Y0106550D01*
X0139362Y0107117D01*
X0139362Y0107684D01*
X0138795Y0108251D01*
X0138228Y0108251D01*
X0138795Y0108251D02*
X0139362Y0108819D01*
X0139362Y0109386D01*
X0138795Y0109953D01*
X0137660Y0109953D01*
X0137093Y0109386D01*
X0138660Y0112550D02*
X0139228Y0112550D01*
X0139795Y0113117D01*
X0139795Y0115953D01*
X0139228Y0115953D02*
X0140362Y0115953D01*
X0141776Y0115953D02*
X0143478Y0115953D01*
X0144045Y0115386D01*
X0144045Y0114251D01*
X0143478Y0113684D01*
X0141776Y0113684D01*
X0141776Y0112550D02*
X0141776Y0115953D01*
X0145460Y0115386D02*
X0146027Y0115953D01*
X0147161Y0115953D01*
X0147728Y0115386D01*
X0147728Y0114819D01*
X0145460Y0112550D01*
X0147728Y0112550D01*
X0148570Y0109953D02*
X0148570Y0107684D01*
X0147435Y0106550D01*
X0146301Y0107684D01*
X0146301Y0109953D01*
X0144887Y0109386D02*
X0144887Y0108819D01*
X0144319Y0108251D01*
X0144887Y0107684D01*
X0144887Y0107117D01*
X0144319Y0106550D01*
X0143185Y0106550D01*
X0142618Y0107117D01*
X0141344Y0107117D02*
X0141344Y0106550D01*
X0140776Y0106550D01*
X0140776Y0107117D01*
X0141344Y0107117D01*
X0142618Y0109386D02*
X0143185Y0109953D01*
X0144319Y0109953D01*
X0144887Y0109386D01*
X0144319Y0108251D02*
X0143752Y0108251D01*
X0144391Y0103284D02*
X0142690Y0103284D01*
X0142690Y0099881D01*
X0142690Y0101015D02*
X0144391Y0101015D01*
X0144958Y0101582D01*
X0144958Y0102716D01*
X0144391Y0103284D01*
X0146373Y0102716D02*
X0146940Y0103284D01*
X0148074Y0103284D01*
X0148642Y0102716D01*
X0148642Y0102149D01*
X0146373Y0099881D01*
X0148642Y0099881D01*
X0140708Y0100448D02*
X0140708Y0103284D01*
X0140141Y0103284D02*
X0141275Y0103284D01*
X0140708Y0100448D02*
X0140141Y0099881D01*
X0139574Y0099881D01*
X0139007Y0100448D01*
X0128642Y0099881D02*
X0126373Y0099881D01*
X0127507Y0099881D02*
X0127507Y0103284D01*
X0126373Y0102149D01*
X0124958Y0101582D02*
X0124391Y0101015D01*
X0122690Y0101015D01*
X0122690Y0099881D02*
X0122690Y0103284D01*
X0124391Y0103284D01*
X0124958Y0102716D01*
X0124958Y0101582D01*
X0121275Y0103284D02*
X0120141Y0103284D01*
X0120708Y0103284D02*
X0120708Y0100448D01*
X0120141Y0099881D01*
X0119574Y0099881D01*
X0119007Y0100448D01*
X0120160Y0106550D02*
X0119593Y0107117D01*
X0120160Y0106550D02*
X0121295Y0106550D01*
X0121862Y0107117D01*
X0138093Y0113117D02*
X0138660Y0112550D01*
X0151793Y0111250D02*
X0151793Y0117250D01*
X0165574Y0093158D02*
X0165007Y0092590D01*
X0165007Y0090322D01*
X0165574Y0089755D01*
X0166708Y0089755D01*
X0167275Y0090322D01*
X0168690Y0090322D02*
X0169257Y0089755D01*
X0170391Y0089755D01*
X0170958Y0090322D01*
X0170958Y0090889D01*
X0170391Y0091456D01*
X0169824Y0091456D01*
X0170391Y0091456D02*
X0170958Y0092023D01*
X0170958Y0092590D01*
X0170391Y0093158D01*
X0169257Y0093158D01*
X0168690Y0092590D01*
X0167275Y0092590D02*
X0166708Y0093158D01*
X0165574Y0093158D01*
X0185331Y0092716D02*
X0185331Y0090448D01*
X0185899Y0089881D01*
X0187033Y0089881D01*
X0187600Y0090448D01*
X0189015Y0090448D02*
X0189582Y0089881D01*
X0190716Y0089881D01*
X0191283Y0090448D01*
X0191283Y0091015D01*
X0190716Y0091582D01*
X0189582Y0091582D01*
X0189015Y0092149D01*
X0189015Y0092716D01*
X0189582Y0093284D01*
X0190716Y0093284D01*
X0191283Y0092716D01*
X0191283Y0092149D01*
X0190716Y0091582D01*
X0189582Y0091582D02*
X0189015Y0091015D01*
X0189015Y0090448D01*
X0187600Y0092716D02*
X0187033Y0093284D01*
X0185899Y0093284D01*
X0185331Y0092716D01*
X0173149Y0065284D02*
X0173716Y0064716D01*
X0173716Y0064149D01*
X0173149Y0063582D01*
X0173716Y0063015D01*
X0173716Y0062448D01*
X0173149Y0061881D01*
X0172015Y0061881D01*
X0171448Y0062448D01*
X0170033Y0061881D02*
X0167765Y0061881D01*
X0170033Y0064149D01*
X0170033Y0064716D01*
X0169466Y0065284D01*
X0168332Y0065284D01*
X0167765Y0064716D01*
X0166350Y0064716D02*
X0165783Y0065284D01*
X0164649Y0065284D01*
X0164081Y0064716D01*
X0164081Y0062448D01*
X0164649Y0061881D01*
X0165783Y0061881D01*
X0166350Y0062448D01*
X0171448Y0064716D02*
X0172015Y0065284D01*
X0173149Y0065284D01*
X0173149Y0063582D02*
X0172582Y0063582D01*
X0156817Y0058754D02*
X0154548Y0056485D01*
X0155115Y0055918D01*
X0156250Y0055918D01*
X0156817Y0056485D01*
X0156817Y0058754D01*
X0156250Y0059321D01*
X0155115Y0059321D01*
X0154548Y0058754D01*
X0154548Y0056485D01*
X0153134Y0055918D02*
X0150865Y0055918D01*
X0153134Y0058187D01*
X0153134Y0058754D01*
X0152566Y0059321D01*
X0151432Y0059321D01*
X0150865Y0058754D01*
X0149450Y0058754D02*
X0148883Y0059321D01*
X0147749Y0059321D01*
X0147182Y0058754D01*
X0147182Y0056485D01*
X0147749Y0055918D01*
X0148883Y0055918D01*
X0149450Y0056485D01*
X0137090Y0036551D02*
X0137090Y0034283D01*
X0137090Y0035417D02*
X0140493Y0035417D01*
X0140493Y0032868D02*
X0140493Y0030599D01*
X0137090Y0030599D01*
X0137090Y0032868D01*
X0138792Y0031734D02*
X0138792Y0030599D01*
X0139359Y0029185D02*
X0139926Y0029185D01*
X0140493Y0028618D01*
X0140493Y0027483D01*
X0139926Y0026916D01*
X0138792Y0027483D02*
X0138792Y0028618D01*
X0139359Y0029185D01*
X0137658Y0029185D02*
X0137090Y0028618D01*
X0137090Y0027483D01*
X0137658Y0026916D01*
X0138225Y0026916D01*
X0138792Y0027483D01*
X0140493Y0025502D02*
X0140493Y0023233D01*
X0137090Y0023233D01*
X0137090Y0025502D01*
X0138792Y0024367D02*
X0138792Y0023233D01*
X0138792Y0021819D02*
X0139359Y0021251D01*
X0139359Y0019550D01*
X0139359Y0020684D02*
X0140493Y0021819D01*
X0138792Y0021819D02*
X0137658Y0021819D01*
X0137090Y0021251D01*
X0137090Y0019550D01*
X0140493Y0019550D01*
X0147090Y0020117D02*
X0147090Y0021251D01*
X0147658Y0021819D01*
X0148225Y0021819D01*
X0148792Y0021251D01*
X0149359Y0021819D01*
X0149926Y0021819D01*
X0150493Y0021251D01*
X0150493Y0020117D01*
X0149926Y0019550D01*
X0148792Y0020684D02*
X0148792Y0021251D01*
X0147658Y0019550D02*
X0147090Y0020117D01*
X0149926Y0023233D02*
X0149926Y0023800D01*
X0150493Y0023800D01*
X0150493Y0023233D01*
X0149926Y0023233D01*
X0149926Y0025075D02*
X0150493Y0025642D01*
X0150493Y0026776D01*
X0149926Y0027343D01*
X0149359Y0027343D01*
X0148792Y0026776D01*
X0148792Y0026209D01*
X0148792Y0026776D02*
X0148225Y0027343D01*
X0147658Y0027343D01*
X0147090Y0026776D01*
X0147090Y0025642D01*
X0147658Y0025075D01*
X0147090Y0028758D02*
X0149359Y0028758D01*
X0150493Y0029892D01*
X0149359Y0031026D01*
X0147090Y0031026D01*
X0157090Y0025502D02*
X0159359Y0025502D01*
X0160493Y0024367D01*
X0159359Y0023233D01*
X0157090Y0023233D01*
X0157090Y0021819D02*
X0157090Y0019550D01*
X0158792Y0019550D01*
X0158225Y0020684D01*
X0158225Y0021251D01*
X0158792Y0021819D01*
X0159926Y0021819D01*
X0160493Y0021251D01*
X0160493Y0020117D01*
X0159926Y0019550D01*
X0167090Y0020117D02*
X0167658Y0019550D01*
X0169926Y0019550D01*
X0170493Y0020117D01*
X0170493Y0021251D01*
X0169926Y0021819D01*
X0168792Y0021819D01*
X0168792Y0020684D01*
X0167658Y0021819D02*
X0167090Y0021251D01*
X0167090Y0020117D01*
X0167090Y0023233D02*
X0170493Y0025502D01*
X0167090Y0025502D01*
X0167090Y0026916D02*
X0167090Y0028618D01*
X0167658Y0029185D01*
X0169926Y0029185D01*
X0170493Y0028618D01*
X0170493Y0026916D01*
X0167090Y0026916D01*
X0167090Y0023233D02*
X0170493Y0023233D01*
X0177090Y0023233D02*
X0180493Y0025502D01*
X0177090Y0025502D01*
X0177090Y0026916D02*
X0177090Y0028618D01*
X0177658Y0029185D01*
X0179926Y0029185D01*
X0180493Y0028618D01*
X0180493Y0026916D01*
X0177090Y0026916D01*
X0177090Y0023233D02*
X0180493Y0023233D01*
X0179926Y0021819D02*
X0178792Y0021819D01*
X0178792Y0020684D01*
X0177658Y0019550D02*
X0179926Y0019550D01*
X0180493Y0020117D01*
X0180493Y0021251D01*
X0179926Y0021819D01*
X0177658Y0021819D02*
X0177090Y0021251D01*
X0177090Y0020117D01*
X0177658Y0019550D01*
X0187090Y0019550D02*
X0189359Y0019550D01*
X0190493Y0020684D01*
X0189359Y0021819D01*
X0187090Y0021819D01*
X0188225Y0023233D02*
X0188225Y0023800D01*
X0190493Y0023800D01*
X0190493Y0023233D02*
X0190493Y0024367D01*
X0190493Y0025689D02*
X0188225Y0025689D01*
X0188225Y0027390D01*
X0188792Y0027957D01*
X0190493Y0027957D01*
X0187090Y0023800D02*
X0186523Y0023800D01*
X0207090Y0023800D02*
X0207090Y0024935D01*
X0207658Y0025502D01*
X0209926Y0023233D01*
X0210493Y0023800D01*
X0210493Y0024935D01*
X0209926Y0025502D01*
X0207658Y0025502D01*
X0207090Y0023800D02*
X0207658Y0023233D01*
X0209926Y0023233D01*
X0210493Y0021819D02*
X0208225Y0021819D01*
X0207090Y0020684D01*
X0208225Y0019550D01*
X0210493Y0019550D01*
X0208792Y0019550D02*
X0208792Y0021819D01*
X0217090Y0020684D02*
X0218225Y0021819D01*
X0220493Y0021819D01*
X0220493Y0023233D02*
X0220493Y0025502D01*
X0220493Y0024367D02*
X0217090Y0024367D01*
X0218225Y0023233D01*
X0218792Y0021819D02*
X0218792Y0019550D01*
X0218225Y0019550D02*
X0220493Y0019550D01*
X0218225Y0019550D02*
X0217090Y0020684D01*
X0227090Y0020684D02*
X0228225Y0021819D01*
X0230493Y0021819D01*
X0230493Y0023233D02*
X0228225Y0025502D01*
X0227658Y0025502D01*
X0227090Y0024935D01*
X0227090Y0023800D01*
X0227658Y0023233D01*
X0228792Y0021819D02*
X0228792Y0019550D01*
X0228225Y0019550D02*
X0227090Y0020684D01*
X0228225Y0019550D02*
X0230493Y0019550D01*
X0230493Y0023233D02*
X0230493Y0025502D01*
X0237090Y0024935D02*
X0237658Y0025502D01*
X0238225Y0025502D01*
X0238792Y0024935D01*
X0239359Y0025502D01*
X0239926Y0025502D01*
X0240493Y0024935D01*
X0240493Y0023800D01*
X0239926Y0023233D01*
X0240493Y0021819D02*
X0238225Y0021819D01*
X0237090Y0020684D01*
X0238225Y0019550D01*
X0240493Y0019550D01*
X0238792Y0019550D02*
X0238792Y0021819D01*
X0237658Y0023233D02*
X0237090Y0023800D01*
X0237090Y0024935D01*
X0238792Y0024935D02*
X0238792Y0024367D01*
X0247090Y0024935D02*
X0248792Y0023233D01*
X0248792Y0025502D01*
X0250493Y0024935D02*
X0247090Y0024935D01*
X0248225Y0021819D02*
X0250493Y0021819D01*
X0248792Y0021819D02*
X0248792Y0019550D01*
X0248225Y0019550D02*
X0247090Y0020684D01*
X0248225Y0021819D01*
X0248225Y0019550D02*
X0250493Y0019550D01*
X0257090Y0020684D02*
X0258225Y0021819D01*
X0260493Y0021819D01*
X0259926Y0023233D02*
X0260493Y0023800D01*
X0260493Y0024935D01*
X0259926Y0025502D01*
X0258792Y0025502D01*
X0258225Y0024935D01*
X0258225Y0024367D01*
X0258792Y0023233D01*
X0257090Y0023233D01*
X0257090Y0025502D01*
X0258792Y0021819D02*
X0258792Y0019550D01*
X0258225Y0019550D02*
X0257090Y0020684D01*
X0258225Y0019550D02*
X0260493Y0019550D01*
X0254293Y0109250D02*
X0254293Y0117250D01*
X0252293Y0117250D01*
X0252293Y0109250D01*
X0254293Y0109250D01*
X0254293Y0109785D02*
X0252293Y0109785D01*
X0252293Y0110384D02*
X0254293Y0110384D01*
X0254293Y0110982D02*
X0252293Y0110982D01*
X0252293Y0111581D02*
X0254293Y0111581D01*
X0254293Y0112179D02*
X0252293Y0112179D01*
X0252293Y0112778D02*
X0254293Y0112778D01*
X0254293Y0113376D02*
X0252293Y0113376D01*
X0252293Y0113975D02*
X0254293Y0113975D01*
X0254293Y0114573D02*
X0252293Y0114573D01*
X0252293Y0115172D02*
X0254293Y0115172D01*
X0254293Y0115770D02*
X0252293Y0115770D01*
X0252293Y0116369D02*
X0254293Y0116369D01*
X0254293Y0116967D02*
X0252293Y0116967D01*
X0260422Y0129456D02*
X0261556Y0129456D01*
X0260989Y0129456D02*
X0260989Y0132858D01*
X0260422Y0132858D02*
X0261556Y0132858D01*
X0262877Y0132291D02*
X0262877Y0131724D01*
X0263445Y0131157D01*
X0264579Y0131157D01*
X0265146Y0130590D01*
X0265146Y0130023D01*
X0264579Y0129456D01*
X0263445Y0129456D01*
X0262877Y0130023D01*
X0262877Y0132291D02*
X0263445Y0132858D01*
X0264579Y0132858D01*
X0265146Y0132291D01*
X0266561Y0132858D02*
X0266561Y0129456D01*
X0266561Y0130590D02*
X0268262Y0130590D01*
X0268829Y0131157D01*
X0268829Y0132291D01*
X0268262Y0132858D01*
X0266561Y0132858D01*
X0240703Y0134050D02*
X0238435Y0134050D01*
X0239569Y0134050D02*
X0239569Y0137453D01*
X0238435Y0136319D01*
X0237020Y0136886D02*
X0236453Y0137453D01*
X0235319Y0137453D01*
X0234752Y0136886D01*
X0234752Y0134617D01*
X0235319Y0134050D01*
X0236453Y0134050D01*
X0237020Y0134617D01*
X0233337Y0137453D02*
X0231069Y0137453D01*
X0232203Y0137453D02*
X0232203Y0134050D01*
X0219081Y0126681D02*
X0217477Y0125077D01*
X0218279Y0125879D02*
X0215873Y0128285D01*
X0215873Y0126681D01*
X0214472Y0126082D02*
X0215274Y0125279D01*
X0215274Y0124477D01*
X0214071Y0123274D01*
X0214873Y0122472D02*
X0212466Y0124878D01*
X0213670Y0126082D01*
X0214472Y0126082D01*
X0214873Y0124076D02*
X0216477Y0124076D01*
X0122750Y0051419D02*
X0121615Y0050852D01*
X0120481Y0049718D01*
X0122183Y0049718D01*
X0122750Y0049151D01*
X0122750Y0048584D01*
X0122183Y0048017D01*
X0121048Y0048017D01*
X0120481Y0048584D01*
X0120481Y0049718D01*
X0119067Y0048584D02*
X0119067Y0051419D01*
X0116798Y0051419D02*
X0116798Y0048584D01*
X0117365Y0048017D01*
X0118499Y0048017D01*
X0119067Y0048584D01*
X0086783Y0037966D02*
X0086783Y0035698D01*
X0086216Y0035131D01*
X0085082Y0035131D01*
X0084515Y0035698D01*
X0085082Y0036832D02*
X0086783Y0036832D01*
X0086783Y0037966D02*
X0086216Y0038534D01*
X0085082Y0038534D01*
X0084515Y0037966D01*
X0084515Y0037399D01*
X0085082Y0036832D01*
X0083100Y0036832D02*
X0082533Y0036265D01*
X0080831Y0036265D01*
X0080831Y0035131D02*
X0080831Y0038534D01*
X0082533Y0038534D01*
X0083100Y0037966D01*
X0083100Y0036832D01*
X0081966Y0036265D02*
X0083100Y0035131D01*
X0065830Y0057536D02*
X0065830Y0060939D01*
X0064129Y0059238D01*
X0066397Y0059238D01*
X0062714Y0058103D02*
X0062147Y0057536D01*
X0061013Y0057536D01*
X0060446Y0058103D01*
X0060446Y0060939D01*
X0062714Y0060939D02*
X0062714Y0058103D01*
X0053285Y0059575D02*
X0053285Y0056172D01*
X0051016Y0059575D01*
X0051016Y0056172D01*
X0049695Y0056172D02*
X0048561Y0056172D01*
X0049128Y0056172D02*
X0049128Y0059575D01*
X0048561Y0059575D02*
X0049695Y0059575D01*
X0047146Y0055605D02*
X0044878Y0055605D01*
X0043463Y0056172D02*
X0042329Y0057306D01*
X0042896Y0057306D02*
X0041195Y0057306D01*
X0041195Y0056172D02*
X0041195Y0059575D01*
X0042896Y0059575D01*
X0043463Y0059008D01*
X0043463Y0057873D01*
X0042896Y0057306D01*
X0039780Y0056172D02*
X0039780Y0059575D01*
X0037512Y0059575D02*
X0037512Y0056172D01*
X0038646Y0057306D01*
X0039780Y0056172D01*
X0036097Y0057873D02*
X0035530Y0057306D01*
X0033828Y0057306D01*
X0033828Y0056172D02*
X0033828Y0059575D01*
X0035530Y0059575D01*
X0036097Y0059008D01*
X0036097Y0057873D01*
X0036399Y0061631D02*
X0035265Y0061631D01*
X0034698Y0062198D01*
X0034698Y0062765D01*
X0035265Y0063332D01*
X0036399Y0063332D01*
X0036966Y0062765D01*
X0036966Y0062198D01*
X0036399Y0061631D01*
X0036399Y0063332D02*
X0036966Y0063899D01*
X0036966Y0064466D01*
X0036399Y0065034D01*
X0035265Y0065034D01*
X0034698Y0064466D01*
X0034698Y0063899D01*
X0035265Y0063332D01*
X0033283Y0061631D02*
X0031015Y0061631D01*
X0032149Y0061631D02*
X0032149Y0065034D01*
X0031015Y0063899D01*
X0029600Y0064466D02*
X0029033Y0065034D01*
X0027899Y0065034D01*
X0027331Y0064466D01*
X0027331Y0062198D01*
X0027899Y0061631D01*
X0029033Y0061631D01*
X0029600Y0062198D01*
X0033999Y0069668D02*
X0033432Y0070235D01*
X0033432Y0072504D01*
X0033999Y0073071D01*
X0035133Y0073071D01*
X0035700Y0072504D01*
X0037115Y0071937D02*
X0038249Y0073071D01*
X0038249Y0069668D01*
X0037115Y0069668D02*
X0039384Y0069668D01*
X0040798Y0070235D02*
X0041365Y0069668D01*
X0042500Y0069668D01*
X0043067Y0070235D01*
X0043067Y0071370D01*
X0042500Y0071937D01*
X0041932Y0071937D01*
X0040798Y0071370D01*
X0040798Y0073071D01*
X0043067Y0073071D01*
X0041999Y0075267D02*
X0042567Y0075834D01*
X0042567Y0078669D01*
X0043981Y0078669D02*
X0043981Y0076968D01*
X0045115Y0077535D01*
X0045683Y0077535D01*
X0046250Y0076968D01*
X0046250Y0075834D01*
X0045683Y0075267D01*
X0044548Y0075267D01*
X0043981Y0075834D01*
X0041999Y0075267D02*
X0040865Y0075267D01*
X0040298Y0075834D01*
X0040298Y0078669D01*
X0043981Y0078669D02*
X0046250Y0078669D01*
X0035700Y0070235D02*
X0035133Y0069668D01*
X0033999Y0069668D01*
X0059331Y0073631D02*
X0059331Y0077034D01*
X0061033Y0077034D01*
X0061600Y0076466D01*
X0061600Y0075332D01*
X0061033Y0074765D01*
X0059331Y0074765D01*
X0060466Y0074765D02*
X0061600Y0073631D01*
X0063015Y0073631D02*
X0065283Y0073631D01*
X0064149Y0073631D02*
X0064149Y0077034D01*
X0063015Y0075899D01*
X0066698Y0075899D02*
X0067832Y0077034D01*
X0067832Y0073631D01*
X0066698Y0073631D02*
X0068966Y0073631D01*
X0078432Y0076897D02*
X0078999Y0076330D01*
X0080133Y0076330D01*
X0080700Y0076897D01*
X0082115Y0076330D02*
X0084384Y0076330D01*
X0083249Y0076330D02*
X0083249Y0079732D01*
X0082115Y0078598D01*
X0080700Y0079165D02*
X0080133Y0079732D01*
X0078999Y0079732D01*
X0078432Y0079165D01*
X0078432Y0076897D01*
X0085798Y0076897D02*
X0086365Y0076330D01*
X0087500Y0076330D01*
X0088067Y0076897D01*
X0088067Y0079165D01*
X0087500Y0079732D01*
X0086365Y0079732D01*
X0085798Y0079165D01*
X0085798Y0078598D01*
X0086365Y0078031D01*
X0088067Y0078031D01*
X0097581Y0079698D02*
X0098149Y0079131D01*
X0099283Y0079131D01*
X0099850Y0079698D01*
X0101265Y0079131D02*
X0103533Y0081399D01*
X0103533Y0081966D01*
X0102966Y0082534D01*
X0101832Y0082534D01*
X0101265Y0081966D01*
X0099850Y0081966D02*
X0099283Y0082534D01*
X0098149Y0082534D01*
X0097581Y0081966D01*
X0097581Y0079698D01*
X0101265Y0079131D02*
X0103533Y0079131D01*
X0104948Y0079131D02*
X0107216Y0081399D01*
X0107216Y0081966D01*
X0106649Y0082534D01*
X0105515Y0082534D01*
X0104948Y0081966D01*
X0109182Y0082004D02*
X0109182Y0079735D01*
X0109749Y0079168D01*
X0110883Y0079168D01*
X0111450Y0079735D01*
X0112865Y0079168D02*
X0115134Y0081437D01*
X0115134Y0082004D01*
X0114566Y0082571D01*
X0113432Y0082571D01*
X0112865Y0082004D01*
X0111450Y0082004D02*
X0110883Y0082571D01*
X0109749Y0082571D01*
X0109182Y0082004D01*
X0107216Y0079131D02*
X0104948Y0079131D01*
X0112865Y0079168D02*
X0115134Y0079168D01*
X0116548Y0079168D02*
X0118817Y0079168D01*
X0117682Y0079168D02*
X0117682Y0082571D01*
X0116548Y0081437D01*
X0078195Y0115617D02*
X0077628Y0115050D01*
X0076494Y0115050D01*
X0075926Y0115617D01*
X0074512Y0115617D02*
X0074512Y0118453D01*
X0075926Y0117886D02*
X0076494Y0118453D01*
X0077628Y0118453D01*
X0078195Y0117886D01*
X0078195Y0117319D01*
X0077628Y0116751D01*
X0078195Y0116184D01*
X0078195Y0115617D01*
X0077628Y0116751D02*
X0077061Y0116751D01*
X0074512Y0115617D02*
X0073945Y0115050D01*
X0072810Y0115050D01*
X0072243Y0115617D01*
X0072243Y0118453D01*
X0071943Y0119400D02*
X0085643Y0119400D01*
X0085643Y0137100D01*
X0071943Y0137100D01*
X0071943Y0119400D01*
X0068216Y0120131D02*
X0065948Y0120131D01*
X0067082Y0120131D02*
X0067082Y0123534D01*
X0065948Y0122399D01*
X0064533Y0120131D02*
X0062265Y0120131D01*
X0063399Y0120131D02*
X0063399Y0123534D01*
X0062265Y0122399D01*
X0060850Y0122966D02*
X0060283Y0123534D01*
X0059149Y0123534D01*
X0058581Y0122966D01*
X0058581Y0120698D01*
X0059149Y0120131D01*
X0060283Y0120131D01*
X0060850Y0120698D01*
X0052283Y0127131D02*
X0050015Y0127131D01*
X0051149Y0127131D02*
X0051149Y0130534D01*
X0050015Y0129399D01*
X0048600Y0127131D02*
X0046331Y0127131D01*
X0046331Y0130534D01*
X0044595Y0138288D02*
X0045163Y0138855D01*
X0045163Y0139990D01*
X0044595Y0140557D01*
X0044595Y0141971D02*
X0045163Y0142538D01*
X0045163Y0143673D01*
X0044595Y0144240D01*
X0042327Y0144240D01*
X0041760Y0143673D01*
X0041760Y0142538D01*
X0042327Y0141971D01*
X0042894Y0141971D01*
X0043461Y0142538D01*
X0043461Y0144240D01*
X0044028Y0145538D02*
X0044028Y0147240D01*
X0043461Y0147807D01*
X0042327Y0147807D01*
X0041760Y0147240D01*
X0041760Y0145538D01*
X0045163Y0145538D01*
X0044028Y0146672D02*
X0045163Y0147807D01*
X0044595Y0149221D02*
X0045163Y0149788D01*
X0045163Y0150923D01*
X0044595Y0151490D01*
X0043461Y0151490D01*
X0042894Y0150923D01*
X0042894Y0150356D01*
X0043461Y0149221D01*
X0041760Y0149221D01*
X0041760Y0151490D01*
X0042327Y0140557D02*
X0041760Y0139990D01*
X0041760Y0138855D01*
X0042327Y0138288D01*
X0044595Y0138288D01*
X0058581Y0138698D02*
X0059149Y0138131D01*
X0060283Y0138131D01*
X0060850Y0138698D01*
X0062265Y0138131D02*
X0064533Y0138131D01*
X0063399Y0138131D02*
X0063399Y0141534D01*
X0062265Y0140399D01*
X0060850Y0140966D02*
X0060283Y0141534D01*
X0059149Y0141534D01*
X0058581Y0140966D01*
X0058581Y0138698D01*
X0065948Y0138131D02*
X0068216Y0140399D01*
X0068216Y0140966D01*
X0067649Y0141534D01*
X0066515Y0141534D01*
X0065948Y0140966D01*
X0065948Y0138131D02*
X0068216Y0138131D01*
X0087081Y0128534D02*
X0087081Y0125131D01*
X0087081Y0126265D02*
X0088783Y0126265D01*
X0089350Y0126832D01*
X0089350Y0127966D01*
X0088783Y0128534D01*
X0087081Y0128534D01*
X0088216Y0126265D02*
X0089350Y0125131D01*
X0090765Y0125131D02*
X0090765Y0125698D01*
X0093033Y0127966D01*
X0093033Y0128534D01*
X0090765Y0128534D01*
X0100831Y0137381D02*
X0100831Y0140784D01*
X0102533Y0140784D01*
X0103100Y0140216D01*
X0103100Y0139082D01*
X0102533Y0138515D01*
X0100831Y0138515D01*
X0101966Y0138515D02*
X0103100Y0137381D01*
X0104515Y0137948D02*
X0105082Y0137381D01*
X0106216Y0137381D01*
X0106783Y0137948D01*
X0106783Y0138515D01*
X0106216Y0139082D01*
X0104515Y0139082D01*
X0104515Y0137948D01*
X0104515Y0139082D02*
X0105649Y0140216D01*
X0106783Y0140784D01*
X0107239Y0149058D02*
X0109507Y0149058D01*
X0108373Y0149058D02*
X0108373Y0152461D01*
X0107239Y0151326D01*
X0105824Y0151894D02*
X0105257Y0152461D01*
X0104123Y0152461D01*
X0103556Y0151894D01*
X0103556Y0149625D01*
X0104123Y0149058D01*
X0105257Y0149058D01*
X0105824Y0149625D01*
X0110922Y0150759D02*
X0113191Y0150759D01*
X0112623Y0149058D02*
X0112623Y0152461D01*
X0110922Y0150759D01*
X0104493Y0183817D02*
X0102225Y0183817D01*
X0102792Y0183817D02*
X0102792Y0186086D01*
X0053937Y0206424D02*
X0053937Y0209827D01*
X0055071Y0209827D02*
X0052802Y0209827D01*
X0051388Y0209827D02*
X0049119Y0209827D01*
X0049119Y0206424D01*
X0051388Y0206424D01*
X0050253Y0208125D02*
X0049119Y0208125D01*
X0047705Y0207558D02*
X0047705Y0206991D01*
X0047137Y0206424D01*
X0046003Y0206424D01*
X0045436Y0206991D01*
X0046003Y0208125D02*
X0047137Y0208125D01*
X0047705Y0207558D01*
X0047705Y0209260D02*
X0047137Y0209827D01*
X0046003Y0209827D01*
X0045436Y0209260D01*
X0045436Y0208693D01*
X0046003Y0208125D01*
X0044021Y0206424D02*
X0041753Y0206424D01*
X0041753Y0209827D01*
X0044021Y0209827D01*
X0042887Y0208125D02*
X0041753Y0208125D01*
X0040338Y0208125D02*
X0039771Y0207558D01*
X0038070Y0207558D01*
X0039204Y0207558D02*
X0040338Y0206424D01*
X0040338Y0208125D02*
X0040338Y0209260D01*
X0039771Y0209827D01*
X0038070Y0209827D01*
X0038070Y0206424D01*
X0036936Y0195284D02*
X0035235Y0195284D01*
X0035235Y0191881D01*
X0036936Y0191881D01*
X0037504Y0192448D01*
X0037504Y0194716D01*
X0036936Y0195284D01*
X0038918Y0194149D02*
X0040052Y0195284D01*
X0040052Y0191881D01*
X0038918Y0191881D02*
X0041187Y0191881D01*
X0040620Y0187284D02*
X0039485Y0187284D01*
X0038918Y0186716D01*
X0037504Y0186716D02*
X0036936Y0187284D01*
X0035235Y0187284D01*
X0035235Y0183881D01*
X0036936Y0183881D01*
X0037504Y0184448D01*
X0037504Y0186716D01*
X0040620Y0187284D02*
X0041187Y0186716D01*
X0041187Y0186149D01*
X0038918Y0183881D01*
X0041187Y0183881D01*
X0040620Y0179284D02*
X0041187Y0178716D01*
X0041187Y0178149D01*
X0040620Y0177582D01*
X0041187Y0177015D01*
X0041187Y0176448D01*
X0040620Y0175881D01*
X0039485Y0175881D01*
X0038918Y0176448D01*
X0037504Y0176448D02*
X0037504Y0178716D01*
X0036936Y0179284D01*
X0035235Y0179284D01*
X0035235Y0175881D01*
X0036936Y0175881D01*
X0037504Y0176448D01*
X0038918Y0178716D02*
X0039485Y0179284D01*
X0040620Y0179284D01*
X0040620Y0177582D02*
X0040052Y0177582D01*
X0039216Y0117284D02*
X0039216Y0116716D01*
X0036948Y0114448D01*
X0036948Y0113881D01*
X0035533Y0113881D02*
X0033265Y0113881D01*
X0034399Y0113881D02*
X0034399Y0117284D01*
X0033265Y0116149D01*
X0031850Y0116716D02*
X0031283Y0117284D01*
X0030149Y0117284D01*
X0029581Y0116716D01*
X0029581Y0114448D01*
X0030149Y0113881D01*
X0031283Y0113881D01*
X0031850Y0114448D01*
X0036948Y0117284D02*
X0039216Y0117284D01*
X0037249Y0109071D02*
X0036115Y0107937D01*
X0034700Y0108504D02*
X0034133Y0109071D01*
X0032999Y0109071D01*
X0032432Y0108504D01*
X0032432Y0106235D01*
X0032999Y0105668D01*
X0034133Y0105668D01*
X0034700Y0106235D01*
X0036115Y0105668D02*
X0038384Y0105668D01*
X0037249Y0105668D02*
X0037249Y0109071D01*
X0039798Y0107370D02*
X0041500Y0107370D01*
X0042067Y0106802D01*
X0042067Y0106235D01*
X0041500Y0105668D01*
X0040365Y0105668D01*
X0039798Y0106235D01*
X0039798Y0107370D01*
X0040932Y0108504D01*
X0042067Y0109071D01*
D13*
X0037683Y0102045D02*
X0023904Y0102045D01*
X0023904Y0076455D01*
X0037683Y0076455D01*
X0037683Y0102045D01*
X0031455Y0102919D02*
X0014132Y0102919D01*
X0014132Y0111581D01*
X0031455Y0111581D01*
X0031455Y0102919D01*
X0028305Y0112494D02*
X0017281Y0112494D01*
X0017281Y0118006D01*
X0028305Y0118006D01*
X0028305Y0112494D01*
X0046281Y0131494D02*
X0057305Y0131494D01*
X0057305Y0137006D01*
X0046281Y0137006D01*
X0046281Y0131494D01*
X0046281Y0138494D02*
X0057305Y0138494D01*
X0057305Y0144006D01*
X0046281Y0144006D01*
X0046281Y0138494D01*
X0046281Y0145494D02*
X0057305Y0145494D01*
X0057305Y0151006D01*
X0046281Y0151006D01*
X0046281Y0145494D01*
X0058281Y0145494D02*
X0069305Y0145494D01*
X0069305Y0151006D01*
X0058281Y0151006D01*
X0058281Y0145494D01*
X0058281Y0137006D02*
X0069305Y0137006D01*
X0069305Y0131494D01*
X0058281Y0131494D01*
X0058281Y0137006D01*
X0058281Y0130006D02*
X0069305Y0130006D01*
X0069305Y0124494D01*
X0058281Y0124494D01*
X0058281Y0130006D01*
X0077919Y0145376D02*
X0077919Y0147344D01*
X0077919Y0145376D02*
X0079888Y0145376D01*
X0087037Y0140762D02*
X0087037Y0129738D01*
X0092549Y0129738D01*
X0092549Y0140762D01*
X0087037Y0140762D01*
X0091699Y0145376D02*
X0093667Y0145376D01*
X0093667Y0147344D01*
X0094037Y0140762D02*
X0094037Y0129738D01*
X0099549Y0129738D01*
X0099549Y0140762D01*
X0094037Y0140762D01*
X0103281Y0154333D02*
X0114305Y0154333D01*
X0114305Y0159844D01*
X0103281Y0159844D01*
X0103281Y0154333D01*
X0093667Y0159156D02*
X0093667Y0161124D01*
X0091699Y0161124D01*
X0091699Y0159156D01*
X0093667Y0159156D01*
X0091699Y0159156D01*
X0091699Y0161124D01*
X0093667Y0161124D01*
X0093667Y0159156D01*
X0093667Y0159284D02*
X0091699Y0159284D01*
X0091699Y0159783D02*
X0093667Y0159783D01*
X0093667Y0160281D02*
X0091699Y0160281D01*
X0091699Y0160780D02*
X0093667Y0160780D01*
X0094281Y0163494D02*
X0105305Y0163494D01*
X0105305Y0169006D01*
X0094281Y0169006D01*
X0094281Y0163494D01*
X0079888Y0161124D02*
X0077919Y0161124D01*
X0077919Y0159156D01*
X0057305Y0161006D02*
X0057305Y0155494D01*
X0046281Y0155494D01*
X0046281Y0161006D01*
X0057305Y0161006D01*
X0057305Y0162494D02*
X0057305Y0168006D01*
X0046281Y0168006D01*
X0046281Y0162494D01*
X0057305Y0162494D01*
X0057305Y0169494D02*
X0057305Y0175006D01*
X0046281Y0175006D01*
X0046281Y0169494D01*
X0057305Y0169494D01*
X0057305Y0176494D02*
X0046281Y0176494D01*
X0046281Y0182006D01*
X0057305Y0182006D01*
X0057305Y0176494D01*
X0057305Y0183494D02*
X0057305Y0189006D01*
X0046281Y0189006D01*
X0046281Y0183494D01*
X0057305Y0183494D01*
X0057305Y0191494D02*
X0046281Y0191494D01*
X0046281Y0197006D01*
X0057305Y0197006D01*
X0057305Y0191494D01*
X0057305Y0199494D02*
X0046281Y0199494D01*
X0046281Y0205006D01*
X0057305Y0205006D01*
X0057305Y0199494D01*
X0036817Y0197951D02*
X0036817Y0210549D01*
X0014770Y0210549D01*
X0014770Y0197951D01*
X0036817Y0197951D01*
X0033864Y0196596D02*
X0017722Y0196596D01*
X0017722Y0189904D01*
X0016935Y0189904D01*
X0016935Y0196596D01*
X0017722Y0196596D01*
X0017722Y0189904D01*
X0033864Y0189904D01*
X0033864Y0196596D01*
X0030518Y0199526D02*
X0025793Y0199526D01*
X0025793Y0201888D01*
X0027368Y0202675D02*
X0025793Y0206612D01*
X0025793Y0208974D01*
X0021069Y0208974D01*
X0025793Y0208974D02*
X0030518Y0208974D01*
X0025793Y0199526D02*
X0021069Y0199526D01*
X0017722Y0196174D02*
X0016935Y0196174D01*
X0016935Y0195675D02*
X0017722Y0195675D01*
X0017722Y0195177D02*
X0016935Y0195177D01*
X0016935Y0194678D02*
X0017722Y0194678D01*
X0017722Y0194180D02*
X0016935Y0194180D01*
X0016935Y0193681D02*
X0017722Y0193681D01*
X0017722Y0193183D02*
X0016935Y0193183D01*
X0016935Y0192684D02*
X0017722Y0192684D01*
X0017722Y0192186D02*
X0016935Y0192186D01*
X0016935Y0191687D02*
X0017722Y0191687D01*
X0017722Y0191189D02*
X0016935Y0191189D01*
X0016935Y0190690D02*
X0017722Y0190690D01*
X0017722Y0190192D02*
X0016935Y0190192D01*
X0016935Y0188596D02*
X0016935Y0181904D01*
X0017722Y0181904D01*
X0017722Y0188596D01*
X0016935Y0188596D01*
X0016935Y0188198D02*
X0017722Y0188198D01*
X0017722Y0188596D02*
X0033864Y0188596D01*
X0033864Y0181904D01*
X0017722Y0181904D01*
X0017722Y0188596D01*
X0017722Y0187699D02*
X0016935Y0187699D01*
X0016935Y0187201D02*
X0017722Y0187201D01*
X0017722Y0186702D02*
X0016935Y0186702D01*
X0016935Y0186204D02*
X0017722Y0186204D01*
X0017722Y0185705D02*
X0016935Y0185705D01*
X0016935Y0185207D02*
X0017722Y0185207D01*
X0017722Y0184708D02*
X0016935Y0184708D01*
X0016935Y0184210D02*
X0017722Y0184210D01*
X0017722Y0183711D02*
X0016935Y0183711D01*
X0016935Y0183213D02*
X0017722Y0183213D01*
X0017722Y0182714D02*
X0016935Y0182714D01*
X0016935Y0182216D02*
X0017722Y0182216D01*
X0017722Y0180596D02*
X0017722Y0173904D01*
X0016935Y0173904D01*
X0016935Y0180596D01*
X0017722Y0180596D01*
X0033864Y0180596D01*
X0033864Y0173904D01*
X0017722Y0173904D01*
X0017722Y0180596D01*
X0017722Y0180222D02*
X0016935Y0180222D01*
X0016935Y0179723D02*
X0017722Y0179723D01*
X0017722Y0179224D02*
X0016935Y0179224D01*
X0016935Y0178726D02*
X0017722Y0178726D01*
X0017722Y0178227D02*
X0016935Y0178227D01*
X0016935Y0177729D02*
X0017722Y0177729D01*
X0017722Y0177230D02*
X0016935Y0177230D01*
X0016935Y0176732D02*
X0017722Y0176732D01*
X0017722Y0176233D02*
X0016935Y0176233D01*
X0016935Y0175735D02*
X0017722Y0175735D01*
X0017722Y0175236D02*
X0016935Y0175236D01*
X0016935Y0174738D02*
X0017722Y0174738D01*
X0017722Y0174239D02*
X0016935Y0174239D01*
X0025203Y0177250D02*
X0026384Y0176069D01*
X0026384Y0178431D01*
X0025203Y0177250D01*
X0025222Y0177230D02*
X0026384Y0177230D01*
X0026384Y0176732D02*
X0025721Y0176732D01*
X0026219Y0176233D02*
X0026384Y0176233D01*
X0026384Y0177729D02*
X0025682Y0177729D01*
X0026180Y0178227D02*
X0026384Y0178227D01*
X0026384Y0184069D02*
X0025203Y0185250D01*
X0026384Y0186431D01*
X0026384Y0184069D01*
X0026384Y0184210D02*
X0026243Y0184210D01*
X0026384Y0184708D02*
X0025745Y0184708D01*
X0025246Y0185207D02*
X0026384Y0185207D01*
X0026384Y0185705D02*
X0025658Y0185705D01*
X0026156Y0186204D02*
X0026384Y0186204D01*
X0026384Y0192069D02*
X0025203Y0193250D01*
X0026384Y0194431D01*
X0026384Y0192069D01*
X0026384Y0192186D02*
X0026267Y0192186D01*
X0026384Y0192684D02*
X0025768Y0192684D01*
X0025270Y0193183D02*
X0026384Y0193183D01*
X0026384Y0193681D02*
X0025634Y0193681D01*
X0026133Y0194180D02*
X0026384Y0194180D01*
X0095293Y0195750D02*
X0095293Y0198250D01*
X0097793Y0200750D01*
X0100293Y0198250D01*
X0097793Y0195750D01*
X0095293Y0195750D01*
X0095293Y0196174D02*
X0098217Y0196174D01*
X0098716Y0196672D02*
X0095293Y0196672D01*
X0095293Y0197171D02*
X0099214Y0197171D01*
X0099713Y0197669D02*
X0095293Y0197669D01*
X0095293Y0198168D02*
X0100211Y0198168D01*
X0099877Y0198666D02*
X0095710Y0198666D01*
X0096208Y0199165D02*
X0099378Y0199165D01*
X0098880Y0199663D02*
X0096707Y0199663D01*
X0097205Y0200162D02*
X0098381Y0200162D01*
X0097883Y0200660D02*
X0097704Y0200660D01*
X0097872Y0198329D02*
X0097872Y0208171D01*
X0177715Y0208171D01*
X0177715Y0198329D01*
X0097872Y0198329D01*
X0148537Y0175262D02*
X0148537Y0164238D01*
X0154049Y0164238D01*
X0154049Y0175262D01*
X0148537Y0175262D01*
X0159120Y0178411D02*
X0159120Y0179986D01*
X0187467Y0179986D01*
X0187467Y0178411D01*
X0192537Y0175262D02*
X0192537Y0164238D01*
X0198049Y0164238D01*
X0198049Y0175262D01*
X0192537Y0175262D01*
X0187467Y0170537D02*
X0187467Y0168963D01*
X0187467Y0161089D02*
X0187467Y0159514D01*
X0159120Y0159514D01*
X0159120Y0161089D01*
X0159120Y0168963D02*
X0159120Y0170537D01*
X0175313Y0158762D02*
X0175313Y0147738D01*
X0180825Y0147738D01*
X0180825Y0158762D01*
X0175313Y0158762D01*
X0182537Y0158762D02*
X0182537Y0147738D01*
X0188049Y0147738D01*
X0188049Y0158762D01*
X0182537Y0158762D01*
X0198541Y0145904D02*
X0204447Y0145904D01*
X0204447Y0139998D01*
X0198541Y0139998D01*
X0198541Y0145904D01*
X0198541Y0145824D02*
X0204447Y0145824D01*
X0204447Y0145904D02*
X0161140Y0145904D01*
X0161140Y0102596D01*
X0204447Y0102596D01*
X0204447Y0145904D01*
X0204447Y0145326D02*
X0198541Y0145326D01*
X0198541Y0144827D02*
X0204447Y0144827D01*
X0204447Y0144329D02*
X0198541Y0144329D01*
X0198541Y0143830D02*
X0204447Y0143830D01*
X0204447Y0143332D02*
X0198541Y0143332D01*
X0198541Y0142833D02*
X0204447Y0142833D01*
X0204447Y0142335D02*
X0198541Y0142335D01*
X0198541Y0141836D02*
X0204447Y0141836D01*
X0204447Y0141338D02*
X0198541Y0141338D01*
X0198541Y0140839D02*
X0204447Y0140839D01*
X0204447Y0140341D02*
X0198541Y0140341D01*
X0190667Y0136061D02*
X0194604Y0132124D01*
X0194604Y0112439D01*
X0170982Y0112439D01*
X0170982Y0136061D01*
X0190667Y0136061D01*
X0201606Y0150188D02*
X0213856Y0162437D01*
X0219980Y0156312D01*
X0207731Y0144063D01*
X0201606Y0150188D01*
X0215242Y0137096D02*
X0207447Y0129301D01*
X0211345Y0125404D01*
X0219139Y0133199D01*
X0215242Y0137096D01*
X0224293Y0127750D02*
X0224293Y0098750D01*
X0224295Y0098610D01*
X0224301Y0098470D01*
X0224311Y0098330D01*
X0224324Y0098190D01*
X0224342Y0098051D01*
X0224364Y0097912D01*
X0224389Y0097775D01*
X0224418Y0097637D01*
X0224451Y0097501D01*
X0224488Y0097366D01*
X0224529Y0097232D01*
X0224574Y0097099D01*
X0224622Y0096967D01*
X0224674Y0096837D01*
X0224729Y0096708D01*
X0224788Y0096581D01*
X0224851Y0096455D01*
X0224917Y0096331D01*
X0224986Y0096210D01*
X0225059Y0096090D01*
X0225136Y0095972D01*
X0225215Y0095857D01*
X0225298Y0095743D01*
X0225384Y0095633D01*
X0225473Y0095524D01*
X0225565Y0095418D01*
X0225660Y0095315D01*
X0225757Y0095214D01*
X0225858Y0095117D01*
X0225961Y0095022D01*
X0226067Y0094930D01*
X0226176Y0094841D01*
X0226286Y0094755D01*
X0226400Y0094672D01*
X0226515Y0094593D01*
X0226633Y0094516D01*
X0226753Y0094443D01*
X0226874Y0094374D01*
X0226998Y0094308D01*
X0227124Y0094245D01*
X0227251Y0094186D01*
X0227380Y0094131D01*
X0227510Y0094079D01*
X0227642Y0094031D01*
X0227775Y0093986D01*
X0227909Y0093945D01*
X0228044Y0093908D01*
X0228180Y0093875D01*
X0228318Y0093846D01*
X0228455Y0093821D01*
X0228594Y0093799D01*
X0228733Y0093781D01*
X0228873Y0093768D01*
X0229013Y0093758D01*
X0229153Y0093752D01*
X0229293Y0093750D01*
X0243293Y0093750D01*
X0243433Y0093752D01*
X0243573Y0093758D01*
X0243713Y0093768D01*
X0243853Y0093781D01*
X0243992Y0093799D01*
X0244131Y0093821D01*
X0244268Y0093846D01*
X0244406Y0093875D01*
X0244542Y0093908D01*
X0244677Y0093945D01*
X0244811Y0093986D01*
X0244944Y0094031D01*
X0245076Y0094079D01*
X0245206Y0094131D01*
X0245335Y0094186D01*
X0245462Y0094245D01*
X0245588Y0094308D01*
X0245712Y0094374D01*
X0245833Y0094443D01*
X0245953Y0094516D01*
X0246071Y0094593D01*
X0246186Y0094672D01*
X0246300Y0094755D01*
X0246410Y0094841D01*
X0246519Y0094930D01*
X0246625Y0095022D01*
X0246728Y0095117D01*
X0246829Y0095214D01*
X0246926Y0095315D01*
X0247021Y0095418D01*
X0247113Y0095524D01*
X0247202Y0095633D01*
X0247288Y0095743D01*
X0247371Y0095857D01*
X0247450Y0095972D01*
X0247527Y0096090D01*
X0247600Y0096210D01*
X0247669Y0096331D01*
X0247735Y0096455D01*
X0247798Y0096581D01*
X0247857Y0096708D01*
X0247912Y0096837D01*
X0247964Y0096967D01*
X0248012Y0097099D01*
X0248057Y0097232D01*
X0248098Y0097366D01*
X0248135Y0097501D01*
X0248168Y0097637D01*
X0248197Y0097775D01*
X0248222Y0097912D01*
X0248244Y0098051D01*
X0248262Y0098190D01*
X0248275Y0098330D01*
X0248285Y0098470D01*
X0248291Y0098610D01*
X0248293Y0098750D01*
X0248293Y0127750D01*
X0251793Y0128250D02*
X0251793Y0130750D01*
X0254293Y0130750D01*
X0256793Y0128250D01*
X0254293Y0125750D01*
X0251793Y0128250D01*
X0251793Y0128376D02*
X0256667Y0128376D01*
X0256421Y0127878D02*
X0252165Y0127878D01*
X0252664Y0127379D02*
X0255923Y0127379D01*
X0255424Y0126881D02*
X0253162Y0126881D01*
X0253661Y0126382D02*
X0254926Y0126382D01*
X0254427Y0125884D02*
X0254160Y0125884D01*
X0254372Y0128171D02*
X0274215Y0128171D01*
X0274215Y0098329D01*
X0254372Y0098329D01*
X0254372Y0128171D01*
X0255670Y0129373D02*
X0251793Y0129373D01*
X0251793Y0128875D02*
X0256168Y0128875D01*
X0255171Y0129872D02*
X0251793Y0129872D01*
X0251793Y0130370D02*
X0254673Y0130370D01*
X0243293Y0132750D02*
X0229293Y0132750D01*
X0229153Y0132748D01*
X0229013Y0132742D01*
X0228873Y0132732D01*
X0228733Y0132719D01*
X0228594Y0132701D01*
X0228455Y0132679D01*
X0228318Y0132654D01*
X0228180Y0132625D01*
X0228044Y0132592D01*
X0227909Y0132555D01*
X0227775Y0132514D01*
X0227642Y0132469D01*
X0227510Y0132421D01*
X0227380Y0132369D01*
X0227251Y0132314D01*
X0227124Y0132255D01*
X0226998Y0132192D01*
X0226874Y0132126D01*
X0226753Y0132057D01*
X0226633Y0131984D01*
X0226515Y0131907D01*
X0226400Y0131828D01*
X0226286Y0131745D01*
X0226176Y0131659D01*
X0226067Y0131570D01*
X0225961Y0131478D01*
X0225858Y0131383D01*
X0225757Y0131286D01*
X0225660Y0131185D01*
X0225565Y0131082D01*
X0225473Y0130976D01*
X0225384Y0130867D01*
X0225298Y0130757D01*
X0225215Y0130643D01*
X0225136Y0130528D01*
X0225059Y0130410D01*
X0224986Y0130290D01*
X0224917Y0130169D01*
X0224851Y0130045D01*
X0224788Y0129919D01*
X0224729Y0129792D01*
X0224674Y0129663D01*
X0224622Y0129533D01*
X0224574Y0129401D01*
X0224529Y0129268D01*
X0224488Y0129134D01*
X0224451Y0128999D01*
X0224418Y0128863D01*
X0224389Y0128725D01*
X0224364Y0128588D01*
X0224342Y0128449D01*
X0224324Y0128310D01*
X0224311Y0128170D01*
X0224301Y0128030D01*
X0224295Y0127890D01*
X0224293Y0127750D01*
X0243293Y0132750D02*
X0243433Y0132748D01*
X0243573Y0132742D01*
X0243713Y0132732D01*
X0243853Y0132719D01*
X0243992Y0132701D01*
X0244131Y0132679D01*
X0244268Y0132654D01*
X0244406Y0132625D01*
X0244542Y0132592D01*
X0244677Y0132555D01*
X0244811Y0132514D01*
X0244944Y0132469D01*
X0245076Y0132421D01*
X0245206Y0132369D01*
X0245335Y0132314D01*
X0245462Y0132255D01*
X0245588Y0132192D01*
X0245712Y0132126D01*
X0245833Y0132057D01*
X0245953Y0131984D01*
X0246071Y0131907D01*
X0246186Y0131828D01*
X0246300Y0131745D01*
X0246410Y0131659D01*
X0246519Y0131570D01*
X0246625Y0131478D01*
X0246728Y0131383D01*
X0246829Y0131286D01*
X0246926Y0131185D01*
X0247021Y0131082D01*
X0247113Y0130976D01*
X0247202Y0130867D01*
X0247288Y0130757D01*
X0247371Y0130643D01*
X0247450Y0130528D01*
X0247527Y0130410D01*
X0247600Y0130290D01*
X0247669Y0130169D01*
X0247735Y0130045D01*
X0247798Y0129919D01*
X0247857Y0129792D01*
X0247912Y0129663D01*
X0247964Y0129533D01*
X0248012Y0129401D01*
X0248057Y0129268D01*
X0248098Y0129134D01*
X0248135Y0128999D01*
X0248168Y0128863D01*
X0248197Y0128725D01*
X0248222Y0128588D01*
X0248244Y0128449D01*
X0248262Y0128310D01*
X0248275Y0128170D01*
X0248285Y0128030D01*
X0248291Y0127890D01*
X0248293Y0127750D01*
X0240802Y0079802D02*
X0239451Y0079802D01*
X0239000Y0079351D01*
X0239000Y0078450D01*
X0239451Y0078000D01*
X0240802Y0078000D01*
X0237855Y0078000D02*
X0237855Y0079351D01*
X0237405Y0079802D01*
X0236054Y0079802D01*
X0236054Y0078000D01*
X0234990Y0078000D02*
X0234090Y0078000D01*
X0234540Y0078000D02*
X0234540Y0080702D01*
X0234090Y0080702D02*
X0234990Y0080702D01*
X0230079Y0078450D02*
X0229629Y0078450D01*
X0229629Y0078000D01*
X0230079Y0078000D01*
X0230079Y0078450D01*
X0230079Y0078000D02*
X0229179Y0077099D01*
X0228034Y0078450D02*
X0228034Y0079351D01*
X0227583Y0079802D01*
X0226232Y0079802D01*
X0226232Y0080702D02*
X0226232Y0078000D01*
X0227583Y0078000D01*
X0228034Y0078450D01*
X0225087Y0078000D02*
X0223736Y0078000D01*
X0223286Y0078450D01*
X0223736Y0078901D01*
X0225087Y0078901D01*
X0225087Y0079351D02*
X0225087Y0078000D01*
X0225087Y0079351D02*
X0224637Y0079802D01*
X0223736Y0079802D01*
X0222141Y0080702D02*
X0220339Y0080702D01*
X0220339Y0078000D01*
X0219194Y0078450D02*
X0219194Y0079351D01*
X0218744Y0079802D01*
X0217843Y0079802D01*
X0217393Y0079351D01*
X0217393Y0078450D01*
X0217843Y0078000D01*
X0218744Y0078000D01*
X0219194Y0078450D01*
X0220339Y0079351D02*
X0221240Y0079351D01*
X0216288Y0079802D02*
X0215838Y0079802D01*
X0214937Y0078901D01*
X0214937Y0078000D02*
X0214937Y0079802D01*
X0213792Y0079802D02*
X0212441Y0079802D01*
X0211991Y0079351D01*
X0211991Y0078450D01*
X0212441Y0078000D01*
X0213792Y0078000D01*
X0210846Y0078000D02*
X0209495Y0078000D01*
X0209044Y0078450D01*
X0209495Y0078901D01*
X0210846Y0078901D01*
X0210846Y0079351D02*
X0210846Y0078000D01*
X0210846Y0079351D02*
X0210395Y0079802D01*
X0209495Y0079802D01*
X0207899Y0080702D02*
X0207899Y0078000D01*
X0206098Y0078000D02*
X0206098Y0080702D01*
X0206998Y0079802D01*
X0207899Y0080702D01*
X0202006Y0080702D02*
X0201105Y0080252D01*
X0200205Y0079351D01*
X0201556Y0079351D01*
X0202006Y0078901D01*
X0202006Y0078450D01*
X0201556Y0078000D01*
X0200655Y0078000D01*
X0200205Y0078450D01*
X0200205Y0079351D01*
X0199060Y0078000D02*
X0197258Y0078000D01*
X0198159Y0078000D02*
X0198159Y0080702D01*
X0197258Y0079802D01*
X0196113Y0080252D02*
X0194312Y0078450D01*
X0194762Y0078000D01*
X0195663Y0078000D01*
X0196113Y0078450D01*
X0196113Y0080252D01*
X0195663Y0080702D01*
X0194762Y0080702D01*
X0194312Y0080252D01*
X0194312Y0078450D01*
X0193167Y0078000D02*
X0191365Y0078000D01*
X0193167Y0079802D01*
X0193167Y0080252D01*
X0192716Y0080702D01*
X0191815Y0080702D01*
X0191365Y0080252D01*
X0187355Y0079802D02*
X0187355Y0078901D01*
X0186454Y0078000D01*
X0185309Y0078000D02*
X0183958Y0078000D01*
X0183508Y0078450D01*
X0183508Y0079351D01*
X0183958Y0079802D01*
X0185309Y0079802D01*
X0186454Y0080702D02*
X0187355Y0079802D01*
X0182444Y0080702D02*
X0181543Y0079802D01*
X0181543Y0078901D01*
X0182444Y0078000D01*
X0181543Y0075702D02*
X0182444Y0074802D01*
X0183345Y0075702D01*
X0183345Y0073000D01*
X0184490Y0073450D02*
X0184940Y0073000D01*
X0186291Y0073000D01*
X0186291Y0074351D01*
X0185841Y0074802D01*
X0184940Y0074802D01*
X0184940Y0073901D02*
X0186291Y0073901D01*
X0187436Y0074351D02*
X0187436Y0073450D01*
X0187887Y0073000D01*
X0189238Y0073000D01*
X0190383Y0073000D02*
X0190383Y0074802D01*
X0190383Y0073901D02*
X0191284Y0074802D01*
X0191734Y0074802D01*
X0192838Y0074351D02*
X0192838Y0073450D01*
X0193289Y0073000D01*
X0194189Y0073000D01*
X0194640Y0073450D01*
X0194640Y0074351D01*
X0194189Y0074802D01*
X0193289Y0074802D01*
X0192838Y0074351D01*
X0195785Y0074351D02*
X0196686Y0074351D01*
X0195785Y0075702D02*
X0197586Y0075702D01*
X0195785Y0075702D02*
X0195785Y0073000D01*
X0198731Y0073450D02*
X0199182Y0073901D01*
X0200533Y0073901D01*
X0200533Y0074351D02*
X0200533Y0073000D01*
X0199182Y0073000D01*
X0198731Y0073450D01*
X0199182Y0074802D02*
X0200082Y0074802D01*
X0200533Y0074351D01*
X0201678Y0074802D02*
X0203029Y0074802D01*
X0203479Y0074351D01*
X0203479Y0073450D01*
X0203029Y0073000D01*
X0201678Y0073000D01*
X0201678Y0075702D01*
X0204624Y0073450D02*
X0204624Y0073000D01*
X0205075Y0073000D01*
X0205075Y0073450D01*
X0204624Y0073450D01*
X0206098Y0073450D02*
X0206548Y0073000D01*
X0207899Y0073000D01*
X0209044Y0073450D02*
X0209495Y0073000D01*
X0210395Y0073000D01*
X0210846Y0073450D01*
X0210846Y0074351D01*
X0210395Y0074802D01*
X0209495Y0074802D01*
X0209044Y0074351D01*
X0209044Y0073450D01*
X0207899Y0074802D02*
X0206548Y0074802D01*
X0206098Y0074351D01*
X0206098Y0073450D01*
X0205075Y0071153D02*
X0205075Y0070702D01*
X0205075Y0069802D02*
X0205075Y0068000D01*
X0205525Y0068000D02*
X0204624Y0068000D01*
X0203479Y0068000D02*
X0203479Y0069802D01*
X0204624Y0069802D02*
X0205075Y0069802D01*
X0206589Y0069802D02*
X0207940Y0069802D01*
X0208390Y0069351D01*
X0208390Y0068000D01*
X0209535Y0068450D02*
X0209986Y0068000D01*
X0210886Y0068000D01*
X0211337Y0068450D01*
X0211337Y0069351D01*
X0210886Y0069802D01*
X0209986Y0069802D01*
X0209535Y0069351D01*
X0209535Y0068450D01*
X0206589Y0068000D02*
X0206589Y0069802D01*
X0203479Y0068000D02*
X0202128Y0068000D01*
X0201678Y0068450D01*
X0201678Y0069802D01*
X0200533Y0070252D02*
X0200082Y0070702D01*
X0198731Y0070702D01*
X0198731Y0068000D01*
X0200082Y0068000D01*
X0200533Y0068450D01*
X0200533Y0070252D01*
X0197586Y0067550D02*
X0195785Y0067550D01*
X0194640Y0068450D02*
X0194640Y0069351D01*
X0194189Y0069802D01*
X0193289Y0069802D01*
X0192838Y0069351D01*
X0192838Y0068450D01*
X0193289Y0068000D01*
X0194189Y0068000D01*
X0194640Y0068450D01*
X0195253Y0065702D02*
X0194803Y0065252D01*
X0195253Y0065702D02*
X0196154Y0065702D01*
X0196604Y0065252D01*
X0196604Y0064802D01*
X0194803Y0063000D01*
X0196604Y0063000D01*
X0200696Y0060702D02*
X0202047Y0060702D01*
X0202497Y0060252D01*
X0202497Y0058450D01*
X0202047Y0058000D01*
X0200696Y0058000D01*
X0200696Y0060702D01*
X0203642Y0059802D02*
X0204093Y0059802D01*
X0204093Y0058000D01*
X0204543Y0058000D02*
X0203642Y0058000D01*
X0205607Y0058000D02*
X0206507Y0058000D01*
X0206057Y0058000D02*
X0206057Y0060702D01*
X0205607Y0060702D01*
X0204093Y0060702D02*
X0204093Y0061153D01*
X0207571Y0060702D02*
X0208021Y0060702D01*
X0208021Y0058000D01*
X0207571Y0058000D02*
X0208472Y0058000D01*
X0209535Y0058000D02*
X0209535Y0059802D01*
X0209986Y0059802D01*
X0210436Y0059351D01*
X0210886Y0059802D01*
X0211337Y0059351D01*
X0211337Y0058000D01*
X0210436Y0058000D02*
X0210436Y0059351D01*
X0212482Y0058450D02*
X0212932Y0058901D01*
X0214283Y0058901D01*
X0214283Y0059351D02*
X0214283Y0058000D01*
X0212932Y0058000D01*
X0212482Y0058450D01*
X0212932Y0059802D02*
X0213833Y0059802D01*
X0214283Y0059351D01*
X0215428Y0059802D02*
X0216779Y0059802D01*
X0217230Y0059351D01*
X0217230Y0058000D01*
X0218375Y0058000D02*
X0218375Y0059802D01*
X0219726Y0059802D01*
X0220176Y0059351D01*
X0220176Y0058000D01*
X0215428Y0058000D02*
X0215428Y0059802D01*
X0213792Y0073000D02*
X0213792Y0074351D01*
X0213342Y0074802D01*
X0212891Y0074351D01*
X0212891Y0073000D01*
X0211991Y0073000D02*
X0211991Y0074802D01*
X0212441Y0074802D01*
X0212891Y0074351D01*
X0191734Y0069802D02*
X0191284Y0069802D01*
X0190383Y0068901D01*
X0190383Y0068000D02*
X0190383Y0069802D01*
X0189238Y0069802D02*
X0187887Y0069802D01*
X0187436Y0069351D01*
X0187436Y0068450D01*
X0187887Y0068000D01*
X0189238Y0068000D01*
X0189238Y0065702D02*
X0189238Y0063901D01*
X0188337Y0063000D01*
X0187436Y0063901D01*
X0187436Y0065702D01*
X0186291Y0065702D02*
X0184490Y0065702D01*
X0184490Y0063000D01*
X0186291Y0063000D01*
X0185391Y0064351D02*
X0184490Y0064351D01*
X0183345Y0064351D02*
X0182894Y0063901D01*
X0181543Y0063901D01*
X0181543Y0063000D02*
X0181543Y0065702D01*
X0182894Y0065702D01*
X0183345Y0065252D01*
X0183345Y0064351D01*
X0182444Y0063901D02*
X0183345Y0063000D01*
X0182894Y0060702D02*
X0181543Y0060702D01*
X0181543Y0058000D01*
X0181543Y0058901D02*
X0182894Y0058901D01*
X0183345Y0059351D01*
X0183345Y0060252D01*
X0182894Y0060702D01*
X0184940Y0059802D02*
X0185841Y0059802D01*
X0186291Y0059351D01*
X0186291Y0058000D01*
X0184940Y0058000D01*
X0184490Y0058450D01*
X0184940Y0058901D01*
X0186291Y0058901D01*
X0187436Y0058901D02*
X0188337Y0059802D01*
X0188787Y0059802D01*
X0187436Y0059802D02*
X0187436Y0058000D01*
X0189892Y0058000D02*
X0189892Y0060702D01*
X0191243Y0059802D02*
X0189892Y0058901D01*
X0191243Y0058000D01*
X0192347Y0058450D02*
X0192347Y0059351D01*
X0192798Y0059802D01*
X0193698Y0059802D01*
X0194149Y0059351D01*
X0194149Y0058901D01*
X0192347Y0058901D01*
X0192347Y0058450D02*
X0192798Y0058000D01*
X0193698Y0058000D01*
X0195294Y0058000D02*
X0195294Y0059802D01*
X0196194Y0059802D02*
X0196645Y0059802D01*
X0196194Y0059802D02*
X0195294Y0058901D01*
X0190833Y0063000D02*
X0190383Y0063000D01*
X0190383Y0063450D01*
X0190833Y0063450D01*
X0190833Y0063000D01*
X0190833Y0064351D02*
X0190383Y0064351D01*
X0190383Y0064802D01*
X0190833Y0064802D01*
X0190833Y0064351D01*
X0186291Y0068000D02*
X0184940Y0068000D01*
X0184490Y0068450D01*
X0184940Y0068901D01*
X0186291Y0068901D01*
X0186291Y0069351D02*
X0186291Y0068000D01*
X0186291Y0069351D02*
X0185841Y0069802D01*
X0184940Y0069802D01*
X0183345Y0070702D02*
X0183345Y0068000D01*
X0181543Y0068000D02*
X0181543Y0070702D01*
X0182444Y0069802D01*
X0183345Y0070702D01*
X0181543Y0073000D02*
X0181543Y0075702D01*
X0184490Y0073450D02*
X0184940Y0073901D01*
X0187436Y0074351D02*
X0187887Y0074802D01*
X0189238Y0074802D01*
X0184049Y0089738D02*
X0178537Y0089738D01*
X0178537Y0100762D01*
X0184049Y0100762D01*
X0184049Y0089738D01*
X0177675Y0089738D02*
X0177675Y0100762D01*
X0172163Y0100762D01*
X0172163Y0089738D01*
X0177675Y0089738D01*
X0162549Y0072762D02*
X0157037Y0072762D01*
X0157037Y0061738D01*
X0162549Y0061738D01*
X0162549Y0072762D01*
X0156124Y0077911D02*
X0147463Y0077911D01*
X0147463Y0060589D01*
X0156124Y0060589D01*
X0156124Y0077911D01*
X0147337Y0084163D02*
X0147337Y0098337D01*
X0140250Y0098337D01*
X0140250Y0084163D01*
X0147337Y0084163D01*
X0145589Y0069140D02*
X0145589Y0055360D01*
X0119998Y0055360D01*
X0119998Y0069140D01*
X0145589Y0069140D01*
X0127337Y0084163D02*
X0127337Y0098337D01*
X0120250Y0098337D01*
X0120250Y0084163D01*
X0127337Y0084163D01*
X0118124Y0077911D02*
X0118124Y0060589D01*
X0109463Y0060589D01*
X0109463Y0077911D01*
X0118124Y0077911D01*
X0108049Y0077262D02*
X0108049Y0066238D01*
X0102537Y0066238D01*
X0102537Y0077262D01*
X0108049Y0077262D01*
X0101455Y0071906D02*
X0098949Y0074411D01*
X0097124Y0074411D01*
X0101455Y0071906D02*
X0101455Y0057089D01*
X0097518Y0057089D01*
X0088069Y0057089D02*
X0084132Y0057089D01*
X0084132Y0071906D01*
X0086637Y0074411D01*
X0088069Y0074411D01*
X0086888Y0071656D02*
X0086888Y0067719D01*
X0084919Y0069687D02*
X0088856Y0069687D01*
X0080191Y0061207D02*
X0067396Y0061207D01*
X0067396Y0054809D01*
X0067396Y0049691D01*
X0067396Y0043293D01*
X0080191Y0043293D01*
X0080191Y0061207D01*
X0076337Y0064663D02*
X0076337Y0078837D01*
X0069250Y0078837D01*
X0069250Y0064663D01*
X0076337Y0064663D01*
X0067781Y0055250D02*
X0067781Y0049250D01*
X0067396Y0049250D01*
X0067396Y0055250D01*
X0067781Y0055250D01*
X0067781Y0055095D02*
X0067396Y0055095D01*
X0067396Y0054597D02*
X0067781Y0054597D01*
X0067781Y0054098D02*
X0067396Y0054098D01*
X0067396Y0053600D02*
X0067781Y0053600D01*
X0067781Y0053101D02*
X0067396Y0053101D01*
X0067396Y0052603D02*
X0067781Y0052603D01*
X0067781Y0052104D02*
X0067396Y0052104D01*
X0067396Y0051606D02*
X0067781Y0051606D01*
X0067781Y0051107D02*
X0067396Y0051107D01*
X0067396Y0050609D02*
X0067781Y0050609D01*
X0067781Y0050110D02*
X0067396Y0050110D01*
X0067396Y0049612D02*
X0067781Y0049612D01*
X0069534Y0042216D02*
X0069793Y0042250D01*
X0070052Y0042216D01*
X0070293Y0042116D01*
X0070500Y0041957D01*
X0070659Y0041750D01*
X0070759Y0041509D01*
X0070793Y0041250D01*
X0070759Y0040991D01*
X0070659Y0040750D01*
X0070500Y0040543D01*
X0070293Y0040384D01*
X0070052Y0040284D01*
X0069793Y0040250D01*
X0069534Y0040284D01*
X0069293Y0040384D01*
X0069086Y0040543D01*
X0068927Y0040750D01*
X0068827Y0040991D01*
X0068793Y0041250D01*
X0068827Y0041509D01*
X0068927Y0041750D01*
X0069086Y0041957D01*
X0069293Y0042116D01*
X0069534Y0042216D01*
X0069336Y0042134D02*
X0070250Y0042134D01*
X0070707Y0041635D02*
X0068880Y0041635D01*
X0068808Y0041137D02*
X0070778Y0041137D01*
X0070574Y0040638D02*
X0069013Y0040638D01*
X0081037Y0039738D02*
X0081037Y0050762D01*
X0086549Y0050762D01*
X0086549Y0039738D01*
X0081037Y0039738D01*
X0054400Y0047608D02*
X0054400Y0053967D01*
X0015030Y0053967D01*
X0015030Y0018533D01*
X0036683Y0018533D01*
X0053041Y0018533D02*
X0054400Y0018533D01*
X0054400Y0024892D01*
X0015030Y0018533D02*
X0001250Y0018533D01*
X0001250Y0053967D01*
X0015030Y0053967D01*
X0015281Y0060494D02*
X0026305Y0060494D01*
X0026305Y0066006D01*
X0015281Y0066006D01*
X0015281Y0060494D01*
X0015132Y0066919D02*
X0032455Y0066919D01*
X0032455Y0075581D01*
X0015132Y0075581D01*
X0015132Y0066919D01*
X0023395Y0136422D02*
X0023846Y0136422D01*
X0024296Y0136872D01*
X0024296Y0139124D01*
X0023846Y0139124D02*
X0024746Y0139124D01*
X0025891Y0138224D02*
X0026792Y0139124D01*
X0026792Y0136422D01*
X0025891Y0136422D02*
X0027693Y0136422D01*
X0023395Y0136422D02*
X0022945Y0136872D01*
X0133872Y0018171D02*
X0133872Y0008329D01*
X0193715Y0008329D01*
X0193715Y0018171D01*
X0133872Y0018171D01*
X0133793Y0010750D02*
X0131293Y0008250D01*
X0131293Y0005750D01*
X0133793Y0005750D01*
X0136293Y0008250D01*
X0133793Y0010750D01*
X0133771Y0010728D02*
X0133816Y0010728D01*
X0134314Y0010229D02*
X0133272Y0010229D01*
X0132774Y0009731D02*
X0134813Y0009731D01*
X0135311Y0009232D02*
X0132275Y0009232D01*
X0131777Y0008734D02*
X0135810Y0008734D01*
X0136278Y0008235D02*
X0131293Y0008235D01*
X0131293Y0007737D02*
X0135780Y0007737D01*
X0135281Y0007238D02*
X0131293Y0007238D01*
X0131293Y0006740D02*
X0134783Y0006740D01*
X0134284Y0006241D02*
X0131293Y0006241D01*
X0203872Y0008329D02*
X0203872Y0018171D01*
X0263715Y0018171D01*
X0263715Y0008329D01*
X0203872Y0008329D01*
X0261293Y0018250D02*
X0263793Y0015750D01*
X0266293Y0018250D01*
X0266293Y0020750D01*
X0263793Y0020750D01*
X0261293Y0018250D01*
X0261338Y0018205D02*
X0266249Y0018205D01*
X0266293Y0018704D02*
X0261747Y0018704D01*
X0262246Y0019202D02*
X0266293Y0019202D01*
X0266293Y0019701D02*
X0262744Y0019701D01*
X0263243Y0020199D02*
X0266293Y0020199D01*
X0266293Y0020698D02*
X0263741Y0020698D01*
X0261836Y0017707D02*
X0265750Y0017707D01*
X0265252Y0017208D02*
X0262335Y0017208D01*
X0262834Y0016710D02*
X0264753Y0016710D01*
X0264255Y0016211D02*
X0263332Y0016211D01*
X0183793Y0195750D02*
X0181293Y0195750D01*
X0181293Y0198250D01*
X0183793Y0200750D01*
X0186293Y0198250D01*
X0183793Y0195750D01*
X0184217Y0196174D02*
X0181293Y0196174D01*
X0181293Y0196672D02*
X0184716Y0196672D01*
X0185214Y0197171D02*
X0181293Y0197171D01*
X0181293Y0197669D02*
X0185713Y0197669D01*
X0186211Y0198168D02*
X0181293Y0198168D01*
X0181710Y0198666D02*
X0185877Y0198666D01*
X0185378Y0199165D02*
X0182208Y0199165D01*
X0182707Y0199663D02*
X0184880Y0199663D01*
X0184381Y0200162D02*
X0183205Y0200162D01*
X0183704Y0200660D02*
X0183883Y0200660D01*
X0183872Y0198329D02*
X0183872Y0208171D01*
X0263715Y0208171D01*
X0263715Y0198329D01*
X0183872Y0198329D01*
D14*
X0039116Y0167502D02*
X0039116Y0166242D01*
X0032030Y0170848D02*
X0021439Y0170848D01*
X0010022Y0170848D02*
X0008959Y0170848D01*
X0039116Y0153880D02*
X0039116Y0152620D01*
X0039116Y0140258D02*
X0039116Y0138998D01*
X0032030Y0135652D02*
X0021439Y0135652D01*
X0010022Y0135652D02*
X0008959Y0135652D01*
D15*
X0190818Y0048950D03*
X0191318Y0049200D03*
X0193618Y0049200D03*
X0193718Y0049150D03*
X0194018Y0049000D03*
X0194118Y0048950D03*
X0194418Y0049200D03*
X0192618Y0044000D03*
X0192268Y0044000D03*
D16*
X0192443Y0044050D03*
X0192443Y0044100D03*
X0192143Y0044750D03*
X0192093Y0044800D03*
X0192093Y0044850D03*
X0192043Y0045000D03*
X0192043Y0045050D03*
X0191943Y0045100D03*
X0191843Y0045250D03*
X0191843Y0045300D03*
X0191793Y0045350D03*
X0191793Y0045400D03*
X0191793Y0045450D03*
X0191793Y0045500D03*
X0191743Y0045550D03*
X0191743Y0045600D03*
X0191693Y0045650D03*
X0191693Y0045700D03*
X0191643Y0045750D03*
X0191643Y0045800D03*
X0191593Y0045850D03*
X0191593Y0045900D03*
X0191543Y0045950D03*
X0191543Y0046000D03*
X0191493Y0046050D03*
X0191493Y0046100D03*
X0191493Y0046150D03*
X0191393Y0046200D03*
X0191443Y0046250D03*
X0191343Y0046300D03*
X0191293Y0046400D03*
X0191293Y0046450D03*
X0191243Y0046500D03*
X0191243Y0046550D03*
X0191193Y0046600D03*
X0191193Y0046650D03*
X0191193Y0046700D03*
X0191143Y0046750D03*
X0191143Y0046800D03*
X0191093Y0046850D03*
X0191093Y0046900D03*
X0191043Y0046950D03*
X0191043Y0047000D03*
X0190993Y0047050D03*
X0190993Y0047100D03*
X0190943Y0047150D03*
X0190943Y0047200D03*
X0190943Y0047250D03*
X0190893Y0047300D03*
X0190893Y0047350D03*
X0190793Y0047400D03*
X0190743Y0047500D03*
X0190743Y0047550D03*
X0190693Y0047600D03*
X0190693Y0047650D03*
X0190643Y0047700D03*
X0190643Y0047750D03*
X0190643Y0047800D03*
X0190593Y0047850D03*
X0190593Y0047900D03*
X0190543Y0047950D03*
X0190543Y0048000D03*
X0190493Y0048050D03*
X0190493Y0048100D03*
X0190443Y0048150D03*
X0190443Y0048200D03*
X0190393Y0048250D03*
X0190393Y0048300D03*
X0190393Y0048350D03*
X0190343Y0048400D03*
X0190343Y0048450D03*
X0190243Y0048500D03*
X0190193Y0048600D03*
X0190193Y0048650D03*
X0190143Y0048700D03*
X0190143Y0048750D03*
X0190093Y0048800D03*
X0190093Y0048850D03*
X0190043Y0048950D03*
X0190043Y0049000D03*
X0189993Y0049050D03*
X0189993Y0049100D03*
X0189943Y0049150D03*
X0189943Y0049200D03*
X0189893Y0049250D03*
X0189893Y0049300D03*
X0189843Y0049350D03*
X0189843Y0049400D03*
X0189793Y0049450D03*
X0189793Y0049500D03*
X0189793Y0049550D03*
X0189743Y0049650D03*
X0189643Y0049700D03*
X0189593Y0049800D03*
X0189593Y0049850D03*
X0189543Y0049900D03*
X0189543Y0049950D03*
X0189493Y0050000D03*
X0189493Y0050050D03*
X0189493Y0050100D03*
X0189443Y0050150D03*
X0189443Y0050200D03*
X0189393Y0050250D03*
X0189393Y0050300D03*
X0189343Y0050350D03*
X0189343Y0050400D03*
X0189293Y0050450D03*
X0189293Y0050500D03*
X0189243Y0050550D03*
X0189243Y0050600D03*
X0189243Y0050650D03*
X0189193Y0050700D03*
X0189193Y0050750D03*
X0189093Y0050800D03*
X0189043Y0050900D03*
X0189043Y0050950D03*
X0188993Y0051000D03*
X0188993Y0051050D03*
X0188943Y0051100D03*
X0188943Y0051150D03*
X0188943Y0051200D03*
X0188893Y0051250D03*
X0188893Y0051300D03*
X0188843Y0051350D03*
X0188843Y0051400D03*
X0183243Y0052000D03*
X0183193Y0052100D03*
X0183143Y0052150D03*
X0183093Y0052250D03*
X0183043Y0052400D03*
X0182993Y0052450D03*
X0182993Y0052500D03*
X0182843Y0052650D03*
X0182743Y0052800D03*
X0182693Y0052950D03*
X0182643Y0053050D03*
X0182593Y0053150D03*
X0182543Y0053200D03*
X0182493Y0053300D03*
X0182443Y0053400D03*
X0182243Y0053700D03*
X0182193Y0053800D03*
X0182143Y0053850D03*
X0182143Y0053900D03*
X0182093Y0053950D03*
X0182043Y0054000D03*
X0182043Y0054050D03*
X0182043Y0054100D03*
X0181993Y0054150D03*
X0181943Y0054250D03*
X0181893Y0054350D03*
X0181843Y0054450D03*
X0181693Y0054650D03*
X0181643Y0054750D03*
X0181593Y0054800D03*
X0181543Y0054900D03*
X0181493Y0055000D03*
X0181443Y0055100D03*
X0181443Y0055150D03*
X0181393Y0055200D03*
X0193393Y0046000D03*
X0193393Y0045950D03*
X0193343Y0045900D03*
X0193343Y0045850D03*
X0193293Y0045800D03*
X0193293Y0045750D03*
X0193243Y0045700D03*
X0193243Y0045650D03*
X0193193Y0045600D03*
X0193193Y0045550D03*
X0193043Y0045350D03*
X0192993Y0045250D03*
X0192993Y0045200D03*
X0192943Y0045150D03*
X0192943Y0045100D03*
X0192893Y0045050D03*
X0192893Y0045000D03*
X0192843Y0044950D03*
X0192843Y0044900D03*
X0192843Y0044850D03*
X0192793Y0044800D03*
X0192793Y0044750D03*
X0193443Y0046050D03*
X0193443Y0046100D03*
X0193443Y0046150D03*
X0193493Y0046200D03*
X0193493Y0046250D03*
X0193543Y0046300D03*
X0193543Y0046350D03*
X0193593Y0046400D03*
X0193593Y0046450D03*
X0193643Y0046550D03*
X0193743Y0046600D03*
X0193743Y0046650D03*
X0193793Y0046750D03*
X0193793Y0046800D03*
X0193843Y0046850D03*
X0193843Y0046900D03*
X0193893Y0046950D03*
X0193893Y0047000D03*
X0193943Y0047050D03*
X0193943Y0047100D03*
X0193993Y0047150D03*
X0193993Y0047200D03*
X0193993Y0047250D03*
X0194043Y0047300D03*
X0194043Y0047350D03*
X0194093Y0047400D03*
X0194093Y0047450D03*
X0194143Y0047500D03*
X0194143Y0047550D03*
X0194193Y0047650D03*
X0194293Y0047700D03*
X0194293Y0047750D03*
X0194343Y0047850D03*
X0194343Y0047900D03*
X0194393Y0047950D03*
X0194393Y0048000D03*
X0194443Y0048050D03*
X0194443Y0048100D03*
X0194493Y0048150D03*
X0194493Y0048200D03*
X0194543Y0048250D03*
X0194543Y0048300D03*
X0194543Y0048350D03*
X0194593Y0048400D03*
X0194593Y0048450D03*
X0194643Y0048500D03*
X0194643Y0048550D03*
X0194693Y0048600D03*
X0194693Y0048650D03*
X0194743Y0048750D03*
X0194893Y0048950D03*
X0194943Y0049050D03*
X0194943Y0049100D03*
X0194993Y0049150D03*
X0194993Y0049200D03*
X0195043Y0049250D03*
X0195043Y0049300D03*
X0195093Y0049350D03*
X0195093Y0049400D03*
X0195143Y0049450D03*
X0195143Y0049500D03*
X0195143Y0049550D03*
X0195193Y0049600D03*
X0195193Y0049650D03*
X0195243Y0049700D03*
X0195243Y0049750D03*
X0195343Y0049950D03*
X0195443Y0050000D03*
X0195443Y0050050D03*
X0195493Y0050150D03*
X0195493Y0050200D03*
X0195543Y0050300D03*
X0195593Y0050400D03*
X0195643Y0050450D03*
X0195643Y0050500D03*
X0195693Y0050600D03*
X0195693Y0050650D03*
X0195743Y0050750D03*
X0195793Y0050800D03*
X0195793Y0050850D03*
X0195843Y0050950D03*
X0195893Y0051050D03*
X0195993Y0051150D03*
X0196043Y0051250D03*
X0196043Y0051300D03*
X0196093Y0051400D03*
X0201593Y0051950D03*
X0201693Y0052000D03*
X0201793Y0052150D03*
X0201843Y0052250D03*
X0201893Y0052400D03*
X0201943Y0052500D03*
X0201993Y0052550D03*
X0201993Y0052600D03*
X0202043Y0052650D03*
X0202093Y0052750D03*
X0202143Y0052850D03*
X0202143Y0052900D03*
X0202243Y0052950D03*
X0202293Y0053050D03*
X0202343Y0053150D03*
X0202393Y0053200D03*
X0202393Y0053250D03*
X0202443Y0053300D03*
X0202493Y0053400D03*
X0202493Y0053450D03*
X0202543Y0053550D03*
X0202593Y0053600D03*
X0202643Y0053700D03*
X0202693Y0053800D03*
X0202743Y0053900D03*
X0202843Y0053950D03*
X0202893Y0054100D03*
X0202943Y0054200D03*
X0202993Y0054250D03*
X0202993Y0054300D03*
X0203043Y0054350D03*
X0203093Y0054450D03*
X0203143Y0054500D03*
X0203193Y0054650D03*
X0203243Y0054750D03*
X0203293Y0054850D03*
X0203393Y0054900D03*
X0203443Y0055000D03*
X0203493Y0055100D03*
X0203493Y0055150D03*
X0203543Y0055200D03*
D17*
X0203468Y0055050D03*
X0203368Y0054950D03*
X0203218Y0054700D03*
X0203168Y0054600D03*
X0203168Y0054550D03*
X0203068Y0054400D03*
X0202918Y0054150D03*
X0202868Y0054050D03*
X0202868Y0054000D03*
X0202768Y0053850D03*
X0202668Y0053750D03*
X0202618Y0053650D03*
X0202518Y0053500D03*
X0202468Y0053350D03*
X0202318Y0053100D03*
X0202118Y0052800D03*
X0202068Y0052700D03*
X0201918Y0052450D03*
X0201868Y0052350D03*
X0201868Y0052300D03*
X0201818Y0052200D03*
X0201718Y0052100D03*
X0195968Y0051200D03*
X0195818Y0050900D03*
X0195418Y0050100D03*
X0195368Y0049900D03*
X0195318Y0049850D03*
X0194868Y0049000D03*
X0194868Y0048900D03*
X0194818Y0048800D03*
X0194768Y0048700D03*
X0194268Y0049400D03*
X0194268Y0047800D03*
X0194218Y0047600D03*
X0193718Y0046700D03*
X0193668Y0046500D03*
X0193118Y0045500D03*
X0193118Y0045400D03*
X0193068Y0045300D03*
X0192068Y0044950D03*
X0192068Y0044900D03*
X0191918Y0045200D03*
X0192418Y0044150D03*
X0191368Y0046350D03*
X0190818Y0047450D03*
X0190268Y0048550D03*
X0190068Y0048900D03*
X0190618Y0049400D03*
X0189718Y0049600D03*
X0189668Y0049750D03*
X0189118Y0050850D03*
X0183268Y0051950D03*
X0183218Y0052050D03*
X0183118Y0052200D03*
X0183068Y0052300D03*
X0183068Y0052350D03*
X0182918Y0052550D03*
X0182818Y0052750D03*
X0182718Y0052850D03*
X0182718Y0052900D03*
X0182668Y0053000D03*
X0182618Y0053100D03*
X0182518Y0053250D03*
X0182468Y0053350D03*
X0182418Y0053450D03*
X0182368Y0053500D03*
X0182218Y0053750D03*
X0181968Y0054200D03*
X0181918Y0054300D03*
X0181868Y0054400D03*
X0181768Y0054500D03*
X0181568Y0054850D03*
X0181518Y0054950D03*
X0181468Y0055050D03*
D18*
X0190618Y0049500D03*
X0190618Y0049450D03*
X0194218Y0049450D03*
X0194218Y0049500D03*
X0192418Y0044250D03*
X0192468Y0044200D03*
D19*
X0192468Y0044300D03*
D20*
X0192443Y0044350D03*
X0192443Y0044400D03*
X0194193Y0049550D03*
D21*
X0190718Y0049550D03*
X0192468Y0044450D03*
D22*
X0192443Y0044500D03*
D23*
X0192468Y0044550D03*
X0194118Y0049600D03*
D24*
X0190793Y0049600D03*
X0192443Y0044600D03*
D25*
X0192468Y0044650D03*
X0192468Y0044700D03*
D26*
X0191943Y0045150D03*
X0195893Y0051000D03*
X0201693Y0052050D03*
X0202243Y0053000D03*
X0203293Y0054800D03*
X0182893Y0052600D03*
X0182843Y0052700D03*
X0182343Y0053550D03*
X0182293Y0053650D03*
X0181743Y0054550D03*
X0181743Y0054600D03*
X0181693Y0054700D03*
D27*
X0182318Y0053600D03*
X0193118Y0045450D03*
X0194818Y0048850D03*
X0195268Y0049800D03*
X0195518Y0050250D03*
X0195568Y0050350D03*
X0195668Y0050550D03*
X0195718Y0050700D03*
X0196068Y0051350D03*
D28*
X0195543Y0051500D03*
X0194193Y0048850D03*
X0190893Y0049000D03*
X0190743Y0048850D03*
X0190693Y0048800D03*
X0203393Y0055400D03*
D29*
X0203393Y0055350D03*
X0194143Y0048900D03*
X0193943Y0049050D03*
X0193843Y0049100D03*
X0192443Y0049450D03*
X0192443Y0049500D03*
X0191443Y0049250D03*
X0191193Y0049150D03*
X0191093Y0049100D03*
X0190993Y0049050D03*
X0190793Y0048900D03*
X0190493Y0049200D03*
X0181493Y0055350D03*
D30*
X0190543Y0049250D03*
X0193093Y0049350D03*
X0194343Y0049300D03*
X0194393Y0049250D03*
D31*
X0193468Y0049250D03*
D32*
X0194293Y0049350D03*
X0190543Y0049300D03*
D33*
X0191618Y0049300D03*
X0191818Y0049350D03*
X0193318Y0049300D03*
X0203468Y0055300D03*
X0181468Y0055300D03*
D34*
X0181443Y0055250D03*
X0190593Y0049350D03*
X0195943Y0051100D03*
X0203493Y0055250D03*
D35*
X0192493Y0049400D03*
D36*
X0194043Y0049650D03*
X0190843Y0049650D03*
D37*
X0190943Y0049700D03*
X0193993Y0049700D03*
D38*
X0193843Y0049750D03*
X0191043Y0049750D03*
D39*
X0191043Y0049800D03*
X0193793Y0049800D03*
D40*
X0193818Y0049900D03*
X0191068Y0049900D03*
X0191068Y0049850D03*
D41*
X0193793Y0049850D03*
X0193843Y0049950D03*
D42*
X0191068Y0049950D03*
X0191068Y0050000D03*
D43*
X0191018Y0050100D03*
X0193818Y0050100D03*
X0193818Y0050050D03*
X0193818Y0050000D03*
D44*
X0191043Y0050050D03*
D45*
X0190993Y0050150D03*
X0193843Y0050150D03*
D46*
X0193818Y0050200D03*
X0191018Y0050200D03*
D47*
X0190993Y0050250D03*
X0190993Y0050300D03*
X0193843Y0050300D03*
X0193843Y0050250D03*
D48*
X0190968Y0050350D03*
D49*
X0190993Y0050400D03*
X0193843Y0050400D03*
X0193843Y0050350D03*
D50*
X0193868Y0050500D03*
X0190968Y0050450D03*
D51*
X0193893Y0050450D03*
D52*
X0191018Y0050500D03*
X0190968Y0050550D03*
X0190968Y0050600D03*
X0190968Y0050650D03*
D53*
X0190943Y0050700D03*
X0193893Y0050650D03*
X0193893Y0050600D03*
X0193893Y0050550D03*
D54*
X0193918Y0050700D03*
X0193918Y0050750D03*
D55*
X0190993Y0050750D03*
X0190993Y0050800D03*
D56*
X0190968Y0050850D03*
X0190968Y0050900D03*
X0193918Y0050850D03*
X0193918Y0050800D03*
D57*
X0193943Y0050900D03*
D58*
X0193918Y0050950D03*
X0190968Y0050950D03*
D59*
X0190968Y0051000D03*
D60*
X0193943Y0051000D03*
D61*
X0192443Y0051050D03*
X0186093Y0051550D03*
X0186043Y0051650D03*
X0186043Y0051700D03*
X0186043Y0051750D03*
X0198893Y0051800D03*
X0198893Y0051850D03*
D62*
X0192418Y0051200D03*
X0192418Y0051100D03*
D63*
X0192443Y0051150D03*
X0185993Y0051900D03*
D64*
X0192418Y0051300D03*
X0192418Y0051250D03*
D65*
X0192418Y0051350D03*
X0192418Y0051400D03*
D66*
X0186168Y0051450D03*
X0186168Y0051500D03*
X0186118Y0051600D03*
X0198768Y0051500D03*
X0198768Y0051450D03*
X0198818Y0051600D03*
X0198868Y0051650D03*
X0198868Y0051700D03*
X0198868Y0051750D03*
D67*
X0192418Y0051450D03*
D68*
X0198793Y0051550D03*
D69*
X0198918Y0051900D03*
X0186018Y0051850D03*
X0186018Y0051800D03*
D70*
X0192468Y0051850D03*
D71*
X0252668Y0032750D03*
X0252668Y0080498D03*
D72*
X0252668Y0033050D03*
D73*
X0252668Y0033350D03*
D74*
X0252668Y0033651D03*
X0252668Y0079597D03*
D75*
X0255068Y0063981D03*
X0252668Y0033951D03*
D76*
X0252668Y0034252D03*
D77*
X0252668Y0034552D03*
X0257768Y0073591D03*
X0257468Y0073891D03*
X0252668Y0078696D03*
D78*
X0252668Y0034852D03*
D79*
X0252668Y0035152D03*
D80*
X0252668Y0035453D03*
X0252668Y0077795D03*
D81*
X0252668Y0077495D03*
X0252668Y0035753D03*
D82*
X0252668Y0036053D03*
D83*
X0252668Y0036353D03*
D84*
X0252668Y0036654D03*
X0252668Y0076594D03*
D85*
X0252668Y0036954D03*
D86*
X0252668Y0037254D03*
D87*
X0252668Y0037555D03*
X0252668Y0075693D03*
D88*
X0252668Y0037855D03*
D89*
X0252668Y0038155D03*
D90*
X0252668Y0038456D03*
X0252668Y0074792D03*
D91*
X0252668Y0074492D03*
X0252668Y0038756D03*
D92*
X0252663Y0039056D03*
D93*
X0247708Y0039356D03*
X0270838Y0060377D03*
X0247108Y0073290D03*
D94*
X0257768Y0039356D03*
D95*
X0261078Y0042660D03*
X0247258Y0039657D03*
X0245458Y0041459D03*
X0245158Y0041759D03*
X0244858Y0042059D03*
X0243058Y0043861D03*
X0242458Y0044462D03*
X0242158Y0044762D03*
X0241858Y0045062D03*
X0271588Y0059477D03*
D96*
X0259423Y0040858D03*
X0259123Y0040558D03*
X0258523Y0039957D03*
X0258223Y0039657D03*
X0239303Y0047465D03*
X0239003Y0047765D03*
X0238703Y0048065D03*
X0238103Y0048666D03*
D97*
X0237798Y0048966D03*
X0237198Y0049567D03*
X0236898Y0049867D03*
X0236298Y0050468D03*
X0235998Y0050768D03*
X0235698Y0051068D03*
X0235098Y0051669D03*
X0234798Y0051969D03*
X0234198Y0052570D03*
X0233898Y0052870D03*
X0232998Y0058576D03*
X0233298Y0058876D03*
X0239908Y0046864D03*
X0240208Y0046564D03*
X0240808Y0045963D03*
X0241108Y0045663D03*
X0243208Y0043561D03*
X0243808Y0042960D03*
X0244108Y0042660D03*
X0245908Y0040858D03*
X0246208Y0040558D03*
X0246808Y0039957D03*
X0260028Y0041459D03*
X0260328Y0041759D03*
X0260628Y0042059D03*
X0272338Y0058576D03*
X0272038Y0058876D03*
D98*
X0260928Y0042359D03*
X0246508Y0040257D03*
X0244408Y0042359D03*
X0243508Y0043260D03*
X0240508Y0046263D03*
X0236598Y0050167D03*
X0235398Y0051368D03*
D99*
X0238403Y0048365D03*
X0239603Y0047164D03*
X0258823Y0040257D03*
D100*
X0245758Y0041159D03*
X0233448Y0059177D03*
X0271888Y0059177D03*
D101*
X0259723Y0041159D03*
D102*
X0261078Y0042960D03*
X0270688Y0060678D03*
X0270388Y0060978D03*
X0269788Y0061579D03*
X0269488Y0061879D03*
X0268278Y0063080D03*
X0267678Y0063681D03*
X0267378Y0063981D03*
X0266778Y0064582D03*
X0266478Y0064882D03*
X0265878Y0065483D03*
X0265578Y0065783D03*
X0265278Y0066083D03*
X0264678Y0066684D03*
X0264378Y0066984D03*
X0263778Y0067585D03*
X0263478Y0067885D03*
X0262878Y0068486D03*
X0262578Y0068786D03*
X0262278Y0069086D03*
X0261678Y0069687D03*
X0261378Y0069987D03*
X0260778Y0070588D03*
X0260478Y0070888D03*
X0259878Y0071489D03*
X0259578Y0071789D03*
X0247858Y0073891D03*
X0246658Y0072690D03*
X0246058Y0072089D03*
X0245758Y0071789D03*
X0245458Y0071489D03*
X0244858Y0070888D03*
X0244558Y0070588D03*
X0243958Y0069987D03*
X0243658Y0069687D03*
X0243058Y0069086D03*
X0242758Y0068786D03*
X0242458Y0068486D03*
X0241858Y0067885D03*
X0241558Y0067585D03*
X0240958Y0066984D03*
X0240658Y0066684D03*
X0240058Y0066083D03*
X0239758Y0065783D03*
X0239458Y0065483D03*
X0237948Y0063981D03*
X0237648Y0063681D03*
X0237048Y0063080D03*
X0236748Y0062780D03*
X0236448Y0062480D03*
X0235848Y0061879D03*
X0235548Y0061579D03*
X0234948Y0060978D03*
X0234648Y0060678D03*
D103*
X0261078Y0043260D03*
D104*
X0261078Y0043561D03*
D105*
X0261078Y0043861D03*
D106*
X0242758Y0044161D03*
D107*
X0261078Y0044161D03*
D108*
X0261078Y0044462D03*
D109*
X0257023Y0044762D03*
X0256723Y0045062D03*
X0256123Y0045663D03*
X0251313Y0050468D03*
X0251013Y0050768D03*
X0250713Y0051068D03*
X0250113Y0051669D03*
X0249813Y0051969D03*
X0249213Y0052570D03*
D110*
X0232998Y0054071D03*
X0232398Y0057675D03*
X0232698Y0057975D03*
X0263628Y0044762D03*
X0263928Y0045062D03*
X0264528Y0045663D03*
X0264828Y0045963D03*
X0265428Y0046564D03*
X0265728Y0046864D03*
X0266328Y0047465D03*
X0266628Y0047765D03*
X0266928Y0048065D03*
X0272638Y0057975D03*
D111*
X0241408Y0045362D03*
X0237498Y0049266D03*
X0234498Y0052270D03*
D112*
X0249513Y0052270D03*
X0256423Y0045362D03*
D113*
X0264228Y0045362D03*
D114*
X0255818Y0045963D03*
X0255218Y0046564D03*
X0254918Y0046864D03*
X0254318Y0047465D03*
X0254018Y0047765D03*
X0253718Y0048065D03*
X0253118Y0048666D03*
X0252818Y0048966D03*
X0252218Y0049567D03*
X0251918Y0049867D03*
D115*
X0251618Y0050167D03*
X0253418Y0048365D03*
X0254618Y0047164D03*
X0255518Y0046263D03*
D116*
X0265128Y0046263D03*
X0266028Y0047164D03*
D117*
X0267078Y0048365D03*
X0232848Y0054371D03*
X0232248Y0057374D03*
D118*
X0231948Y0056774D03*
X0231948Y0055873D03*
X0231948Y0055573D03*
X0267078Y0048666D03*
X0273088Y0056774D03*
D119*
X0267083Y0048966D03*
D120*
X0252518Y0049266D03*
D121*
X0267083Y0049266D03*
D122*
X0266933Y0049567D03*
X0266633Y0049867D03*
X0260923Y0055573D03*
X0260623Y0055873D03*
X0260023Y0056474D03*
X0259723Y0056774D03*
X0259423Y0057074D03*
D123*
X0262128Y0054371D03*
X0263328Y0053170D03*
X0265128Y0051368D03*
X0266328Y0050167D03*
D124*
X0266028Y0050468D03*
X0265728Y0050768D03*
X0265428Y0051068D03*
X0264828Y0051669D03*
X0264528Y0051969D03*
X0263928Y0052570D03*
X0263628Y0052870D03*
X0263028Y0053471D03*
X0262728Y0053771D03*
X0262428Y0054071D03*
X0261828Y0054672D03*
X0261528Y0054972D03*
X0273838Y0055573D03*
X0245908Y0058576D03*
D125*
X0250413Y0051368D03*
D126*
X0264228Y0052270D03*
D127*
X0274593Y0052270D03*
D128*
X0274593Y0052570D03*
D129*
X0247863Y0052870D03*
D130*
X0243358Y0055573D03*
X0243358Y0055873D03*
X0243358Y0056474D03*
X0243358Y0056774D03*
X0274588Y0052870D03*
D131*
X0272488Y0058275D03*
X0233748Y0053170D03*
X0232848Y0058275D03*
D132*
X0247413Y0053170D03*
D133*
X0243508Y0055272D03*
X0274438Y0053170D03*
D134*
X0233448Y0053471D03*
X0233148Y0053771D03*
D135*
X0232398Y0054972D03*
X0232098Y0057074D03*
X0246508Y0054071D03*
X0246808Y0053771D03*
X0247108Y0053471D03*
X0273238Y0057074D03*
D136*
X0274438Y0053471D03*
X0244108Y0057675D03*
D137*
X0274288Y0053771D03*
D138*
X0274288Y0054071D03*
D139*
X0272938Y0057374D03*
X0246208Y0054371D03*
D140*
X0274138Y0054371D03*
D141*
X0272788Y0057675D03*
X0232548Y0054672D03*
D142*
X0243658Y0054972D03*
X0243958Y0054672D03*
D143*
X0247863Y0054672D03*
X0247563Y0057675D03*
X0257773Y0059777D03*
X0257473Y0063681D03*
D144*
X0274288Y0054672D03*
D145*
X0257923Y0060077D03*
X0257923Y0063080D03*
X0251913Y0063080D03*
X0252213Y0059777D03*
X0245913Y0059477D03*
X0248013Y0054972D03*
D146*
X0245908Y0058876D03*
X0274138Y0054972D03*
D147*
X0232248Y0055272D03*
D148*
X0247863Y0057374D03*
X0248163Y0055272D03*
X0251763Y0060377D03*
X0258073Y0060377D03*
X0258373Y0061278D03*
X0258373Y0062179D03*
D149*
X0259123Y0057374D03*
X0261223Y0055272D03*
D150*
X0273988Y0055272D03*
D151*
X0251613Y0060978D03*
X0251613Y0061579D03*
X0251613Y0061879D03*
X0248313Y0056774D03*
X0248313Y0056474D03*
X0248313Y0055873D03*
X0248313Y0055573D03*
D152*
X0273688Y0055873D03*
D153*
X0231798Y0056173D03*
D154*
X0243358Y0056173D03*
D155*
X0248313Y0056173D03*
D156*
X0260323Y0056173D03*
D157*
X0273388Y0056173D03*
D158*
X0273238Y0056474D03*
X0231798Y0056474D03*
D159*
X0243508Y0057074D03*
D160*
X0248163Y0057074D03*
X0252063Y0060077D03*
X0251763Y0060678D03*
X0251763Y0062480D03*
X0251763Y0062780D03*
X0258073Y0062780D03*
X0258373Y0062480D03*
X0258373Y0061879D03*
X0258373Y0061579D03*
X0258373Y0060978D03*
X0258373Y0060678D03*
D161*
X0243658Y0057374D03*
D162*
X0254768Y0057374D03*
D163*
X0257168Y0057675D03*
X0252668Y0078996D03*
D164*
X0245758Y0057975D03*
D165*
X0255818Y0058876D03*
X0256118Y0058576D03*
X0256718Y0057975D03*
D166*
X0245908Y0058275D03*
D167*
X0256418Y0058275D03*
D168*
X0245913Y0059177D03*
D169*
X0255518Y0059177D03*
D170*
X0271138Y0060077D03*
X0271438Y0059777D03*
X0247408Y0073591D03*
X0246808Y0072990D03*
X0234198Y0060077D03*
X0233898Y0059777D03*
X0233598Y0059477D03*
D171*
X0252518Y0059477D03*
D172*
X0257773Y0059477D03*
D173*
X0266178Y0065182D03*
X0267078Y0064281D03*
X0270088Y0061278D03*
X0264078Y0067284D03*
X0263178Y0068185D03*
X0261978Y0069386D03*
X0260178Y0071188D03*
X0246358Y0072389D03*
X0245158Y0071188D03*
X0243358Y0069386D03*
X0242158Y0068185D03*
X0241258Y0067284D03*
X0238248Y0064281D03*
X0236148Y0062179D03*
X0235248Y0061278D03*
X0234348Y0060377D03*
D174*
X0251613Y0061278D03*
X0251613Y0062179D03*
D175*
X0239153Y0065182D03*
X0258973Y0072389D03*
X0269183Y0062179D03*
D176*
X0268883Y0062480D03*
X0268583Y0062780D03*
X0259273Y0072089D03*
X0258673Y0072690D03*
X0258373Y0072990D03*
X0238853Y0064882D03*
X0238553Y0064582D03*
D177*
X0237348Y0063380D03*
X0240358Y0066384D03*
X0244258Y0070288D03*
X0261078Y0070288D03*
X0264978Y0066384D03*
X0267978Y0063380D03*
D178*
X0252213Y0063380D03*
D179*
X0257773Y0063380D03*
D180*
X0252368Y0063681D03*
D181*
X0254918Y0064281D03*
D182*
X0254918Y0064582D03*
D183*
X0254918Y0064882D03*
D184*
X0254918Y0065182D03*
D185*
X0255068Y0065483D03*
D186*
X0255068Y0065783D03*
D187*
X0255073Y0066083D03*
D188*
X0258068Y0073290D03*
D189*
X0252663Y0074191D03*
D190*
X0252668Y0075092D03*
D191*
X0252668Y0075392D03*
D192*
X0252668Y0075993D03*
D193*
X0252668Y0076293D03*
D194*
X0252668Y0076894D03*
D195*
X0252668Y0077195D03*
D196*
X0252668Y0078095D03*
D197*
X0252668Y0078395D03*
D198*
X0252668Y0079296D03*
D199*
X0252518Y0079897D03*
D200*
X0252668Y0080197D03*
M02*
