%
M48
M72
T01C0.0120
T02C0.0390
T03C0.0394
T04C0.0866
T05C0.0935
T06C0.1102
T07C0.1260
%
T01
X2579Y20425
X1679Y19325
X1679Y17725
X4129Y16506
X5179Y16175
X5879Y16525
X5879Y17225
X5179Y17575
X5879Y17925
X5879Y18625
X6579Y18625
X9679Y17125
X9979Y16625
X9679Y16025
X8579Y15325
X9729Y14941
X7879Y14125
X6979Y13425
X6979Y12725
X5879Y14125
X6079Y14425
X5179Y14475
X5179Y15125
X5179Y15575
X4129Y14144
X1679Y11525
X1279Y10725
X1279Y9825
X2379Y7125
X7151Y5225
X7601Y5225
X8379Y5225
X9279Y5125
X7763Y6275
X7251Y4175
X11379Y6925
X14185Y8025
X15179Y7925
X15979Y7425
X17492Y8875
X18129Y8875
X17079Y9825
X18437Y10125
X23629Y9850
X24004Y12800
X21979Y13725
X20929Y15175
X21229Y15475
X19529Y16325
X18529Y15325
X18179Y15825
X17807Y15325
X19079Y15025
X15129Y17625
X12179Y16125
X12179Y15325
X11979Y18125
X11979Y18425
X8451Y16475
X13379Y9499
X16979Y2025
X25479Y16725
X25179Y16725
X24879Y16725
T02
X23629Y12325
X24029Y10325
X23229Y10325
T03
X10279Y20325
X11279Y20325
X12279Y20325
X13279Y20325
X14279Y20325
X15279Y20325
X16279Y20325
X17279Y20325
X18879Y20325
X19879Y20325
X20879Y20325
X21879Y20325
X22879Y20325
X23879Y20325
X24879Y20325
X25879Y20325
X25929Y12325
X26929Y12325
X26929Y11325
X25929Y11325
X25929Y10325
X26929Y10325
X25879Y1325
X24879Y1325
X23879Y1325
X22879Y1325
X21879Y1325
X20879Y1325
X18879Y1325
X17879Y1325
X16879Y1325
X15879Y1325
X14879Y1325
X13879Y1325
T04
X4456Y1735
X2979Y3625
T05
X22629Y12325
X24629Y12325
X24629Y11075
X22629Y11075
T06
X8379Y20325
X26879Y14325
X26879Y3325
X8379Y1325
T07
X5440Y3625
M30
