G75*
%MOIN*%
%OFA0B0*%
%FSLAX25Y25*%
%IPPOS*%
%LPD*%
%AMOC8*
5,1,8,0,0,1.08239X$1,22.5*
%
%ADD10C,0.01000*%
%ADD11C,0.00000*%
%ADD12R,0.03543X0.02362*%
%ADD13R,0.03543X0.06299*%
%ADD14R,0.02362X0.03543*%
%ADD15R,0.04134X0.02559*%
%ADD16C,0.03100*%
%ADD17R,0.01575X0.05512*%
%ADD18R,0.05512X0.01575*%
%ADD19R,0.08661X0.05512*%
%ADD20R,0.09449X0.05512*%
%ADD21R,0.04331X0.04921*%
%ADD22C,0.05906*%
%ADD23R,0.02756X0.01181*%
%ADD24R,0.02756X0.03937*%
%ADD25C,0.04331*%
%ADD26R,0.12661X0.12661*%
%ADD27R,0.16598X0.16598*%
%ADD28R,0.03543X0.01378*%
%ADD29R,0.08268X0.08268*%
%ADD30R,0.01378X0.03543*%
%ADD31R,0.03937X0.05512*%
%ADD32R,0.09449X0.06496*%
%ADD33C,0.01378*%
%ADD34R,0.05906X0.15748*%
%ADD35R,0.05906X0.03937*%
%ADD36R,0.06299X0.09843*%
%ADD37R,0.15748X0.05906*%
%ADD38R,0.03937X0.05906*%
%ADD39R,0.06299X0.03543*%
%ADD40R,0.05118X0.02756*%
%ADD41C,0.02400*%
%ADD42C,0.00600*%
%ADD43C,0.00500*%
%ADD44C,0.01400*%
%ADD45C,0.01600*%
%ADD46C,0.01200*%
%ADD47C,0.03200*%
D10*
X0008793Y0007187D02*
X0008793Y0209313D01*
X0008795Y0209437D01*
X0008801Y0209560D01*
X0008810Y0209684D01*
X0008824Y0209806D01*
X0008841Y0209929D01*
X0008863Y0210051D01*
X0008888Y0210172D01*
X0008917Y0210292D01*
X0008949Y0210411D01*
X0008986Y0210530D01*
X0009026Y0210647D01*
X0009069Y0210762D01*
X0009117Y0210877D01*
X0009168Y0210989D01*
X0009222Y0211100D01*
X0009280Y0211210D01*
X0009341Y0211317D01*
X0009406Y0211423D01*
X0009474Y0211526D01*
X0009545Y0211627D01*
X0009619Y0211726D01*
X0009696Y0211823D01*
X0009777Y0211917D01*
X0009860Y0212008D01*
X0009946Y0212097D01*
X0010035Y0212183D01*
X0010126Y0212266D01*
X0010220Y0212347D01*
X0010317Y0212424D01*
X0010416Y0212498D01*
X0010517Y0212569D01*
X0010620Y0212637D01*
X0010726Y0212702D01*
X0010833Y0212763D01*
X0010943Y0212821D01*
X0011054Y0212875D01*
X0011166Y0212926D01*
X0011281Y0212974D01*
X0011396Y0213017D01*
X0011513Y0213057D01*
X0011632Y0213094D01*
X0011751Y0213126D01*
X0011871Y0213155D01*
X0011992Y0213180D01*
X0012114Y0213202D01*
X0012237Y0213219D01*
X0012359Y0213233D01*
X0012483Y0213242D01*
X0012606Y0213248D01*
X0012730Y0213250D01*
X0263793Y0213250D01*
X0268793Y0208250D01*
X0268793Y0163250D01*
X0278793Y0153250D01*
X0278793Y0023250D01*
X0268793Y0013250D01*
X0268793Y0007187D01*
X0268791Y0007063D01*
X0268785Y0006940D01*
X0268776Y0006816D01*
X0268762Y0006694D01*
X0268745Y0006571D01*
X0268723Y0006449D01*
X0268698Y0006328D01*
X0268669Y0006208D01*
X0268637Y0006089D01*
X0268600Y0005970D01*
X0268560Y0005853D01*
X0268517Y0005738D01*
X0268469Y0005623D01*
X0268418Y0005511D01*
X0268364Y0005400D01*
X0268306Y0005290D01*
X0268245Y0005183D01*
X0268180Y0005077D01*
X0268112Y0004974D01*
X0268041Y0004873D01*
X0267967Y0004774D01*
X0267890Y0004677D01*
X0267809Y0004583D01*
X0267726Y0004492D01*
X0267640Y0004403D01*
X0267551Y0004317D01*
X0267460Y0004234D01*
X0267366Y0004153D01*
X0267269Y0004076D01*
X0267170Y0004002D01*
X0267069Y0003931D01*
X0266966Y0003863D01*
X0266860Y0003798D01*
X0266753Y0003737D01*
X0266643Y0003679D01*
X0266532Y0003625D01*
X0266420Y0003574D01*
X0266305Y0003526D01*
X0266190Y0003483D01*
X0266073Y0003443D01*
X0265954Y0003406D01*
X0265835Y0003374D01*
X0265715Y0003345D01*
X0265594Y0003320D01*
X0265472Y0003298D01*
X0265349Y0003281D01*
X0265227Y0003267D01*
X0265103Y0003258D01*
X0264980Y0003252D01*
X0264856Y0003250D01*
X0012730Y0003250D01*
X0012606Y0003252D01*
X0012483Y0003258D01*
X0012359Y0003267D01*
X0012237Y0003281D01*
X0012114Y0003298D01*
X0011992Y0003320D01*
X0011871Y0003345D01*
X0011751Y0003374D01*
X0011632Y0003406D01*
X0011513Y0003443D01*
X0011396Y0003483D01*
X0011281Y0003526D01*
X0011166Y0003574D01*
X0011054Y0003625D01*
X0010943Y0003679D01*
X0010833Y0003737D01*
X0010726Y0003798D01*
X0010620Y0003863D01*
X0010517Y0003931D01*
X0010416Y0004002D01*
X0010317Y0004076D01*
X0010220Y0004153D01*
X0010126Y0004234D01*
X0010035Y0004317D01*
X0009946Y0004403D01*
X0009860Y0004492D01*
X0009777Y0004583D01*
X0009696Y0004677D01*
X0009619Y0004774D01*
X0009545Y0004873D01*
X0009474Y0004974D01*
X0009406Y0005077D01*
X0009341Y0005183D01*
X0009280Y0005290D01*
X0009222Y0005400D01*
X0009168Y0005511D01*
X0009117Y0005623D01*
X0009069Y0005738D01*
X0009026Y0005853D01*
X0008986Y0005970D01*
X0008949Y0006089D01*
X0008917Y0006208D01*
X0008888Y0006328D01*
X0008863Y0006449D01*
X0008841Y0006571D01*
X0008824Y0006694D01*
X0008810Y0006816D01*
X0008801Y0006940D01*
X0008795Y0007063D01*
X0008793Y0007187D01*
X0066793Y0043250D02*
X0066793Y0063250D01*
X0064793Y0063161D02*
X0025927Y0063161D01*
X0025927Y0064159D02*
X0064793Y0064159D01*
X0064793Y0065158D02*
X0025927Y0065158D01*
X0025927Y0065436D02*
X0025346Y0066017D01*
X0025346Y0069650D01*
X0026730Y0069650D01*
X0026730Y0067686D01*
X0027316Y0067100D01*
X0031688Y0067100D01*
X0032274Y0067686D01*
X0032274Y0074814D01*
X0031688Y0075400D01*
X0027316Y0075400D01*
X0026730Y0074814D01*
X0026730Y0072850D01*
X0025305Y0072850D01*
X0024705Y0073450D01*
X0022882Y0073450D01*
X0022793Y0073361D01*
X0022793Y0084250D01*
X0012793Y0084250D01*
X0012793Y0094250D01*
X0022793Y0094250D01*
X0022793Y0122250D01*
X0064793Y0122250D01*
X0064793Y0058250D01*
X0022793Y0058250D01*
X0022793Y0060478D01*
X0025341Y0060478D01*
X0025927Y0061064D01*
X0025927Y0065436D01*
X0025346Y0066156D02*
X0064793Y0066156D01*
X0064793Y0067155D02*
X0031742Y0067155D01*
X0032274Y0068153D02*
X0064793Y0068153D01*
X0064793Y0069152D02*
X0032274Y0069152D01*
X0032274Y0070150D02*
X0064793Y0070150D01*
X0064793Y0071149D02*
X0032274Y0071149D01*
X0032274Y0072147D02*
X0064793Y0072147D01*
X0064793Y0073146D02*
X0032274Y0073146D01*
X0032274Y0074144D02*
X0064793Y0074144D01*
X0064793Y0075143D02*
X0031945Y0075143D01*
X0027059Y0075143D02*
X0022793Y0075143D01*
X0022793Y0076141D02*
X0064793Y0076141D01*
X0064793Y0077140D02*
X0022793Y0077140D01*
X0022793Y0078138D02*
X0064793Y0078138D01*
X0064793Y0079137D02*
X0022793Y0079137D01*
X0022793Y0080135D02*
X0039785Y0080135D01*
X0039715Y0080176D02*
X0040057Y0079978D01*
X0040438Y0079876D01*
X0043089Y0079876D01*
X0043089Y0088750D01*
X0044089Y0088750D01*
X0044089Y0089750D01*
X0048041Y0089750D01*
X0048041Y0097321D01*
X0047939Y0097703D01*
X0047742Y0098045D01*
X0047462Y0098324D01*
X0047120Y0098522D01*
X0046739Y0098624D01*
X0044089Y0098624D01*
X0044089Y0089750D01*
X0043089Y0089750D01*
X0043089Y0098624D01*
X0040438Y0098624D01*
X0040057Y0098522D01*
X0039715Y0098324D01*
X0039436Y0098045D01*
X0039238Y0097703D01*
X0039136Y0097321D01*
X0039136Y0089750D01*
X0043089Y0089750D01*
X0043089Y0088750D01*
X0039136Y0088750D01*
X0039136Y0081178D01*
X0039238Y0080797D01*
X0039436Y0080455D01*
X0039715Y0080176D01*
X0039148Y0081134D02*
X0022793Y0081134D01*
X0022793Y0082132D02*
X0039136Y0082132D01*
X0039136Y0083131D02*
X0022793Y0083131D01*
X0022793Y0084129D02*
X0039136Y0084129D01*
X0039136Y0085128D02*
X0012793Y0085128D01*
X0012793Y0086126D02*
X0014079Y0086126D01*
X0014124Y0086081D02*
X0014466Y0085884D01*
X0014848Y0085781D01*
X0017514Y0085781D01*
X0017514Y0088766D01*
X0018482Y0088766D01*
X0018482Y0085781D01*
X0021148Y0085781D01*
X0021530Y0085884D01*
X0021872Y0086081D01*
X0022151Y0086360D01*
X0022349Y0086703D01*
X0022451Y0087084D01*
X0022451Y0088766D01*
X0018482Y0088766D01*
X0018482Y0089734D01*
X0017514Y0089734D01*
X0017514Y0088766D01*
X0013545Y0088766D01*
X0013545Y0087084D01*
X0013648Y0086703D01*
X0013845Y0086360D01*
X0014124Y0086081D01*
X0013545Y0087125D02*
X0012793Y0087125D01*
X0012793Y0088123D02*
X0013545Y0088123D01*
X0012793Y0089122D02*
X0017514Y0089122D01*
X0017514Y0089734D02*
X0013545Y0089734D01*
X0013545Y0091416D01*
X0013648Y0091797D01*
X0013845Y0092140D01*
X0014124Y0092419D01*
X0014466Y0092616D01*
X0014848Y0092718D01*
X0017514Y0092718D01*
X0017514Y0089734D01*
X0017514Y0090120D02*
X0018482Y0090120D01*
X0018482Y0089734D02*
X0018482Y0092718D01*
X0021148Y0092718D01*
X0021530Y0092616D01*
X0021872Y0092419D01*
X0022151Y0092140D01*
X0022349Y0091797D01*
X0022451Y0091416D01*
X0022451Y0089734D01*
X0018482Y0089734D01*
X0018482Y0089122D02*
X0043089Y0089122D01*
X0043089Y0090120D02*
X0044089Y0090120D01*
X0044089Y0089122D02*
X0064793Y0089122D01*
X0064793Y0090120D02*
X0048041Y0090120D01*
X0048041Y0091119D02*
X0064793Y0091119D01*
X0064793Y0092118D02*
X0048041Y0092118D01*
X0048041Y0093116D02*
X0064793Y0093116D01*
X0064793Y0094115D02*
X0048041Y0094115D01*
X0048041Y0095113D02*
X0064793Y0095113D01*
X0064793Y0096112D02*
X0048041Y0096112D01*
X0048041Y0097110D02*
X0064793Y0097110D01*
X0064793Y0098109D02*
X0047678Y0098109D01*
X0044089Y0098109D02*
X0043089Y0098109D01*
X0043089Y0097110D02*
X0044089Y0097110D01*
X0044089Y0096112D02*
X0043089Y0096112D01*
X0043089Y0095113D02*
X0044089Y0095113D01*
X0044089Y0094115D02*
X0043089Y0094115D01*
X0043089Y0093116D02*
X0044089Y0093116D01*
X0044089Y0092118D02*
X0043089Y0092118D01*
X0043089Y0091119D02*
X0044089Y0091119D01*
X0044089Y0088750D02*
X0048041Y0088750D01*
X0048041Y0081178D01*
X0047939Y0080797D01*
X0047742Y0080455D01*
X0047462Y0080176D01*
X0047120Y0079978D01*
X0046739Y0079876D01*
X0044089Y0079876D01*
X0044089Y0088750D01*
X0044089Y0088123D02*
X0043089Y0088123D01*
X0043089Y0087125D02*
X0044089Y0087125D01*
X0044089Y0086126D02*
X0043089Y0086126D01*
X0043089Y0085128D02*
X0044089Y0085128D01*
X0044089Y0084129D02*
X0043089Y0084129D01*
X0043089Y0083131D02*
X0044089Y0083131D01*
X0044089Y0082132D02*
X0043089Y0082132D01*
X0043089Y0081134D02*
X0044089Y0081134D01*
X0044089Y0080135D02*
X0043089Y0080135D01*
X0047393Y0080135D02*
X0064793Y0080135D01*
X0064793Y0081134D02*
X0048029Y0081134D01*
X0048041Y0082132D02*
X0064793Y0082132D01*
X0064793Y0083131D02*
X0048041Y0083131D01*
X0048041Y0084129D02*
X0064793Y0084129D01*
X0064793Y0085128D02*
X0048041Y0085128D01*
X0048041Y0086126D02*
X0064793Y0086126D01*
X0064793Y0087125D02*
X0048041Y0087125D01*
X0048041Y0088123D02*
X0064793Y0088123D01*
X0064793Y0099107D02*
X0022793Y0099107D01*
X0022793Y0098109D02*
X0039499Y0098109D01*
X0039136Y0097110D02*
X0022793Y0097110D01*
X0022793Y0096112D02*
X0039136Y0096112D01*
X0039136Y0095113D02*
X0022793Y0095113D01*
X0022164Y0092118D02*
X0039136Y0092118D01*
X0039136Y0093116D02*
X0012793Y0093116D01*
X0012793Y0092118D02*
X0013832Y0092118D01*
X0013545Y0091119D02*
X0012793Y0091119D01*
X0012793Y0090120D02*
X0013545Y0090120D01*
X0012793Y0094115D02*
X0039136Y0094115D01*
X0039136Y0091119D02*
X0022451Y0091119D01*
X0022451Y0090120D02*
X0039136Y0090120D01*
X0039136Y0088123D02*
X0022451Y0088123D01*
X0022451Y0087125D02*
X0039136Y0087125D01*
X0039136Y0086126D02*
X0021917Y0086126D01*
X0018482Y0086126D02*
X0017514Y0086126D01*
X0017514Y0087125D02*
X0018482Y0087125D01*
X0018482Y0088123D02*
X0017514Y0088123D01*
X0017514Y0091119D02*
X0018482Y0091119D01*
X0018482Y0092118D02*
X0017514Y0092118D01*
X0022793Y0100106D02*
X0064793Y0100106D01*
X0064793Y0101104D02*
X0022793Y0101104D01*
X0022793Y0102103D02*
X0064793Y0102103D01*
X0064793Y0103101D02*
X0031396Y0103101D01*
X0031474Y0103179D02*
X0031671Y0103521D01*
X0031774Y0103903D01*
X0031774Y0106864D01*
X0028888Y0106864D01*
X0028888Y0107636D01*
X0031774Y0107636D01*
X0031774Y0110597D01*
X0031671Y0110979D01*
X0031474Y0111321D01*
X0031195Y0111600D01*
X0030853Y0111797D01*
X0030471Y0111900D01*
X0028888Y0111900D01*
X0028888Y0107636D01*
X0028116Y0107636D01*
X0028116Y0111900D01*
X0026533Y0111900D01*
X0026151Y0111797D01*
X0025809Y0111600D01*
X0025530Y0111321D01*
X0025333Y0110979D01*
X0025230Y0110597D01*
X0025230Y0107636D01*
X0028116Y0107636D01*
X0028116Y0106864D01*
X0028888Y0106864D01*
X0028888Y0102600D01*
X0030471Y0102600D01*
X0030853Y0102703D01*
X0031195Y0102900D01*
X0031474Y0103179D01*
X0031774Y0104100D02*
X0064793Y0104100D01*
X0064793Y0105098D02*
X0031774Y0105098D01*
X0031774Y0106097D02*
X0064793Y0106097D01*
X0064793Y0107095D02*
X0028888Y0107095D01*
X0028116Y0107095D02*
X0022793Y0107095D01*
X0022793Y0106097D02*
X0025230Y0106097D01*
X0025230Y0106864D02*
X0025230Y0103903D01*
X0025333Y0103521D01*
X0025530Y0103179D01*
X0025809Y0102900D01*
X0026151Y0102703D01*
X0026533Y0102600D01*
X0028116Y0102600D01*
X0028116Y0106864D01*
X0025230Y0106864D01*
X0025230Y0108094D02*
X0022793Y0108094D01*
X0022793Y0109092D02*
X0025230Y0109092D01*
X0025230Y0110091D02*
X0022793Y0110091D01*
X0022793Y0111089D02*
X0025396Y0111089D01*
X0025655Y0111978D02*
X0024367Y0111978D01*
X0023986Y0112081D01*
X0023644Y0112278D01*
X0023365Y0112557D01*
X0023167Y0112899D01*
X0023065Y0113281D01*
X0023065Y0115159D01*
X0025655Y0115159D01*
X0025655Y0115341D01*
X0023065Y0115341D01*
X0023065Y0117219D01*
X0023167Y0117601D01*
X0023365Y0117943D01*
X0023644Y0118222D01*
X0023986Y0118419D01*
X0024367Y0118522D01*
X0025655Y0118522D01*
X0025655Y0115341D01*
X0025837Y0115341D01*
X0028427Y0115341D01*
X0028427Y0117219D01*
X0028325Y0117601D01*
X0028127Y0117943D01*
X0027848Y0118222D01*
X0027506Y0118419D01*
X0027125Y0118522D01*
X0025837Y0118522D01*
X0025837Y0115341D01*
X0025837Y0115159D01*
X0028427Y0115159D01*
X0028427Y0113281D01*
X0028325Y0112899D01*
X0028127Y0112557D01*
X0027848Y0112278D01*
X0027506Y0112081D01*
X0027125Y0111978D01*
X0025837Y0111978D01*
X0025837Y0115159D01*
X0025655Y0115159D01*
X0025655Y0111978D01*
X0025655Y0112088D02*
X0025837Y0112088D01*
X0025837Y0113086D02*
X0025655Y0113086D01*
X0025655Y0114085D02*
X0025837Y0114085D01*
X0025837Y0115083D02*
X0025655Y0115083D01*
X0025655Y0116082D02*
X0025837Y0116082D01*
X0025837Y0117080D02*
X0025655Y0117080D01*
X0025655Y0118079D02*
X0025837Y0118079D01*
X0027991Y0118079D02*
X0064793Y0118079D01*
X0064793Y0119077D02*
X0022793Y0119077D01*
X0022793Y0118079D02*
X0023501Y0118079D01*
X0023065Y0117080D02*
X0022793Y0117080D01*
X0022793Y0116082D02*
X0023065Y0116082D01*
X0023065Y0115083D02*
X0022793Y0115083D01*
X0022793Y0114085D02*
X0023065Y0114085D01*
X0023117Y0113086D02*
X0022793Y0113086D01*
X0022793Y0112088D02*
X0023974Y0112088D01*
X0027519Y0112088D02*
X0064793Y0112088D01*
X0064793Y0113086D02*
X0028375Y0113086D01*
X0028427Y0114085D02*
X0064793Y0114085D01*
X0064793Y0115083D02*
X0028427Y0115083D01*
X0028427Y0116082D02*
X0064793Y0116082D01*
X0064793Y0117080D02*
X0028427Y0117080D01*
X0022793Y0120076D02*
X0064793Y0120076D01*
X0064793Y0121074D02*
X0022793Y0121074D01*
X0022793Y0122073D02*
X0064793Y0122073D01*
X0064793Y0111089D02*
X0031608Y0111089D01*
X0031774Y0110091D02*
X0064793Y0110091D01*
X0064793Y0109092D02*
X0031774Y0109092D01*
X0031774Y0108094D02*
X0064793Y0108094D01*
X0078793Y0123919D02*
X0105463Y0123919D01*
X0121793Y0140250D01*
X0121793Y0153250D01*
X0124793Y0157089D02*
X0111746Y0157089D01*
X0108793Y0154250D02*
X0108793Y0176250D01*
X0113793Y0181250D01*
X0119793Y0181250D01*
X0119793Y0184250D02*
X0105793Y0184250D01*
X0087073Y0165530D01*
X0087073Y0161124D01*
X0084514Y0161124D02*
X0084514Y0164750D01*
X0077919Y0157089D02*
X0066955Y0157089D01*
X0062793Y0161250D01*
X0062793Y0189250D01*
X0057793Y0194250D01*
X0054746Y0194250D01*
X0052793Y0198250D02*
X0072793Y0198250D01*
X0077793Y0193250D01*
X0121793Y0193250D01*
X0124793Y0190250D01*
X0124793Y0157089D01*
X0124793Y0141250D01*
X0156793Y0109250D01*
X0156793Y0096250D01*
X0171793Y0081250D01*
X0171793Y0020250D01*
X0169793Y0020250D01*
X0171793Y0020250D02*
X0191793Y0020250D01*
X0204793Y0007250D01*
X0261793Y0007250D01*
X0264793Y0010250D01*
X0264793Y0019250D01*
X0214793Y0069250D01*
X0214793Y0103250D01*
X0214793Y0115250D01*
X0206293Y0123750D01*
X0206293Y0124250D01*
X0211205Y0129162D01*
X0204667Y0132124D02*
X0248793Y0176250D01*
X0248793Y0203250D01*
X0238793Y0203250D02*
X0238793Y0169250D01*
X0204817Y0135274D01*
X0200510Y0135274D01*
X0200510Y0132124D02*
X0204667Y0132124D01*
X0204518Y0128974D02*
X0258793Y0183250D01*
X0258793Y0203250D01*
X0228793Y0203250D02*
X0228793Y0181250D01*
X0193817Y0146274D01*
X0193817Y0141967D01*
X0190667Y0141967D02*
X0190667Y0146124D01*
X0218793Y0174250D01*
X0218793Y0203250D01*
X0208793Y0203250D02*
X0196793Y0191250D01*
X0162414Y0191250D01*
X0146793Y0175630D01*
X0146793Y0149250D01*
X0160793Y0135250D01*
X0164793Y0135250D01*
X0164817Y0135274D01*
X0165077Y0135274D01*
X0165077Y0132124D02*
X0160919Y0132124D01*
X0144793Y0148250D01*
X0144793Y0176849D01*
X0161195Y0193250D01*
X0188793Y0193250D01*
X0198793Y0203250D01*
X0188793Y0203250D02*
X0180793Y0195250D01*
X0160598Y0195250D01*
X0142793Y0177446D01*
X0142793Y0147250D01*
X0161069Y0128974D01*
X0165077Y0128974D01*
X0165077Y0125825D02*
X0161219Y0125825D01*
X0140793Y0146250D01*
X0140793Y0178649D01*
X0159394Y0197250D01*
X0166793Y0197250D01*
X0172793Y0203250D01*
X0162793Y0203250D02*
X0138793Y0179250D01*
X0138793Y0145250D01*
X0161368Y0122675D01*
X0165077Y0122675D01*
X0165077Y0119526D02*
X0161518Y0119526D01*
X0136793Y0144250D01*
X0136793Y0187250D01*
X0152793Y0203250D01*
X0142793Y0203250D02*
X0134793Y0195250D01*
X0134793Y0143250D01*
X0161667Y0116376D01*
X0165077Y0116376D01*
X0165077Y0113226D02*
X0161817Y0113226D01*
X0132793Y0142250D01*
X0132793Y0203250D01*
X0130793Y0195250D02*
X0122793Y0203250D01*
X0114793Y0210750D01*
X0077793Y0210750D01*
X0069293Y0202250D01*
X0054746Y0202250D01*
X0051793Y0205250D02*
X0051793Y0199250D01*
X0052793Y0198250D01*
X0048841Y0194250D02*
X0043793Y0194250D01*
X0034793Y0185250D01*
X0030715Y0185250D01*
X0030715Y0193250D02*
X0034793Y0193250D01*
X0043793Y0202250D01*
X0048841Y0202250D01*
X0051793Y0205250D02*
X0050793Y0206250D01*
X0043793Y0206250D01*
X0037561Y0200018D01*
X0033963Y0200018D01*
X0025793Y0204250D02*
X0030026Y0208482D01*
X0033963Y0208482D01*
X0020872Y0193250D02*
X0016793Y0193250D01*
X0016793Y0185250D02*
X0020872Y0185250D01*
X0020872Y0177250D02*
X0016793Y0177250D01*
X0030715Y0177250D02*
X0034793Y0177250D01*
X0043793Y0186250D01*
X0048841Y0186250D01*
X0054746Y0186250D02*
X0058793Y0186250D01*
X0058793Y0179250D02*
X0054746Y0179250D01*
X0054746Y0172250D02*
X0058793Y0172250D01*
X0058793Y0165250D02*
X0054746Y0165250D01*
X0060841Y0148250D02*
X0060841Y0144250D01*
X0060793Y0144250D01*
X0058793Y0141250D02*
X0054746Y0141250D01*
X0066746Y0148250D02*
X0066746Y0149411D01*
X0077919Y0149411D01*
X0093667Y0149411D02*
X0097293Y0149411D01*
X0093667Y0154530D02*
X0102514Y0154530D01*
X0103793Y0153250D01*
X0107793Y0153250D01*
X0108793Y0154250D01*
X0105841Y0157089D02*
X0093667Y0157089D01*
X0121793Y0161250D02*
X0122793Y0162250D01*
X0122793Y0189250D01*
X0120793Y0191250D01*
X0102793Y0191250D01*
X0097793Y0186250D01*
X0065793Y0186250D01*
X0102793Y0203250D02*
X0108793Y0197250D01*
X0122793Y0197250D01*
X0128793Y0191250D01*
X0128793Y0140250D01*
X0158793Y0110250D01*
X0158793Y0097250D01*
X0170793Y0085250D01*
X0183793Y0085250D01*
X0185793Y0087250D01*
X0185793Y0094250D01*
X0184793Y0095250D01*
X0181793Y0095250D01*
X0181219Y0095825D01*
X0181219Y0106533D01*
X0181293Y0106459D01*
X0181293Y0098203D01*
X0184368Y0101250D02*
X0184368Y0106533D01*
X0190667Y0106533D02*
X0190667Y0102376D01*
X0202793Y0090250D01*
X0202793Y0063250D01*
X0208793Y0057250D01*
X0208793Y0013250D01*
X0218793Y0013250D02*
X0218793Y0050250D01*
X0204793Y0064250D01*
X0204793Y0091250D01*
X0193817Y0102226D01*
X0193817Y0106533D01*
X0200510Y0113226D02*
X0204817Y0113226D01*
X0206793Y0111250D01*
X0206793Y0065250D01*
X0228793Y0043250D01*
X0228793Y0013250D01*
X0238793Y0013250D02*
X0238793Y0036250D01*
X0208793Y0066250D01*
X0208793Y0112250D01*
X0204667Y0116376D01*
X0200510Y0116376D01*
X0200510Y0119526D02*
X0204518Y0119526D01*
X0210793Y0113250D01*
X0210793Y0067250D01*
X0248793Y0029250D01*
X0248793Y0013250D01*
X0258793Y0013250D02*
X0258793Y0022250D01*
X0212793Y0068250D01*
X0212793Y0114250D01*
X0204368Y0122675D01*
X0200510Y0122675D01*
X0200510Y0125825D02*
X0204219Y0125825D01*
X0206293Y0123750D01*
X0204518Y0128974D02*
X0200510Y0128974D01*
X0187518Y0141967D02*
X0187518Y0145974D01*
X0190793Y0149250D01*
X0190793Y0150250D01*
X0185293Y0150297D02*
X0184368Y0149372D01*
X0184368Y0141967D01*
X0181219Y0141967D02*
X0181219Y0147675D01*
X0181793Y0148250D01*
X0181793Y0158250D01*
X0181793Y0156203D01*
X0185293Y0156203D01*
X0181793Y0156203D02*
X0178069Y0156203D01*
X0171770Y0157333D02*
X0171770Y0141967D01*
X0174919Y0141967D02*
X0174919Y0168116D01*
X0174921Y0168276D01*
X0174927Y0168437D01*
X0174936Y0168597D01*
X0174950Y0168756D01*
X0174967Y0168916D01*
X0174989Y0169075D01*
X0175014Y0169233D01*
X0175043Y0169391D01*
X0175075Y0169548D01*
X0175112Y0169704D01*
X0175152Y0169859D01*
X0175196Y0170013D01*
X0175244Y0170166D01*
X0175295Y0170318D01*
X0175350Y0170468D01*
X0175409Y0170618D01*
X0175471Y0170765D01*
X0175537Y0170912D01*
X0175606Y0171056D01*
X0175679Y0171199D01*
X0175755Y0171340D01*
X0175835Y0171479D01*
X0175918Y0171616D01*
X0176004Y0171752D01*
X0176093Y0171885D01*
X0176186Y0172015D01*
X0176282Y0172144D01*
X0176381Y0172270D01*
X0176483Y0172394D01*
X0176587Y0172515D01*
X0176695Y0172634D01*
X0176806Y0172750D01*
X0176919Y0172863D01*
X0177035Y0172974D01*
X0177154Y0173082D01*
X0177275Y0173186D01*
X0177399Y0173288D01*
X0177525Y0173387D01*
X0177654Y0173483D01*
X0177784Y0173576D01*
X0177917Y0173665D01*
X0178053Y0173751D01*
X0178190Y0173834D01*
X0178329Y0173914D01*
X0178470Y0173990D01*
X0178613Y0174063D01*
X0178757Y0174132D01*
X0178904Y0174198D01*
X0179051Y0174260D01*
X0179201Y0174319D01*
X0179351Y0174374D01*
X0179503Y0174425D01*
X0179656Y0174473D01*
X0179810Y0174517D01*
X0179965Y0174557D01*
X0180121Y0174594D01*
X0180278Y0174626D01*
X0180436Y0174655D01*
X0180594Y0174680D01*
X0180753Y0174702D01*
X0180913Y0174719D01*
X0181072Y0174733D01*
X0181232Y0174742D01*
X0181393Y0174748D01*
X0181553Y0174750D01*
X0185695Y0174750D01*
X0185695Y0172703D01*
X0195293Y0172703D01*
X0195293Y0166797D02*
X0185301Y0166797D01*
X0185301Y0164750D01*
X0195293Y0163250D02*
X0195293Y0166797D01*
X0178069Y0150297D02*
X0178069Y0141967D01*
X0171770Y0157333D02*
X0171768Y0157512D01*
X0171761Y0157691D01*
X0171751Y0157870D01*
X0171735Y0158049D01*
X0171716Y0158227D01*
X0171692Y0158405D01*
X0171664Y0158582D01*
X0171632Y0158758D01*
X0171595Y0158933D01*
X0171554Y0159108D01*
X0171509Y0159282D01*
X0171460Y0159454D01*
X0171407Y0159625D01*
X0171350Y0159795D01*
X0171288Y0159963D01*
X0171222Y0160130D01*
X0171153Y0160295D01*
X0171079Y0160459D01*
X0171002Y0160620D01*
X0170920Y0160780D01*
X0170835Y0160938D01*
X0170746Y0161093D01*
X0170654Y0161247D01*
X0170557Y0161398D01*
X0170457Y0161546D01*
X0170353Y0161693D01*
X0170246Y0161836D01*
X0170136Y0161977D01*
X0170022Y0162116D01*
X0169905Y0162251D01*
X0169784Y0162384D01*
X0169661Y0162514D01*
X0169534Y0162641D01*
X0169404Y0162764D01*
X0169271Y0162885D01*
X0169136Y0163002D01*
X0168997Y0163116D01*
X0168856Y0163226D01*
X0168713Y0163333D01*
X0168566Y0163437D01*
X0168418Y0163537D01*
X0168267Y0163634D01*
X0168113Y0163726D01*
X0167958Y0163815D01*
X0167800Y0163900D01*
X0167640Y0163982D01*
X0167479Y0164059D01*
X0167315Y0164133D01*
X0167150Y0164202D01*
X0166983Y0164268D01*
X0166815Y0164330D01*
X0166645Y0164387D01*
X0166474Y0164440D01*
X0166302Y0164489D01*
X0166128Y0164534D01*
X0165953Y0164575D01*
X0165778Y0164612D01*
X0165602Y0164644D01*
X0165425Y0164672D01*
X0165247Y0164696D01*
X0165069Y0164715D01*
X0164890Y0164731D01*
X0164711Y0164741D01*
X0164532Y0164748D01*
X0164353Y0164750D01*
X0160892Y0164750D01*
X0160892Y0166797D01*
X0151293Y0166797D01*
X0151293Y0172703D02*
X0151293Y0176250D01*
X0151293Y0172703D02*
X0160892Y0172703D01*
X0160892Y0174750D01*
X0130793Y0195250D02*
X0130793Y0141250D01*
X0160793Y0111250D01*
X0160793Y0103250D01*
X0162793Y0101250D01*
X0170793Y0101250D01*
X0171770Y0102226D01*
X0171770Y0106533D01*
X0174919Y0106533D02*
X0174919Y0098203D01*
X0174919Y0092297D02*
X0174919Y0088750D01*
X0181293Y0088750D02*
X0181293Y0092297D01*
X0164793Y0067250D02*
X0164793Y0025250D01*
X0102793Y0025250D01*
X0102793Y0066930D01*
X0103107Y0066616D01*
X0107479Y0066616D01*
X0108065Y0067202D01*
X0108065Y0067250D01*
X0112093Y0067250D01*
X0112093Y0066313D01*
X0110229Y0066313D01*
X0109644Y0065727D01*
X0109644Y0061355D01*
X0110229Y0060770D01*
X0117357Y0060770D01*
X0117943Y0061355D01*
X0117943Y0065727D01*
X0117357Y0066313D01*
X0115493Y0066313D01*
X0115493Y0067250D01*
X0127793Y0067250D01*
X0127793Y0081250D01*
X0137793Y0081250D01*
X0137793Y0067250D01*
X0164793Y0067250D01*
X0164793Y0067155D02*
X0115493Y0067155D01*
X0117514Y0066156D02*
X0147398Y0066156D01*
X0147443Y0066234D02*
X0147246Y0065892D01*
X0147144Y0065510D01*
X0147144Y0063927D01*
X0151407Y0063927D01*
X0151407Y0063155D01*
X0152179Y0063155D01*
X0152179Y0060270D01*
X0155140Y0060270D01*
X0155522Y0060372D01*
X0155864Y0060569D01*
X0156143Y0060849D01*
X0156341Y0061191D01*
X0156443Y0061572D01*
X0156443Y0063155D01*
X0152179Y0063155D01*
X0152179Y0063927D01*
X0151407Y0063927D01*
X0151407Y0066813D01*
X0148446Y0066813D01*
X0148065Y0066711D01*
X0147723Y0066513D01*
X0147443Y0066234D01*
X0147144Y0065158D02*
X0117943Y0065158D01*
X0117943Y0064159D02*
X0147144Y0064159D01*
X0147144Y0063155D02*
X0147144Y0061572D01*
X0147246Y0061191D01*
X0147443Y0060849D01*
X0147723Y0060569D01*
X0148065Y0060372D01*
X0148446Y0060270D01*
X0151407Y0060270D01*
X0151407Y0063155D01*
X0147144Y0063155D01*
X0147144Y0062162D02*
X0117943Y0062162D01*
X0117943Y0063161D02*
X0151407Y0063161D01*
X0152179Y0063161D02*
X0156522Y0063161D01*
X0156522Y0062919D02*
X0156624Y0062537D01*
X0156821Y0062195D01*
X0157101Y0061916D01*
X0157443Y0061718D01*
X0157824Y0061616D01*
X0159703Y0061616D01*
X0159703Y0064207D01*
X0159884Y0064207D01*
X0159884Y0064388D01*
X0159703Y0064388D01*
X0159703Y0066978D01*
X0157824Y0066978D01*
X0157443Y0066876D01*
X0157101Y0066679D01*
X0156821Y0066399D01*
X0156624Y0066057D01*
X0156522Y0065676D01*
X0156522Y0064388D01*
X0159703Y0064388D01*
X0159703Y0064207D01*
X0156522Y0064207D01*
X0156522Y0062919D01*
X0156443Y0062162D02*
X0156854Y0062162D01*
X0156325Y0061164D02*
X0164793Y0061164D01*
X0164793Y0062162D02*
X0162732Y0062162D01*
X0162765Y0062195D02*
X0162963Y0062537D01*
X0163065Y0062919D01*
X0163065Y0064207D01*
X0159884Y0064207D01*
X0159884Y0061616D01*
X0161762Y0061616D01*
X0162144Y0061718D01*
X0162486Y0061916D01*
X0162765Y0062195D01*
X0163065Y0063161D02*
X0164793Y0063161D01*
X0164793Y0064159D02*
X0163065Y0064159D01*
X0163065Y0064388D02*
X0163065Y0065676D01*
X0162963Y0066057D01*
X0162765Y0066399D01*
X0162486Y0066679D01*
X0162144Y0066876D01*
X0161762Y0066978D01*
X0159884Y0066978D01*
X0159884Y0064388D01*
X0163065Y0064388D01*
X0163065Y0065158D02*
X0164793Y0065158D01*
X0164793Y0066156D02*
X0162906Y0066156D01*
X0159884Y0066156D02*
X0159703Y0066156D01*
X0159703Y0065158D02*
X0159884Y0065158D01*
X0159884Y0064159D02*
X0159703Y0064159D01*
X0159703Y0063161D02*
X0159884Y0063161D01*
X0159884Y0062162D02*
X0159703Y0062162D01*
X0156443Y0063927D02*
X0156443Y0065510D01*
X0156341Y0065892D01*
X0156143Y0066234D01*
X0155864Y0066513D01*
X0155522Y0066711D01*
X0155140Y0066813D01*
X0152179Y0066813D01*
X0152179Y0063927D01*
X0156443Y0063927D01*
X0156443Y0064159D02*
X0156522Y0064159D01*
X0156522Y0065158D02*
X0156443Y0065158D01*
X0156681Y0066156D02*
X0156188Y0066156D01*
X0152179Y0066156D02*
X0151407Y0066156D01*
X0151407Y0065158D02*
X0152179Y0065158D01*
X0152179Y0064159D02*
X0151407Y0064159D01*
X0151407Y0062162D02*
X0152179Y0062162D01*
X0152179Y0061164D02*
X0151407Y0061164D01*
X0147262Y0061164D02*
X0117751Y0061164D01*
X0109836Y0061164D02*
X0102793Y0061164D01*
X0102793Y0062162D02*
X0109644Y0062162D01*
X0109644Y0063161D02*
X0102793Y0063161D01*
X0102793Y0064159D02*
X0109644Y0064159D01*
X0109644Y0065158D02*
X0102793Y0065158D01*
X0102793Y0066156D02*
X0110073Y0066156D01*
X0112093Y0067155D02*
X0108018Y0067155D01*
X0102793Y0060165D02*
X0164793Y0060165D01*
X0164793Y0059167D02*
X0102793Y0059167D01*
X0102793Y0058168D02*
X0164793Y0058168D01*
X0164793Y0057170D02*
X0102793Y0057170D01*
X0102793Y0056171D02*
X0164793Y0056171D01*
X0164793Y0055173D02*
X0102793Y0055173D01*
X0102793Y0054174D02*
X0164793Y0054174D01*
X0164793Y0053176D02*
X0141956Y0053176D01*
X0141868Y0053328D02*
X0141588Y0053608D01*
X0141246Y0053805D01*
X0140865Y0053907D01*
X0133293Y0053907D01*
X0133293Y0049955D01*
X0132293Y0049955D01*
X0132293Y0048955D01*
X0123419Y0048955D01*
X0123419Y0046304D01*
X0123522Y0045923D01*
X0123719Y0045581D01*
X0123998Y0045302D01*
X0124340Y0045104D01*
X0124722Y0045002D01*
X0132293Y0045002D01*
X0132293Y0048955D01*
X0133293Y0048955D01*
X0133293Y0045002D01*
X0140865Y0045002D01*
X0141246Y0045104D01*
X0141588Y0045302D01*
X0141868Y0045581D01*
X0142065Y0045923D01*
X0142167Y0046304D01*
X0142167Y0048955D01*
X0133293Y0048955D01*
X0133293Y0049955D01*
X0142167Y0049955D01*
X0142167Y0052605D01*
X0142065Y0052986D01*
X0141868Y0053328D01*
X0142167Y0052177D02*
X0164793Y0052177D01*
X0164793Y0051179D02*
X0142167Y0051179D01*
X0142167Y0050180D02*
X0164793Y0050180D01*
X0164793Y0049182D02*
X0133293Y0049182D01*
X0133293Y0050180D02*
X0132293Y0050180D01*
X0132293Y0049955D02*
X0132293Y0053907D01*
X0124722Y0053907D01*
X0124340Y0053805D01*
X0123998Y0053608D01*
X0123719Y0053328D01*
X0123522Y0052986D01*
X0123419Y0052605D01*
X0123419Y0049955D01*
X0132293Y0049955D01*
X0132293Y0049182D02*
X0102793Y0049182D01*
X0102793Y0050180D02*
X0123419Y0050180D01*
X0123419Y0051179D02*
X0102793Y0051179D01*
X0102793Y0052177D02*
X0123419Y0052177D01*
X0123631Y0053176D02*
X0102793Y0053176D01*
X0102793Y0048183D02*
X0123419Y0048183D01*
X0123419Y0047184D02*
X0102793Y0047184D01*
X0102793Y0046186D02*
X0123451Y0046186D01*
X0124196Y0045187D02*
X0102793Y0045187D01*
X0102793Y0044189D02*
X0164793Y0044189D01*
X0164793Y0045187D02*
X0141391Y0045187D01*
X0142136Y0046186D02*
X0164793Y0046186D01*
X0164793Y0047184D02*
X0142167Y0047184D01*
X0142167Y0048183D02*
X0164793Y0048183D01*
X0164793Y0043190D02*
X0102793Y0043190D01*
X0102793Y0042192D02*
X0164793Y0042192D01*
X0164793Y0041193D02*
X0102793Y0041193D01*
X0102793Y0040195D02*
X0164793Y0040195D01*
X0164793Y0039196D02*
X0102793Y0039196D01*
X0102793Y0038198D02*
X0164793Y0038198D01*
X0164793Y0037199D02*
X0102793Y0037199D01*
X0102793Y0036201D02*
X0164793Y0036201D01*
X0164793Y0035202D02*
X0102793Y0035202D01*
X0102793Y0034204D02*
X0164793Y0034204D01*
X0164793Y0033205D02*
X0102793Y0033205D01*
X0102793Y0032207D02*
X0164793Y0032207D01*
X0164793Y0031208D02*
X0102793Y0031208D01*
X0102793Y0030210D02*
X0164793Y0030210D01*
X0164793Y0029211D02*
X0102793Y0029211D01*
X0102793Y0028213D02*
X0164793Y0028213D01*
X0164793Y0027214D02*
X0102793Y0027214D01*
X0102793Y0026216D02*
X0164793Y0026216D01*
X0133293Y0045187D02*
X0132293Y0045187D01*
X0132293Y0046186D02*
X0133293Y0046186D01*
X0133293Y0047184D02*
X0132293Y0047184D01*
X0132293Y0048183D02*
X0133293Y0048183D01*
X0133293Y0051179D02*
X0132293Y0051179D01*
X0132293Y0052177D02*
X0133293Y0052177D01*
X0133293Y0053176D02*
X0132293Y0053176D01*
X0127793Y0068153D02*
X0137793Y0068153D01*
X0137793Y0069152D02*
X0127793Y0069152D01*
X0127793Y0070150D02*
X0137793Y0070150D01*
X0137793Y0071149D02*
X0135939Y0071149D01*
X0135962Y0071171D02*
X0136160Y0071514D01*
X0136262Y0071895D01*
X0136262Y0074561D01*
X0133278Y0074561D01*
X0133278Y0075530D01*
X0132309Y0075530D01*
X0132309Y0079498D01*
X0130627Y0079498D01*
X0130246Y0079396D01*
X0129904Y0079198D01*
X0129625Y0078919D01*
X0129427Y0078577D01*
X0129325Y0078196D01*
X0129325Y0075530D01*
X0132309Y0075530D01*
X0132309Y0074561D01*
X0129325Y0074561D01*
X0129325Y0071895D01*
X0129427Y0071514D01*
X0129625Y0071171D01*
X0129904Y0070892D01*
X0130246Y0070695D01*
X0130627Y0070593D01*
X0132309Y0070593D01*
X0132309Y0074561D01*
X0133278Y0074561D01*
X0133278Y0070593D01*
X0134959Y0070593D01*
X0135341Y0070695D01*
X0135683Y0070892D01*
X0135962Y0071171D01*
X0136262Y0072147D02*
X0137793Y0072147D01*
X0137793Y0073146D02*
X0136262Y0073146D01*
X0136262Y0074144D02*
X0137793Y0074144D01*
X0137793Y0075143D02*
X0133278Y0075143D01*
X0133278Y0075530D02*
X0136262Y0075530D01*
X0136262Y0078196D01*
X0136160Y0078577D01*
X0135962Y0078919D01*
X0135683Y0079198D01*
X0135341Y0079396D01*
X0134959Y0079498D01*
X0133278Y0079498D01*
X0133278Y0075530D01*
X0133278Y0076141D02*
X0132309Y0076141D01*
X0132309Y0075143D02*
X0127793Y0075143D01*
X0127793Y0076141D02*
X0129325Y0076141D01*
X0129325Y0077140D02*
X0127793Y0077140D01*
X0127793Y0078138D02*
X0129325Y0078138D01*
X0129842Y0079137D02*
X0127793Y0079137D01*
X0127793Y0080135D02*
X0137793Y0080135D01*
X0137793Y0079137D02*
X0135744Y0079137D01*
X0136262Y0078138D02*
X0137793Y0078138D01*
X0137793Y0077140D02*
X0136262Y0077140D01*
X0136262Y0076141D02*
X0137793Y0076141D01*
X0133278Y0077140D02*
X0132309Y0077140D01*
X0132309Y0078138D02*
X0133278Y0078138D01*
X0133278Y0079137D02*
X0132309Y0079137D01*
X0127793Y0081134D02*
X0137793Y0081134D01*
X0133278Y0074144D02*
X0132309Y0074144D01*
X0132309Y0073146D02*
X0133278Y0073146D01*
X0133278Y0072147D02*
X0132309Y0072147D01*
X0132309Y0071149D02*
X0133278Y0071149D01*
X0129647Y0071149D02*
X0127793Y0071149D01*
X0127793Y0072147D02*
X0129325Y0072147D01*
X0129325Y0073146D02*
X0127793Y0073146D01*
X0127793Y0074144D02*
X0129325Y0074144D01*
X0075073Y0046443D02*
X0075073Y0041530D01*
X0075071Y0041436D01*
X0075065Y0041342D01*
X0075055Y0041248D01*
X0075042Y0041155D01*
X0075024Y0041062D01*
X0075003Y0040970D01*
X0074978Y0040879D01*
X0074949Y0040790D01*
X0074917Y0040701D01*
X0074881Y0040614D01*
X0074841Y0040529D01*
X0074798Y0040445D01*
X0074752Y0040363D01*
X0074702Y0040283D01*
X0074649Y0040205D01*
X0074592Y0040130D01*
X0074533Y0040056D01*
X0074470Y0039986D01*
X0074405Y0039918D01*
X0074337Y0039853D01*
X0074267Y0039790D01*
X0074193Y0039731D01*
X0074118Y0039674D01*
X0074040Y0039621D01*
X0073960Y0039571D01*
X0073878Y0039525D01*
X0073794Y0039482D01*
X0073709Y0039442D01*
X0073622Y0039406D01*
X0073533Y0039374D01*
X0073444Y0039345D01*
X0073353Y0039320D01*
X0073261Y0039299D01*
X0073168Y0039281D01*
X0073075Y0039268D01*
X0072981Y0039258D01*
X0072887Y0039252D01*
X0072793Y0039250D01*
X0070793Y0039250D01*
X0070667Y0039252D01*
X0070542Y0039258D01*
X0070417Y0039268D01*
X0070292Y0039282D01*
X0070167Y0039299D01*
X0070043Y0039321D01*
X0069920Y0039346D01*
X0069798Y0039376D01*
X0069677Y0039409D01*
X0069557Y0039446D01*
X0069438Y0039486D01*
X0069321Y0039531D01*
X0069204Y0039579D01*
X0069090Y0039631D01*
X0068977Y0039686D01*
X0068866Y0039745D01*
X0068757Y0039807D01*
X0068650Y0039873D01*
X0068545Y0039942D01*
X0068442Y0040014D01*
X0068341Y0040089D01*
X0068243Y0040168D01*
X0068148Y0040250D01*
X0068055Y0040334D01*
X0067965Y0040422D01*
X0067877Y0040512D01*
X0067793Y0040605D01*
X0067711Y0040700D01*
X0067632Y0040798D01*
X0067557Y0040899D01*
X0067485Y0041002D01*
X0067416Y0041107D01*
X0067350Y0041214D01*
X0067288Y0041323D01*
X0067229Y0041434D01*
X0067174Y0041547D01*
X0067122Y0041661D01*
X0067074Y0041778D01*
X0067029Y0041895D01*
X0066989Y0042014D01*
X0066952Y0042134D01*
X0066919Y0042255D01*
X0066889Y0042377D01*
X0066864Y0042500D01*
X0066842Y0042624D01*
X0066825Y0042749D01*
X0066811Y0042874D01*
X0066801Y0042999D01*
X0066795Y0043124D01*
X0066793Y0043250D01*
X0064793Y0059167D02*
X0022793Y0059167D01*
X0022793Y0060165D02*
X0064793Y0060165D01*
X0064793Y0061164D02*
X0025927Y0061164D01*
X0025927Y0062162D02*
X0064793Y0062162D01*
X0027262Y0067155D02*
X0025346Y0067155D01*
X0025346Y0068153D02*
X0026730Y0068153D01*
X0026730Y0069152D02*
X0025346Y0069152D01*
X0025009Y0073146D02*
X0026730Y0073146D01*
X0026730Y0074144D02*
X0022793Y0074144D01*
X0022793Y0103101D02*
X0025608Y0103101D01*
X0025230Y0104100D02*
X0022793Y0104100D01*
X0022793Y0105098D02*
X0025230Y0105098D01*
X0028116Y0105098D02*
X0028888Y0105098D01*
X0028888Y0104100D02*
X0028116Y0104100D01*
X0028116Y0103101D02*
X0028888Y0103101D01*
X0028888Y0106097D02*
X0028116Y0106097D01*
X0028116Y0108094D02*
X0028888Y0108094D01*
X0028888Y0109092D02*
X0028116Y0109092D01*
X0028116Y0110091D02*
X0028888Y0110091D01*
X0028888Y0111089D02*
X0028116Y0111089D01*
X0219628Y0120460D02*
X0219628Y0126085D01*
X0226793Y0133250D01*
X0243793Y0133250D01*
X0248793Y0138250D01*
X0248793Y0167250D01*
X0248793Y0169250D01*
X0249793Y0170250D01*
X0256793Y0170250D01*
X0257793Y0169250D01*
X0257793Y0143250D01*
X0274793Y0126250D01*
X0274793Y0111250D01*
X0271793Y0108250D01*
X0264293Y0108250D01*
X0259293Y0113250D01*
X0254293Y0118250D02*
X0253043Y0117000D01*
X0242543Y0117000D01*
X0238793Y0113250D01*
X0233793Y0113250D02*
X0230043Y0117000D01*
X0223088Y0117000D01*
X0219628Y0120460D01*
X0232543Y0119500D02*
X0232543Y0127250D01*
X0236043Y0130750D01*
X0251793Y0130750D01*
X0259293Y0123250D01*
X0252293Y0130250D01*
X0251793Y0130750D02*
X0251793Y0167250D01*
X0254793Y0167250D02*
X0254793Y0139500D01*
X0264293Y0130000D01*
X0264293Y0119750D01*
X0263293Y0118750D01*
X0263793Y0118750D01*
X0269293Y0113250D01*
X0263293Y0118750D02*
X0262793Y0118250D01*
X0254293Y0118250D01*
X0240043Y0119500D02*
X0240043Y0128000D01*
X0240043Y0119500D02*
X0238793Y0118250D01*
X0233793Y0118250D02*
X0232543Y0119500D01*
X0238793Y0108250D02*
X0236293Y0105750D01*
X0236293Y0098500D01*
D11*
X0230343Y0103250D02*
X0230345Y0103338D01*
X0230351Y0103426D01*
X0230361Y0103514D01*
X0230375Y0103601D01*
X0230393Y0103687D01*
X0230414Y0103772D01*
X0230440Y0103857D01*
X0230469Y0103940D01*
X0230502Y0104022D01*
X0230539Y0104102D01*
X0230579Y0104180D01*
X0230623Y0104257D01*
X0230670Y0104331D01*
X0230721Y0104403D01*
X0230774Y0104473D01*
X0230831Y0104541D01*
X0230891Y0104605D01*
X0230954Y0104667D01*
X0231019Y0104726D01*
X0231087Y0104782D01*
X0231158Y0104835D01*
X0231230Y0104885D01*
X0231305Y0104931D01*
X0231382Y0104974D01*
X0231461Y0105014D01*
X0231542Y0105049D01*
X0231624Y0105082D01*
X0231707Y0105110D01*
X0231792Y0105135D01*
X0231878Y0105155D01*
X0231964Y0105172D01*
X0232051Y0105185D01*
X0232139Y0105194D01*
X0232227Y0105199D01*
X0232315Y0105200D01*
X0232403Y0105197D01*
X0232491Y0105190D01*
X0232578Y0105179D01*
X0232665Y0105164D01*
X0232751Y0105145D01*
X0232837Y0105123D01*
X0232921Y0105096D01*
X0233003Y0105066D01*
X0233085Y0105032D01*
X0233165Y0104994D01*
X0233242Y0104953D01*
X0233318Y0104909D01*
X0233392Y0104861D01*
X0233464Y0104809D01*
X0233533Y0104755D01*
X0233600Y0104697D01*
X0233664Y0104637D01*
X0233725Y0104573D01*
X0233784Y0104507D01*
X0233839Y0104439D01*
X0233891Y0104367D01*
X0233940Y0104294D01*
X0233985Y0104219D01*
X0234027Y0104141D01*
X0234066Y0104062D01*
X0234101Y0103981D01*
X0234132Y0103898D01*
X0234159Y0103815D01*
X0234183Y0103730D01*
X0234203Y0103644D01*
X0234219Y0103557D01*
X0234231Y0103470D01*
X0234239Y0103382D01*
X0234243Y0103294D01*
X0234243Y0103206D01*
X0234239Y0103118D01*
X0234231Y0103030D01*
X0234219Y0102943D01*
X0234203Y0102856D01*
X0234183Y0102770D01*
X0234159Y0102685D01*
X0234132Y0102602D01*
X0234101Y0102519D01*
X0234066Y0102438D01*
X0234027Y0102359D01*
X0233985Y0102281D01*
X0233940Y0102206D01*
X0233891Y0102133D01*
X0233839Y0102061D01*
X0233784Y0101993D01*
X0233725Y0101927D01*
X0233664Y0101863D01*
X0233600Y0101803D01*
X0233533Y0101745D01*
X0233464Y0101691D01*
X0233392Y0101639D01*
X0233318Y0101591D01*
X0233242Y0101547D01*
X0233165Y0101506D01*
X0233085Y0101468D01*
X0233003Y0101434D01*
X0232921Y0101404D01*
X0232837Y0101377D01*
X0232751Y0101355D01*
X0232665Y0101336D01*
X0232578Y0101321D01*
X0232491Y0101310D01*
X0232403Y0101303D01*
X0232315Y0101300D01*
X0232227Y0101301D01*
X0232139Y0101306D01*
X0232051Y0101315D01*
X0231964Y0101328D01*
X0231878Y0101345D01*
X0231792Y0101365D01*
X0231707Y0101390D01*
X0231624Y0101418D01*
X0231542Y0101451D01*
X0231461Y0101486D01*
X0231382Y0101526D01*
X0231305Y0101569D01*
X0231230Y0101615D01*
X0231158Y0101665D01*
X0231087Y0101718D01*
X0231019Y0101774D01*
X0230954Y0101833D01*
X0230891Y0101895D01*
X0230831Y0101959D01*
X0230774Y0102027D01*
X0230721Y0102097D01*
X0230670Y0102169D01*
X0230623Y0102243D01*
X0230579Y0102320D01*
X0230539Y0102398D01*
X0230502Y0102478D01*
X0230469Y0102560D01*
X0230440Y0102643D01*
X0230414Y0102728D01*
X0230393Y0102813D01*
X0230375Y0102899D01*
X0230361Y0102986D01*
X0230351Y0103074D01*
X0230345Y0103162D01*
X0230343Y0103250D01*
X0221618Y0110750D02*
X0221620Y0110887D01*
X0221626Y0111023D01*
X0221636Y0111159D01*
X0221650Y0111295D01*
X0221668Y0111431D01*
X0221690Y0111566D01*
X0221715Y0111700D01*
X0221745Y0111833D01*
X0221779Y0111965D01*
X0221816Y0112097D01*
X0221857Y0112227D01*
X0221903Y0112356D01*
X0221951Y0112484D01*
X0222004Y0112610D01*
X0222060Y0112734D01*
X0222120Y0112857D01*
X0222183Y0112978D01*
X0222250Y0113097D01*
X0222320Y0113214D01*
X0222394Y0113330D01*
X0222471Y0113442D01*
X0222551Y0113553D01*
X0222635Y0113661D01*
X0222722Y0113767D01*
X0222811Y0113870D01*
X0222904Y0113970D01*
X0222999Y0114068D01*
X0223098Y0114163D01*
X0223199Y0114255D01*
X0223303Y0114343D01*
X0223409Y0114429D01*
X0223518Y0114512D01*
X0223629Y0114591D01*
X0223742Y0114668D01*
X0223858Y0114741D01*
X0223975Y0114810D01*
X0224095Y0114876D01*
X0224216Y0114938D01*
X0224340Y0114997D01*
X0224465Y0115053D01*
X0224591Y0115104D01*
X0224719Y0115152D01*
X0224848Y0115196D01*
X0224979Y0115237D01*
X0225111Y0115273D01*
X0225243Y0115306D01*
X0225377Y0115334D01*
X0225511Y0115359D01*
X0225646Y0115380D01*
X0225782Y0115397D01*
X0225918Y0115410D01*
X0226054Y0115419D01*
X0226191Y0115424D01*
X0226327Y0115425D01*
X0226464Y0115422D01*
X0226600Y0115415D01*
X0226736Y0115404D01*
X0226872Y0115389D01*
X0227007Y0115370D01*
X0227142Y0115347D01*
X0227276Y0115320D01*
X0227409Y0115290D01*
X0227541Y0115255D01*
X0227673Y0115217D01*
X0227802Y0115175D01*
X0227931Y0115129D01*
X0228058Y0115079D01*
X0228184Y0115025D01*
X0228308Y0114968D01*
X0228431Y0114908D01*
X0228551Y0114843D01*
X0228670Y0114776D01*
X0228786Y0114705D01*
X0228901Y0114630D01*
X0229013Y0114552D01*
X0229123Y0114471D01*
X0229231Y0114387D01*
X0229336Y0114299D01*
X0229438Y0114209D01*
X0229538Y0114116D01*
X0229635Y0114019D01*
X0229729Y0113920D01*
X0229820Y0113819D01*
X0229908Y0113714D01*
X0229993Y0113607D01*
X0230075Y0113498D01*
X0230154Y0113386D01*
X0230229Y0113272D01*
X0230301Y0113156D01*
X0230370Y0113038D01*
X0230435Y0112918D01*
X0230497Y0112796D01*
X0230555Y0112672D01*
X0230609Y0112547D01*
X0230660Y0112420D01*
X0230706Y0112292D01*
X0230750Y0112162D01*
X0230789Y0112031D01*
X0230825Y0111899D01*
X0230856Y0111766D01*
X0230884Y0111633D01*
X0230908Y0111498D01*
X0230928Y0111363D01*
X0230944Y0111227D01*
X0230956Y0111091D01*
X0230964Y0110955D01*
X0230968Y0110818D01*
X0230968Y0110682D01*
X0230964Y0110545D01*
X0230956Y0110409D01*
X0230944Y0110273D01*
X0230928Y0110137D01*
X0230908Y0110002D01*
X0230884Y0109867D01*
X0230856Y0109734D01*
X0230825Y0109601D01*
X0230789Y0109469D01*
X0230750Y0109338D01*
X0230706Y0109208D01*
X0230660Y0109080D01*
X0230609Y0108953D01*
X0230555Y0108828D01*
X0230497Y0108704D01*
X0230435Y0108582D01*
X0230370Y0108462D01*
X0230301Y0108344D01*
X0230229Y0108228D01*
X0230154Y0108114D01*
X0230075Y0108002D01*
X0229993Y0107893D01*
X0229908Y0107786D01*
X0229820Y0107681D01*
X0229729Y0107580D01*
X0229635Y0107481D01*
X0229538Y0107384D01*
X0229438Y0107291D01*
X0229336Y0107201D01*
X0229231Y0107113D01*
X0229123Y0107029D01*
X0229013Y0106948D01*
X0228901Y0106870D01*
X0228786Y0106795D01*
X0228670Y0106724D01*
X0228551Y0106657D01*
X0228431Y0106592D01*
X0228308Y0106532D01*
X0228184Y0106475D01*
X0228058Y0106421D01*
X0227931Y0106371D01*
X0227802Y0106325D01*
X0227673Y0106283D01*
X0227541Y0106245D01*
X0227409Y0106210D01*
X0227276Y0106180D01*
X0227142Y0106153D01*
X0227007Y0106130D01*
X0226872Y0106111D01*
X0226736Y0106096D01*
X0226600Y0106085D01*
X0226464Y0106078D01*
X0226327Y0106075D01*
X0226191Y0106076D01*
X0226054Y0106081D01*
X0225918Y0106090D01*
X0225782Y0106103D01*
X0225646Y0106120D01*
X0225511Y0106141D01*
X0225377Y0106166D01*
X0225243Y0106194D01*
X0225111Y0106227D01*
X0224979Y0106263D01*
X0224848Y0106304D01*
X0224719Y0106348D01*
X0224591Y0106396D01*
X0224465Y0106447D01*
X0224340Y0106503D01*
X0224216Y0106562D01*
X0224095Y0106624D01*
X0223975Y0106690D01*
X0223858Y0106759D01*
X0223742Y0106832D01*
X0223629Y0106909D01*
X0223518Y0106988D01*
X0223409Y0107071D01*
X0223303Y0107157D01*
X0223199Y0107245D01*
X0223098Y0107337D01*
X0222999Y0107432D01*
X0222904Y0107530D01*
X0222811Y0107630D01*
X0222722Y0107733D01*
X0222635Y0107839D01*
X0222551Y0107947D01*
X0222471Y0108058D01*
X0222394Y0108170D01*
X0222320Y0108286D01*
X0222250Y0108403D01*
X0222183Y0108522D01*
X0222120Y0108643D01*
X0222060Y0108766D01*
X0222004Y0108890D01*
X0221951Y0109016D01*
X0221903Y0109144D01*
X0221857Y0109273D01*
X0221816Y0109403D01*
X0221779Y0109535D01*
X0221745Y0109667D01*
X0221715Y0109800D01*
X0221690Y0109934D01*
X0221668Y0110069D01*
X0221650Y0110205D01*
X0221636Y0110341D01*
X0221626Y0110477D01*
X0221620Y0110613D01*
X0221618Y0110750D01*
X0221618Y0123250D02*
X0221620Y0123387D01*
X0221626Y0123523D01*
X0221636Y0123659D01*
X0221650Y0123795D01*
X0221668Y0123931D01*
X0221690Y0124066D01*
X0221715Y0124200D01*
X0221745Y0124333D01*
X0221779Y0124465D01*
X0221816Y0124597D01*
X0221857Y0124727D01*
X0221903Y0124856D01*
X0221951Y0124984D01*
X0222004Y0125110D01*
X0222060Y0125234D01*
X0222120Y0125357D01*
X0222183Y0125478D01*
X0222250Y0125597D01*
X0222320Y0125714D01*
X0222394Y0125830D01*
X0222471Y0125942D01*
X0222551Y0126053D01*
X0222635Y0126161D01*
X0222722Y0126267D01*
X0222811Y0126370D01*
X0222904Y0126470D01*
X0222999Y0126568D01*
X0223098Y0126663D01*
X0223199Y0126755D01*
X0223303Y0126843D01*
X0223409Y0126929D01*
X0223518Y0127012D01*
X0223629Y0127091D01*
X0223742Y0127168D01*
X0223858Y0127241D01*
X0223975Y0127310D01*
X0224095Y0127376D01*
X0224216Y0127438D01*
X0224340Y0127497D01*
X0224465Y0127553D01*
X0224591Y0127604D01*
X0224719Y0127652D01*
X0224848Y0127696D01*
X0224979Y0127737D01*
X0225111Y0127773D01*
X0225243Y0127806D01*
X0225377Y0127834D01*
X0225511Y0127859D01*
X0225646Y0127880D01*
X0225782Y0127897D01*
X0225918Y0127910D01*
X0226054Y0127919D01*
X0226191Y0127924D01*
X0226327Y0127925D01*
X0226464Y0127922D01*
X0226600Y0127915D01*
X0226736Y0127904D01*
X0226872Y0127889D01*
X0227007Y0127870D01*
X0227142Y0127847D01*
X0227276Y0127820D01*
X0227409Y0127790D01*
X0227541Y0127755D01*
X0227673Y0127717D01*
X0227802Y0127675D01*
X0227931Y0127629D01*
X0228058Y0127579D01*
X0228184Y0127525D01*
X0228308Y0127468D01*
X0228431Y0127408D01*
X0228551Y0127343D01*
X0228670Y0127276D01*
X0228786Y0127205D01*
X0228901Y0127130D01*
X0229013Y0127052D01*
X0229123Y0126971D01*
X0229231Y0126887D01*
X0229336Y0126799D01*
X0229438Y0126709D01*
X0229538Y0126616D01*
X0229635Y0126519D01*
X0229729Y0126420D01*
X0229820Y0126319D01*
X0229908Y0126214D01*
X0229993Y0126107D01*
X0230075Y0125998D01*
X0230154Y0125886D01*
X0230229Y0125772D01*
X0230301Y0125656D01*
X0230370Y0125538D01*
X0230435Y0125418D01*
X0230497Y0125296D01*
X0230555Y0125172D01*
X0230609Y0125047D01*
X0230660Y0124920D01*
X0230706Y0124792D01*
X0230750Y0124662D01*
X0230789Y0124531D01*
X0230825Y0124399D01*
X0230856Y0124266D01*
X0230884Y0124133D01*
X0230908Y0123998D01*
X0230928Y0123863D01*
X0230944Y0123727D01*
X0230956Y0123591D01*
X0230964Y0123455D01*
X0230968Y0123318D01*
X0230968Y0123182D01*
X0230964Y0123045D01*
X0230956Y0122909D01*
X0230944Y0122773D01*
X0230928Y0122637D01*
X0230908Y0122502D01*
X0230884Y0122367D01*
X0230856Y0122234D01*
X0230825Y0122101D01*
X0230789Y0121969D01*
X0230750Y0121838D01*
X0230706Y0121708D01*
X0230660Y0121580D01*
X0230609Y0121453D01*
X0230555Y0121328D01*
X0230497Y0121204D01*
X0230435Y0121082D01*
X0230370Y0120962D01*
X0230301Y0120844D01*
X0230229Y0120728D01*
X0230154Y0120614D01*
X0230075Y0120502D01*
X0229993Y0120393D01*
X0229908Y0120286D01*
X0229820Y0120181D01*
X0229729Y0120080D01*
X0229635Y0119981D01*
X0229538Y0119884D01*
X0229438Y0119791D01*
X0229336Y0119701D01*
X0229231Y0119613D01*
X0229123Y0119529D01*
X0229013Y0119448D01*
X0228901Y0119370D01*
X0228786Y0119295D01*
X0228670Y0119224D01*
X0228551Y0119157D01*
X0228431Y0119092D01*
X0228308Y0119032D01*
X0228184Y0118975D01*
X0228058Y0118921D01*
X0227931Y0118871D01*
X0227802Y0118825D01*
X0227673Y0118783D01*
X0227541Y0118745D01*
X0227409Y0118710D01*
X0227276Y0118680D01*
X0227142Y0118653D01*
X0227007Y0118630D01*
X0226872Y0118611D01*
X0226736Y0118596D01*
X0226600Y0118585D01*
X0226464Y0118578D01*
X0226327Y0118575D01*
X0226191Y0118576D01*
X0226054Y0118581D01*
X0225918Y0118590D01*
X0225782Y0118603D01*
X0225646Y0118620D01*
X0225511Y0118641D01*
X0225377Y0118666D01*
X0225243Y0118694D01*
X0225111Y0118727D01*
X0224979Y0118763D01*
X0224848Y0118804D01*
X0224719Y0118848D01*
X0224591Y0118896D01*
X0224465Y0118947D01*
X0224340Y0119003D01*
X0224216Y0119062D01*
X0224095Y0119124D01*
X0223975Y0119190D01*
X0223858Y0119259D01*
X0223742Y0119332D01*
X0223629Y0119409D01*
X0223518Y0119488D01*
X0223409Y0119571D01*
X0223303Y0119657D01*
X0223199Y0119745D01*
X0223098Y0119837D01*
X0222999Y0119932D01*
X0222904Y0120030D01*
X0222811Y0120130D01*
X0222722Y0120233D01*
X0222635Y0120339D01*
X0222551Y0120447D01*
X0222471Y0120558D01*
X0222394Y0120670D01*
X0222320Y0120786D01*
X0222250Y0120903D01*
X0222183Y0121022D01*
X0222120Y0121143D01*
X0222060Y0121266D01*
X0222004Y0121390D01*
X0221951Y0121516D01*
X0221903Y0121644D01*
X0221857Y0121773D01*
X0221816Y0121903D01*
X0221779Y0122035D01*
X0221745Y0122167D01*
X0221715Y0122300D01*
X0221690Y0122434D01*
X0221668Y0122569D01*
X0221650Y0122705D01*
X0221636Y0122841D01*
X0221626Y0122977D01*
X0221620Y0123113D01*
X0221618Y0123250D01*
X0234343Y0123250D02*
X0234345Y0123338D01*
X0234351Y0123426D01*
X0234361Y0123514D01*
X0234375Y0123601D01*
X0234393Y0123687D01*
X0234414Y0123772D01*
X0234440Y0123857D01*
X0234469Y0123940D01*
X0234502Y0124022D01*
X0234539Y0124102D01*
X0234579Y0124180D01*
X0234623Y0124257D01*
X0234670Y0124331D01*
X0234721Y0124403D01*
X0234774Y0124473D01*
X0234831Y0124541D01*
X0234891Y0124605D01*
X0234954Y0124667D01*
X0235019Y0124726D01*
X0235087Y0124782D01*
X0235158Y0124835D01*
X0235230Y0124885D01*
X0235305Y0124931D01*
X0235382Y0124974D01*
X0235461Y0125014D01*
X0235542Y0125049D01*
X0235624Y0125082D01*
X0235707Y0125110D01*
X0235792Y0125135D01*
X0235878Y0125155D01*
X0235964Y0125172D01*
X0236051Y0125185D01*
X0236139Y0125194D01*
X0236227Y0125199D01*
X0236315Y0125200D01*
X0236403Y0125197D01*
X0236491Y0125190D01*
X0236578Y0125179D01*
X0236665Y0125164D01*
X0236751Y0125145D01*
X0236837Y0125123D01*
X0236921Y0125096D01*
X0237003Y0125066D01*
X0237085Y0125032D01*
X0237165Y0124994D01*
X0237242Y0124953D01*
X0237318Y0124909D01*
X0237392Y0124861D01*
X0237464Y0124809D01*
X0237533Y0124755D01*
X0237600Y0124697D01*
X0237664Y0124637D01*
X0237725Y0124573D01*
X0237784Y0124507D01*
X0237839Y0124439D01*
X0237891Y0124367D01*
X0237940Y0124294D01*
X0237985Y0124219D01*
X0238027Y0124141D01*
X0238066Y0124062D01*
X0238101Y0123981D01*
X0238132Y0123898D01*
X0238159Y0123815D01*
X0238183Y0123730D01*
X0238203Y0123644D01*
X0238219Y0123557D01*
X0238231Y0123470D01*
X0238239Y0123382D01*
X0238243Y0123294D01*
X0238243Y0123206D01*
X0238239Y0123118D01*
X0238231Y0123030D01*
X0238219Y0122943D01*
X0238203Y0122856D01*
X0238183Y0122770D01*
X0238159Y0122685D01*
X0238132Y0122602D01*
X0238101Y0122519D01*
X0238066Y0122438D01*
X0238027Y0122359D01*
X0237985Y0122281D01*
X0237940Y0122206D01*
X0237891Y0122133D01*
X0237839Y0122061D01*
X0237784Y0121993D01*
X0237725Y0121927D01*
X0237664Y0121863D01*
X0237600Y0121803D01*
X0237533Y0121745D01*
X0237464Y0121691D01*
X0237392Y0121639D01*
X0237318Y0121591D01*
X0237242Y0121547D01*
X0237165Y0121506D01*
X0237085Y0121468D01*
X0237003Y0121434D01*
X0236921Y0121404D01*
X0236837Y0121377D01*
X0236751Y0121355D01*
X0236665Y0121336D01*
X0236578Y0121321D01*
X0236491Y0121310D01*
X0236403Y0121303D01*
X0236315Y0121300D01*
X0236227Y0121301D01*
X0236139Y0121306D01*
X0236051Y0121315D01*
X0235964Y0121328D01*
X0235878Y0121345D01*
X0235792Y0121365D01*
X0235707Y0121390D01*
X0235624Y0121418D01*
X0235542Y0121451D01*
X0235461Y0121486D01*
X0235382Y0121526D01*
X0235305Y0121569D01*
X0235230Y0121615D01*
X0235158Y0121665D01*
X0235087Y0121718D01*
X0235019Y0121774D01*
X0234954Y0121833D01*
X0234891Y0121895D01*
X0234831Y0121959D01*
X0234774Y0122027D01*
X0234721Y0122097D01*
X0234670Y0122169D01*
X0234623Y0122243D01*
X0234579Y0122320D01*
X0234539Y0122398D01*
X0234502Y0122478D01*
X0234469Y0122560D01*
X0234440Y0122643D01*
X0234414Y0122728D01*
X0234393Y0122813D01*
X0234375Y0122899D01*
X0234361Y0122986D01*
X0234351Y0123074D01*
X0234345Y0123162D01*
X0234343Y0123250D01*
X0241618Y0123250D02*
X0241620Y0123387D01*
X0241626Y0123523D01*
X0241636Y0123659D01*
X0241650Y0123795D01*
X0241668Y0123931D01*
X0241690Y0124066D01*
X0241715Y0124200D01*
X0241745Y0124333D01*
X0241779Y0124465D01*
X0241816Y0124597D01*
X0241857Y0124727D01*
X0241903Y0124856D01*
X0241951Y0124984D01*
X0242004Y0125110D01*
X0242060Y0125234D01*
X0242120Y0125357D01*
X0242183Y0125478D01*
X0242250Y0125597D01*
X0242320Y0125714D01*
X0242394Y0125830D01*
X0242471Y0125942D01*
X0242551Y0126053D01*
X0242635Y0126161D01*
X0242722Y0126267D01*
X0242811Y0126370D01*
X0242904Y0126470D01*
X0242999Y0126568D01*
X0243098Y0126663D01*
X0243199Y0126755D01*
X0243303Y0126843D01*
X0243409Y0126929D01*
X0243518Y0127012D01*
X0243629Y0127091D01*
X0243742Y0127168D01*
X0243858Y0127241D01*
X0243975Y0127310D01*
X0244095Y0127376D01*
X0244216Y0127438D01*
X0244340Y0127497D01*
X0244465Y0127553D01*
X0244591Y0127604D01*
X0244719Y0127652D01*
X0244848Y0127696D01*
X0244979Y0127737D01*
X0245111Y0127773D01*
X0245243Y0127806D01*
X0245377Y0127834D01*
X0245511Y0127859D01*
X0245646Y0127880D01*
X0245782Y0127897D01*
X0245918Y0127910D01*
X0246054Y0127919D01*
X0246191Y0127924D01*
X0246327Y0127925D01*
X0246464Y0127922D01*
X0246600Y0127915D01*
X0246736Y0127904D01*
X0246872Y0127889D01*
X0247007Y0127870D01*
X0247142Y0127847D01*
X0247276Y0127820D01*
X0247409Y0127790D01*
X0247541Y0127755D01*
X0247673Y0127717D01*
X0247802Y0127675D01*
X0247931Y0127629D01*
X0248058Y0127579D01*
X0248184Y0127525D01*
X0248308Y0127468D01*
X0248431Y0127408D01*
X0248551Y0127343D01*
X0248670Y0127276D01*
X0248786Y0127205D01*
X0248901Y0127130D01*
X0249013Y0127052D01*
X0249123Y0126971D01*
X0249231Y0126887D01*
X0249336Y0126799D01*
X0249438Y0126709D01*
X0249538Y0126616D01*
X0249635Y0126519D01*
X0249729Y0126420D01*
X0249820Y0126319D01*
X0249908Y0126214D01*
X0249993Y0126107D01*
X0250075Y0125998D01*
X0250154Y0125886D01*
X0250229Y0125772D01*
X0250301Y0125656D01*
X0250370Y0125538D01*
X0250435Y0125418D01*
X0250497Y0125296D01*
X0250555Y0125172D01*
X0250609Y0125047D01*
X0250660Y0124920D01*
X0250706Y0124792D01*
X0250750Y0124662D01*
X0250789Y0124531D01*
X0250825Y0124399D01*
X0250856Y0124266D01*
X0250884Y0124133D01*
X0250908Y0123998D01*
X0250928Y0123863D01*
X0250944Y0123727D01*
X0250956Y0123591D01*
X0250964Y0123455D01*
X0250968Y0123318D01*
X0250968Y0123182D01*
X0250964Y0123045D01*
X0250956Y0122909D01*
X0250944Y0122773D01*
X0250928Y0122637D01*
X0250908Y0122502D01*
X0250884Y0122367D01*
X0250856Y0122234D01*
X0250825Y0122101D01*
X0250789Y0121969D01*
X0250750Y0121838D01*
X0250706Y0121708D01*
X0250660Y0121580D01*
X0250609Y0121453D01*
X0250555Y0121328D01*
X0250497Y0121204D01*
X0250435Y0121082D01*
X0250370Y0120962D01*
X0250301Y0120844D01*
X0250229Y0120728D01*
X0250154Y0120614D01*
X0250075Y0120502D01*
X0249993Y0120393D01*
X0249908Y0120286D01*
X0249820Y0120181D01*
X0249729Y0120080D01*
X0249635Y0119981D01*
X0249538Y0119884D01*
X0249438Y0119791D01*
X0249336Y0119701D01*
X0249231Y0119613D01*
X0249123Y0119529D01*
X0249013Y0119448D01*
X0248901Y0119370D01*
X0248786Y0119295D01*
X0248670Y0119224D01*
X0248551Y0119157D01*
X0248431Y0119092D01*
X0248308Y0119032D01*
X0248184Y0118975D01*
X0248058Y0118921D01*
X0247931Y0118871D01*
X0247802Y0118825D01*
X0247673Y0118783D01*
X0247541Y0118745D01*
X0247409Y0118710D01*
X0247276Y0118680D01*
X0247142Y0118653D01*
X0247007Y0118630D01*
X0246872Y0118611D01*
X0246736Y0118596D01*
X0246600Y0118585D01*
X0246464Y0118578D01*
X0246327Y0118575D01*
X0246191Y0118576D01*
X0246054Y0118581D01*
X0245918Y0118590D01*
X0245782Y0118603D01*
X0245646Y0118620D01*
X0245511Y0118641D01*
X0245377Y0118666D01*
X0245243Y0118694D01*
X0245111Y0118727D01*
X0244979Y0118763D01*
X0244848Y0118804D01*
X0244719Y0118848D01*
X0244591Y0118896D01*
X0244465Y0118947D01*
X0244340Y0119003D01*
X0244216Y0119062D01*
X0244095Y0119124D01*
X0243975Y0119190D01*
X0243858Y0119259D01*
X0243742Y0119332D01*
X0243629Y0119409D01*
X0243518Y0119488D01*
X0243409Y0119571D01*
X0243303Y0119657D01*
X0243199Y0119745D01*
X0243098Y0119837D01*
X0242999Y0119932D01*
X0242904Y0120030D01*
X0242811Y0120130D01*
X0242722Y0120233D01*
X0242635Y0120339D01*
X0242551Y0120447D01*
X0242471Y0120558D01*
X0242394Y0120670D01*
X0242320Y0120786D01*
X0242250Y0120903D01*
X0242183Y0121022D01*
X0242120Y0121143D01*
X0242060Y0121266D01*
X0242004Y0121390D01*
X0241951Y0121516D01*
X0241903Y0121644D01*
X0241857Y0121773D01*
X0241816Y0121903D01*
X0241779Y0122035D01*
X0241745Y0122167D01*
X0241715Y0122300D01*
X0241690Y0122434D01*
X0241668Y0122569D01*
X0241650Y0122705D01*
X0241636Y0122841D01*
X0241626Y0122977D01*
X0241620Y0123113D01*
X0241618Y0123250D01*
X0241618Y0110750D02*
X0241620Y0110887D01*
X0241626Y0111023D01*
X0241636Y0111159D01*
X0241650Y0111295D01*
X0241668Y0111431D01*
X0241690Y0111566D01*
X0241715Y0111700D01*
X0241745Y0111833D01*
X0241779Y0111965D01*
X0241816Y0112097D01*
X0241857Y0112227D01*
X0241903Y0112356D01*
X0241951Y0112484D01*
X0242004Y0112610D01*
X0242060Y0112734D01*
X0242120Y0112857D01*
X0242183Y0112978D01*
X0242250Y0113097D01*
X0242320Y0113214D01*
X0242394Y0113330D01*
X0242471Y0113442D01*
X0242551Y0113553D01*
X0242635Y0113661D01*
X0242722Y0113767D01*
X0242811Y0113870D01*
X0242904Y0113970D01*
X0242999Y0114068D01*
X0243098Y0114163D01*
X0243199Y0114255D01*
X0243303Y0114343D01*
X0243409Y0114429D01*
X0243518Y0114512D01*
X0243629Y0114591D01*
X0243742Y0114668D01*
X0243858Y0114741D01*
X0243975Y0114810D01*
X0244095Y0114876D01*
X0244216Y0114938D01*
X0244340Y0114997D01*
X0244465Y0115053D01*
X0244591Y0115104D01*
X0244719Y0115152D01*
X0244848Y0115196D01*
X0244979Y0115237D01*
X0245111Y0115273D01*
X0245243Y0115306D01*
X0245377Y0115334D01*
X0245511Y0115359D01*
X0245646Y0115380D01*
X0245782Y0115397D01*
X0245918Y0115410D01*
X0246054Y0115419D01*
X0246191Y0115424D01*
X0246327Y0115425D01*
X0246464Y0115422D01*
X0246600Y0115415D01*
X0246736Y0115404D01*
X0246872Y0115389D01*
X0247007Y0115370D01*
X0247142Y0115347D01*
X0247276Y0115320D01*
X0247409Y0115290D01*
X0247541Y0115255D01*
X0247673Y0115217D01*
X0247802Y0115175D01*
X0247931Y0115129D01*
X0248058Y0115079D01*
X0248184Y0115025D01*
X0248308Y0114968D01*
X0248431Y0114908D01*
X0248551Y0114843D01*
X0248670Y0114776D01*
X0248786Y0114705D01*
X0248901Y0114630D01*
X0249013Y0114552D01*
X0249123Y0114471D01*
X0249231Y0114387D01*
X0249336Y0114299D01*
X0249438Y0114209D01*
X0249538Y0114116D01*
X0249635Y0114019D01*
X0249729Y0113920D01*
X0249820Y0113819D01*
X0249908Y0113714D01*
X0249993Y0113607D01*
X0250075Y0113498D01*
X0250154Y0113386D01*
X0250229Y0113272D01*
X0250301Y0113156D01*
X0250370Y0113038D01*
X0250435Y0112918D01*
X0250497Y0112796D01*
X0250555Y0112672D01*
X0250609Y0112547D01*
X0250660Y0112420D01*
X0250706Y0112292D01*
X0250750Y0112162D01*
X0250789Y0112031D01*
X0250825Y0111899D01*
X0250856Y0111766D01*
X0250884Y0111633D01*
X0250908Y0111498D01*
X0250928Y0111363D01*
X0250944Y0111227D01*
X0250956Y0111091D01*
X0250964Y0110955D01*
X0250968Y0110818D01*
X0250968Y0110682D01*
X0250964Y0110545D01*
X0250956Y0110409D01*
X0250944Y0110273D01*
X0250928Y0110137D01*
X0250908Y0110002D01*
X0250884Y0109867D01*
X0250856Y0109734D01*
X0250825Y0109601D01*
X0250789Y0109469D01*
X0250750Y0109338D01*
X0250706Y0109208D01*
X0250660Y0109080D01*
X0250609Y0108953D01*
X0250555Y0108828D01*
X0250497Y0108704D01*
X0250435Y0108582D01*
X0250370Y0108462D01*
X0250301Y0108344D01*
X0250229Y0108228D01*
X0250154Y0108114D01*
X0250075Y0108002D01*
X0249993Y0107893D01*
X0249908Y0107786D01*
X0249820Y0107681D01*
X0249729Y0107580D01*
X0249635Y0107481D01*
X0249538Y0107384D01*
X0249438Y0107291D01*
X0249336Y0107201D01*
X0249231Y0107113D01*
X0249123Y0107029D01*
X0249013Y0106948D01*
X0248901Y0106870D01*
X0248786Y0106795D01*
X0248670Y0106724D01*
X0248551Y0106657D01*
X0248431Y0106592D01*
X0248308Y0106532D01*
X0248184Y0106475D01*
X0248058Y0106421D01*
X0247931Y0106371D01*
X0247802Y0106325D01*
X0247673Y0106283D01*
X0247541Y0106245D01*
X0247409Y0106210D01*
X0247276Y0106180D01*
X0247142Y0106153D01*
X0247007Y0106130D01*
X0246872Y0106111D01*
X0246736Y0106096D01*
X0246600Y0106085D01*
X0246464Y0106078D01*
X0246327Y0106075D01*
X0246191Y0106076D01*
X0246054Y0106081D01*
X0245918Y0106090D01*
X0245782Y0106103D01*
X0245646Y0106120D01*
X0245511Y0106141D01*
X0245377Y0106166D01*
X0245243Y0106194D01*
X0245111Y0106227D01*
X0244979Y0106263D01*
X0244848Y0106304D01*
X0244719Y0106348D01*
X0244591Y0106396D01*
X0244465Y0106447D01*
X0244340Y0106503D01*
X0244216Y0106562D01*
X0244095Y0106624D01*
X0243975Y0106690D01*
X0243858Y0106759D01*
X0243742Y0106832D01*
X0243629Y0106909D01*
X0243518Y0106988D01*
X0243409Y0107071D01*
X0243303Y0107157D01*
X0243199Y0107245D01*
X0243098Y0107337D01*
X0242999Y0107432D01*
X0242904Y0107530D01*
X0242811Y0107630D01*
X0242722Y0107733D01*
X0242635Y0107839D01*
X0242551Y0107947D01*
X0242471Y0108058D01*
X0242394Y0108170D01*
X0242320Y0108286D01*
X0242250Y0108403D01*
X0242183Y0108522D01*
X0242120Y0108643D01*
X0242060Y0108766D01*
X0242004Y0108890D01*
X0241951Y0109016D01*
X0241903Y0109144D01*
X0241857Y0109273D01*
X0241816Y0109403D01*
X0241779Y0109535D01*
X0241745Y0109667D01*
X0241715Y0109800D01*
X0241690Y0109934D01*
X0241668Y0110069D01*
X0241650Y0110205D01*
X0241636Y0110341D01*
X0241626Y0110477D01*
X0241620Y0110613D01*
X0241618Y0110750D01*
X0238343Y0103250D02*
X0238345Y0103338D01*
X0238351Y0103426D01*
X0238361Y0103514D01*
X0238375Y0103601D01*
X0238393Y0103687D01*
X0238414Y0103772D01*
X0238440Y0103857D01*
X0238469Y0103940D01*
X0238502Y0104022D01*
X0238539Y0104102D01*
X0238579Y0104180D01*
X0238623Y0104257D01*
X0238670Y0104331D01*
X0238721Y0104403D01*
X0238774Y0104473D01*
X0238831Y0104541D01*
X0238891Y0104605D01*
X0238954Y0104667D01*
X0239019Y0104726D01*
X0239087Y0104782D01*
X0239158Y0104835D01*
X0239230Y0104885D01*
X0239305Y0104931D01*
X0239382Y0104974D01*
X0239461Y0105014D01*
X0239542Y0105049D01*
X0239624Y0105082D01*
X0239707Y0105110D01*
X0239792Y0105135D01*
X0239878Y0105155D01*
X0239964Y0105172D01*
X0240051Y0105185D01*
X0240139Y0105194D01*
X0240227Y0105199D01*
X0240315Y0105200D01*
X0240403Y0105197D01*
X0240491Y0105190D01*
X0240578Y0105179D01*
X0240665Y0105164D01*
X0240751Y0105145D01*
X0240837Y0105123D01*
X0240921Y0105096D01*
X0241003Y0105066D01*
X0241085Y0105032D01*
X0241165Y0104994D01*
X0241242Y0104953D01*
X0241318Y0104909D01*
X0241392Y0104861D01*
X0241464Y0104809D01*
X0241533Y0104755D01*
X0241600Y0104697D01*
X0241664Y0104637D01*
X0241725Y0104573D01*
X0241784Y0104507D01*
X0241839Y0104439D01*
X0241891Y0104367D01*
X0241940Y0104294D01*
X0241985Y0104219D01*
X0242027Y0104141D01*
X0242066Y0104062D01*
X0242101Y0103981D01*
X0242132Y0103898D01*
X0242159Y0103815D01*
X0242183Y0103730D01*
X0242203Y0103644D01*
X0242219Y0103557D01*
X0242231Y0103470D01*
X0242239Y0103382D01*
X0242243Y0103294D01*
X0242243Y0103206D01*
X0242239Y0103118D01*
X0242231Y0103030D01*
X0242219Y0102943D01*
X0242203Y0102856D01*
X0242183Y0102770D01*
X0242159Y0102685D01*
X0242132Y0102602D01*
X0242101Y0102519D01*
X0242066Y0102438D01*
X0242027Y0102359D01*
X0241985Y0102281D01*
X0241940Y0102206D01*
X0241891Y0102133D01*
X0241839Y0102061D01*
X0241784Y0101993D01*
X0241725Y0101927D01*
X0241664Y0101863D01*
X0241600Y0101803D01*
X0241533Y0101745D01*
X0241464Y0101691D01*
X0241392Y0101639D01*
X0241318Y0101591D01*
X0241242Y0101547D01*
X0241165Y0101506D01*
X0241085Y0101468D01*
X0241003Y0101434D01*
X0240921Y0101404D01*
X0240837Y0101377D01*
X0240751Y0101355D01*
X0240665Y0101336D01*
X0240578Y0101321D01*
X0240491Y0101310D01*
X0240403Y0101303D01*
X0240315Y0101300D01*
X0240227Y0101301D01*
X0240139Y0101306D01*
X0240051Y0101315D01*
X0239964Y0101328D01*
X0239878Y0101345D01*
X0239792Y0101365D01*
X0239707Y0101390D01*
X0239624Y0101418D01*
X0239542Y0101451D01*
X0239461Y0101486D01*
X0239382Y0101526D01*
X0239305Y0101569D01*
X0239230Y0101615D01*
X0239158Y0101665D01*
X0239087Y0101718D01*
X0239019Y0101774D01*
X0238954Y0101833D01*
X0238891Y0101895D01*
X0238831Y0101959D01*
X0238774Y0102027D01*
X0238721Y0102097D01*
X0238670Y0102169D01*
X0238623Y0102243D01*
X0238579Y0102320D01*
X0238539Y0102398D01*
X0238502Y0102478D01*
X0238469Y0102560D01*
X0238440Y0102643D01*
X0238414Y0102728D01*
X0238393Y0102813D01*
X0238375Y0102899D01*
X0238361Y0102986D01*
X0238351Y0103074D01*
X0238345Y0103162D01*
X0238343Y0103250D01*
X0263281Y0143250D02*
X0263283Y0143398D01*
X0263289Y0143546D01*
X0263299Y0143694D01*
X0263313Y0143841D01*
X0263331Y0143988D01*
X0263352Y0144134D01*
X0263378Y0144280D01*
X0263408Y0144425D01*
X0263441Y0144569D01*
X0263479Y0144712D01*
X0263520Y0144854D01*
X0263565Y0144995D01*
X0263613Y0145135D01*
X0263666Y0145274D01*
X0263722Y0145411D01*
X0263782Y0145546D01*
X0263845Y0145680D01*
X0263912Y0145812D01*
X0263983Y0145942D01*
X0264057Y0146070D01*
X0264134Y0146196D01*
X0264215Y0146320D01*
X0264299Y0146442D01*
X0264386Y0146561D01*
X0264477Y0146678D01*
X0264571Y0146793D01*
X0264667Y0146905D01*
X0264767Y0147015D01*
X0264869Y0147121D01*
X0264975Y0147225D01*
X0265083Y0147326D01*
X0265194Y0147424D01*
X0265307Y0147520D01*
X0265423Y0147612D01*
X0265541Y0147701D01*
X0265662Y0147786D01*
X0265785Y0147869D01*
X0265910Y0147948D01*
X0266037Y0148024D01*
X0266166Y0148096D01*
X0266297Y0148165D01*
X0266430Y0148230D01*
X0266565Y0148291D01*
X0266701Y0148349D01*
X0266838Y0148404D01*
X0266977Y0148454D01*
X0267118Y0148501D01*
X0267259Y0148544D01*
X0267402Y0148584D01*
X0267546Y0148619D01*
X0267690Y0148651D01*
X0267836Y0148678D01*
X0267982Y0148702D01*
X0268129Y0148722D01*
X0268276Y0148738D01*
X0268423Y0148750D01*
X0268571Y0148758D01*
X0268719Y0148762D01*
X0268867Y0148762D01*
X0269015Y0148758D01*
X0269163Y0148750D01*
X0269310Y0148738D01*
X0269457Y0148722D01*
X0269604Y0148702D01*
X0269750Y0148678D01*
X0269896Y0148651D01*
X0270040Y0148619D01*
X0270184Y0148584D01*
X0270327Y0148544D01*
X0270468Y0148501D01*
X0270609Y0148454D01*
X0270748Y0148404D01*
X0270885Y0148349D01*
X0271021Y0148291D01*
X0271156Y0148230D01*
X0271289Y0148165D01*
X0271420Y0148096D01*
X0271549Y0148024D01*
X0271676Y0147948D01*
X0271801Y0147869D01*
X0271924Y0147786D01*
X0272045Y0147701D01*
X0272163Y0147612D01*
X0272279Y0147520D01*
X0272392Y0147424D01*
X0272503Y0147326D01*
X0272611Y0147225D01*
X0272717Y0147121D01*
X0272819Y0147015D01*
X0272919Y0146905D01*
X0273015Y0146793D01*
X0273109Y0146678D01*
X0273200Y0146561D01*
X0273287Y0146442D01*
X0273371Y0146320D01*
X0273452Y0146196D01*
X0273529Y0146070D01*
X0273603Y0145942D01*
X0273674Y0145812D01*
X0273741Y0145680D01*
X0273804Y0145546D01*
X0273864Y0145411D01*
X0273920Y0145274D01*
X0273973Y0145135D01*
X0274021Y0144995D01*
X0274066Y0144854D01*
X0274107Y0144712D01*
X0274145Y0144569D01*
X0274178Y0144425D01*
X0274208Y0144280D01*
X0274234Y0144134D01*
X0274255Y0143988D01*
X0274273Y0143841D01*
X0274287Y0143694D01*
X0274297Y0143546D01*
X0274303Y0143398D01*
X0274305Y0143250D01*
X0274303Y0143102D01*
X0274297Y0142954D01*
X0274287Y0142806D01*
X0274273Y0142659D01*
X0274255Y0142512D01*
X0274234Y0142366D01*
X0274208Y0142220D01*
X0274178Y0142075D01*
X0274145Y0141931D01*
X0274107Y0141788D01*
X0274066Y0141646D01*
X0274021Y0141505D01*
X0273973Y0141365D01*
X0273920Y0141226D01*
X0273864Y0141089D01*
X0273804Y0140954D01*
X0273741Y0140820D01*
X0273674Y0140688D01*
X0273603Y0140558D01*
X0273529Y0140430D01*
X0273452Y0140304D01*
X0273371Y0140180D01*
X0273287Y0140058D01*
X0273200Y0139939D01*
X0273109Y0139822D01*
X0273015Y0139707D01*
X0272919Y0139595D01*
X0272819Y0139485D01*
X0272717Y0139379D01*
X0272611Y0139275D01*
X0272503Y0139174D01*
X0272392Y0139076D01*
X0272279Y0138980D01*
X0272163Y0138888D01*
X0272045Y0138799D01*
X0271924Y0138714D01*
X0271801Y0138631D01*
X0271676Y0138552D01*
X0271549Y0138476D01*
X0271420Y0138404D01*
X0271289Y0138335D01*
X0271156Y0138270D01*
X0271021Y0138209D01*
X0270885Y0138151D01*
X0270748Y0138096D01*
X0270609Y0138046D01*
X0270468Y0137999D01*
X0270327Y0137956D01*
X0270184Y0137916D01*
X0270040Y0137881D01*
X0269896Y0137849D01*
X0269750Y0137822D01*
X0269604Y0137798D01*
X0269457Y0137778D01*
X0269310Y0137762D01*
X0269163Y0137750D01*
X0269015Y0137742D01*
X0268867Y0137738D01*
X0268719Y0137738D01*
X0268571Y0137742D01*
X0268423Y0137750D01*
X0268276Y0137762D01*
X0268129Y0137778D01*
X0267982Y0137798D01*
X0267836Y0137822D01*
X0267690Y0137849D01*
X0267546Y0137881D01*
X0267402Y0137916D01*
X0267259Y0137956D01*
X0267118Y0137999D01*
X0266977Y0138046D01*
X0266838Y0138096D01*
X0266701Y0138151D01*
X0266565Y0138209D01*
X0266430Y0138270D01*
X0266297Y0138335D01*
X0266166Y0138404D01*
X0266037Y0138476D01*
X0265910Y0138552D01*
X0265785Y0138631D01*
X0265662Y0138714D01*
X0265541Y0138799D01*
X0265423Y0138888D01*
X0265307Y0138980D01*
X0265194Y0139076D01*
X0265083Y0139174D01*
X0264975Y0139275D01*
X0264869Y0139379D01*
X0264767Y0139485D01*
X0264667Y0139595D01*
X0264571Y0139707D01*
X0264477Y0139822D01*
X0264386Y0139939D01*
X0264299Y0140058D01*
X0264215Y0140180D01*
X0264134Y0140304D01*
X0264057Y0140430D01*
X0263983Y0140558D01*
X0263912Y0140688D01*
X0263845Y0140820D01*
X0263782Y0140954D01*
X0263722Y0141089D01*
X0263666Y0141226D01*
X0263613Y0141365D01*
X0263565Y0141505D01*
X0263520Y0141646D01*
X0263479Y0141788D01*
X0263441Y0141931D01*
X0263408Y0142075D01*
X0263378Y0142220D01*
X0263352Y0142366D01*
X0263331Y0142512D01*
X0263313Y0142659D01*
X0263299Y0142806D01*
X0263289Y0142954D01*
X0263283Y0143102D01*
X0263281Y0143250D01*
X0263281Y0033250D02*
X0263283Y0033398D01*
X0263289Y0033546D01*
X0263299Y0033694D01*
X0263313Y0033841D01*
X0263331Y0033988D01*
X0263352Y0034134D01*
X0263378Y0034280D01*
X0263408Y0034425D01*
X0263441Y0034569D01*
X0263479Y0034712D01*
X0263520Y0034854D01*
X0263565Y0034995D01*
X0263613Y0035135D01*
X0263666Y0035274D01*
X0263722Y0035411D01*
X0263782Y0035546D01*
X0263845Y0035680D01*
X0263912Y0035812D01*
X0263983Y0035942D01*
X0264057Y0036070D01*
X0264134Y0036196D01*
X0264215Y0036320D01*
X0264299Y0036442D01*
X0264386Y0036561D01*
X0264477Y0036678D01*
X0264571Y0036793D01*
X0264667Y0036905D01*
X0264767Y0037015D01*
X0264869Y0037121D01*
X0264975Y0037225D01*
X0265083Y0037326D01*
X0265194Y0037424D01*
X0265307Y0037520D01*
X0265423Y0037612D01*
X0265541Y0037701D01*
X0265662Y0037786D01*
X0265785Y0037869D01*
X0265910Y0037948D01*
X0266037Y0038024D01*
X0266166Y0038096D01*
X0266297Y0038165D01*
X0266430Y0038230D01*
X0266565Y0038291D01*
X0266701Y0038349D01*
X0266838Y0038404D01*
X0266977Y0038454D01*
X0267118Y0038501D01*
X0267259Y0038544D01*
X0267402Y0038584D01*
X0267546Y0038619D01*
X0267690Y0038651D01*
X0267836Y0038678D01*
X0267982Y0038702D01*
X0268129Y0038722D01*
X0268276Y0038738D01*
X0268423Y0038750D01*
X0268571Y0038758D01*
X0268719Y0038762D01*
X0268867Y0038762D01*
X0269015Y0038758D01*
X0269163Y0038750D01*
X0269310Y0038738D01*
X0269457Y0038722D01*
X0269604Y0038702D01*
X0269750Y0038678D01*
X0269896Y0038651D01*
X0270040Y0038619D01*
X0270184Y0038584D01*
X0270327Y0038544D01*
X0270468Y0038501D01*
X0270609Y0038454D01*
X0270748Y0038404D01*
X0270885Y0038349D01*
X0271021Y0038291D01*
X0271156Y0038230D01*
X0271289Y0038165D01*
X0271420Y0038096D01*
X0271549Y0038024D01*
X0271676Y0037948D01*
X0271801Y0037869D01*
X0271924Y0037786D01*
X0272045Y0037701D01*
X0272163Y0037612D01*
X0272279Y0037520D01*
X0272392Y0037424D01*
X0272503Y0037326D01*
X0272611Y0037225D01*
X0272717Y0037121D01*
X0272819Y0037015D01*
X0272919Y0036905D01*
X0273015Y0036793D01*
X0273109Y0036678D01*
X0273200Y0036561D01*
X0273287Y0036442D01*
X0273371Y0036320D01*
X0273452Y0036196D01*
X0273529Y0036070D01*
X0273603Y0035942D01*
X0273674Y0035812D01*
X0273741Y0035680D01*
X0273804Y0035546D01*
X0273864Y0035411D01*
X0273920Y0035274D01*
X0273973Y0035135D01*
X0274021Y0034995D01*
X0274066Y0034854D01*
X0274107Y0034712D01*
X0274145Y0034569D01*
X0274178Y0034425D01*
X0274208Y0034280D01*
X0274234Y0034134D01*
X0274255Y0033988D01*
X0274273Y0033841D01*
X0274287Y0033694D01*
X0274297Y0033546D01*
X0274303Y0033398D01*
X0274305Y0033250D01*
X0274303Y0033102D01*
X0274297Y0032954D01*
X0274287Y0032806D01*
X0274273Y0032659D01*
X0274255Y0032512D01*
X0274234Y0032366D01*
X0274208Y0032220D01*
X0274178Y0032075D01*
X0274145Y0031931D01*
X0274107Y0031788D01*
X0274066Y0031646D01*
X0274021Y0031505D01*
X0273973Y0031365D01*
X0273920Y0031226D01*
X0273864Y0031089D01*
X0273804Y0030954D01*
X0273741Y0030820D01*
X0273674Y0030688D01*
X0273603Y0030558D01*
X0273529Y0030430D01*
X0273452Y0030304D01*
X0273371Y0030180D01*
X0273287Y0030058D01*
X0273200Y0029939D01*
X0273109Y0029822D01*
X0273015Y0029707D01*
X0272919Y0029595D01*
X0272819Y0029485D01*
X0272717Y0029379D01*
X0272611Y0029275D01*
X0272503Y0029174D01*
X0272392Y0029076D01*
X0272279Y0028980D01*
X0272163Y0028888D01*
X0272045Y0028799D01*
X0271924Y0028714D01*
X0271801Y0028631D01*
X0271676Y0028552D01*
X0271549Y0028476D01*
X0271420Y0028404D01*
X0271289Y0028335D01*
X0271156Y0028270D01*
X0271021Y0028209D01*
X0270885Y0028151D01*
X0270748Y0028096D01*
X0270609Y0028046D01*
X0270468Y0027999D01*
X0270327Y0027956D01*
X0270184Y0027916D01*
X0270040Y0027881D01*
X0269896Y0027849D01*
X0269750Y0027822D01*
X0269604Y0027798D01*
X0269457Y0027778D01*
X0269310Y0027762D01*
X0269163Y0027750D01*
X0269015Y0027742D01*
X0268867Y0027738D01*
X0268719Y0027738D01*
X0268571Y0027742D01*
X0268423Y0027750D01*
X0268276Y0027762D01*
X0268129Y0027778D01*
X0267982Y0027798D01*
X0267836Y0027822D01*
X0267690Y0027849D01*
X0267546Y0027881D01*
X0267402Y0027916D01*
X0267259Y0027956D01*
X0267118Y0027999D01*
X0266977Y0028046D01*
X0266838Y0028096D01*
X0266701Y0028151D01*
X0266565Y0028209D01*
X0266430Y0028270D01*
X0266297Y0028335D01*
X0266166Y0028404D01*
X0266037Y0028476D01*
X0265910Y0028552D01*
X0265785Y0028631D01*
X0265662Y0028714D01*
X0265541Y0028799D01*
X0265423Y0028888D01*
X0265307Y0028980D01*
X0265194Y0029076D01*
X0265083Y0029174D01*
X0264975Y0029275D01*
X0264869Y0029379D01*
X0264767Y0029485D01*
X0264667Y0029595D01*
X0264571Y0029707D01*
X0264477Y0029822D01*
X0264386Y0029939D01*
X0264299Y0030058D01*
X0264215Y0030180D01*
X0264134Y0030304D01*
X0264057Y0030430D01*
X0263983Y0030558D01*
X0263912Y0030688D01*
X0263845Y0030820D01*
X0263782Y0030954D01*
X0263722Y0031089D01*
X0263666Y0031226D01*
X0263613Y0031365D01*
X0263565Y0031505D01*
X0263520Y0031646D01*
X0263479Y0031788D01*
X0263441Y0031931D01*
X0263408Y0032075D01*
X0263378Y0032220D01*
X0263352Y0032366D01*
X0263331Y0032512D01*
X0263313Y0032659D01*
X0263299Y0032806D01*
X0263289Y0032954D01*
X0263283Y0033102D01*
X0263281Y0033250D01*
X0078281Y0013250D02*
X0078283Y0013398D01*
X0078289Y0013546D01*
X0078299Y0013694D01*
X0078313Y0013841D01*
X0078331Y0013988D01*
X0078352Y0014134D01*
X0078378Y0014280D01*
X0078408Y0014425D01*
X0078441Y0014569D01*
X0078479Y0014712D01*
X0078520Y0014854D01*
X0078565Y0014995D01*
X0078613Y0015135D01*
X0078666Y0015274D01*
X0078722Y0015411D01*
X0078782Y0015546D01*
X0078845Y0015680D01*
X0078912Y0015812D01*
X0078983Y0015942D01*
X0079057Y0016070D01*
X0079134Y0016196D01*
X0079215Y0016320D01*
X0079299Y0016442D01*
X0079386Y0016561D01*
X0079477Y0016678D01*
X0079571Y0016793D01*
X0079667Y0016905D01*
X0079767Y0017015D01*
X0079869Y0017121D01*
X0079975Y0017225D01*
X0080083Y0017326D01*
X0080194Y0017424D01*
X0080307Y0017520D01*
X0080423Y0017612D01*
X0080541Y0017701D01*
X0080662Y0017786D01*
X0080785Y0017869D01*
X0080910Y0017948D01*
X0081037Y0018024D01*
X0081166Y0018096D01*
X0081297Y0018165D01*
X0081430Y0018230D01*
X0081565Y0018291D01*
X0081701Y0018349D01*
X0081838Y0018404D01*
X0081977Y0018454D01*
X0082118Y0018501D01*
X0082259Y0018544D01*
X0082402Y0018584D01*
X0082546Y0018619D01*
X0082690Y0018651D01*
X0082836Y0018678D01*
X0082982Y0018702D01*
X0083129Y0018722D01*
X0083276Y0018738D01*
X0083423Y0018750D01*
X0083571Y0018758D01*
X0083719Y0018762D01*
X0083867Y0018762D01*
X0084015Y0018758D01*
X0084163Y0018750D01*
X0084310Y0018738D01*
X0084457Y0018722D01*
X0084604Y0018702D01*
X0084750Y0018678D01*
X0084896Y0018651D01*
X0085040Y0018619D01*
X0085184Y0018584D01*
X0085327Y0018544D01*
X0085468Y0018501D01*
X0085609Y0018454D01*
X0085748Y0018404D01*
X0085885Y0018349D01*
X0086021Y0018291D01*
X0086156Y0018230D01*
X0086289Y0018165D01*
X0086420Y0018096D01*
X0086549Y0018024D01*
X0086676Y0017948D01*
X0086801Y0017869D01*
X0086924Y0017786D01*
X0087045Y0017701D01*
X0087163Y0017612D01*
X0087279Y0017520D01*
X0087392Y0017424D01*
X0087503Y0017326D01*
X0087611Y0017225D01*
X0087717Y0017121D01*
X0087819Y0017015D01*
X0087919Y0016905D01*
X0088015Y0016793D01*
X0088109Y0016678D01*
X0088200Y0016561D01*
X0088287Y0016442D01*
X0088371Y0016320D01*
X0088452Y0016196D01*
X0088529Y0016070D01*
X0088603Y0015942D01*
X0088674Y0015812D01*
X0088741Y0015680D01*
X0088804Y0015546D01*
X0088864Y0015411D01*
X0088920Y0015274D01*
X0088973Y0015135D01*
X0089021Y0014995D01*
X0089066Y0014854D01*
X0089107Y0014712D01*
X0089145Y0014569D01*
X0089178Y0014425D01*
X0089208Y0014280D01*
X0089234Y0014134D01*
X0089255Y0013988D01*
X0089273Y0013841D01*
X0089287Y0013694D01*
X0089297Y0013546D01*
X0089303Y0013398D01*
X0089305Y0013250D01*
X0089303Y0013102D01*
X0089297Y0012954D01*
X0089287Y0012806D01*
X0089273Y0012659D01*
X0089255Y0012512D01*
X0089234Y0012366D01*
X0089208Y0012220D01*
X0089178Y0012075D01*
X0089145Y0011931D01*
X0089107Y0011788D01*
X0089066Y0011646D01*
X0089021Y0011505D01*
X0088973Y0011365D01*
X0088920Y0011226D01*
X0088864Y0011089D01*
X0088804Y0010954D01*
X0088741Y0010820D01*
X0088674Y0010688D01*
X0088603Y0010558D01*
X0088529Y0010430D01*
X0088452Y0010304D01*
X0088371Y0010180D01*
X0088287Y0010058D01*
X0088200Y0009939D01*
X0088109Y0009822D01*
X0088015Y0009707D01*
X0087919Y0009595D01*
X0087819Y0009485D01*
X0087717Y0009379D01*
X0087611Y0009275D01*
X0087503Y0009174D01*
X0087392Y0009076D01*
X0087279Y0008980D01*
X0087163Y0008888D01*
X0087045Y0008799D01*
X0086924Y0008714D01*
X0086801Y0008631D01*
X0086676Y0008552D01*
X0086549Y0008476D01*
X0086420Y0008404D01*
X0086289Y0008335D01*
X0086156Y0008270D01*
X0086021Y0008209D01*
X0085885Y0008151D01*
X0085748Y0008096D01*
X0085609Y0008046D01*
X0085468Y0007999D01*
X0085327Y0007956D01*
X0085184Y0007916D01*
X0085040Y0007881D01*
X0084896Y0007849D01*
X0084750Y0007822D01*
X0084604Y0007798D01*
X0084457Y0007778D01*
X0084310Y0007762D01*
X0084163Y0007750D01*
X0084015Y0007742D01*
X0083867Y0007738D01*
X0083719Y0007738D01*
X0083571Y0007742D01*
X0083423Y0007750D01*
X0083276Y0007762D01*
X0083129Y0007778D01*
X0082982Y0007798D01*
X0082836Y0007822D01*
X0082690Y0007849D01*
X0082546Y0007881D01*
X0082402Y0007916D01*
X0082259Y0007956D01*
X0082118Y0007999D01*
X0081977Y0008046D01*
X0081838Y0008096D01*
X0081701Y0008151D01*
X0081565Y0008209D01*
X0081430Y0008270D01*
X0081297Y0008335D01*
X0081166Y0008404D01*
X0081037Y0008476D01*
X0080910Y0008552D01*
X0080785Y0008631D01*
X0080662Y0008714D01*
X0080541Y0008799D01*
X0080423Y0008888D01*
X0080307Y0008980D01*
X0080194Y0009076D01*
X0080083Y0009174D01*
X0079975Y0009275D01*
X0079869Y0009379D01*
X0079767Y0009485D01*
X0079667Y0009595D01*
X0079571Y0009707D01*
X0079477Y0009822D01*
X0079386Y0009939D01*
X0079299Y0010058D01*
X0079215Y0010180D01*
X0079134Y0010304D01*
X0079057Y0010430D01*
X0078983Y0010558D01*
X0078912Y0010688D01*
X0078845Y0010820D01*
X0078782Y0010954D01*
X0078722Y0011089D01*
X0078666Y0011226D01*
X0078613Y0011365D01*
X0078565Y0011505D01*
X0078520Y0011646D01*
X0078479Y0011788D01*
X0078441Y0011931D01*
X0078408Y0012075D01*
X0078378Y0012220D01*
X0078352Y0012366D01*
X0078331Y0012512D01*
X0078313Y0012659D01*
X0078299Y0012806D01*
X0078289Y0012954D01*
X0078283Y0013102D01*
X0078281Y0013250D01*
X0078281Y0203250D02*
X0078283Y0203398D01*
X0078289Y0203546D01*
X0078299Y0203694D01*
X0078313Y0203841D01*
X0078331Y0203988D01*
X0078352Y0204134D01*
X0078378Y0204280D01*
X0078408Y0204425D01*
X0078441Y0204569D01*
X0078479Y0204712D01*
X0078520Y0204854D01*
X0078565Y0204995D01*
X0078613Y0205135D01*
X0078666Y0205274D01*
X0078722Y0205411D01*
X0078782Y0205546D01*
X0078845Y0205680D01*
X0078912Y0205812D01*
X0078983Y0205942D01*
X0079057Y0206070D01*
X0079134Y0206196D01*
X0079215Y0206320D01*
X0079299Y0206442D01*
X0079386Y0206561D01*
X0079477Y0206678D01*
X0079571Y0206793D01*
X0079667Y0206905D01*
X0079767Y0207015D01*
X0079869Y0207121D01*
X0079975Y0207225D01*
X0080083Y0207326D01*
X0080194Y0207424D01*
X0080307Y0207520D01*
X0080423Y0207612D01*
X0080541Y0207701D01*
X0080662Y0207786D01*
X0080785Y0207869D01*
X0080910Y0207948D01*
X0081037Y0208024D01*
X0081166Y0208096D01*
X0081297Y0208165D01*
X0081430Y0208230D01*
X0081565Y0208291D01*
X0081701Y0208349D01*
X0081838Y0208404D01*
X0081977Y0208454D01*
X0082118Y0208501D01*
X0082259Y0208544D01*
X0082402Y0208584D01*
X0082546Y0208619D01*
X0082690Y0208651D01*
X0082836Y0208678D01*
X0082982Y0208702D01*
X0083129Y0208722D01*
X0083276Y0208738D01*
X0083423Y0208750D01*
X0083571Y0208758D01*
X0083719Y0208762D01*
X0083867Y0208762D01*
X0084015Y0208758D01*
X0084163Y0208750D01*
X0084310Y0208738D01*
X0084457Y0208722D01*
X0084604Y0208702D01*
X0084750Y0208678D01*
X0084896Y0208651D01*
X0085040Y0208619D01*
X0085184Y0208584D01*
X0085327Y0208544D01*
X0085468Y0208501D01*
X0085609Y0208454D01*
X0085748Y0208404D01*
X0085885Y0208349D01*
X0086021Y0208291D01*
X0086156Y0208230D01*
X0086289Y0208165D01*
X0086420Y0208096D01*
X0086549Y0208024D01*
X0086676Y0207948D01*
X0086801Y0207869D01*
X0086924Y0207786D01*
X0087045Y0207701D01*
X0087163Y0207612D01*
X0087279Y0207520D01*
X0087392Y0207424D01*
X0087503Y0207326D01*
X0087611Y0207225D01*
X0087717Y0207121D01*
X0087819Y0207015D01*
X0087919Y0206905D01*
X0088015Y0206793D01*
X0088109Y0206678D01*
X0088200Y0206561D01*
X0088287Y0206442D01*
X0088371Y0206320D01*
X0088452Y0206196D01*
X0088529Y0206070D01*
X0088603Y0205942D01*
X0088674Y0205812D01*
X0088741Y0205680D01*
X0088804Y0205546D01*
X0088864Y0205411D01*
X0088920Y0205274D01*
X0088973Y0205135D01*
X0089021Y0204995D01*
X0089066Y0204854D01*
X0089107Y0204712D01*
X0089145Y0204569D01*
X0089178Y0204425D01*
X0089208Y0204280D01*
X0089234Y0204134D01*
X0089255Y0203988D01*
X0089273Y0203841D01*
X0089287Y0203694D01*
X0089297Y0203546D01*
X0089303Y0203398D01*
X0089305Y0203250D01*
X0089303Y0203102D01*
X0089297Y0202954D01*
X0089287Y0202806D01*
X0089273Y0202659D01*
X0089255Y0202512D01*
X0089234Y0202366D01*
X0089208Y0202220D01*
X0089178Y0202075D01*
X0089145Y0201931D01*
X0089107Y0201788D01*
X0089066Y0201646D01*
X0089021Y0201505D01*
X0088973Y0201365D01*
X0088920Y0201226D01*
X0088864Y0201089D01*
X0088804Y0200954D01*
X0088741Y0200820D01*
X0088674Y0200688D01*
X0088603Y0200558D01*
X0088529Y0200430D01*
X0088452Y0200304D01*
X0088371Y0200180D01*
X0088287Y0200058D01*
X0088200Y0199939D01*
X0088109Y0199822D01*
X0088015Y0199707D01*
X0087919Y0199595D01*
X0087819Y0199485D01*
X0087717Y0199379D01*
X0087611Y0199275D01*
X0087503Y0199174D01*
X0087392Y0199076D01*
X0087279Y0198980D01*
X0087163Y0198888D01*
X0087045Y0198799D01*
X0086924Y0198714D01*
X0086801Y0198631D01*
X0086676Y0198552D01*
X0086549Y0198476D01*
X0086420Y0198404D01*
X0086289Y0198335D01*
X0086156Y0198270D01*
X0086021Y0198209D01*
X0085885Y0198151D01*
X0085748Y0198096D01*
X0085609Y0198046D01*
X0085468Y0197999D01*
X0085327Y0197956D01*
X0085184Y0197916D01*
X0085040Y0197881D01*
X0084896Y0197849D01*
X0084750Y0197822D01*
X0084604Y0197798D01*
X0084457Y0197778D01*
X0084310Y0197762D01*
X0084163Y0197750D01*
X0084015Y0197742D01*
X0083867Y0197738D01*
X0083719Y0197738D01*
X0083571Y0197742D01*
X0083423Y0197750D01*
X0083276Y0197762D01*
X0083129Y0197778D01*
X0082982Y0197798D01*
X0082836Y0197822D01*
X0082690Y0197849D01*
X0082546Y0197881D01*
X0082402Y0197916D01*
X0082259Y0197956D01*
X0082118Y0197999D01*
X0081977Y0198046D01*
X0081838Y0198096D01*
X0081701Y0198151D01*
X0081565Y0198209D01*
X0081430Y0198270D01*
X0081297Y0198335D01*
X0081166Y0198404D01*
X0081037Y0198476D01*
X0080910Y0198552D01*
X0080785Y0198631D01*
X0080662Y0198714D01*
X0080541Y0198799D01*
X0080423Y0198888D01*
X0080307Y0198980D01*
X0080194Y0199076D01*
X0080083Y0199174D01*
X0079975Y0199275D01*
X0079869Y0199379D01*
X0079767Y0199485D01*
X0079667Y0199595D01*
X0079571Y0199707D01*
X0079477Y0199822D01*
X0079386Y0199939D01*
X0079299Y0200058D01*
X0079215Y0200180D01*
X0079134Y0200304D01*
X0079057Y0200430D01*
X0078983Y0200558D01*
X0078912Y0200688D01*
X0078845Y0200820D01*
X0078782Y0200954D01*
X0078722Y0201089D01*
X0078666Y0201226D01*
X0078613Y0201365D01*
X0078565Y0201505D01*
X0078520Y0201646D01*
X0078479Y0201788D01*
X0078441Y0201931D01*
X0078408Y0202075D01*
X0078378Y0202220D01*
X0078352Y0202366D01*
X0078331Y0202512D01*
X0078313Y0202659D01*
X0078299Y0202806D01*
X0078289Y0202954D01*
X0078283Y0203102D01*
X0078281Y0203250D01*
D12*
X0151293Y0172703D03*
X0151293Y0166797D03*
X0178069Y0156203D03*
X0178069Y0150297D03*
X0185293Y0150297D03*
X0185293Y0156203D03*
X0195293Y0166797D03*
X0195293Y0172703D03*
X0181293Y0098203D03*
X0174919Y0098203D03*
X0174919Y0092297D03*
X0181293Y0092297D03*
X0159793Y0070203D03*
X0159793Y0064297D03*
X0105293Y0068797D03*
X0105293Y0074703D03*
X0083793Y0048203D03*
X0083793Y0042297D03*
X0089793Y0132297D03*
X0096793Y0132297D03*
X0096793Y0138203D03*
X0089793Y0138203D03*
D13*
X0028502Y0107250D03*
X0017085Y0107250D03*
X0018085Y0071250D03*
X0029502Y0071250D03*
G36*
X0203279Y0150187D02*
X0205783Y0152691D01*
X0210235Y0148239D01*
X0207731Y0145735D01*
X0203279Y0150187D01*
G37*
G36*
X0211352Y0158261D02*
X0213856Y0160765D01*
X0218308Y0156313D01*
X0215804Y0153809D01*
X0211352Y0158261D01*
G37*
D14*
G36*
X0217468Y0132921D02*
X0215798Y0131251D01*
X0213294Y0133755D01*
X0214964Y0135425D01*
X0217468Y0132921D01*
G37*
G36*
X0213292Y0128745D02*
X0211622Y0127075D01*
X0209118Y0129579D01*
X0210788Y0131249D01*
X0213292Y0128745D01*
G37*
X0111746Y0157089D03*
X0105841Y0157089D03*
X0102746Y0166250D03*
X0096841Y0166250D03*
X0066746Y0148250D03*
X0060841Y0148250D03*
X0054746Y0148250D03*
X0048841Y0148250D03*
X0048841Y0141250D03*
X0054746Y0141250D03*
X0054746Y0134250D03*
X0048841Y0134250D03*
X0060841Y0134250D03*
X0066746Y0134250D03*
X0066746Y0127250D03*
X0060841Y0127250D03*
X0025746Y0115250D03*
X0019841Y0115250D03*
X0048841Y0158250D03*
X0054746Y0158250D03*
X0054746Y0165250D03*
X0048841Y0165250D03*
X0048841Y0172250D03*
X0054746Y0172250D03*
X0054746Y0179250D03*
X0048841Y0179250D03*
X0048841Y0186250D03*
X0054746Y0186250D03*
X0054746Y0194250D03*
X0048841Y0194250D03*
X0048841Y0202250D03*
X0054746Y0202250D03*
X0023746Y0063250D03*
X0017841Y0063250D03*
D15*
X0017624Y0200018D03*
X0017624Y0208482D03*
X0033963Y0208482D03*
X0033963Y0200018D03*
D16*
X0233793Y0118250D03*
X0238793Y0118250D03*
X0238793Y0113250D03*
X0233793Y0113250D03*
X0233793Y0108250D03*
X0238793Y0108250D03*
D17*
X0193817Y0106533D03*
X0190667Y0106533D03*
X0187518Y0106533D03*
X0184368Y0106533D03*
X0181219Y0106533D03*
X0178069Y0106533D03*
X0174919Y0106533D03*
X0171770Y0106533D03*
X0171770Y0141967D03*
X0174919Y0141967D03*
X0178069Y0141967D03*
X0181219Y0141967D03*
X0184368Y0141967D03*
X0187518Y0141967D03*
X0190667Y0141967D03*
X0193817Y0141967D03*
D18*
X0200510Y0135274D03*
X0200510Y0132124D03*
X0200510Y0128974D03*
X0200510Y0125825D03*
X0200510Y0122675D03*
X0200510Y0119526D03*
X0200510Y0116376D03*
X0200510Y0113226D03*
X0165077Y0113226D03*
X0165077Y0116376D03*
X0165077Y0119526D03*
X0165077Y0122675D03*
X0165077Y0125825D03*
X0165077Y0128974D03*
X0165077Y0132124D03*
X0165077Y0135274D03*
D19*
X0160892Y0164750D03*
X0160892Y0174750D03*
X0185695Y0174750D03*
D20*
X0185301Y0164750D03*
D21*
X0030715Y0177250D03*
X0020872Y0177250D03*
X0020872Y0185250D03*
X0020872Y0193250D03*
X0030715Y0193250D03*
X0030715Y0185250D03*
D22*
X0102793Y0203250D03*
X0112793Y0203250D03*
X0122793Y0203250D03*
X0132793Y0203250D03*
X0142793Y0203250D03*
X0152793Y0203250D03*
X0162793Y0203250D03*
X0172793Y0203250D03*
X0188793Y0203250D03*
X0198793Y0203250D03*
X0208793Y0203250D03*
X0218793Y0203250D03*
X0228793Y0203250D03*
X0238793Y0203250D03*
X0248793Y0203250D03*
X0258793Y0203250D03*
X0259293Y0123250D03*
X0269293Y0123250D03*
X0269293Y0113250D03*
X0259293Y0113250D03*
X0259293Y0103250D03*
X0269293Y0103250D03*
X0258793Y0013250D03*
X0248793Y0013250D03*
X0238793Y0013250D03*
X0228793Y0013250D03*
X0218793Y0013250D03*
X0208793Y0013250D03*
X0188793Y0013250D03*
X0178793Y0013250D03*
X0168793Y0013250D03*
X0158793Y0013250D03*
X0148793Y0013250D03*
X0138793Y0013250D03*
D23*
X0038407Y0141439D03*
X0038407Y0143407D03*
X0038407Y0145376D03*
X0038407Y0147344D03*
X0038407Y0149313D03*
X0038407Y0151281D03*
X0038407Y0155219D03*
X0038407Y0157187D03*
X0038407Y0159156D03*
X0038407Y0161124D03*
X0038407Y0163093D03*
X0038407Y0165061D03*
X0033289Y0162108D03*
X0033289Y0160140D03*
X0033289Y0158171D03*
X0033289Y0156203D03*
X0033289Y0154234D03*
X0033289Y0152266D03*
X0033289Y0150297D03*
X0033289Y0148329D03*
X0033289Y0146360D03*
X0033289Y0144392D03*
D24*
X0033289Y0141045D03*
X0033289Y0165455D03*
D25*
X0034824Y0170258D02*
X0038762Y0170258D01*
X0034824Y0170258D02*
X0034824Y0170258D01*
X0038762Y0170258D01*
X0038762Y0170258D01*
X0018644Y0170258D02*
X0012738Y0170258D01*
X0012738Y0170258D01*
X0018644Y0170258D01*
X0018644Y0170258D01*
X0018644Y0136242D02*
X0012738Y0136242D01*
X0012738Y0136242D01*
X0018644Y0136242D01*
X0018644Y0136242D01*
X0034824Y0136242D02*
X0038762Y0136242D01*
X0034824Y0136242D02*
X0034824Y0136242D01*
X0038762Y0136242D01*
X0038762Y0136242D01*
D26*
X0029793Y0036250D03*
X0044557Y0017352D03*
D27*
X0054400Y0036250D03*
D28*
X0077919Y0149411D03*
X0077919Y0151970D03*
X0077919Y0154530D03*
X0077919Y0157089D03*
X0093667Y0157089D03*
X0093667Y0154530D03*
X0093667Y0151970D03*
X0093667Y0149411D03*
D29*
X0085793Y0153250D03*
D30*
X0084514Y0145376D03*
X0087073Y0145376D03*
X0089632Y0145376D03*
X0081955Y0145376D03*
X0081955Y0161124D03*
X0084514Y0161124D03*
X0087073Y0161124D03*
X0089632Y0161124D03*
D31*
X0082533Y0132581D03*
X0075053Y0132581D03*
X0078793Y0123919D03*
D32*
X0073793Y0052250D03*
D33*
X0072514Y0047427D02*
X0072514Y0045459D01*
X0075073Y0045459D02*
X0075073Y0047427D01*
X0077632Y0047427D02*
X0077632Y0045459D01*
X0069955Y0045459D02*
X0069955Y0047427D01*
X0069955Y0057073D02*
X0069955Y0059041D01*
X0072514Y0059041D02*
X0072514Y0057073D01*
X0075073Y0057073D02*
X0075073Y0059041D01*
X0077632Y0059041D02*
X0077632Y0057073D01*
D34*
X0043589Y0089250D03*
D35*
X0017998Y0089250D03*
X0017998Y0080195D03*
X0017998Y0098305D03*
D36*
X0092793Y0072640D03*
X0092793Y0058860D03*
D37*
X0132793Y0049455D03*
D38*
X0132793Y0075045D03*
X0123738Y0075045D03*
X0141848Y0075045D03*
D39*
X0151793Y0074959D03*
X0151793Y0063541D03*
X0113793Y0063541D03*
X0113793Y0074959D03*
D40*
X0123793Y0087510D03*
X0123793Y0094990D03*
X0143793Y0094990D03*
X0143793Y0087510D03*
X0072793Y0075490D03*
X0072793Y0068010D03*
D41*
X0077632Y0062750D03*
X0076014Y0052250D03*
X0071514Y0052250D03*
X0083793Y0052250D03*
X0092793Y0051250D03*
X0072514Y0041750D03*
X0113793Y0069250D03*
X0141848Y0080250D03*
X0151793Y0079250D03*
X0159793Y0074250D03*
X0174919Y0088750D03*
X0181293Y0088750D03*
X0170793Y0098250D03*
X0184368Y0101250D03*
X0219793Y0137250D03*
X0209293Y0151750D03*
X0212293Y0154750D03*
X0195293Y0163250D03*
X0185293Y0153250D03*
X0181793Y0158250D03*
X0178069Y0153250D03*
X0190793Y0150250D03*
X0151293Y0176250D03*
X0121793Y0161250D03*
X0121793Y0153250D03*
X0105793Y0166250D03*
X0093793Y0166250D03*
X0084514Y0164750D03*
X0085793Y0153250D03*
X0097293Y0149411D03*
X0078793Y0141250D03*
X0069793Y0134250D03*
X0069793Y0127250D03*
X0058793Y0141250D03*
X0060793Y0144250D03*
X0051793Y0144750D03*
X0051793Y0151250D03*
X0051793Y0155750D03*
X0051793Y0161750D03*
X0058793Y0165250D03*
X0058793Y0172250D03*
X0058793Y0179250D03*
X0058793Y0186250D03*
X0065793Y0186250D03*
X0041293Y0165061D03*
X0016793Y0177250D03*
X0016793Y0185250D03*
X0016793Y0193250D03*
X0025793Y0204250D03*
X0041293Y0141439D03*
X0016793Y0115250D03*
X0012793Y0107250D03*
X0012793Y0098250D03*
X0023793Y0071250D03*
X0133793Y0094990D03*
X0169793Y0020250D03*
X0236293Y0098500D03*
X0240043Y0128000D03*
X0248793Y0167250D03*
X0251793Y0167250D03*
X0254793Y0167250D03*
X0119793Y0181250D03*
X0119793Y0184250D03*
D42*
X0215043Y0103000D02*
X0227043Y0103000D01*
X0227043Y0096000D01*
X0228793Y0094250D01*
X0250293Y0094250D01*
X0259293Y0103250D01*
X0233793Y0108250D02*
X0232293Y0108250D01*
X0227043Y0103000D01*
D43*
X0215043Y0103000D02*
X0214793Y0103250D01*
X0096793Y0138203D02*
X0096793Y0140250D01*
X0095793Y0141250D01*
X0087793Y0141250D01*
X0087073Y0141970D01*
X0087073Y0145376D01*
X0077919Y0151970D02*
X0060283Y0151970D01*
X0060196Y0151968D01*
X0060110Y0151962D01*
X0060023Y0151953D01*
X0059937Y0151940D01*
X0059852Y0151923D01*
X0059768Y0151902D01*
X0059685Y0151878D01*
X0059602Y0151850D01*
X0059521Y0151819D01*
X0059442Y0151784D01*
X0059364Y0151745D01*
X0059288Y0151703D01*
X0059214Y0151658D01*
X0059142Y0151610D01*
X0059072Y0151559D01*
X0059004Y0151504D01*
X0058939Y0151447D01*
X0058876Y0151387D01*
X0058816Y0151324D01*
X0058759Y0151259D01*
X0058704Y0151191D01*
X0058653Y0151121D01*
X0058605Y0151049D01*
X0058560Y0150975D01*
X0058518Y0150899D01*
X0058479Y0150821D01*
X0058444Y0150742D01*
X0058413Y0150661D01*
X0058385Y0150578D01*
X0058361Y0150495D01*
X0058340Y0150411D01*
X0058323Y0150326D01*
X0058310Y0150240D01*
X0058301Y0150153D01*
X0058295Y0150067D01*
X0058293Y0149980D01*
X0058291Y0149898D01*
X0058285Y0149816D01*
X0058275Y0149734D01*
X0058262Y0149653D01*
X0058244Y0149572D01*
X0058223Y0149493D01*
X0058198Y0149414D01*
X0058169Y0149337D01*
X0058137Y0149261D01*
X0058101Y0149187D01*
X0058061Y0149115D01*
X0058018Y0149045D01*
X0057972Y0148977D01*
X0057923Y0148911D01*
X0057870Y0148847D01*
X0057815Y0148786D01*
X0057757Y0148728D01*
X0057696Y0148673D01*
X0057632Y0148620D01*
X0057566Y0148571D01*
X0057498Y0148525D01*
X0057428Y0148482D01*
X0057356Y0148442D01*
X0057282Y0148406D01*
X0057206Y0148374D01*
X0057129Y0148345D01*
X0057050Y0148320D01*
X0056971Y0148299D01*
X0056890Y0148281D01*
X0056809Y0148268D01*
X0056727Y0148258D01*
X0056645Y0148252D01*
X0056563Y0148250D01*
X0054746Y0148250D01*
X0051793Y0144750D02*
X0048841Y0144750D01*
X0048841Y0141250D01*
X0048841Y0144750D02*
X0048841Y0148250D01*
X0046388Y0148250D01*
X0046310Y0148252D01*
X0046232Y0148258D01*
X0046154Y0148267D01*
X0046077Y0148281D01*
X0046000Y0148298D01*
X0045925Y0148319D01*
X0045851Y0148343D01*
X0045778Y0148371D01*
X0045706Y0148403D01*
X0045636Y0148438D01*
X0045568Y0148477D01*
X0045502Y0148519D01*
X0045438Y0148564D01*
X0045376Y0148612D01*
X0045317Y0148663D01*
X0045260Y0148717D01*
X0045206Y0148774D01*
X0045155Y0148833D01*
X0045107Y0148895D01*
X0045062Y0148959D01*
X0045020Y0149025D01*
X0044981Y0149093D01*
X0044946Y0149163D01*
X0044914Y0149235D01*
X0044886Y0149308D01*
X0044862Y0149382D01*
X0044841Y0149457D01*
X0044824Y0149534D01*
X0044810Y0149611D01*
X0044801Y0149689D01*
X0044795Y0149767D01*
X0044793Y0149845D01*
X0044794Y0149845D02*
X0044792Y0149920D01*
X0044786Y0149995D01*
X0044776Y0150070D01*
X0044763Y0150144D01*
X0044745Y0150217D01*
X0044724Y0150289D01*
X0044699Y0150360D01*
X0044670Y0150429D01*
X0044637Y0150497D01*
X0044601Y0150564D01*
X0044562Y0150628D01*
X0044520Y0150690D01*
X0044474Y0150749D01*
X0044425Y0150807D01*
X0044373Y0150861D01*
X0044319Y0150913D01*
X0044261Y0150962D01*
X0044202Y0151008D01*
X0044140Y0151050D01*
X0044076Y0151089D01*
X0044009Y0151125D01*
X0043941Y0151158D01*
X0043872Y0151187D01*
X0043801Y0151212D01*
X0043729Y0151233D01*
X0043656Y0151251D01*
X0043582Y0151264D01*
X0043507Y0151274D01*
X0043432Y0151280D01*
X0043357Y0151282D01*
X0043357Y0151281D02*
X0038407Y0151281D01*
X0036293Y0152750D02*
X0050293Y0152750D01*
X0049793Y0153750D02*
X0036293Y0153750D01*
X0035793Y0154219D01*
X0035794Y0154219D02*
X0035793Y0154225D01*
X0035789Y0154230D01*
X0035784Y0154234D01*
X0035778Y0154235D01*
X0035778Y0154234D02*
X0033289Y0154234D01*
X0033289Y0152266D02*
X0035793Y0152266D01*
X0036293Y0152750D01*
X0038407Y0155219D02*
X0043357Y0155219D01*
X0043357Y0155218D02*
X0043432Y0155220D01*
X0043507Y0155226D01*
X0043582Y0155236D01*
X0043656Y0155249D01*
X0043729Y0155267D01*
X0043801Y0155288D01*
X0043872Y0155313D01*
X0043941Y0155342D01*
X0044009Y0155375D01*
X0044076Y0155411D01*
X0044140Y0155450D01*
X0044202Y0155492D01*
X0044261Y0155538D01*
X0044319Y0155587D01*
X0044373Y0155639D01*
X0044425Y0155693D01*
X0044474Y0155751D01*
X0044520Y0155810D01*
X0044562Y0155872D01*
X0044601Y0155937D01*
X0044637Y0156003D01*
X0044670Y0156071D01*
X0044699Y0156140D01*
X0044724Y0156211D01*
X0044745Y0156283D01*
X0044763Y0156356D01*
X0044776Y0156430D01*
X0044786Y0156505D01*
X0044792Y0156580D01*
X0044794Y0156655D01*
X0044793Y0156655D02*
X0044795Y0156733D01*
X0044801Y0156811D01*
X0044810Y0156889D01*
X0044824Y0156966D01*
X0044841Y0157043D01*
X0044862Y0157118D01*
X0044886Y0157192D01*
X0044914Y0157265D01*
X0044946Y0157337D01*
X0044981Y0157407D01*
X0045020Y0157475D01*
X0045062Y0157541D01*
X0045107Y0157605D01*
X0045155Y0157667D01*
X0045206Y0157726D01*
X0045260Y0157783D01*
X0045317Y0157837D01*
X0045376Y0157888D01*
X0045438Y0157936D01*
X0045502Y0157981D01*
X0045568Y0158023D01*
X0045636Y0158062D01*
X0045706Y0158097D01*
X0045778Y0158129D01*
X0045851Y0158157D01*
X0045925Y0158181D01*
X0046000Y0158202D01*
X0046077Y0158219D01*
X0046154Y0158233D01*
X0046232Y0158242D01*
X0046310Y0158248D01*
X0046388Y0158250D01*
X0048841Y0158250D01*
X0048841Y0161750D01*
X0048841Y0165250D01*
X0048841Y0161750D02*
X0051793Y0161750D01*
X0054746Y0158250D02*
X0056699Y0158250D01*
X0056777Y0158248D01*
X0056855Y0158242D01*
X0056933Y0158233D01*
X0057010Y0158219D01*
X0057087Y0158202D01*
X0057162Y0158181D01*
X0057236Y0158157D01*
X0057309Y0158129D01*
X0057381Y0158097D01*
X0057451Y0158062D01*
X0057519Y0158023D01*
X0057585Y0157981D01*
X0057649Y0157936D01*
X0057711Y0157888D01*
X0057770Y0157837D01*
X0057827Y0157783D01*
X0057881Y0157726D01*
X0057932Y0157667D01*
X0057980Y0157605D01*
X0058025Y0157541D01*
X0058067Y0157475D01*
X0058106Y0157407D01*
X0058141Y0157337D01*
X0058173Y0157265D01*
X0058201Y0157192D01*
X0058225Y0157118D01*
X0058246Y0157043D01*
X0058263Y0156966D01*
X0058277Y0156889D01*
X0058286Y0156811D01*
X0058292Y0156733D01*
X0058294Y0156655D01*
X0058293Y0156655D02*
X0058295Y0156565D01*
X0058301Y0156475D01*
X0058310Y0156385D01*
X0058324Y0156296D01*
X0058341Y0156207D01*
X0058362Y0156119D01*
X0058386Y0156032D01*
X0058414Y0155947D01*
X0058446Y0155862D01*
X0058482Y0155779D01*
X0058521Y0155698D01*
X0058563Y0155618D01*
X0058609Y0155540D01*
X0058658Y0155464D01*
X0058710Y0155391D01*
X0058765Y0155319D01*
X0058823Y0155250D01*
X0058884Y0155184D01*
X0058948Y0155120D01*
X0059014Y0155059D01*
X0059083Y0155001D01*
X0059155Y0154946D01*
X0059228Y0154894D01*
X0059304Y0154845D01*
X0059382Y0154799D01*
X0059462Y0154757D01*
X0059543Y0154718D01*
X0059626Y0154682D01*
X0059711Y0154650D01*
X0059796Y0154622D01*
X0059883Y0154598D01*
X0059971Y0154577D01*
X0060060Y0154560D01*
X0060149Y0154546D01*
X0060239Y0154537D01*
X0060329Y0154531D01*
X0060419Y0154529D01*
X0060419Y0154530D02*
X0077919Y0154530D01*
X0051793Y0151250D02*
X0051791Y0151326D01*
X0051785Y0151402D01*
X0051776Y0151477D01*
X0051762Y0151552D01*
X0051745Y0151626D01*
X0051724Y0151699D01*
X0051700Y0151771D01*
X0051671Y0151842D01*
X0051640Y0151911D01*
X0051605Y0151978D01*
X0051566Y0152043D01*
X0051524Y0152107D01*
X0051479Y0152168D01*
X0051431Y0152227D01*
X0051380Y0152283D01*
X0051326Y0152337D01*
X0051270Y0152388D01*
X0051211Y0152436D01*
X0051150Y0152481D01*
X0051086Y0152523D01*
X0051021Y0152562D01*
X0050954Y0152597D01*
X0050885Y0152628D01*
X0050814Y0152657D01*
X0050742Y0152681D01*
X0050669Y0152702D01*
X0050595Y0152719D01*
X0050520Y0152733D01*
X0050445Y0152742D01*
X0050369Y0152748D01*
X0050293Y0152750D01*
X0049793Y0153750D02*
X0049880Y0153752D01*
X0049967Y0153758D01*
X0050054Y0153767D01*
X0050140Y0153780D01*
X0050226Y0153797D01*
X0050311Y0153818D01*
X0050394Y0153843D01*
X0050477Y0153871D01*
X0050558Y0153902D01*
X0050638Y0153937D01*
X0050716Y0153976D01*
X0050793Y0154018D01*
X0050868Y0154063D01*
X0050940Y0154112D01*
X0051011Y0154163D01*
X0051079Y0154218D01*
X0051144Y0154275D01*
X0051207Y0154336D01*
X0051268Y0154399D01*
X0051325Y0154464D01*
X0051380Y0154532D01*
X0051431Y0154603D01*
X0051480Y0154675D01*
X0051525Y0154750D01*
X0051567Y0154827D01*
X0051606Y0154905D01*
X0051641Y0154985D01*
X0051672Y0155066D01*
X0051700Y0155149D01*
X0051725Y0155232D01*
X0051746Y0155317D01*
X0051763Y0155403D01*
X0051776Y0155489D01*
X0051785Y0155576D01*
X0051791Y0155663D01*
X0051793Y0155750D01*
X0043793Y0159480D02*
X0043793Y0168644D01*
X0043795Y0168762D01*
X0043801Y0168880D01*
X0043810Y0168997D01*
X0043824Y0169115D01*
X0043841Y0169231D01*
X0043862Y0169347D01*
X0043887Y0169463D01*
X0043916Y0169577D01*
X0043948Y0169691D01*
X0043984Y0169803D01*
X0044024Y0169914D01*
X0044067Y0170024D01*
X0044114Y0170132D01*
X0044165Y0170239D01*
X0044219Y0170344D01*
X0044276Y0170447D01*
X0044337Y0170548D01*
X0044401Y0170647D01*
X0044468Y0170744D01*
X0044538Y0170839D01*
X0044612Y0170932D01*
X0044688Y0171022D01*
X0044767Y0171109D01*
X0044849Y0171194D01*
X0044934Y0171276D01*
X0045021Y0171355D01*
X0045111Y0171431D01*
X0045204Y0171505D01*
X0045299Y0171575D01*
X0045396Y0171642D01*
X0045495Y0171706D01*
X0045596Y0171767D01*
X0045699Y0171824D01*
X0045804Y0171878D01*
X0045911Y0171929D01*
X0046019Y0171976D01*
X0046129Y0172019D01*
X0046240Y0172059D01*
X0046352Y0172095D01*
X0046466Y0172127D01*
X0046580Y0172156D01*
X0046696Y0172181D01*
X0046812Y0172202D01*
X0046928Y0172219D01*
X0047046Y0172233D01*
X0047163Y0172242D01*
X0047281Y0172248D01*
X0047399Y0172250D01*
X0048841Y0172250D01*
X0043794Y0159480D02*
X0043792Y0159385D01*
X0043786Y0159291D01*
X0043776Y0159196D01*
X0043763Y0159103D01*
X0043745Y0159009D01*
X0043724Y0158917D01*
X0043699Y0158826D01*
X0043670Y0158735D01*
X0043637Y0158646D01*
X0043601Y0158559D01*
X0043561Y0158473D01*
X0043518Y0158389D01*
X0043471Y0158306D01*
X0043421Y0158226D01*
X0043367Y0158148D01*
X0043310Y0158072D01*
X0043251Y0157998D01*
X0043188Y0157927D01*
X0043122Y0157859D01*
X0043054Y0157793D01*
X0042983Y0157730D01*
X0042909Y0157671D01*
X0042833Y0157614D01*
X0042755Y0157560D01*
X0042675Y0157510D01*
X0042592Y0157463D01*
X0042508Y0157420D01*
X0042422Y0157380D01*
X0042335Y0157344D01*
X0042246Y0157311D01*
X0042155Y0157282D01*
X0042064Y0157257D01*
X0041972Y0157236D01*
X0041878Y0157218D01*
X0041785Y0157205D01*
X0041690Y0157195D01*
X0041596Y0157189D01*
X0041501Y0157187D01*
X0038407Y0157187D01*
D44*
X0078793Y0141250D02*
X0080793Y0141250D01*
X0081955Y0142411D01*
X0081955Y0145376D01*
X0089632Y0161124D02*
X0089632Y0164089D01*
X0091793Y0166250D01*
X0093793Y0166250D01*
X0096841Y0166250D01*
X0102746Y0166250D02*
X0105793Y0166250D01*
X0078793Y0123919D02*
X0072463Y0123919D01*
X0067793Y0119250D01*
X0067793Y0073750D01*
X0069793Y0071750D01*
X0074991Y0071750D01*
X0076793Y0069947D01*
X0076793Y0065750D01*
X0075073Y0064030D01*
X0075073Y0058057D01*
X0077632Y0058057D02*
X0077632Y0062750D01*
X0072514Y0066797D02*
X0072514Y0058057D01*
X0069955Y0058057D02*
X0069955Y0062237D01*
X0068942Y0063250D01*
X0066793Y0063250D01*
X0060793Y0063250D01*
X0072514Y0066797D02*
X0072793Y0068010D01*
X0072793Y0075490D02*
X0092793Y0075490D01*
X0092793Y0072640D01*
X0095199Y0075045D01*
X0104793Y0075045D01*
X0105136Y0074703D01*
X0105293Y0074703D01*
X0104793Y0075045D02*
X0114793Y0075045D01*
X0114707Y0074959D01*
X0113793Y0074959D01*
X0114793Y0075045D02*
X0123738Y0075045D01*
X0132793Y0075045D02*
X0132793Y0082644D01*
X0137659Y0087510D01*
X0143793Y0087510D01*
X0141848Y0080250D02*
X0141848Y0075045D01*
X0151793Y0074959D02*
X0151793Y0079250D01*
X0159793Y0074250D02*
X0159793Y0070203D01*
X0167793Y0080250D02*
X0148793Y0099250D01*
X0120793Y0099250D01*
X0117793Y0096250D01*
X0117793Y0090250D01*
X0120533Y0087510D01*
X0123793Y0087510D01*
X0113793Y0069250D02*
X0105746Y0069250D01*
X0105293Y0068797D01*
X0113793Y0069250D02*
X0113793Y0063541D01*
X0092793Y0058860D02*
X0092793Y0051250D01*
X0083793Y0052250D02*
X0083793Y0048203D01*
X0077632Y0046443D02*
X0077632Y0043264D01*
X0078598Y0042297D01*
X0083793Y0042297D01*
X0072514Y0041750D02*
X0072514Y0046443D01*
X0071514Y0052250D02*
X0073793Y0052250D01*
X0147793Y0030250D02*
X0148793Y0029250D01*
X0148793Y0013250D01*
X0158793Y0013250D02*
X0167793Y0022250D01*
X0167793Y0080250D01*
X0170841Y0098203D02*
X0174919Y0098203D01*
X0174919Y0098250D01*
X0170841Y0098203D02*
X0170793Y0098250D01*
X0215381Y0133338D02*
X0219293Y0137250D01*
X0219793Y0137250D01*
X0206757Y0149213D02*
X0209293Y0151750D01*
X0212293Y0154750D02*
X0214830Y0157287D01*
X0185293Y0153250D02*
X0185293Y0150297D01*
X0178069Y0150297D02*
X0178069Y0153250D01*
D45*
X0143793Y0094990D02*
X0137793Y0094990D01*
X0133793Y0094990D01*
X0123793Y0094990D01*
X0123793Y0087510D02*
X0123793Y0075045D01*
X0123738Y0075045D01*
D46*
X0069793Y0127250D02*
X0066746Y0127250D01*
X0060841Y0127250D02*
X0060841Y0134250D01*
X0060841Y0138250D01*
X0075053Y0138250D01*
X0075053Y0132581D01*
X0069793Y0134250D02*
X0066746Y0134250D01*
X0060841Y0134250D02*
X0054746Y0134250D01*
X0048841Y0134250D02*
X0047622Y0134250D01*
X0047519Y0134252D01*
X0047416Y0134258D01*
X0047313Y0134267D01*
X0047210Y0134280D01*
X0047108Y0134297D01*
X0047007Y0134318D01*
X0046907Y0134342D01*
X0046807Y0134370D01*
X0046709Y0134401D01*
X0046612Y0134437D01*
X0046516Y0134475D01*
X0046422Y0134517D01*
X0046329Y0134563D01*
X0046238Y0134612D01*
X0046149Y0134664D01*
X0046062Y0134719D01*
X0045977Y0134778D01*
X0045894Y0134840D01*
X0045813Y0134904D01*
X0045735Y0134972D01*
X0045659Y0135042D01*
X0045586Y0135115D01*
X0045516Y0135191D01*
X0045448Y0135269D01*
X0045384Y0135350D01*
X0045322Y0135433D01*
X0045263Y0135518D01*
X0045208Y0135605D01*
X0045156Y0135694D01*
X0045107Y0135785D01*
X0045061Y0135878D01*
X0045019Y0135972D01*
X0044981Y0136068D01*
X0044945Y0136165D01*
X0044914Y0136263D01*
X0044886Y0136363D01*
X0044862Y0136463D01*
X0044841Y0136564D01*
X0044824Y0136666D01*
X0044811Y0136769D01*
X0044802Y0136872D01*
X0044796Y0136975D01*
X0044794Y0137078D01*
X0044793Y0137078D02*
X0044793Y0142269D01*
X0041293Y0141439D02*
X0038407Y0141439D01*
X0033683Y0141439D01*
X0033289Y0141045D01*
X0035554Y0147990D02*
X0035507Y0148034D01*
X0035457Y0148076D01*
X0035405Y0148115D01*
X0035351Y0148152D01*
X0035295Y0148185D01*
X0035237Y0148214D01*
X0035178Y0148241D01*
X0035117Y0148264D01*
X0035056Y0148284D01*
X0034993Y0148300D01*
X0034929Y0148313D01*
X0034865Y0148322D01*
X0034800Y0148327D01*
X0034735Y0148329D01*
X0033289Y0148329D01*
X0031959Y0148329D01*
X0031867Y0148331D01*
X0031775Y0148337D01*
X0031684Y0148347D01*
X0031593Y0148360D01*
X0031503Y0148378D01*
X0031413Y0148399D01*
X0031325Y0148424D01*
X0031237Y0148453D01*
X0031151Y0148485D01*
X0031067Y0148521D01*
X0030984Y0148561D01*
X0030903Y0148604D01*
X0030823Y0148651D01*
X0030746Y0148700D01*
X0030671Y0148754D01*
X0030598Y0148810D01*
X0030528Y0148869D01*
X0030460Y0148931D01*
X0030395Y0148996D01*
X0030333Y0149064D01*
X0030274Y0149134D01*
X0030218Y0149207D01*
X0030164Y0149282D01*
X0030115Y0149359D01*
X0030068Y0149439D01*
X0030025Y0149520D01*
X0029985Y0149603D01*
X0029949Y0149687D01*
X0029917Y0149773D01*
X0029888Y0149861D01*
X0029863Y0149949D01*
X0029842Y0150039D01*
X0029824Y0150129D01*
X0029811Y0150220D01*
X0029801Y0150311D01*
X0029795Y0150403D01*
X0029793Y0150495D01*
X0029793Y0156005D01*
X0029795Y0156097D01*
X0029801Y0156189D01*
X0029811Y0156280D01*
X0029824Y0156371D01*
X0029842Y0156461D01*
X0029863Y0156551D01*
X0029888Y0156639D01*
X0029917Y0156727D01*
X0029949Y0156813D01*
X0029985Y0156897D01*
X0030025Y0156980D01*
X0030068Y0157061D01*
X0030115Y0157141D01*
X0030164Y0157218D01*
X0030218Y0157293D01*
X0030274Y0157366D01*
X0030333Y0157436D01*
X0030395Y0157504D01*
X0030460Y0157569D01*
X0030528Y0157631D01*
X0030598Y0157690D01*
X0030671Y0157746D01*
X0030746Y0157800D01*
X0030823Y0157849D01*
X0030903Y0157896D01*
X0030984Y0157939D01*
X0031067Y0157979D01*
X0031151Y0158015D01*
X0031237Y0158047D01*
X0031325Y0158076D01*
X0031413Y0158101D01*
X0031503Y0158122D01*
X0031593Y0158140D01*
X0031684Y0158153D01*
X0031775Y0158163D01*
X0031867Y0158169D01*
X0031959Y0158171D01*
X0033289Y0158171D01*
X0034735Y0158171D01*
X0035554Y0158510D02*
X0035882Y0158838D01*
X0036648Y0159156D02*
X0038407Y0159156D01*
X0036648Y0159155D02*
X0036583Y0159153D01*
X0036517Y0159147D01*
X0036453Y0159137D01*
X0036389Y0159124D01*
X0036326Y0159106D01*
X0036264Y0159085D01*
X0036204Y0159060D01*
X0036145Y0159031D01*
X0036088Y0158999D01*
X0036033Y0158963D01*
X0035980Y0158925D01*
X0035930Y0158883D01*
X0035882Y0158838D01*
X0035554Y0158510D02*
X0035507Y0158466D01*
X0035457Y0158424D01*
X0035405Y0158385D01*
X0035351Y0158348D01*
X0035295Y0158315D01*
X0035237Y0158286D01*
X0035178Y0158259D01*
X0035117Y0158236D01*
X0035056Y0158216D01*
X0034993Y0158200D01*
X0034929Y0158187D01*
X0034865Y0158178D01*
X0034800Y0158173D01*
X0034735Y0158171D01*
X0033683Y0165061D02*
X0038407Y0165061D01*
X0041293Y0165061D01*
X0033683Y0165061D02*
X0033289Y0165455D01*
X0036793Y0170258D02*
X0036793Y0172847D01*
X0036795Y0173004D01*
X0036801Y0173161D01*
X0036810Y0173318D01*
X0036824Y0173475D01*
X0036841Y0173631D01*
X0036862Y0173787D01*
X0036887Y0173942D01*
X0036916Y0174096D01*
X0036949Y0174250D01*
X0036985Y0174403D01*
X0037025Y0174555D01*
X0037069Y0174706D01*
X0037116Y0174856D01*
X0037167Y0175004D01*
X0037222Y0175151D01*
X0037280Y0175297D01*
X0037342Y0175442D01*
X0037408Y0175585D01*
X0037477Y0175726D01*
X0037549Y0175865D01*
X0037625Y0176003D01*
X0037704Y0176139D01*
X0037786Y0176273D01*
X0037872Y0176404D01*
X0037961Y0176534D01*
X0038053Y0176661D01*
X0038148Y0176786D01*
X0038246Y0176909D01*
X0038348Y0177029D01*
X0038452Y0177147D01*
X0038559Y0177262D01*
X0038668Y0177375D01*
X0038781Y0177484D01*
X0038896Y0177591D01*
X0039014Y0177695D01*
X0039134Y0177797D01*
X0039257Y0177895D01*
X0039382Y0177990D01*
X0039509Y0178082D01*
X0039639Y0178171D01*
X0039770Y0178257D01*
X0039904Y0178339D01*
X0040040Y0178418D01*
X0040178Y0178494D01*
X0040317Y0178566D01*
X0040458Y0178635D01*
X0040601Y0178701D01*
X0040746Y0178763D01*
X0040892Y0178821D01*
X0041039Y0178876D01*
X0041187Y0178927D01*
X0041337Y0178974D01*
X0041488Y0179018D01*
X0041640Y0179058D01*
X0041793Y0179094D01*
X0041947Y0179127D01*
X0042101Y0179156D01*
X0042256Y0179181D01*
X0042412Y0179202D01*
X0042568Y0179219D01*
X0042725Y0179233D01*
X0042882Y0179242D01*
X0043039Y0179248D01*
X0043196Y0179250D01*
X0048841Y0179250D01*
X0035882Y0147662D02*
X0035930Y0147617D01*
X0035980Y0147575D01*
X0036033Y0147537D01*
X0036088Y0147501D01*
X0036145Y0147469D01*
X0036204Y0147440D01*
X0036264Y0147415D01*
X0036326Y0147394D01*
X0036389Y0147376D01*
X0036453Y0147363D01*
X0036517Y0147353D01*
X0036583Y0147347D01*
X0036648Y0147345D01*
X0036648Y0147344D02*
X0038407Y0147344D01*
X0039717Y0147344D01*
X0035882Y0147662D02*
X0035554Y0147990D01*
X0039717Y0147345D02*
X0039857Y0147343D01*
X0039997Y0147337D01*
X0040136Y0147328D01*
X0040275Y0147314D01*
X0040414Y0147297D01*
X0040552Y0147276D01*
X0040690Y0147251D01*
X0040827Y0147222D01*
X0040963Y0147190D01*
X0041098Y0147153D01*
X0041232Y0147114D01*
X0041365Y0147070D01*
X0041497Y0147023D01*
X0041627Y0146972D01*
X0041756Y0146917D01*
X0041883Y0146860D01*
X0042009Y0146798D01*
X0042133Y0146733D01*
X0042255Y0146665D01*
X0042375Y0146593D01*
X0042493Y0146518D01*
X0042609Y0146440D01*
X0042723Y0146359D01*
X0042835Y0146275D01*
X0042944Y0146187D01*
X0043051Y0146097D01*
X0043155Y0146004D01*
X0043256Y0145907D01*
X0043355Y0145808D01*
X0043452Y0145707D01*
X0043545Y0145603D01*
X0043635Y0145496D01*
X0043723Y0145387D01*
X0043807Y0145275D01*
X0043888Y0145161D01*
X0043966Y0145045D01*
X0044041Y0144927D01*
X0044113Y0144807D01*
X0044181Y0144685D01*
X0044246Y0144561D01*
X0044308Y0144435D01*
X0044365Y0144308D01*
X0044420Y0144179D01*
X0044471Y0144049D01*
X0044518Y0143917D01*
X0044562Y0143784D01*
X0044601Y0143650D01*
X0044638Y0143515D01*
X0044670Y0143379D01*
X0044699Y0143242D01*
X0044724Y0143104D01*
X0044745Y0142966D01*
X0044762Y0142827D01*
X0044776Y0142688D01*
X0044785Y0142549D01*
X0044791Y0142409D01*
X0044793Y0142269D01*
X0075053Y0138250D02*
X0084514Y0138250D01*
X0089793Y0138250D01*
X0089793Y0138203D01*
X0084514Y0138250D02*
X0084514Y0145376D01*
X0082534Y0132581D02*
X0082536Y0132549D01*
X0082541Y0132518D01*
X0082550Y0132488D01*
X0082562Y0132458D01*
X0082577Y0132430D01*
X0082596Y0132405D01*
X0082617Y0132381D01*
X0082641Y0132360D01*
X0082666Y0132341D01*
X0082694Y0132326D01*
X0082724Y0132314D01*
X0082754Y0132305D01*
X0082785Y0132300D01*
X0082817Y0132298D01*
X0082817Y0132297D02*
X0089793Y0132297D01*
X0096793Y0132297D01*
X0019841Y0115250D02*
X0016793Y0115250D01*
X0017085Y0107250D02*
X0012793Y0107250D01*
X0012793Y0098250D02*
X0017943Y0098250D01*
X0017998Y0098305D01*
X0017998Y0080195D02*
X0017246Y0079443D01*
X0017998Y0071250D02*
X0018085Y0071250D01*
X0018085Y0070541D01*
X0017793Y0070250D01*
X0017793Y0063297D01*
X0017841Y0063250D01*
X0023746Y0063250D02*
X0023746Y0071203D01*
X0023793Y0071250D01*
X0029502Y0071250D01*
D47*
X0017998Y0071250D02*
X0017998Y0080195D01*
X0017998Y0071250D02*
X0017998Y0055045D01*
X0021793Y0051250D01*
X0050793Y0051250D01*
X0054400Y0047644D01*
X0054400Y0036250D01*
X0064400Y0026250D01*
X0085793Y0026250D01*
X0105317Y0006727D01*
X0185270Y0006727D01*
X0188793Y0010250D01*
X0188793Y0013250D01*
M02*
