G75*
%MOIN*%
%OFA0B0*%
%FSLAX25Y25*%
%IPPOS*%
%LPD*%
%AMOC8*
5,1,8,0,0,1.08239X$1,22.5*
%
%ADD10C,0.01000*%
%ADD11C,0.00000*%
%ADD12C,0.11424*%
%ADD13R,0.03943X0.02762*%
%ADD14R,0.03943X0.06699*%
%ADD15R,0.02762X0.03943*%
%ADD16R,0.04534X0.02959*%
%ADD17C,0.03500*%
%ADD18C,0.04300*%
%ADD19C,0.09750*%
%ADD20R,0.01975X0.05912*%
%ADD21R,0.05912X0.01975*%
%ADD22R,0.09061X0.05912*%
%ADD23R,0.09849X0.05912*%
%ADD24R,0.04731X0.05321*%
%ADD25C,0.06306*%
%ADD26R,0.03156X0.01581*%
%ADD27R,0.03156X0.04337*%
%ADD28C,0.04731*%
%ADD29R,0.13061X0.13061*%
%ADD30R,0.16998X0.16998*%
%ADD31R,0.03943X0.01778*%
%ADD32R,0.08668X0.08668*%
%ADD33R,0.01778X0.03943*%
%ADD34R,0.04337X0.05912*%
%ADD35R,0.09849X0.06896*%
%ADD36C,0.01778*%
%ADD37R,0.06306X0.16148*%
%ADD38R,0.06306X0.04337*%
%ADD39R,0.06699X0.10243*%
%ADD40R,0.16148X0.06306*%
%ADD41R,0.04337X0.06306*%
%ADD42R,0.06699X0.03943*%
%ADD43R,0.05518X0.03156*%
D10*
X0008793Y0007187D02*
X0008793Y0209313D01*
X0008795Y0209437D01*
X0008801Y0209560D01*
X0008810Y0209684D01*
X0008824Y0209806D01*
X0008841Y0209929D01*
X0008863Y0210051D01*
X0008888Y0210172D01*
X0008917Y0210292D01*
X0008949Y0210411D01*
X0008986Y0210530D01*
X0009026Y0210647D01*
X0009069Y0210762D01*
X0009117Y0210877D01*
X0009168Y0210989D01*
X0009222Y0211100D01*
X0009280Y0211210D01*
X0009341Y0211317D01*
X0009406Y0211423D01*
X0009474Y0211526D01*
X0009545Y0211627D01*
X0009619Y0211726D01*
X0009696Y0211823D01*
X0009777Y0211917D01*
X0009860Y0212008D01*
X0009946Y0212097D01*
X0010035Y0212183D01*
X0010126Y0212266D01*
X0010220Y0212347D01*
X0010317Y0212424D01*
X0010416Y0212498D01*
X0010517Y0212569D01*
X0010620Y0212637D01*
X0010726Y0212702D01*
X0010833Y0212763D01*
X0010943Y0212821D01*
X0011054Y0212875D01*
X0011166Y0212926D01*
X0011281Y0212974D01*
X0011396Y0213017D01*
X0011513Y0213057D01*
X0011632Y0213094D01*
X0011751Y0213126D01*
X0011871Y0213155D01*
X0011992Y0213180D01*
X0012114Y0213202D01*
X0012237Y0213219D01*
X0012359Y0213233D01*
X0012483Y0213242D01*
X0012606Y0213248D01*
X0012730Y0213250D01*
X0263793Y0213250D01*
X0268793Y0208250D01*
X0268793Y0163250D01*
X0278793Y0153250D01*
X0278793Y0023250D01*
X0268793Y0013250D01*
X0268793Y0007187D01*
X0268791Y0007063D01*
X0268785Y0006940D01*
X0268776Y0006816D01*
X0268762Y0006694D01*
X0268745Y0006571D01*
X0268723Y0006449D01*
X0268698Y0006328D01*
X0268669Y0006208D01*
X0268637Y0006089D01*
X0268600Y0005970D01*
X0268560Y0005853D01*
X0268517Y0005738D01*
X0268469Y0005623D01*
X0268418Y0005511D01*
X0268364Y0005400D01*
X0268306Y0005290D01*
X0268245Y0005183D01*
X0268180Y0005077D01*
X0268112Y0004974D01*
X0268041Y0004873D01*
X0267967Y0004774D01*
X0267890Y0004677D01*
X0267809Y0004583D01*
X0267726Y0004492D01*
X0267640Y0004403D01*
X0267551Y0004317D01*
X0267460Y0004234D01*
X0267366Y0004153D01*
X0267269Y0004076D01*
X0267170Y0004002D01*
X0267069Y0003931D01*
X0266966Y0003863D01*
X0266860Y0003798D01*
X0266753Y0003737D01*
X0266643Y0003679D01*
X0266532Y0003625D01*
X0266420Y0003574D01*
X0266305Y0003526D01*
X0266190Y0003483D01*
X0266073Y0003443D01*
X0265954Y0003406D01*
X0265835Y0003374D01*
X0265715Y0003345D01*
X0265594Y0003320D01*
X0265472Y0003298D01*
X0265349Y0003281D01*
X0265227Y0003267D01*
X0265103Y0003258D01*
X0264980Y0003252D01*
X0264856Y0003250D01*
X0012730Y0003250D01*
X0012606Y0003252D01*
X0012483Y0003258D01*
X0012359Y0003267D01*
X0012237Y0003281D01*
X0012114Y0003298D01*
X0011992Y0003320D01*
X0011871Y0003345D01*
X0011751Y0003374D01*
X0011632Y0003406D01*
X0011513Y0003443D01*
X0011396Y0003483D01*
X0011281Y0003526D01*
X0011166Y0003574D01*
X0011054Y0003625D01*
X0010943Y0003679D01*
X0010833Y0003737D01*
X0010726Y0003798D01*
X0010620Y0003863D01*
X0010517Y0003931D01*
X0010416Y0004002D01*
X0010317Y0004076D01*
X0010220Y0004153D01*
X0010126Y0004234D01*
X0010035Y0004317D01*
X0009946Y0004403D01*
X0009860Y0004492D01*
X0009777Y0004583D01*
X0009696Y0004677D01*
X0009619Y0004774D01*
X0009545Y0004873D01*
X0009474Y0004974D01*
X0009406Y0005077D01*
X0009341Y0005183D01*
X0009280Y0005290D01*
X0009222Y0005400D01*
X0009168Y0005511D01*
X0009117Y0005623D01*
X0009069Y0005738D01*
X0009026Y0005853D01*
X0008986Y0005970D01*
X0008949Y0006089D01*
X0008917Y0006208D01*
X0008888Y0006328D01*
X0008863Y0006449D01*
X0008841Y0006571D01*
X0008824Y0006694D01*
X0008810Y0006816D01*
X0008801Y0006940D01*
X0008795Y0007063D01*
X0008793Y0007187D01*
D11*
X0078281Y0013250D02*
X0078283Y0013398D01*
X0078289Y0013546D01*
X0078299Y0013694D01*
X0078313Y0013841D01*
X0078331Y0013988D01*
X0078352Y0014134D01*
X0078378Y0014280D01*
X0078408Y0014425D01*
X0078441Y0014569D01*
X0078479Y0014712D01*
X0078520Y0014854D01*
X0078565Y0014995D01*
X0078613Y0015135D01*
X0078666Y0015274D01*
X0078722Y0015411D01*
X0078782Y0015546D01*
X0078845Y0015680D01*
X0078912Y0015812D01*
X0078983Y0015942D01*
X0079057Y0016070D01*
X0079134Y0016196D01*
X0079215Y0016320D01*
X0079299Y0016442D01*
X0079386Y0016561D01*
X0079477Y0016678D01*
X0079571Y0016793D01*
X0079667Y0016905D01*
X0079767Y0017015D01*
X0079869Y0017121D01*
X0079975Y0017225D01*
X0080083Y0017326D01*
X0080194Y0017424D01*
X0080307Y0017520D01*
X0080423Y0017612D01*
X0080541Y0017701D01*
X0080662Y0017786D01*
X0080785Y0017869D01*
X0080910Y0017948D01*
X0081037Y0018024D01*
X0081166Y0018096D01*
X0081297Y0018165D01*
X0081430Y0018230D01*
X0081565Y0018291D01*
X0081701Y0018349D01*
X0081838Y0018404D01*
X0081977Y0018454D01*
X0082118Y0018501D01*
X0082259Y0018544D01*
X0082402Y0018584D01*
X0082546Y0018619D01*
X0082690Y0018651D01*
X0082836Y0018678D01*
X0082982Y0018702D01*
X0083129Y0018722D01*
X0083276Y0018738D01*
X0083423Y0018750D01*
X0083571Y0018758D01*
X0083719Y0018762D01*
X0083867Y0018762D01*
X0084015Y0018758D01*
X0084163Y0018750D01*
X0084310Y0018738D01*
X0084457Y0018722D01*
X0084604Y0018702D01*
X0084750Y0018678D01*
X0084896Y0018651D01*
X0085040Y0018619D01*
X0085184Y0018584D01*
X0085327Y0018544D01*
X0085468Y0018501D01*
X0085609Y0018454D01*
X0085748Y0018404D01*
X0085885Y0018349D01*
X0086021Y0018291D01*
X0086156Y0018230D01*
X0086289Y0018165D01*
X0086420Y0018096D01*
X0086549Y0018024D01*
X0086676Y0017948D01*
X0086801Y0017869D01*
X0086924Y0017786D01*
X0087045Y0017701D01*
X0087163Y0017612D01*
X0087279Y0017520D01*
X0087392Y0017424D01*
X0087503Y0017326D01*
X0087611Y0017225D01*
X0087717Y0017121D01*
X0087819Y0017015D01*
X0087919Y0016905D01*
X0088015Y0016793D01*
X0088109Y0016678D01*
X0088200Y0016561D01*
X0088287Y0016442D01*
X0088371Y0016320D01*
X0088452Y0016196D01*
X0088529Y0016070D01*
X0088603Y0015942D01*
X0088674Y0015812D01*
X0088741Y0015680D01*
X0088804Y0015546D01*
X0088864Y0015411D01*
X0088920Y0015274D01*
X0088973Y0015135D01*
X0089021Y0014995D01*
X0089066Y0014854D01*
X0089107Y0014712D01*
X0089145Y0014569D01*
X0089178Y0014425D01*
X0089208Y0014280D01*
X0089234Y0014134D01*
X0089255Y0013988D01*
X0089273Y0013841D01*
X0089287Y0013694D01*
X0089297Y0013546D01*
X0089303Y0013398D01*
X0089305Y0013250D01*
X0089303Y0013102D01*
X0089297Y0012954D01*
X0089287Y0012806D01*
X0089273Y0012659D01*
X0089255Y0012512D01*
X0089234Y0012366D01*
X0089208Y0012220D01*
X0089178Y0012075D01*
X0089145Y0011931D01*
X0089107Y0011788D01*
X0089066Y0011646D01*
X0089021Y0011505D01*
X0088973Y0011365D01*
X0088920Y0011226D01*
X0088864Y0011089D01*
X0088804Y0010954D01*
X0088741Y0010820D01*
X0088674Y0010688D01*
X0088603Y0010558D01*
X0088529Y0010430D01*
X0088452Y0010304D01*
X0088371Y0010180D01*
X0088287Y0010058D01*
X0088200Y0009939D01*
X0088109Y0009822D01*
X0088015Y0009707D01*
X0087919Y0009595D01*
X0087819Y0009485D01*
X0087717Y0009379D01*
X0087611Y0009275D01*
X0087503Y0009174D01*
X0087392Y0009076D01*
X0087279Y0008980D01*
X0087163Y0008888D01*
X0087045Y0008799D01*
X0086924Y0008714D01*
X0086801Y0008631D01*
X0086676Y0008552D01*
X0086549Y0008476D01*
X0086420Y0008404D01*
X0086289Y0008335D01*
X0086156Y0008270D01*
X0086021Y0008209D01*
X0085885Y0008151D01*
X0085748Y0008096D01*
X0085609Y0008046D01*
X0085468Y0007999D01*
X0085327Y0007956D01*
X0085184Y0007916D01*
X0085040Y0007881D01*
X0084896Y0007849D01*
X0084750Y0007822D01*
X0084604Y0007798D01*
X0084457Y0007778D01*
X0084310Y0007762D01*
X0084163Y0007750D01*
X0084015Y0007742D01*
X0083867Y0007738D01*
X0083719Y0007738D01*
X0083571Y0007742D01*
X0083423Y0007750D01*
X0083276Y0007762D01*
X0083129Y0007778D01*
X0082982Y0007798D01*
X0082836Y0007822D01*
X0082690Y0007849D01*
X0082546Y0007881D01*
X0082402Y0007916D01*
X0082259Y0007956D01*
X0082118Y0007999D01*
X0081977Y0008046D01*
X0081838Y0008096D01*
X0081701Y0008151D01*
X0081565Y0008209D01*
X0081430Y0008270D01*
X0081297Y0008335D01*
X0081166Y0008404D01*
X0081037Y0008476D01*
X0080910Y0008552D01*
X0080785Y0008631D01*
X0080662Y0008714D01*
X0080541Y0008799D01*
X0080423Y0008888D01*
X0080307Y0008980D01*
X0080194Y0009076D01*
X0080083Y0009174D01*
X0079975Y0009275D01*
X0079869Y0009379D01*
X0079767Y0009485D01*
X0079667Y0009595D01*
X0079571Y0009707D01*
X0079477Y0009822D01*
X0079386Y0009939D01*
X0079299Y0010058D01*
X0079215Y0010180D01*
X0079134Y0010304D01*
X0079057Y0010430D01*
X0078983Y0010558D01*
X0078912Y0010688D01*
X0078845Y0010820D01*
X0078782Y0010954D01*
X0078722Y0011089D01*
X0078666Y0011226D01*
X0078613Y0011365D01*
X0078565Y0011505D01*
X0078520Y0011646D01*
X0078479Y0011788D01*
X0078441Y0011931D01*
X0078408Y0012075D01*
X0078378Y0012220D01*
X0078352Y0012366D01*
X0078331Y0012512D01*
X0078313Y0012659D01*
X0078299Y0012806D01*
X0078289Y0012954D01*
X0078283Y0013102D01*
X0078281Y0013250D01*
X0221618Y0110750D02*
X0221620Y0110887D01*
X0221626Y0111023D01*
X0221636Y0111159D01*
X0221650Y0111295D01*
X0221668Y0111431D01*
X0221690Y0111566D01*
X0221715Y0111700D01*
X0221745Y0111833D01*
X0221779Y0111965D01*
X0221816Y0112097D01*
X0221857Y0112227D01*
X0221903Y0112356D01*
X0221951Y0112484D01*
X0222004Y0112610D01*
X0222060Y0112734D01*
X0222120Y0112857D01*
X0222183Y0112978D01*
X0222250Y0113097D01*
X0222320Y0113214D01*
X0222394Y0113330D01*
X0222471Y0113442D01*
X0222551Y0113553D01*
X0222635Y0113661D01*
X0222722Y0113767D01*
X0222811Y0113870D01*
X0222904Y0113970D01*
X0222999Y0114068D01*
X0223098Y0114163D01*
X0223199Y0114255D01*
X0223303Y0114343D01*
X0223409Y0114429D01*
X0223518Y0114512D01*
X0223629Y0114591D01*
X0223742Y0114668D01*
X0223858Y0114741D01*
X0223975Y0114810D01*
X0224095Y0114876D01*
X0224216Y0114938D01*
X0224340Y0114997D01*
X0224465Y0115053D01*
X0224591Y0115104D01*
X0224719Y0115152D01*
X0224848Y0115196D01*
X0224979Y0115237D01*
X0225111Y0115273D01*
X0225243Y0115306D01*
X0225377Y0115334D01*
X0225511Y0115359D01*
X0225646Y0115380D01*
X0225782Y0115397D01*
X0225918Y0115410D01*
X0226054Y0115419D01*
X0226191Y0115424D01*
X0226327Y0115425D01*
X0226464Y0115422D01*
X0226600Y0115415D01*
X0226736Y0115404D01*
X0226872Y0115389D01*
X0227007Y0115370D01*
X0227142Y0115347D01*
X0227276Y0115320D01*
X0227409Y0115290D01*
X0227541Y0115255D01*
X0227673Y0115217D01*
X0227802Y0115175D01*
X0227931Y0115129D01*
X0228058Y0115079D01*
X0228184Y0115025D01*
X0228308Y0114968D01*
X0228431Y0114908D01*
X0228551Y0114843D01*
X0228670Y0114776D01*
X0228786Y0114705D01*
X0228901Y0114630D01*
X0229013Y0114552D01*
X0229123Y0114471D01*
X0229231Y0114387D01*
X0229336Y0114299D01*
X0229438Y0114209D01*
X0229538Y0114116D01*
X0229635Y0114019D01*
X0229729Y0113920D01*
X0229820Y0113819D01*
X0229908Y0113714D01*
X0229993Y0113607D01*
X0230075Y0113498D01*
X0230154Y0113386D01*
X0230229Y0113272D01*
X0230301Y0113156D01*
X0230370Y0113038D01*
X0230435Y0112918D01*
X0230497Y0112796D01*
X0230555Y0112672D01*
X0230609Y0112547D01*
X0230660Y0112420D01*
X0230706Y0112292D01*
X0230750Y0112162D01*
X0230789Y0112031D01*
X0230825Y0111899D01*
X0230856Y0111766D01*
X0230884Y0111633D01*
X0230908Y0111498D01*
X0230928Y0111363D01*
X0230944Y0111227D01*
X0230956Y0111091D01*
X0230964Y0110955D01*
X0230968Y0110818D01*
X0230968Y0110682D01*
X0230964Y0110545D01*
X0230956Y0110409D01*
X0230944Y0110273D01*
X0230928Y0110137D01*
X0230908Y0110002D01*
X0230884Y0109867D01*
X0230856Y0109734D01*
X0230825Y0109601D01*
X0230789Y0109469D01*
X0230750Y0109338D01*
X0230706Y0109208D01*
X0230660Y0109080D01*
X0230609Y0108953D01*
X0230555Y0108828D01*
X0230497Y0108704D01*
X0230435Y0108582D01*
X0230370Y0108462D01*
X0230301Y0108344D01*
X0230229Y0108228D01*
X0230154Y0108114D01*
X0230075Y0108002D01*
X0229993Y0107893D01*
X0229908Y0107786D01*
X0229820Y0107681D01*
X0229729Y0107580D01*
X0229635Y0107481D01*
X0229538Y0107384D01*
X0229438Y0107291D01*
X0229336Y0107201D01*
X0229231Y0107113D01*
X0229123Y0107029D01*
X0229013Y0106948D01*
X0228901Y0106870D01*
X0228786Y0106795D01*
X0228670Y0106724D01*
X0228551Y0106657D01*
X0228431Y0106592D01*
X0228308Y0106532D01*
X0228184Y0106475D01*
X0228058Y0106421D01*
X0227931Y0106371D01*
X0227802Y0106325D01*
X0227673Y0106283D01*
X0227541Y0106245D01*
X0227409Y0106210D01*
X0227276Y0106180D01*
X0227142Y0106153D01*
X0227007Y0106130D01*
X0226872Y0106111D01*
X0226736Y0106096D01*
X0226600Y0106085D01*
X0226464Y0106078D01*
X0226327Y0106075D01*
X0226191Y0106076D01*
X0226054Y0106081D01*
X0225918Y0106090D01*
X0225782Y0106103D01*
X0225646Y0106120D01*
X0225511Y0106141D01*
X0225377Y0106166D01*
X0225243Y0106194D01*
X0225111Y0106227D01*
X0224979Y0106263D01*
X0224848Y0106304D01*
X0224719Y0106348D01*
X0224591Y0106396D01*
X0224465Y0106447D01*
X0224340Y0106503D01*
X0224216Y0106562D01*
X0224095Y0106624D01*
X0223975Y0106690D01*
X0223858Y0106759D01*
X0223742Y0106832D01*
X0223629Y0106909D01*
X0223518Y0106988D01*
X0223409Y0107071D01*
X0223303Y0107157D01*
X0223199Y0107245D01*
X0223098Y0107337D01*
X0222999Y0107432D01*
X0222904Y0107530D01*
X0222811Y0107630D01*
X0222722Y0107733D01*
X0222635Y0107839D01*
X0222551Y0107947D01*
X0222471Y0108058D01*
X0222394Y0108170D01*
X0222320Y0108286D01*
X0222250Y0108403D01*
X0222183Y0108522D01*
X0222120Y0108643D01*
X0222060Y0108766D01*
X0222004Y0108890D01*
X0221951Y0109016D01*
X0221903Y0109144D01*
X0221857Y0109273D01*
X0221816Y0109403D01*
X0221779Y0109535D01*
X0221745Y0109667D01*
X0221715Y0109800D01*
X0221690Y0109934D01*
X0221668Y0110069D01*
X0221650Y0110205D01*
X0221636Y0110341D01*
X0221626Y0110477D01*
X0221620Y0110613D01*
X0221618Y0110750D01*
X0230343Y0103250D02*
X0230345Y0103338D01*
X0230351Y0103426D01*
X0230361Y0103514D01*
X0230375Y0103601D01*
X0230393Y0103687D01*
X0230414Y0103772D01*
X0230440Y0103857D01*
X0230469Y0103940D01*
X0230502Y0104022D01*
X0230539Y0104102D01*
X0230579Y0104180D01*
X0230623Y0104257D01*
X0230670Y0104331D01*
X0230721Y0104403D01*
X0230774Y0104473D01*
X0230831Y0104541D01*
X0230891Y0104605D01*
X0230954Y0104667D01*
X0231019Y0104726D01*
X0231087Y0104782D01*
X0231158Y0104835D01*
X0231230Y0104885D01*
X0231305Y0104931D01*
X0231382Y0104974D01*
X0231461Y0105014D01*
X0231542Y0105049D01*
X0231624Y0105082D01*
X0231707Y0105110D01*
X0231792Y0105135D01*
X0231878Y0105155D01*
X0231964Y0105172D01*
X0232051Y0105185D01*
X0232139Y0105194D01*
X0232227Y0105199D01*
X0232315Y0105200D01*
X0232403Y0105197D01*
X0232491Y0105190D01*
X0232578Y0105179D01*
X0232665Y0105164D01*
X0232751Y0105145D01*
X0232837Y0105123D01*
X0232921Y0105096D01*
X0233003Y0105066D01*
X0233085Y0105032D01*
X0233165Y0104994D01*
X0233242Y0104953D01*
X0233318Y0104909D01*
X0233392Y0104861D01*
X0233464Y0104809D01*
X0233533Y0104755D01*
X0233600Y0104697D01*
X0233664Y0104637D01*
X0233725Y0104573D01*
X0233784Y0104507D01*
X0233839Y0104439D01*
X0233891Y0104367D01*
X0233940Y0104294D01*
X0233985Y0104219D01*
X0234027Y0104141D01*
X0234066Y0104062D01*
X0234101Y0103981D01*
X0234132Y0103898D01*
X0234159Y0103815D01*
X0234183Y0103730D01*
X0234203Y0103644D01*
X0234219Y0103557D01*
X0234231Y0103470D01*
X0234239Y0103382D01*
X0234243Y0103294D01*
X0234243Y0103206D01*
X0234239Y0103118D01*
X0234231Y0103030D01*
X0234219Y0102943D01*
X0234203Y0102856D01*
X0234183Y0102770D01*
X0234159Y0102685D01*
X0234132Y0102602D01*
X0234101Y0102519D01*
X0234066Y0102438D01*
X0234027Y0102359D01*
X0233985Y0102281D01*
X0233940Y0102206D01*
X0233891Y0102133D01*
X0233839Y0102061D01*
X0233784Y0101993D01*
X0233725Y0101927D01*
X0233664Y0101863D01*
X0233600Y0101803D01*
X0233533Y0101745D01*
X0233464Y0101691D01*
X0233392Y0101639D01*
X0233318Y0101591D01*
X0233242Y0101547D01*
X0233165Y0101506D01*
X0233085Y0101468D01*
X0233003Y0101434D01*
X0232921Y0101404D01*
X0232837Y0101377D01*
X0232751Y0101355D01*
X0232665Y0101336D01*
X0232578Y0101321D01*
X0232491Y0101310D01*
X0232403Y0101303D01*
X0232315Y0101300D01*
X0232227Y0101301D01*
X0232139Y0101306D01*
X0232051Y0101315D01*
X0231964Y0101328D01*
X0231878Y0101345D01*
X0231792Y0101365D01*
X0231707Y0101390D01*
X0231624Y0101418D01*
X0231542Y0101451D01*
X0231461Y0101486D01*
X0231382Y0101526D01*
X0231305Y0101569D01*
X0231230Y0101615D01*
X0231158Y0101665D01*
X0231087Y0101718D01*
X0231019Y0101774D01*
X0230954Y0101833D01*
X0230891Y0101895D01*
X0230831Y0101959D01*
X0230774Y0102027D01*
X0230721Y0102097D01*
X0230670Y0102169D01*
X0230623Y0102243D01*
X0230579Y0102320D01*
X0230539Y0102398D01*
X0230502Y0102478D01*
X0230469Y0102560D01*
X0230440Y0102643D01*
X0230414Y0102728D01*
X0230393Y0102813D01*
X0230375Y0102899D01*
X0230361Y0102986D01*
X0230351Y0103074D01*
X0230345Y0103162D01*
X0230343Y0103250D01*
X0238343Y0103250D02*
X0238345Y0103338D01*
X0238351Y0103426D01*
X0238361Y0103514D01*
X0238375Y0103601D01*
X0238393Y0103687D01*
X0238414Y0103772D01*
X0238440Y0103857D01*
X0238469Y0103940D01*
X0238502Y0104022D01*
X0238539Y0104102D01*
X0238579Y0104180D01*
X0238623Y0104257D01*
X0238670Y0104331D01*
X0238721Y0104403D01*
X0238774Y0104473D01*
X0238831Y0104541D01*
X0238891Y0104605D01*
X0238954Y0104667D01*
X0239019Y0104726D01*
X0239087Y0104782D01*
X0239158Y0104835D01*
X0239230Y0104885D01*
X0239305Y0104931D01*
X0239382Y0104974D01*
X0239461Y0105014D01*
X0239542Y0105049D01*
X0239624Y0105082D01*
X0239707Y0105110D01*
X0239792Y0105135D01*
X0239878Y0105155D01*
X0239964Y0105172D01*
X0240051Y0105185D01*
X0240139Y0105194D01*
X0240227Y0105199D01*
X0240315Y0105200D01*
X0240403Y0105197D01*
X0240491Y0105190D01*
X0240578Y0105179D01*
X0240665Y0105164D01*
X0240751Y0105145D01*
X0240837Y0105123D01*
X0240921Y0105096D01*
X0241003Y0105066D01*
X0241085Y0105032D01*
X0241165Y0104994D01*
X0241242Y0104953D01*
X0241318Y0104909D01*
X0241392Y0104861D01*
X0241464Y0104809D01*
X0241533Y0104755D01*
X0241600Y0104697D01*
X0241664Y0104637D01*
X0241725Y0104573D01*
X0241784Y0104507D01*
X0241839Y0104439D01*
X0241891Y0104367D01*
X0241940Y0104294D01*
X0241985Y0104219D01*
X0242027Y0104141D01*
X0242066Y0104062D01*
X0242101Y0103981D01*
X0242132Y0103898D01*
X0242159Y0103815D01*
X0242183Y0103730D01*
X0242203Y0103644D01*
X0242219Y0103557D01*
X0242231Y0103470D01*
X0242239Y0103382D01*
X0242243Y0103294D01*
X0242243Y0103206D01*
X0242239Y0103118D01*
X0242231Y0103030D01*
X0242219Y0102943D01*
X0242203Y0102856D01*
X0242183Y0102770D01*
X0242159Y0102685D01*
X0242132Y0102602D01*
X0242101Y0102519D01*
X0242066Y0102438D01*
X0242027Y0102359D01*
X0241985Y0102281D01*
X0241940Y0102206D01*
X0241891Y0102133D01*
X0241839Y0102061D01*
X0241784Y0101993D01*
X0241725Y0101927D01*
X0241664Y0101863D01*
X0241600Y0101803D01*
X0241533Y0101745D01*
X0241464Y0101691D01*
X0241392Y0101639D01*
X0241318Y0101591D01*
X0241242Y0101547D01*
X0241165Y0101506D01*
X0241085Y0101468D01*
X0241003Y0101434D01*
X0240921Y0101404D01*
X0240837Y0101377D01*
X0240751Y0101355D01*
X0240665Y0101336D01*
X0240578Y0101321D01*
X0240491Y0101310D01*
X0240403Y0101303D01*
X0240315Y0101300D01*
X0240227Y0101301D01*
X0240139Y0101306D01*
X0240051Y0101315D01*
X0239964Y0101328D01*
X0239878Y0101345D01*
X0239792Y0101365D01*
X0239707Y0101390D01*
X0239624Y0101418D01*
X0239542Y0101451D01*
X0239461Y0101486D01*
X0239382Y0101526D01*
X0239305Y0101569D01*
X0239230Y0101615D01*
X0239158Y0101665D01*
X0239087Y0101718D01*
X0239019Y0101774D01*
X0238954Y0101833D01*
X0238891Y0101895D01*
X0238831Y0101959D01*
X0238774Y0102027D01*
X0238721Y0102097D01*
X0238670Y0102169D01*
X0238623Y0102243D01*
X0238579Y0102320D01*
X0238539Y0102398D01*
X0238502Y0102478D01*
X0238469Y0102560D01*
X0238440Y0102643D01*
X0238414Y0102728D01*
X0238393Y0102813D01*
X0238375Y0102899D01*
X0238361Y0102986D01*
X0238351Y0103074D01*
X0238345Y0103162D01*
X0238343Y0103250D01*
X0241618Y0110750D02*
X0241620Y0110887D01*
X0241626Y0111023D01*
X0241636Y0111159D01*
X0241650Y0111295D01*
X0241668Y0111431D01*
X0241690Y0111566D01*
X0241715Y0111700D01*
X0241745Y0111833D01*
X0241779Y0111965D01*
X0241816Y0112097D01*
X0241857Y0112227D01*
X0241903Y0112356D01*
X0241951Y0112484D01*
X0242004Y0112610D01*
X0242060Y0112734D01*
X0242120Y0112857D01*
X0242183Y0112978D01*
X0242250Y0113097D01*
X0242320Y0113214D01*
X0242394Y0113330D01*
X0242471Y0113442D01*
X0242551Y0113553D01*
X0242635Y0113661D01*
X0242722Y0113767D01*
X0242811Y0113870D01*
X0242904Y0113970D01*
X0242999Y0114068D01*
X0243098Y0114163D01*
X0243199Y0114255D01*
X0243303Y0114343D01*
X0243409Y0114429D01*
X0243518Y0114512D01*
X0243629Y0114591D01*
X0243742Y0114668D01*
X0243858Y0114741D01*
X0243975Y0114810D01*
X0244095Y0114876D01*
X0244216Y0114938D01*
X0244340Y0114997D01*
X0244465Y0115053D01*
X0244591Y0115104D01*
X0244719Y0115152D01*
X0244848Y0115196D01*
X0244979Y0115237D01*
X0245111Y0115273D01*
X0245243Y0115306D01*
X0245377Y0115334D01*
X0245511Y0115359D01*
X0245646Y0115380D01*
X0245782Y0115397D01*
X0245918Y0115410D01*
X0246054Y0115419D01*
X0246191Y0115424D01*
X0246327Y0115425D01*
X0246464Y0115422D01*
X0246600Y0115415D01*
X0246736Y0115404D01*
X0246872Y0115389D01*
X0247007Y0115370D01*
X0247142Y0115347D01*
X0247276Y0115320D01*
X0247409Y0115290D01*
X0247541Y0115255D01*
X0247673Y0115217D01*
X0247802Y0115175D01*
X0247931Y0115129D01*
X0248058Y0115079D01*
X0248184Y0115025D01*
X0248308Y0114968D01*
X0248431Y0114908D01*
X0248551Y0114843D01*
X0248670Y0114776D01*
X0248786Y0114705D01*
X0248901Y0114630D01*
X0249013Y0114552D01*
X0249123Y0114471D01*
X0249231Y0114387D01*
X0249336Y0114299D01*
X0249438Y0114209D01*
X0249538Y0114116D01*
X0249635Y0114019D01*
X0249729Y0113920D01*
X0249820Y0113819D01*
X0249908Y0113714D01*
X0249993Y0113607D01*
X0250075Y0113498D01*
X0250154Y0113386D01*
X0250229Y0113272D01*
X0250301Y0113156D01*
X0250370Y0113038D01*
X0250435Y0112918D01*
X0250497Y0112796D01*
X0250555Y0112672D01*
X0250609Y0112547D01*
X0250660Y0112420D01*
X0250706Y0112292D01*
X0250750Y0112162D01*
X0250789Y0112031D01*
X0250825Y0111899D01*
X0250856Y0111766D01*
X0250884Y0111633D01*
X0250908Y0111498D01*
X0250928Y0111363D01*
X0250944Y0111227D01*
X0250956Y0111091D01*
X0250964Y0110955D01*
X0250968Y0110818D01*
X0250968Y0110682D01*
X0250964Y0110545D01*
X0250956Y0110409D01*
X0250944Y0110273D01*
X0250928Y0110137D01*
X0250908Y0110002D01*
X0250884Y0109867D01*
X0250856Y0109734D01*
X0250825Y0109601D01*
X0250789Y0109469D01*
X0250750Y0109338D01*
X0250706Y0109208D01*
X0250660Y0109080D01*
X0250609Y0108953D01*
X0250555Y0108828D01*
X0250497Y0108704D01*
X0250435Y0108582D01*
X0250370Y0108462D01*
X0250301Y0108344D01*
X0250229Y0108228D01*
X0250154Y0108114D01*
X0250075Y0108002D01*
X0249993Y0107893D01*
X0249908Y0107786D01*
X0249820Y0107681D01*
X0249729Y0107580D01*
X0249635Y0107481D01*
X0249538Y0107384D01*
X0249438Y0107291D01*
X0249336Y0107201D01*
X0249231Y0107113D01*
X0249123Y0107029D01*
X0249013Y0106948D01*
X0248901Y0106870D01*
X0248786Y0106795D01*
X0248670Y0106724D01*
X0248551Y0106657D01*
X0248431Y0106592D01*
X0248308Y0106532D01*
X0248184Y0106475D01*
X0248058Y0106421D01*
X0247931Y0106371D01*
X0247802Y0106325D01*
X0247673Y0106283D01*
X0247541Y0106245D01*
X0247409Y0106210D01*
X0247276Y0106180D01*
X0247142Y0106153D01*
X0247007Y0106130D01*
X0246872Y0106111D01*
X0246736Y0106096D01*
X0246600Y0106085D01*
X0246464Y0106078D01*
X0246327Y0106075D01*
X0246191Y0106076D01*
X0246054Y0106081D01*
X0245918Y0106090D01*
X0245782Y0106103D01*
X0245646Y0106120D01*
X0245511Y0106141D01*
X0245377Y0106166D01*
X0245243Y0106194D01*
X0245111Y0106227D01*
X0244979Y0106263D01*
X0244848Y0106304D01*
X0244719Y0106348D01*
X0244591Y0106396D01*
X0244465Y0106447D01*
X0244340Y0106503D01*
X0244216Y0106562D01*
X0244095Y0106624D01*
X0243975Y0106690D01*
X0243858Y0106759D01*
X0243742Y0106832D01*
X0243629Y0106909D01*
X0243518Y0106988D01*
X0243409Y0107071D01*
X0243303Y0107157D01*
X0243199Y0107245D01*
X0243098Y0107337D01*
X0242999Y0107432D01*
X0242904Y0107530D01*
X0242811Y0107630D01*
X0242722Y0107733D01*
X0242635Y0107839D01*
X0242551Y0107947D01*
X0242471Y0108058D01*
X0242394Y0108170D01*
X0242320Y0108286D01*
X0242250Y0108403D01*
X0242183Y0108522D01*
X0242120Y0108643D01*
X0242060Y0108766D01*
X0242004Y0108890D01*
X0241951Y0109016D01*
X0241903Y0109144D01*
X0241857Y0109273D01*
X0241816Y0109403D01*
X0241779Y0109535D01*
X0241745Y0109667D01*
X0241715Y0109800D01*
X0241690Y0109934D01*
X0241668Y0110069D01*
X0241650Y0110205D01*
X0241636Y0110341D01*
X0241626Y0110477D01*
X0241620Y0110613D01*
X0241618Y0110750D01*
X0241618Y0123250D02*
X0241620Y0123387D01*
X0241626Y0123523D01*
X0241636Y0123659D01*
X0241650Y0123795D01*
X0241668Y0123931D01*
X0241690Y0124066D01*
X0241715Y0124200D01*
X0241745Y0124333D01*
X0241779Y0124465D01*
X0241816Y0124597D01*
X0241857Y0124727D01*
X0241903Y0124856D01*
X0241951Y0124984D01*
X0242004Y0125110D01*
X0242060Y0125234D01*
X0242120Y0125357D01*
X0242183Y0125478D01*
X0242250Y0125597D01*
X0242320Y0125714D01*
X0242394Y0125830D01*
X0242471Y0125942D01*
X0242551Y0126053D01*
X0242635Y0126161D01*
X0242722Y0126267D01*
X0242811Y0126370D01*
X0242904Y0126470D01*
X0242999Y0126568D01*
X0243098Y0126663D01*
X0243199Y0126755D01*
X0243303Y0126843D01*
X0243409Y0126929D01*
X0243518Y0127012D01*
X0243629Y0127091D01*
X0243742Y0127168D01*
X0243858Y0127241D01*
X0243975Y0127310D01*
X0244095Y0127376D01*
X0244216Y0127438D01*
X0244340Y0127497D01*
X0244465Y0127553D01*
X0244591Y0127604D01*
X0244719Y0127652D01*
X0244848Y0127696D01*
X0244979Y0127737D01*
X0245111Y0127773D01*
X0245243Y0127806D01*
X0245377Y0127834D01*
X0245511Y0127859D01*
X0245646Y0127880D01*
X0245782Y0127897D01*
X0245918Y0127910D01*
X0246054Y0127919D01*
X0246191Y0127924D01*
X0246327Y0127925D01*
X0246464Y0127922D01*
X0246600Y0127915D01*
X0246736Y0127904D01*
X0246872Y0127889D01*
X0247007Y0127870D01*
X0247142Y0127847D01*
X0247276Y0127820D01*
X0247409Y0127790D01*
X0247541Y0127755D01*
X0247673Y0127717D01*
X0247802Y0127675D01*
X0247931Y0127629D01*
X0248058Y0127579D01*
X0248184Y0127525D01*
X0248308Y0127468D01*
X0248431Y0127408D01*
X0248551Y0127343D01*
X0248670Y0127276D01*
X0248786Y0127205D01*
X0248901Y0127130D01*
X0249013Y0127052D01*
X0249123Y0126971D01*
X0249231Y0126887D01*
X0249336Y0126799D01*
X0249438Y0126709D01*
X0249538Y0126616D01*
X0249635Y0126519D01*
X0249729Y0126420D01*
X0249820Y0126319D01*
X0249908Y0126214D01*
X0249993Y0126107D01*
X0250075Y0125998D01*
X0250154Y0125886D01*
X0250229Y0125772D01*
X0250301Y0125656D01*
X0250370Y0125538D01*
X0250435Y0125418D01*
X0250497Y0125296D01*
X0250555Y0125172D01*
X0250609Y0125047D01*
X0250660Y0124920D01*
X0250706Y0124792D01*
X0250750Y0124662D01*
X0250789Y0124531D01*
X0250825Y0124399D01*
X0250856Y0124266D01*
X0250884Y0124133D01*
X0250908Y0123998D01*
X0250928Y0123863D01*
X0250944Y0123727D01*
X0250956Y0123591D01*
X0250964Y0123455D01*
X0250968Y0123318D01*
X0250968Y0123182D01*
X0250964Y0123045D01*
X0250956Y0122909D01*
X0250944Y0122773D01*
X0250928Y0122637D01*
X0250908Y0122502D01*
X0250884Y0122367D01*
X0250856Y0122234D01*
X0250825Y0122101D01*
X0250789Y0121969D01*
X0250750Y0121838D01*
X0250706Y0121708D01*
X0250660Y0121580D01*
X0250609Y0121453D01*
X0250555Y0121328D01*
X0250497Y0121204D01*
X0250435Y0121082D01*
X0250370Y0120962D01*
X0250301Y0120844D01*
X0250229Y0120728D01*
X0250154Y0120614D01*
X0250075Y0120502D01*
X0249993Y0120393D01*
X0249908Y0120286D01*
X0249820Y0120181D01*
X0249729Y0120080D01*
X0249635Y0119981D01*
X0249538Y0119884D01*
X0249438Y0119791D01*
X0249336Y0119701D01*
X0249231Y0119613D01*
X0249123Y0119529D01*
X0249013Y0119448D01*
X0248901Y0119370D01*
X0248786Y0119295D01*
X0248670Y0119224D01*
X0248551Y0119157D01*
X0248431Y0119092D01*
X0248308Y0119032D01*
X0248184Y0118975D01*
X0248058Y0118921D01*
X0247931Y0118871D01*
X0247802Y0118825D01*
X0247673Y0118783D01*
X0247541Y0118745D01*
X0247409Y0118710D01*
X0247276Y0118680D01*
X0247142Y0118653D01*
X0247007Y0118630D01*
X0246872Y0118611D01*
X0246736Y0118596D01*
X0246600Y0118585D01*
X0246464Y0118578D01*
X0246327Y0118575D01*
X0246191Y0118576D01*
X0246054Y0118581D01*
X0245918Y0118590D01*
X0245782Y0118603D01*
X0245646Y0118620D01*
X0245511Y0118641D01*
X0245377Y0118666D01*
X0245243Y0118694D01*
X0245111Y0118727D01*
X0244979Y0118763D01*
X0244848Y0118804D01*
X0244719Y0118848D01*
X0244591Y0118896D01*
X0244465Y0118947D01*
X0244340Y0119003D01*
X0244216Y0119062D01*
X0244095Y0119124D01*
X0243975Y0119190D01*
X0243858Y0119259D01*
X0243742Y0119332D01*
X0243629Y0119409D01*
X0243518Y0119488D01*
X0243409Y0119571D01*
X0243303Y0119657D01*
X0243199Y0119745D01*
X0243098Y0119837D01*
X0242999Y0119932D01*
X0242904Y0120030D01*
X0242811Y0120130D01*
X0242722Y0120233D01*
X0242635Y0120339D01*
X0242551Y0120447D01*
X0242471Y0120558D01*
X0242394Y0120670D01*
X0242320Y0120786D01*
X0242250Y0120903D01*
X0242183Y0121022D01*
X0242120Y0121143D01*
X0242060Y0121266D01*
X0242004Y0121390D01*
X0241951Y0121516D01*
X0241903Y0121644D01*
X0241857Y0121773D01*
X0241816Y0121903D01*
X0241779Y0122035D01*
X0241745Y0122167D01*
X0241715Y0122300D01*
X0241690Y0122434D01*
X0241668Y0122569D01*
X0241650Y0122705D01*
X0241636Y0122841D01*
X0241626Y0122977D01*
X0241620Y0123113D01*
X0241618Y0123250D01*
X0234343Y0123250D02*
X0234345Y0123338D01*
X0234351Y0123426D01*
X0234361Y0123514D01*
X0234375Y0123601D01*
X0234393Y0123687D01*
X0234414Y0123772D01*
X0234440Y0123857D01*
X0234469Y0123940D01*
X0234502Y0124022D01*
X0234539Y0124102D01*
X0234579Y0124180D01*
X0234623Y0124257D01*
X0234670Y0124331D01*
X0234721Y0124403D01*
X0234774Y0124473D01*
X0234831Y0124541D01*
X0234891Y0124605D01*
X0234954Y0124667D01*
X0235019Y0124726D01*
X0235087Y0124782D01*
X0235158Y0124835D01*
X0235230Y0124885D01*
X0235305Y0124931D01*
X0235382Y0124974D01*
X0235461Y0125014D01*
X0235542Y0125049D01*
X0235624Y0125082D01*
X0235707Y0125110D01*
X0235792Y0125135D01*
X0235878Y0125155D01*
X0235964Y0125172D01*
X0236051Y0125185D01*
X0236139Y0125194D01*
X0236227Y0125199D01*
X0236315Y0125200D01*
X0236403Y0125197D01*
X0236491Y0125190D01*
X0236578Y0125179D01*
X0236665Y0125164D01*
X0236751Y0125145D01*
X0236837Y0125123D01*
X0236921Y0125096D01*
X0237003Y0125066D01*
X0237085Y0125032D01*
X0237165Y0124994D01*
X0237242Y0124953D01*
X0237318Y0124909D01*
X0237392Y0124861D01*
X0237464Y0124809D01*
X0237533Y0124755D01*
X0237600Y0124697D01*
X0237664Y0124637D01*
X0237725Y0124573D01*
X0237784Y0124507D01*
X0237839Y0124439D01*
X0237891Y0124367D01*
X0237940Y0124294D01*
X0237985Y0124219D01*
X0238027Y0124141D01*
X0238066Y0124062D01*
X0238101Y0123981D01*
X0238132Y0123898D01*
X0238159Y0123815D01*
X0238183Y0123730D01*
X0238203Y0123644D01*
X0238219Y0123557D01*
X0238231Y0123470D01*
X0238239Y0123382D01*
X0238243Y0123294D01*
X0238243Y0123206D01*
X0238239Y0123118D01*
X0238231Y0123030D01*
X0238219Y0122943D01*
X0238203Y0122856D01*
X0238183Y0122770D01*
X0238159Y0122685D01*
X0238132Y0122602D01*
X0238101Y0122519D01*
X0238066Y0122438D01*
X0238027Y0122359D01*
X0237985Y0122281D01*
X0237940Y0122206D01*
X0237891Y0122133D01*
X0237839Y0122061D01*
X0237784Y0121993D01*
X0237725Y0121927D01*
X0237664Y0121863D01*
X0237600Y0121803D01*
X0237533Y0121745D01*
X0237464Y0121691D01*
X0237392Y0121639D01*
X0237318Y0121591D01*
X0237242Y0121547D01*
X0237165Y0121506D01*
X0237085Y0121468D01*
X0237003Y0121434D01*
X0236921Y0121404D01*
X0236837Y0121377D01*
X0236751Y0121355D01*
X0236665Y0121336D01*
X0236578Y0121321D01*
X0236491Y0121310D01*
X0236403Y0121303D01*
X0236315Y0121300D01*
X0236227Y0121301D01*
X0236139Y0121306D01*
X0236051Y0121315D01*
X0235964Y0121328D01*
X0235878Y0121345D01*
X0235792Y0121365D01*
X0235707Y0121390D01*
X0235624Y0121418D01*
X0235542Y0121451D01*
X0235461Y0121486D01*
X0235382Y0121526D01*
X0235305Y0121569D01*
X0235230Y0121615D01*
X0235158Y0121665D01*
X0235087Y0121718D01*
X0235019Y0121774D01*
X0234954Y0121833D01*
X0234891Y0121895D01*
X0234831Y0121959D01*
X0234774Y0122027D01*
X0234721Y0122097D01*
X0234670Y0122169D01*
X0234623Y0122243D01*
X0234579Y0122320D01*
X0234539Y0122398D01*
X0234502Y0122478D01*
X0234469Y0122560D01*
X0234440Y0122643D01*
X0234414Y0122728D01*
X0234393Y0122813D01*
X0234375Y0122899D01*
X0234361Y0122986D01*
X0234351Y0123074D01*
X0234345Y0123162D01*
X0234343Y0123250D01*
X0221618Y0123250D02*
X0221620Y0123387D01*
X0221626Y0123523D01*
X0221636Y0123659D01*
X0221650Y0123795D01*
X0221668Y0123931D01*
X0221690Y0124066D01*
X0221715Y0124200D01*
X0221745Y0124333D01*
X0221779Y0124465D01*
X0221816Y0124597D01*
X0221857Y0124727D01*
X0221903Y0124856D01*
X0221951Y0124984D01*
X0222004Y0125110D01*
X0222060Y0125234D01*
X0222120Y0125357D01*
X0222183Y0125478D01*
X0222250Y0125597D01*
X0222320Y0125714D01*
X0222394Y0125830D01*
X0222471Y0125942D01*
X0222551Y0126053D01*
X0222635Y0126161D01*
X0222722Y0126267D01*
X0222811Y0126370D01*
X0222904Y0126470D01*
X0222999Y0126568D01*
X0223098Y0126663D01*
X0223199Y0126755D01*
X0223303Y0126843D01*
X0223409Y0126929D01*
X0223518Y0127012D01*
X0223629Y0127091D01*
X0223742Y0127168D01*
X0223858Y0127241D01*
X0223975Y0127310D01*
X0224095Y0127376D01*
X0224216Y0127438D01*
X0224340Y0127497D01*
X0224465Y0127553D01*
X0224591Y0127604D01*
X0224719Y0127652D01*
X0224848Y0127696D01*
X0224979Y0127737D01*
X0225111Y0127773D01*
X0225243Y0127806D01*
X0225377Y0127834D01*
X0225511Y0127859D01*
X0225646Y0127880D01*
X0225782Y0127897D01*
X0225918Y0127910D01*
X0226054Y0127919D01*
X0226191Y0127924D01*
X0226327Y0127925D01*
X0226464Y0127922D01*
X0226600Y0127915D01*
X0226736Y0127904D01*
X0226872Y0127889D01*
X0227007Y0127870D01*
X0227142Y0127847D01*
X0227276Y0127820D01*
X0227409Y0127790D01*
X0227541Y0127755D01*
X0227673Y0127717D01*
X0227802Y0127675D01*
X0227931Y0127629D01*
X0228058Y0127579D01*
X0228184Y0127525D01*
X0228308Y0127468D01*
X0228431Y0127408D01*
X0228551Y0127343D01*
X0228670Y0127276D01*
X0228786Y0127205D01*
X0228901Y0127130D01*
X0229013Y0127052D01*
X0229123Y0126971D01*
X0229231Y0126887D01*
X0229336Y0126799D01*
X0229438Y0126709D01*
X0229538Y0126616D01*
X0229635Y0126519D01*
X0229729Y0126420D01*
X0229820Y0126319D01*
X0229908Y0126214D01*
X0229993Y0126107D01*
X0230075Y0125998D01*
X0230154Y0125886D01*
X0230229Y0125772D01*
X0230301Y0125656D01*
X0230370Y0125538D01*
X0230435Y0125418D01*
X0230497Y0125296D01*
X0230555Y0125172D01*
X0230609Y0125047D01*
X0230660Y0124920D01*
X0230706Y0124792D01*
X0230750Y0124662D01*
X0230789Y0124531D01*
X0230825Y0124399D01*
X0230856Y0124266D01*
X0230884Y0124133D01*
X0230908Y0123998D01*
X0230928Y0123863D01*
X0230944Y0123727D01*
X0230956Y0123591D01*
X0230964Y0123455D01*
X0230968Y0123318D01*
X0230968Y0123182D01*
X0230964Y0123045D01*
X0230956Y0122909D01*
X0230944Y0122773D01*
X0230928Y0122637D01*
X0230908Y0122502D01*
X0230884Y0122367D01*
X0230856Y0122234D01*
X0230825Y0122101D01*
X0230789Y0121969D01*
X0230750Y0121838D01*
X0230706Y0121708D01*
X0230660Y0121580D01*
X0230609Y0121453D01*
X0230555Y0121328D01*
X0230497Y0121204D01*
X0230435Y0121082D01*
X0230370Y0120962D01*
X0230301Y0120844D01*
X0230229Y0120728D01*
X0230154Y0120614D01*
X0230075Y0120502D01*
X0229993Y0120393D01*
X0229908Y0120286D01*
X0229820Y0120181D01*
X0229729Y0120080D01*
X0229635Y0119981D01*
X0229538Y0119884D01*
X0229438Y0119791D01*
X0229336Y0119701D01*
X0229231Y0119613D01*
X0229123Y0119529D01*
X0229013Y0119448D01*
X0228901Y0119370D01*
X0228786Y0119295D01*
X0228670Y0119224D01*
X0228551Y0119157D01*
X0228431Y0119092D01*
X0228308Y0119032D01*
X0228184Y0118975D01*
X0228058Y0118921D01*
X0227931Y0118871D01*
X0227802Y0118825D01*
X0227673Y0118783D01*
X0227541Y0118745D01*
X0227409Y0118710D01*
X0227276Y0118680D01*
X0227142Y0118653D01*
X0227007Y0118630D01*
X0226872Y0118611D01*
X0226736Y0118596D01*
X0226600Y0118585D01*
X0226464Y0118578D01*
X0226327Y0118575D01*
X0226191Y0118576D01*
X0226054Y0118581D01*
X0225918Y0118590D01*
X0225782Y0118603D01*
X0225646Y0118620D01*
X0225511Y0118641D01*
X0225377Y0118666D01*
X0225243Y0118694D01*
X0225111Y0118727D01*
X0224979Y0118763D01*
X0224848Y0118804D01*
X0224719Y0118848D01*
X0224591Y0118896D01*
X0224465Y0118947D01*
X0224340Y0119003D01*
X0224216Y0119062D01*
X0224095Y0119124D01*
X0223975Y0119190D01*
X0223858Y0119259D01*
X0223742Y0119332D01*
X0223629Y0119409D01*
X0223518Y0119488D01*
X0223409Y0119571D01*
X0223303Y0119657D01*
X0223199Y0119745D01*
X0223098Y0119837D01*
X0222999Y0119932D01*
X0222904Y0120030D01*
X0222811Y0120130D01*
X0222722Y0120233D01*
X0222635Y0120339D01*
X0222551Y0120447D01*
X0222471Y0120558D01*
X0222394Y0120670D01*
X0222320Y0120786D01*
X0222250Y0120903D01*
X0222183Y0121022D01*
X0222120Y0121143D01*
X0222060Y0121266D01*
X0222004Y0121390D01*
X0221951Y0121516D01*
X0221903Y0121644D01*
X0221857Y0121773D01*
X0221816Y0121903D01*
X0221779Y0122035D01*
X0221745Y0122167D01*
X0221715Y0122300D01*
X0221690Y0122434D01*
X0221668Y0122569D01*
X0221650Y0122705D01*
X0221636Y0122841D01*
X0221626Y0122977D01*
X0221620Y0123113D01*
X0221618Y0123250D01*
X0263281Y0143250D02*
X0263283Y0143398D01*
X0263289Y0143546D01*
X0263299Y0143694D01*
X0263313Y0143841D01*
X0263331Y0143988D01*
X0263352Y0144134D01*
X0263378Y0144280D01*
X0263408Y0144425D01*
X0263441Y0144569D01*
X0263479Y0144712D01*
X0263520Y0144854D01*
X0263565Y0144995D01*
X0263613Y0145135D01*
X0263666Y0145274D01*
X0263722Y0145411D01*
X0263782Y0145546D01*
X0263845Y0145680D01*
X0263912Y0145812D01*
X0263983Y0145942D01*
X0264057Y0146070D01*
X0264134Y0146196D01*
X0264215Y0146320D01*
X0264299Y0146442D01*
X0264386Y0146561D01*
X0264477Y0146678D01*
X0264571Y0146793D01*
X0264667Y0146905D01*
X0264767Y0147015D01*
X0264869Y0147121D01*
X0264975Y0147225D01*
X0265083Y0147326D01*
X0265194Y0147424D01*
X0265307Y0147520D01*
X0265423Y0147612D01*
X0265541Y0147701D01*
X0265662Y0147786D01*
X0265785Y0147869D01*
X0265910Y0147948D01*
X0266037Y0148024D01*
X0266166Y0148096D01*
X0266297Y0148165D01*
X0266430Y0148230D01*
X0266565Y0148291D01*
X0266701Y0148349D01*
X0266838Y0148404D01*
X0266977Y0148454D01*
X0267118Y0148501D01*
X0267259Y0148544D01*
X0267402Y0148584D01*
X0267546Y0148619D01*
X0267690Y0148651D01*
X0267836Y0148678D01*
X0267982Y0148702D01*
X0268129Y0148722D01*
X0268276Y0148738D01*
X0268423Y0148750D01*
X0268571Y0148758D01*
X0268719Y0148762D01*
X0268867Y0148762D01*
X0269015Y0148758D01*
X0269163Y0148750D01*
X0269310Y0148738D01*
X0269457Y0148722D01*
X0269604Y0148702D01*
X0269750Y0148678D01*
X0269896Y0148651D01*
X0270040Y0148619D01*
X0270184Y0148584D01*
X0270327Y0148544D01*
X0270468Y0148501D01*
X0270609Y0148454D01*
X0270748Y0148404D01*
X0270885Y0148349D01*
X0271021Y0148291D01*
X0271156Y0148230D01*
X0271289Y0148165D01*
X0271420Y0148096D01*
X0271549Y0148024D01*
X0271676Y0147948D01*
X0271801Y0147869D01*
X0271924Y0147786D01*
X0272045Y0147701D01*
X0272163Y0147612D01*
X0272279Y0147520D01*
X0272392Y0147424D01*
X0272503Y0147326D01*
X0272611Y0147225D01*
X0272717Y0147121D01*
X0272819Y0147015D01*
X0272919Y0146905D01*
X0273015Y0146793D01*
X0273109Y0146678D01*
X0273200Y0146561D01*
X0273287Y0146442D01*
X0273371Y0146320D01*
X0273452Y0146196D01*
X0273529Y0146070D01*
X0273603Y0145942D01*
X0273674Y0145812D01*
X0273741Y0145680D01*
X0273804Y0145546D01*
X0273864Y0145411D01*
X0273920Y0145274D01*
X0273973Y0145135D01*
X0274021Y0144995D01*
X0274066Y0144854D01*
X0274107Y0144712D01*
X0274145Y0144569D01*
X0274178Y0144425D01*
X0274208Y0144280D01*
X0274234Y0144134D01*
X0274255Y0143988D01*
X0274273Y0143841D01*
X0274287Y0143694D01*
X0274297Y0143546D01*
X0274303Y0143398D01*
X0274305Y0143250D01*
X0274303Y0143102D01*
X0274297Y0142954D01*
X0274287Y0142806D01*
X0274273Y0142659D01*
X0274255Y0142512D01*
X0274234Y0142366D01*
X0274208Y0142220D01*
X0274178Y0142075D01*
X0274145Y0141931D01*
X0274107Y0141788D01*
X0274066Y0141646D01*
X0274021Y0141505D01*
X0273973Y0141365D01*
X0273920Y0141226D01*
X0273864Y0141089D01*
X0273804Y0140954D01*
X0273741Y0140820D01*
X0273674Y0140688D01*
X0273603Y0140558D01*
X0273529Y0140430D01*
X0273452Y0140304D01*
X0273371Y0140180D01*
X0273287Y0140058D01*
X0273200Y0139939D01*
X0273109Y0139822D01*
X0273015Y0139707D01*
X0272919Y0139595D01*
X0272819Y0139485D01*
X0272717Y0139379D01*
X0272611Y0139275D01*
X0272503Y0139174D01*
X0272392Y0139076D01*
X0272279Y0138980D01*
X0272163Y0138888D01*
X0272045Y0138799D01*
X0271924Y0138714D01*
X0271801Y0138631D01*
X0271676Y0138552D01*
X0271549Y0138476D01*
X0271420Y0138404D01*
X0271289Y0138335D01*
X0271156Y0138270D01*
X0271021Y0138209D01*
X0270885Y0138151D01*
X0270748Y0138096D01*
X0270609Y0138046D01*
X0270468Y0137999D01*
X0270327Y0137956D01*
X0270184Y0137916D01*
X0270040Y0137881D01*
X0269896Y0137849D01*
X0269750Y0137822D01*
X0269604Y0137798D01*
X0269457Y0137778D01*
X0269310Y0137762D01*
X0269163Y0137750D01*
X0269015Y0137742D01*
X0268867Y0137738D01*
X0268719Y0137738D01*
X0268571Y0137742D01*
X0268423Y0137750D01*
X0268276Y0137762D01*
X0268129Y0137778D01*
X0267982Y0137798D01*
X0267836Y0137822D01*
X0267690Y0137849D01*
X0267546Y0137881D01*
X0267402Y0137916D01*
X0267259Y0137956D01*
X0267118Y0137999D01*
X0266977Y0138046D01*
X0266838Y0138096D01*
X0266701Y0138151D01*
X0266565Y0138209D01*
X0266430Y0138270D01*
X0266297Y0138335D01*
X0266166Y0138404D01*
X0266037Y0138476D01*
X0265910Y0138552D01*
X0265785Y0138631D01*
X0265662Y0138714D01*
X0265541Y0138799D01*
X0265423Y0138888D01*
X0265307Y0138980D01*
X0265194Y0139076D01*
X0265083Y0139174D01*
X0264975Y0139275D01*
X0264869Y0139379D01*
X0264767Y0139485D01*
X0264667Y0139595D01*
X0264571Y0139707D01*
X0264477Y0139822D01*
X0264386Y0139939D01*
X0264299Y0140058D01*
X0264215Y0140180D01*
X0264134Y0140304D01*
X0264057Y0140430D01*
X0263983Y0140558D01*
X0263912Y0140688D01*
X0263845Y0140820D01*
X0263782Y0140954D01*
X0263722Y0141089D01*
X0263666Y0141226D01*
X0263613Y0141365D01*
X0263565Y0141505D01*
X0263520Y0141646D01*
X0263479Y0141788D01*
X0263441Y0141931D01*
X0263408Y0142075D01*
X0263378Y0142220D01*
X0263352Y0142366D01*
X0263331Y0142512D01*
X0263313Y0142659D01*
X0263299Y0142806D01*
X0263289Y0142954D01*
X0263283Y0143102D01*
X0263281Y0143250D01*
X0263281Y0033250D02*
X0263283Y0033398D01*
X0263289Y0033546D01*
X0263299Y0033694D01*
X0263313Y0033841D01*
X0263331Y0033988D01*
X0263352Y0034134D01*
X0263378Y0034280D01*
X0263408Y0034425D01*
X0263441Y0034569D01*
X0263479Y0034712D01*
X0263520Y0034854D01*
X0263565Y0034995D01*
X0263613Y0035135D01*
X0263666Y0035274D01*
X0263722Y0035411D01*
X0263782Y0035546D01*
X0263845Y0035680D01*
X0263912Y0035812D01*
X0263983Y0035942D01*
X0264057Y0036070D01*
X0264134Y0036196D01*
X0264215Y0036320D01*
X0264299Y0036442D01*
X0264386Y0036561D01*
X0264477Y0036678D01*
X0264571Y0036793D01*
X0264667Y0036905D01*
X0264767Y0037015D01*
X0264869Y0037121D01*
X0264975Y0037225D01*
X0265083Y0037326D01*
X0265194Y0037424D01*
X0265307Y0037520D01*
X0265423Y0037612D01*
X0265541Y0037701D01*
X0265662Y0037786D01*
X0265785Y0037869D01*
X0265910Y0037948D01*
X0266037Y0038024D01*
X0266166Y0038096D01*
X0266297Y0038165D01*
X0266430Y0038230D01*
X0266565Y0038291D01*
X0266701Y0038349D01*
X0266838Y0038404D01*
X0266977Y0038454D01*
X0267118Y0038501D01*
X0267259Y0038544D01*
X0267402Y0038584D01*
X0267546Y0038619D01*
X0267690Y0038651D01*
X0267836Y0038678D01*
X0267982Y0038702D01*
X0268129Y0038722D01*
X0268276Y0038738D01*
X0268423Y0038750D01*
X0268571Y0038758D01*
X0268719Y0038762D01*
X0268867Y0038762D01*
X0269015Y0038758D01*
X0269163Y0038750D01*
X0269310Y0038738D01*
X0269457Y0038722D01*
X0269604Y0038702D01*
X0269750Y0038678D01*
X0269896Y0038651D01*
X0270040Y0038619D01*
X0270184Y0038584D01*
X0270327Y0038544D01*
X0270468Y0038501D01*
X0270609Y0038454D01*
X0270748Y0038404D01*
X0270885Y0038349D01*
X0271021Y0038291D01*
X0271156Y0038230D01*
X0271289Y0038165D01*
X0271420Y0038096D01*
X0271549Y0038024D01*
X0271676Y0037948D01*
X0271801Y0037869D01*
X0271924Y0037786D01*
X0272045Y0037701D01*
X0272163Y0037612D01*
X0272279Y0037520D01*
X0272392Y0037424D01*
X0272503Y0037326D01*
X0272611Y0037225D01*
X0272717Y0037121D01*
X0272819Y0037015D01*
X0272919Y0036905D01*
X0273015Y0036793D01*
X0273109Y0036678D01*
X0273200Y0036561D01*
X0273287Y0036442D01*
X0273371Y0036320D01*
X0273452Y0036196D01*
X0273529Y0036070D01*
X0273603Y0035942D01*
X0273674Y0035812D01*
X0273741Y0035680D01*
X0273804Y0035546D01*
X0273864Y0035411D01*
X0273920Y0035274D01*
X0273973Y0035135D01*
X0274021Y0034995D01*
X0274066Y0034854D01*
X0274107Y0034712D01*
X0274145Y0034569D01*
X0274178Y0034425D01*
X0274208Y0034280D01*
X0274234Y0034134D01*
X0274255Y0033988D01*
X0274273Y0033841D01*
X0274287Y0033694D01*
X0274297Y0033546D01*
X0274303Y0033398D01*
X0274305Y0033250D01*
X0274303Y0033102D01*
X0274297Y0032954D01*
X0274287Y0032806D01*
X0274273Y0032659D01*
X0274255Y0032512D01*
X0274234Y0032366D01*
X0274208Y0032220D01*
X0274178Y0032075D01*
X0274145Y0031931D01*
X0274107Y0031788D01*
X0274066Y0031646D01*
X0274021Y0031505D01*
X0273973Y0031365D01*
X0273920Y0031226D01*
X0273864Y0031089D01*
X0273804Y0030954D01*
X0273741Y0030820D01*
X0273674Y0030688D01*
X0273603Y0030558D01*
X0273529Y0030430D01*
X0273452Y0030304D01*
X0273371Y0030180D01*
X0273287Y0030058D01*
X0273200Y0029939D01*
X0273109Y0029822D01*
X0273015Y0029707D01*
X0272919Y0029595D01*
X0272819Y0029485D01*
X0272717Y0029379D01*
X0272611Y0029275D01*
X0272503Y0029174D01*
X0272392Y0029076D01*
X0272279Y0028980D01*
X0272163Y0028888D01*
X0272045Y0028799D01*
X0271924Y0028714D01*
X0271801Y0028631D01*
X0271676Y0028552D01*
X0271549Y0028476D01*
X0271420Y0028404D01*
X0271289Y0028335D01*
X0271156Y0028270D01*
X0271021Y0028209D01*
X0270885Y0028151D01*
X0270748Y0028096D01*
X0270609Y0028046D01*
X0270468Y0027999D01*
X0270327Y0027956D01*
X0270184Y0027916D01*
X0270040Y0027881D01*
X0269896Y0027849D01*
X0269750Y0027822D01*
X0269604Y0027798D01*
X0269457Y0027778D01*
X0269310Y0027762D01*
X0269163Y0027750D01*
X0269015Y0027742D01*
X0268867Y0027738D01*
X0268719Y0027738D01*
X0268571Y0027742D01*
X0268423Y0027750D01*
X0268276Y0027762D01*
X0268129Y0027778D01*
X0267982Y0027798D01*
X0267836Y0027822D01*
X0267690Y0027849D01*
X0267546Y0027881D01*
X0267402Y0027916D01*
X0267259Y0027956D01*
X0267118Y0027999D01*
X0266977Y0028046D01*
X0266838Y0028096D01*
X0266701Y0028151D01*
X0266565Y0028209D01*
X0266430Y0028270D01*
X0266297Y0028335D01*
X0266166Y0028404D01*
X0266037Y0028476D01*
X0265910Y0028552D01*
X0265785Y0028631D01*
X0265662Y0028714D01*
X0265541Y0028799D01*
X0265423Y0028888D01*
X0265307Y0028980D01*
X0265194Y0029076D01*
X0265083Y0029174D01*
X0264975Y0029275D01*
X0264869Y0029379D01*
X0264767Y0029485D01*
X0264667Y0029595D01*
X0264571Y0029707D01*
X0264477Y0029822D01*
X0264386Y0029939D01*
X0264299Y0030058D01*
X0264215Y0030180D01*
X0264134Y0030304D01*
X0264057Y0030430D01*
X0263983Y0030558D01*
X0263912Y0030688D01*
X0263845Y0030820D01*
X0263782Y0030954D01*
X0263722Y0031089D01*
X0263666Y0031226D01*
X0263613Y0031365D01*
X0263565Y0031505D01*
X0263520Y0031646D01*
X0263479Y0031788D01*
X0263441Y0031931D01*
X0263408Y0032075D01*
X0263378Y0032220D01*
X0263352Y0032366D01*
X0263331Y0032512D01*
X0263313Y0032659D01*
X0263299Y0032806D01*
X0263289Y0032954D01*
X0263283Y0033102D01*
X0263281Y0033250D01*
X0078281Y0203250D02*
X0078283Y0203398D01*
X0078289Y0203546D01*
X0078299Y0203694D01*
X0078313Y0203841D01*
X0078331Y0203988D01*
X0078352Y0204134D01*
X0078378Y0204280D01*
X0078408Y0204425D01*
X0078441Y0204569D01*
X0078479Y0204712D01*
X0078520Y0204854D01*
X0078565Y0204995D01*
X0078613Y0205135D01*
X0078666Y0205274D01*
X0078722Y0205411D01*
X0078782Y0205546D01*
X0078845Y0205680D01*
X0078912Y0205812D01*
X0078983Y0205942D01*
X0079057Y0206070D01*
X0079134Y0206196D01*
X0079215Y0206320D01*
X0079299Y0206442D01*
X0079386Y0206561D01*
X0079477Y0206678D01*
X0079571Y0206793D01*
X0079667Y0206905D01*
X0079767Y0207015D01*
X0079869Y0207121D01*
X0079975Y0207225D01*
X0080083Y0207326D01*
X0080194Y0207424D01*
X0080307Y0207520D01*
X0080423Y0207612D01*
X0080541Y0207701D01*
X0080662Y0207786D01*
X0080785Y0207869D01*
X0080910Y0207948D01*
X0081037Y0208024D01*
X0081166Y0208096D01*
X0081297Y0208165D01*
X0081430Y0208230D01*
X0081565Y0208291D01*
X0081701Y0208349D01*
X0081838Y0208404D01*
X0081977Y0208454D01*
X0082118Y0208501D01*
X0082259Y0208544D01*
X0082402Y0208584D01*
X0082546Y0208619D01*
X0082690Y0208651D01*
X0082836Y0208678D01*
X0082982Y0208702D01*
X0083129Y0208722D01*
X0083276Y0208738D01*
X0083423Y0208750D01*
X0083571Y0208758D01*
X0083719Y0208762D01*
X0083867Y0208762D01*
X0084015Y0208758D01*
X0084163Y0208750D01*
X0084310Y0208738D01*
X0084457Y0208722D01*
X0084604Y0208702D01*
X0084750Y0208678D01*
X0084896Y0208651D01*
X0085040Y0208619D01*
X0085184Y0208584D01*
X0085327Y0208544D01*
X0085468Y0208501D01*
X0085609Y0208454D01*
X0085748Y0208404D01*
X0085885Y0208349D01*
X0086021Y0208291D01*
X0086156Y0208230D01*
X0086289Y0208165D01*
X0086420Y0208096D01*
X0086549Y0208024D01*
X0086676Y0207948D01*
X0086801Y0207869D01*
X0086924Y0207786D01*
X0087045Y0207701D01*
X0087163Y0207612D01*
X0087279Y0207520D01*
X0087392Y0207424D01*
X0087503Y0207326D01*
X0087611Y0207225D01*
X0087717Y0207121D01*
X0087819Y0207015D01*
X0087919Y0206905D01*
X0088015Y0206793D01*
X0088109Y0206678D01*
X0088200Y0206561D01*
X0088287Y0206442D01*
X0088371Y0206320D01*
X0088452Y0206196D01*
X0088529Y0206070D01*
X0088603Y0205942D01*
X0088674Y0205812D01*
X0088741Y0205680D01*
X0088804Y0205546D01*
X0088864Y0205411D01*
X0088920Y0205274D01*
X0088973Y0205135D01*
X0089021Y0204995D01*
X0089066Y0204854D01*
X0089107Y0204712D01*
X0089145Y0204569D01*
X0089178Y0204425D01*
X0089208Y0204280D01*
X0089234Y0204134D01*
X0089255Y0203988D01*
X0089273Y0203841D01*
X0089287Y0203694D01*
X0089297Y0203546D01*
X0089303Y0203398D01*
X0089305Y0203250D01*
X0089303Y0203102D01*
X0089297Y0202954D01*
X0089287Y0202806D01*
X0089273Y0202659D01*
X0089255Y0202512D01*
X0089234Y0202366D01*
X0089208Y0202220D01*
X0089178Y0202075D01*
X0089145Y0201931D01*
X0089107Y0201788D01*
X0089066Y0201646D01*
X0089021Y0201505D01*
X0088973Y0201365D01*
X0088920Y0201226D01*
X0088864Y0201089D01*
X0088804Y0200954D01*
X0088741Y0200820D01*
X0088674Y0200688D01*
X0088603Y0200558D01*
X0088529Y0200430D01*
X0088452Y0200304D01*
X0088371Y0200180D01*
X0088287Y0200058D01*
X0088200Y0199939D01*
X0088109Y0199822D01*
X0088015Y0199707D01*
X0087919Y0199595D01*
X0087819Y0199485D01*
X0087717Y0199379D01*
X0087611Y0199275D01*
X0087503Y0199174D01*
X0087392Y0199076D01*
X0087279Y0198980D01*
X0087163Y0198888D01*
X0087045Y0198799D01*
X0086924Y0198714D01*
X0086801Y0198631D01*
X0086676Y0198552D01*
X0086549Y0198476D01*
X0086420Y0198404D01*
X0086289Y0198335D01*
X0086156Y0198270D01*
X0086021Y0198209D01*
X0085885Y0198151D01*
X0085748Y0198096D01*
X0085609Y0198046D01*
X0085468Y0197999D01*
X0085327Y0197956D01*
X0085184Y0197916D01*
X0085040Y0197881D01*
X0084896Y0197849D01*
X0084750Y0197822D01*
X0084604Y0197798D01*
X0084457Y0197778D01*
X0084310Y0197762D01*
X0084163Y0197750D01*
X0084015Y0197742D01*
X0083867Y0197738D01*
X0083719Y0197738D01*
X0083571Y0197742D01*
X0083423Y0197750D01*
X0083276Y0197762D01*
X0083129Y0197778D01*
X0082982Y0197798D01*
X0082836Y0197822D01*
X0082690Y0197849D01*
X0082546Y0197881D01*
X0082402Y0197916D01*
X0082259Y0197956D01*
X0082118Y0197999D01*
X0081977Y0198046D01*
X0081838Y0198096D01*
X0081701Y0198151D01*
X0081565Y0198209D01*
X0081430Y0198270D01*
X0081297Y0198335D01*
X0081166Y0198404D01*
X0081037Y0198476D01*
X0080910Y0198552D01*
X0080785Y0198631D01*
X0080662Y0198714D01*
X0080541Y0198799D01*
X0080423Y0198888D01*
X0080307Y0198980D01*
X0080194Y0199076D01*
X0080083Y0199174D01*
X0079975Y0199275D01*
X0079869Y0199379D01*
X0079767Y0199485D01*
X0079667Y0199595D01*
X0079571Y0199707D01*
X0079477Y0199822D01*
X0079386Y0199939D01*
X0079299Y0200058D01*
X0079215Y0200180D01*
X0079134Y0200304D01*
X0079057Y0200430D01*
X0078983Y0200558D01*
X0078912Y0200688D01*
X0078845Y0200820D01*
X0078782Y0200954D01*
X0078722Y0201089D01*
X0078666Y0201226D01*
X0078613Y0201365D01*
X0078565Y0201505D01*
X0078520Y0201646D01*
X0078479Y0201788D01*
X0078441Y0201931D01*
X0078408Y0202075D01*
X0078378Y0202220D01*
X0078352Y0202366D01*
X0078331Y0202512D01*
X0078313Y0202659D01*
X0078299Y0202806D01*
X0078289Y0202954D01*
X0078283Y0203102D01*
X0078281Y0203250D01*
D12*
X0083793Y0203250D03*
X0268793Y0143250D03*
X0268793Y0033250D03*
X0083793Y0013250D03*
D13*
X0083793Y0042297D03*
X0083793Y0048203D03*
X0105293Y0068797D03*
X0105293Y0074703D03*
X0159793Y0070203D03*
X0159793Y0064297D03*
X0174919Y0092297D03*
X0181293Y0092297D03*
X0181293Y0098203D03*
X0174919Y0098203D03*
X0178069Y0150297D03*
X0178069Y0156203D03*
X0185293Y0156203D03*
X0185293Y0150297D03*
X0195293Y0166797D03*
X0195293Y0172703D03*
X0151293Y0172703D03*
X0151293Y0166797D03*
X0096793Y0138203D03*
X0089793Y0138203D03*
X0089793Y0132297D03*
X0096793Y0132297D03*
D14*
X0028502Y0107250D03*
X0017085Y0107250D03*
X0018085Y0071250D03*
X0029502Y0071250D03*
G36*
X0202996Y0150187D02*
X0205783Y0152974D01*
X0210518Y0148239D01*
X0207731Y0145452D01*
X0202996Y0150187D01*
G37*
G36*
X0211069Y0158261D02*
X0213856Y0161048D01*
X0218591Y0156313D01*
X0215804Y0153526D01*
X0211069Y0158261D01*
G37*
D15*
G36*
X0217751Y0132921D02*
X0215798Y0130968D01*
X0213011Y0133755D01*
X0214964Y0135708D01*
X0217751Y0132921D01*
G37*
G36*
X0213575Y0128745D02*
X0211622Y0126792D01*
X0208835Y0129579D01*
X0210788Y0131532D01*
X0213575Y0128745D01*
G37*
X0111746Y0157089D03*
X0105841Y0157089D03*
X0102746Y0166250D03*
X0096841Y0166250D03*
X0066746Y0148250D03*
X0060841Y0148250D03*
X0054746Y0148250D03*
X0048841Y0148250D03*
X0048841Y0141250D03*
X0054746Y0141250D03*
X0054746Y0134250D03*
X0048841Y0134250D03*
X0060841Y0134250D03*
X0066746Y0134250D03*
X0066746Y0127250D03*
X0060841Y0127250D03*
X0025746Y0115250D03*
X0019841Y0115250D03*
X0048841Y0158250D03*
X0054746Y0158250D03*
X0054746Y0165250D03*
X0048841Y0165250D03*
X0048841Y0172250D03*
X0054746Y0172250D03*
X0054746Y0179250D03*
X0048841Y0179250D03*
X0048841Y0186250D03*
X0054746Y0186250D03*
X0054746Y0194250D03*
X0048841Y0194250D03*
X0048841Y0202250D03*
X0054746Y0202250D03*
X0023746Y0063250D03*
X0017841Y0063250D03*
D16*
X0017624Y0200018D03*
X0017624Y0208482D03*
X0033963Y0208482D03*
X0033963Y0200018D03*
D17*
X0233793Y0118250D03*
X0238793Y0118250D03*
X0238793Y0113250D03*
X0233793Y0113250D03*
X0233793Y0108250D03*
X0238793Y0108250D03*
D18*
X0240293Y0103250D03*
X0232293Y0103250D03*
X0236293Y0123250D03*
D19*
X0246293Y0123250D03*
X0246293Y0110750D03*
X0226293Y0110750D03*
X0226293Y0123250D03*
D20*
X0193817Y0106533D03*
X0190667Y0106533D03*
X0187518Y0106533D03*
X0184368Y0106533D03*
X0181219Y0106533D03*
X0178069Y0106533D03*
X0174919Y0106533D03*
X0171770Y0106533D03*
X0171770Y0141967D03*
X0174919Y0141967D03*
X0178069Y0141967D03*
X0181219Y0141967D03*
X0184368Y0141967D03*
X0187518Y0141967D03*
X0190667Y0141967D03*
X0193817Y0141967D03*
D21*
X0200510Y0135274D03*
X0200510Y0132124D03*
X0200510Y0128974D03*
X0200510Y0125825D03*
X0200510Y0122675D03*
X0200510Y0119526D03*
X0200510Y0116376D03*
X0200510Y0113226D03*
X0165077Y0113226D03*
X0165077Y0116376D03*
X0165077Y0119526D03*
X0165077Y0122675D03*
X0165077Y0125825D03*
X0165077Y0128974D03*
X0165077Y0132124D03*
X0165077Y0135274D03*
D22*
X0160892Y0164750D03*
X0160892Y0174750D03*
X0185695Y0174750D03*
D23*
X0185301Y0164750D03*
D24*
X0030715Y0177250D03*
X0020872Y0177250D03*
X0020872Y0185250D03*
X0020872Y0193250D03*
X0030715Y0193250D03*
X0030715Y0185250D03*
D25*
X0102793Y0203250D03*
X0112793Y0203250D03*
X0122793Y0203250D03*
X0132793Y0203250D03*
X0142793Y0203250D03*
X0152793Y0203250D03*
X0162793Y0203250D03*
X0172793Y0203250D03*
X0188793Y0203250D03*
X0198793Y0203250D03*
X0208793Y0203250D03*
X0218793Y0203250D03*
X0228793Y0203250D03*
X0238793Y0203250D03*
X0248793Y0203250D03*
X0258793Y0203250D03*
X0259293Y0123250D03*
X0269293Y0123250D03*
X0269293Y0113250D03*
X0259293Y0113250D03*
X0259293Y0103250D03*
X0269293Y0103250D03*
X0258793Y0013250D03*
X0248793Y0013250D03*
X0238793Y0013250D03*
X0228793Y0013250D03*
X0218793Y0013250D03*
X0208793Y0013250D03*
X0188793Y0013250D03*
X0178793Y0013250D03*
X0168793Y0013250D03*
X0158793Y0013250D03*
X0148793Y0013250D03*
X0138793Y0013250D03*
D26*
X0038407Y0141439D03*
X0038407Y0143407D03*
X0038407Y0145376D03*
X0038407Y0147344D03*
X0038407Y0149313D03*
X0038407Y0151281D03*
X0038407Y0155219D03*
X0038407Y0157187D03*
X0038407Y0159156D03*
X0038407Y0161124D03*
X0038407Y0163093D03*
X0038407Y0165061D03*
X0033289Y0162108D03*
X0033289Y0160140D03*
X0033289Y0158171D03*
X0033289Y0156203D03*
X0033289Y0154234D03*
X0033289Y0152266D03*
X0033289Y0150297D03*
X0033289Y0148329D03*
X0033289Y0146360D03*
X0033289Y0144392D03*
D27*
X0033289Y0141045D03*
X0033289Y0165455D03*
D28*
X0034824Y0170258D02*
X0038762Y0170258D01*
X0034824Y0170258D02*
X0034824Y0170258D01*
X0038762Y0170258D01*
X0038762Y0170258D01*
X0018644Y0170258D02*
X0012738Y0170258D01*
X0012738Y0170258D01*
X0018644Y0170258D01*
X0018644Y0170258D01*
X0018644Y0136242D02*
X0012738Y0136242D01*
X0012738Y0136242D01*
X0018644Y0136242D01*
X0018644Y0136242D01*
X0034824Y0136242D02*
X0038762Y0136242D01*
X0034824Y0136242D02*
X0034824Y0136242D01*
X0038762Y0136242D01*
X0038762Y0136242D01*
D29*
X0029793Y0036250D03*
X0044557Y0017352D03*
D30*
X0054400Y0036250D03*
D31*
X0077919Y0149411D03*
X0077919Y0151970D03*
X0077919Y0154530D03*
X0077919Y0157089D03*
X0093667Y0157089D03*
X0093667Y0154530D03*
X0093667Y0151970D03*
X0093667Y0149411D03*
D32*
X0085793Y0153250D03*
D33*
X0084514Y0145376D03*
X0087073Y0145376D03*
X0089632Y0145376D03*
X0081955Y0145376D03*
X0081955Y0161124D03*
X0084514Y0161124D03*
X0087073Y0161124D03*
X0089632Y0161124D03*
D34*
X0082533Y0132581D03*
X0075053Y0132581D03*
X0078793Y0123919D03*
D35*
X0073793Y0052250D03*
D36*
X0072514Y0047427D02*
X0072514Y0045459D01*
X0075073Y0045459D02*
X0075073Y0047427D01*
X0077632Y0047427D02*
X0077632Y0045459D01*
X0069955Y0045459D02*
X0069955Y0047427D01*
X0069955Y0057073D02*
X0069955Y0059041D01*
X0072514Y0059041D02*
X0072514Y0057073D01*
X0075073Y0057073D02*
X0075073Y0059041D01*
X0077632Y0059041D02*
X0077632Y0057073D01*
D37*
X0043589Y0089250D03*
D38*
X0017998Y0089250D03*
X0017998Y0080195D03*
X0017998Y0098305D03*
D39*
X0092793Y0072640D03*
X0092793Y0058860D03*
D40*
X0132793Y0049455D03*
D41*
X0132793Y0075045D03*
X0123738Y0075045D03*
X0141848Y0075045D03*
D42*
X0151793Y0074959D03*
X0151793Y0063541D03*
X0113793Y0063541D03*
X0113793Y0074959D03*
D43*
X0123793Y0087510D03*
X0123793Y0094990D03*
X0143793Y0094990D03*
X0143793Y0087510D03*
X0072793Y0075490D03*
X0072793Y0068010D03*
M02*
