G75*
%MOIN*%
%OFA0B0*%
%FSLAX25Y25*%
%IPPOS*%
%LPD*%
%AMOC8*
5,1,8,0,0,1.08239X$1,22.5*
%
%ADD10C,0.01000*%
%ADD11C,0.00000*%
%ADD12C,0.05906*%
%ADD13C,0.04331*%
%ADD14R,0.12661X0.12661*%
%ADD15R,0.16598X0.16598*%
%ADD16C,0.02400*%
%ADD17C,0.01200*%
%ADD18C,0.01400*%
%ADD19C,0.00500*%
D10*
X0008793Y0007187D02*
X0008793Y0209313D01*
X0010993Y0209313D02*
X0011027Y0209652D01*
X0011286Y0210278D01*
X0011765Y0210757D01*
X0012391Y0211017D01*
X0012730Y0211050D01*
X0262882Y0211050D01*
X0266593Y0207339D01*
X0266593Y0162339D01*
X0276593Y0152339D01*
X0276593Y0024161D01*
X0266593Y0014161D01*
X0266593Y0012339D01*
X0266593Y0008098D01*
X0266593Y0007187D01*
X0266560Y0006848D01*
X0266301Y0006222D01*
X0265821Y0005743D01*
X0265195Y0005483D01*
X0264856Y0005450D01*
X0012730Y0005450D01*
X0012391Y0005483D01*
X0011765Y0005743D01*
X0011286Y0006222D01*
X0011027Y0006848D01*
X0010993Y0007187D01*
X0010993Y0132781D01*
X0011969Y0132377D01*
X0019413Y0132377D01*
X0020833Y0132965D01*
X0021921Y0134053D01*
X0022509Y0135473D01*
X0022509Y0137011D01*
X0021921Y0138432D01*
X0020833Y0139519D01*
X0019413Y0140107D01*
X0011969Y0140107D01*
X0010993Y0139703D01*
X0010993Y0166797D01*
X0011969Y0166393D01*
X0019413Y0166393D01*
X0020833Y0166981D01*
X0021921Y0168068D01*
X0022509Y0169489D01*
X0022509Y0171027D01*
X0021921Y0172447D01*
X0020833Y0173535D01*
X0019413Y0174123D01*
X0011969Y0174123D01*
X0010993Y0173719D01*
X0010993Y0209313D01*
X0010993Y0208943D02*
X0079288Y0208943D01*
X0079708Y0209364D02*
X0077679Y0207335D01*
X0076581Y0204685D01*
X0076581Y0201815D01*
X0077679Y0199165D01*
X0079708Y0197136D01*
X0082359Y0196038D01*
X0085228Y0196038D01*
X0087878Y0197136D01*
X0089907Y0199165D01*
X0091005Y0201815D01*
X0091005Y0204685D01*
X0089907Y0207335D01*
X0087878Y0209364D01*
X0085228Y0210462D01*
X0082359Y0210462D01*
X0079708Y0209364D01*
X0081104Y0209942D02*
X0011147Y0209942D01*
X0012207Y0210940D02*
X0262992Y0210940D01*
X0263990Y0209942D02*
X0086483Y0209942D01*
X0088299Y0208943D02*
X0264989Y0208943D01*
X0265987Y0207945D02*
X0089298Y0207945D01*
X0090068Y0206946D02*
X0099910Y0206946D01*
X0100158Y0207194D02*
X0098849Y0205886D01*
X0098141Y0204175D01*
X0098141Y0202324D01*
X0098849Y0200614D01*
X0100158Y0199306D01*
X0101868Y0198597D01*
X0103719Y0198597D01*
X0105429Y0199306D01*
X0106738Y0200614D01*
X0107446Y0202324D01*
X0107446Y0204175D01*
X0106738Y0205886D01*
X0105429Y0207194D01*
X0103719Y0207903D01*
X0101868Y0207903D01*
X0100158Y0207194D01*
X0098911Y0205948D02*
X0090482Y0205948D01*
X0090895Y0204949D02*
X0098461Y0204949D01*
X0098141Y0203951D02*
X0091005Y0203951D01*
X0091005Y0202952D02*
X0098141Y0202952D01*
X0098294Y0201954D02*
X0091005Y0201954D01*
X0090649Y0200955D02*
X0098708Y0200955D01*
X0099507Y0199957D02*
X0090235Y0199957D01*
X0089701Y0198958D02*
X0100996Y0198958D01*
X0104590Y0198958D02*
X0111593Y0198958D01*
X0111751Y0198907D02*
X0112309Y0198818D01*
X0112309Y0202766D01*
X0108362Y0202766D01*
X0108450Y0202207D01*
X0108667Y0201541D01*
X0108985Y0200916D01*
X0109397Y0200349D01*
X0109893Y0199854D01*
X0110460Y0199442D01*
X0111084Y0199123D01*
X0111751Y0198907D01*
X0112309Y0198958D02*
X0113278Y0198958D01*
X0113278Y0198818D02*
X0113836Y0198907D01*
X0114503Y0199123D01*
X0115127Y0199442D01*
X0115694Y0199854D01*
X0116190Y0200349D01*
X0116602Y0200916D01*
X0116920Y0201541D01*
X0117136Y0202207D01*
X0117225Y0202766D01*
X0113278Y0202766D01*
X0113278Y0203734D01*
X0117225Y0203734D01*
X0117136Y0204293D01*
X0116920Y0204959D01*
X0116602Y0205584D01*
X0116190Y0206151D01*
X0115694Y0206646D01*
X0115127Y0207058D01*
X0114503Y0207377D01*
X0113836Y0207593D01*
X0113278Y0207682D01*
X0113278Y0203734D01*
X0112309Y0203734D01*
X0112309Y0202766D01*
X0113278Y0202766D01*
X0113278Y0198818D01*
X0113994Y0198958D02*
X0120593Y0198958D01*
X0120593Y0199125D02*
X0120593Y0198161D01*
X0109040Y0186608D01*
X0109040Y0178946D01*
X0110329Y0177657D01*
X0116827Y0171160D01*
X0123814Y0171160D01*
X0125103Y0172448D01*
X0133705Y0181050D01*
X0231882Y0181050D01*
X0245893Y0167039D01*
X0245893Y0166673D01*
X0246335Y0165607D01*
X0247151Y0164791D01*
X0248216Y0164350D01*
X0249370Y0164350D01*
X0250293Y0164732D01*
X0251216Y0164350D01*
X0252370Y0164350D01*
X0253293Y0164732D01*
X0254216Y0164350D01*
X0255370Y0164350D01*
X0256436Y0164791D01*
X0257252Y0165607D01*
X0257693Y0166673D01*
X0257693Y0167827D01*
X0257252Y0168893D01*
X0256993Y0169151D01*
X0256993Y0169161D01*
X0239105Y0187050D01*
X0245705Y0187050D01*
X0257432Y0198778D01*
X0257868Y0198597D01*
X0259719Y0198597D01*
X0261429Y0199306D01*
X0262738Y0200614D01*
X0263446Y0202324D01*
X0263446Y0204175D01*
X0262738Y0205886D01*
X0261429Y0207194D01*
X0259719Y0207903D01*
X0257868Y0207903D01*
X0256158Y0207194D01*
X0254849Y0205886D01*
X0254141Y0204175D01*
X0254141Y0202324D01*
X0254321Y0201889D01*
X0243882Y0191450D01*
X0240105Y0191450D01*
X0247432Y0198778D01*
X0247868Y0198597D01*
X0249719Y0198597D01*
X0251429Y0199306D01*
X0252738Y0200614D01*
X0253446Y0202324D01*
X0253446Y0204175D01*
X0252738Y0205886D01*
X0251429Y0207194D01*
X0249719Y0207903D01*
X0247868Y0207903D01*
X0246158Y0207194D01*
X0244849Y0205886D01*
X0244141Y0204175D01*
X0244141Y0202324D01*
X0244321Y0201889D01*
X0235882Y0193450D01*
X0136105Y0193450D01*
X0141432Y0198778D01*
X0141868Y0198597D01*
X0143719Y0198597D01*
X0145429Y0199306D01*
X0146738Y0200614D01*
X0147446Y0202324D01*
X0147446Y0204175D01*
X0146738Y0205886D01*
X0145429Y0207194D01*
X0143719Y0207903D01*
X0141868Y0207903D01*
X0140158Y0207194D01*
X0138849Y0205886D01*
X0138141Y0204175D01*
X0138141Y0202324D01*
X0138321Y0201889D01*
X0134993Y0198561D01*
X0134993Y0199125D01*
X0135429Y0199306D01*
X0136738Y0200614D01*
X0137446Y0202324D01*
X0137446Y0204175D01*
X0136738Y0205886D01*
X0135429Y0207194D01*
X0133719Y0207903D01*
X0131868Y0207903D01*
X0130158Y0207194D01*
X0128849Y0205886D01*
X0128141Y0204175D01*
X0128141Y0202324D01*
X0128849Y0200614D01*
X0130158Y0199306D01*
X0130593Y0199125D01*
X0130593Y0198661D01*
X0129382Y0197450D01*
X0124993Y0197450D01*
X0124993Y0199125D01*
X0125429Y0199306D01*
X0126738Y0200614D01*
X0127446Y0202324D01*
X0127446Y0204175D01*
X0126738Y0205886D01*
X0125429Y0207194D01*
X0123719Y0207903D01*
X0121868Y0207903D01*
X0120158Y0207194D01*
X0118849Y0205886D01*
X0118141Y0204175D01*
X0118141Y0202324D01*
X0118849Y0200614D01*
X0120158Y0199306D01*
X0120593Y0199125D01*
X0120392Y0197960D02*
X0088702Y0197960D01*
X0087456Y0196961D02*
X0119393Y0196961D01*
X0118395Y0195963D02*
X0010993Y0195963D01*
X0010993Y0196961D02*
X0080130Y0196961D01*
X0078885Y0197960D02*
X0010993Y0197960D01*
X0010993Y0198958D02*
X0077886Y0198958D01*
X0077351Y0199957D02*
X0010993Y0199957D01*
X0010993Y0200955D02*
X0076938Y0200955D01*
X0076581Y0201954D02*
X0010993Y0201954D01*
X0010993Y0202952D02*
X0076581Y0202952D01*
X0076581Y0203951D02*
X0010993Y0203951D01*
X0010993Y0204949D02*
X0076691Y0204949D01*
X0077105Y0205948D02*
X0010993Y0205948D01*
X0010993Y0206946D02*
X0077518Y0206946D01*
X0078289Y0207945D02*
X0010993Y0207945D01*
X0008793Y0209313D02*
X0008795Y0209437D01*
X0008801Y0209560D01*
X0008810Y0209684D01*
X0008824Y0209806D01*
X0008841Y0209929D01*
X0008863Y0210051D01*
X0008888Y0210172D01*
X0008917Y0210292D01*
X0008949Y0210411D01*
X0008986Y0210530D01*
X0009026Y0210647D01*
X0009069Y0210762D01*
X0009117Y0210877D01*
X0009168Y0210989D01*
X0009222Y0211100D01*
X0009280Y0211210D01*
X0009341Y0211317D01*
X0009406Y0211423D01*
X0009474Y0211526D01*
X0009545Y0211627D01*
X0009619Y0211726D01*
X0009696Y0211823D01*
X0009777Y0211917D01*
X0009860Y0212008D01*
X0009946Y0212097D01*
X0010035Y0212183D01*
X0010126Y0212266D01*
X0010220Y0212347D01*
X0010317Y0212424D01*
X0010416Y0212498D01*
X0010517Y0212569D01*
X0010620Y0212637D01*
X0010726Y0212702D01*
X0010833Y0212763D01*
X0010943Y0212821D01*
X0011054Y0212875D01*
X0011166Y0212926D01*
X0011281Y0212974D01*
X0011396Y0213017D01*
X0011513Y0213057D01*
X0011632Y0213094D01*
X0011751Y0213126D01*
X0011871Y0213155D01*
X0011992Y0213180D01*
X0012114Y0213202D01*
X0012237Y0213219D01*
X0012359Y0213233D01*
X0012483Y0213242D01*
X0012606Y0213248D01*
X0012730Y0213250D01*
X0263793Y0213250D01*
X0268793Y0208250D01*
X0268793Y0163250D01*
X0278793Y0153250D01*
X0278793Y0023250D01*
X0268793Y0013250D01*
X0268793Y0007187D01*
X0266593Y0007244D02*
X0087986Y0007244D01*
X0087878Y0007136D02*
X0089907Y0009165D01*
X0091005Y0011815D01*
X0091005Y0014685D01*
X0089907Y0017335D01*
X0087878Y0019364D01*
X0085228Y0020462D01*
X0082359Y0020462D01*
X0079708Y0019364D01*
X0077679Y0017335D01*
X0076581Y0014685D01*
X0076581Y0011815D01*
X0077679Y0009165D01*
X0079708Y0007136D01*
X0082359Y0006038D01*
X0085228Y0006038D01*
X0087878Y0007136D01*
X0088985Y0008243D02*
X0266593Y0008243D01*
X0266593Y0009241D02*
X0261273Y0009241D01*
X0261429Y0009306D02*
X0262738Y0010614D01*
X0263446Y0012324D01*
X0263446Y0014175D01*
X0262738Y0015886D01*
X0261429Y0017194D01*
X0259719Y0017903D01*
X0257868Y0017903D01*
X0256158Y0017194D01*
X0254849Y0015886D01*
X0254141Y0014175D01*
X0254141Y0012324D01*
X0254849Y0010614D01*
X0256158Y0009306D01*
X0257868Y0008597D01*
X0259719Y0008597D01*
X0261429Y0009306D01*
X0262363Y0010240D02*
X0266593Y0010240D01*
X0266593Y0011238D02*
X0262996Y0011238D01*
X0263410Y0012237D02*
X0266593Y0012237D01*
X0266593Y0013235D02*
X0263446Y0013235D01*
X0263422Y0014234D02*
X0266666Y0014234D01*
X0267664Y0015232D02*
X0263008Y0015232D01*
X0262393Y0016231D02*
X0268663Y0016231D01*
X0269661Y0017229D02*
X0261345Y0017229D01*
X0256242Y0017229D02*
X0251345Y0017229D01*
X0251429Y0017194D02*
X0249719Y0017903D01*
X0247868Y0017903D01*
X0246158Y0017194D01*
X0244849Y0015886D01*
X0244141Y0014175D01*
X0244141Y0012324D01*
X0244849Y0010614D01*
X0246158Y0009306D01*
X0247868Y0008597D01*
X0249719Y0008597D01*
X0251429Y0009306D01*
X0252738Y0010614D01*
X0253446Y0012324D01*
X0253446Y0014175D01*
X0252738Y0015886D01*
X0251429Y0017194D01*
X0252393Y0016231D02*
X0255194Y0016231D01*
X0254578Y0015232D02*
X0253008Y0015232D01*
X0253422Y0014234D02*
X0254165Y0014234D01*
X0254141Y0013235D02*
X0253446Y0013235D01*
X0253410Y0012237D02*
X0254177Y0012237D01*
X0254591Y0011238D02*
X0252996Y0011238D01*
X0252363Y0010240D02*
X0255224Y0010240D01*
X0256313Y0009241D02*
X0251273Y0009241D01*
X0246313Y0009241D02*
X0241273Y0009241D01*
X0241429Y0009306D02*
X0242738Y0010614D01*
X0243446Y0012324D01*
X0243446Y0014175D01*
X0242738Y0015886D01*
X0241429Y0017194D01*
X0239719Y0017903D01*
X0237868Y0017903D01*
X0236158Y0017194D01*
X0234849Y0015886D01*
X0234141Y0014175D01*
X0234141Y0012324D01*
X0234849Y0010614D01*
X0236158Y0009306D01*
X0237868Y0008597D01*
X0239719Y0008597D01*
X0241429Y0009306D01*
X0242363Y0010240D02*
X0245224Y0010240D01*
X0244591Y0011238D02*
X0242996Y0011238D01*
X0243410Y0012237D02*
X0244177Y0012237D01*
X0244141Y0013235D02*
X0243446Y0013235D01*
X0243422Y0014234D02*
X0244165Y0014234D01*
X0244578Y0015232D02*
X0243008Y0015232D01*
X0242393Y0016231D02*
X0245194Y0016231D01*
X0246242Y0017229D02*
X0241345Y0017229D01*
X0236242Y0017229D02*
X0231345Y0017229D01*
X0231429Y0017194D02*
X0229719Y0017903D01*
X0227868Y0017903D01*
X0226158Y0017194D01*
X0224849Y0015886D01*
X0224141Y0014175D01*
X0224141Y0012324D01*
X0224849Y0010614D01*
X0226158Y0009306D01*
X0227868Y0008597D01*
X0229719Y0008597D01*
X0231429Y0009306D01*
X0232738Y0010614D01*
X0233446Y0012324D01*
X0233446Y0014175D01*
X0232738Y0015886D01*
X0231429Y0017194D01*
X0232393Y0016231D02*
X0235194Y0016231D01*
X0234578Y0015232D02*
X0233008Y0015232D01*
X0233422Y0014234D02*
X0234165Y0014234D01*
X0234141Y0013235D02*
X0233446Y0013235D01*
X0233410Y0012237D02*
X0234177Y0012237D01*
X0234591Y0011238D02*
X0232996Y0011238D01*
X0232363Y0010240D02*
X0235224Y0010240D01*
X0236313Y0009241D02*
X0231273Y0009241D01*
X0226313Y0009241D02*
X0221273Y0009241D01*
X0221429Y0009306D02*
X0222738Y0010614D01*
X0223446Y0012324D01*
X0223446Y0014175D01*
X0222738Y0015886D01*
X0221429Y0017194D01*
X0219719Y0017903D01*
X0217868Y0017903D01*
X0216158Y0017194D01*
X0214849Y0015886D01*
X0214141Y0014175D01*
X0214141Y0012324D01*
X0214849Y0010614D01*
X0216158Y0009306D01*
X0217868Y0008597D01*
X0219719Y0008597D01*
X0221429Y0009306D01*
X0222363Y0010240D02*
X0225224Y0010240D01*
X0224591Y0011238D02*
X0222996Y0011238D01*
X0223410Y0012237D02*
X0224177Y0012237D01*
X0224141Y0013235D02*
X0223446Y0013235D01*
X0223422Y0014234D02*
X0224165Y0014234D01*
X0224578Y0015232D02*
X0223008Y0015232D01*
X0222393Y0016231D02*
X0225194Y0016231D01*
X0226242Y0017229D02*
X0221345Y0017229D01*
X0216242Y0017229D02*
X0211345Y0017229D01*
X0211429Y0017194D02*
X0209719Y0017903D01*
X0207868Y0017903D01*
X0206158Y0017194D01*
X0204849Y0015886D01*
X0204141Y0014175D01*
X0204141Y0012324D01*
X0204849Y0010614D01*
X0206158Y0009306D01*
X0207868Y0008597D01*
X0209719Y0008597D01*
X0211429Y0009306D01*
X0212738Y0010614D01*
X0213446Y0012324D01*
X0213446Y0014175D01*
X0212738Y0015886D01*
X0211429Y0017194D01*
X0212393Y0016231D02*
X0215194Y0016231D01*
X0214578Y0015232D02*
X0213008Y0015232D01*
X0213422Y0014234D02*
X0214165Y0014234D01*
X0214141Y0013235D02*
X0213446Y0013235D01*
X0213410Y0012237D02*
X0214177Y0012237D01*
X0214591Y0011238D02*
X0212996Y0011238D01*
X0212363Y0010240D02*
X0215224Y0010240D01*
X0216313Y0009241D02*
X0211273Y0009241D01*
X0206313Y0009241D02*
X0191273Y0009241D01*
X0191429Y0009306D02*
X0192738Y0010614D01*
X0193446Y0012324D01*
X0193446Y0014175D01*
X0192738Y0015886D01*
X0191429Y0017194D01*
X0189719Y0017903D01*
X0187868Y0017903D01*
X0186158Y0017194D01*
X0184849Y0015886D01*
X0184141Y0014175D01*
X0184141Y0012324D01*
X0184849Y0010614D01*
X0186158Y0009306D01*
X0187868Y0008597D01*
X0189719Y0008597D01*
X0191429Y0009306D01*
X0192363Y0010240D02*
X0205224Y0010240D01*
X0204591Y0011238D02*
X0192996Y0011238D01*
X0193410Y0012237D02*
X0204177Y0012237D01*
X0204141Y0013235D02*
X0193446Y0013235D01*
X0193422Y0014234D02*
X0204165Y0014234D01*
X0204578Y0015232D02*
X0193008Y0015232D01*
X0192393Y0016231D02*
X0205194Y0016231D01*
X0206242Y0017229D02*
X0191345Y0017229D01*
X0186242Y0017229D02*
X0180792Y0017229D01*
X0180503Y0017377D02*
X0179836Y0017593D01*
X0179278Y0017682D01*
X0179278Y0013734D01*
X0183225Y0013734D01*
X0183136Y0014293D01*
X0182920Y0014959D01*
X0182602Y0015584D01*
X0182190Y0016151D01*
X0181694Y0016646D01*
X0181127Y0017058D01*
X0180503Y0017377D01*
X0179278Y0017229D02*
X0178309Y0017229D01*
X0178309Y0017682D02*
X0177751Y0017593D01*
X0177084Y0017377D01*
X0176460Y0017058D01*
X0175893Y0016646D01*
X0175397Y0016151D01*
X0174985Y0015584D01*
X0174667Y0014959D01*
X0174450Y0014293D01*
X0174362Y0013734D01*
X0178309Y0013734D01*
X0178309Y0012766D01*
X0174362Y0012766D01*
X0174450Y0012207D01*
X0174667Y0011541D01*
X0174985Y0010916D01*
X0175397Y0010349D01*
X0175893Y0009854D01*
X0176460Y0009442D01*
X0177084Y0009123D01*
X0177751Y0008907D01*
X0178309Y0008818D01*
X0178309Y0012766D01*
X0179278Y0012766D01*
X0179278Y0013734D01*
X0178309Y0013734D01*
X0178309Y0017682D01*
X0178309Y0016231D02*
X0179278Y0016231D01*
X0179278Y0015232D02*
X0178309Y0015232D01*
X0178309Y0014234D02*
X0179278Y0014234D01*
X0179278Y0013235D02*
X0184141Y0013235D01*
X0184165Y0014234D02*
X0183146Y0014234D01*
X0182781Y0015232D02*
X0184578Y0015232D01*
X0185194Y0016231D02*
X0182110Y0016231D01*
X0178309Y0013235D02*
X0169278Y0013235D01*
X0169278Y0012766D02*
X0169278Y0013734D01*
X0173225Y0013734D01*
X0173136Y0014293D01*
X0172920Y0014959D01*
X0172602Y0015584D01*
X0172190Y0016151D01*
X0171694Y0016646D01*
X0171127Y0017058D01*
X0170503Y0017377D01*
X0170464Y0017389D01*
X0171436Y0017791D01*
X0172252Y0018607D01*
X0172693Y0019673D01*
X0172693Y0020827D01*
X0172252Y0021893D01*
X0171436Y0022708D01*
X0170370Y0023150D01*
X0169216Y0023150D01*
X0168151Y0022708D01*
X0167892Y0022450D01*
X0144882Y0022450D01*
X0140154Y0017722D01*
X0139719Y0017903D01*
X0137868Y0017903D01*
X0136158Y0017194D01*
X0134849Y0015886D01*
X0134141Y0014175D01*
X0134141Y0012324D01*
X0134849Y0010614D01*
X0136158Y0009306D01*
X0137868Y0008597D01*
X0139719Y0008597D01*
X0141429Y0009306D01*
X0142738Y0010614D01*
X0143446Y0012324D01*
X0143446Y0014175D01*
X0143266Y0014611D01*
X0146705Y0018050D01*
X0167892Y0018050D01*
X0168151Y0017791D01*
X0169216Y0017350D01*
X0169278Y0017350D01*
X0169278Y0013734D01*
X0168309Y0013734D01*
X0168309Y0012766D01*
X0164362Y0012766D01*
X0164450Y0012207D01*
X0164667Y0011541D01*
X0164985Y0010916D01*
X0165397Y0010349D01*
X0165893Y0009854D01*
X0166460Y0009442D01*
X0167084Y0009123D01*
X0167751Y0008907D01*
X0168309Y0008818D01*
X0168309Y0012766D01*
X0169278Y0012766D01*
X0173225Y0012766D01*
X0173136Y0012207D01*
X0172920Y0011541D01*
X0172602Y0010916D01*
X0172190Y0010349D01*
X0171694Y0009854D01*
X0171127Y0009442D01*
X0170503Y0009123D01*
X0169836Y0008907D01*
X0169278Y0008818D01*
X0169278Y0012766D01*
X0169278Y0012237D02*
X0168309Y0012237D01*
X0168309Y0013235D02*
X0163446Y0013235D01*
X0163446Y0012324D02*
X0163446Y0014175D01*
X0162738Y0015886D01*
X0161429Y0017194D01*
X0159719Y0017903D01*
X0157868Y0017903D01*
X0156158Y0017194D01*
X0154849Y0015886D01*
X0154141Y0014175D01*
X0154141Y0012324D01*
X0154849Y0010614D01*
X0156158Y0009306D01*
X0157868Y0008597D01*
X0159719Y0008597D01*
X0161429Y0009306D01*
X0162738Y0010614D01*
X0163446Y0012324D01*
X0163410Y0012237D02*
X0164446Y0012237D01*
X0164821Y0011238D02*
X0162996Y0011238D01*
X0162363Y0010240D02*
X0165507Y0010240D01*
X0166853Y0009241D02*
X0161273Y0009241D01*
X0156313Y0009241D02*
X0151273Y0009241D01*
X0151429Y0009306D02*
X0149719Y0008597D01*
X0147868Y0008597D01*
X0146158Y0009306D01*
X0144849Y0010614D01*
X0144141Y0012324D01*
X0144141Y0014175D01*
X0144849Y0015886D01*
X0146158Y0017194D01*
X0147868Y0017903D01*
X0149719Y0017903D01*
X0151429Y0017194D01*
X0152738Y0015886D01*
X0153446Y0014175D01*
X0153446Y0012324D01*
X0152738Y0010614D01*
X0151429Y0009306D01*
X0152363Y0010240D02*
X0155224Y0010240D01*
X0154591Y0011238D02*
X0152996Y0011238D01*
X0153410Y0012237D02*
X0154177Y0012237D01*
X0154141Y0013235D02*
X0153446Y0013235D01*
X0153422Y0014234D02*
X0154165Y0014234D01*
X0154578Y0015232D02*
X0153008Y0015232D01*
X0152393Y0016231D02*
X0155194Y0016231D01*
X0156242Y0017229D02*
X0151345Y0017229D01*
X0146242Y0017229D02*
X0145884Y0017229D01*
X0145194Y0016231D02*
X0144885Y0016231D01*
X0144578Y0015232D02*
X0143887Y0015232D01*
X0144165Y0014234D02*
X0143422Y0014234D01*
X0143446Y0013235D02*
X0144141Y0013235D01*
X0144177Y0012237D02*
X0143410Y0012237D01*
X0142996Y0011238D02*
X0144591Y0011238D01*
X0145224Y0010240D02*
X0142363Y0010240D01*
X0141273Y0009241D02*
X0146313Y0009241D01*
X0138793Y0013250D02*
X0145793Y0020250D01*
X0169793Y0020250D01*
X0172693Y0020225D02*
X0272657Y0020225D01*
X0273655Y0021223D02*
X0172529Y0021223D01*
X0171923Y0022222D02*
X0274654Y0022222D01*
X0275652Y0023220D02*
X0052388Y0023220D01*
X0052388Y0023881D02*
X0052286Y0024262D01*
X0052088Y0024604D01*
X0051809Y0024883D01*
X0051467Y0025081D01*
X0051085Y0025183D01*
X0045057Y0025183D01*
X0045057Y0017852D01*
X0052388Y0017852D01*
X0052388Y0023881D01*
X0052297Y0024219D02*
X0276593Y0024219D01*
X0276593Y0025217D02*
X0010993Y0025217D01*
X0010993Y0024219D02*
X0036817Y0024219D01*
X0036829Y0024262D02*
X0036726Y0023881D01*
X0036726Y0017852D01*
X0044057Y0017852D01*
X0044057Y0016852D01*
X0045057Y0016852D01*
X0045057Y0009522D01*
X0051085Y0009522D01*
X0051467Y0009624D01*
X0051809Y0009821D01*
X0052088Y0010101D01*
X0052286Y0010443D01*
X0052388Y0010824D01*
X0052388Y0016852D01*
X0045057Y0016852D01*
X0045057Y0017852D01*
X0044057Y0017852D01*
X0044057Y0025183D01*
X0038029Y0025183D01*
X0037647Y0025081D01*
X0037305Y0024883D01*
X0037026Y0024604D01*
X0036829Y0024262D01*
X0036726Y0023220D02*
X0010993Y0023220D01*
X0010993Y0022222D02*
X0036726Y0022222D01*
X0036726Y0021223D02*
X0010993Y0021223D01*
X0010993Y0020225D02*
X0036726Y0020225D01*
X0036726Y0019226D02*
X0010993Y0019226D01*
X0010993Y0018228D02*
X0036726Y0018228D01*
X0036726Y0016852D02*
X0036726Y0010824D01*
X0036829Y0010443D01*
X0037026Y0010101D01*
X0037305Y0009821D01*
X0037647Y0009624D01*
X0038029Y0009522D01*
X0044057Y0009522D01*
X0044057Y0016852D01*
X0036726Y0016852D01*
X0036726Y0016231D02*
X0010993Y0016231D01*
X0010993Y0017229D02*
X0044057Y0017229D01*
X0044057Y0016231D02*
X0045057Y0016231D01*
X0045057Y0017229D02*
X0077636Y0017229D01*
X0077222Y0016231D02*
X0052388Y0016231D01*
X0052388Y0015232D02*
X0076808Y0015232D01*
X0076581Y0014234D02*
X0052388Y0014234D01*
X0052388Y0013235D02*
X0076581Y0013235D01*
X0076581Y0012237D02*
X0052388Y0012237D01*
X0052388Y0011238D02*
X0076821Y0011238D01*
X0077234Y0010240D02*
X0052168Y0010240D01*
X0045057Y0010240D02*
X0044057Y0010240D01*
X0044057Y0011238D02*
X0045057Y0011238D01*
X0045057Y0012237D02*
X0044057Y0012237D01*
X0044057Y0013235D02*
X0045057Y0013235D01*
X0045057Y0014234D02*
X0044057Y0014234D01*
X0044057Y0015232D02*
X0045057Y0015232D01*
X0045057Y0018228D02*
X0044057Y0018228D01*
X0044057Y0019226D02*
X0045057Y0019226D01*
X0045057Y0020225D02*
X0044057Y0020225D01*
X0044057Y0021223D02*
X0045057Y0021223D01*
X0045057Y0022222D02*
X0044057Y0022222D01*
X0044057Y0023220D02*
X0045057Y0023220D01*
X0045057Y0024219D02*
X0044057Y0024219D01*
X0045396Y0026251D02*
X0044400Y0027247D01*
X0044400Y0045253D01*
X0045396Y0046249D01*
X0063403Y0046249D01*
X0064399Y0045253D01*
X0064399Y0027247D01*
X0063403Y0026251D01*
X0045396Y0026251D01*
X0044433Y0027214D02*
X0010993Y0027214D01*
X0010993Y0026216D02*
X0266930Y0026216D01*
X0267359Y0026038D02*
X0270228Y0026038D01*
X0272878Y0027136D01*
X0274907Y0029165D01*
X0276005Y0031815D01*
X0276005Y0034685D01*
X0274907Y0037335D01*
X0272878Y0039364D01*
X0270228Y0040462D01*
X0267359Y0040462D01*
X0264708Y0039364D01*
X0262679Y0037335D01*
X0261581Y0034685D01*
X0261581Y0031815D01*
X0262679Y0029165D01*
X0264708Y0027136D01*
X0267359Y0026038D01*
X0264630Y0027214D02*
X0064366Y0027214D01*
X0064399Y0028213D02*
X0263631Y0028213D01*
X0262660Y0029211D02*
X0064399Y0029211D01*
X0064399Y0030210D02*
X0262247Y0030210D01*
X0261833Y0031208D02*
X0064399Y0031208D01*
X0064399Y0032207D02*
X0261581Y0032207D01*
X0261581Y0033205D02*
X0064399Y0033205D01*
X0064399Y0034204D02*
X0261581Y0034204D01*
X0261796Y0035202D02*
X0064399Y0035202D01*
X0064399Y0036201D02*
X0262210Y0036201D01*
X0262623Y0037199D02*
X0064399Y0037199D01*
X0064399Y0038198D02*
X0263542Y0038198D01*
X0264541Y0039196D02*
X0064399Y0039196D01*
X0064399Y0040195D02*
X0266714Y0040195D01*
X0270872Y0040195D02*
X0276593Y0040195D01*
X0276593Y0041193D02*
X0064399Y0041193D01*
X0064399Y0042192D02*
X0276593Y0042192D01*
X0276593Y0043190D02*
X0064399Y0043190D01*
X0064399Y0044189D02*
X0276593Y0044189D01*
X0276593Y0045187D02*
X0064399Y0045187D01*
X0063466Y0046186D02*
X0276593Y0046186D01*
X0276593Y0047184D02*
X0010993Y0047184D01*
X0010993Y0046186D02*
X0045333Y0046186D01*
X0044400Y0045187D02*
X0010993Y0045187D01*
X0010993Y0044189D02*
X0044400Y0044189D01*
X0044400Y0043190D02*
X0037504Y0043190D01*
X0037522Y0043160D02*
X0037324Y0043502D01*
X0037045Y0043781D01*
X0036703Y0043978D01*
X0036321Y0044081D01*
X0030293Y0044081D01*
X0030293Y0036750D01*
X0029293Y0036750D01*
X0029293Y0035750D01*
X0021963Y0035750D01*
X0021963Y0029722D01*
X0022065Y0029340D01*
X0022262Y0028998D01*
X0022542Y0028719D01*
X0022884Y0028522D01*
X0023265Y0028419D01*
X0029293Y0028419D01*
X0029293Y0035750D01*
X0030293Y0035750D01*
X0030293Y0028419D01*
X0036321Y0028419D01*
X0036703Y0028522D01*
X0037045Y0028719D01*
X0037324Y0028998D01*
X0037522Y0029340D01*
X0037624Y0029722D01*
X0037624Y0035750D01*
X0030293Y0035750D01*
X0030293Y0036750D01*
X0037624Y0036750D01*
X0037624Y0042778D01*
X0037522Y0043160D01*
X0037624Y0042192D02*
X0044400Y0042192D01*
X0044400Y0041193D02*
X0037624Y0041193D01*
X0037624Y0040195D02*
X0044400Y0040195D01*
X0044400Y0039196D02*
X0037624Y0039196D01*
X0037624Y0038198D02*
X0044400Y0038198D01*
X0044400Y0037199D02*
X0037624Y0037199D01*
X0037624Y0035202D02*
X0044400Y0035202D01*
X0044400Y0034204D02*
X0037624Y0034204D01*
X0037624Y0033205D02*
X0044400Y0033205D01*
X0044400Y0032207D02*
X0037624Y0032207D01*
X0037624Y0031208D02*
X0044400Y0031208D01*
X0044400Y0030210D02*
X0037624Y0030210D01*
X0037447Y0029211D02*
X0044400Y0029211D01*
X0044400Y0028213D02*
X0010993Y0028213D01*
X0010993Y0029211D02*
X0022139Y0029211D01*
X0021963Y0030210D02*
X0010993Y0030210D01*
X0010993Y0031208D02*
X0021963Y0031208D01*
X0021963Y0032207D02*
X0010993Y0032207D01*
X0010993Y0033205D02*
X0021963Y0033205D01*
X0021963Y0034204D02*
X0010993Y0034204D01*
X0010993Y0035202D02*
X0021963Y0035202D01*
X0021963Y0036750D02*
X0029293Y0036750D01*
X0029293Y0044081D01*
X0023265Y0044081D01*
X0022884Y0043978D01*
X0022542Y0043781D01*
X0022262Y0043502D01*
X0022065Y0043160D01*
X0021963Y0042778D01*
X0021963Y0036750D01*
X0021963Y0037199D02*
X0010993Y0037199D01*
X0010993Y0036201D02*
X0029293Y0036201D01*
X0029293Y0037199D02*
X0030293Y0037199D01*
X0030293Y0036201D02*
X0044400Y0036201D01*
X0030293Y0035202D02*
X0029293Y0035202D01*
X0029293Y0034204D02*
X0030293Y0034204D01*
X0030293Y0033205D02*
X0029293Y0033205D01*
X0029293Y0032207D02*
X0030293Y0032207D01*
X0030293Y0031208D02*
X0029293Y0031208D01*
X0029293Y0030210D02*
X0030293Y0030210D01*
X0030293Y0029211D02*
X0029293Y0029211D01*
X0029293Y0038198D02*
X0030293Y0038198D01*
X0030293Y0039196D02*
X0029293Y0039196D01*
X0029293Y0040195D02*
X0030293Y0040195D01*
X0030293Y0041193D02*
X0029293Y0041193D01*
X0029293Y0042192D02*
X0030293Y0042192D01*
X0030293Y0043190D02*
X0029293Y0043190D01*
X0022083Y0043190D02*
X0010993Y0043190D01*
X0010993Y0042192D02*
X0021963Y0042192D01*
X0021963Y0041193D02*
X0010993Y0041193D01*
X0010993Y0040195D02*
X0021963Y0040195D01*
X0021963Y0039196D02*
X0010993Y0039196D01*
X0010993Y0038198D02*
X0021963Y0038198D01*
X0010993Y0048183D02*
X0276593Y0048183D01*
X0276593Y0049182D02*
X0010993Y0049182D01*
X0010993Y0050180D02*
X0276593Y0050180D01*
X0276593Y0051179D02*
X0010993Y0051179D01*
X0010993Y0052177D02*
X0276593Y0052177D01*
X0276593Y0053176D02*
X0010993Y0053176D01*
X0010993Y0054174D02*
X0276593Y0054174D01*
X0276593Y0055173D02*
X0010993Y0055173D01*
X0010993Y0056171D02*
X0276593Y0056171D01*
X0276593Y0057170D02*
X0010993Y0057170D01*
X0010993Y0058168D02*
X0276593Y0058168D01*
X0276593Y0059167D02*
X0010993Y0059167D01*
X0010993Y0060165D02*
X0276593Y0060165D01*
X0276593Y0061164D02*
X0010993Y0061164D01*
X0010993Y0062162D02*
X0276593Y0062162D01*
X0276593Y0063161D02*
X0010993Y0063161D01*
X0010993Y0064159D02*
X0276593Y0064159D01*
X0276593Y0065158D02*
X0010993Y0065158D01*
X0010993Y0066156D02*
X0276593Y0066156D01*
X0276593Y0067155D02*
X0010993Y0067155D01*
X0010993Y0068153D02*
X0276593Y0068153D01*
X0276593Y0069152D02*
X0010993Y0069152D01*
X0010993Y0070150D02*
X0276593Y0070150D01*
X0276593Y0071149D02*
X0010993Y0071149D01*
X0010993Y0072147D02*
X0276593Y0072147D01*
X0276593Y0073146D02*
X0010993Y0073146D01*
X0010993Y0074144D02*
X0276593Y0074144D01*
X0276593Y0075143D02*
X0010993Y0075143D01*
X0010993Y0076141D02*
X0276593Y0076141D01*
X0276593Y0077140D02*
X0010993Y0077140D01*
X0010993Y0078138D02*
X0276593Y0078138D01*
X0276593Y0079137D02*
X0010993Y0079137D01*
X0010993Y0080135D02*
X0276593Y0080135D01*
X0276593Y0081134D02*
X0010993Y0081134D01*
X0010993Y0082132D02*
X0276593Y0082132D01*
X0276593Y0083131D02*
X0010993Y0083131D01*
X0010993Y0084129D02*
X0276593Y0084129D01*
X0276593Y0085128D02*
X0010993Y0085128D01*
X0010993Y0086126D02*
X0276593Y0086126D01*
X0276593Y0087125D02*
X0010993Y0087125D01*
X0010993Y0088123D02*
X0276593Y0088123D01*
X0276593Y0089122D02*
X0010993Y0089122D01*
X0010993Y0090120D02*
X0276593Y0090120D01*
X0276593Y0091119D02*
X0010993Y0091119D01*
X0010993Y0092118D02*
X0133150Y0092118D01*
X0133216Y0092090D02*
X0134370Y0092090D01*
X0135436Y0092532D01*
X0136252Y0093347D01*
X0136693Y0094413D01*
X0136693Y0095567D01*
X0136576Y0095850D01*
X0169092Y0095850D01*
X0169151Y0095791D01*
X0170216Y0095350D01*
X0171370Y0095350D01*
X0172436Y0095791D01*
X0173252Y0096607D01*
X0173693Y0097673D01*
X0173693Y0098827D01*
X0173252Y0099893D01*
X0173193Y0099951D01*
X0173193Y0126256D01*
X0179428Y0132491D01*
X0180104Y0133166D01*
X0180469Y0134048D01*
X0180469Y0150850D01*
X0183592Y0150850D01*
X0183651Y0150791D01*
X0184716Y0150350D01*
X0185870Y0150350D01*
X0186936Y0150791D01*
X0186995Y0150850D01*
X0202799Y0150850D01*
X0205259Y0148391D01*
X0216893Y0136756D01*
X0216893Y0136673D01*
X0217335Y0135607D01*
X0218151Y0134791D01*
X0219216Y0134350D01*
X0219299Y0134350D01*
X0220434Y0133215D01*
X0221316Y0132850D01*
X0237843Y0132850D01*
X0237843Y0129901D01*
X0237585Y0129643D01*
X0237143Y0128577D01*
X0237143Y0127423D01*
X0237431Y0126730D01*
X0237019Y0126900D01*
X0235567Y0126900D01*
X0234226Y0126344D01*
X0233199Y0125318D01*
X0232668Y0124037D01*
X0232668Y0124518D01*
X0231698Y0126861D01*
X0229905Y0128655D01*
X0227561Y0129625D01*
X0225025Y0129625D01*
X0222682Y0128655D01*
X0220889Y0126861D01*
X0219918Y0124518D01*
X0219918Y0121982D01*
X0220889Y0119639D01*
X0222682Y0117845D01*
X0224723Y0117000D01*
X0222682Y0116155D01*
X0220889Y0114361D01*
X0219918Y0112018D01*
X0219918Y0109482D01*
X0220889Y0107139D01*
X0222682Y0105345D01*
X0225025Y0104375D01*
X0227561Y0104375D01*
X0229067Y0104998D01*
X0228643Y0103976D01*
X0228643Y0102524D01*
X0229199Y0101182D01*
X0230226Y0100156D01*
X0231567Y0099600D01*
X0233019Y0099600D01*
X0234361Y0100156D01*
X0235388Y0101182D01*
X0235943Y0102524D01*
X0235943Y0103976D01*
X0235388Y0105318D01*
X0234361Y0106344D01*
X0233019Y0106900D01*
X0231567Y0106900D01*
X0231383Y0106824D01*
X0231698Y0107139D01*
X0232668Y0109482D01*
X0232668Y0112018D01*
X0231698Y0114361D01*
X0229905Y0116155D01*
X0227864Y0117000D01*
X0229905Y0117845D01*
X0231698Y0119639D01*
X0232668Y0121982D01*
X0232668Y0122463D01*
X0233199Y0121182D01*
X0234226Y0120156D01*
X0235567Y0119600D01*
X0237019Y0119600D01*
X0238361Y0120156D01*
X0239388Y0121182D01*
X0239918Y0122463D01*
X0239918Y0121982D01*
X0240889Y0119639D01*
X0242682Y0117845D01*
X0244723Y0117000D01*
X0242682Y0116155D01*
X0240889Y0114361D01*
X0239918Y0112018D01*
X0239918Y0109482D01*
X0240889Y0107139D01*
X0241204Y0106824D01*
X0241019Y0106900D01*
X0239567Y0106900D01*
X0238226Y0106344D01*
X0237199Y0105318D01*
X0236643Y0103976D01*
X0236643Y0102524D01*
X0237199Y0101182D01*
X0238226Y0100156D01*
X0239567Y0099600D01*
X0241019Y0099600D01*
X0242361Y0100156D01*
X0243388Y0101182D01*
X0243943Y0102524D01*
X0243943Y0103976D01*
X0243520Y0104998D01*
X0245025Y0104375D01*
X0247561Y0104375D01*
X0249905Y0105345D01*
X0251698Y0107139D01*
X0252668Y0109482D01*
X0252668Y0112018D01*
X0251698Y0114361D01*
X0249905Y0116155D01*
X0247864Y0117000D01*
X0249905Y0117845D01*
X0251698Y0119639D01*
X0252668Y0121982D01*
X0252668Y0124518D01*
X0251698Y0126861D01*
X0249905Y0128655D01*
X0247561Y0129625D01*
X0245025Y0129625D01*
X0242878Y0128736D01*
X0242502Y0129643D01*
X0242243Y0129901D01*
X0242243Y0132850D01*
X0256299Y0132850D01*
X0264738Y0124411D01*
X0264641Y0124175D01*
X0264641Y0122324D01*
X0265349Y0120614D01*
X0266658Y0119306D01*
X0268368Y0118597D01*
X0270219Y0118597D01*
X0271929Y0119306D01*
X0273238Y0120614D01*
X0273946Y0122324D01*
X0273946Y0124175D01*
X0273238Y0125886D01*
X0271929Y0127194D01*
X0270219Y0127903D01*
X0268368Y0127903D01*
X0268132Y0127805D01*
X0258653Y0137285D01*
X0257771Y0137650D01*
X0222787Y0137650D01*
X0222693Y0137744D01*
X0222693Y0137827D01*
X0222252Y0138893D01*
X0221436Y0139708D01*
X0220370Y0140150D01*
X0220287Y0140150D01*
X0211041Y0149396D01*
X0211752Y0150107D01*
X0212193Y0151173D01*
X0212193Y0152327D01*
X0211752Y0153393D01*
X0210936Y0154208D01*
X0209870Y0154650D01*
X0208716Y0154650D01*
X0207651Y0154208D01*
X0206940Y0153498D01*
X0205153Y0155285D01*
X0204271Y0155650D01*
X0186995Y0155650D01*
X0186936Y0155708D01*
X0185870Y0156150D01*
X0184716Y0156150D01*
X0183651Y0155708D01*
X0183592Y0155650D01*
X0179770Y0155650D01*
X0179712Y0155708D01*
X0178646Y0156150D01*
X0177492Y0156150D01*
X0176426Y0155708D01*
X0175610Y0154893D01*
X0175169Y0153827D01*
X0175169Y0152673D01*
X0175610Y0151607D01*
X0175669Y0151549D01*
X0175669Y0135520D01*
X0168759Y0128609D01*
X0168393Y0127727D01*
X0168393Y0100650D01*
X0136193Y0100650D01*
X0136193Y0115727D01*
X0135828Y0116609D01*
X0109828Y0142609D01*
X0109153Y0143285D01*
X0108271Y0143650D01*
X0104193Y0143650D01*
X0104193Y0164727D01*
X0103828Y0165609D01*
X0103153Y0166285D01*
X0101153Y0168285D01*
X0100271Y0168650D01*
X0095495Y0168650D01*
X0095436Y0168708D01*
X0094370Y0169150D01*
X0093216Y0169150D01*
X0092151Y0168708D01*
X0091335Y0167893D01*
X0090893Y0166827D01*
X0090893Y0165673D01*
X0091335Y0164607D01*
X0092151Y0163791D01*
X0093216Y0163350D01*
X0094370Y0163350D01*
X0095436Y0163791D01*
X0095495Y0163850D01*
X0098799Y0163850D01*
X0099393Y0163256D01*
X0099393Y0143650D01*
X0080495Y0143650D01*
X0080436Y0143708D01*
X0079370Y0144150D01*
X0078216Y0144150D01*
X0077151Y0143708D01*
X0076335Y0142893D01*
X0075893Y0141827D01*
X0075893Y0140673D01*
X0076335Y0139607D01*
X0077151Y0138791D01*
X0078216Y0138350D01*
X0079370Y0138350D01*
X0080436Y0138791D01*
X0080495Y0138850D01*
X0106799Y0138850D01*
X0131393Y0114256D01*
X0131393Y0096691D01*
X0131335Y0096633D01*
X0130893Y0095567D01*
X0130893Y0094413D01*
X0131335Y0093347D01*
X0132151Y0092532D01*
X0133216Y0092090D01*
X0134436Y0092118D02*
X0276593Y0092118D01*
X0276593Y0093116D02*
X0136020Y0093116D01*
X0136570Y0094115D02*
X0276593Y0094115D01*
X0276593Y0095113D02*
X0136693Y0095113D01*
X0131566Y0093116D02*
X0010993Y0093116D01*
X0010993Y0094115D02*
X0131017Y0094115D01*
X0130893Y0095113D02*
X0010993Y0095113D01*
X0010993Y0096112D02*
X0131119Y0096112D01*
X0131393Y0097110D02*
X0010993Y0097110D01*
X0010993Y0098109D02*
X0131393Y0098109D01*
X0131393Y0099107D02*
X0010993Y0099107D01*
X0010993Y0100106D02*
X0131393Y0100106D01*
X0131393Y0101104D02*
X0010993Y0101104D01*
X0010993Y0102103D02*
X0131393Y0102103D01*
X0131393Y0103101D02*
X0010993Y0103101D01*
X0010993Y0104100D02*
X0131393Y0104100D01*
X0131393Y0105098D02*
X0010993Y0105098D01*
X0010993Y0106097D02*
X0131393Y0106097D01*
X0131393Y0107095D02*
X0010993Y0107095D01*
X0010993Y0108094D02*
X0131393Y0108094D01*
X0131393Y0109092D02*
X0010993Y0109092D01*
X0010993Y0110091D02*
X0131393Y0110091D01*
X0131393Y0111089D02*
X0010993Y0111089D01*
X0010993Y0112088D02*
X0131393Y0112088D01*
X0131393Y0113086D02*
X0010993Y0113086D01*
X0010993Y0114085D02*
X0131393Y0114085D01*
X0130566Y0115083D02*
X0010993Y0115083D01*
X0010993Y0116082D02*
X0129567Y0116082D01*
X0128569Y0117080D02*
X0010993Y0117080D01*
X0010993Y0118079D02*
X0127570Y0118079D01*
X0126572Y0119077D02*
X0010993Y0119077D01*
X0010993Y0120076D02*
X0125573Y0120076D01*
X0124575Y0121074D02*
X0010993Y0121074D01*
X0010993Y0122073D02*
X0123576Y0122073D01*
X0122578Y0123071D02*
X0010993Y0123071D01*
X0010993Y0124070D02*
X0121579Y0124070D01*
X0120581Y0125068D02*
X0010993Y0125068D01*
X0010993Y0126067D02*
X0119582Y0126067D01*
X0118584Y0127065D02*
X0010993Y0127065D01*
X0010993Y0128064D02*
X0117585Y0128064D01*
X0116587Y0129062D02*
X0010993Y0129062D01*
X0010993Y0130061D02*
X0115588Y0130061D01*
X0114590Y0131059D02*
X0010993Y0131059D01*
X0010993Y0132058D02*
X0113591Y0132058D01*
X0112593Y0133056D02*
X0041043Y0133056D01*
X0040951Y0132965D02*
X0042039Y0134053D01*
X0042627Y0135473D01*
X0042627Y0137011D01*
X0042039Y0138432D01*
X0040951Y0139519D01*
X0039531Y0140107D01*
X0034056Y0140107D01*
X0032635Y0139519D01*
X0031548Y0138432D01*
X0030959Y0137011D01*
X0030959Y0135473D01*
X0031548Y0134053D01*
X0032635Y0132965D01*
X0034056Y0132377D01*
X0039531Y0132377D01*
X0040951Y0132965D01*
X0042040Y0134055D02*
X0111594Y0134055D01*
X0110596Y0135053D02*
X0042453Y0135053D01*
X0042627Y0136052D02*
X0109597Y0136052D01*
X0108599Y0137051D02*
X0042611Y0137051D01*
X0042197Y0138049D02*
X0107600Y0138049D01*
X0111393Y0141045D02*
X0175669Y0141045D01*
X0175669Y0142043D02*
X0110394Y0142043D01*
X0109396Y0143042D02*
X0175669Y0143042D01*
X0175669Y0144040D02*
X0104193Y0144040D01*
X0104193Y0145039D02*
X0175669Y0145039D01*
X0175669Y0146037D02*
X0104193Y0146037D01*
X0104193Y0147036D02*
X0175669Y0147036D01*
X0175669Y0148034D02*
X0104193Y0148034D01*
X0104193Y0149033D02*
X0175669Y0149033D01*
X0175669Y0150031D02*
X0104193Y0150031D01*
X0104193Y0151030D02*
X0119912Y0151030D01*
X0120151Y0150791D02*
X0121216Y0150350D01*
X0122370Y0150350D01*
X0123436Y0150791D01*
X0124252Y0151607D01*
X0124693Y0152673D01*
X0124693Y0153827D01*
X0124252Y0154893D01*
X0123993Y0155151D01*
X0123993Y0159349D01*
X0124252Y0159607D01*
X0124693Y0160673D01*
X0124693Y0161827D01*
X0124252Y0162893D01*
X0123436Y0163708D01*
X0122370Y0164150D01*
X0121216Y0164150D01*
X0120151Y0163708D01*
X0119335Y0162893D01*
X0118893Y0161827D01*
X0118893Y0160673D01*
X0119335Y0159607D01*
X0119593Y0159349D01*
X0119593Y0155151D01*
X0119335Y0154893D01*
X0118893Y0153827D01*
X0118893Y0152673D01*
X0119335Y0151607D01*
X0120151Y0150791D01*
X0119160Y0152028D02*
X0104193Y0152028D01*
X0104193Y0153027D02*
X0118893Y0153027D01*
X0118975Y0154025D02*
X0104193Y0154025D01*
X0104193Y0155024D02*
X0119466Y0155024D01*
X0119593Y0156022D02*
X0104193Y0156022D01*
X0104193Y0157021D02*
X0119593Y0157021D01*
X0119593Y0158019D02*
X0104193Y0158019D01*
X0104193Y0159018D02*
X0119593Y0159018D01*
X0119165Y0160016D02*
X0104193Y0160016D01*
X0104193Y0161015D02*
X0118893Y0161015D01*
X0118971Y0162013D02*
X0104193Y0162013D01*
X0104193Y0163012D02*
X0119454Y0163012D01*
X0120879Y0164010D02*
X0104193Y0164010D01*
X0104077Y0165009D02*
X0246933Y0165009D01*
X0246169Y0166007D02*
X0103430Y0166007D01*
X0102432Y0167006D02*
X0245893Y0167006D01*
X0244928Y0168004D02*
X0101433Y0168004D01*
X0099393Y0163012D02*
X0054439Y0163012D01*
X0054403Y0163027D02*
X0054252Y0163393D01*
X0053436Y0164208D01*
X0052370Y0164650D01*
X0051216Y0164650D01*
X0050151Y0164208D01*
X0049335Y0163393D01*
X0048893Y0162327D01*
X0048893Y0161173D01*
X0049335Y0160107D01*
X0050151Y0159291D01*
X0051216Y0158850D01*
X0052370Y0158850D01*
X0052794Y0159026D01*
X0052823Y0158955D01*
X0052843Y0158750D01*
X0052843Y0158454D01*
X0052370Y0158650D01*
X0051216Y0158650D01*
X0050151Y0158208D01*
X0049335Y0157393D01*
X0049183Y0157027D01*
X0048989Y0156946D01*
X0047597Y0155554D01*
X0047597Y0155554D01*
X0046843Y0153735D01*
X0046843Y0146765D01*
X0047597Y0144946D01*
X0048989Y0143554D01*
X0048989Y0143554D01*
X0049183Y0143473D01*
X0049335Y0143107D01*
X0050151Y0142291D01*
X0051216Y0141850D01*
X0052370Y0141850D01*
X0053436Y0142291D01*
X0054252Y0143107D01*
X0054693Y0144173D01*
X0054693Y0145327D01*
X0054252Y0146393D01*
X0053436Y0147208D01*
X0052370Y0147650D01*
X0051216Y0147650D01*
X0050793Y0147474D01*
X0050763Y0147545D01*
X0050743Y0147750D01*
X0050743Y0148546D01*
X0051216Y0148350D01*
X0052370Y0148350D01*
X0053436Y0148791D01*
X0054252Y0149607D01*
X0054403Y0149973D01*
X0054597Y0150054D01*
X0055990Y0151446D01*
X0056743Y0153265D01*
X0056743Y0159735D01*
X0055990Y0161554D01*
X0054597Y0162946D01*
X0054403Y0163027D01*
X0054597Y0162946D02*
X0054597Y0162946D01*
X0055530Y0162013D02*
X0099393Y0162013D01*
X0099393Y0161015D02*
X0056213Y0161015D01*
X0055990Y0161554D02*
X0055990Y0161554D01*
X0056627Y0160016D02*
X0099393Y0160016D01*
X0099393Y0159018D02*
X0056743Y0159018D01*
X0056743Y0158019D02*
X0099393Y0158019D01*
X0099393Y0157021D02*
X0056743Y0157021D01*
X0056743Y0156022D02*
X0099393Y0156022D01*
X0099393Y0155024D02*
X0056743Y0155024D01*
X0056743Y0154025D02*
X0099393Y0154025D01*
X0099393Y0153027D02*
X0056644Y0153027D01*
X0056231Y0152028D02*
X0099393Y0152028D01*
X0099393Y0151030D02*
X0055573Y0151030D01*
X0055990Y0151446D02*
X0055990Y0151446D01*
X0054597Y0150054D02*
X0054597Y0150054D01*
X0054543Y0150031D02*
X0099393Y0150031D01*
X0099393Y0149033D02*
X0053677Y0149033D01*
X0053609Y0147036D02*
X0099393Y0147036D01*
X0099393Y0148034D02*
X0050743Y0148034D01*
X0054399Y0146037D02*
X0099393Y0146037D01*
X0099393Y0145039D02*
X0054693Y0145039D01*
X0054638Y0144040D02*
X0077951Y0144040D01*
X0079635Y0144040D02*
X0099393Y0144040D01*
X0112391Y0140046D02*
X0175669Y0140046D01*
X0175669Y0139048D02*
X0113390Y0139048D01*
X0114388Y0138049D02*
X0175669Y0138049D01*
X0175669Y0137051D02*
X0115387Y0137051D01*
X0116385Y0136052D02*
X0175669Y0136052D01*
X0175203Y0135053D02*
X0117384Y0135053D01*
X0118382Y0134055D02*
X0174204Y0134055D01*
X0173206Y0133056D02*
X0119381Y0133056D01*
X0120379Y0132058D02*
X0172207Y0132058D01*
X0171209Y0131059D02*
X0121378Y0131059D01*
X0122376Y0130061D02*
X0170210Y0130061D01*
X0169212Y0129062D02*
X0123375Y0129062D01*
X0124373Y0128064D02*
X0168533Y0128064D01*
X0168393Y0127065D02*
X0125372Y0127065D01*
X0126371Y0126067D02*
X0168393Y0126067D01*
X0168393Y0125068D02*
X0127369Y0125068D01*
X0128368Y0124070D02*
X0168393Y0124070D01*
X0168393Y0123071D02*
X0129366Y0123071D01*
X0130365Y0122073D02*
X0168393Y0122073D01*
X0168393Y0121074D02*
X0131363Y0121074D01*
X0132362Y0120076D02*
X0168393Y0120076D01*
X0168393Y0119077D02*
X0133360Y0119077D01*
X0134359Y0118079D02*
X0168393Y0118079D01*
X0168393Y0117080D02*
X0135357Y0117080D01*
X0136047Y0116082D02*
X0168393Y0116082D01*
X0168393Y0115083D02*
X0136193Y0115083D01*
X0136193Y0114085D02*
X0168393Y0114085D01*
X0168393Y0113086D02*
X0136193Y0113086D01*
X0136193Y0112088D02*
X0168393Y0112088D01*
X0168393Y0111089D02*
X0136193Y0111089D01*
X0136193Y0110091D02*
X0168393Y0110091D01*
X0168393Y0109092D02*
X0136193Y0109092D01*
X0136193Y0108094D02*
X0168393Y0108094D01*
X0168393Y0107095D02*
X0136193Y0107095D01*
X0136193Y0106097D02*
X0168393Y0106097D01*
X0168393Y0105098D02*
X0136193Y0105098D01*
X0136193Y0104100D02*
X0168393Y0104100D01*
X0168393Y0103101D02*
X0136193Y0103101D01*
X0136193Y0102103D02*
X0168393Y0102103D01*
X0168393Y0101104D02*
X0136193Y0101104D01*
X0172756Y0096112D02*
X0276593Y0096112D01*
X0276593Y0097110D02*
X0173460Y0097110D01*
X0173693Y0098109D02*
X0276593Y0098109D01*
X0276593Y0099107D02*
X0270952Y0099107D01*
X0271003Y0099123D02*
X0271627Y0099442D01*
X0272194Y0099854D01*
X0272690Y0100349D01*
X0273102Y0100916D01*
X0273420Y0101541D01*
X0273636Y0102207D01*
X0273725Y0102766D01*
X0269778Y0102766D01*
X0269778Y0103734D01*
X0273725Y0103734D01*
X0273636Y0104293D01*
X0273420Y0104959D01*
X0273102Y0105584D01*
X0272690Y0106151D01*
X0272194Y0106646D01*
X0271627Y0107058D01*
X0271003Y0107377D01*
X0270336Y0107593D01*
X0269778Y0107682D01*
X0269778Y0103734D01*
X0268809Y0103734D01*
X0268809Y0102766D01*
X0264862Y0102766D01*
X0264950Y0102207D01*
X0265167Y0101541D01*
X0265485Y0100916D01*
X0265897Y0100349D01*
X0266393Y0099854D01*
X0266960Y0099442D01*
X0267584Y0099123D01*
X0268251Y0098907D01*
X0268809Y0098818D01*
X0268809Y0102766D01*
X0269778Y0102766D01*
X0269778Y0098818D01*
X0270336Y0098907D01*
X0271003Y0099123D01*
X0269778Y0099107D02*
X0268809Y0099107D01*
X0268809Y0100106D02*
X0269778Y0100106D01*
X0269778Y0101104D02*
X0268809Y0101104D01*
X0268809Y0102103D02*
X0269778Y0102103D01*
X0269778Y0103101D02*
X0276593Y0103101D01*
X0276593Y0102103D02*
X0273602Y0102103D01*
X0273197Y0101104D02*
X0276593Y0101104D01*
X0276593Y0100106D02*
X0272446Y0100106D01*
X0273667Y0104100D02*
X0276593Y0104100D01*
X0276593Y0105098D02*
X0273349Y0105098D01*
X0272729Y0106097D02*
X0276593Y0106097D01*
X0276593Y0107095D02*
X0271555Y0107095D01*
X0269778Y0107095D02*
X0268809Y0107095D01*
X0268809Y0107682D02*
X0268809Y0103734D01*
X0264862Y0103734D01*
X0264950Y0104293D01*
X0265167Y0104959D01*
X0265485Y0105584D01*
X0265897Y0106151D01*
X0266393Y0106646D01*
X0266960Y0107058D01*
X0267584Y0107377D01*
X0268251Y0107593D01*
X0268809Y0107682D01*
X0268368Y0108597D02*
X0270219Y0108597D01*
X0271929Y0109306D01*
X0273238Y0110614D01*
X0273946Y0112324D01*
X0273946Y0114175D01*
X0273238Y0115886D01*
X0271929Y0117194D01*
X0270219Y0117903D01*
X0268368Y0117903D01*
X0266658Y0117194D01*
X0265349Y0115886D01*
X0264641Y0114175D01*
X0264641Y0112324D01*
X0265349Y0110614D01*
X0266658Y0109306D01*
X0268368Y0108597D01*
X0267173Y0109092D02*
X0261414Y0109092D01*
X0261929Y0109306D02*
X0263238Y0110614D01*
X0263946Y0112324D01*
X0263946Y0114175D01*
X0263238Y0115886D01*
X0261929Y0117194D01*
X0260219Y0117903D01*
X0258368Y0117903D01*
X0256658Y0117194D01*
X0255349Y0115886D01*
X0254641Y0114175D01*
X0254641Y0112324D01*
X0255349Y0110614D01*
X0256658Y0109306D01*
X0258368Y0108597D01*
X0260219Y0108597D01*
X0261929Y0109306D01*
X0262714Y0110091D02*
X0265873Y0110091D01*
X0265152Y0111089D02*
X0263434Y0111089D01*
X0263848Y0112088D02*
X0264739Y0112088D01*
X0264641Y0113086D02*
X0263946Y0113086D01*
X0263946Y0114085D02*
X0264641Y0114085D01*
X0265017Y0115083D02*
X0263570Y0115083D01*
X0263041Y0116082D02*
X0265545Y0116082D01*
X0266544Y0117080D02*
X0262043Y0117080D01*
X0261378Y0119077D02*
X0267209Y0119077D01*
X0265887Y0120076D02*
X0262699Y0120076D01*
X0263238Y0120614D02*
X0261929Y0119306D01*
X0260219Y0118597D01*
X0258368Y0118597D01*
X0256658Y0119306D01*
X0255349Y0120614D01*
X0254641Y0122324D01*
X0254641Y0124175D01*
X0255349Y0125886D01*
X0256658Y0127194D01*
X0258368Y0127903D01*
X0260219Y0127903D01*
X0261929Y0127194D01*
X0263238Y0125886D01*
X0263946Y0124175D01*
X0263946Y0122324D01*
X0263238Y0120614D01*
X0263428Y0121074D02*
X0265158Y0121074D01*
X0264745Y0122073D02*
X0263842Y0122073D01*
X0263946Y0123071D02*
X0264641Y0123071D01*
X0264641Y0124070D02*
X0263946Y0124070D01*
X0264081Y0125068D02*
X0263576Y0125068D01*
X0263082Y0126067D02*
X0263056Y0126067D01*
X0262084Y0127065D02*
X0262058Y0127065D01*
X0261085Y0128064D02*
X0250495Y0128064D01*
X0251494Y0127065D02*
X0256529Y0127065D01*
X0255530Y0126067D02*
X0252027Y0126067D01*
X0252441Y0125068D02*
X0255010Y0125068D01*
X0254641Y0124070D02*
X0252668Y0124070D01*
X0252668Y0123071D02*
X0254641Y0123071D01*
X0254745Y0122073D02*
X0252668Y0122073D01*
X0252293Y0121074D02*
X0255158Y0121074D01*
X0255887Y0120076D02*
X0251879Y0120076D01*
X0251137Y0119077D02*
X0257209Y0119077D01*
X0256544Y0117080D02*
X0248057Y0117080D01*
X0249977Y0116082D02*
X0255545Y0116082D01*
X0255017Y0115083D02*
X0250976Y0115083D01*
X0251812Y0114085D02*
X0254641Y0114085D01*
X0254641Y0113086D02*
X0252226Y0113086D01*
X0252640Y0112088D02*
X0254739Y0112088D01*
X0255152Y0111089D02*
X0252668Y0111089D01*
X0252668Y0110091D02*
X0255873Y0110091D01*
X0257173Y0109092D02*
X0252507Y0109092D01*
X0252093Y0108094D02*
X0276593Y0108094D01*
X0276593Y0109092D02*
X0271414Y0109092D01*
X0272714Y0110091D02*
X0276593Y0110091D01*
X0276593Y0111089D02*
X0273434Y0111089D01*
X0273848Y0112088D02*
X0276593Y0112088D01*
X0276593Y0113086D02*
X0273946Y0113086D01*
X0273946Y0114085D02*
X0276593Y0114085D01*
X0276593Y0115083D02*
X0273570Y0115083D01*
X0273041Y0116082D02*
X0276593Y0116082D01*
X0276593Y0117080D02*
X0272043Y0117080D01*
X0271378Y0119077D02*
X0276593Y0119077D01*
X0276593Y0118079D02*
X0250138Y0118079D01*
X0244529Y0117080D02*
X0228057Y0117080D01*
X0229977Y0116082D02*
X0242609Y0116082D01*
X0241611Y0115083D02*
X0230976Y0115083D01*
X0231812Y0114085D02*
X0240774Y0114085D01*
X0240361Y0113086D02*
X0232226Y0113086D01*
X0232640Y0112088D02*
X0239947Y0112088D01*
X0239918Y0111089D02*
X0232668Y0111089D01*
X0232668Y0110091D02*
X0239918Y0110091D01*
X0240080Y0109092D02*
X0232507Y0109092D01*
X0232093Y0108094D02*
X0240493Y0108094D01*
X0240932Y0107095D02*
X0231654Y0107095D01*
X0234609Y0106097D02*
X0237978Y0106097D01*
X0237108Y0105098D02*
X0235479Y0105098D01*
X0235892Y0104100D02*
X0236695Y0104100D01*
X0236643Y0103101D02*
X0235943Y0103101D01*
X0235769Y0102103D02*
X0236818Y0102103D01*
X0237277Y0101104D02*
X0235309Y0101104D01*
X0234240Y0100106D02*
X0238347Y0100106D01*
X0236793Y0098500D02*
X0236793Y0096250D01*
X0236793Y0098500D02*
X0236293Y0098500D01*
X0230347Y0100106D02*
X0173193Y0100106D01*
X0173193Y0101104D02*
X0229277Y0101104D01*
X0228818Y0102103D02*
X0173193Y0102103D01*
X0173193Y0103101D02*
X0228643Y0103101D01*
X0228695Y0104100D02*
X0173193Y0104100D01*
X0173193Y0105098D02*
X0223279Y0105098D01*
X0221931Y0106097D02*
X0173193Y0106097D01*
X0173193Y0107095D02*
X0220932Y0107095D01*
X0220493Y0108094D02*
X0173193Y0108094D01*
X0173193Y0109092D02*
X0220080Y0109092D01*
X0219918Y0110091D02*
X0173193Y0110091D01*
X0173193Y0111089D02*
X0219918Y0111089D01*
X0219947Y0112088D02*
X0173193Y0112088D01*
X0173193Y0113086D02*
X0220361Y0113086D01*
X0220774Y0114085D02*
X0173193Y0114085D01*
X0173193Y0115083D02*
X0221611Y0115083D01*
X0222609Y0116082D02*
X0173193Y0116082D01*
X0173193Y0117080D02*
X0224529Y0117080D01*
X0222449Y0118079D02*
X0173193Y0118079D01*
X0173193Y0119077D02*
X0221450Y0119077D01*
X0220708Y0120076D02*
X0173193Y0120076D01*
X0173193Y0121074D02*
X0220294Y0121074D01*
X0219918Y0122073D02*
X0173193Y0122073D01*
X0173193Y0123071D02*
X0219918Y0123071D01*
X0219918Y0124070D02*
X0173193Y0124070D01*
X0173193Y0125068D02*
X0220146Y0125068D01*
X0220560Y0126067D02*
X0173193Y0126067D01*
X0174003Y0127065D02*
X0221093Y0127065D01*
X0222091Y0128064D02*
X0175001Y0128064D01*
X0176000Y0129062D02*
X0223667Y0129062D01*
X0220817Y0133056D02*
X0179994Y0133056D01*
X0180469Y0134055D02*
X0219594Y0134055D01*
X0217889Y0135053D02*
X0180469Y0135053D01*
X0180469Y0136052D02*
X0217151Y0136052D01*
X0216599Y0137051D02*
X0180469Y0137051D01*
X0180469Y0138049D02*
X0215600Y0138049D01*
X0214602Y0139048D02*
X0180469Y0139048D01*
X0180469Y0140046D02*
X0213603Y0140046D01*
X0212605Y0141045D02*
X0180469Y0141045D01*
X0180469Y0142043D02*
X0211606Y0142043D01*
X0210608Y0143042D02*
X0180469Y0143042D01*
X0180469Y0144040D02*
X0209609Y0144040D01*
X0208611Y0145039D02*
X0180469Y0145039D01*
X0180469Y0146037D02*
X0207612Y0146037D01*
X0206614Y0147036D02*
X0180469Y0147036D01*
X0180469Y0148034D02*
X0205615Y0148034D01*
X0204617Y0149033D02*
X0180469Y0149033D01*
X0180469Y0150031D02*
X0203618Y0150031D01*
X0206412Y0154025D02*
X0207467Y0154025D01*
X0205414Y0155024D02*
X0273908Y0155024D01*
X0272910Y0156022D02*
X0186179Y0156022D01*
X0184408Y0156022D02*
X0178954Y0156022D01*
X0177184Y0156022D02*
X0123993Y0156022D01*
X0123993Y0157021D02*
X0271911Y0157021D01*
X0270913Y0158019D02*
X0123993Y0158019D01*
X0123993Y0159018D02*
X0269914Y0159018D01*
X0268916Y0160016D02*
X0124421Y0160016D01*
X0124693Y0161015D02*
X0267917Y0161015D01*
X0266919Y0162013D02*
X0124616Y0162013D01*
X0124133Y0163012D02*
X0266593Y0163012D01*
X0266593Y0164010D02*
X0122707Y0164010D01*
X0121793Y0161250D02*
X0121793Y0153250D01*
X0124426Y0152028D02*
X0175436Y0152028D01*
X0175669Y0151030D02*
X0123674Y0151030D01*
X0124693Y0153027D02*
X0175169Y0153027D01*
X0175251Y0154025D02*
X0124611Y0154025D01*
X0124121Y0155024D02*
X0175741Y0155024D01*
X0193793Y0163250D02*
X0195293Y0163250D01*
X0211119Y0154025D02*
X0274907Y0154025D01*
X0275905Y0153027D02*
X0211903Y0153027D01*
X0212193Y0152028D02*
X0276593Y0152028D01*
X0276593Y0151030D02*
X0212134Y0151030D01*
X0211676Y0150031D02*
X0266319Y0150031D01*
X0267359Y0150462D02*
X0264708Y0149364D01*
X0262679Y0147335D01*
X0261581Y0144685D01*
X0261581Y0141815D01*
X0262679Y0139165D01*
X0264708Y0137136D01*
X0267359Y0136038D01*
X0270228Y0136038D01*
X0272878Y0137136D01*
X0274907Y0139165D01*
X0276005Y0141815D01*
X0276005Y0144685D01*
X0274907Y0147335D01*
X0272878Y0149364D01*
X0270228Y0150462D01*
X0267359Y0150462D01*
X0264377Y0149033D02*
X0211405Y0149033D01*
X0212403Y0148034D02*
X0263378Y0148034D01*
X0262555Y0147036D02*
X0213402Y0147036D01*
X0214400Y0146037D02*
X0262142Y0146037D01*
X0261728Y0145039D02*
X0215399Y0145039D01*
X0216397Y0144040D02*
X0261581Y0144040D01*
X0261581Y0143042D02*
X0217396Y0143042D01*
X0218394Y0142043D02*
X0261581Y0142043D01*
X0261901Y0141045D02*
X0219393Y0141045D01*
X0220621Y0140046D02*
X0262314Y0140046D01*
X0262797Y0139048D02*
X0222097Y0139048D01*
X0222601Y0138049D02*
X0263795Y0138049D01*
X0264915Y0137051D02*
X0258887Y0137051D01*
X0259885Y0136052D02*
X0267325Y0136052D01*
X0270261Y0136052D02*
X0276593Y0136052D01*
X0276593Y0137051D02*
X0272672Y0137051D01*
X0273791Y0138049D02*
X0276593Y0138049D01*
X0276593Y0139048D02*
X0274790Y0139048D01*
X0275272Y0140046D02*
X0276593Y0140046D01*
X0276593Y0141045D02*
X0275686Y0141045D01*
X0276005Y0142043D02*
X0276593Y0142043D01*
X0276593Y0143042D02*
X0276005Y0143042D01*
X0276005Y0144040D02*
X0276593Y0144040D01*
X0276593Y0145039D02*
X0275858Y0145039D01*
X0275445Y0146037D02*
X0276593Y0146037D01*
X0276593Y0147036D02*
X0275031Y0147036D01*
X0274208Y0148034D02*
X0276593Y0148034D01*
X0276593Y0149033D02*
X0273210Y0149033D01*
X0271267Y0150031D02*
X0276593Y0150031D01*
X0276593Y0135053D02*
X0260884Y0135053D01*
X0261882Y0134055D02*
X0276593Y0134055D01*
X0276593Y0133056D02*
X0262881Y0133056D01*
X0263879Y0132058D02*
X0276593Y0132058D01*
X0276593Y0131059D02*
X0264878Y0131059D01*
X0265876Y0130061D02*
X0276593Y0130061D01*
X0276593Y0129062D02*
X0266875Y0129062D01*
X0267873Y0128064D02*
X0276593Y0128064D01*
X0276593Y0127065D02*
X0272058Y0127065D01*
X0273056Y0126067D02*
X0276593Y0126067D01*
X0276593Y0125068D02*
X0273576Y0125068D01*
X0273946Y0124070D02*
X0276593Y0124070D01*
X0276593Y0123071D02*
X0273946Y0123071D01*
X0273842Y0122073D02*
X0276593Y0122073D01*
X0276593Y0121074D02*
X0273428Y0121074D01*
X0272699Y0120076D02*
X0276593Y0120076D01*
X0269778Y0106097D02*
X0268809Y0106097D01*
X0268809Y0105098D02*
X0269778Y0105098D01*
X0269778Y0104100D02*
X0268809Y0104100D01*
X0268809Y0103101D02*
X0263946Y0103101D01*
X0263946Y0102324D02*
X0263946Y0104175D01*
X0263238Y0105886D01*
X0261929Y0107194D01*
X0260219Y0107903D01*
X0258368Y0107903D01*
X0256658Y0107194D01*
X0255349Y0105886D01*
X0254641Y0104175D01*
X0254641Y0102324D01*
X0255349Y0100614D01*
X0256658Y0099306D01*
X0258368Y0098597D01*
X0260219Y0098597D01*
X0261929Y0099306D01*
X0263238Y0100614D01*
X0263946Y0102324D01*
X0263854Y0102103D02*
X0264984Y0102103D01*
X0265389Y0101104D02*
X0263441Y0101104D01*
X0262729Y0100106D02*
X0266141Y0100106D01*
X0267634Y0099107D02*
X0261450Y0099107D01*
X0257137Y0099107D02*
X0173577Y0099107D01*
X0176998Y0130061D02*
X0237843Y0130061D01*
X0237843Y0131059D02*
X0177997Y0131059D01*
X0178995Y0132058D02*
X0237843Y0132058D01*
X0237344Y0129062D02*
X0228920Y0129062D01*
X0230495Y0128064D02*
X0237143Y0128064D01*
X0237291Y0127065D02*
X0231494Y0127065D01*
X0232027Y0126067D02*
X0233948Y0126067D01*
X0233096Y0125068D02*
X0232441Y0125068D01*
X0232668Y0124070D02*
X0232682Y0124070D01*
X0232668Y0122073D02*
X0232830Y0122073D01*
X0233307Y0121074D02*
X0232293Y0121074D01*
X0231879Y0120076D02*
X0234419Y0120076D01*
X0231137Y0119077D02*
X0241450Y0119077D01*
X0240708Y0120076D02*
X0238168Y0120076D01*
X0239280Y0121074D02*
X0240294Y0121074D01*
X0239918Y0122073D02*
X0239756Y0122073D01*
X0242449Y0118079D02*
X0230138Y0118079D01*
X0240043Y0128000D02*
X0240043Y0135250D01*
X0239793Y0135250D01*
X0242243Y0132058D02*
X0257091Y0132058D01*
X0258090Y0131059D02*
X0242243Y0131059D01*
X0242243Y0130061D02*
X0259088Y0130061D01*
X0260087Y0129062D02*
X0248920Y0129062D01*
X0243667Y0129062D02*
X0242742Y0129062D01*
X0251654Y0107095D02*
X0256559Y0107095D01*
X0255560Y0106097D02*
X0250656Y0106097D01*
X0249308Y0105098D02*
X0255023Y0105098D01*
X0254641Y0104100D02*
X0243892Y0104100D01*
X0243943Y0103101D02*
X0254641Y0103101D01*
X0254732Y0102103D02*
X0243769Y0102103D01*
X0243309Y0101104D02*
X0255146Y0101104D01*
X0255858Y0100106D02*
X0242240Y0100106D01*
X0262028Y0107095D02*
X0267032Y0107095D01*
X0265858Y0106097D02*
X0263027Y0106097D01*
X0263564Y0105098D02*
X0265238Y0105098D01*
X0264920Y0104100D02*
X0263946Y0104100D01*
X0266593Y0165009D02*
X0256653Y0165009D01*
X0257418Y0166007D02*
X0266593Y0166007D01*
X0266593Y0167006D02*
X0257693Y0167006D01*
X0257620Y0168004D02*
X0266593Y0168004D01*
X0266593Y0169003D02*
X0257142Y0169003D01*
X0256153Y0170001D02*
X0266593Y0170001D01*
X0266593Y0171000D02*
X0255155Y0171000D01*
X0254156Y0171998D02*
X0266593Y0171998D01*
X0266593Y0172997D02*
X0253158Y0172997D01*
X0252159Y0173995D02*
X0266593Y0173995D01*
X0266593Y0174994D02*
X0251161Y0174994D01*
X0250162Y0175992D02*
X0266593Y0175992D01*
X0266593Y0176991D02*
X0249164Y0176991D01*
X0248165Y0177989D02*
X0266593Y0177989D01*
X0266593Y0178988D02*
X0247167Y0178988D01*
X0246168Y0179987D02*
X0266593Y0179987D01*
X0266593Y0180985D02*
X0245170Y0180985D01*
X0244171Y0181984D02*
X0266593Y0181984D01*
X0266593Y0182982D02*
X0243173Y0182982D01*
X0242174Y0183981D02*
X0266593Y0183981D01*
X0266593Y0184979D02*
X0241176Y0184979D01*
X0240177Y0185978D02*
X0266593Y0185978D01*
X0266593Y0186976D02*
X0239178Y0186976D01*
X0235793Y0187250D02*
X0130793Y0187250D01*
X0121622Y0178078D01*
X0119026Y0178078D01*
X0115965Y0181140D01*
X0115965Y0184322D01*
X0124893Y0193250D01*
X0132793Y0193250D01*
X0142793Y0203250D01*
X0138461Y0204949D02*
X0137126Y0204949D01*
X0137446Y0203951D02*
X0138141Y0203951D01*
X0138141Y0202952D02*
X0137446Y0202952D01*
X0137292Y0201954D02*
X0138294Y0201954D01*
X0137387Y0200955D02*
X0136879Y0200955D01*
X0136389Y0199957D02*
X0136080Y0199957D01*
X0135390Y0198958D02*
X0134993Y0198958D01*
X0132793Y0197750D02*
X0132793Y0203250D01*
X0129507Y0199957D02*
X0126080Y0199957D01*
X0126879Y0200955D02*
X0128708Y0200955D01*
X0128294Y0201954D02*
X0127292Y0201954D01*
X0127446Y0202952D02*
X0128141Y0202952D01*
X0128141Y0203951D02*
X0127446Y0203951D01*
X0127126Y0204949D02*
X0128461Y0204949D01*
X0128911Y0205948D02*
X0126675Y0205948D01*
X0125677Y0206946D02*
X0129910Y0206946D01*
X0135677Y0206946D02*
X0139910Y0206946D01*
X0138911Y0205948D02*
X0136675Y0205948D01*
X0140614Y0197960D02*
X0240392Y0197960D01*
X0239719Y0198597D02*
X0241429Y0199306D01*
X0242738Y0200614D01*
X0243446Y0202324D01*
X0243446Y0204175D01*
X0242738Y0205886D01*
X0241429Y0207194D01*
X0239719Y0207903D01*
X0237868Y0207903D01*
X0236158Y0207194D01*
X0234849Y0205886D01*
X0234141Y0204175D01*
X0234141Y0202324D01*
X0234849Y0200614D01*
X0236158Y0199306D01*
X0237868Y0198597D01*
X0239719Y0198597D01*
X0240590Y0198958D02*
X0241390Y0198958D01*
X0242080Y0199957D02*
X0242389Y0199957D01*
X0242879Y0200955D02*
X0243387Y0200955D01*
X0243292Y0201954D02*
X0244294Y0201954D01*
X0244141Y0202952D02*
X0243446Y0202952D01*
X0243446Y0203951D02*
X0244141Y0203951D01*
X0244461Y0204949D02*
X0243126Y0204949D01*
X0242675Y0205948D02*
X0244911Y0205948D01*
X0245910Y0206946D02*
X0241677Y0206946D01*
X0235910Y0206946D02*
X0231677Y0206946D01*
X0231429Y0207194D02*
X0229719Y0207903D01*
X0227868Y0207903D01*
X0226158Y0207194D01*
X0224849Y0205886D01*
X0224141Y0204175D01*
X0224141Y0202324D01*
X0224849Y0200614D01*
X0226158Y0199306D01*
X0227868Y0198597D01*
X0229719Y0198597D01*
X0231429Y0199306D01*
X0232738Y0200614D01*
X0233446Y0202324D01*
X0233446Y0204175D01*
X0232738Y0205886D01*
X0231429Y0207194D01*
X0232675Y0205948D02*
X0234911Y0205948D01*
X0234461Y0204949D02*
X0233126Y0204949D01*
X0233446Y0203951D02*
X0234141Y0203951D01*
X0234141Y0202952D02*
X0233446Y0202952D01*
X0233292Y0201954D02*
X0234294Y0201954D01*
X0234708Y0200955D02*
X0232879Y0200955D01*
X0232080Y0199957D02*
X0235507Y0199957D01*
X0236996Y0198958D02*
X0230590Y0198958D01*
X0226996Y0198958D02*
X0220590Y0198958D01*
X0221429Y0199306D02*
X0222738Y0200614D01*
X0223446Y0202324D01*
X0223446Y0204175D01*
X0222738Y0205886D01*
X0221429Y0207194D01*
X0219719Y0207903D01*
X0217868Y0207903D01*
X0216158Y0207194D01*
X0214849Y0205886D01*
X0214141Y0204175D01*
X0214141Y0202324D01*
X0214849Y0200614D01*
X0216158Y0199306D01*
X0217868Y0198597D01*
X0219719Y0198597D01*
X0221429Y0199306D01*
X0222080Y0199957D02*
X0225507Y0199957D01*
X0224708Y0200955D02*
X0222879Y0200955D01*
X0223292Y0201954D02*
X0224294Y0201954D01*
X0224141Y0202952D02*
X0223446Y0202952D01*
X0223446Y0203951D02*
X0224141Y0203951D01*
X0224461Y0204949D02*
X0223126Y0204949D01*
X0222675Y0205948D02*
X0224911Y0205948D01*
X0225910Y0206946D02*
X0221677Y0206946D01*
X0215910Y0206946D02*
X0211677Y0206946D01*
X0211429Y0207194D02*
X0209719Y0207903D01*
X0207868Y0207903D01*
X0206158Y0207194D01*
X0204849Y0205886D01*
X0204141Y0204175D01*
X0204141Y0202324D01*
X0204849Y0200614D01*
X0206158Y0199306D01*
X0207868Y0198597D01*
X0209719Y0198597D01*
X0211429Y0199306D01*
X0212738Y0200614D01*
X0213446Y0202324D01*
X0213446Y0204175D01*
X0212738Y0205886D01*
X0211429Y0207194D01*
X0212675Y0205948D02*
X0214911Y0205948D01*
X0214461Y0204949D02*
X0213126Y0204949D01*
X0213446Y0203951D02*
X0214141Y0203951D01*
X0214141Y0202952D02*
X0213446Y0202952D01*
X0213292Y0201954D02*
X0214294Y0201954D01*
X0214708Y0200955D02*
X0212879Y0200955D01*
X0212080Y0199957D02*
X0215507Y0199957D01*
X0216996Y0198958D02*
X0210590Y0198958D01*
X0206996Y0198958D02*
X0200590Y0198958D01*
X0201429Y0199306D02*
X0202738Y0200614D01*
X0203446Y0202324D01*
X0203446Y0204175D01*
X0202738Y0205886D01*
X0201429Y0207194D01*
X0199719Y0207903D01*
X0197868Y0207903D01*
X0196158Y0207194D01*
X0194849Y0205886D01*
X0194141Y0204175D01*
X0194141Y0202324D01*
X0194849Y0200614D01*
X0196158Y0199306D01*
X0197868Y0198597D01*
X0199719Y0198597D01*
X0201429Y0199306D01*
X0202080Y0199957D02*
X0205507Y0199957D01*
X0204708Y0200955D02*
X0202879Y0200955D01*
X0203292Y0201954D02*
X0204294Y0201954D01*
X0204141Y0202952D02*
X0203446Y0202952D01*
X0203446Y0203951D02*
X0204141Y0203951D01*
X0204461Y0204949D02*
X0203126Y0204949D01*
X0202675Y0205948D02*
X0204911Y0205948D01*
X0205910Y0206946D02*
X0201677Y0206946D01*
X0195910Y0206946D02*
X0191677Y0206946D01*
X0191429Y0207194D02*
X0189719Y0207903D01*
X0187868Y0207903D01*
X0186158Y0207194D01*
X0184849Y0205886D01*
X0184141Y0204175D01*
X0184141Y0202324D01*
X0184849Y0200614D01*
X0186158Y0199306D01*
X0187868Y0198597D01*
X0189719Y0198597D01*
X0191429Y0199306D01*
X0192738Y0200614D01*
X0193446Y0202324D01*
X0193446Y0204175D01*
X0192738Y0205886D01*
X0191429Y0207194D01*
X0192675Y0205948D02*
X0194911Y0205948D01*
X0194461Y0204949D02*
X0193126Y0204949D01*
X0193446Y0203951D02*
X0194141Y0203951D01*
X0194141Y0202952D02*
X0193446Y0202952D01*
X0193292Y0201954D02*
X0194294Y0201954D01*
X0194708Y0200955D02*
X0192879Y0200955D01*
X0192080Y0199957D02*
X0195507Y0199957D01*
X0196996Y0198958D02*
X0190590Y0198958D01*
X0186996Y0198958D02*
X0174590Y0198958D01*
X0175429Y0199306D02*
X0176738Y0200614D01*
X0177446Y0202324D01*
X0177446Y0204175D01*
X0176738Y0205886D01*
X0175429Y0207194D01*
X0173719Y0207903D01*
X0171868Y0207903D01*
X0170158Y0207194D01*
X0168849Y0205886D01*
X0168141Y0204175D01*
X0168141Y0202324D01*
X0168849Y0200614D01*
X0170158Y0199306D01*
X0171868Y0198597D01*
X0173719Y0198597D01*
X0175429Y0199306D01*
X0176080Y0199957D02*
X0185507Y0199957D01*
X0184708Y0200955D02*
X0176879Y0200955D01*
X0177292Y0201954D02*
X0184294Y0201954D01*
X0184141Y0202952D02*
X0177446Y0202952D01*
X0177446Y0203951D02*
X0184141Y0203951D01*
X0184461Y0204949D02*
X0177126Y0204949D01*
X0176675Y0205948D02*
X0184911Y0205948D01*
X0185910Y0206946D02*
X0175677Y0206946D01*
X0169910Y0206946D02*
X0165677Y0206946D01*
X0165429Y0207194D02*
X0163719Y0207903D01*
X0161868Y0207903D01*
X0160158Y0207194D01*
X0158849Y0205886D01*
X0158141Y0204175D01*
X0158141Y0202324D01*
X0158849Y0200614D01*
X0160158Y0199306D01*
X0161868Y0198597D01*
X0163719Y0198597D01*
X0165429Y0199306D01*
X0166738Y0200614D01*
X0167446Y0202324D01*
X0167446Y0204175D01*
X0166738Y0205886D01*
X0165429Y0207194D01*
X0166675Y0205948D02*
X0168911Y0205948D01*
X0168461Y0204949D02*
X0167126Y0204949D01*
X0167446Y0203951D02*
X0168141Y0203951D01*
X0168141Y0202952D02*
X0167446Y0202952D01*
X0167292Y0201954D02*
X0168294Y0201954D01*
X0168708Y0200955D02*
X0166879Y0200955D01*
X0166080Y0199957D02*
X0169507Y0199957D01*
X0170996Y0198958D02*
X0164590Y0198958D01*
X0160996Y0198958D02*
X0154590Y0198958D01*
X0155429Y0199306D02*
X0156738Y0200614D01*
X0157446Y0202324D01*
X0157446Y0204175D01*
X0156738Y0205886D01*
X0155429Y0207194D01*
X0153719Y0207903D01*
X0151868Y0207903D01*
X0150158Y0207194D01*
X0148849Y0205886D01*
X0148141Y0204175D01*
X0148141Y0202324D01*
X0148849Y0200614D01*
X0150158Y0199306D01*
X0151868Y0198597D01*
X0153719Y0198597D01*
X0155429Y0199306D01*
X0156080Y0199957D02*
X0159507Y0199957D01*
X0158708Y0200955D02*
X0156879Y0200955D01*
X0157292Y0201954D02*
X0158294Y0201954D01*
X0158141Y0202952D02*
X0157446Y0202952D01*
X0157446Y0203951D02*
X0158141Y0203951D01*
X0158461Y0204949D02*
X0157126Y0204949D01*
X0156675Y0205948D02*
X0158911Y0205948D01*
X0159910Y0206946D02*
X0155677Y0206946D01*
X0149910Y0206946D02*
X0145677Y0206946D01*
X0146675Y0205948D02*
X0148911Y0205948D01*
X0148461Y0204949D02*
X0147126Y0204949D01*
X0147446Y0203951D02*
X0148141Y0203951D01*
X0148141Y0202952D02*
X0147446Y0202952D01*
X0147292Y0201954D02*
X0148294Y0201954D01*
X0148708Y0200955D02*
X0146879Y0200955D01*
X0146080Y0199957D02*
X0149507Y0199957D01*
X0150996Y0198958D02*
X0144590Y0198958D01*
X0139616Y0196961D02*
X0239393Y0196961D01*
X0238395Y0195963D02*
X0138617Y0195963D01*
X0137619Y0194964D02*
X0237396Y0194964D01*
X0236398Y0193966D02*
X0136620Y0193966D01*
X0132793Y0197750D02*
X0130293Y0195250D01*
X0123631Y0195250D01*
X0113579Y0185198D01*
X0113579Y0180289D01*
X0118083Y0175786D01*
X0122329Y0175786D01*
X0131793Y0185250D01*
X0234793Y0185250D01*
X0251793Y0168250D01*
X0251793Y0167250D01*
X0248793Y0167250D02*
X0232793Y0183250D01*
X0132793Y0183250D01*
X0122903Y0173360D01*
X0117738Y0173360D01*
X0111240Y0179857D01*
X0111240Y0185697D01*
X0122793Y0197250D01*
X0122793Y0203250D01*
X0119507Y0199957D02*
X0115797Y0199957D01*
X0116622Y0200955D02*
X0118708Y0200955D01*
X0118294Y0201954D02*
X0117054Y0201954D01*
X0118141Y0202952D02*
X0113278Y0202952D01*
X0112309Y0202952D02*
X0107446Y0202952D01*
X0107446Y0203951D02*
X0108396Y0203951D01*
X0108362Y0203734D02*
X0112309Y0203734D01*
X0112309Y0207682D01*
X0111751Y0207593D01*
X0111084Y0207377D01*
X0110460Y0207058D01*
X0109893Y0206646D01*
X0109397Y0206151D01*
X0108985Y0205584D01*
X0108667Y0204959D01*
X0108450Y0204293D01*
X0108362Y0203734D01*
X0108664Y0204949D02*
X0107126Y0204949D01*
X0106675Y0205948D02*
X0109249Y0205948D01*
X0110305Y0206946D02*
X0105677Y0206946D01*
X0107292Y0201954D02*
X0108533Y0201954D01*
X0108965Y0200955D02*
X0106879Y0200955D01*
X0106080Y0199957D02*
X0109789Y0199957D01*
X0112309Y0199957D02*
X0113278Y0199957D01*
X0113278Y0200955D02*
X0112309Y0200955D01*
X0112309Y0201954D02*
X0113278Y0201954D01*
X0113278Y0203951D02*
X0112309Y0203951D01*
X0112309Y0204949D02*
X0113278Y0204949D01*
X0113278Y0205948D02*
X0112309Y0205948D01*
X0112309Y0206946D02*
X0113278Y0206946D01*
X0115281Y0206946D02*
X0119910Y0206946D01*
X0118911Y0205948D02*
X0116337Y0205948D01*
X0116923Y0204949D02*
X0118461Y0204949D01*
X0118141Y0203951D02*
X0117191Y0203951D01*
X0124993Y0198958D02*
X0130593Y0198958D01*
X0129892Y0197960D02*
X0124993Y0197960D01*
X0126793Y0191250D02*
X0236793Y0191250D01*
X0248793Y0203250D01*
X0252080Y0199957D02*
X0252389Y0199957D01*
X0252879Y0200955D02*
X0253387Y0200955D01*
X0253292Y0201954D02*
X0254294Y0201954D01*
X0254141Y0202952D02*
X0253446Y0202952D01*
X0253446Y0203951D02*
X0254141Y0203951D01*
X0254461Y0204949D02*
X0253126Y0204949D01*
X0252675Y0205948D02*
X0254911Y0205948D01*
X0255910Y0206946D02*
X0251677Y0206946D01*
X0258793Y0203250D02*
X0244793Y0189250D01*
X0128793Y0189250D01*
X0120793Y0181250D01*
X0119793Y0181250D01*
X0119793Y0184250D02*
X0126793Y0191250D01*
X0117396Y0194964D02*
X0010993Y0194964D01*
X0010993Y0193966D02*
X0116398Y0193966D01*
X0115399Y0192967D02*
X0010993Y0192967D01*
X0010993Y0191969D02*
X0114401Y0191969D01*
X0113402Y0190970D02*
X0010993Y0190970D01*
X0010993Y0189972D02*
X0112404Y0189972D01*
X0111405Y0188973D02*
X0066797Y0188973D01*
X0066370Y0189150D02*
X0065216Y0189150D01*
X0064151Y0188708D01*
X0063892Y0188450D01*
X0060695Y0188450D01*
X0060436Y0188708D01*
X0059370Y0189150D01*
X0058216Y0189150D01*
X0057151Y0188708D01*
X0056335Y0187893D01*
X0055893Y0186827D01*
X0055893Y0185673D01*
X0056335Y0184607D01*
X0057151Y0183791D01*
X0058216Y0183350D01*
X0059370Y0183350D01*
X0060436Y0183791D01*
X0060695Y0184050D01*
X0063892Y0184050D01*
X0064151Y0183791D01*
X0065216Y0183350D01*
X0066370Y0183350D01*
X0067436Y0183791D01*
X0068252Y0184607D01*
X0068693Y0185673D01*
X0068693Y0186827D01*
X0068252Y0187893D01*
X0067436Y0188708D01*
X0066370Y0189150D01*
X0064789Y0188973D02*
X0059797Y0188973D01*
X0057789Y0188973D02*
X0010993Y0188973D01*
X0010993Y0187975D02*
X0056417Y0187975D01*
X0055955Y0186976D02*
X0010993Y0186976D01*
X0010993Y0185978D02*
X0055893Y0185978D01*
X0056181Y0184979D02*
X0010993Y0184979D01*
X0010993Y0183981D02*
X0056962Y0183981D01*
X0058793Y0186250D02*
X0065793Y0186250D01*
X0068406Y0184979D02*
X0109040Y0184979D01*
X0109040Y0183981D02*
X0067625Y0183981D01*
X0068693Y0185978D02*
X0109040Y0185978D01*
X0109408Y0186976D02*
X0068631Y0186976D01*
X0068170Y0187975D02*
X0110407Y0187975D01*
X0109040Y0182982D02*
X0010993Y0182982D01*
X0010993Y0181984D02*
X0109040Y0181984D01*
X0109040Y0180985D02*
X0010993Y0180985D01*
X0010993Y0179987D02*
X0109040Y0179987D01*
X0109040Y0178988D02*
X0010993Y0178988D01*
X0010993Y0177989D02*
X0109997Y0177989D01*
X0110996Y0176991D02*
X0010993Y0176991D01*
X0010993Y0175992D02*
X0111994Y0175992D01*
X0112993Y0174994D02*
X0010993Y0174994D01*
X0010993Y0173995D02*
X0011661Y0173995D01*
X0016793Y0177250D02*
X0016793Y0179250D01*
X0019721Y0173995D02*
X0033747Y0173995D01*
X0034056Y0174123D02*
X0032635Y0173535D01*
X0031548Y0172447D01*
X0030959Y0171027D01*
X0030959Y0169489D01*
X0031548Y0168068D01*
X0032635Y0166981D01*
X0034056Y0166393D01*
X0039531Y0166393D01*
X0040951Y0166981D01*
X0042039Y0168068D01*
X0042627Y0169489D01*
X0042627Y0171027D01*
X0042039Y0172447D01*
X0040951Y0173535D01*
X0039531Y0174123D01*
X0034056Y0174123D01*
X0032097Y0172997D02*
X0021371Y0172997D01*
X0022107Y0171998D02*
X0031362Y0171998D01*
X0030959Y0171000D02*
X0022509Y0171000D01*
X0022509Y0170001D02*
X0030959Y0170001D01*
X0031161Y0169003D02*
X0022308Y0169003D01*
X0021857Y0168004D02*
X0031612Y0168004D01*
X0032610Y0167006D02*
X0020858Y0167006D01*
X0010993Y0166007D02*
X0090893Y0166007D01*
X0090967Y0167006D02*
X0040976Y0167006D01*
X0041975Y0168004D02*
X0091446Y0168004D01*
X0092861Y0169003D02*
X0042426Y0169003D01*
X0042627Y0170001D02*
X0242931Y0170001D01*
X0243929Y0169003D02*
X0094725Y0169003D01*
X0091168Y0165009D02*
X0010993Y0165009D01*
X0010993Y0164010D02*
X0049952Y0164010D01*
X0049177Y0163012D02*
X0010993Y0163012D01*
X0010993Y0162013D02*
X0048893Y0162013D01*
X0048959Y0161015D02*
X0010993Y0161015D01*
X0010993Y0160016D02*
X0049426Y0160016D01*
X0050811Y0159018D02*
X0010993Y0159018D01*
X0010993Y0158019D02*
X0049961Y0158019D01*
X0049169Y0157021D02*
X0010993Y0157021D01*
X0010993Y0156022D02*
X0048065Y0156022D01*
X0047377Y0155024D02*
X0010993Y0155024D01*
X0010993Y0154025D02*
X0046964Y0154025D01*
X0046843Y0153027D02*
X0010993Y0153027D01*
X0010993Y0152028D02*
X0046843Y0152028D01*
X0046843Y0151030D02*
X0010993Y0151030D01*
X0010993Y0150031D02*
X0046843Y0150031D01*
X0046843Y0149033D02*
X0010993Y0149033D01*
X0010993Y0148034D02*
X0046843Y0148034D01*
X0046843Y0147036D02*
X0010993Y0147036D01*
X0010993Y0146037D02*
X0047145Y0146037D01*
X0047559Y0145039D02*
X0010993Y0145039D01*
X0010993Y0144040D02*
X0048503Y0144040D01*
X0047597Y0144946D02*
X0047597Y0144946D01*
X0049400Y0143042D02*
X0010993Y0143042D01*
X0010993Y0142043D02*
X0050750Y0142043D01*
X0052836Y0142043D02*
X0075983Y0142043D01*
X0075893Y0141045D02*
X0010993Y0141045D01*
X0010993Y0140046D02*
X0011821Y0140046D01*
X0019561Y0140046D02*
X0033908Y0140046D01*
X0032164Y0139048D02*
X0021305Y0139048D01*
X0022079Y0138049D02*
X0031389Y0138049D01*
X0030976Y0137051D02*
X0022493Y0137051D01*
X0022509Y0136052D02*
X0030959Y0136052D01*
X0031133Y0135053D02*
X0022335Y0135053D01*
X0021922Y0134055D02*
X0031547Y0134055D01*
X0032544Y0133056D02*
X0020924Y0133056D01*
X0039679Y0140046D02*
X0076153Y0140046D01*
X0076895Y0139048D02*
X0041423Y0139048D01*
X0054186Y0143042D02*
X0076484Y0143042D01*
X0058793Y0142250D02*
X0058793Y0141250D01*
X0048989Y0156946D02*
X0048989Y0156946D01*
X0052775Y0159018D02*
X0052797Y0159018D01*
X0053634Y0164010D02*
X0091932Y0164010D01*
X0084514Y0164750D02*
X0083293Y0165750D01*
X0082793Y0165250D01*
X0059793Y0166250D02*
X0058793Y0165250D01*
X0058793Y0172250D02*
X0058793Y0173250D01*
X0058793Y0179250D02*
X0058793Y0180250D01*
X0060625Y0183981D02*
X0063962Y0183981D01*
X0042225Y0171998D02*
X0115988Y0171998D01*
X0114990Y0172997D02*
X0041489Y0172997D01*
X0039839Y0173995D02*
X0113991Y0173995D01*
X0124653Y0171998D02*
X0240934Y0171998D01*
X0241932Y0171000D02*
X0042627Y0171000D01*
X0016793Y0185250D02*
X0016793Y0186250D01*
X0016793Y0193250D02*
X0014793Y0193250D01*
X0025793Y0204250D02*
X0027793Y0204250D01*
X0125652Y0172997D02*
X0239935Y0172997D01*
X0238937Y0173995D02*
X0126650Y0173995D01*
X0127649Y0174994D02*
X0237938Y0174994D01*
X0236940Y0175992D02*
X0128647Y0175992D01*
X0129646Y0176991D02*
X0235941Y0176991D01*
X0234943Y0177989D02*
X0130644Y0177989D01*
X0131643Y0178988D02*
X0233944Y0178988D01*
X0232946Y0179987D02*
X0132641Y0179987D01*
X0133640Y0180985D02*
X0231947Y0180985D01*
X0235793Y0187250D02*
X0254793Y0168250D01*
X0254793Y0167250D01*
X0246629Y0187975D02*
X0266593Y0187975D01*
X0266593Y0188973D02*
X0247628Y0188973D01*
X0248626Y0189972D02*
X0266593Y0189972D01*
X0266593Y0190970D02*
X0249625Y0190970D01*
X0250623Y0191969D02*
X0266593Y0191969D01*
X0266593Y0192967D02*
X0251622Y0192967D01*
X0252620Y0193966D02*
X0266593Y0193966D01*
X0266593Y0194964D02*
X0253619Y0194964D01*
X0254617Y0195963D02*
X0266593Y0195963D01*
X0266593Y0196961D02*
X0255616Y0196961D01*
X0256614Y0197960D02*
X0266593Y0197960D01*
X0266593Y0198958D02*
X0260590Y0198958D01*
X0262080Y0199957D02*
X0266593Y0199957D01*
X0266593Y0200955D02*
X0262879Y0200955D01*
X0263292Y0201954D02*
X0266593Y0201954D01*
X0266593Y0202952D02*
X0263446Y0202952D01*
X0263446Y0203951D02*
X0266593Y0203951D01*
X0266593Y0204949D02*
X0263126Y0204949D01*
X0262675Y0205948D02*
X0266593Y0205948D01*
X0266593Y0206946D02*
X0261677Y0206946D01*
X0251390Y0198958D02*
X0250590Y0198958D01*
X0250392Y0197960D02*
X0246614Y0197960D01*
X0245616Y0196961D02*
X0249393Y0196961D01*
X0248395Y0195963D02*
X0244617Y0195963D01*
X0243619Y0194964D02*
X0247396Y0194964D01*
X0246398Y0193966D02*
X0242620Y0193966D01*
X0241622Y0192967D02*
X0245399Y0192967D01*
X0244401Y0191969D02*
X0240623Y0191969D01*
X0152793Y0177250D02*
X0151293Y0176250D01*
X0273046Y0039196D02*
X0276593Y0039196D01*
X0276593Y0038198D02*
X0274044Y0038198D01*
X0274963Y0037199D02*
X0276593Y0037199D01*
X0276593Y0036201D02*
X0275377Y0036201D01*
X0275791Y0035202D02*
X0276593Y0035202D01*
X0276593Y0034204D02*
X0276005Y0034204D01*
X0276005Y0033205D02*
X0276593Y0033205D01*
X0276593Y0032207D02*
X0276005Y0032207D01*
X0275754Y0031208D02*
X0276593Y0031208D01*
X0276593Y0030210D02*
X0275340Y0030210D01*
X0274926Y0029211D02*
X0276593Y0029211D01*
X0276593Y0028213D02*
X0273955Y0028213D01*
X0272957Y0027214D02*
X0276593Y0027214D01*
X0276593Y0026216D02*
X0270657Y0026216D01*
X0271658Y0019226D02*
X0172508Y0019226D01*
X0171872Y0018228D02*
X0270660Y0018228D01*
X0268793Y0007187D02*
X0268791Y0007063D01*
X0268785Y0006940D01*
X0268776Y0006816D01*
X0268762Y0006694D01*
X0268745Y0006571D01*
X0268723Y0006449D01*
X0268698Y0006328D01*
X0268669Y0006208D01*
X0268637Y0006089D01*
X0268600Y0005970D01*
X0268560Y0005853D01*
X0268517Y0005738D01*
X0268469Y0005623D01*
X0268418Y0005511D01*
X0268364Y0005400D01*
X0268306Y0005290D01*
X0268245Y0005183D01*
X0268180Y0005077D01*
X0268112Y0004974D01*
X0268041Y0004873D01*
X0267967Y0004774D01*
X0267890Y0004677D01*
X0267809Y0004583D01*
X0267726Y0004492D01*
X0267640Y0004403D01*
X0267551Y0004317D01*
X0267460Y0004234D01*
X0267366Y0004153D01*
X0267269Y0004076D01*
X0267170Y0004002D01*
X0267069Y0003931D01*
X0266966Y0003863D01*
X0266860Y0003798D01*
X0266753Y0003737D01*
X0266643Y0003679D01*
X0266532Y0003625D01*
X0266420Y0003574D01*
X0266305Y0003526D01*
X0266190Y0003483D01*
X0266073Y0003443D01*
X0265954Y0003406D01*
X0265835Y0003374D01*
X0265715Y0003345D01*
X0265594Y0003320D01*
X0265472Y0003298D01*
X0265349Y0003281D01*
X0265227Y0003267D01*
X0265103Y0003258D01*
X0264980Y0003252D01*
X0264856Y0003250D01*
X0012730Y0003250D01*
X0011276Y0006246D02*
X0081858Y0006246D01*
X0079600Y0007244D02*
X0010993Y0007244D01*
X0010993Y0008243D02*
X0078602Y0008243D01*
X0077648Y0009241D02*
X0010993Y0009241D01*
X0010993Y0010240D02*
X0036946Y0010240D01*
X0036726Y0011238D02*
X0010993Y0011238D01*
X0010993Y0012237D02*
X0036726Y0012237D01*
X0036726Y0013235D02*
X0010993Y0013235D01*
X0010993Y0014234D02*
X0036726Y0014234D01*
X0036726Y0015232D02*
X0010993Y0015232D01*
X0008793Y0007187D02*
X0008795Y0007063D01*
X0008801Y0006940D01*
X0008810Y0006816D01*
X0008824Y0006694D01*
X0008841Y0006571D01*
X0008863Y0006449D01*
X0008888Y0006328D01*
X0008917Y0006208D01*
X0008949Y0006089D01*
X0008986Y0005970D01*
X0009026Y0005853D01*
X0009069Y0005738D01*
X0009117Y0005623D01*
X0009168Y0005511D01*
X0009222Y0005400D01*
X0009280Y0005290D01*
X0009341Y0005183D01*
X0009406Y0005077D01*
X0009474Y0004974D01*
X0009545Y0004873D01*
X0009619Y0004774D01*
X0009696Y0004677D01*
X0009777Y0004583D01*
X0009860Y0004492D01*
X0009946Y0004403D01*
X0010035Y0004317D01*
X0010126Y0004234D01*
X0010220Y0004153D01*
X0010317Y0004076D01*
X0010416Y0004002D01*
X0010517Y0003931D01*
X0010620Y0003863D01*
X0010726Y0003798D01*
X0010833Y0003737D01*
X0010943Y0003679D01*
X0011054Y0003625D01*
X0011166Y0003574D01*
X0011281Y0003526D01*
X0011396Y0003483D01*
X0011513Y0003443D01*
X0011632Y0003406D01*
X0011751Y0003374D01*
X0011871Y0003345D01*
X0011992Y0003320D01*
X0012114Y0003298D01*
X0012237Y0003281D01*
X0012359Y0003267D01*
X0012483Y0003258D01*
X0012606Y0003252D01*
X0012730Y0003250D01*
X0052388Y0018228D02*
X0078572Y0018228D01*
X0079570Y0019226D02*
X0052388Y0019226D01*
X0052388Y0020225D02*
X0081786Y0020225D01*
X0085800Y0020225D02*
X0142657Y0020225D01*
X0143655Y0021223D02*
X0052388Y0021223D01*
X0052388Y0022222D02*
X0144654Y0022222D01*
X0141658Y0019226D02*
X0088016Y0019226D01*
X0089015Y0018228D02*
X0140660Y0018228D01*
X0136242Y0017229D02*
X0089951Y0017229D01*
X0090365Y0016231D02*
X0135194Y0016231D01*
X0134578Y0015232D02*
X0090778Y0015232D01*
X0091005Y0014234D02*
X0134165Y0014234D01*
X0134141Y0013235D02*
X0091005Y0013235D01*
X0091005Y0012237D02*
X0134177Y0012237D01*
X0134591Y0011238D02*
X0090766Y0011238D01*
X0090352Y0010240D02*
X0135224Y0010240D01*
X0136313Y0009241D02*
X0089939Y0009241D01*
X0085728Y0006246D02*
X0266310Y0006246D01*
X0186313Y0009241D02*
X0180733Y0009241D01*
X0180503Y0009123D02*
X0181127Y0009442D01*
X0181694Y0009854D01*
X0182190Y0010349D01*
X0182602Y0010916D01*
X0182920Y0011541D01*
X0183136Y0012207D01*
X0183225Y0012766D01*
X0179278Y0012766D01*
X0179278Y0008818D01*
X0179836Y0008907D01*
X0180503Y0009123D01*
X0179278Y0009241D02*
X0178309Y0009241D01*
X0178309Y0010240D02*
X0179278Y0010240D01*
X0179278Y0011238D02*
X0178309Y0011238D01*
X0178309Y0012237D02*
X0179278Y0012237D01*
X0182080Y0010240D02*
X0185224Y0010240D01*
X0184591Y0011238D02*
X0182766Y0011238D01*
X0183141Y0012237D02*
X0184177Y0012237D01*
X0176853Y0009241D02*
X0170733Y0009241D01*
X0169278Y0009241D02*
X0168309Y0009241D01*
X0168309Y0010240D02*
X0169278Y0010240D01*
X0169278Y0011238D02*
X0168309Y0011238D01*
X0168309Y0013734D02*
X0164362Y0013734D01*
X0164450Y0014293D01*
X0164667Y0014959D01*
X0164985Y0015584D01*
X0165397Y0016151D01*
X0165893Y0016646D01*
X0166460Y0017058D01*
X0167084Y0017377D01*
X0167751Y0017593D01*
X0168309Y0017682D01*
X0168309Y0013734D01*
X0168309Y0014234D02*
X0169278Y0014234D01*
X0169278Y0015232D02*
X0168309Y0015232D01*
X0168309Y0016231D02*
X0169278Y0016231D01*
X0169278Y0017229D02*
X0168309Y0017229D01*
X0166795Y0017229D02*
X0161345Y0017229D01*
X0162393Y0016231D02*
X0165477Y0016231D01*
X0164806Y0015232D02*
X0163008Y0015232D01*
X0163422Y0014234D02*
X0164441Y0014234D01*
X0170792Y0017229D02*
X0176795Y0017229D01*
X0175477Y0016231D02*
X0172110Y0016231D01*
X0172781Y0015232D02*
X0174806Y0015232D01*
X0174441Y0014234D02*
X0173146Y0014234D01*
X0173141Y0012237D02*
X0174446Y0012237D01*
X0174821Y0011238D02*
X0172766Y0011238D01*
X0172080Y0010240D02*
X0175507Y0010240D01*
D11*
X0078281Y0013250D02*
X0078283Y0013398D01*
X0078289Y0013546D01*
X0078299Y0013694D01*
X0078313Y0013841D01*
X0078331Y0013988D01*
X0078352Y0014134D01*
X0078378Y0014280D01*
X0078408Y0014425D01*
X0078441Y0014569D01*
X0078479Y0014712D01*
X0078520Y0014854D01*
X0078565Y0014995D01*
X0078613Y0015135D01*
X0078666Y0015274D01*
X0078722Y0015411D01*
X0078782Y0015546D01*
X0078845Y0015680D01*
X0078912Y0015812D01*
X0078983Y0015942D01*
X0079057Y0016070D01*
X0079134Y0016196D01*
X0079215Y0016320D01*
X0079299Y0016442D01*
X0079386Y0016561D01*
X0079477Y0016678D01*
X0079571Y0016793D01*
X0079667Y0016905D01*
X0079767Y0017015D01*
X0079869Y0017121D01*
X0079975Y0017225D01*
X0080083Y0017326D01*
X0080194Y0017424D01*
X0080307Y0017520D01*
X0080423Y0017612D01*
X0080541Y0017701D01*
X0080662Y0017786D01*
X0080785Y0017869D01*
X0080910Y0017948D01*
X0081037Y0018024D01*
X0081166Y0018096D01*
X0081297Y0018165D01*
X0081430Y0018230D01*
X0081565Y0018291D01*
X0081701Y0018349D01*
X0081838Y0018404D01*
X0081977Y0018454D01*
X0082118Y0018501D01*
X0082259Y0018544D01*
X0082402Y0018584D01*
X0082546Y0018619D01*
X0082690Y0018651D01*
X0082836Y0018678D01*
X0082982Y0018702D01*
X0083129Y0018722D01*
X0083276Y0018738D01*
X0083423Y0018750D01*
X0083571Y0018758D01*
X0083719Y0018762D01*
X0083867Y0018762D01*
X0084015Y0018758D01*
X0084163Y0018750D01*
X0084310Y0018738D01*
X0084457Y0018722D01*
X0084604Y0018702D01*
X0084750Y0018678D01*
X0084896Y0018651D01*
X0085040Y0018619D01*
X0085184Y0018584D01*
X0085327Y0018544D01*
X0085468Y0018501D01*
X0085609Y0018454D01*
X0085748Y0018404D01*
X0085885Y0018349D01*
X0086021Y0018291D01*
X0086156Y0018230D01*
X0086289Y0018165D01*
X0086420Y0018096D01*
X0086549Y0018024D01*
X0086676Y0017948D01*
X0086801Y0017869D01*
X0086924Y0017786D01*
X0087045Y0017701D01*
X0087163Y0017612D01*
X0087279Y0017520D01*
X0087392Y0017424D01*
X0087503Y0017326D01*
X0087611Y0017225D01*
X0087717Y0017121D01*
X0087819Y0017015D01*
X0087919Y0016905D01*
X0088015Y0016793D01*
X0088109Y0016678D01*
X0088200Y0016561D01*
X0088287Y0016442D01*
X0088371Y0016320D01*
X0088452Y0016196D01*
X0088529Y0016070D01*
X0088603Y0015942D01*
X0088674Y0015812D01*
X0088741Y0015680D01*
X0088804Y0015546D01*
X0088864Y0015411D01*
X0088920Y0015274D01*
X0088973Y0015135D01*
X0089021Y0014995D01*
X0089066Y0014854D01*
X0089107Y0014712D01*
X0089145Y0014569D01*
X0089178Y0014425D01*
X0089208Y0014280D01*
X0089234Y0014134D01*
X0089255Y0013988D01*
X0089273Y0013841D01*
X0089287Y0013694D01*
X0089297Y0013546D01*
X0089303Y0013398D01*
X0089305Y0013250D01*
X0089303Y0013102D01*
X0089297Y0012954D01*
X0089287Y0012806D01*
X0089273Y0012659D01*
X0089255Y0012512D01*
X0089234Y0012366D01*
X0089208Y0012220D01*
X0089178Y0012075D01*
X0089145Y0011931D01*
X0089107Y0011788D01*
X0089066Y0011646D01*
X0089021Y0011505D01*
X0088973Y0011365D01*
X0088920Y0011226D01*
X0088864Y0011089D01*
X0088804Y0010954D01*
X0088741Y0010820D01*
X0088674Y0010688D01*
X0088603Y0010558D01*
X0088529Y0010430D01*
X0088452Y0010304D01*
X0088371Y0010180D01*
X0088287Y0010058D01*
X0088200Y0009939D01*
X0088109Y0009822D01*
X0088015Y0009707D01*
X0087919Y0009595D01*
X0087819Y0009485D01*
X0087717Y0009379D01*
X0087611Y0009275D01*
X0087503Y0009174D01*
X0087392Y0009076D01*
X0087279Y0008980D01*
X0087163Y0008888D01*
X0087045Y0008799D01*
X0086924Y0008714D01*
X0086801Y0008631D01*
X0086676Y0008552D01*
X0086549Y0008476D01*
X0086420Y0008404D01*
X0086289Y0008335D01*
X0086156Y0008270D01*
X0086021Y0008209D01*
X0085885Y0008151D01*
X0085748Y0008096D01*
X0085609Y0008046D01*
X0085468Y0007999D01*
X0085327Y0007956D01*
X0085184Y0007916D01*
X0085040Y0007881D01*
X0084896Y0007849D01*
X0084750Y0007822D01*
X0084604Y0007798D01*
X0084457Y0007778D01*
X0084310Y0007762D01*
X0084163Y0007750D01*
X0084015Y0007742D01*
X0083867Y0007738D01*
X0083719Y0007738D01*
X0083571Y0007742D01*
X0083423Y0007750D01*
X0083276Y0007762D01*
X0083129Y0007778D01*
X0082982Y0007798D01*
X0082836Y0007822D01*
X0082690Y0007849D01*
X0082546Y0007881D01*
X0082402Y0007916D01*
X0082259Y0007956D01*
X0082118Y0007999D01*
X0081977Y0008046D01*
X0081838Y0008096D01*
X0081701Y0008151D01*
X0081565Y0008209D01*
X0081430Y0008270D01*
X0081297Y0008335D01*
X0081166Y0008404D01*
X0081037Y0008476D01*
X0080910Y0008552D01*
X0080785Y0008631D01*
X0080662Y0008714D01*
X0080541Y0008799D01*
X0080423Y0008888D01*
X0080307Y0008980D01*
X0080194Y0009076D01*
X0080083Y0009174D01*
X0079975Y0009275D01*
X0079869Y0009379D01*
X0079767Y0009485D01*
X0079667Y0009595D01*
X0079571Y0009707D01*
X0079477Y0009822D01*
X0079386Y0009939D01*
X0079299Y0010058D01*
X0079215Y0010180D01*
X0079134Y0010304D01*
X0079057Y0010430D01*
X0078983Y0010558D01*
X0078912Y0010688D01*
X0078845Y0010820D01*
X0078782Y0010954D01*
X0078722Y0011089D01*
X0078666Y0011226D01*
X0078613Y0011365D01*
X0078565Y0011505D01*
X0078520Y0011646D01*
X0078479Y0011788D01*
X0078441Y0011931D01*
X0078408Y0012075D01*
X0078378Y0012220D01*
X0078352Y0012366D01*
X0078331Y0012512D01*
X0078313Y0012659D01*
X0078299Y0012806D01*
X0078289Y0012954D01*
X0078283Y0013102D01*
X0078281Y0013250D01*
X0221618Y0110750D02*
X0221620Y0110887D01*
X0221626Y0111023D01*
X0221636Y0111159D01*
X0221650Y0111295D01*
X0221668Y0111431D01*
X0221690Y0111566D01*
X0221715Y0111700D01*
X0221745Y0111833D01*
X0221779Y0111965D01*
X0221816Y0112097D01*
X0221857Y0112227D01*
X0221903Y0112356D01*
X0221951Y0112484D01*
X0222004Y0112610D01*
X0222060Y0112734D01*
X0222120Y0112857D01*
X0222183Y0112978D01*
X0222250Y0113097D01*
X0222320Y0113214D01*
X0222394Y0113330D01*
X0222471Y0113442D01*
X0222551Y0113553D01*
X0222635Y0113661D01*
X0222722Y0113767D01*
X0222811Y0113870D01*
X0222904Y0113970D01*
X0222999Y0114068D01*
X0223098Y0114163D01*
X0223199Y0114255D01*
X0223303Y0114343D01*
X0223409Y0114429D01*
X0223518Y0114512D01*
X0223629Y0114591D01*
X0223742Y0114668D01*
X0223858Y0114741D01*
X0223975Y0114810D01*
X0224095Y0114876D01*
X0224216Y0114938D01*
X0224340Y0114997D01*
X0224465Y0115053D01*
X0224591Y0115104D01*
X0224719Y0115152D01*
X0224848Y0115196D01*
X0224979Y0115237D01*
X0225111Y0115273D01*
X0225243Y0115306D01*
X0225377Y0115334D01*
X0225511Y0115359D01*
X0225646Y0115380D01*
X0225782Y0115397D01*
X0225918Y0115410D01*
X0226054Y0115419D01*
X0226191Y0115424D01*
X0226327Y0115425D01*
X0226464Y0115422D01*
X0226600Y0115415D01*
X0226736Y0115404D01*
X0226872Y0115389D01*
X0227007Y0115370D01*
X0227142Y0115347D01*
X0227276Y0115320D01*
X0227409Y0115290D01*
X0227541Y0115255D01*
X0227673Y0115217D01*
X0227802Y0115175D01*
X0227931Y0115129D01*
X0228058Y0115079D01*
X0228184Y0115025D01*
X0228308Y0114968D01*
X0228431Y0114908D01*
X0228551Y0114843D01*
X0228670Y0114776D01*
X0228786Y0114705D01*
X0228901Y0114630D01*
X0229013Y0114552D01*
X0229123Y0114471D01*
X0229231Y0114387D01*
X0229336Y0114299D01*
X0229438Y0114209D01*
X0229538Y0114116D01*
X0229635Y0114019D01*
X0229729Y0113920D01*
X0229820Y0113819D01*
X0229908Y0113714D01*
X0229993Y0113607D01*
X0230075Y0113498D01*
X0230154Y0113386D01*
X0230229Y0113272D01*
X0230301Y0113156D01*
X0230370Y0113038D01*
X0230435Y0112918D01*
X0230497Y0112796D01*
X0230555Y0112672D01*
X0230609Y0112547D01*
X0230660Y0112420D01*
X0230706Y0112292D01*
X0230750Y0112162D01*
X0230789Y0112031D01*
X0230825Y0111899D01*
X0230856Y0111766D01*
X0230884Y0111633D01*
X0230908Y0111498D01*
X0230928Y0111363D01*
X0230944Y0111227D01*
X0230956Y0111091D01*
X0230964Y0110955D01*
X0230968Y0110818D01*
X0230968Y0110682D01*
X0230964Y0110545D01*
X0230956Y0110409D01*
X0230944Y0110273D01*
X0230928Y0110137D01*
X0230908Y0110002D01*
X0230884Y0109867D01*
X0230856Y0109734D01*
X0230825Y0109601D01*
X0230789Y0109469D01*
X0230750Y0109338D01*
X0230706Y0109208D01*
X0230660Y0109080D01*
X0230609Y0108953D01*
X0230555Y0108828D01*
X0230497Y0108704D01*
X0230435Y0108582D01*
X0230370Y0108462D01*
X0230301Y0108344D01*
X0230229Y0108228D01*
X0230154Y0108114D01*
X0230075Y0108002D01*
X0229993Y0107893D01*
X0229908Y0107786D01*
X0229820Y0107681D01*
X0229729Y0107580D01*
X0229635Y0107481D01*
X0229538Y0107384D01*
X0229438Y0107291D01*
X0229336Y0107201D01*
X0229231Y0107113D01*
X0229123Y0107029D01*
X0229013Y0106948D01*
X0228901Y0106870D01*
X0228786Y0106795D01*
X0228670Y0106724D01*
X0228551Y0106657D01*
X0228431Y0106592D01*
X0228308Y0106532D01*
X0228184Y0106475D01*
X0228058Y0106421D01*
X0227931Y0106371D01*
X0227802Y0106325D01*
X0227673Y0106283D01*
X0227541Y0106245D01*
X0227409Y0106210D01*
X0227276Y0106180D01*
X0227142Y0106153D01*
X0227007Y0106130D01*
X0226872Y0106111D01*
X0226736Y0106096D01*
X0226600Y0106085D01*
X0226464Y0106078D01*
X0226327Y0106075D01*
X0226191Y0106076D01*
X0226054Y0106081D01*
X0225918Y0106090D01*
X0225782Y0106103D01*
X0225646Y0106120D01*
X0225511Y0106141D01*
X0225377Y0106166D01*
X0225243Y0106194D01*
X0225111Y0106227D01*
X0224979Y0106263D01*
X0224848Y0106304D01*
X0224719Y0106348D01*
X0224591Y0106396D01*
X0224465Y0106447D01*
X0224340Y0106503D01*
X0224216Y0106562D01*
X0224095Y0106624D01*
X0223975Y0106690D01*
X0223858Y0106759D01*
X0223742Y0106832D01*
X0223629Y0106909D01*
X0223518Y0106988D01*
X0223409Y0107071D01*
X0223303Y0107157D01*
X0223199Y0107245D01*
X0223098Y0107337D01*
X0222999Y0107432D01*
X0222904Y0107530D01*
X0222811Y0107630D01*
X0222722Y0107733D01*
X0222635Y0107839D01*
X0222551Y0107947D01*
X0222471Y0108058D01*
X0222394Y0108170D01*
X0222320Y0108286D01*
X0222250Y0108403D01*
X0222183Y0108522D01*
X0222120Y0108643D01*
X0222060Y0108766D01*
X0222004Y0108890D01*
X0221951Y0109016D01*
X0221903Y0109144D01*
X0221857Y0109273D01*
X0221816Y0109403D01*
X0221779Y0109535D01*
X0221745Y0109667D01*
X0221715Y0109800D01*
X0221690Y0109934D01*
X0221668Y0110069D01*
X0221650Y0110205D01*
X0221636Y0110341D01*
X0221626Y0110477D01*
X0221620Y0110613D01*
X0221618Y0110750D01*
X0230343Y0103250D02*
X0230345Y0103338D01*
X0230351Y0103426D01*
X0230361Y0103514D01*
X0230375Y0103601D01*
X0230393Y0103687D01*
X0230414Y0103772D01*
X0230440Y0103857D01*
X0230469Y0103940D01*
X0230502Y0104022D01*
X0230539Y0104102D01*
X0230579Y0104180D01*
X0230623Y0104257D01*
X0230670Y0104331D01*
X0230721Y0104403D01*
X0230774Y0104473D01*
X0230831Y0104541D01*
X0230891Y0104605D01*
X0230954Y0104667D01*
X0231019Y0104726D01*
X0231087Y0104782D01*
X0231158Y0104835D01*
X0231230Y0104885D01*
X0231305Y0104931D01*
X0231382Y0104974D01*
X0231461Y0105014D01*
X0231542Y0105049D01*
X0231624Y0105082D01*
X0231707Y0105110D01*
X0231792Y0105135D01*
X0231878Y0105155D01*
X0231964Y0105172D01*
X0232051Y0105185D01*
X0232139Y0105194D01*
X0232227Y0105199D01*
X0232315Y0105200D01*
X0232403Y0105197D01*
X0232491Y0105190D01*
X0232578Y0105179D01*
X0232665Y0105164D01*
X0232751Y0105145D01*
X0232837Y0105123D01*
X0232921Y0105096D01*
X0233003Y0105066D01*
X0233085Y0105032D01*
X0233165Y0104994D01*
X0233242Y0104953D01*
X0233318Y0104909D01*
X0233392Y0104861D01*
X0233464Y0104809D01*
X0233533Y0104755D01*
X0233600Y0104697D01*
X0233664Y0104637D01*
X0233725Y0104573D01*
X0233784Y0104507D01*
X0233839Y0104439D01*
X0233891Y0104367D01*
X0233940Y0104294D01*
X0233985Y0104219D01*
X0234027Y0104141D01*
X0234066Y0104062D01*
X0234101Y0103981D01*
X0234132Y0103898D01*
X0234159Y0103815D01*
X0234183Y0103730D01*
X0234203Y0103644D01*
X0234219Y0103557D01*
X0234231Y0103470D01*
X0234239Y0103382D01*
X0234243Y0103294D01*
X0234243Y0103206D01*
X0234239Y0103118D01*
X0234231Y0103030D01*
X0234219Y0102943D01*
X0234203Y0102856D01*
X0234183Y0102770D01*
X0234159Y0102685D01*
X0234132Y0102602D01*
X0234101Y0102519D01*
X0234066Y0102438D01*
X0234027Y0102359D01*
X0233985Y0102281D01*
X0233940Y0102206D01*
X0233891Y0102133D01*
X0233839Y0102061D01*
X0233784Y0101993D01*
X0233725Y0101927D01*
X0233664Y0101863D01*
X0233600Y0101803D01*
X0233533Y0101745D01*
X0233464Y0101691D01*
X0233392Y0101639D01*
X0233318Y0101591D01*
X0233242Y0101547D01*
X0233165Y0101506D01*
X0233085Y0101468D01*
X0233003Y0101434D01*
X0232921Y0101404D01*
X0232837Y0101377D01*
X0232751Y0101355D01*
X0232665Y0101336D01*
X0232578Y0101321D01*
X0232491Y0101310D01*
X0232403Y0101303D01*
X0232315Y0101300D01*
X0232227Y0101301D01*
X0232139Y0101306D01*
X0232051Y0101315D01*
X0231964Y0101328D01*
X0231878Y0101345D01*
X0231792Y0101365D01*
X0231707Y0101390D01*
X0231624Y0101418D01*
X0231542Y0101451D01*
X0231461Y0101486D01*
X0231382Y0101526D01*
X0231305Y0101569D01*
X0231230Y0101615D01*
X0231158Y0101665D01*
X0231087Y0101718D01*
X0231019Y0101774D01*
X0230954Y0101833D01*
X0230891Y0101895D01*
X0230831Y0101959D01*
X0230774Y0102027D01*
X0230721Y0102097D01*
X0230670Y0102169D01*
X0230623Y0102243D01*
X0230579Y0102320D01*
X0230539Y0102398D01*
X0230502Y0102478D01*
X0230469Y0102560D01*
X0230440Y0102643D01*
X0230414Y0102728D01*
X0230393Y0102813D01*
X0230375Y0102899D01*
X0230361Y0102986D01*
X0230351Y0103074D01*
X0230345Y0103162D01*
X0230343Y0103250D01*
X0238343Y0103250D02*
X0238345Y0103338D01*
X0238351Y0103426D01*
X0238361Y0103514D01*
X0238375Y0103601D01*
X0238393Y0103687D01*
X0238414Y0103772D01*
X0238440Y0103857D01*
X0238469Y0103940D01*
X0238502Y0104022D01*
X0238539Y0104102D01*
X0238579Y0104180D01*
X0238623Y0104257D01*
X0238670Y0104331D01*
X0238721Y0104403D01*
X0238774Y0104473D01*
X0238831Y0104541D01*
X0238891Y0104605D01*
X0238954Y0104667D01*
X0239019Y0104726D01*
X0239087Y0104782D01*
X0239158Y0104835D01*
X0239230Y0104885D01*
X0239305Y0104931D01*
X0239382Y0104974D01*
X0239461Y0105014D01*
X0239542Y0105049D01*
X0239624Y0105082D01*
X0239707Y0105110D01*
X0239792Y0105135D01*
X0239878Y0105155D01*
X0239964Y0105172D01*
X0240051Y0105185D01*
X0240139Y0105194D01*
X0240227Y0105199D01*
X0240315Y0105200D01*
X0240403Y0105197D01*
X0240491Y0105190D01*
X0240578Y0105179D01*
X0240665Y0105164D01*
X0240751Y0105145D01*
X0240837Y0105123D01*
X0240921Y0105096D01*
X0241003Y0105066D01*
X0241085Y0105032D01*
X0241165Y0104994D01*
X0241242Y0104953D01*
X0241318Y0104909D01*
X0241392Y0104861D01*
X0241464Y0104809D01*
X0241533Y0104755D01*
X0241600Y0104697D01*
X0241664Y0104637D01*
X0241725Y0104573D01*
X0241784Y0104507D01*
X0241839Y0104439D01*
X0241891Y0104367D01*
X0241940Y0104294D01*
X0241985Y0104219D01*
X0242027Y0104141D01*
X0242066Y0104062D01*
X0242101Y0103981D01*
X0242132Y0103898D01*
X0242159Y0103815D01*
X0242183Y0103730D01*
X0242203Y0103644D01*
X0242219Y0103557D01*
X0242231Y0103470D01*
X0242239Y0103382D01*
X0242243Y0103294D01*
X0242243Y0103206D01*
X0242239Y0103118D01*
X0242231Y0103030D01*
X0242219Y0102943D01*
X0242203Y0102856D01*
X0242183Y0102770D01*
X0242159Y0102685D01*
X0242132Y0102602D01*
X0242101Y0102519D01*
X0242066Y0102438D01*
X0242027Y0102359D01*
X0241985Y0102281D01*
X0241940Y0102206D01*
X0241891Y0102133D01*
X0241839Y0102061D01*
X0241784Y0101993D01*
X0241725Y0101927D01*
X0241664Y0101863D01*
X0241600Y0101803D01*
X0241533Y0101745D01*
X0241464Y0101691D01*
X0241392Y0101639D01*
X0241318Y0101591D01*
X0241242Y0101547D01*
X0241165Y0101506D01*
X0241085Y0101468D01*
X0241003Y0101434D01*
X0240921Y0101404D01*
X0240837Y0101377D01*
X0240751Y0101355D01*
X0240665Y0101336D01*
X0240578Y0101321D01*
X0240491Y0101310D01*
X0240403Y0101303D01*
X0240315Y0101300D01*
X0240227Y0101301D01*
X0240139Y0101306D01*
X0240051Y0101315D01*
X0239964Y0101328D01*
X0239878Y0101345D01*
X0239792Y0101365D01*
X0239707Y0101390D01*
X0239624Y0101418D01*
X0239542Y0101451D01*
X0239461Y0101486D01*
X0239382Y0101526D01*
X0239305Y0101569D01*
X0239230Y0101615D01*
X0239158Y0101665D01*
X0239087Y0101718D01*
X0239019Y0101774D01*
X0238954Y0101833D01*
X0238891Y0101895D01*
X0238831Y0101959D01*
X0238774Y0102027D01*
X0238721Y0102097D01*
X0238670Y0102169D01*
X0238623Y0102243D01*
X0238579Y0102320D01*
X0238539Y0102398D01*
X0238502Y0102478D01*
X0238469Y0102560D01*
X0238440Y0102643D01*
X0238414Y0102728D01*
X0238393Y0102813D01*
X0238375Y0102899D01*
X0238361Y0102986D01*
X0238351Y0103074D01*
X0238345Y0103162D01*
X0238343Y0103250D01*
X0241618Y0110750D02*
X0241620Y0110887D01*
X0241626Y0111023D01*
X0241636Y0111159D01*
X0241650Y0111295D01*
X0241668Y0111431D01*
X0241690Y0111566D01*
X0241715Y0111700D01*
X0241745Y0111833D01*
X0241779Y0111965D01*
X0241816Y0112097D01*
X0241857Y0112227D01*
X0241903Y0112356D01*
X0241951Y0112484D01*
X0242004Y0112610D01*
X0242060Y0112734D01*
X0242120Y0112857D01*
X0242183Y0112978D01*
X0242250Y0113097D01*
X0242320Y0113214D01*
X0242394Y0113330D01*
X0242471Y0113442D01*
X0242551Y0113553D01*
X0242635Y0113661D01*
X0242722Y0113767D01*
X0242811Y0113870D01*
X0242904Y0113970D01*
X0242999Y0114068D01*
X0243098Y0114163D01*
X0243199Y0114255D01*
X0243303Y0114343D01*
X0243409Y0114429D01*
X0243518Y0114512D01*
X0243629Y0114591D01*
X0243742Y0114668D01*
X0243858Y0114741D01*
X0243975Y0114810D01*
X0244095Y0114876D01*
X0244216Y0114938D01*
X0244340Y0114997D01*
X0244465Y0115053D01*
X0244591Y0115104D01*
X0244719Y0115152D01*
X0244848Y0115196D01*
X0244979Y0115237D01*
X0245111Y0115273D01*
X0245243Y0115306D01*
X0245377Y0115334D01*
X0245511Y0115359D01*
X0245646Y0115380D01*
X0245782Y0115397D01*
X0245918Y0115410D01*
X0246054Y0115419D01*
X0246191Y0115424D01*
X0246327Y0115425D01*
X0246464Y0115422D01*
X0246600Y0115415D01*
X0246736Y0115404D01*
X0246872Y0115389D01*
X0247007Y0115370D01*
X0247142Y0115347D01*
X0247276Y0115320D01*
X0247409Y0115290D01*
X0247541Y0115255D01*
X0247673Y0115217D01*
X0247802Y0115175D01*
X0247931Y0115129D01*
X0248058Y0115079D01*
X0248184Y0115025D01*
X0248308Y0114968D01*
X0248431Y0114908D01*
X0248551Y0114843D01*
X0248670Y0114776D01*
X0248786Y0114705D01*
X0248901Y0114630D01*
X0249013Y0114552D01*
X0249123Y0114471D01*
X0249231Y0114387D01*
X0249336Y0114299D01*
X0249438Y0114209D01*
X0249538Y0114116D01*
X0249635Y0114019D01*
X0249729Y0113920D01*
X0249820Y0113819D01*
X0249908Y0113714D01*
X0249993Y0113607D01*
X0250075Y0113498D01*
X0250154Y0113386D01*
X0250229Y0113272D01*
X0250301Y0113156D01*
X0250370Y0113038D01*
X0250435Y0112918D01*
X0250497Y0112796D01*
X0250555Y0112672D01*
X0250609Y0112547D01*
X0250660Y0112420D01*
X0250706Y0112292D01*
X0250750Y0112162D01*
X0250789Y0112031D01*
X0250825Y0111899D01*
X0250856Y0111766D01*
X0250884Y0111633D01*
X0250908Y0111498D01*
X0250928Y0111363D01*
X0250944Y0111227D01*
X0250956Y0111091D01*
X0250964Y0110955D01*
X0250968Y0110818D01*
X0250968Y0110682D01*
X0250964Y0110545D01*
X0250956Y0110409D01*
X0250944Y0110273D01*
X0250928Y0110137D01*
X0250908Y0110002D01*
X0250884Y0109867D01*
X0250856Y0109734D01*
X0250825Y0109601D01*
X0250789Y0109469D01*
X0250750Y0109338D01*
X0250706Y0109208D01*
X0250660Y0109080D01*
X0250609Y0108953D01*
X0250555Y0108828D01*
X0250497Y0108704D01*
X0250435Y0108582D01*
X0250370Y0108462D01*
X0250301Y0108344D01*
X0250229Y0108228D01*
X0250154Y0108114D01*
X0250075Y0108002D01*
X0249993Y0107893D01*
X0249908Y0107786D01*
X0249820Y0107681D01*
X0249729Y0107580D01*
X0249635Y0107481D01*
X0249538Y0107384D01*
X0249438Y0107291D01*
X0249336Y0107201D01*
X0249231Y0107113D01*
X0249123Y0107029D01*
X0249013Y0106948D01*
X0248901Y0106870D01*
X0248786Y0106795D01*
X0248670Y0106724D01*
X0248551Y0106657D01*
X0248431Y0106592D01*
X0248308Y0106532D01*
X0248184Y0106475D01*
X0248058Y0106421D01*
X0247931Y0106371D01*
X0247802Y0106325D01*
X0247673Y0106283D01*
X0247541Y0106245D01*
X0247409Y0106210D01*
X0247276Y0106180D01*
X0247142Y0106153D01*
X0247007Y0106130D01*
X0246872Y0106111D01*
X0246736Y0106096D01*
X0246600Y0106085D01*
X0246464Y0106078D01*
X0246327Y0106075D01*
X0246191Y0106076D01*
X0246054Y0106081D01*
X0245918Y0106090D01*
X0245782Y0106103D01*
X0245646Y0106120D01*
X0245511Y0106141D01*
X0245377Y0106166D01*
X0245243Y0106194D01*
X0245111Y0106227D01*
X0244979Y0106263D01*
X0244848Y0106304D01*
X0244719Y0106348D01*
X0244591Y0106396D01*
X0244465Y0106447D01*
X0244340Y0106503D01*
X0244216Y0106562D01*
X0244095Y0106624D01*
X0243975Y0106690D01*
X0243858Y0106759D01*
X0243742Y0106832D01*
X0243629Y0106909D01*
X0243518Y0106988D01*
X0243409Y0107071D01*
X0243303Y0107157D01*
X0243199Y0107245D01*
X0243098Y0107337D01*
X0242999Y0107432D01*
X0242904Y0107530D01*
X0242811Y0107630D01*
X0242722Y0107733D01*
X0242635Y0107839D01*
X0242551Y0107947D01*
X0242471Y0108058D01*
X0242394Y0108170D01*
X0242320Y0108286D01*
X0242250Y0108403D01*
X0242183Y0108522D01*
X0242120Y0108643D01*
X0242060Y0108766D01*
X0242004Y0108890D01*
X0241951Y0109016D01*
X0241903Y0109144D01*
X0241857Y0109273D01*
X0241816Y0109403D01*
X0241779Y0109535D01*
X0241745Y0109667D01*
X0241715Y0109800D01*
X0241690Y0109934D01*
X0241668Y0110069D01*
X0241650Y0110205D01*
X0241636Y0110341D01*
X0241626Y0110477D01*
X0241620Y0110613D01*
X0241618Y0110750D01*
X0241618Y0123250D02*
X0241620Y0123387D01*
X0241626Y0123523D01*
X0241636Y0123659D01*
X0241650Y0123795D01*
X0241668Y0123931D01*
X0241690Y0124066D01*
X0241715Y0124200D01*
X0241745Y0124333D01*
X0241779Y0124465D01*
X0241816Y0124597D01*
X0241857Y0124727D01*
X0241903Y0124856D01*
X0241951Y0124984D01*
X0242004Y0125110D01*
X0242060Y0125234D01*
X0242120Y0125357D01*
X0242183Y0125478D01*
X0242250Y0125597D01*
X0242320Y0125714D01*
X0242394Y0125830D01*
X0242471Y0125942D01*
X0242551Y0126053D01*
X0242635Y0126161D01*
X0242722Y0126267D01*
X0242811Y0126370D01*
X0242904Y0126470D01*
X0242999Y0126568D01*
X0243098Y0126663D01*
X0243199Y0126755D01*
X0243303Y0126843D01*
X0243409Y0126929D01*
X0243518Y0127012D01*
X0243629Y0127091D01*
X0243742Y0127168D01*
X0243858Y0127241D01*
X0243975Y0127310D01*
X0244095Y0127376D01*
X0244216Y0127438D01*
X0244340Y0127497D01*
X0244465Y0127553D01*
X0244591Y0127604D01*
X0244719Y0127652D01*
X0244848Y0127696D01*
X0244979Y0127737D01*
X0245111Y0127773D01*
X0245243Y0127806D01*
X0245377Y0127834D01*
X0245511Y0127859D01*
X0245646Y0127880D01*
X0245782Y0127897D01*
X0245918Y0127910D01*
X0246054Y0127919D01*
X0246191Y0127924D01*
X0246327Y0127925D01*
X0246464Y0127922D01*
X0246600Y0127915D01*
X0246736Y0127904D01*
X0246872Y0127889D01*
X0247007Y0127870D01*
X0247142Y0127847D01*
X0247276Y0127820D01*
X0247409Y0127790D01*
X0247541Y0127755D01*
X0247673Y0127717D01*
X0247802Y0127675D01*
X0247931Y0127629D01*
X0248058Y0127579D01*
X0248184Y0127525D01*
X0248308Y0127468D01*
X0248431Y0127408D01*
X0248551Y0127343D01*
X0248670Y0127276D01*
X0248786Y0127205D01*
X0248901Y0127130D01*
X0249013Y0127052D01*
X0249123Y0126971D01*
X0249231Y0126887D01*
X0249336Y0126799D01*
X0249438Y0126709D01*
X0249538Y0126616D01*
X0249635Y0126519D01*
X0249729Y0126420D01*
X0249820Y0126319D01*
X0249908Y0126214D01*
X0249993Y0126107D01*
X0250075Y0125998D01*
X0250154Y0125886D01*
X0250229Y0125772D01*
X0250301Y0125656D01*
X0250370Y0125538D01*
X0250435Y0125418D01*
X0250497Y0125296D01*
X0250555Y0125172D01*
X0250609Y0125047D01*
X0250660Y0124920D01*
X0250706Y0124792D01*
X0250750Y0124662D01*
X0250789Y0124531D01*
X0250825Y0124399D01*
X0250856Y0124266D01*
X0250884Y0124133D01*
X0250908Y0123998D01*
X0250928Y0123863D01*
X0250944Y0123727D01*
X0250956Y0123591D01*
X0250964Y0123455D01*
X0250968Y0123318D01*
X0250968Y0123182D01*
X0250964Y0123045D01*
X0250956Y0122909D01*
X0250944Y0122773D01*
X0250928Y0122637D01*
X0250908Y0122502D01*
X0250884Y0122367D01*
X0250856Y0122234D01*
X0250825Y0122101D01*
X0250789Y0121969D01*
X0250750Y0121838D01*
X0250706Y0121708D01*
X0250660Y0121580D01*
X0250609Y0121453D01*
X0250555Y0121328D01*
X0250497Y0121204D01*
X0250435Y0121082D01*
X0250370Y0120962D01*
X0250301Y0120844D01*
X0250229Y0120728D01*
X0250154Y0120614D01*
X0250075Y0120502D01*
X0249993Y0120393D01*
X0249908Y0120286D01*
X0249820Y0120181D01*
X0249729Y0120080D01*
X0249635Y0119981D01*
X0249538Y0119884D01*
X0249438Y0119791D01*
X0249336Y0119701D01*
X0249231Y0119613D01*
X0249123Y0119529D01*
X0249013Y0119448D01*
X0248901Y0119370D01*
X0248786Y0119295D01*
X0248670Y0119224D01*
X0248551Y0119157D01*
X0248431Y0119092D01*
X0248308Y0119032D01*
X0248184Y0118975D01*
X0248058Y0118921D01*
X0247931Y0118871D01*
X0247802Y0118825D01*
X0247673Y0118783D01*
X0247541Y0118745D01*
X0247409Y0118710D01*
X0247276Y0118680D01*
X0247142Y0118653D01*
X0247007Y0118630D01*
X0246872Y0118611D01*
X0246736Y0118596D01*
X0246600Y0118585D01*
X0246464Y0118578D01*
X0246327Y0118575D01*
X0246191Y0118576D01*
X0246054Y0118581D01*
X0245918Y0118590D01*
X0245782Y0118603D01*
X0245646Y0118620D01*
X0245511Y0118641D01*
X0245377Y0118666D01*
X0245243Y0118694D01*
X0245111Y0118727D01*
X0244979Y0118763D01*
X0244848Y0118804D01*
X0244719Y0118848D01*
X0244591Y0118896D01*
X0244465Y0118947D01*
X0244340Y0119003D01*
X0244216Y0119062D01*
X0244095Y0119124D01*
X0243975Y0119190D01*
X0243858Y0119259D01*
X0243742Y0119332D01*
X0243629Y0119409D01*
X0243518Y0119488D01*
X0243409Y0119571D01*
X0243303Y0119657D01*
X0243199Y0119745D01*
X0243098Y0119837D01*
X0242999Y0119932D01*
X0242904Y0120030D01*
X0242811Y0120130D01*
X0242722Y0120233D01*
X0242635Y0120339D01*
X0242551Y0120447D01*
X0242471Y0120558D01*
X0242394Y0120670D01*
X0242320Y0120786D01*
X0242250Y0120903D01*
X0242183Y0121022D01*
X0242120Y0121143D01*
X0242060Y0121266D01*
X0242004Y0121390D01*
X0241951Y0121516D01*
X0241903Y0121644D01*
X0241857Y0121773D01*
X0241816Y0121903D01*
X0241779Y0122035D01*
X0241745Y0122167D01*
X0241715Y0122300D01*
X0241690Y0122434D01*
X0241668Y0122569D01*
X0241650Y0122705D01*
X0241636Y0122841D01*
X0241626Y0122977D01*
X0241620Y0123113D01*
X0241618Y0123250D01*
X0234343Y0123250D02*
X0234345Y0123338D01*
X0234351Y0123426D01*
X0234361Y0123514D01*
X0234375Y0123601D01*
X0234393Y0123687D01*
X0234414Y0123772D01*
X0234440Y0123857D01*
X0234469Y0123940D01*
X0234502Y0124022D01*
X0234539Y0124102D01*
X0234579Y0124180D01*
X0234623Y0124257D01*
X0234670Y0124331D01*
X0234721Y0124403D01*
X0234774Y0124473D01*
X0234831Y0124541D01*
X0234891Y0124605D01*
X0234954Y0124667D01*
X0235019Y0124726D01*
X0235087Y0124782D01*
X0235158Y0124835D01*
X0235230Y0124885D01*
X0235305Y0124931D01*
X0235382Y0124974D01*
X0235461Y0125014D01*
X0235542Y0125049D01*
X0235624Y0125082D01*
X0235707Y0125110D01*
X0235792Y0125135D01*
X0235878Y0125155D01*
X0235964Y0125172D01*
X0236051Y0125185D01*
X0236139Y0125194D01*
X0236227Y0125199D01*
X0236315Y0125200D01*
X0236403Y0125197D01*
X0236491Y0125190D01*
X0236578Y0125179D01*
X0236665Y0125164D01*
X0236751Y0125145D01*
X0236837Y0125123D01*
X0236921Y0125096D01*
X0237003Y0125066D01*
X0237085Y0125032D01*
X0237165Y0124994D01*
X0237242Y0124953D01*
X0237318Y0124909D01*
X0237392Y0124861D01*
X0237464Y0124809D01*
X0237533Y0124755D01*
X0237600Y0124697D01*
X0237664Y0124637D01*
X0237725Y0124573D01*
X0237784Y0124507D01*
X0237839Y0124439D01*
X0237891Y0124367D01*
X0237940Y0124294D01*
X0237985Y0124219D01*
X0238027Y0124141D01*
X0238066Y0124062D01*
X0238101Y0123981D01*
X0238132Y0123898D01*
X0238159Y0123815D01*
X0238183Y0123730D01*
X0238203Y0123644D01*
X0238219Y0123557D01*
X0238231Y0123470D01*
X0238239Y0123382D01*
X0238243Y0123294D01*
X0238243Y0123206D01*
X0238239Y0123118D01*
X0238231Y0123030D01*
X0238219Y0122943D01*
X0238203Y0122856D01*
X0238183Y0122770D01*
X0238159Y0122685D01*
X0238132Y0122602D01*
X0238101Y0122519D01*
X0238066Y0122438D01*
X0238027Y0122359D01*
X0237985Y0122281D01*
X0237940Y0122206D01*
X0237891Y0122133D01*
X0237839Y0122061D01*
X0237784Y0121993D01*
X0237725Y0121927D01*
X0237664Y0121863D01*
X0237600Y0121803D01*
X0237533Y0121745D01*
X0237464Y0121691D01*
X0237392Y0121639D01*
X0237318Y0121591D01*
X0237242Y0121547D01*
X0237165Y0121506D01*
X0237085Y0121468D01*
X0237003Y0121434D01*
X0236921Y0121404D01*
X0236837Y0121377D01*
X0236751Y0121355D01*
X0236665Y0121336D01*
X0236578Y0121321D01*
X0236491Y0121310D01*
X0236403Y0121303D01*
X0236315Y0121300D01*
X0236227Y0121301D01*
X0236139Y0121306D01*
X0236051Y0121315D01*
X0235964Y0121328D01*
X0235878Y0121345D01*
X0235792Y0121365D01*
X0235707Y0121390D01*
X0235624Y0121418D01*
X0235542Y0121451D01*
X0235461Y0121486D01*
X0235382Y0121526D01*
X0235305Y0121569D01*
X0235230Y0121615D01*
X0235158Y0121665D01*
X0235087Y0121718D01*
X0235019Y0121774D01*
X0234954Y0121833D01*
X0234891Y0121895D01*
X0234831Y0121959D01*
X0234774Y0122027D01*
X0234721Y0122097D01*
X0234670Y0122169D01*
X0234623Y0122243D01*
X0234579Y0122320D01*
X0234539Y0122398D01*
X0234502Y0122478D01*
X0234469Y0122560D01*
X0234440Y0122643D01*
X0234414Y0122728D01*
X0234393Y0122813D01*
X0234375Y0122899D01*
X0234361Y0122986D01*
X0234351Y0123074D01*
X0234345Y0123162D01*
X0234343Y0123250D01*
X0221618Y0123250D02*
X0221620Y0123387D01*
X0221626Y0123523D01*
X0221636Y0123659D01*
X0221650Y0123795D01*
X0221668Y0123931D01*
X0221690Y0124066D01*
X0221715Y0124200D01*
X0221745Y0124333D01*
X0221779Y0124465D01*
X0221816Y0124597D01*
X0221857Y0124727D01*
X0221903Y0124856D01*
X0221951Y0124984D01*
X0222004Y0125110D01*
X0222060Y0125234D01*
X0222120Y0125357D01*
X0222183Y0125478D01*
X0222250Y0125597D01*
X0222320Y0125714D01*
X0222394Y0125830D01*
X0222471Y0125942D01*
X0222551Y0126053D01*
X0222635Y0126161D01*
X0222722Y0126267D01*
X0222811Y0126370D01*
X0222904Y0126470D01*
X0222999Y0126568D01*
X0223098Y0126663D01*
X0223199Y0126755D01*
X0223303Y0126843D01*
X0223409Y0126929D01*
X0223518Y0127012D01*
X0223629Y0127091D01*
X0223742Y0127168D01*
X0223858Y0127241D01*
X0223975Y0127310D01*
X0224095Y0127376D01*
X0224216Y0127438D01*
X0224340Y0127497D01*
X0224465Y0127553D01*
X0224591Y0127604D01*
X0224719Y0127652D01*
X0224848Y0127696D01*
X0224979Y0127737D01*
X0225111Y0127773D01*
X0225243Y0127806D01*
X0225377Y0127834D01*
X0225511Y0127859D01*
X0225646Y0127880D01*
X0225782Y0127897D01*
X0225918Y0127910D01*
X0226054Y0127919D01*
X0226191Y0127924D01*
X0226327Y0127925D01*
X0226464Y0127922D01*
X0226600Y0127915D01*
X0226736Y0127904D01*
X0226872Y0127889D01*
X0227007Y0127870D01*
X0227142Y0127847D01*
X0227276Y0127820D01*
X0227409Y0127790D01*
X0227541Y0127755D01*
X0227673Y0127717D01*
X0227802Y0127675D01*
X0227931Y0127629D01*
X0228058Y0127579D01*
X0228184Y0127525D01*
X0228308Y0127468D01*
X0228431Y0127408D01*
X0228551Y0127343D01*
X0228670Y0127276D01*
X0228786Y0127205D01*
X0228901Y0127130D01*
X0229013Y0127052D01*
X0229123Y0126971D01*
X0229231Y0126887D01*
X0229336Y0126799D01*
X0229438Y0126709D01*
X0229538Y0126616D01*
X0229635Y0126519D01*
X0229729Y0126420D01*
X0229820Y0126319D01*
X0229908Y0126214D01*
X0229993Y0126107D01*
X0230075Y0125998D01*
X0230154Y0125886D01*
X0230229Y0125772D01*
X0230301Y0125656D01*
X0230370Y0125538D01*
X0230435Y0125418D01*
X0230497Y0125296D01*
X0230555Y0125172D01*
X0230609Y0125047D01*
X0230660Y0124920D01*
X0230706Y0124792D01*
X0230750Y0124662D01*
X0230789Y0124531D01*
X0230825Y0124399D01*
X0230856Y0124266D01*
X0230884Y0124133D01*
X0230908Y0123998D01*
X0230928Y0123863D01*
X0230944Y0123727D01*
X0230956Y0123591D01*
X0230964Y0123455D01*
X0230968Y0123318D01*
X0230968Y0123182D01*
X0230964Y0123045D01*
X0230956Y0122909D01*
X0230944Y0122773D01*
X0230928Y0122637D01*
X0230908Y0122502D01*
X0230884Y0122367D01*
X0230856Y0122234D01*
X0230825Y0122101D01*
X0230789Y0121969D01*
X0230750Y0121838D01*
X0230706Y0121708D01*
X0230660Y0121580D01*
X0230609Y0121453D01*
X0230555Y0121328D01*
X0230497Y0121204D01*
X0230435Y0121082D01*
X0230370Y0120962D01*
X0230301Y0120844D01*
X0230229Y0120728D01*
X0230154Y0120614D01*
X0230075Y0120502D01*
X0229993Y0120393D01*
X0229908Y0120286D01*
X0229820Y0120181D01*
X0229729Y0120080D01*
X0229635Y0119981D01*
X0229538Y0119884D01*
X0229438Y0119791D01*
X0229336Y0119701D01*
X0229231Y0119613D01*
X0229123Y0119529D01*
X0229013Y0119448D01*
X0228901Y0119370D01*
X0228786Y0119295D01*
X0228670Y0119224D01*
X0228551Y0119157D01*
X0228431Y0119092D01*
X0228308Y0119032D01*
X0228184Y0118975D01*
X0228058Y0118921D01*
X0227931Y0118871D01*
X0227802Y0118825D01*
X0227673Y0118783D01*
X0227541Y0118745D01*
X0227409Y0118710D01*
X0227276Y0118680D01*
X0227142Y0118653D01*
X0227007Y0118630D01*
X0226872Y0118611D01*
X0226736Y0118596D01*
X0226600Y0118585D01*
X0226464Y0118578D01*
X0226327Y0118575D01*
X0226191Y0118576D01*
X0226054Y0118581D01*
X0225918Y0118590D01*
X0225782Y0118603D01*
X0225646Y0118620D01*
X0225511Y0118641D01*
X0225377Y0118666D01*
X0225243Y0118694D01*
X0225111Y0118727D01*
X0224979Y0118763D01*
X0224848Y0118804D01*
X0224719Y0118848D01*
X0224591Y0118896D01*
X0224465Y0118947D01*
X0224340Y0119003D01*
X0224216Y0119062D01*
X0224095Y0119124D01*
X0223975Y0119190D01*
X0223858Y0119259D01*
X0223742Y0119332D01*
X0223629Y0119409D01*
X0223518Y0119488D01*
X0223409Y0119571D01*
X0223303Y0119657D01*
X0223199Y0119745D01*
X0223098Y0119837D01*
X0222999Y0119932D01*
X0222904Y0120030D01*
X0222811Y0120130D01*
X0222722Y0120233D01*
X0222635Y0120339D01*
X0222551Y0120447D01*
X0222471Y0120558D01*
X0222394Y0120670D01*
X0222320Y0120786D01*
X0222250Y0120903D01*
X0222183Y0121022D01*
X0222120Y0121143D01*
X0222060Y0121266D01*
X0222004Y0121390D01*
X0221951Y0121516D01*
X0221903Y0121644D01*
X0221857Y0121773D01*
X0221816Y0121903D01*
X0221779Y0122035D01*
X0221745Y0122167D01*
X0221715Y0122300D01*
X0221690Y0122434D01*
X0221668Y0122569D01*
X0221650Y0122705D01*
X0221636Y0122841D01*
X0221626Y0122977D01*
X0221620Y0123113D01*
X0221618Y0123250D01*
X0263281Y0143250D02*
X0263283Y0143398D01*
X0263289Y0143546D01*
X0263299Y0143694D01*
X0263313Y0143841D01*
X0263331Y0143988D01*
X0263352Y0144134D01*
X0263378Y0144280D01*
X0263408Y0144425D01*
X0263441Y0144569D01*
X0263479Y0144712D01*
X0263520Y0144854D01*
X0263565Y0144995D01*
X0263613Y0145135D01*
X0263666Y0145274D01*
X0263722Y0145411D01*
X0263782Y0145546D01*
X0263845Y0145680D01*
X0263912Y0145812D01*
X0263983Y0145942D01*
X0264057Y0146070D01*
X0264134Y0146196D01*
X0264215Y0146320D01*
X0264299Y0146442D01*
X0264386Y0146561D01*
X0264477Y0146678D01*
X0264571Y0146793D01*
X0264667Y0146905D01*
X0264767Y0147015D01*
X0264869Y0147121D01*
X0264975Y0147225D01*
X0265083Y0147326D01*
X0265194Y0147424D01*
X0265307Y0147520D01*
X0265423Y0147612D01*
X0265541Y0147701D01*
X0265662Y0147786D01*
X0265785Y0147869D01*
X0265910Y0147948D01*
X0266037Y0148024D01*
X0266166Y0148096D01*
X0266297Y0148165D01*
X0266430Y0148230D01*
X0266565Y0148291D01*
X0266701Y0148349D01*
X0266838Y0148404D01*
X0266977Y0148454D01*
X0267118Y0148501D01*
X0267259Y0148544D01*
X0267402Y0148584D01*
X0267546Y0148619D01*
X0267690Y0148651D01*
X0267836Y0148678D01*
X0267982Y0148702D01*
X0268129Y0148722D01*
X0268276Y0148738D01*
X0268423Y0148750D01*
X0268571Y0148758D01*
X0268719Y0148762D01*
X0268867Y0148762D01*
X0269015Y0148758D01*
X0269163Y0148750D01*
X0269310Y0148738D01*
X0269457Y0148722D01*
X0269604Y0148702D01*
X0269750Y0148678D01*
X0269896Y0148651D01*
X0270040Y0148619D01*
X0270184Y0148584D01*
X0270327Y0148544D01*
X0270468Y0148501D01*
X0270609Y0148454D01*
X0270748Y0148404D01*
X0270885Y0148349D01*
X0271021Y0148291D01*
X0271156Y0148230D01*
X0271289Y0148165D01*
X0271420Y0148096D01*
X0271549Y0148024D01*
X0271676Y0147948D01*
X0271801Y0147869D01*
X0271924Y0147786D01*
X0272045Y0147701D01*
X0272163Y0147612D01*
X0272279Y0147520D01*
X0272392Y0147424D01*
X0272503Y0147326D01*
X0272611Y0147225D01*
X0272717Y0147121D01*
X0272819Y0147015D01*
X0272919Y0146905D01*
X0273015Y0146793D01*
X0273109Y0146678D01*
X0273200Y0146561D01*
X0273287Y0146442D01*
X0273371Y0146320D01*
X0273452Y0146196D01*
X0273529Y0146070D01*
X0273603Y0145942D01*
X0273674Y0145812D01*
X0273741Y0145680D01*
X0273804Y0145546D01*
X0273864Y0145411D01*
X0273920Y0145274D01*
X0273973Y0145135D01*
X0274021Y0144995D01*
X0274066Y0144854D01*
X0274107Y0144712D01*
X0274145Y0144569D01*
X0274178Y0144425D01*
X0274208Y0144280D01*
X0274234Y0144134D01*
X0274255Y0143988D01*
X0274273Y0143841D01*
X0274287Y0143694D01*
X0274297Y0143546D01*
X0274303Y0143398D01*
X0274305Y0143250D01*
X0274303Y0143102D01*
X0274297Y0142954D01*
X0274287Y0142806D01*
X0274273Y0142659D01*
X0274255Y0142512D01*
X0274234Y0142366D01*
X0274208Y0142220D01*
X0274178Y0142075D01*
X0274145Y0141931D01*
X0274107Y0141788D01*
X0274066Y0141646D01*
X0274021Y0141505D01*
X0273973Y0141365D01*
X0273920Y0141226D01*
X0273864Y0141089D01*
X0273804Y0140954D01*
X0273741Y0140820D01*
X0273674Y0140688D01*
X0273603Y0140558D01*
X0273529Y0140430D01*
X0273452Y0140304D01*
X0273371Y0140180D01*
X0273287Y0140058D01*
X0273200Y0139939D01*
X0273109Y0139822D01*
X0273015Y0139707D01*
X0272919Y0139595D01*
X0272819Y0139485D01*
X0272717Y0139379D01*
X0272611Y0139275D01*
X0272503Y0139174D01*
X0272392Y0139076D01*
X0272279Y0138980D01*
X0272163Y0138888D01*
X0272045Y0138799D01*
X0271924Y0138714D01*
X0271801Y0138631D01*
X0271676Y0138552D01*
X0271549Y0138476D01*
X0271420Y0138404D01*
X0271289Y0138335D01*
X0271156Y0138270D01*
X0271021Y0138209D01*
X0270885Y0138151D01*
X0270748Y0138096D01*
X0270609Y0138046D01*
X0270468Y0137999D01*
X0270327Y0137956D01*
X0270184Y0137916D01*
X0270040Y0137881D01*
X0269896Y0137849D01*
X0269750Y0137822D01*
X0269604Y0137798D01*
X0269457Y0137778D01*
X0269310Y0137762D01*
X0269163Y0137750D01*
X0269015Y0137742D01*
X0268867Y0137738D01*
X0268719Y0137738D01*
X0268571Y0137742D01*
X0268423Y0137750D01*
X0268276Y0137762D01*
X0268129Y0137778D01*
X0267982Y0137798D01*
X0267836Y0137822D01*
X0267690Y0137849D01*
X0267546Y0137881D01*
X0267402Y0137916D01*
X0267259Y0137956D01*
X0267118Y0137999D01*
X0266977Y0138046D01*
X0266838Y0138096D01*
X0266701Y0138151D01*
X0266565Y0138209D01*
X0266430Y0138270D01*
X0266297Y0138335D01*
X0266166Y0138404D01*
X0266037Y0138476D01*
X0265910Y0138552D01*
X0265785Y0138631D01*
X0265662Y0138714D01*
X0265541Y0138799D01*
X0265423Y0138888D01*
X0265307Y0138980D01*
X0265194Y0139076D01*
X0265083Y0139174D01*
X0264975Y0139275D01*
X0264869Y0139379D01*
X0264767Y0139485D01*
X0264667Y0139595D01*
X0264571Y0139707D01*
X0264477Y0139822D01*
X0264386Y0139939D01*
X0264299Y0140058D01*
X0264215Y0140180D01*
X0264134Y0140304D01*
X0264057Y0140430D01*
X0263983Y0140558D01*
X0263912Y0140688D01*
X0263845Y0140820D01*
X0263782Y0140954D01*
X0263722Y0141089D01*
X0263666Y0141226D01*
X0263613Y0141365D01*
X0263565Y0141505D01*
X0263520Y0141646D01*
X0263479Y0141788D01*
X0263441Y0141931D01*
X0263408Y0142075D01*
X0263378Y0142220D01*
X0263352Y0142366D01*
X0263331Y0142512D01*
X0263313Y0142659D01*
X0263299Y0142806D01*
X0263289Y0142954D01*
X0263283Y0143102D01*
X0263281Y0143250D01*
X0263281Y0033250D02*
X0263283Y0033398D01*
X0263289Y0033546D01*
X0263299Y0033694D01*
X0263313Y0033841D01*
X0263331Y0033988D01*
X0263352Y0034134D01*
X0263378Y0034280D01*
X0263408Y0034425D01*
X0263441Y0034569D01*
X0263479Y0034712D01*
X0263520Y0034854D01*
X0263565Y0034995D01*
X0263613Y0035135D01*
X0263666Y0035274D01*
X0263722Y0035411D01*
X0263782Y0035546D01*
X0263845Y0035680D01*
X0263912Y0035812D01*
X0263983Y0035942D01*
X0264057Y0036070D01*
X0264134Y0036196D01*
X0264215Y0036320D01*
X0264299Y0036442D01*
X0264386Y0036561D01*
X0264477Y0036678D01*
X0264571Y0036793D01*
X0264667Y0036905D01*
X0264767Y0037015D01*
X0264869Y0037121D01*
X0264975Y0037225D01*
X0265083Y0037326D01*
X0265194Y0037424D01*
X0265307Y0037520D01*
X0265423Y0037612D01*
X0265541Y0037701D01*
X0265662Y0037786D01*
X0265785Y0037869D01*
X0265910Y0037948D01*
X0266037Y0038024D01*
X0266166Y0038096D01*
X0266297Y0038165D01*
X0266430Y0038230D01*
X0266565Y0038291D01*
X0266701Y0038349D01*
X0266838Y0038404D01*
X0266977Y0038454D01*
X0267118Y0038501D01*
X0267259Y0038544D01*
X0267402Y0038584D01*
X0267546Y0038619D01*
X0267690Y0038651D01*
X0267836Y0038678D01*
X0267982Y0038702D01*
X0268129Y0038722D01*
X0268276Y0038738D01*
X0268423Y0038750D01*
X0268571Y0038758D01*
X0268719Y0038762D01*
X0268867Y0038762D01*
X0269015Y0038758D01*
X0269163Y0038750D01*
X0269310Y0038738D01*
X0269457Y0038722D01*
X0269604Y0038702D01*
X0269750Y0038678D01*
X0269896Y0038651D01*
X0270040Y0038619D01*
X0270184Y0038584D01*
X0270327Y0038544D01*
X0270468Y0038501D01*
X0270609Y0038454D01*
X0270748Y0038404D01*
X0270885Y0038349D01*
X0271021Y0038291D01*
X0271156Y0038230D01*
X0271289Y0038165D01*
X0271420Y0038096D01*
X0271549Y0038024D01*
X0271676Y0037948D01*
X0271801Y0037869D01*
X0271924Y0037786D01*
X0272045Y0037701D01*
X0272163Y0037612D01*
X0272279Y0037520D01*
X0272392Y0037424D01*
X0272503Y0037326D01*
X0272611Y0037225D01*
X0272717Y0037121D01*
X0272819Y0037015D01*
X0272919Y0036905D01*
X0273015Y0036793D01*
X0273109Y0036678D01*
X0273200Y0036561D01*
X0273287Y0036442D01*
X0273371Y0036320D01*
X0273452Y0036196D01*
X0273529Y0036070D01*
X0273603Y0035942D01*
X0273674Y0035812D01*
X0273741Y0035680D01*
X0273804Y0035546D01*
X0273864Y0035411D01*
X0273920Y0035274D01*
X0273973Y0035135D01*
X0274021Y0034995D01*
X0274066Y0034854D01*
X0274107Y0034712D01*
X0274145Y0034569D01*
X0274178Y0034425D01*
X0274208Y0034280D01*
X0274234Y0034134D01*
X0274255Y0033988D01*
X0274273Y0033841D01*
X0274287Y0033694D01*
X0274297Y0033546D01*
X0274303Y0033398D01*
X0274305Y0033250D01*
X0274303Y0033102D01*
X0274297Y0032954D01*
X0274287Y0032806D01*
X0274273Y0032659D01*
X0274255Y0032512D01*
X0274234Y0032366D01*
X0274208Y0032220D01*
X0274178Y0032075D01*
X0274145Y0031931D01*
X0274107Y0031788D01*
X0274066Y0031646D01*
X0274021Y0031505D01*
X0273973Y0031365D01*
X0273920Y0031226D01*
X0273864Y0031089D01*
X0273804Y0030954D01*
X0273741Y0030820D01*
X0273674Y0030688D01*
X0273603Y0030558D01*
X0273529Y0030430D01*
X0273452Y0030304D01*
X0273371Y0030180D01*
X0273287Y0030058D01*
X0273200Y0029939D01*
X0273109Y0029822D01*
X0273015Y0029707D01*
X0272919Y0029595D01*
X0272819Y0029485D01*
X0272717Y0029379D01*
X0272611Y0029275D01*
X0272503Y0029174D01*
X0272392Y0029076D01*
X0272279Y0028980D01*
X0272163Y0028888D01*
X0272045Y0028799D01*
X0271924Y0028714D01*
X0271801Y0028631D01*
X0271676Y0028552D01*
X0271549Y0028476D01*
X0271420Y0028404D01*
X0271289Y0028335D01*
X0271156Y0028270D01*
X0271021Y0028209D01*
X0270885Y0028151D01*
X0270748Y0028096D01*
X0270609Y0028046D01*
X0270468Y0027999D01*
X0270327Y0027956D01*
X0270184Y0027916D01*
X0270040Y0027881D01*
X0269896Y0027849D01*
X0269750Y0027822D01*
X0269604Y0027798D01*
X0269457Y0027778D01*
X0269310Y0027762D01*
X0269163Y0027750D01*
X0269015Y0027742D01*
X0268867Y0027738D01*
X0268719Y0027738D01*
X0268571Y0027742D01*
X0268423Y0027750D01*
X0268276Y0027762D01*
X0268129Y0027778D01*
X0267982Y0027798D01*
X0267836Y0027822D01*
X0267690Y0027849D01*
X0267546Y0027881D01*
X0267402Y0027916D01*
X0267259Y0027956D01*
X0267118Y0027999D01*
X0266977Y0028046D01*
X0266838Y0028096D01*
X0266701Y0028151D01*
X0266565Y0028209D01*
X0266430Y0028270D01*
X0266297Y0028335D01*
X0266166Y0028404D01*
X0266037Y0028476D01*
X0265910Y0028552D01*
X0265785Y0028631D01*
X0265662Y0028714D01*
X0265541Y0028799D01*
X0265423Y0028888D01*
X0265307Y0028980D01*
X0265194Y0029076D01*
X0265083Y0029174D01*
X0264975Y0029275D01*
X0264869Y0029379D01*
X0264767Y0029485D01*
X0264667Y0029595D01*
X0264571Y0029707D01*
X0264477Y0029822D01*
X0264386Y0029939D01*
X0264299Y0030058D01*
X0264215Y0030180D01*
X0264134Y0030304D01*
X0264057Y0030430D01*
X0263983Y0030558D01*
X0263912Y0030688D01*
X0263845Y0030820D01*
X0263782Y0030954D01*
X0263722Y0031089D01*
X0263666Y0031226D01*
X0263613Y0031365D01*
X0263565Y0031505D01*
X0263520Y0031646D01*
X0263479Y0031788D01*
X0263441Y0031931D01*
X0263408Y0032075D01*
X0263378Y0032220D01*
X0263352Y0032366D01*
X0263331Y0032512D01*
X0263313Y0032659D01*
X0263299Y0032806D01*
X0263289Y0032954D01*
X0263283Y0033102D01*
X0263281Y0033250D01*
X0078281Y0203250D02*
X0078283Y0203398D01*
X0078289Y0203546D01*
X0078299Y0203694D01*
X0078313Y0203841D01*
X0078331Y0203988D01*
X0078352Y0204134D01*
X0078378Y0204280D01*
X0078408Y0204425D01*
X0078441Y0204569D01*
X0078479Y0204712D01*
X0078520Y0204854D01*
X0078565Y0204995D01*
X0078613Y0205135D01*
X0078666Y0205274D01*
X0078722Y0205411D01*
X0078782Y0205546D01*
X0078845Y0205680D01*
X0078912Y0205812D01*
X0078983Y0205942D01*
X0079057Y0206070D01*
X0079134Y0206196D01*
X0079215Y0206320D01*
X0079299Y0206442D01*
X0079386Y0206561D01*
X0079477Y0206678D01*
X0079571Y0206793D01*
X0079667Y0206905D01*
X0079767Y0207015D01*
X0079869Y0207121D01*
X0079975Y0207225D01*
X0080083Y0207326D01*
X0080194Y0207424D01*
X0080307Y0207520D01*
X0080423Y0207612D01*
X0080541Y0207701D01*
X0080662Y0207786D01*
X0080785Y0207869D01*
X0080910Y0207948D01*
X0081037Y0208024D01*
X0081166Y0208096D01*
X0081297Y0208165D01*
X0081430Y0208230D01*
X0081565Y0208291D01*
X0081701Y0208349D01*
X0081838Y0208404D01*
X0081977Y0208454D01*
X0082118Y0208501D01*
X0082259Y0208544D01*
X0082402Y0208584D01*
X0082546Y0208619D01*
X0082690Y0208651D01*
X0082836Y0208678D01*
X0082982Y0208702D01*
X0083129Y0208722D01*
X0083276Y0208738D01*
X0083423Y0208750D01*
X0083571Y0208758D01*
X0083719Y0208762D01*
X0083867Y0208762D01*
X0084015Y0208758D01*
X0084163Y0208750D01*
X0084310Y0208738D01*
X0084457Y0208722D01*
X0084604Y0208702D01*
X0084750Y0208678D01*
X0084896Y0208651D01*
X0085040Y0208619D01*
X0085184Y0208584D01*
X0085327Y0208544D01*
X0085468Y0208501D01*
X0085609Y0208454D01*
X0085748Y0208404D01*
X0085885Y0208349D01*
X0086021Y0208291D01*
X0086156Y0208230D01*
X0086289Y0208165D01*
X0086420Y0208096D01*
X0086549Y0208024D01*
X0086676Y0207948D01*
X0086801Y0207869D01*
X0086924Y0207786D01*
X0087045Y0207701D01*
X0087163Y0207612D01*
X0087279Y0207520D01*
X0087392Y0207424D01*
X0087503Y0207326D01*
X0087611Y0207225D01*
X0087717Y0207121D01*
X0087819Y0207015D01*
X0087919Y0206905D01*
X0088015Y0206793D01*
X0088109Y0206678D01*
X0088200Y0206561D01*
X0088287Y0206442D01*
X0088371Y0206320D01*
X0088452Y0206196D01*
X0088529Y0206070D01*
X0088603Y0205942D01*
X0088674Y0205812D01*
X0088741Y0205680D01*
X0088804Y0205546D01*
X0088864Y0205411D01*
X0088920Y0205274D01*
X0088973Y0205135D01*
X0089021Y0204995D01*
X0089066Y0204854D01*
X0089107Y0204712D01*
X0089145Y0204569D01*
X0089178Y0204425D01*
X0089208Y0204280D01*
X0089234Y0204134D01*
X0089255Y0203988D01*
X0089273Y0203841D01*
X0089287Y0203694D01*
X0089297Y0203546D01*
X0089303Y0203398D01*
X0089305Y0203250D01*
X0089303Y0203102D01*
X0089297Y0202954D01*
X0089287Y0202806D01*
X0089273Y0202659D01*
X0089255Y0202512D01*
X0089234Y0202366D01*
X0089208Y0202220D01*
X0089178Y0202075D01*
X0089145Y0201931D01*
X0089107Y0201788D01*
X0089066Y0201646D01*
X0089021Y0201505D01*
X0088973Y0201365D01*
X0088920Y0201226D01*
X0088864Y0201089D01*
X0088804Y0200954D01*
X0088741Y0200820D01*
X0088674Y0200688D01*
X0088603Y0200558D01*
X0088529Y0200430D01*
X0088452Y0200304D01*
X0088371Y0200180D01*
X0088287Y0200058D01*
X0088200Y0199939D01*
X0088109Y0199822D01*
X0088015Y0199707D01*
X0087919Y0199595D01*
X0087819Y0199485D01*
X0087717Y0199379D01*
X0087611Y0199275D01*
X0087503Y0199174D01*
X0087392Y0199076D01*
X0087279Y0198980D01*
X0087163Y0198888D01*
X0087045Y0198799D01*
X0086924Y0198714D01*
X0086801Y0198631D01*
X0086676Y0198552D01*
X0086549Y0198476D01*
X0086420Y0198404D01*
X0086289Y0198335D01*
X0086156Y0198270D01*
X0086021Y0198209D01*
X0085885Y0198151D01*
X0085748Y0198096D01*
X0085609Y0198046D01*
X0085468Y0197999D01*
X0085327Y0197956D01*
X0085184Y0197916D01*
X0085040Y0197881D01*
X0084896Y0197849D01*
X0084750Y0197822D01*
X0084604Y0197798D01*
X0084457Y0197778D01*
X0084310Y0197762D01*
X0084163Y0197750D01*
X0084015Y0197742D01*
X0083867Y0197738D01*
X0083719Y0197738D01*
X0083571Y0197742D01*
X0083423Y0197750D01*
X0083276Y0197762D01*
X0083129Y0197778D01*
X0082982Y0197798D01*
X0082836Y0197822D01*
X0082690Y0197849D01*
X0082546Y0197881D01*
X0082402Y0197916D01*
X0082259Y0197956D01*
X0082118Y0197999D01*
X0081977Y0198046D01*
X0081838Y0198096D01*
X0081701Y0198151D01*
X0081565Y0198209D01*
X0081430Y0198270D01*
X0081297Y0198335D01*
X0081166Y0198404D01*
X0081037Y0198476D01*
X0080910Y0198552D01*
X0080785Y0198631D01*
X0080662Y0198714D01*
X0080541Y0198799D01*
X0080423Y0198888D01*
X0080307Y0198980D01*
X0080194Y0199076D01*
X0080083Y0199174D01*
X0079975Y0199275D01*
X0079869Y0199379D01*
X0079767Y0199485D01*
X0079667Y0199595D01*
X0079571Y0199707D01*
X0079477Y0199822D01*
X0079386Y0199939D01*
X0079299Y0200058D01*
X0079215Y0200180D01*
X0079134Y0200304D01*
X0079057Y0200430D01*
X0078983Y0200558D01*
X0078912Y0200688D01*
X0078845Y0200820D01*
X0078782Y0200954D01*
X0078722Y0201089D01*
X0078666Y0201226D01*
X0078613Y0201365D01*
X0078565Y0201505D01*
X0078520Y0201646D01*
X0078479Y0201788D01*
X0078441Y0201931D01*
X0078408Y0202075D01*
X0078378Y0202220D01*
X0078352Y0202366D01*
X0078331Y0202512D01*
X0078313Y0202659D01*
X0078299Y0202806D01*
X0078289Y0202954D01*
X0078283Y0203102D01*
X0078281Y0203250D01*
D12*
X0102793Y0203250D03*
X0112793Y0203250D03*
X0122793Y0203250D03*
X0132793Y0203250D03*
X0142793Y0203250D03*
X0152793Y0203250D03*
X0162793Y0203250D03*
X0172793Y0203250D03*
X0188793Y0203250D03*
X0198793Y0203250D03*
X0208793Y0203250D03*
X0218793Y0203250D03*
X0228793Y0203250D03*
X0238793Y0203250D03*
X0248793Y0203250D03*
X0258793Y0203250D03*
X0259293Y0123250D03*
X0269293Y0123250D03*
X0269293Y0113250D03*
X0259293Y0113250D03*
X0259293Y0103250D03*
X0269293Y0103250D03*
X0258793Y0013250D03*
X0248793Y0013250D03*
X0238793Y0013250D03*
X0228793Y0013250D03*
X0218793Y0013250D03*
X0208793Y0013250D03*
X0188793Y0013250D03*
X0178793Y0013250D03*
X0168793Y0013250D03*
X0158793Y0013250D03*
X0148793Y0013250D03*
X0138793Y0013250D03*
D13*
X0038762Y0136242D02*
X0034824Y0136242D01*
X0034824Y0136242D01*
X0038762Y0136242D01*
X0038762Y0136242D01*
X0018644Y0136242D02*
X0012738Y0136242D01*
X0012738Y0136242D01*
X0018644Y0136242D01*
X0018644Y0136242D01*
X0018644Y0170258D02*
X0012738Y0170258D01*
X0012738Y0170258D01*
X0018644Y0170258D01*
X0018644Y0170258D01*
X0034824Y0170258D02*
X0038762Y0170258D01*
X0034824Y0170258D02*
X0034824Y0170258D01*
X0038762Y0170258D01*
X0038762Y0170258D01*
D14*
X0029793Y0036250D03*
X0044557Y0017352D03*
D15*
X0054400Y0036250D03*
D16*
X0072514Y0041750D03*
X0071514Y0052250D03*
X0076014Y0052250D03*
X0083793Y0052250D03*
X0092793Y0051250D03*
X0077632Y0062750D03*
X0113793Y0069250D03*
X0141848Y0080250D03*
X0151793Y0079250D03*
X0159793Y0074250D03*
X0174919Y0088750D03*
X0181293Y0088750D03*
X0170793Y0098250D03*
X0184368Y0101250D03*
X0219793Y0137250D03*
X0209293Y0151750D03*
X0212293Y0154750D03*
X0195293Y0163250D03*
X0185293Y0153250D03*
X0181793Y0158250D03*
X0178069Y0153250D03*
X0190793Y0150250D03*
X0151293Y0176250D03*
X0121793Y0161250D03*
X0121793Y0153250D03*
X0105793Y0166250D03*
X0093793Y0166250D03*
X0084514Y0164750D03*
X0085793Y0153250D03*
X0097293Y0149411D03*
X0078793Y0141250D03*
X0069793Y0134250D03*
X0069793Y0127250D03*
X0058793Y0141250D03*
X0060793Y0144250D03*
X0051793Y0144750D03*
X0051793Y0151250D03*
X0051793Y0155750D03*
X0051793Y0161750D03*
X0058793Y0165250D03*
X0058793Y0172250D03*
X0058793Y0179250D03*
X0058793Y0186250D03*
X0065793Y0186250D03*
X0041293Y0165061D03*
X0016793Y0177250D03*
X0016793Y0185250D03*
X0016793Y0193250D03*
X0025793Y0204250D03*
X0041293Y0141439D03*
X0016793Y0115250D03*
X0012793Y0107250D03*
X0012793Y0098250D03*
X0023793Y0071250D03*
X0133793Y0094990D03*
X0169793Y0020250D03*
X0236293Y0098500D03*
X0240043Y0128000D03*
X0248793Y0167250D03*
X0251793Y0167250D03*
X0254793Y0167250D03*
X0119793Y0181250D03*
X0119793Y0184250D03*
D17*
X0069793Y0135250D02*
X0069793Y0134250D01*
X0069793Y0128250D02*
X0069793Y0127250D01*
X0042293Y0142750D02*
X0041793Y0143250D01*
X0012793Y0108250D02*
X0012793Y0107250D01*
X0012793Y0101250D02*
X0012793Y0098250D01*
D18*
X0078793Y0141250D02*
X0101793Y0141250D01*
X0101793Y0164250D01*
X0099793Y0166250D01*
X0093793Y0166250D01*
X0105793Y0166250D02*
X0105793Y0167250D01*
X0107793Y0141250D02*
X0101793Y0141250D01*
X0107793Y0141250D02*
X0133793Y0115250D01*
X0133793Y0098250D01*
X0133793Y0094990D01*
X0133793Y0098250D02*
X0170793Y0098250D01*
X0170793Y0127250D01*
X0178069Y0134526D01*
X0178069Y0153250D01*
X0185293Y0153250D01*
X0203793Y0153250D01*
X0207293Y0149750D01*
X0209293Y0151750D01*
X0207293Y0149750D02*
X0219793Y0137250D01*
X0221793Y0135250D01*
X0239793Y0135250D01*
X0257293Y0135250D01*
X0269293Y0123250D01*
X0212293Y0154750D02*
X0211793Y0155250D01*
X0210793Y0155250D01*
X0141793Y0081250D02*
X0141848Y0080250D01*
X0150793Y0079250D02*
X0151793Y0079250D01*
X0158793Y0074250D02*
X0159793Y0074250D01*
X0113793Y0069250D02*
X0112793Y0069250D01*
X0092793Y0051250D02*
X0090793Y0051250D01*
X0083793Y0052250D02*
X0083793Y0054250D01*
D19*
X0051793Y0144750D02*
X0051686Y0144752D01*
X0051579Y0144758D01*
X0051472Y0144767D01*
X0051366Y0144781D01*
X0051260Y0144798D01*
X0051155Y0144819D01*
X0051051Y0144843D01*
X0050948Y0144872D01*
X0050846Y0144904D01*
X0050745Y0144939D01*
X0050645Y0144978D01*
X0050547Y0145021D01*
X0050450Y0145067D01*
X0050355Y0145117D01*
X0050262Y0145170D01*
X0050171Y0145226D01*
X0050082Y0145286D01*
X0049995Y0145348D01*
X0049911Y0145414D01*
X0049828Y0145483D01*
X0049749Y0145554D01*
X0049672Y0145629D01*
X0049597Y0145706D01*
X0049526Y0145785D01*
X0049457Y0145868D01*
X0049391Y0145952D01*
X0049329Y0146039D01*
X0049269Y0146128D01*
X0049213Y0146219D01*
X0049160Y0146312D01*
X0049110Y0146407D01*
X0049064Y0146504D01*
X0049021Y0146602D01*
X0048982Y0146702D01*
X0048947Y0146803D01*
X0048915Y0146905D01*
X0048886Y0147008D01*
X0048862Y0147112D01*
X0048841Y0147217D01*
X0048824Y0147323D01*
X0048810Y0147429D01*
X0048801Y0147536D01*
X0048795Y0147643D01*
X0048793Y0147750D01*
X0048793Y0152750D01*
X0048795Y0152857D01*
X0048801Y0152964D01*
X0048810Y0153071D01*
X0048824Y0153177D01*
X0048841Y0153283D01*
X0048862Y0153388D01*
X0048886Y0153492D01*
X0048915Y0153595D01*
X0048947Y0153697D01*
X0048982Y0153798D01*
X0049021Y0153898D01*
X0049064Y0153996D01*
X0049110Y0154093D01*
X0049160Y0154188D01*
X0049213Y0154281D01*
X0049269Y0154372D01*
X0049329Y0154461D01*
X0049391Y0154548D01*
X0049457Y0154632D01*
X0049526Y0154715D01*
X0049597Y0154794D01*
X0049672Y0154871D01*
X0049749Y0154946D01*
X0049828Y0155017D01*
X0049911Y0155086D01*
X0049995Y0155152D01*
X0050082Y0155214D01*
X0050171Y0155274D01*
X0050262Y0155330D01*
X0050355Y0155383D01*
X0050450Y0155433D01*
X0050547Y0155479D01*
X0050645Y0155522D01*
X0050745Y0155561D01*
X0050846Y0155596D01*
X0050948Y0155628D01*
X0051051Y0155657D01*
X0051155Y0155681D01*
X0051260Y0155702D01*
X0051366Y0155719D01*
X0051472Y0155733D01*
X0051579Y0155742D01*
X0051686Y0155748D01*
X0051793Y0155750D01*
X0054793Y0154250D02*
X0054791Y0154143D01*
X0054785Y0154036D01*
X0054776Y0153929D01*
X0054762Y0153823D01*
X0054745Y0153717D01*
X0054724Y0153612D01*
X0054700Y0153508D01*
X0054671Y0153405D01*
X0054639Y0153303D01*
X0054604Y0153202D01*
X0054565Y0153102D01*
X0054522Y0153004D01*
X0054476Y0152907D01*
X0054426Y0152812D01*
X0054373Y0152719D01*
X0054317Y0152628D01*
X0054257Y0152539D01*
X0054195Y0152452D01*
X0054129Y0152368D01*
X0054060Y0152285D01*
X0053989Y0152206D01*
X0053914Y0152129D01*
X0053837Y0152054D01*
X0053758Y0151983D01*
X0053675Y0151914D01*
X0053591Y0151848D01*
X0053504Y0151786D01*
X0053415Y0151726D01*
X0053324Y0151670D01*
X0053231Y0151617D01*
X0053136Y0151567D01*
X0053039Y0151521D01*
X0052941Y0151478D01*
X0052841Y0151439D01*
X0052740Y0151404D01*
X0052638Y0151372D01*
X0052535Y0151343D01*
X0052431Y0151319D01*
X0052326Y0151298D01*
X0052220Y0151281D01*
X0052114Y0151267D01*
X0052007Y0151258D01*
X0051900Y0151252D01*
X0051793Y0151250D01*
X0054793Y0154250D02*
X0054793Y0158750D01*
X0054791Y0158857D01*
X0054785Y0158964D01*
X0054776Y0159071D01*
X0054762Y0159177D01*
X0054745Y0159283D01*
X0054724Y0159388D01*
X0054700Y0159492D01*
X0054671Y0159595D01*
X0054639Y0159697D01*
X0054604Y0159798D01*
X0054565Y0159898D01*
X0054522Y0159996D01*
X0054476Y0160093D01*
X0054426Y0160188D01*
X0054373Y0160281D01*
X0054317Y0160372D01*
X0054257Y0160461D01*
X0054195Y0160548D01*
X0054129Y0160632D01*
X0054060Y0160715D01*
X0053989Y0160794D01*
X0053914Y0160871D01*
X0053837Y0160946D01*
X0053758Y0161017D01*
X0053675Y0161086D01*
X0053591Y0161152D01*
X0053504Y0161214D01*
X0053415Y0161274D01*
X0053324Y0161330D01*
X0053231Y0161383D01*
X0053136Y0161433D01*
X0053039Y0161479D01*
X0052941Y0161522D01*
X0052841Y0161561D01*
X0052740Y0161596D01*
X0052638Y0161628D01*
X0052535Y0161657D01*
X0052431Y0161681D01*
X0052326Y0161702D01*
X0052220Y0161719D01*
X0052114Y0161733D01*
X0052007Y0161742D01*
X0051900Y0161748D01*
X0051793Y0161750D01*
M02*
