%FSLAX46Y46*%
%MOIN*%
%ADD10C,0.0126*%
%ADD11R,0.01339X0.01339*%
%ADD12C,0.01102*%
%ADD13R,0.02362X0.01969*%
%ADD14R,0.02362X0.03543*%
%ADD15R,0.03543X0.02362*%
%ADD16C,0.031*%
%ADD17R,0.01969X0.02362*%
%ADD18C,0.04724*%
%ADD19C,0.005*%
%ADD20C,0.01*%
%ADD21C,0.006*%
%ADD22C,0.024*%
%LPD*%
D10*
X1697500Y706350D02*
G01*
X1747880D01*
Y655970D01*
X1697500D01*
Y706350D01*
Y668560D02*
X1747880D01*
Y681150D02*
X1697500D01*
Y693740D02*
X1747880D01*
Y706330D02*
X1697500D01*
D11*
X1672890Y730960D03*
X1772490D03*
Y631350D03*
X1672890D03*
D12*
X1693160Y634310D02*
Y621310D01*
X1712850D02*
Y634310D01*
X1732530D02*
Y621310D01*
X1752220D02*
Y634310D01*
X1769540Y651630D02*
X1782540D01*
Y671310D02*
X1769540D01*
Y691000D02*
X1782540D01*
Y710680D02*
X1769540D01*
X1752220Y728000D02*
Y741000D01*
X1732530D02*
Y728000D01*
X1712850D02*
Y741000D01*
X1693160D02*
Y728000D01*
X1675840Y710680D02*
X1662840D01*
Y691000D02*
X1675840D01*
Y671310D02*
X1662840D01*
Y651630D02*
X1675840D01*
D13*
X1601660Y670850D03*
Y714160D03*
X1686660Y790850D03*
X1731660D03*
Y834160D03*
X1686660D03*
X1871660Y629160D03*
Y585850D03*
X1811660Y554160D03*
Y510850D03*
X1766660D03*
Y554160D03*
X1721660D03*
X1681660D03*
X1636660D03*
Y510850D03*
X1681660D03*
X1721660D03*
X571660Y545850D03*
Y589160D03*
X526660D03*
Y545850D03*
X481660D03*
Y589160D03*
X436660D03*
Y545850D03*
X391660D03*
Y589160D03*
X346660D03*
Y545850D03*
D14*
X231190Y777510D03*
X172130D03*
D15*
X1921660Y597030D03*
Y537980D03*
D16*
X2045730Y529690D03*
X2095730D03*
Y579690D03*
X2045730D03*
Y629690D03*
X2095730D03*
D17*
X1883300Y710840D03*
X1840000D03*
D18*
X233440Y688110D03*
X133440D03*
Y589120D03*
X233440D03*
D19*
X346660Y589160D02*
Y878960D01*
X346680Y879520D01*
X346730Y880080D01*
X346820Y880630D01*
X346950Y881170D01*
X347110Y881710D01*
X347310Y882230D01*
X347540Y882740D01*
X347810Y883240D01*
X348100Y883710D01*
X348430Y884160D01*
X348780Y884600D01*
X349160Y885010D01*
X349570Y885390D01*
X350010Y885740D01*
X350460Y886070D01*
X350940Y886360D01*
X351430Y886630D01*
X351940Y886860D01*
X352460Y887060D01*
X353000Y887220D01*
X353540Y887350D01*
X354090Y887440D01*
X354650Y887490D01*
X355210Y887510D01*
X355690Y887530D01*
X356170Y887580D01*
X356650Y887670D01*
X357110Y887800D01*
X357570Y887960D01*
X358010Y888150D01*
X358440Y888370D01*
X358840Y888630D01*
X359230Y888920D01*
X359600Y889230D01*
X359940Y889570D01*
X360250Y889940D01*
X360540Y890330D01*
X360800Y890740D01*
X361020Y891160D01*
X361210Y891600D01*
X361370Y892060D01*
X361500Y892520D01*
X361590Y893000D01*
X361640Y893480D01*
X361660Y893960D01*
Y957510D01*
X362160Y975650D01*
X363100Y993780D01*
X364480Y1011870D01*
X366300Y1029930D01*
X368570Y1047940D01*
X371270Y1065890D01*
X374410Y1083770D01*
X377990Y1101560D01*
X381990Y1119270D01*
X386430Y1136870D01*
X391300Y1154350D01*
X396590Y1171720D01*
X402310Y1188940D01*
X408440Y1206030D01*
X414990Y1222960D01*
X421950Y1239720D01*
X429310Y1256310D01*
X437080Y1272710D01*
X445250Y1288920D01*
X453810Y1304930D01*
X462760Y1320720D01*
X472090Y1336290D01*
X481790Y1351630D01*
X491870Y1366720D01*
X502320Y1381570D01*
X513120Y1396160D01*
X524280Y1410470D01*
X535780Y1424520D01*
X547620Y1438270D01*
X559790Y1451740D01*
X572290Y1464900D01*
X585100Y1477750D01*
X598230Y1490290D01*
X611660Y1502510D01*
X616650Y1507490D01*
X621580Y1512320D01*
X626640Y1517030D01*
X631810Y1521620D01*
X637080Y1526080D01*
X642460Y1530410D01*
X647940Y1534620D01*
X653520Y1538690D01*
X659190Y1542630D01*
X664960Y1546430D01*
X670810Y1550100D01*
X676750Y1553620D01*
X682780Y1557010D01*
X688880Y1560240D01*
X695060Y1563340D01*
X701310Y1566280D01*
X707620Y1569080D01*
X714000Y1571720D01*
X720450Y1574210D01*
X726950Y1576550D01*
X733500Y1578730D01*
X740110Y1580750D01*
X746760Y1582620D01*
X753450Y1584330D01*
X760180Y1585880D01*
X766950Y1587260D01*
X773750Y1588490D01*
X780570Y1589560D01*
X787420Y1590460D01*
X794290Y1591200D01*
X801170Y1591770D01*
X808070Y1592180D01*
X814970Y1592430D01*
X821880Y1592510D01*
X1372310D01*
X1380270Y1592410D01*
X1388230Y1592120D01*
X1396170Y1591630D01*
X1404100Y1590950D01*
X1412010Y1590070D01*
X1419900Y1589000D01*
X1427760Y1587730D01*
X1435590Y1586280D01*
X1443380Y1584630D01*
X1451120Y1582790D01*
X1458820Y1580760D01*
X1466460Y1578540D01*
X1474050Y1576140D01*
X1481580Y1573550D01*
X1489040Y1570780D01*
X1496430Y1567820D01*
X1503750Y1564680D01*
X1510990Y1561370D01*
X1518140Y1557880D01*
X1525210Y1554210D01*
X1532180Y1550370D01*
X1539060Y1546360D01*
X1545840Y1542190D01*
X1552510Y1537850D01*
X1559070Y1533340D01*
X1565530Y1528680D01*
X1571860Y1523860D01*
X1578080Y1518890D01*
X1584170Y1513760D01*
X1590130Y1508490D01*
X1595960Y1503070D01*
X1601660Y1497510D01*
X1614760Y1486460D01*
X1627590Y1475090D01*
X1640130Y1463410D01*
X1652380Y1451430D01*
X1664340Y1439150D01*
X1675990Y1426580D01*
X1687330Y1413730D01*
X1698350Y1400610D01*
X1709050Y1387210D01*
X1719420Y1373570D01*
X1729440Y1359670D01*
X1739130Y1345530D01*
X1748460Y1331150D01*
X1757440Y1316560D01*
X1766060Y1301740D01*
X1774310Y1286720D01*
X1782200Y1271500D01*
X1789700Y1256100D01*
X1796830Y1240510D01*
X1803580Y1224760D01*
X1809930Y1208840D01*
X1815900Y1192770D01*
X1821460Y1176560D01*
X1826630Y1160220D01*
X1831400Y1143760D01*
X1835760Y1127190D01*
X1839720Y1110510D01*
X1843260Y1093740D01*
X1846390Y1076890D01*
X1849110Y1059970D01*
X1851420Y1042990D01*
X1853300Y1025960D01*
X1854770Y1008880D01*
X1855820Y991770D01*
X1856450Y974650D01*
X1856660Y957510D01*
Y873340D01*
X1856640Y872170D01*
X1856580Y871000D01*
X1856490Y869830D01*
X1856350Y868660D01*
X1856180Y867500D01*
X1855970Y866350D01*
X1855720Y865200D01*
X1855440Y864070D01*
X1855120Y862940D01*
X1854760Y861820D01*
X1854360Y860720D01*
X1853930Y859630D01*
X1853470Y858550D01*
X1852960Y857490D01*
X1852430Y856450D01*
X1851860Y855430D01*
X1851260Y854420D01*
X1850620Y853430D01*
X1849950Y852470D01*
X1849260Y851530D01*
X1848530Y850610D01*
X1847770Y849720D01*
X1846980Y848850D01*
X1846170Y848000D01*
X1845320Y847190D01*
X1844450Y846400D01*
X1843560Y845640D01*
X1842640Y844910D01*
X1841700Y844220D01*
X1840740Y843550D01*
X1839750Y842910D01*
X1838750Y842310D01*
X1837720Y841740D01*
X1836680Y841210D01*
X1835620Y840700D01*
X1834540Y840240D01*
X1833450Y839810D01*
X1832350Y839410D01*
X1831230Y839050D01*
X1830100Y838730D01*
X1828970Y838450D01*
X1827820Y838200D01*
X1826670Y837990D01*
X1825510Y837820D01*
X1824340Y837680D01*
X1823170Y837590D01*
X1822000Y837530D01*
X1820830Y837510D01*
X1800020D01*
X1798990Y837480D01*
X1797960Y837420D01*
X1796940Y837330D01*
X1795920Y837190D01*
X1794900Y837020D01*
X1793900Y836810D01*
X1792900Y836560D01*
X1791910Y836280D01*
X1790930Y835960D01*
X1789970Y835600D01*
X1789010Y835200D01*
X1788080Y834770D01*
X1787160Y834310D01*
X1786260Y833810D01*
X1785380Y833280D01*
X1784520Y832720D01*
X1783680Y832120D01*
X1782860Y831500D01*
X1782070Y830840D01*
X1781300Y830150D01*
X1780560Y829440D01*
X1779850Y828700D01*
X1779160Y827930D01*
X1778500Y827140D01*
X1777880Y826320D01*
X1777280Y825480D01*
X1776720Y824620D01*
X1776190Y823740D01*
X1775690Y822840D01*
X1775230Y821920D01*
X1774800Y820990D01*
X1774400Y820030D01*
X1774040Y819070D01*
X1773720Y818090D01*
X1773440Y817100D01*
X1773190Y816100D01*
X1772980Y815100D01*
X1772810Y814080D01*
X1772670Y813060D01*
X1772580Y812040D01*
X1772520Y811010D01*
X1772490Y809980D01*
Y730960D01*
X391660Y545850D02*
Y457150D01*
X391690Y454980D01*
X391760Y452820D01*
X391900Y450660D01*
X392080Y448500D01*
X392310Y446350D01*
X392600Y444200D01*
X392940Y442060D01*
X393330Y439930D01*
X393770Y437810D01*
X394260Y435700D01*
X394810Y433600D01*
X395400Y431520D01*
X396050Y429450D01*
X396740Y427400D01*
X397490Y425360D01*
X398280Y423350D01*
X399120Y421350D01*
X400010Y419380D01*
X400940Y417420D01*
X401930Y415490D01*
X402960Y413590D01*
X404030Y411710D01*
X405150Y409850D01*
X406320Y408030D01*
X407530Y406230D01*
X408780Y404460D01*
X410070Y402720D01*
X411410Y401020D01*
X412790Y399350D01*
X414200Y397710D01*
X415660Y396100D01*
X417150Y394540D01*
X418690Y393000D01*
X420250Y391510D01*
X421860Y390050D01*
X423500Y388640D01*
X425170Y387260D01*
X426870Y385920D01*
X428610Y384630D01*
X430380Y383380D01*
X432180Y382170D01*
X434000Y381000D01*
X435860Y379880D01*
X437740Y378810D01*
X439640Y377780D01*
X441570Y376790D01*
X443530Y375860D01*
X445500Y374970D01*
X447500Y374130D01*
X449510Y373340D01*
X451550Y372590D01*
X453600Y371900D01*
X455670Y371250D01*
X457750Y370660D01*
X459850Y370110D01*
X461960Y369620D01*
X464080Y369180D01*
X466210Y368790D01*
X468350Y368450D01*
X470500Y368160D01*
X472650Y367930D01*
X474810Y367750D01*
X476970Y367610D01*
X479130Y367540D01*
X481300Y367510D01*
X581660D01*
X583060Y367490D01*
X584460Y367430D01*
X585860Y367330D01*
X587260Y367200D01*
X588650Y367020D01*
X590040Y366800D01*
X591410Y366550D01*
X592790Y366260D01*
X594150Y365930D01*
X595500Y365560D01*
X596840Y365150D01*
X598170Y364700D01*
X599490Y364220D01*
X600790Y363700D01*
X602080Y363150D01*
X603350Y362560D01*
X604610Y361930D01*
X605850Y361270D01*
X607060Y360580D01*
X608260Y359850D01*
X609440Y359080D01*
X610590Y358290D01*
X611730Y357460D01*
X612830Y356600D01*
X613920Y355710D01*
X614980Y354790D01*
X616010Y353840D01*
X617020Y352870D01*
X617990Y351860D01*
X618940Y350830D01*
X619860Y349770D01*
X620750Y348680D01*
X621610Y347580D01*
X622440Y346440D01*
X623230Y345290D01*
X624000Y344110D01*
X624730Y342910D01*
X625420Y341700D01*
X626080Y340460D01*
X626710Y339200D01*
X627300Y337930D01*
X627850Y336640D01*
X628370Y335340D01*
X628850Y334020D01*
X629300Y332690D01*
X629710Y331350D01*
X630080Y330000D01*
X630410Y328640D01*
X630700Y327260D01*
X630950Y325890D01*
X631170Y324500D01*
X631350Y323110D01*
X631480Y321710D01*
X631580Y320310D01*
X631640Y318910D01*
X631660Y317510D01*
Y148050D01*
X631680Y146590D01*
X631740Y145140D01*
X631830Y143680D01*
X631960Y142230D01*
X632140Y140790D01*
X632350Y139350D01*
X632590Y137910D01*
X632880Y136480D01*
X633200Y135060D01*
X633560Y133650D01*
X633950Y132250D01*
X634380Y130860D01*
X634850Y129480D01*
X635360Y128110D01*
X635900Y126760D01*
X636470Y125420D01*
X637080Y124100D01*
X637720Y122790D01*
X638400Y121500D01*
X639110Y120230D01*
X639860Y118980D01*
X640640Y117750D01*
X641450Y116540D01*
X642290Y115350D01*
X643160Y114180D01*
X644060Y113030D01*
X644990Y111910D01*
X645950Y110820D01*
X646940Y109750D01*
X647960Y108710D01*
X658220Y98450D01*
X659580Y97120D01*
X660970Y95820D01*
X662400Y94550D01*
X663850Y93320D01*
X665340Y92130D01*
X666850Y90970D01*
X668390Y89840D01*
X669950Y88760D01*
X671540Y87710D01*
X673160Y86700D01*
X674790Y85720D01*
X676460Y84790D01*
X678140Y83900D01*
X679840Y83050D01*
X681570Y82230D01*
X683310Y81460D01*
X685070Y80730D01*
X686850Y80050D01*
X688640Y79400D01*
X690450Y78800D01*
X692270Y78240D01*
X694100Y77730D01*
X695950Y77260D01*
X697800Y76830D01*
X699670Y76450D01*
X701550Y76110D01*
X703430Y75810D01*
X705320Y75570D01*
X707210Y75360D01*
X709110Y75200D01*
X711010Y75090D01*
X712920Y75020D01*
X714820Y75010D01*
X991230D01*
X992390Y75030D01*
X993550Y75090D01*
X994700Y75180D01*
X995850Y75310D01*
X997000Y75480D01*
X998140Y75690D01*
X999280Y75940D01*
X1000400Y76220D01*
X1001510Y76540D01*
X1002620Y76890D01*
X1003710Y77280D01*
X1004790Y77710D01*
X1005850Y78170D01*
X1006900Y78660D01*
X1007930Y79190D01*
X1008950Y79760D01*
X1009940Y80350D01*
X1010910Y80980D01*
X1011870Y81640D01*
X1012800Y82330D01*
X1013710Y83050D01*
X1014590Y83800D01*
X1015450Y84580D01*
X1016280Y85390D01*
X1017090Y86220D01*
X1017870Y87080D01*
X1018620Y87960D01*
X1019340Y88870D01*
X1020030Y89800D01*
X1020690Y90760D01*
X1021320Y91730D01*
X1021910Y92730D01*
X1022480Y93740D01*
X1023010Y94770D01*
X1023500Y95820D01*
X1023960Y96880D01*
X1024390Y97960D01*
X1024780Y99050D01*
X1025130Y100160D01*
X1025450Y101270D01*
X1025730Y102390D01*
X1025980Y103530D01*
X1026190Y104670D01*
X1026360Y105820D01*
X1026490Y106970D01*
X1026580Y108120D01*
X1026640Y109280D01*
X1026660Y110440D01*
X1026680Y111250D01*
X1026740Y112060D01*
X1026830Y112870D01*
X1026970Y113670D01*
X1027140Y114460D01*
X1027350Y115250D01*
X1027600Y116020D01*
X1027880Y116780D01*
X1028200Y117530D01*
X1028560Y118260D01*
X1028950Y118980D01*
X1029370Y119670D01*
X1029830Y120340D01*
X1030310Y120990D01*
X1030830Y121620D01*
X1031380Y122220D01*
X1031950Y122790D01*
X1032550Y123340D01*
X1033180Y123860D01*
X1033830Y124340D01*
X1034500Y124800D01*
X1035200Y125220D01*
X1035910Y125610D01*
X1036640Y125970D01*
X1037390Y126290D01*
X1038150Y126570D01*
X1038920Y126820D01*
X1039710Y127030D01*
X1040500Y127200D01*
X1041300Y127340D01*
X1042110Y127430D01*
X1042920Y127490D01*
X1043730Y127510D01*
X1226910D01*
X1227970Y127520D01*
X1229030Y127580D01*
X1230090Y127670D01*
X1231140Y127800D01*
X1232190Y127970D01*
X1233230Y128180D01*
X1234270Y128420D01*
X1235290Y128710D01*
X1236310Y129020D01*
X1237310Y129380D01*
X1238290Y129760D01*
X1239270Y130190D01*
X1240230Y130650D01*
X1241170Y131140D01*
X1242090Y131660D01*
X1242990Y132220D01*
X1243880Y132810D01*
X1244740Y133430D01*
X1245580Y134090D01*
X1246390Y134770D01*
X1247180Y135480D01*
X1247950Y136210D01*
X1248680Y136980D01*
X1249390Y137770D01*
X1250070Y138580D01*
X1250730Y139420D01*
X1251350Y140280D01*
X1251940Y141170D01*
X1252500Y142070D01*
X1253020Y142990D01*
X1253510Y143930D01*
X1253970Y144890D01*
X1254400Y145870D01*
X1254780Y146850D01*
X1255140Y147850D01*
X1255450Y148870D01*
X1255740Y149890D01*
X1255980Y150930D01*
X1256190Y151970D01*
X1256360Y153020D01*
X1256490Y154070D01*
X1256580Y155130D01*
X1256640Y156190D01*
X1256660Y157250D01*
Y310440D01*
X1256680Y311250D01*
X1256740Y312060D01*
X1256830Y312870D01*
X1256970Y313670D01*
X1257140Y314460D01*
X1257350Y315250D01*
X1257600Y316020D01*
X1257880Y316780D01*
X1258200Y317530D01*
X1258560Y318260D01*
X1258950Y318980D01*
X1259370Y319670D01*
X1259830Y320340D01*
X1260310Y320990D01*
X1260830Y321620D01*
X1261380Y322220D01*
X1261950Y322790D01*
X1262550Y323340D01*
X1263180Y323860D01*
X1263830Y324340D01*
X1264500Y324800D01*
X1265200Y325220D01*
X1265910Y325610D01*
X1266640Y325970D01*
X1267390Y326290D01*
X1268150Y326570D01*
X1268920Y326820D01*
X1269710Y327030D01*
X1270500Y327200D01*
X1271300Y327340D01*
X1272110Y327430D01*
X1272920Y327490D01*
X1273730Y327510D01*
X1286660D01*
Y327030D01*
X971190Y97510D02*
X878490D01*
X877980Y97490D01*
X877470Y97430D01*
X876970Y97340D01*
X876480Y97210D01*
X875990Y97040D01*
X875530Y96830D01*
X875080Y96590D01*
X874640Y96320D01*
X874230Y96020D01*
X873840Y95690D01*
X873480Y95330D01*
X873150Y94940D01*
X872850Y94530D01*
X872580Y94100D01*
X872340Y93640D01*
X872130Y93180D01*
X871960Y92690D01*
X871830Y92200D01*
X871740Y91700D01*
X871680Y91190D01*
X871660Y90680D01*
X871640Y90210D01*
X871580Y89750D01*
X871490Y89290D01*
X871350Y88840D01*
X871180Y88400D01*
X870980Y87980D01*
X870740Y87580D01*
X870460Y87200D01*
X870160Y86840D01*
X869830Y86510D01*
X869470Y86210D01*
X869090Y85930D01*
X868690Y85690D01*
X868270Y85490D01*
X867830Y85320D01*
X867380Y85180D01*
X866920Y85090D01*
X866460Y85030D01*
X865990Y85010D01*
X716040D01*
X714350Y85030D01*
X712660Y85090D01*
X710980Y85190D01*
X709300Y85330D01*
X707620Y85510D01*
X705940Y85730D01*
X704280Y85990D01*
X702610Y86290D01*
X700960Y86630D01*
X699320Y87010D01*
X697680Y87430D01*
X696050Y87880D01*
X694440Y88380D01*
X692840Y88910D01*
X691250Y89480D01*
X689670Y90090D01*
X688110Y90740D01*
X686570Y91420D01*
X685040Y92140D01*
X683530Y92900D01*
X682040Y93690D01*
X680570Y94510D01*
X679120Y95380D01*
X677690Y96270D01*
X676280Y97200D01*
X674890Y98160D01*
X673530Y99160D01*
X672190Y100190D01*
X670870Y101250D01*
X669580Y102340D01*
X668320Y103460D01*
X667090Y104610D01*
X665880Y105780D01*
X657960Y113710D01*
X656940Y114750D01*
X655950Y115820D01*
X654990Y116910D01*
X654060Y118030D01*
X653160Y119180D01*
X652290Y120350D01*
X651450Y121540D01*
X650640Y122750D01*
X649860Y123980D01*
X649110Y125230D01*
X648400Y126500D01*
X647720Y127790D01*
X647080Y129100D01*
X646470Y130420D01*
X645900Y131760D01*
X645360Y133110D01*
X644850Y134480D01*
X644380Y135860D01*
X643950Y137250D01*
X643560Y138650D01*
X643200Y140060D01*
X642880Y141480D01*
X642590Y142910D01*
X642350Y144350D01*
X642140Y145790D01*
X641960Y147230D01*
X641830Y148680D01*
X641740Y150140D01*
X641680Y151590D01*
X641660Y153050D01*
Y326290D01*
X641640Y327700D01*
X641580Y329110D01*
X641490Y330520D01*
X641350Y331920D01*
X641170Y333320D01*
X640960Y334720D01*
X640710Y336110D01*
X640420Y337490D01*
X640090Y338860D01*
X639730Y340220D01*
X639330Y341580D01*
X638890Y342920D01*
X638410Y344250D01*
X637900Y345560D01*
X637350Y346860D01*
X636760Y348150D01*
X636140Y349410D01*
X635490Y350660D01*
X634800Y351900D01*
X634080Y353110D01*
X633320Y354300D01*
X632530Y355470D01*
X631710Y356620D01*
X630860Y357740D01*
X629980Y358850D01*
X629070Y359920D01*
X628130Y360970D01*
X627160Y362000D01*
X626160Y363000D01*
X625130Y363970D01*
X624080Y364910D01*
X623010Y365820D01*
X621900Y366700D01*
X620780Y367550D01*
X619630Y368370D01*
X618460Y369160D01*
X617270Y369920D01*
X616060Y370640D01*
X614820Y371330D01*
X613570Y371980D01*
X612310Y372600D01*
X611020Y373190D01*
X609720Y373740D01*
X608410Y374250D01*
X607080Y374730D01*
X605740Y375170D01*
X604380Y375570D01*
X603020Y375930D01*
X601650Y376260D01*
X600270Y376550D01*
X598880Y376800D01*
X597480Y377010D01*
X596080Y377190D01*
X594680Y377330D01*
X593270Y377420D01*
X591860Y377480D01*
X590450Y377510D01*
X499060D01*
X497070Y377530D01*
X495080Y377610D01*
X493090Y377730D01*
X491110Y377890D01*
X489130Y378110D01*
X487150Y378370D01*
X485190Y378690D01*
X483230Y379050D01*
X481280Y379450D01*
X479340Y379900D01*
X477410Y380400D01*
X475500Y380950D01*
X473600Y381540D01*
X471710Y382180D01*
X469840Y382860D01*
X467990Y383590D01*
X466150Y384370D01*
X464340Y385180D01*
X462540Y386040D01*
X460770Y386950D01*
X459010Y387900D01*
X457290Y388880D01*
X455580Y389910D01*
X453900Y390980D01*
X452250Y392100D01*
X450630Y393250D01*
X449030Y394440D01*
X447460Y395660D01*
X445930Y396930D01*
X444420Y398230D01*
X442940Y399570D01*
X441500Y400940D01*
X440090Y402350D01*
X438720Y403790D01*
X437380Y405270D01*
X436080Y406780D01*
X434810Y408310D01*
X433590Y409880D01*
X432400Y411480D01*
X431250Y413100D01*
X430130Y414750D01*
X429060Y416430D01*
X428030Y418140D01*
X427050Y419860D01*
X426100Y421620D01*
X425190Y423390D01*
X424330Y425190D01*
X423520Y427000D01*
X422740Y428840D01*
X422010Y430690D01*
X421330Y432560D01*
X420690Y434450D01*
X420100Y436350D01*
X419550Y438260D01*
X419050Y440190D01*
X418600Y442130D01*
X418200Y444080D01*
X417840Y446040D01*
X417520Y448000D01*
X417260Y449980D01*
X417040Y451960D01*
X416880Y453940D01*
X416760Y455930D01*
X416680Y457920D01*
X416660Y459910D01*
Y882510D01*
X416680Y882950D01*
X416740Y883380D01*
X416830Y883800D01*
X416960Y884220D01*
X417130Y884620D01*
X417330Y885010D01*
X417560Y885380D01*
X417830Y885720D01*
X418120Y886050D01*
X418450Y886340D01*
X418790Y886610D01*
X419160Y886840D01*
X419550Y887040D01*
X419950Y887210D01*
X420370Y887340D01*
X420790Y887430D01*
X421220Y887490D01*
X421660Y887510D01*
X422100Y887530D01*
X422530Y887590D01*
X422950Y887680D01*
X423370Y887810D01*
X423770Y887980D01*
X424160Y888180D01*
X424530Y888410D01*
X424870Y888680D01*
X425200Y888970D01*
X425490Y889300D01*
X425760Y889640D01*
X425990Y890010D01*
X426190Y890400D01*
X426360Y890800D01*
X426490Y891220D01*
X426580Y891640D01*
X426640Y892070D01*
X426660Y892510D01*
Y957510D01*
X426760Y973610D01*
X427240Y989710D01*
X428120Y1005790D01*
X429380Y1021840D01*
X431040Y1037860D01*
X433090Y1053830D01*
X435520Y1069750D01*
X438340Y1085600D01*
X441550Y1101380D01*
X445140Y1117080D01*
X449110Y1132680D01*
X453460Y1148190D01*
X458190Y1163580D01*
X463280Y1178860D01*
X468750Y1194000D01*
X474590Y1209010D01*
X480790Y1223870D01*
X487350Y1238580D01*
X494260Y1253120D01*
X501530Y1267490D01*
X509150Y1281680D01*
X517110Y1295680D01*
X525400Y1309480D01*
X534030Y1323070D01*
X542990Y1336450D01*
X552270Y1349610D01*
X561870Y1362540D01*
X571780Y1375230D01*
X582000Y1387680D01*
X592520Y1399870D01*
X603330Y1411810D01*
X614420Y1423480D01*
X625800Y1434870D01*
X637450Y1445980D01*
X649370Y1456810D01*
X661550Y1467350D01*
X673990Y1477580D01*
X686660Y1487510D01*
X690590Y1491620D01*
X694620Y1495640D01*
X698750Y1499560D01*
X702970Y1503380D01*
X707280Y1507100D01*
X711680Y1510710D01*
X716170Y1514210D01*
X720740Y1517610D01*
X725390Y1520890D01*
X730120Y1524060D01*
X734920Y1527120D01*
X739800Y1530060D01*
X744740Y1532880D01*
X749750Y1535580D01*
X754830Y1538160D01*
X759960Y1540620D01*
X765160Y1542950D01*
X770400Y1545160D01*
X775700Y1547230D01*
X781050Y1549180D01*
X786450Y1551000D01*
X791880Y1552690D01*
X797360Y1554250D01*
X802870Y1555680D01*
X808410Y1556970D01*
X813990Y1558130D01*
X819590Y1559150D01*
X825210Y1560040D01*
X830850Y1560800D01*
X836510Y1561410D01*
X842190Y1561890D01*
X847870Y1562240D01*
X853560Y1562440D01*
X859250Y1562510D01*
X1343520D01*
X1350020Y1562430D01*
X1356520Y1562200D01*
X1363010Y1561810D01*
X1369480Y1561270D01*
X1375950Y1560580D01*
X1382390Y1559730D01*
X1388810Y1558730D01*
X1395210Y1557570D01*
X1401580Y1556270D01*
X1407920Y1554810D01*
X1414210Y1553200D01*
X1420470Y1551450D01*
X1426690Y1549540D01*
X1432860Y1547490D01*
X1438970Y1545290D01*
X1445040Y1542940D01*
X1451040Y1540460D01*
X1456990Y1537830D01*
X1462870Y1535060D01*
X1468680Y1532150D01*
X1474420Y1529100D01*
X1480090Y1525920D01*
X1485680Y1522600D01*
X1491190Y1519150D01*
X1496620Y1515570D01*
X1501960Y1511860D01*
X1507210Y1508030D01*
X1512360Y1504070D01*
X1517430Y1499990D01*
X1522390Y1495800D01*
X1527250Y1491480D01*
X1532010Y1487050D01*
X1536660Y1482510D01*
X1549160Y1472120D01*
X1561400Y1461440D01*
X1573380Y1450470D01*
X1585090Y1439210D01*
X1596530Y1427680D01*
X1607690Y1415870D01*
X1618560Y1403800D01*
X1629140Y1391460D01*
X1639420Y1378880D01*
X1649390Y1366060D01*
X1659060Y1353000D01*
X1668400Y1339710D01*
X1677420Y1326200D01*
X1686120Y1312470D01*
X1694480Y1298540D01*
X1702500Y1284420D01*
X1710190Y1270100D01*
X1717520Y1255600D01*
X1724510Y1240940D01*
X1731140Y1226100D01*
X1737410Y1211120D01*
X1743320Y1195980D01*
X1748860Y1180710D01*
X1754030Y1165310D01*
X1758840Y1149790D01*
X1763260Y1134160D01*
X1767310Y1118430D01*
X1770980Y1102600D01*
X1774270Y1086690D01*
X1777180Y1070700D01*
X1779700Y1054660D01*
X1781830Y1038550D01*
X1783580Y1022400D01*
X1784930Y1006210D01*
X1785900Y989990D01*
X1786470Y973750D01*
X1786660Y957510D01*
Y913510D01*
X1786640Y912220D01*
X1786580Y910930D01*
X1786490Y909650D01*
X1786350Y908370D01*
X1786180Y907090D01*
X1785970Y905820D01*
X1785730Y904550D01*
X1785440Y903290D01*
X1785120Y902040D01*
X1784760Y900810D01*
X1784370Y899580D01*
X1783940Y898360D01*
X1783470Y897160D01*
X1782970Y895970D01*
X1782430Y894800D01*
X1781860Y893650D01*
X1781250Y892510D01*
X1780620Y891390D01*
X1779940Y890290D01*
X1779240Y889210D01*
X1778500Y888150D01*
X1777740Y887110D01*
X1776940Y886100D01*
X1776110Y885110D01*
X1775260Y884150D01*
X1774370Y883210D01*
X1773460Y882300D01*
X1772520Y881410D01*
X1771560Y880560D01*
X1770570Y879730D01*
X1769560Y878930D01*
X1768520Y878170D01*
X1767460Y877430D01*
X1766380Y876730D01*
X1765280Y876050D01*
X1764160Y875420D01*
X1763020Y874810D01*
X1761870Y874240D01*
X1760700Y873700D01*
X1759510Y873200D01*
X1758310Y872730D01*
X1757090Y872300D01*
X1755860Y871910D01*
X1754630Y871550D01*
X1753380Y871230D01*
X1752120Y870940D01*
X1750850Y870700D01*
X1749580Y870490D01*
X1748300Y870320D01*
X1747020Y870180D01*
X1745740Y870090D01*
X1744450Y870030D01*
X1743160Y870010D01*
X1704580D01*
X1703750Y869990D01*
X1702930Y869930D01*
X1702100Y869840D01*
X1701290Y869700D01*
X1700480Y869530D01*
X1699680Y869330D01*
X1698890Y869080D01*
X1698110Y868800D01*
X1697340Y868480D01*
X1696590Y868130D01*
X1695860Y867750D01*
X1695150Y867330D01*
X1694450Y866870D01*
X1693780Y866390D01*
X1693130Y865880D01*
X1692510Y865330D01*
X1691910Y864760D01*
X1691340Y864160D01*
X1690790Y863540D01*
X1690280Y862890D01*
X1689800Y862220D01*
X1689340Y861520D01*
X1688920Y860810D01*
X1688540Y860080D01*
X1688190Y859330D01*
X1687870Y858560D01*
X1687590Y857780D01*
X1687340Y856990D01*
X1687140Y856190D01*
X1686970Y855380D01*
X1686830Y854570D01*
X1686740Y853740D01*
X1686680Y852920D01*
X1686660Y852090D01*
Y834160D01*
X1693160Y734500D02*
Y746530D01*
X1693140Y747170D01*
X1693090Y747800D01*
X1692990Y748440D01*
X1692860Y749060D01*
X1692700Y749680D01*
X1692500Y750290D01*
X1692260Y750880D01*
X1691990Y751460D01*
X1691690Y752020D01*
X1691350Y752560D01*
X1690990Y753090D01*
X1690590Y753590D01*
X1690170Y754060D01*
X1689710Y754520D01*
X1689240Y754940D01*
X1688740Y755340D01*
X1688210Y755700D01*
X1687670Y756040D01*
X1687110Y756340D01*
X1686530Y756610D01*
X1685940Y756850D01*
X1685330Y757050D01*
X1684710Y757210D01*
X1684090Y757340D01*
X1683450Y757440D01*
X1682820Y757490D01*
X1682180Y757510D01*
X1681420Y757530D01*
X1680660Y757580D01*
X1679900Y757680D01*
X1679150Y757810D01*
X1678410Y757980D01*
X1677670Y758180D01*
X1676950Y758420D01*
X1676240Y758690D01*
X1675540Y759000D01*
X1674860Y759340D01*
X1674200Y759720D01*
X1673560Y760130D01*
X1672930Y760560D01*
X1672330Y761030D01*
X1671760Y761530D01*
X1671210Y762060D01*
X1670680Y762610D01*
X1670180Y763180D01*
X1669710Y763780D01*
X1669280Y764410D01*
X1668870Y765050D01*
X1668490Y765710D01*
X1668150Y766390D01*
X1667840Y767090D01*
X1667570Y767800D01*
X1667330Y768520D01*
X1667130Y769260D01*
X1666960Y770000D01*
X1666830Y770750D01*
X1666730Y771510D01*
X1666680Y772270D01*
X1666660Y773030D01*
Y853600D01*
X1666680Y854610D01*
X1666740Y855620D01*
X1666830Y856630D01*
X1666970Y857630D01*
X1667140Y858630D01*
X1667350Y859620D01*
X1667600Y860600D01*
X1667890Y861570D01*
X1668210Y862530D01*
X1668570Y863470D01*
X1668970Y864400D01*
X1669400Y865320D01*
X1669870Y866220D01*
X1670370Y867100D01*
X1670900Y867960D01*
X1671470Y868790D01*
X1672070Y869610D01*
X1672690Y870400D01*
X1673350Y871170D01*
X1674040Y871910D01*
X1674760Y872630D01*
X1675500Y873320D01*
X1676270Y873980D01*
X1677060Y874600D01*
X1677880Y875200D01*
X1678710Y875770D01*
X1679570Y876300D01*
X1680450Y876800D01*
X1681350Y877270D01*
X1682270Y877700D01*
X1683200Y878100D01*
X1684140Y878460D01*
X1685100Y878780D01*
X1686070Y879070D01*
X1687050Y879320D01*
X1688040Y879530D01*
X1689040Y879700D01*
X1690040Y879840D01*
X1691050Y879930D01*
X1692060Y879990D01*
X1693070Y880010D01*
X1741670D01*
X1742840Y880030D01*
X1744010Y880090D01*
X1745170Y880190D01*
X1746330Y880320D01*
X1747490Y880500D01*
X1748640Y880710D01*
X1749780Y880960D01*
X1750910Y881250D01*
X1752040Y881580D01*
X1753150Y881950D01*
X1754250Y882350D01*
X1755330Y882790D01*
X1756400Y883260D01*
X1757450Y883770D01*
X1758490Y884320D01*
X1759500Y884890D01*
X1760500Y885510D01*
X1761470Y886150D01*
X1762430Y886830D01*
X1763360Y887540D01*
X1764260Y888280D01*
X1765140Y889050D01*
X1765990Y889850D01*
X1766820Y890680D01*
X1767620Y891530D01*
X1768390Y892410D01*
X1769130Y893310D01*
X1769840Y894240D01*
X1770520Y895200D01*
X1771160Y896170D01*
X1771780Y897170D01*
X1772350Y898180D01*
X1772900Y899220D01*
X1773410Y900270D01*
X1773880Y901340D01*
X1774320Y902420D01*
X1774720Y903520D01*
X1775090Y904630D01*
X1775420Y905760D01*
X1775710Y906890D01*
X1775960Y908030D01*
X1776170Y909180D01*
X1776350Y910340D01*
X1776480Y911500D01*
X1776580Y912660D01*
X1776640Y913830D01*
X1776660Y915000D01*
Y957510D01*
X1776430Y973700D01*
X1775790Y989900D01*
X1774770Y1006070D01*
X1773340Y1022210D01*
X1771520Y1038310D01*
X1769310Y1054360D01*
X1766700Y1070350D01*
X1763710Y1086270D01*
X1760320Y1102120D01*
X1756540Y1117870D01*
X1752380Y1133530D01*
X1747840Y1149090D01*
X1742910Y1164520D01*
X1737610Y1179840D01*
X1731940Y1195010D01*
X1725890Y1210040D01*
X1719480Y1224920D01*
X1712710Y1239640D01*
X1705570Y1254190D01*
X1698080Y1268560D01*
X1690250Y1282740D01*
X1682060Y1296720D01*
X1673540Y1310500D01*
X1664680Y1324070D01*
X1655490Y1337410D01*
X1645970Y1350530D01*
X1636140Y1363410D01*
X1625990Y1376040D01*
X1615540Y1388420D01*
X1604780Y1400540D01*
X1593740Y1412390D01*
X1582400Y1423970D01*
X1570780Y1435270D01*
X1558900Y1446270D01*
X1546740Y1456990D01*
X1534330Y1467400D01*
X1521660Y1477500D01*
X1517160Y1481900D01*
X1512560Y1486180D01*
X1507850Y1490340D01*
X1503040Y1494380D01*
X1498130Y1498310D01*
X1493130Y1502120D01*
X1488040Y1505800D01*
X1482850Y1509350D01*
X1477590Y1512780D01*
X1472240Y1516080D01*
X1466810Y1519240D01*
X1461300Y1522270D01*
X1455720Y1525170D01*
X1450070Y1527920D01*
X1444360Y1530540D01*
X1438580Y1533020D01*
X1432750Y1535350D01*
X1426860Y1537540D01*
X1420910Y1539590D01*
X1414920Y1541480D01*
X1408890Y1543230D01*
X1402810Y1544840D01*
X1396700Y1546290D01*
X1390550Y1547590D01*
X1384370Y1548740D01*
X1378160Y1549740D01*
X1371940Y1550580D01*
X1365690Y1551280D01*
X1359430Y1551820D01*
X1353150Y1552200D01*
X1346870Y1552430D01*
X1340590Y1552510D01*
X870660D01*
X864960Y1552430D01*
X859280Y1552230D01*
X853600Y1551890D01*
X847930Y1551420D01*
X842280Y1550810D01*
X836640Y1550070D01*
X831020Y1549190D01*
X825420Y1548180D01*
X819850Y1547040D01*
X814310Y1545760D01*
X808790Y1544360D01*
X803320Y1542820D01*
X797880Y1541150D01*
X792480Y1539360D01*
X787130Y1537430D01*
X781830Y1535380D01*
X776570Y1533200D01*
X771370Y1530900D01*
X766220Y1528480D01*
X761140Y1525930D01*
X756110Y1523270D01*
X751160Y1520480D01*
X746260Y1517580D01*
X741440Y1514560D01*
X736690Y1511430D01*
X732020Y1508190D01*
X727430Y1504830D01*
X722920Y1501370D01*
X718490Y1497800D01*
X714140Y1494130D01*
X709890Y1490350D01*
X705730Y1486480D01*
X701660Y1482500D01*
X689150Y1473110D01*
X676870Y1463410D01*
X664820Y1453410D01*
X653020Y1443130D01*
X641470Y1432570D01*
X630180Y1421730D01*
X619150Y1410620D01*
X608400Y1399250D01*
X597920Y1387620D01*
X587730Y1375740D01*
X577830Y1363620D01*
X568220Y1351260D01*
X558920Y1338670D01*
X549920Y1325870D01*
X541240Y1312850D01*
X532870Y1299620D01*
X524820Y1286200D01*
X517100Y1272580D01*
X509710Y1258780D01*
X502660Y1244810D01*
X495950Y1230670D01*
X489580Y1216370D01*
X483550Y1201930D01*
X477880Y1187340D01*
X472570Y1172620D01*
X467610Y1157770D01*
X463010Y1142810D01*
X458770Y1127740D01*
X454900Y1112580D01*
X451390Y1097320D01*
X448260Y1081990D01*
X445500Y1066580D01*
X443110Y1051120D01*
X441090Y1035590D01*
X439450Y1020030D01*
X438190Y1004430D01*
X437300Y988800D01*
X436790Y973160D01*
X436660Y957510D01*
Y589160D01*
Y545850D02*
Y462510D01*
X436680Y460700D01*
X436750Y458890D01*
X436860Y457080D01*
X437010Y455270D01*
X437210Y453470D01*
X437450Y451670D01*
X437730Y449880D01*
X438060Y448100D01*
X438430Y446330D01*
X438840Y444560D01*
X439290Y442810D01*
X439790Y441060D01*
X440330Y439330D01*
X440910Y437620D01*
X441530Y435910D01*
X442200Y434230D01*
X442900Y432560D01*
X443640Y430900D01*
X444430Y429270D01*
X445250Y427660D01*
X446110Y426060D01*
X447010Y424490D01*
X447950Y422940D01*
X448920Y421410D01*
X449940Y419910D01*
X450980Y418430D01*
X452070Y416970D01*
X453180Y415550D01*
X454340Y414150D01*
X455520Y412780D01*
X456740Y411430D01*
X457990Y410120D01*
X459270Y408840D01*
X460580Y407590D01*
X461930Y406370D01*
X463300Y405190D01*
X464700Y404030D01*
X466120Y402920D01*
X467580Y401830D01*
X469060Y400790D01*
X470560Y399770D01*
X472090Y398800D01*
X473640Y397860D01*
X475210Y396960D01*
X476810Y396100D01*
X478420Y395280D01*
X480050Y394490D01*
X481710Y393750D01*
X483380Y393050D01*
X485060Y392380D01*
X486770Y391760D01*
X488480Y391180D01*
X490210Y390640D01*
X491960Y390140D01*
X493710Y389690D01*
X495480Y389280D01*
X497250Y388910D01*
X499030Y388580D01*
X500820Y388300D01*
X502620Y388060D01*
X504420Y387860D01*
X506230Y387710D01*
X508040Y387600D01*
X509850Y387530D01*
X511660Y387510D01*
X600450D01*
X601860Y387480D01*
X603270Y387420D01*
X604680Y387330D01*
X606080Y387190D01*
X607480Y387010D01*
X608880Y386800D01*
X610270Y386550D01*
X611650Y386260D01*
X613020Y385930D01*
X614380Y385570D01*
X615740Y385170D01*
X617080Y384730D01*
X618410Y384250D01*
X619720Y383740D01*
X621020Y383190D01*
X622310Y382600D01*
X623570Y381980D01*
X624820Y381330D01*
X626060Y380640D01*
X627270Y379920D01*
X628460Y379160D01*
X629630Y378370D01*
X630780Y377550D01*
X631900Y376700D01*
X633010Y375820D01*
X634080Y374910D01*
X635130Y373970D01*
X636160Y373000D01*
X637160Y372000D01*
X638130Y370970D01*
X639070Y369920D01*
X639980Y368850D01*
X640860Y367740D01*
X641710Y366620D01*
X642530Y365470D01*
X643320Y364300D01*
X644080Y363110D01*
X644800Y361900D01*
X645490Y360660D01*
X646140Y359410D01*
X646760Y358150D01*
X647350Y356860D01*
X647900Y355560D01*
X648410Y354250D01*
X648890Y352920D01*
X649330Y351580D01*
X649730Y350220D01*
X650090Y348860D01*
X650420Y347490D01*
X650710Y346110D01*
X650960Y344720D01*
X651170Y343320D01*
X651350Y341920D01*
X651490Y340520D01*
X651580Y339110D01*
X651640Y337700D01*
X651660Y336290D01*
Y157510D01*
X651680Y156110D01*
X651740Y154710D01*
X651830Y153310D01*
X651970Y151910D01*
X652140Y150520D01*
X652350Y149140D01*
X652600Y147760D01*
X652890Y146380D01*
X653220Y145020D01*
X653580Y143670D01*
X653980Y142320D01*
X654420Y140990D01*
X654890Y139670D01*
X655400Y138360D01*
X655950Y137070D01*
X656530Y135800D01*
X657140Y134540D01*
X657790Y133290D01*
X658480Y132070D01*
X659190Y130870D01*
X659940Y129680D01*
X660730Y128520D01*
X661540Y127380D01*
X662390Y126260D01*
X663260Y125160D01*
X664170Y124090D01*
X665110Y123050D01*
X666070Y122030D01*
X667060Y121040D01*
X668080Y120080D01*
X669120Y119140D01*
X670190Y118230D01*
X671290Y117360D01*
X672410Y116510D01*
X673550Y115700D01*
X674710Y114910D01*
X675900Y114160D01*
X677100Y113450D01*
X678320Y112760D01*
X679570Y112110D01*
X680830Y111500D01*
X682100Y110920D01*
X683390Y110370D01*
X684700Y109860D01*
X686020Y109390D01*
X687350Y108950D01*
X688700Y108550D01*
X690050Y108190D01*
X691410Y107860D01*
X692790Y107570D01*
X694170Y107320D01*
X695550Y107110D01*
X696940Y106940D01*
X698340Y106800D01*
X699740Y106710D01*
X701140Y106650D01*
X702540Y106630D01*
X481660Y545850D02*
Y457000D01*
X481680Y455470D01*
X481740Y453940D01*
X481840Y452410D01*
X481980Y450880D01*
X482150Y449360D01*
X482370Y447850D01*
X482620Y446330D01*
X482920Y444830D01*
X483250Y443340D01*
X483620Y441850D01*
X484030Y440370D01*
X484480Y438910D01*
X484960Y437460D01*
X485480Y436010D01*
X486040Y434590D01*
X486640Y433180D01*
X487270Y431780D01*
X487940Y430400D01*
X488640Y429040D01*
X489380Y427700D01*
X490150Y426370D01*
X490950Y425070D01*
X491790Y423790D01*
X492660Y422530D01*
X493570Y421290D01*
X494500Y420080D01*
X495470Y418890D01*
X496470Y417730D01*
X497490Y416590D01*
X498550Y415480D01*
X499630Y414400D01*
X500740Y413340D01*
X501880Y412320D01*
X503040Y411320D01*
X504230Y410350D01*
X505440Y409420D01*
X506680Y408510D01*
X507940Y407640D01*
X509220Y406800D01*
X510520Y406000D01*
X511850Y405230D01*
X513190Y404490D01*
X514550Y403790D01*
X515930Y403120D01*
X517330Y402490D01*
X518740Y401890D01*
X520160Y401330D01*
X521610Y400810D01*
X523060Y400330D01*
X524520Y399880D01*
X526000Y399470D01*
X527490Y399100D01*
X528980Y398770D01*
X530480Y398470D01*
X532000Y398220D01*
X533510Y398000D01*
X535030Y397830D01*
X536560Y397690D01*
X538090Y397590D01*
X539620Y397530D01*
X541150Y397510D01*
X602170D01*
X603700Y397480D01*
X605230Y397420D01*
X606760Y397320D01*
X608290Y397180D01*
X609810Y397010D01*
X611320Y396790D01*
X612840Y396540D01*
X614340Y396240D01*
X615830Y395910D01*
X617320Y395540D01*
X618800Y395130D01*
X620260Y394680D01*
X621710Y394200D01*
X623160Y393680D01*
X624580Y393120D01*
X625990Y392520D01*
X627390Y391890D01*
X628770Y391220D01*
X630130Y390520D01*
X631470Y389780D01*
X632800Y389010D01*
X634100Y388210D01*
X635380Y387370D01*
X636640Y386500D01*
X637880Y385590D01*
X639090Y384660D01*
X640280Y383690D01*
X641440Y382690D01*
X642580Y381670D01*
X643690Y380610D01*
X644770Y379530D01*
X645830Y378420D01*
X646850Y377280D01*
X647850Y376120D01*
X648820Y374930D01*
X649750Y373720D01*
X650660Y372480D01*
X651530Y371220D01*
X652370Y369940D01*
X653170Y368640D01*
X653940Y367310D01*
X654680Y365970D01*
X655380Y364610D01*
X656050Y363230D01*
X656680Y361830D01*
X657280Y360420D01*
X657840Y359000D01*
X658360Y357550D01*
X658840Y356100D01*
X659290Y354640D01*
X659700Y353160D01*
X660070Y351670D01*
X660400Y350180D01*
X660700Y348680D01*
X660950Y347160D01*
X661170Y345650D01*
X661340Y344130D01*
X661480Y342600D01*
X661580Y341070D01*
X661640Y339540D01*
X661660Y338010D01*
Y202150D01*
X661680Y200100D01*
X661760Y198060D01*
X661880Y196020D01*
X662060Y193980D01*
X662280Y191950D01*
X662550Y189920D01*
X662870Y187900D01*
X663240Y185890D01*
X663650Y183890D01*
X664120Y181890D01*
X664630Y179910D01*
X665190Y177950D01*
X665800Y175990D01*
X666460Y174060D01*
X667160Y172140D01*
X667910Y170230D01*
X668700Y168350D01*
X669540Y166480D01*
X670430Y164640D01*
X671360Y162820D01*
X672330Y161020D01*
X673340Y159240D01*
X674400Y157490D01*
X675500Y155770D01*
X676640Y154070D01*
X677820Y152400D01*
X679050Y150760D01*
X680310Y149150D01*
X681610Y147570D01*
X682950Y146020D01*
X684320Y144510D01*
X685730Y143030D01*
X687180Y141580D01*
X688660Y140170D01*
X690170Y138800D01*
X691720Y137460D01*
X693300Y136160D01*
X694910Y134900D01*
X696550Y133670D01*
X698220Y132490D01*
X699920Y131350D01*
X701640Y130250D01*
X703390Y129190D01*
X705170Y128180D01*
X706970Y127210D01*
X708790Y126280D01*
X710630Y125390D01*
X712500Y124550D01*
X714380Y123760D01*
X716290Y123010D01*
X718210Y122310D01*
X720140Y121650D01*
X722100Y121040D01*
X724060Y120480D01*
X726040Y119970D01*
X728040Y119500D01*
X730040Y119090D01*
X732050Y118720D01*
X734070Y118400D01*
X736100Y118130D01*
X738130Y117910D01*
X740170Y117730D01*
X742210Y117610D01*
X744250Y117530D01*
X746300Y117510D01*
X1005200D01*
X1005870Y117520D01*
X1006530Y117580D01*
X1007190Y117670D01*
X1007850Y117810D01*
X1008490Y117980D01*
X1009120Y118190D01*
X1009740Y118440D01*
X1010350Y118720D01*
X1010940Y119040D01*
X1011500Y119390D01*
X1012050Y119770D01*
X1012570Y120180D01*
X1013070Y120630D01*
X1013540Y121100D01*
X1013990Y121600D01*
X1014400Y122120D01*
X1014780Y122670D01*
X1015130Y123240D01*
X1015450Y123820D01*
X1015730Y124430D01*
X1015980Y125050D01*
X1016190Y125680D01*
X1016360Y126320D01*
X1016500Y126980D01*
X1016590Y127640D01*
X1016650Y128300D01*
X1016670Y128970D01*
X1016690Y129530D01*
X1016740Y130080D01*
X1016830Y130630D01*
X1016960Y131180D01*
X1017120Y131710D01*
X1017320Y132230D01*
X1017550Y132740D01*
X1017810Y133240D01*
X1018110Y133710D01*
X1018430Y134160D01*
X1018790Y134590D01*
X1019170Y135000D01*
X1019580Y135380D01*
X1020010Y135740D01*
X1020460Y136060D01*
X1020940Y136360D01*
X1021430Y136620D01*
X1021940Y136850D01*
X1022460Y137050D01*
X1022990Y137210D01*
X1023540Y137340D01*
X1024090Y137430D01*
X1024640Y137480D01*
X1025200Y137510D01*
X1223000D01*
X1223900Y137530D01*
X1224790Y137590D01*
X1225690Y137680D01*
X1226580Y137810D01*
X1227460Y137980D01*
X1228330Y138190D01*
X1229200Y138440D01*
X1230050Y138720D01*
X1230890Y139040D01*
X1231720Y139390D01*
X1232530Y139780D01*
X1233320Y140200D01*
X1234090Y140650D01*
X1234850Y141140D01*
X1235580Y141660D01*
X1236290Y142210D01*
X1236980Y142790D01*
X1237640Y143390D01*
X1238280Y144030D01*
X1238880Y144690D01*
X1239460Y145380D01*
X1240010Y146090D01*
X1240530Y146820D01*
X1241020Y147580D01*
X1241470Y148350D01*
X1241890Y149140D01*
X1242280Y149950D01*
X1242630Y150780D01*
X1242950Y151620D01*
X1243230Y152470D01*
X1243480Y153340D01*
X1243690Y154210D01*
X1243860Y155090D01*
X1243990Y155980D01*
X1244080Y156880D01*
X1244140Y157770D01*
X1244160Y158670D01*
Y417510D01*
X1217270D01*
X1215940Y417520D01*
X1214610Y417580D01*
X1213280Y417680D01*
X1211960Y417810D01*
X1210640Y417990D01*
X1209330Y418210D01*
X1208020Y418460D01*
X1206720Y418750D01*
X1205430Y419080D01*
X1204160Y419450D01*
X1202890Y419860D01*
X1201630Y420300D01*
X1200390Y420780D01*
X1199170Y421300D01*
X1197960Y421850D01*
X1196760Y422440D01*
X1195590Y423070D01*
X1194430Y423730D01*
X1193300Y424420D01*
X1192180Y425140D01*
X1191090Y425900D01*
X1190020Y426690D01*
X1188970Y427510D01*
X1187950Y428370D01*
X1186950Y429250D01*
X1185980Y430160D01*
X1185040Y431100D01*
X1184120Y432060D01*
X1183240Y433060D01*
X1182380Y434080D01*
X1181560Y435120D01*
X1180760Y436190D01*
X1180000Y437280D01*
X1179270Y438390D01*
X1178580Y439530D01*
X1152830Y482910D01*
X1152440Y483610D01*
X1152080Y484330D01*
X1151760Y485060D01*
X1151470Y485810D01*
X1151220Y486570D01*
X1151000Y487340D01*
X1150830Y488120D01*
X1150690Y488910D01*
X1150590Y489710D01*
X1150520Y490510D01*
X1150500Y491310D01*
X1150520Y492110D01*
X1150570Y492910D01*
X1150660Y493710D01*
X1150790Y494500D01*
X1150960Y495290D01*
X1151170Y496060D01*
X1151410Y496820D01*
X1151690Y497580D01*
X1152000Y498310D01*
X1152360Y499030D01*
X1152740Y499740D01*
X1153160Y500420D01*
X1153610Y501080D01*
X1154090Y501720D01*
X1154610Y502340D01*
X1155150Y502930D01*
X1155720Y503500D01*
X1156310Y504030D01*
X1156940Y504540D01*
X1157580Y505020D01*
X1158250Y505460D01*
X1158940Y505870D01*
X1172080Y513320D01*
X1171660D01*
Y517510D01*
X933200Y453860D02*
Y452510D01*
X918730D01*
X917920Y452490D01*
X917110Y452430D01*
X916300Y452340D01*
X915500Y452200D01*
X914710Y452030D01*
X913920Y451820D01*
X913150Y451570D01*
X912390Y451290D01*
X911640Y450970D01*
X910910Y450610D01*
X910200Y450220D01*
X909500Y449800D01*
X908830Y449340D01*
X908180Y448860D01*
X907550Y448340D01*
X906950Y447790D01*
X906380Y447220D01*
X905830Y446620D01*
X905310Y445990D01*
X904830Y445340D01*
X904370Y444670D01*
X903950Y443980D01*
X903560Y443260D01*
X903200Y442530D01*
X902880Y441780D01*
X902600Y441020D01*
X902350Y440250D01*
X902140Y439460D01*
X901970Y438670D01*
X901830Y437870D01*
X901740Y437060D01*
X901680Y436250D01*
X901660Y435440D01*
Y152510D01*
X901640Y151530D01*
X901580Y150550D01*
X901490Y149570D01*
X901350Y148600D01*
X901180Y147630D01*
X900970Y146670D01*
X900720Y145720D01*
X900440Y144780D01*
X900110Y143860D01*
X899760Y142940D01*
X899360Y142040D01*
X898940Y141160D01*
X898470Y140290D01*
X897980Y139450D01*
X897450Y138620D01*
X896890Y137820D01*
X896290Y137030D01*
X895670Y136270D01*
X895020Y135540D01*
X894340Y134830D01*
X893630Y134150D01*
X892900Y133500D01*
X892140Y132880D01*
X891350Y132280D01*
X890550Y131720D01*
X889720Y131190D01*
X888880Y130700D01*
X888010Y130230D01*
X887130Y129810D01*
X886230Y129410D01*
X885310Y129060D01*
X884390Y128730D01*
X883450Y128450D01*
X882500Y128200D01*
X881540Y127990D01*
X880570Y127820D01*
X879600Y127680D01*
X878620Y127590D01*
X877640Y127530D01*
X876660Y127510D01*
X746660D01*
X744850Y127530D01*
X743040Y127600D01*
X741230Y127710D01*
X739420Y127860D01*
X737620Y128060D01*
X735820Y128300D01*
X734030Y128580D01*
X732250Y128910D01*
X730480Y129280D01*
X728710Y129690D01*
X726960Y130140D01*
X725210Y130640D01*
X723480Y131180D01*
X721770Y131760D01*
X720060Y132380D01*
X718380Y133050D01*
X716710Y133750D01*
X715050Y134490D01*
X713420Y135280D01*
X711810Y136100D01*
X710210Y136960D01*
X708640Y137860D01*
X707090Y138800D01*
X705560Y139770D01*
X704060Y140790D01*
X702580Y141830D01*
X701120Y142920D01*
X699700Y144030D01*
X698300Y145190D01*
X696930Y146370D01*
X695580Y147590D01*
X694270Y148840D01*
X692990Y150120D01*
X691740Y151430D01*
X690520Y152780D01*
X689340Y154150D01*
X688180Y155550D01*
X687070Y156970D01*
X685980Y158430D01*
X684940Y159910D01*
X683920Y161410D01*
X682950Y162940D01*
X682010Y164490D01*
X681110Y166060D01*
X680250Y167660D01*
X679430Y169270D01*
X678640Y170900D01*
X677900Y172560D01*
X677200Y174230D01*
X676530Y175910D01*
X675910Y177620D01*
X675330Y179330D01*
X674790Y181060D01*
X674290Y182810D01*
X673840Y184560D01*
X673430Y186330D01*
X673060Y188100D01*
X672730Y189880D01*
X672450Y191670D01*
X672210Y193470D01*
X672010Y195270D01*
X671860Y197080D01*
X671750Y198890D01*
X671680Y200700D01*
X671660Y202510D01*
Y348010D01*
X671640Y349540D01*
X671580Y351070D01*
X671480Y352600D01*
X671340Y354130D01*
X671170Y355650D01*
X670950Y357160D01*
X670700Y358680D01*
X670400Y360180D01*
X670070Y361670D01*
X669700Y363160D01*
X669290Y364640D01*
X668840Y366100D01*
X668360Y367550D01*
X667840Y369000D01*
X667280Y370420D01*
X666680Y371830D01*
X666050Y373230D01*
X665380Y374610D01*
X664680Y375970D01*
X663940Y377310D01*
X663170Y378640D01*
X662370Y379940D01*
X661530Y381220D01*
X660660Y382480D01*
X659750Y383720D01*
X658820Y384930D01*
X657850Y386120D01*
X656850Y387280D01*
X655830Y388420D01*
X654770Y389530D01*
X653690Y390610D01*
X652580Y391670D01*
X651440Y392690D01*
X650280Y393690D01*
X649090Y394660D01*
X647880Y395590D01*
X646640Y396500D01*
X645380Y397370D01*
X644100Y398210D01*
X642800Y399010D01*
X641470Y399780D01*
X640130Y400520D01*
X638770Y401220D01*
X637390Y401890D01*
X635990Y402520D01*
X634580Y403120D01*
X633160Y403680D01*
X631710Y404200D01*
X630260Y404680D01*
X628800Y405130D01*
X627320Y405540D01*
X625830Y405910D01*
X624340Y406240D01*
X622840Y406540D01*
X621320Y406790D01*
X619810Y407010D01*
X618290Y407180D01*
X616760Y407320D01*
X615230Y407420D01*
X613700Y407480D01*
X612170Y407510D01*
X577870D01*
X576460Y407530D01*
X575050Y407590D01*
X573640Y407680D01*
X572240Y407820D01*
X570840Y408000D01*
X569440Y408210D01*
X568050Y408460D01*
X566670Y408750D01*
X565300Y409080D01*
X563940Y409440D01*
X562580Y409840D01*
X561240Y410280D01*
X559910Y410760D01*
X558600Y411270D01*
X557300Y411820D01*
X556010Y412410D01*
X554750Y413030D01*
X553500Y413680D01*
X552260Y414370D01*
X551050Y415090D01*
X549860Y415850D01*
X548690Y416640D01*
X547540Y417460D01*
X546420Y418310D01*
X545310Y419190D01*
X544240Y420100D01*
X543190Y421040D01*
X542160Y422010D01*
X541160Y423010D01*
X540190Y424040D01*
X539250Y425090D01*
X538340Y426160D01*
X537460Y427270D01*
X536610Y428390D01*
X535790Y429540D01*
X535000Y430710D01*
X534240Y431900D01*
X533520Y433120D01*
X532830Y434350D01*
X532180Y435600D01*
X531560Y436860D01*
X530970Y438150D01*
X530420Y439450D01*
X529910Y440760D01*
X529430Y442090D01*
X528990Y443430D01*
X528590Y444790D01*
X528230Y446150D01*
X527900Y447520D01*
X527610Y448900D01*
X527360Y450290D01*
X527150Y451690D01*
X526970Y453090D01*
X526830Y454490D01*
X526740Y455900D01*
X526680Y457310D01*
X526660Y458720D01*
Y545850D01*
X571660Y589160D02*
Y875240D01*
X571640Y876370D01*
X571580Y877490D01*
X571480Y878610D01*
X571350Y879730D01*
X571170Y880840D01*
X570950Y881950D01*
X570700Y883050D01*
X570410Y884130D01*
X570080Y885210D01*
X569710Y886280D01*
X569310Y887330D01*
X568870Y888370D01*
X568390Y889390D01*
X567880Y890390D01*
X567340Y891380D01*
X566760Y892340D01*
X566140Y893290D01*
X565500Y894210D01*
X564820Y895110D01*
X564110Y895980D01*
X563370Y896830D01*
X562600Y897660D01*
X561810Y898450D01*
X560980Y899220D01*
X560130Y899960D01*
X559260Y900670D01*
X558360Y901350D01*
X557440Y901990D01*
X556490Y902610D01*
X555530Y903190D01*
X554540Y903730D01*
X553540Y904240D01*
X552520Y904720D01*
X551480Y905160D01*
X550430Y905560D01*
X549360Y905930D01*
X548280Y906260D01*
X547200Y906550D01*
X546100Y906800D01*
X544990Y907020D01*
X543880Y907200D01*
X542760Y907330D01*
X541640Y907430D01*
X540520Y907490D01*
X539390Y907510D01*
X498930D01*
X497800Y907520D01*
X496680Y907580D01*
X495560Y907680D01*
X494440Y907810D01*
X493330Y907990D01*
X492220Y908210D01*
X491120Y908460D01*
X490040Y908750D01*
X488960Y909080D01*
X487890Y909450D01*
X486840Y909850D01*
X485800Y910290D01*
X484780Y910770D01*
X483780Y911280D01*
X482790Y911820D01*
X481830Y912400D01*
X480880Y913020D01*
X479960Y913660D01*
X479060Y914340D01*
X478190Y915050D01*
X477340Y915790D01*
X476510Y916560D01*
X475720Y917350D01*
X474950Y918180D01*
X474210Y919030D01*
X473500Y919900D01*
X472820Y920800D01*
X472180Y921720D01*
X471560Y922670D01*
X470980Y923640D01*
X470440Y924620D01*
X469930Y925620D01*
X469450Y926640D01*
X469010Y927680D01*
X468610Y928730D01*
X468240Y929800D01*
X467910Y930880D01*
X467620Y931960D01*
X467370Y933060D01*
X467150Y934170D01*
X466970Y935280D01*
X466840Y936400D01*
X466740Y937520D01*
X466680Y938640D01*
X466660Y939770D01*
Y957510D01*
X466910Y972300D01*
X467510Y987080D01*
X468480Y1001840D01*
X469800Y1016570D01*
X471480Y1031270D01*
X473520Y1045920D01*
X475910Y1060520D01*
X478660Y1075060D01*
X481750Y1089520D01*
X485200Y1103910D01*
X488990Y1118200D01*
X493140Y1132400D01*
X497620Y1146500D01*
X502440Y1160480D01*
X507610Y1174350D01*
X513100Y1188080D01*
X518930Y1201680D01*
X525090Y1215130D01*
X531570Y1228420D01*
X538370Y1241560D01*
X545490Y1254530D01*
X552930Y1267320D01*
X560670Y1279920D01*
X568710Y1292340D01*
X577050Y1304550D01*
X585690Y1316560D01*
X594610Y1328360D01*
X603820Y1339940D01*
X613310Y1351290D01*
X623070Y1362400D01*
X633090Y1373280D01*
X643380Y1383910D01*
X653920Y1394290D01*
X664710Y1404410D01*
X675740Y1414260D01*
X687010Y1423840D01*
X698510Y1433150D01*
X710230Y1442180D01*
X722170Y1450910D01*
X734310Y1459360D01*
X746660Y1467510D01*
X749860Y1470620D01*
X753130Y1473670D01*
X756470Y1476630D01*
X759880Y1479520D01*
X763360Y1482330D01*
X766910Y1485050D01*
X770520Y1487680D01*
X774190Y1490230D01*
X777920Y1492690D01*
X781710Y1495060D01*
X785550Y1497340D01*
X789450Y1499530D01*
X793390Y1501630D01*
X797390Y1503630D01*
X801430Y1505530D01*
X805520Y1507340D01*
X809650Y1509050D01*
X813820Y1510660D01*
X818020Y1512170D01*
X822260Y1513580D01*
X826540Y1514890D01*
X830840Y1516100D01*
X835170Y1517210D01*
X839520Y1518210D01*
X843900Y1519110D01*
X848300Y1519900D01*
X852720Y1520590D01*
X857150Y1521170D01*
X861590Y1521650D01*
X866040Y1522020D01*
X870510Y1522290D01*
X874970Y1522450D01*
X879440Y1522510D01*
X1323200D01*
X1328640Y1522440D01*
X1334080Y1522250D01*
X1339510Y1521920D01*
X1344930Y1521460D01*
X1350340Y1520880D01*
X1355730Y1520160D01*
X1361100Y1519310D01*
X1366450Y1518340D01*
X1371780Y1517230D01*
X1377080Y1516000D01*
X1382350Y1514640D01*
X1387580Y1513160D01*
X1392780Y1511550D01*
X1397930Y1509810D01*
X1403050Y1507950D01*
X1408110Y1505970D01*
X1413130Y1503870D01*
X1418100Y1501650D01*
X1423010Y1499310D01*
X1427860Y1496850D01*
X1432650Y1494270D01*
X1437380Y1491580D01*
X1442050Y1488780D01*
X1446640Y1485870D01*
X1451160Y1482850D01*
X1455610Y1479720D01*
X1459990Y1476480D01*
X1464280Y1473140D01*
X1468490Y1469690D01*
X1472620Y1466150D01*
X1476660Y1462510D01*
X1488840Y1453960D01*
X1500810Y1445120D01*
X1512570Y1436000D01*
X1524110Y1426600D01*
X1535410Y1416920D01*
X1546480Y1406980D01*
X1557310Y1396770D01*
X1567890Y1386310D01*
X1578220Y1375600D01*
X1588280Y1364640D01*
X1598090Y1353440D01*
X1607610Y1342010D01*
X1616870Y1330350D01*
X1625840Y1318480D01*
X1634520Y1306400D01*
X1642910Y1294110D01*
X1651000Y1281620D01*
X1658790Y1268940D01*
X1666280Y1256080D01*
X1673450Y1243040D01*
X1680310Y1229830D01*
X1686850Y1216470D01*
X1693060Y1202950D01*
X1698950Y1189280D01*
X1704510Y1175480D01*
X1709740Y1161550D01*
X1714630Y1147490D01*
X1719190Y1133330D01*
X1723400Y1119050D01*
X1727270Y1104680D01*
X1730790Y1090230D01*
X1733970Y1075690D01*
X1736790Y1061080D01*
X1739270Y1046400D01*
X1741390Y1031680D01*
X1743150Y1016900D01*
X1744560Y1002090D01*
X1745620Y987240D01*
X1746320Y972380D01*
X1746660Y957510D01*
Y926210D01*
X1746640Y925410D01*
X1746580Y924620D01*
X1746480Y923830D01*
X1746350Y923050D01*
X1746170Y922270D01*
X1745960Y921500D01*
X1745710Y920750D01*
X1745430Y920010D01*
X1745100Y919280D01*
X1744750Y918570D01*
X1744350Y917880D01*
X1743930Y917200D01*
X1743470Y916550D01*
X1742980Y915930D01*
X1742460Y915320D01*
X1741910Y914750D01*
X1741340Y914200D01*
X1740730Y913680D01*
X1740110Y913190D01*
X1739460Y912730D01*
X1738780Y912310D01*
X1738090Y911910D01*
X1737380Y911560D01*
X1736650Y911230D01*
X1735910Y910950D01*
X1735160Y910700D01*
X1734390Y910490D01*
X1733610Y910310D01*
X1732830Y910180D01*
X1732040Y910080D01*
X1731250Y910020D01*
X1730450Y910010D01*
X1686990D01*
X1685580Y909980D01*
X1684170Y909920D01*
X1682760Y909820D01*
X1681350Y909680D01*
X1679950Y909510D01*
X1678560Y909290D01*
X1677170Y909030D01*
X1675790Y908740D01*
X1674420Y908400D01*
X1673060Y908030D01*
X1671710Y907620D01*
X1670370Y907180D01*
X1669040Y906690D01*
X1667730Y906170D01*
X1666430Y905610D01*
X1665150Y905020D01*
X1663890Y904390D01*
X1662640Y903720D01*
X1661420Y903020D01*
X1660210Y902290D01*
X1659030Y901520D01*
X1657870Y900720D01*
X1656730Y899880D01*
X1655610Y899020D01*
X1654520Y898120D01*
X1653450Y897200D01*
X1652410Y896240D01*
X1651400Y895260D01*
X1650420Y894250D01*
X1649460Y893210D01*
X1648540Y892140D01*
X1647640Y891050D01*
X1646780Y889930D01*
X1645940Y888790D01*
X1645140Y887630D01*
X1644370Y886450D01*
X1643640Y885240D01*
X1642940Y884020D01*
X1642270Y882770D01*
X1641640Y881510D01*
X1641050Y880230D01*
X1640490Y878930D01*
X1639970Y877620D01*
X1639480Y876290D01*
X1639040Y874950D01*
X1638630Y873600D01*
X1638260Y872240D01*
X1637920Y870870D01*
X1637630Y869490D01*
X1637370Y868100D01*
X1637150Y866710D01*
X1636980Y865310D01*
X1636840Y863900D01*
X1636740Y862490D01*
X1636680Y861080D01*
X1636660Y859670D01*
Y707000D01*
X1636680Y706210D01*
X1636740Y705430D01*
X1636830Y704650D01*
X1636970Y703880D01*
X1637140Y703110D01*
X1637350Y702360D01*
X1637600Y701610D01*
X1637880Y700880D01*
X1638200Y700160D01*
X1638550Y699460D01*
X1638940Y698770D01*
X1639360Y698110D01*
X1639810Y697470D01*
X1640290Y696850D01*
X1640800Y696260D01*
X1641350Y695690D01*
X1641920Y695140D01*
X1642510Y694630D01*
X1643130Y694150D01*
X1643770Y693700D01*
X1644430Y693280D01*
X1645120Y692890D01*
X1645820Y692540D01*
X1646540Y692220D01*
X1647270Y691940D01*
X1648020Y691690D01*
X1648770Y691480D01*
X1649540Y691310D01*
X1650310Y691170D01*
X1651090Y691080D01*
X1651870Y691020D01*
X1652660Y691000D01*
X1669340D01*
X660780Y986630D02*
X661660D01*
Y999040D01*
X661680Y999590D01*
X661730Y1000140D01*
X661820Y1000690D01*
X661950Y1001230D01*
X662110Y1001760D01*
X662300Y1002280D01*
X662530Y1002780D01*
X662790Y1003270D01*
X663090Y1003740D01*
X663410Y1004190D01*
X663760Y1004620D01*
X664140Y1005020D01*
X664540Y1005400D01*
X664970Y1005750D01*
X665420Y1006070D01*
X665890Y1006370D01*
X666380Y1006630D01*
X666880Y1006860D01*
X667400Y1007050D01*
X667930Y1007210D01*
X668470Y1007340D01*
X669020Y1007430D01*
X669570Y1007480D01*
X670120Y1007510D01*
X1472020D01*
X1474070Y1007490D01*
X1476110Y1007410D01*
X1478150Y1007290D01*
X1480190Y1007110D01*
X1482220Y1006890D01*
X1484250Y1006620D01*
X1486270Y1006300D01*
X1488280Y1005930D01*
X1490280Y1005520D01*
X1492280Y1005050D01*
X1494260Y1004540D01*
X1496220Y1003980D01*
X1498180Y1003370D01*
X1500110Y1002710D01*
X1502030Y1002010D01*
X1503940Y1001260D01*
X1505820Y1000470D01*
X1507690Y999630D01*
X1509530Y998740D01*
X1511350Y997810D01*
X1513150Y996840D01*
X1514930Y995830D01*
X1516680Y994770D01*
X1518400Y993670D01*
X1520100Y992530D01*
X1521770Y991350D01*
X1523410Y990120D01*
X1525020Y988860D01*
X1526600Y987560D01*
X1528150Y986220D01*
X1529660Y984850D01*
X1531140Y983440D01*
X1532590Y981990D01*
X1534000Y980510D01*
X1535370Y979000D01*
X1536710Y977450D01*
X1538010Y975870D01*
X1539270Y974260D01*
X1540500Y972620D01*
X1541680Y970950D01*
X1542820Y969250D01*
X1543920Y967530D01*
X1544980Y965780D01*
X1545990Y964000D01*
X1546960Y962200D01*
X1547890Y960380D01*
X1548780Y958540D01*
X1549620Y956670D01*
X1550410Y954790D01*
X1551160Y952880D01*
X1551860Y950960D01*
X1552520Y949030D01*
X1553130Y947070D01*
X1553690Y945110D01*
X1554200Y943130D01*
X1554670Y941130D01*
X1555080Y939130D01*
X1555450Y937120D01*
X1555770Y935100D01*
X1556040Y933070D01*
X1556260Y931040D01*
X1556440Y929000D01*
X1556560Y926960D01*
X1556640Y924920D01*
X1556660Y922870D01*
Y477510D01*
X1556680Y476440D01*
X1556740Y475370D01*
X1556830Y474300D01*
X1556970Y473240D01*
X1557140Y472180D01*
X1557350Y471130D01*
X1557590Y470090D01*
X1557880Y469060D01*
X1558200Y468040D01*
X1558550Y467030D01*
X1558940Y466030D01*
X1559370Y465050D01*
X1559830Y464080D01*
X1560330Y463130D01*
X1560860Y462200D01*
X1561420Y461290D01*
X1562020Y460400D01*
X1562640Y459530D01*
X1563300Y458690D01*
X1563990Y457860D01*
X1564700Y457070D01*
X1565450Y456300D01*
X1566220Y455550D01*
X1567010Y454840D01*
X1567840Y454150D01*
X1568680Y453490D01*
X1569550Y452870D01*
X1570440Y452270D01*
X1571350Y451710D01*
X1572280Y451180D01*
X1573230Y450680D01*
X1574200Y450220D01*
X1575180Y449790D01*
X1576180Y449400D01*
X1577190Y449050D01*
X1578210Y448730D01*
X1579240Y448440D01*
X1580280Y448200D01*
X1581330Y447990D01*
X1582390Y447820D01*
X1583450Y447680D01*
X1584520Y447590D01*
X1585590Y447530D01*
X1586660Y447510D01*
X1694440D01*
X1695460Y447530D01*
X1696470Y447590D01*
X1697490Y447680D01*
X1698500Y447810D01*
X1699500Y447980D01*
X1700500Y448190D01*
X1701490Y448440D01*
X1702460Y448720D01*
X1703430Y449040D01*
X1704380Y449390D01*
X1705330Y449780D01*
X1706250Y450210D01*
X1707160Y450660D01*
X1708050Y451160D01*
X1708920Y451680D01*
X1709770Y452240D01*
X1710600Y452830D01*
X1711410Y453450D01*
X1712200Y454100D01*
X1712950Y454780D01*
X1713690Y455480D01*
X1714390Y456220D01*
X1715070Y456970D01*
X1715720Y457760D01*
X1716340Y458570D01*
X1716930Y459400D01*
X1717490Y460250D01*
X1718010Y461120D01*
X1718510Y462010D01*
X1718960Y462920D01*
X1719390Y463840D01*
X1719780Y464790D01*
X1720130Y465740D01*
X1720450Y466710D01*
X1720730Y467680D01*
X1720980Y468670D01*
X1721190Y469670D01*
X1721360Y470670D01*
X1721490Y471680D01*
X1721580Y472700D01*
X1721640Y473710D01*
X1721660Y474730D01*
Y510850D01*
X835990Y709900D02*
X836660D01*
X822940Y701950D01*
X822220Y701510D01*
X821530Y701040D01*
X820850Y700540D01*
X820200Y700010D01*
X819580Y699450D01*
X818980Y698860D01*
X818400Y698250D01*
X817860Y697610D01*
X817340Y696950D01*
X816860Y696260D01*
X816410Y695550D01*
X815980Y694830D01*
X815600Y694080D01*
X815240Y693320D01*
X814930Y692540D01*
X814640Y691750D01*
X814400Y690950D01*
X814190Y690130D01*
X814010Y689310D01*
X813880Y688480D01*
X813780Y687650D01*
X813720Y686810D01*
X813700Y685970D01*
X813720Y685130D01*
X813770Y684290D01*
X813860Y683460D01*
X813990Y682630D01*
X814160Y681810D01*
X814360Y680990D01*
X814610Y680190D01*
X814880Y679390D01*
X815200Y678610D01*
X815540Y677850D01*
X815930Y677100D01*
X816340Y676370D01*
X838430Y639560D01*
X839130Y638420D01*
X839870Y637300D01*
X840640Y636210D01*
X841440Y635140D01*
X842270Y634090D01*
X843130Y633070D01*
X844030Y632080D01*
X844950Y631110D01*
X845900Y630170D01*
X846880Y629260D01*
X847880Y628370D01*
X848910Y627520D01*
X849970Y626700D01*
X851040Y625910D01*
X852150Y625150D01*
X853270Y624420D01*
X854410Y623730D01*
X855580Y623070D01*
X856760Y622450D01*
X857960Y621860D01*
X859180Y621300D01*
X860410Y620790D01*
X861660Y620300D01*
X862920Y619860D01*
X864190Y619450D01*
X865480Y619080D01*
X866770Y618750D01*
X868080Y618460D01*
X869390Y618210D01*
X870710Y617990D01*
X872030Y617810D01*
X873360Y617680D01*
X874700Y617580D01*
X876030Y617520D01*
X877370Y617510D01*
X891660D01*
X929730D01*
X931450Y617520D01*
X933180Y617580D01*
X934900Y617690D01*
X936620Y617830D01*
X938330Y618020D01*
X940040Y618250D01*
X941740Y618510D01*
X943440Y618820D01*
X945130Y619170D01*
X946810Y619560D01*
X948480Y619990D01*
X950140Y620470D01*
X951790Y620980D01*
X953420Y621530D01*
X955040Y622120D01*
X956650Y622740D01*
X958240Y623410D01*
X959810Y624110D01*
X961370Y624860D01*
X962910Y625640D01*
X964430Y626450D01*
X965920Y627300D01*
X967400Y628190D01*
X968860Y629120D01*
X970290Y630070D01*
X971700Y631070D01*
X973090Y632090D01*
X974450Y633150D01*
X975790Y634240D01*
X977090Y635370D01*
X978370Y636520D01*
X979630Y637710D01*
X980850Y638920D01*
X982050Y640170D01*
X983210Y641440D01*
X984340Y642740D01*
X985450Y644060D01*
X986510Y645420D01*
X987550Y646800D01*
X988550Y648200D01*
X989520Y649620D01*
X990460Y651070D01*
X991360Y652550D01*
X992220Y654040D01*
X996660Y661920D01*
X997700D01*
X1018320Y697970D01*
X1019920Y700830D01*
X1021450Y703730D01*
X1022900Y706670D01*
X1024290Y709640D01*
X1025610Y712650D01*
X1026860Y715680D01*
X1028030Y718740D01*
X1029130Y721830D01*
X1030160Y724950D01*
X1031120Y728080D01*
X1032000Y731240D01*
X1032800Y734420D01*
X1033530Y737620D01*
X1034190Y740840D01*
X1034770Y744060D01*
X1035270Y747310D01*
X1035690Y750560D01*
X1036040Y753820D01*
X1036310Y757090D01*
X1036510Y760360D01*
X1036620Y763640D01*
X1036660Y766920D01*
Y778110D01*
X1036640Y779400D01*
X1036580Y780680D01*
X1036490Y781960D01*
X1036350Y783240D01*
X1036180Y784510D01*
X1035960Y785780D01*
X1035710Y787040D01*
X1035420Y788300D01*
X1035100Y789540D01*
X1034730Y790770D01*
X1034330Y791990D01*
X1033890Y793200D01*
X1033420Y794400D01*
X1032910Y795580D01*
X1032370Y796740D01*
X1031790Y797890D01*
X1031170Y799020D01*
X1030520Y800130D01*
X1029840Y801220D01*
X1029130Y802290D01*
X1028380Y803330D01*
X1027600Y804360D01*
X1026790Y805360D01*
X1025960Y806330D01*
X1025090Y807280D01*
X1024190Y808200D01*
X1023270Y809100D01*
X1022320Y809970D01*
X1021350Y810800D01*
X1020350Y811610D01*
X1019320Y812390D01*
X1018280Y813140D01*
X1017210Y813850D01*
X1016120Y814530D01*
X1015010Y815180D01*
X1013880Y815800D01*
X1012730Y816380D01*
X1011570Y816920D01*
X1010390Y817430D01*
X1009190Y817900D01*
X1007980Y818340D01*
X1006760Y818740D01*
X1005530Y819110D01*
X1004290Y819430D01*
X1003030Y819720D01*
X1001770Y819970D01*
X1000500Y820190D01*
X999230Y820360D01*
X997950Y820500D01*
X996670Y820590D01*
X995390Y820650D01*
X994100Y820660D01*
X959550D01*
X891660Y617510D02*
Y158670D01*
X891640Y157770D01*
X891580Y156880D01*
X891490Y155980D01*
X891360Y155090D01*
X891190Y154210D01*
X890980Y153340D01*
X890730Y152470D01*
X890450Y151620D01*
X890130Y150780D01*
X889780Y149950D01*
X889390Y149140D01*
X888970Y148350D01*
X888520Y147580D01*
X888030Y146820D01*
X887510Y146090D01*
X886960Y145380D01*
X886380Y144690D01*
X885780Y144030D01*
X885140Y143390D01*
X884480Y142790D01*
X883790Y142210D01*
X883080Y141660D01*
X882350Y141140D01*
X881590Y140650D01*
X880820Y140200D01*
X880030Y139780D01*
X879220Y139390D01*
X878390Y139040D01*
X877550Y138720D01*
X876700Y138440D01*
X875830Y138190D01*
X874960Y137980D01*
X874080Y137810D01*
X873190Y137680D01*
X872290Y137590D01*
X871400Y137530D01*
X870500Y137510D01*
X749050D01*
X747420Y137520D01*
X745790Y137580D01*
X744170Y137680D01*
X742550Y137810D01*
X740930Y137990D01*
X739310Y138210D01*
X737700Y138460D01*
X736100Y138760D01*
X734510Y139090D01*
X732920Y139460D01*
X731350Y139870D01*
X729780Y140310D01*
X728230Y140800D01*
X726680Y141320D01*
X725150Y141880D01*
X723640Y142480D01*
X722140Y143110D01*
X720650Y143780D01*
X719180Y144480D01*
X717730Y145220D01*
X716300Y145990D01*
X714890Y146800D01*
X713490Y147640D01*
X712120Y148520D01*
X710770Y149430D01*
X709440Y150370D01*
X708130Y151340D01*
X706850Y152350D01*
X705590Y153380D01*
X704360Y154450D01*
X703160Y155540D01*
X701980Y156670D01*
X700830Y157820D01*
X699700Y159000D01*
X698610Y160200D01*
X697540Y161430D01*
X696510Y162690D01*
X695500Y163970D01*
X694530Y165280D01*
X693590Y166610D01*
X692680Y167960D01*
X691800Y169330D01*
X690960Y170730D01*
X690150Y172140D01*
X689380Y173570D01*
X688640Y175020D01*
X687940Y176490D01*
X687270Y177980D01*
X686640Y179480D01*
X686040Y180990D01*
X685480Y182520D01*
X684960Y184070D01*
X684470Y185620D01*
X684030Y187190D01*
X683620Y188760D01*
X683250Y190350D01*
X682920Y191940D01*
X682620Y193540D01*
X682370Y195150D01*
X682150Y196770D01*
X681970Y198390D01*
X681840Y200010D01*
X681740Y201630D01*
X681680Y203260D01*
X681660Y204890D01*
Y350120D01*
X681640Y351750D01*
X681580Y353380D01*
X681480Y355000D01*
X681350Y356620D01*
X681170Y358240D01*
X680950Y359860D01*
X680700Y361470D01*
X680400Y363070D01*
X680070Y364660D01*
X679700Y366250D01*
X679290Y367820D01*
X678850Y369390D01*
X678360Y370940D01*
X677840Y372490D01*
X677280Y374020D01*
X676680Y375530D01*
X676050Y377030D01*
X675380Y378520D01*
X674680Y379990D01*
X673940Y381440D01*
X673170Y382870D01*
X672360Y384280D01*
X671520Y385680D01*
X670640Y387050D01*
X669730Y388400D01*
X668790Y389730D01*
X667820Y391040D01*
X666810Y392320D01*
X665780Y393580D01*
X664710Y394810D01*
X663620Y396010D01*
X662490Y397190D01*
X661340Y398340D01*
X660160Y399470D01*
X658960Y400560D01*
X657730Y401630D01*
X656470Y402660D01*
X655190Y403670D01*
X653880Y404640D01*
X652550Y405580D01*
X651200Y406490D01*
X649830Y407370D01*
X648430Y408210D01*
X647020Y409020D01*
X645590Y409790D01*
X644140Y410530D01*
X642670Y411230D01*
X641180Y411900D01*
X639680Y412530D01*
X638170Y413130D01*
X636640Y413690D01*
X635090Y414210D01*
X633540Y414700D01*
X631970Y415140D01*
X630400Y415550D01*
X628810Y415920D01*
X627220Y416250D01*
X625620Y416550D01*
X624010Y416800D01*
X622390Y417020D01*
X620770Y417200D01*
X619150Y417330D01*
X617530Y417430D01*
X615900Y417490D01*
X614270Y417510D01*
X612980Y417530D01*
X611700Y417590D01*
X610410Y417680D01*
X609130Y417820D01*
X607860Y418000D01*
X606590Y418210D01*
X605330Y418460D01*
X604070Y418750D01*
X602830Y419080D01*
X601590Y419440D01*
X600370Y419840D01*
X599160Y420280D01*
X597960Y420750D01*
X596780Y421260D01*
X595620Y421810D01*
X594470Y422390D01*
X593340Y423010D01*
X592230Y423660D01*
X591130Y424340D01*
X590060Y425050D01*
X589020Y425800D01*
X587990Y426580D01*
X586990Y427390D01*
X586010Y428230D01*
X585060Y429090D01*
X584140Y429990D01*
X583240Y430910D01*
X582380Y431860D01*
X581540Y432840D01*
X580730Y433840D01*
X579950Y434870D01*
X579200Y435910D01*
X578490Y436980D01*
X577810Y438080D01*
X577160Y439190D01*
X576540Y440320D01*
X575960Y441470D01*
X575410Y442630D01*
X574900Y443810D01*
X574430Y445010D01*
X573990Y446220D01*
X573590Y447440D01*
X573230Y448680D01*
X572900Y449920D01*
X572610Y451180D01*
X572360Y452440D01*
X572150Y453710D01*
X571970Y454980D01*
X571830Y456260D01*
X571740Y457550D01*
X571680Y458830D01*
X571660Y460120D01*
Y545850D01*
X1244160Y417510D02*
X1278800D01*
X1280710Y417530D01*
X1282610Y417600D01*
X1284520Y417710D01*
X1286420Y417870D01*
X1288310Y418080D01*
X1290210Y418330D01*
X1292090Y418620D01*
X1293970Y418960D01*
X1295830Y419340D01*
X1297690Y419770D01*
X1299540Y420240D01*
X1301380Y420760D01*
X1303200Y421320D01*
X1305010Y421920D01*
X1306810Y422560D01*
X1308580Y423250D01*
X1310350Y423980D01*
X1312090Y424750D01*
X1313820Y425560D01*
X1315520Y426420D01*
X1317210Y427310D01*
X1318870Y428250D01*
X1320510Y429220D01*
X1322130Y430230D01*
X1323720Y431280D01*
X1325290Y432370D01*
X1326830Y433490D01*
X1328340Y434660D01*
X1329820Y435850D01*
X1331280Y437080D01*
X1332710Y438350D01*
X1334100Y439650D01*
X1335470Y440980D01*
X1356660Y462170D01*
X1355980D01*
X1373410Y491640D01*
X1374990Y494390D01*
X1376510Y497190D01*
X1377960Y500020D01*
X1379340Y502890D01*
X1380650Y505790D01*
X1381900Y508720D01*
X1383070Y511680D01*
X1384160Y514670D01*
X1385190Y517680D01*
X1386140Y520720D01*
X1387010Y523780D01*
X1387820Y526860D01*
X1388540Y529950D01*
X1389200Y533070D01*
X1389770Y536200D01*
X1390270Y539340D01*
X1390700Y542500D01*
X1391040Y545660D01*
X1391310Y548830D01*
X1391510Y552010D01*
X1391620Y555190D01*
X1391660Y558370D01*
Y583130D01*
X1391640Y584730D01*
X1391580Y586330D01*
X1391490Y587930D01*
X1391350Y589530D01*
X1391180Y591120D01*
X1390960Y592710D01*
X1390710Y594290D01*
X1390420Y595870D01*
X1390100Y597440D01*
X1389730Y599000D01*
X1389330Y600550D01*
X1388890Y602090D01*
X1388410Y603620D01*
X1387900Y605140D01*
X1387350Y606640D01*
X1386760Y608140D01*
X1386140Y609610D01*
X1385480Y611070D01*
X1384790Y612520D01*
X1384060Y613950D01*
X1383300Y615360D01*
X1382510Y616750D01*
X1381680Y618120D01*
X1380820Y619470D01*
X1379920Y620800D01*
X1379000Y622110D01*
X1378040Y623390D01*
X1377050Y624650D01*
X1376030Y625890D01*
X1374980Y627100D01*
X1373910Y628290D01*
X1372800Y629450D01*
X1371670Y630580D01*
X1370510Y631690D01*
X1369320Y632760D01*
X1368110Y633810D01*
X1366870Y634830D01*
X1365610Y635820D01*
X1364330Y636780D01*
X1363020Y637700D01*
X1361690Y638600D01*
X1360340Y639460D01*
X1358970Y640290D01*
X1357580Y641080D01*
X1356170Y641840D01*
X1354740Y642570D01*
X1353290Y643260D01*
X1351830Y643920D01*
X1350360Y644540D01*
X1348860Y645130D01*
X1347360Y645680D01*
X1345840Y646190D01*
X1344310Y646670D01*
X1342770Y647110D01*
X1341220Y647510D01*
X1339660Y647880D01*
X1338090Y648200D01*
X1336510Y648490D01*
X1334930Y648740D01*
X1333340Y648960D01*
X1331750Y649130D01*
X1330150Y649270D01*
X1328550Y649360D01*
X1326950Y649420D01*
X1325350Y649450D01*
X1308330D01*
X1669340Y671310D02*
Y670850D01*
X1601660D01*
X1669340Y651630D02*
X1671660D01*
Y652510D01*
X1672890Y631350D02*
Y611550D01*
X1672860Y610820D01*
X1672800Y610080D01*
X1672710Y609350D01*
X1672570Y608630D01*
X1672400Y607920D01*
X1672190Y607210D01*
X1671950Y606520D01*
X1671670Y605840D01*
X1671350Y605180D01*
X1671000Y604530D01*
X1670610Y603900D01*
X1670200Y603300D01*
X1669750Y602710D01*
X1669270Y602160D01*
X1668770Y601620D01*
X1668230Y601120D01*
X1667680Y600640D01*
X1667090Y600190D01*
X1666490Y599780D01*
X1665860Y599390D01*
X1665210Y599040D01*
X1664550Y598720D01*
X1663870Y598440D01*
X1663180Y598200D01*
X1662470Y597990D01*
X1661760Y597820D01*
X1661040Y597680D01*
X1660310Y597590D01*
X1659570Y597530D01*
X1658840Y597510D01*
X1657920Y597480D01*
X1657010Y597420D01*
X1656100Y597330D01*
X1655190Y597200D01*
X1654290Y597030D01*
X1653400Y596820D01*
X1652510Y596580D01*
X1651640Y596300D01*
X1650780Y595980D01*
X1649930Y595630D01*
X1649100Y595250D01*
X1648280Y594830D01*
X1647490Y594370D01*
X1646710Y593890D01*
X1645950Y593370D01*
X1645220Y592820D01*
X1644510Y592250D01*
X1643820Y591640D01*
X1643160Y591000D01*
X1642520Y590340D01*
X1641910Y589650D01*
X1641340Y588940D01*
X1640790Y588210D01*
X1640270Y587450D01*
X1639790Y586670D01*
X1639330Y585880D01*
X1638910Y585060D01*
X1638530Y584230D01*
X1638180Y583380D01*
X1637860Y582520D01*
X1637580Y581650D01*
X1637340Y580760D01*
X1637130Y579870D01*
X1636960Y578970D01*
X1636830Y578060D01*
X1636740Y577150D01*
X1636680Y576240D01*
X1636660Y575320D01*
Y554160D01*
X1693160Y627810D02*
Y591740D01*
X1693150Y591350D01*
X1693100Y590960D01*
X1693010Y590580D01*
X1692880Y590210D01*
X1692730Y589850D01*
X1692530Y589510D01*
X1692310Y589180D01*
X1692060Y588880D01*
X1691790Y588610D01*
X1691490Y588360D01*
X1691160Y588140D01*
X1690820Y587940D01*
X1690460Y587790D01*
X1690090Y587660D01*
X1689710Y587570D01*
X1689320Y587520D01*
X1688930Y587500D01*
X1688410Y587490D01*
X1687900Y587440D01*
X1687380Y587340D01*
X1686880Y587220D01*
X1686390Y587050D01*
X1685910Y586850D01*
X1685450Y586620D01*
X1685000Y586360D01*
X1684570Y586060D01*
X1684170Y585730D01*
X1683790Y585380D01*
X1683440Y585000D01*
X1683110Y584600D01*
X1682810Y584170D01*
X1682550Y583720D01*
X1682320Y583260D01*
X1682120Y582780D01*
X1681950Y582290D01*
X1681830Y581790D01*
X1681730Y581270D01*
X1681680Y580760D01*
X1681660Y580240D01*
Y554160D01*
X1636660Y510850D02*
Y479410D01*
X1636640Y478740D01*
X1636590Y478080D01*
X1636490Y477420D01*
X1636360Y476760D01*
X1636190Y476120D01*
X1635990Y475480D01*
X1635750Y474860D01*
X1635480Y474250D01*
X1635180Y473650D01*
X1634840Y473080D01*
X1634470Y472520D01*
X1634060Y471990D01*
X1633630Y471480D01*
X1633170Y471000D01*
X1632690Y470540D01*
X1632180Y470110D01*
X1631650Y469700D01*
X1631090Y469330D01*
X1630520Y468990D01*
X1629920Y468690D01*
X1629310Y468420D01*
X1628690Y468180D01*
X1628050Y467980D01*
X1627410Y467810D01*
X1626750Y467680D01*
X1626090Y467580D01*
X1625430Y467530D01*
X1624760Y467510D01*
X1613130D01*
X1612460Y467530D01*
X1611800Y467590D01*
X1611140Y467680D01*
X1610480Y467820D01*
X1609840Y467990D01*
X1609210Y468200D01*
X1608590Y468450D01*
X1607980Y468730D01*
X1607400Y469050D01*
X1606830Y469400D01*
X1606280Y469780D01*
X1605760Y470190D01*
X1605260Y470640D01*
X1604790Y471110D01*
X1604340Y471610D01*
X1603930Y472130D01*
X1603550Y472680D01*
X1603200Y473250D01*
X1602880Y473830D01*
X1602600Y474440D01*
X1602350Y475060D01*
X1602140Y475690D01*
X1601970Y476330D01*
X1601830Y476990D01*
X1601740Y477650D01*
X1601680Y478310D01*
X1601660Y478980D01*
Y600580D01*
X1601640Y601390D01*
X1601580Y602190D01*
X1601490Y602990D01*
X1601350Y603780D01*
X1601180Y604570D01*
X1600970Y605350D01*
X1600730Y606120D01*
X1600450Y606870D01*
X1600130Y607610D01*
X1599780Y608340D01*
X1599390Y609050D01*
X1598970Y609730D01*
X1598520Y610400D01*
X1598040Y611050D01*
X1597520Y611670D01*
X1596980Y612260D01*
X1596410Y612830D01*
X1595820Y613370D01*
X1595200Y613890D01*
X1594550Y614370D01*
X1593880Y614820D01*
X1593200Y615240D01*
X1592490Y615630D01*
X1591760Y615980D01*
X1591020Y616300D01*
X1590270Y616580D01*
X1589500Y616820D01*
X1588720Y617030D01*
X1587930Y617200D01*
X1587140Y617340D01*
X1586340Y617430D01*
X1585540Y617490D01*
X1584730Y617510D01*
X1580320D01*
X1579610Y617520D01*
X1578890Y617570D01*
X1578180Y617670D01*
X1577480Y617800D01*
X1576780Y617970D01*
X1576100Y618170D01*
X1575420Y618410D01*
X1574760Y618680D01*
X1574120Y618990D01*
X1573490Y619330D01*
X1572880Y619700D01*
X1572290Y620110D01*
X1571720Y620540D01*
X1571180Y621010D01*
X1570660Y621500D01*
X1570170Y622020D01*
X1569700Y622560D01*
X1569270Y623130D01*
X1568860Y623720D01*
X1568490Y624330D01*
X1568150Y624960D01*
X1567840Y625600D01*
X1567570Y626260D01*
X1567330Y626940D01*
X1567130Y627620D01*
X1566960Y628320D01*
X1566830Y629020D01*
X1566730Y629730D01*
X1566680Y630450D01*
X1566660Y631160D01*
Y944030D01*
X1566640Y944660D01*
X1566580Y945300D01*
X1566490Y945920D01*
X1566350Y946550D01*
X1566180Y947160D01*
X1565980Y947760D01*
X1565730Y948340D01*
X1565460Y948910D01*
X1565140Y949470D01*
X1564800Y950000D01*
X1564420Y950510D01*
X1564020Y951000D01*
X1563580Y951460D01*
X1563350Y951720D01*
X1563140Y952000D01*
X1562960Y952300D01*
X1562810Y952620D01*
X1562690Y952950D01*
X1562610Y953290D01*
X1562560Y953630D01*
X1562540Y953980D01*
Y986630D01*
X1712850Y627810D02*
Y592220D01*
X1712870Y591810D01*
X1712920Y591400D01*
X1713010Y591000D01*
X1713130Y590610D01*
X1713290Y590230D01*
X1713480Y589870D01*
X1713700Y589520D01*
X1713950Y589190D01*
X1714230Y588890D01*
X1714530Y588610D01*
X1714860Y588360D01*
X1715210Y588140D01*
X1715570Y587950D01*
X1715950Y587790D01*
X1716340Y587670D01*
X1716740Y587580D01*
X1717150Y587530D01*
X1717560Y587510D01*
X1717940Y587490D01*
X1718310Y587440D01*
X1718680Y587350D01*
X1719040Y587230D01*
X1719390Y587080D01*
X1719720Y586900D01*
X1720030Y586680D01*
X1720320Y586440D01*
X1720590Y586170D01*
X1720830Y585880D01*
X1721050Y585570D01*
X1721230Y585240D01*
X1721380Y584890D01*
X1721500Y584530D01*
X1721590Y584160D01*
X1721640Y583790D01*
X1721660Y583410D01*
Y554160D01*
X1732530Y627810D02*
Y612890D01*
X1732550Y612140D01*
X1732600Y611380D01*
X1732700Y610630D01*
X1732830Y609890D01*
X1732990Y609150D01*
X1733190Y608430D01*
X1733430Y607710D01*
X1733700Y607000D01*
X1734010Y606310D01*
X1734350Y605640D01*
X1734720Y604980D01*
X1735120Y604350D01*
X1735560Y603730D01*
X1736020Y603130D01*
X1736510Y602560D01*
X1737030Y602010D01*
X1737580Y601490D01*
X1738150Y601000D01*
X1738750Y600540D01*
X1739370Y600100D01*
X1740000Y599700D01*
X1740660Y599330D01*
X1741330Y598990D01*
X1742020Y598680D01*
X1742730Y598410D01*
X1743450Y598170D01*
X1744170Y597970D01*
X1744910Y597810D01*
X1745650Y597680D01*
X1746400Y597580D01*
X1747160Y597530D01*
X1747910Y597510D01*
X1748750Y597490D01*
X1749590Y597430D01*
X1750430Y597340D01*
X1751260Y597210D01*
X1752080Y597040D01*
X1752900Y596830D01*
X1753700Y596590D01*
X1754500Y596310D01*
X1755280Y596000D01*
X1756050Y595650D01*
X1756800Y595270D01*
X1757530Y594860D01*
X1758240Y594410D01*
X1758930Y593930D01*
X1759600Y593420D01*
X1760250Y592880D01*
X1760870Y592310D01*
X1761460Y591720D01*
X1762030Y591100D01*
X1762570Y590450D01*
X1763080Y589780D01*
X1763560Y589090D01*
X1764010Y588380D01*
X1764420Y587650D01*
X1764800Y586900D01*
X1765150Y586130D01*
X1765460Y585350D01*
X1765740Y584550D01*
X1765980Y583750D01*
X1766190Y582930D01*
X1766360Y582110D01*
X1766490Y581280D01*
X1766580Y580440D01*
X1766640Y579600D01*
X1766660Y578760D01*
Y554160D01*
X1772490Y631350D02*
X1813290D01*
X1814180Y631330D01*
X1815060Y631270D01*
X1815940Y631180D01*
X1816820Y631050D01*
X1817690Y630880D01*
X1818550Y630680D01*
X1819400Y630440D01*
X1820240Y630160D01*
X1821070Y629850D01*
X1821890Y629500D01*
X1822690Y629120D01*
X1823470Y628700D01*
X1824230Y628250D01*
X1824980Y627770D01*
X1825700Y627260D01*
X1826400Y626720D01*
X1827080Y626150D01*
X1827730Y625550D01*
X1828360Y624920D01*
X1828960Y624270D01*
X1829530Y623590D01*
X1830070Y622890D01*
X1830580Y622170D01*
X1831060Y621420D01*
X1831510Y620660D01*
X1831930Y619880D01*
X1832310Y619080D01*
X1832660Y618260D01*
X1832970Y617430D01*
X1833250Y616590D01*
X1833490Y615740D01*
X1833690Y614880D01*
X1833860Y614010D01*
X1833990Y613130D01*
X1834080Y612250D01*
X1834140Y611370D01*
X1834160Y610480D01*
Y582310D01*
X1834180Y581370D01*
X1834240Y580430D01*
X1834340Y579490D01*
X1834470Y578560D01*
X1834650Y577630D01*
X1834860Y576710D01*
X1835110Y575800D01*
X1835400Y574900D01*
X1835720Y574020D01*
X1836080Y573150D01*
X1836480Y572290D01*
X1836910Y571450D01*
X1837370Y570630D01*
X1837870Y569830D01*
X1838410Y569060D01*
X1838970Y568300D01*
X1839560Y567570D01*
X1840190Y566860D01*
X1840840Y566180D01*
X1841520Y565530D01*
X1842230Y564900D01*
X1842960Y564310D01*
X1843720Y563750D01*
X1844490Y563210D01*
X1845290Y562710D01*
X1846110Y562250D01*
X1846950Y561820D01*
X1847810Y561420D01*
X1848680Y561060D01*
X1849560Y560740D01*
X1850460Y560450D01*
X1851370Y560200D01*
X1852290Y559990D01*
X1853220Y559810D01*
X1854150Y559680D01*
X1855090Y559580D01*
X1856030Y559520D01*
X1856970Y559510D01*
X2006690D01*
X2007240Y559480D01*
X2007780Y559430D01*
X2008320Y559340D01*
X2008860Y559210D01*
X2009380Y559060D01*
X2009890Y558860D01*
X2010390Y558640D01*
X2010880Y558380D01*
X2011340Y558090D01*
X2011790Y557770D01*
X2012210Y557420D01*
X2012610Y557050D01*
X2012980Y556720D01*
X2013370Y556400D01*
X2013780Y556120D01*
X2014210Y555870D01*
X2014660Y555640D01*
X2015120Y555450D01*
X2015590Y555290D01*
X2016070Y555170D01*
X2016570Y555080D01*
X2017060Y555030D01*
X2017560Y555010D01*
X2089670D01*
X2090150Y555020D01*
X2090620Y555070D01*
X2091090Y555170D01*
X2091550Y555300D01*
X2091990Y555460D01*
X2092430Y555660D01*
X2092840Y555890D01*
X2093240Y556160D01*
X2093610Y556450D01*
X2093960Y556780D01*
X2094290Y557130D01*
X2094580Y557500D01*
X2094850Y557900D01*
X2095080Y558310D01*
X2095280Y558750D01*
X2095440Y559190D01*
X2095570Y559650D01*
X2095670Y560120D01*
X2095720Y560590D01*
X2095730Y561070D01*
Y579690D01*
X1776040Y651630D02*
X1827640D01*
X1828610Y651610D01*
X1829570Y651550D01*
X1830540Y651450D01*
X1831490Y651320D01*
X1832440Y651140D01*
X1833390Y650930D01*
X1834320Y650680D01*
X1835250Y650390D01*
X1836160Y650070D01*
X1837060Y649710D01*
X1837940Y649310D01*
X1838800Y648880D01*
X1839650Y648410D01*
X1840480Y647910D01*
X1841280Y647380D01*
X1842070Y646810D01*
X1842830Y646220D01*
X1843570Y645590D01*
X1844280Y644930D01*
X1844960Y644250D01*
X1845620Y643540D01*
X1846250Y642800D01*
X1846840Y642040D01*
X1847410Y641250D01*
X1847940Y640450D01*
X1848440Y639620D01*
X1848910Y638770D01*
X1849340Y637910D01*
X1849740Y637030D01*
X1850100Y636130D01*
X1850420Y635220D01*
X1850710Y634290D01*
X1850960Y633360D01*
X1851170Y632410D01*
X1851350Y631460D01*
X1851480Y630510D01*
X1851580Y629540D01*
X1851640Y628580D01*
X1851660Y627610D01*
Y592080D01*
X1851680Y591590D01*
X1851740Y591110D01*
X1851830Y590630D01*
X1851960Y590150D01*
X1852130Y589700D01*
X1852340Y589250D01*
X1852580Y588820D01*
X1852850Y588420D01*
X1853150Y588030D01*
X1853480Y587670D01*
X1853840Y587340D01*
X1854230Y587040D01*
X1854630Y586770D01*
X1855060Y586530D01*
X1855510Y586320D01*
X1855960Y586150D01*
X1856440Y586020D01*
X1856920Y585930D01*
X1857400Y585870D01*
X1857890Y585850D01*
X1871660D01*
X1890150D01*
X1890610Y585830D01*
X1891060Y585770D01*
X1891500Y585680D01*
X1891940Y585550D01*
X1892360Y585390D01*
X1892770Y585190D01*
X1893160Y584950D01*
X1893530Y584690D01*
X1893880Y584390D01*
X1894200Y584070D01*
X1894500Y583720D01*
X1894760Y583350D01*
X1895000Y582960D01*
X1895200Y582550D01*
X1895360Y582130D01*
X1895490Y581690D01*
X1895580Y581250D01*
X1895640Y580800D01*
X1895660Y580340D01*
X1895680Y579960D01*
X1895730Y579590D01*
X1895820Y579230D01*
X1895950Y578870D01*
X1896110Y578530D01*
X1896310Y578210D01*
X1896530Y577910D01*
X1896780Y577630D01*
X1897060Y577380D01*
X1897360Y577160D01*
X1897680Y576960D01*
X1898020Y576800D01*
X1898380Y576670D01*
X1898740Y576580D01*
X1899110Y576530D01*
X1899490Y576510D01*
X2010660D01*
X2010930Y576530D01*
X2011200Y576570D01*
X2011460Y576650D01*
X2011710Y576750D01*
X2011940Y576880D01*
X2012160Y577040D01*
X2012360Y577220D01*
X2012770Y577600D01*
X2013210Y577950D01*
X2013670Y578270D01*
X2014150Y578550D01*
X2014650Y578800D01*
X2015160Y579020D01*
X2015690Y579190D01*
X2016240Y579330D01*
X2016790Y579430D01*
X2017340Y579490D01*
X2017900Y579510D01*
X2045730D01*
Y579690D01*
Y529690D02*
X2026660D01*
X2023850Y532510D01*
X2009160D01*
X1776040Y710680D02*
X1815010D01*
X1840000Y710840D01*
X1883300D02*
Y792120D01*
X1883280Y793340D01*
X1883220Y794550D01*
X1883130Y795760D01*
X1882990Y796970D01*
X1882820Y798180D01*
X1882610Y799380D01*
X1882370Y800570D01*
X1882080Y801750D01*
X1881760Y802920D01*
X1881400Y804090D01*
X1881010Y805240D01*
X1880580Y806370D01*
X1880120Y807500D01*
X1879610Y808610D01*
X1879080Y809700D01*
X1878510Y810770D01*
X1877910Y811830D01*
X1877270Y812870D01*
X1876600Y813880D01*
X1875910Y814880D01*
X1875170Y815850D01*
X1874410Y816800D01*
X1873620Y817730D01*
X1872810Y818630D01*
X1871960Y819500D01*
X1871380Y820110D01*
X1870840Y820740D01*
X1870320Y821390D01*
X1869830Y822070D01*
X1869370Y822770D01*
X1868950Y823490D01*
X1868560Y824230D01*
X1868200Y824990D01*
X1867880Y825760D01*
X1867600Y826550D01*
X1867350Y827350D01*
X1867140Y828160D01*
X1866970Y828970D01*
X1866830Y829800D01*
X1866740Y830630D01*
X1866680Y831460D01*
X1866660Y832300D01*
Y957510D01*
X1866450Y974690D01*
X1865840Y991860D01*
X1864810Y1009010D01*
X1863380Y1026130D01*
X1861530Y1043210D01*
X1859280Y1060240D01*
X1856630Y1077210D01*
X1853560Y1094120D01*
X1850100Y1110940D01*
X1846230Y1127680D01*
X1841970Y1144330D01*
X1837310Y1160860D01*
X1832250Y1177280D01*
X1826810Y1193580D01*
X1820970Y1209730D01*
X1814750Y1225750D01*
X1808150Y1241610D01*
X1801180Y1257310D01*
X1793830Y1272840D01*
X1786110Y1288190D01*
X1778030Y1303350D01*
X1769590Y1318310D01*
X1760790Y1333070D01*
X1751640Y1347610D01*
X1742150Y1361930D01*
X1732320Y1376020D01*
X1722150Y1389870D01*
X1711660Y1403470D01*
X1700840Y1416820D01*
X1689710Y1429910D01*
X1678270Y1442720D01*
X1666530Y1455260D01*
X1654490Y1467520D01*
X1642160Y1479480D01*
X1629550Y1491150D01*
X1616660Y1502510D01*
X1610660Y1508350D01*
X1604520Y1514060D01*
X1598250Y1519610D01*
X1591830Y1525000D01*
X1585290Y1530240D01*
X1578620Y1535310D01*
X1571830Y1540220D01*
X1564920Y1544960D01*
X1557900Y1549530D01*
X1550760Y1553930D01*
X1543530Y1558150D01*
X1536180Y1562190D01*
X1528750Y1566040D01*
X1521220Y1569720D01*
X1513600Y1573210D01*
X1505900Y1576510D01*
X1498120Y1579620D01*
X1490260Y1582540D01*
X1482340Y1585270D01*
X1474350Y1587800D01*
X1466300Y1590130D01*
X1458200Y1592270D01*
X1450050Y1594200D01*
X1441850Y1595940D01*
X1433610Y1597470D01*
X1425340Y1598800D01*
X1417030Y1599930D01*
X1408700Y1600860D01*
X1400360Y1601570D01*
X1391990Y1602090D01*
X1383620Y1602400D01*
X1375240Y1602510D01*
X1286660D01*
X1288140Y1603980D01*
Y1620150D01*
X1752220Y734500D02*
X1751900Y799920D01*
X1751910Y801280D01*
X1751970Y802630D01*
X1752060Y803990D01*
X1752190Y805340D01*
X1752350Y806680D01*
X1752560Y808020D01*
X1752800Y809360D01*
X1753090Y810690D01*
X1753410Y812000D01*
X1753770Y813310D01*
X1754160Y814610D01*
X1754590Y815900D01*
X1755060Y817170D01*
X1755570Y818430D01*
X1756110Y819670D01*
X1756690Y820900D01*
X1757300Y822110D01*
X1757950Y823300D01*
X1758630Y824480D01*
X1759340Y825630D01*
X1760090Y826760D01*
X1760860Y827870D01*
X1761670Y828960D01*
X1762510Y830030D01*
X1763390Y831070D01*
X1764290Y832080D01*
X1765220Y833070D01*
X1766170Y834030D01*
X1767160Y834960D01*
X1768170Y835870D01*
X1769200Y836740D01*
X1770260Y837590D01*
X1771350Y838410D01*
X1772450Y839190D01*
X1773580Y839940D01*
X1774730Y840660D01*
X1775910Y841350D01*
X1777090Y842000D01*
X1778300Y842610D01*
X1779530Y843200D01*
X1780770Y843740D01*
X1782030Y844260D01*
X1783300Y844730D01*
X1784580Y845170D01*
X1785870Y845570D01*
X1787180Y845940D01*
X1788500Y846260D01*
X1789820Y846550D01*
X1791160Y846800D01*
X1792500Y847020D01*
X1793840Y847190D01*
X1795190Y847330D01*
X1796540Y847420D01*
X1797900Y847480D01*
X1799250Y847510D01*
X1817660D01*
X1818720Y847530D01*
X1819780Y847590D01*
X1820830Y847680D01*
X1821880Y847820D01*
X1822930Y847990D01*
X1823970Y848200D01*
X1825000Y848450D01*
X1826010Y848740D01*
X1827020Y849060D01*
X1828020Y849420D01*
X1829000Y849820D01*
X1829970Y850250D01*
X1830920Y850720D01*
X1831850Y851220D01*
X1832770Y851760D01*
X1833660Y852320D01*
X1834530Y852920D01*
X1835380Y853560D01*
X1836210Y854220D01*
X1837010Y854910D01*
X1837790Y855630D01*
X1838540Y856380D01*
X1839260Y857160D01*
X1839950Y857960D01*
X1840610Y858790D01*
X1841250Y859640D01*
X1841850Y860510D01*
X1842410Y861400D01*
X1842950Y862320D01*
X1843450Y863250D01*
X1843920Y864200D01*
X1844350Y865170D01*
X1844750Y866150D01*
X1845110Y867150D01*
X1845430Y868160D01*
X1845720Y869170D01*
X1845970Y870200D01*
X1846180Y871240D01*
X1846350Y872290D01*
X1846490Y873340D01*
X1846580Y874390D01*
X1846640Y875450D01*
X1846660Y876510D01*
Y957510D01*
X1846180Y974560D01*
X1845290Y991590D01*
X1843980Y1008600D01*
X1842260Y1025570D01*
X1840130Y1042500D01*
X1837590Y1059370D01*
X1834650Y1076170D01*
X1831290Y1092900D01*
X1827540Y1109540D01*
X1823380Y1126080D01*
X1818820Y1142520D01*
X1813860Y1158840D01*
X1808510Y1175040D01*
X1802770Y1191110D01*
X1796640Y1207030D01*
X1790130Y1222790D01*
X1783230Y1238400D01*
X1775960Y1253830D01*
X1768320Y1269080D01*
X1760310Y1284140D01*
X1751940Y1299000D01*
X1743210Y1313660D01*
X1734130Y1328100D01*
X1724700Y1342320D01*
X1714930Y1356300D01*
X1704820Y1370040D01*
X1694380Y1383530D01*
X1683620Y1396770D01*
X1672540Y1409740D01*
X1661150Y1422440D01*
X1649450Y1434860D01*
X1637460Y1446990D01*
X1625180Y1458830D01*
X1612610Y1470370D01*
X1599770Y1481590D01*
X1586660Y1492510D01*
X1581260Y1497780D01*
X1575740Y1502910D01*
X1570090Y1507910D01*
X1564320Y1512760D01*
X1558430Y1517470D01*
X1552430Y1522040D01*
X1546310Y1526460D01*
X1540100Y1530720D01*
X1533770Y1534840D01*
X1527350Y1538790D01*
X1520840Y1542590D01*
X1514230Y1546230D01*
X1507540Y1549700D01*
X1500760Y1553010D01*
X1493900Y1556150D01*
X1486970Y1559120D01*
X1479970Y1561920D01*
X1472900Y1564550D01*
X1465770Y1567000D01*
X1458580Y1569280D01*
X1451340Y1571380D01*
X1444040Y1573300D01*
X1436710Y1575040D01*
X1429330Y1576610D01*
X1421910Y1577990D01*
X1414470Y1579180D01*
X1406990Y1580200D01*
X1399500Y1581030D01*
X1391980Y1581680D01*
X1384460Y1582140D01*
X1376920Y1582420D01*
X1369380Y1582510D01*
X826870D01*
X819960Y1582430D01*
X813060Y1582180D01*
X806170Y1581770D01*
X799280Y1581200D01*
X792420Y1580460D01*
X785570Y1579560D01*
X778740Y1578490D01*
X771950Y1577270D01*
X765180Y1575880D01*
X758450Y1574330D01*
X751760Y1572620D01*
X745110Y1570750D01*
X738500Y1568730D01*
X731950Y1566550D01*
X725450Y1564210D01*
X719010Y1561720D01*
X712630Y1559080D01*
X706310Y1556280D01*
X700060Y1553340D01*
X693890Y1550250D01*
X687790Y1547010D01*
X681770Y1543630D01*
X675830Y1540100D01*
X669970Y1536440D01*
X664210Y1532640D01*
X658530Y1528700D01*
X652950Y1524630D01*
X647470Y1520420D01*
X642100Y1516090D01*
X636820Y1511630D01*
X631660Y1507040D01*
X626600Y1502330D01*
X621660Y1497510D01*
X608260Y1485010D01*
X595180Y1472180D01*
X582410Y1459040D01*
X569970Y1445590D01*
X557850Y1431850D01*
X546080Y1417810D01*
X534650Y1403490D01*
X523580Y1388890D01*
X512860Y1374030D01*
X502510Y1358910D01*
X492540Y1343540D01*
X482940Y1327940D01*
X473720Y1312100D01*
X464890Y1296050D01*
X456460Y1279780D01*
X448430Y1263310D01*
X440800Y1246660D01*
X433580Y1229820D01*
X426770Y1212810D01*
X420380Y1195640D01*
X414420Y1178310D01*
X408870Y1160850D01*
X403760Y1143260D01*
X399070Y1125540D01*
X394820Y1107720D01*
X391000Y1089800D01*
X387620Y1071800D01*
X384690Y1053710D01*
X382190Y1035560D01*
X380140Y1017350D01*
X378530Y999100D01*
X377370Y980820D01*
X376660Y962510D01*
Y894040D01*
X376680Y893550D01*
X376730Y893070D01*
X376820Y892580D01*
X376950Y892110D01*
X377110Y891650D01*
X377310Y891200D01*
X377540Y890770D01*
X377800Y890360D01*
X378090Y889960D01*
X378410Y889590D01*
X378750Y889250D01*
X379120Y888930D01*
X379520Y888640D01*
X379930Y888380D01*
X380360Y888150D01*
X380810Y887950D01*
X381270Y887790D01*
X381740Y887660D01*
X382230Y887570D01*
X382710Y887520D01*
X383200Y887500D01*
X383750Y887480D01*
X384300Y887430D01*
X384850Y887340D01*
X385390Y887210D01*
X385920Y887050D01*
X386440Y886860D01*
X386940Y886630D01*
X387430Y886370D01*
X387900Y886070D01*
X388350Y885750D01*
X388780Y885400D01*
X389180Y885020D01*
X389560Y884620D01*
X389910Y884190D01*
X390230Y883740D01*
X390530Y883270D01*
X390790Y882780D01*
X391020Y882280D01*
X391210Y881760D01*
X391370Y881230D01*
X391500Y880690D01*
X391590Y880140D01*
X391640Y879590D01*
X391660Y879040D01*
Y589160D01*
X1672890Y730960D02*
X1664400D01*
X1663850Y730980D01*
X1663300Y731040D01*
X1662750Y731140D01*
X1662220Y731270D01*
X1661700Y731450D01*
X1661180Y731660D01*
X1660690Y731910D01*
X1660220Y732190D01*
X1659760Y732500D01*
X1659330Y732850D01*
X1658930Y733230D01*
X1658550Y733630D01*
X1658200Y734060D01*
X1657890Y734520D01*
X1657610Y734990D01*
X1657360Y735480D01*
X1657150Y736000D01*
X1656970Y736520D01*
X1656840Y737050D01*
X1656740Y737600D01*
X1656680Y738150D01*
X1656660Y738700D01*
Y855120D01*
X1656680Y856290D01*
X1656740Y857450D01*
X1656840Y858610D01*
X1656970Y859770D01*
X1657150Y860920D01*
X1657360Y862070D01*
X1657610Y863210D01*
X1657900Y864340D01*
X1658230Y865460D01*
X1658590Y866560D01*
X1658990Y867660D01*
X1659430Y868740D01*
X1659900Y869810D01*
X1660410Y870860D01*
X1660950Y871890D01*
X1661530Y872900D01*
X1662140Y873890D01*
X1662790Y874870D01*
X1663460Y875820D01*
X1664170Y876740D01*
X1664910Y877650D01*
X1665670Y878520D01*
X1666470Y879380D01*
X1667290Y880200D01*
X1668150Y881000D01*
X1669020Y881760D01*
X1669930Y882500D01*
X1670850Y883210D01*
X1671800Y883880D01*
X1672780Y884530D01*
X1673770Y885140D01*
X1674780Y885720D01*
X1675810Y886260D01*
X1676860Y886770D01*
X1677930Y887240D01*
X1679010Y887680D01*
X1680110Y888080D01*
X1681210Y888440D01*
X1682330Y888770D01*
X1683460Y889060D01*
X1684600Y889310D01*
X1685750Y889520D01*
X1686900Y889700D01*
X1688060Y889830D01*
X1689220Y889930D01*
X1690380Y889990D01*
X1691550Y890010D01*
X1738500D01*
X1739550Y890030D01*
X1740600Y890090D01*
X1741650Y890190D01*
X1742700Y890320D01*
X1743740Y890500D01*
X1744770Y890720D01*
X1745790Y890970D01*
X1746800Y891260D01*
X1747800Y891590D01*
X1748790Y891960D01*
X1749760Y892360D01*
X1750720Y892800D01*
X1751660Y893270D01*
X1752580Y893780D01*
X1753480Y894330D01*
X1754360Y894900D01*
X1755220Y895510D01*
X1756060Y896150D01*
X1756870Y896830D01*
X1757650Y897530D01*
X1758410Y898260D01*
X1759140Y899020D01*
X1759840Y899800D01*
X1760520Y900610D01*
X1761160Y901450D01*
X1761770Y902310D01*
X1762340Y903190D01*
X1762890Y904090D01*
X1763400Y905010D01*
X1763870Y905950D01*
X1764310Y906910D01*
X1764710Y907880D01*
X1765080Y908870D01*
X1765410Y909870D01*
X1765700Y910880D01*
X1765950Y911900D01*
X1766170Y912930D01*
X1766350Y913970D01*
X1766480Y915020D01*
X1766580Y916070D01*
X1766640Y917120D01*
X1766660Y918170D01*
Y957510D01*
X1766380Y973240D01*
X1765730Y988970D01*
X1764690Y1004670D01*
X1763270Y1020340D01*
X1761480Y1035970D01*
X1759300Y1051560D01*
X1756740Y1067090D01*
X1753810Y1082550D01*
X1750500Y1097930D01*
X1746810Y1113230D01*
X1742760Y1128440D01*
X1738330Y1143540D01*
X1733540Y1158530D01*
X1728390Y1173400D01*
X1722880Y1188140D01*
X1717010Y1202740D01*
X1710780Y1217190D01*
X1704210Y1231490D01*
X1697290Y1245620D01*
X1690020Y1259580D01*
X1682420Y1273360D01*
X1674490Y1286950D01*
X1666230Y1300340D01*
X1657640Y1313530D01*
X1648740Y1326510D01*
X1639520Y1339260D01*
X1630000Y1351790D01*
X1620170Y1364080D01*
X1610050Y1376130D01*
X1599630Y1387930D01*
X1588940Y1399470D01*
X1577960Y1410740D01*
X1566720Y1421750D01*
X1555200Y1432480D01*
X1543440Y1442930D01*
X1531420Y1453090D01*
X1519150Y1462950D01*
X1506650Y1472510D01*
X1502590Y1476480D01*
X1498430Y1480350D01*
X1494180Y1484130D01*
X1489830Y1487800D01*
X1485400Y1491370D01*
X1480890Y1494830D01*
X1476300Y1498190D01*
X1471630Y1501430D01*
X1466880Y1504560D01*
X1462060Y1507580D01*
X1457160Y1510480D01*
X1452210Y1513270D01*
X1447180Y1515930D01*
X1442100Y1518480D01*
X1436950Y1520900D01*
X1431750Y1523200D01*
X1426490Y1525380D01*
X1421190Y1527430D01*
X1415840Y1529360D01*
X1410440Y1531150D01*
X1405000Y1532820D01*
X1399530Y1534360D01*
X1394010Y1535760D01*
X1388470Y1537040D01*
X1382900Y1538180D01*
X1377300Y1539190D01*
X1371680Y1540070D01*
X1366040Y1540810D01*
X1360390Y1541420D01*
X1354720Y1541890D01*
X1349040Y1542230D01*
X1343360Y1542430D01*
X1337670Y1542510D01*
X873580D01*
X868300Y1542440D01*
X863020Y1542250D01*
X857750Y1541930D01*
X852490Y1541500D01*
X847230Y1540930D01*
X842000Y1540240D01*
X836780Y1539430D01*
X831580Y1538490D01*
X826410Y1537430D01*
X821260Y1536240D01*
X816140Y1534940D01*
X811060Y1533510D01*
X806010Y1531960D01*
X801000Y1530290D01*
X796030Y1528510D01*
X791100Y1526600D01*
X786220Y1524580D01*
X781390Y1522450D01*
X776610Y1520190D01*
X771890Y1517830D01*
X767230Y1515350D01*
X762620Y1512770D01*
X758080Y1510070D01*
X753600Y1507270D01*
X749190Y1504360D01*
X744850Y1501350D01*
X740590Y1498240D01*
X736400Y1495020D01*
X732290Y1491710D01*
X728250Y1488300D01*
X724300Y1484790D01*
X720440Y1481190D01*
X716660Y1477500D01*
X704310Y1468610D01*
X692170Y1459420D01*
X680250Y1449940D01*
X668560Y1440180D01*
X657120Y1430140D01*
X645910Y1419830D01*
X634960Y1409260D01*
X624260Y1398420D01*
X613830Y1387330D01*
X603670Y1376000D01*
X593780Y1364420D01*
X584170Y1352610D01*
X574850Y1340570D01*
X565820Y1328310D01*
X557090Y1315840D01*
X548650Y1303160D01*
X540530Y1290290D01*
X532720Y1277220D01*
X525220Y1263970D01*
X518040Y1250540D01*
X511190Y1236940D01*
X504660Y1223190D01*
X498470Y1209280D01*
X492610Y1195220D01*
X487090Y1181030D01*
X481910Y1166720D01*
X477080Y1152280D01*
X472600Y1137730D01*
X468460Y1123070D01*
X464680Y1108320D01*
X461260Y1093490D01*
X458190Y1078580D01*
X455480Y1063590D01*
X453130Y1048550D01*
X451140Y1033450D01*
X449520Y1018320D01*
X448260Y1003140D01*
X447360Y987940D01*
X446830Y972730D01*
X446660Y957510D01*
Y905580D01*
X446680Y904750D01*
X446740Y903910D01*
X446830Y903080D01*
X446970Y902260D01*
X447140Y901440D01*
X447350Y900630D01*
X447600Y899840D01*
X447880Y899050D01*
X448200Y898280D01*
X448550Y897530D01*
X448940Y896790D01*
X449370Y896070D01*
X449820Y895370D01*
X450310Y894690D01*
X450830Y894040D01*
X451380Y893410D01*
X451950Y892800D01*
X452560Y892230D01*
X453190Y891680D01*
X453840Y891160D01*
X454520Y890670D01*
X455220Y890220D01*
X455940Y889790D01*
X456680Y889400D01*
X457430Y889050D01*
X458200Y888730D01*
X458990Y888450D01*
X459780Y888200D01*
X460590Y887990D01*
X461410Y887820D01*
X462230Y887680D01*
X463060Y887590D01*
X463900Y887530D01*
X464730Y887510D01*
X465540Y887490D01*
X466340Y887430D01*
X467140Y887340D01*
X467930Y887200D01*
X468720Y887030D01*
X469500Y886820D01*
X470270Y886580D01*
X471020Y886300D01*
X471760Y885980D01*
X472490Y885630D01*
X473200Y885240D01*
X473880Y884820D01*
X474550Y884370D01*
X475200Y883890D01*
X475820Y883370D01*
X476410Y882830D01*
X476980Y882260D01*
X477520Y881670D01*
X478040Y881050D01*
X478520Y880400D01*
X478970Y879730D01*
X479390Y879050D01*
X479780Y878340D01*
X480130Y877610D01*
X480450Y876870D01*
X480730Y876120D01*
X480970Y875350D01*
X481180Y874570D01*
X481350Y873780D01*
X481490Y872990D01*
X481580Y872190D01*
X481640Y871390D01*
X481660Y870580D01*
Y589160D01*
X1686660Y790850D02*
Y777750D01*
X1686680Y777130D01*
X1686730Y776520D01*
X1686830Y775900D01*
X1686960Y775300D01*
X1687120Y774700D01*
X1687330Y774120D01*
X1687560Y773550D01*
X1687830Y772990D01*
X1688140Y772450D01*
X1688470Y771930D01*
X1688840Y771430D01*
X1689240Y770960D01*
X1689660Y770510D01*
X1690110Y770090D01*
X1690580Y769690D01*
X1691080Y769320D01*
X1691600Y768990D01*
X1692140Y768680D01*
X1692700Y768410D01*
X1693270Y768180D01*
X1693850Y767970D01*
X1694450Y767810D01*
X1695050Y767680D01*
X1695670Y767580D01*
X1696280Y767530D01*
X1696900Y767510D01*
X1698870D01*
X1699600Y767490D01*
X1700330Y767430D01*
X1701060Y767340D01*
X1701780Y767200D01*
X1702490Y767030D01*
X1703190Y766830D01*
X1703880Y766580D01*
X1704560Y766300D01*
X1705220Y765990D01*
X1705860Y765640D01*
X1706480Y765250D01*
X1707090Y764840D01*
X1707670Y764390D01*
X1708220Y763920D01*
X1708760Y763420D01*
X1709260Y762880D01*
X1709730Y762330D01*
X1710180Y761750D01*
X1710590Y761140D01*
X1710980Y760520D01*
X1711330Y759880D01*
X1711640Y759220D01*
X1711920Y758540D01*
X1712170Y757850D01*
X1712370Y757150D01*
X1712540Y756440D01*
X1712680Y755720D01*
X1712770Y754990D01*
X1712830Y754260D01*
X1712850Y753530D01*
Y734500D01*
X1732530D02*
Y790850D01*
X1731660D01*
X1681660Y510850D02*
Y474580D01*
X1681640Y473770D01*
X1681580Y472960D01*
X1681490Y472150D01*
X1681350Y471350D01*
X1681180Y470560D01*
X1680970Y469770D01*
X1680720Y469000D01*
X1680440Y468240D01*
X1680120Y467490D01*
X1679760Y466760D01*
X1679370Y466050D01*
X1678950Y465350D01*
X1678490Y464680D01*
X1678010Y464030D01*
X1677490Y463400D01*
X1676940Y462800D01*
X1676370Y462230D01*
X1675770Y461680D01*
X1675140Y461160D01*
X1674490Y460680D01*
X1673820Y460220D01*
X1673130Y459800D01*
X1672410Y459410D01*
X1671680Y459050D01*
X1670930Y458730D01*
X1670170Y458450D01*
X1669400Y458200D01*
X1668610Y457990D01*
X1667820Y457820D01*
X1667020Y457680D01*
X1666210Y457590D01*
X1665400Y457530D01*
X1664590Y457510D01*
X1588600D01*
X1587690Y457530D01*
X1586790Y457580D01*
X1585890Y457680D01*
X1584990Y457810D01*
X1584100Y457980D01*
X1583210Y458180D01*
X1582340Y458420D01*
X1581480Y458700D01*
X1580620Y459010D01*
X1579790Y459360D01*
X1578960Y459740D01*
X1578160Y460150D01*
X1577370Y460600D01*
X1576600Y461080D01*
X1575850Y461590D01*
X1575120Y462140D01*
X1574420Y462710D01*
X1573740Y463310D01*
X1573090Y463940D01*
X1572460Y464590D01*
X1571860Y465270D01*
X1571290Y465970D01*
X1570740Y466700D01*
X1570230Y467450D01*
X1569750Y468220D01*
X1569300Y469010D01*
X1568890Y469810D01*
X1568510Y470640D01*
X1568160Y471470D01*
X1567850Y472330D01*
X1567570Y473190D01*
X1567330Y474060D01*
X1567130Y474950D01*
X1566960Y475840D01*
X1566830Y476740D01*
X1566730Y477640D01*
X1566680Y478540D01*
X1566660Y479450D01*
Y592510D01*
X1566680Y592950D01*
X1566740Y593380D01*
X1566830Y593800D01*
X1566960Y594220D01*
X1567130Y594620D01*
X1567330Y595010D01*
X1567560Y595380D01*
X1567830Y595720D01*
X1568120Y596050D01*
X1568450Y596340D01*
X1568790Y596610D01*
X1569160Y596840D01*
X1569550Y597040D01*
X1569950Y597210D01*
X1570370Y597340D01*
X1570790Y597430D01*
X1571220Y597490D01*
X1571660Y597510D01*
X1581660D01*
Y597030D01*
X1766660Y510850D02*
Y473200D01*
X1766640Y472030D01*
X1766580Y470870D01*
X1766490Y469700D01*
X1766350Y468540D01*
X1766180Y467380D01*
X1765970Y466240D01*
X1765730Y465090D01*
X1765440Y463960D01*
X1765120Y462840D01*
X1764770Y461720D01*
X1764370Y460620D01*
X1763940Y459540D01*
X1763480Y458470D01*
X1762980Y457410D01*
X1762440Y456370D01*
X1761880Y455350D01*
X1761280Y454350D01*
X1760640Y453370D01*
X1759980Y452410D01*
X1759280Y451470D01*
X1758560Y450550D01*
X1757800Y449660D01*
X1757020Y448800D01*
X1756200Y447960D01*
X1755360Y447140D01*
X1754500Y446360D01*
X1753610Y445600D01*
X1752690Y444880D01*
X1751750Y444180D01*
X1750790Y443520D01*
X1749810Y442880D01*
X1748810Y442280D01*
X1747790Y441720D01*
X1746750Y441180D01*
X1745690Y440680D01*
X1744620Y440220D01*
X1743540Y439790D01*
X1742440Y439390D01*
X1741320Y439040D01*
X1740200Y438720D01*
X1739070Y438430D01*
X1737920Y438190D01*
X1736780Y437980D01*
X1735620Y437810D01*
X1734460Y437670D01*
X1733290Y437580D01*
X1732130Y437520D01*
X1730960Y437510D01*
X1585150D01*
X1583920Y437530D01*
X1582680Y437590D01*
X1581450Y437690D01*
X1580230Y437830D01*
X1579010Y438000D01*
X1577790Y438220D01*
X1576590Y438480D01*
X1575390Y438770D01*
X1574200Y439100D01*
X1573020Y439470D01*
X1571860Y439880D01*
X1570710Y440320D01*
X1569570Y440800D01*
X1568450Y441320D01*
X1567350Y441870D01*
X1566260Y442460D01*
X1565200Y443090D01*
X1564150Y443740D01*
X1563130Y444430D01*
X1562130Y445150D01*
X1561150Y445910D01*
X1560200Y446690D01*
X1559270Y447510D01*
X1558370Y448350D01*
X1557500Y449220D01*
X1556660Y450120D01*
X1555840Y451050D01*
X1555060Y452000D01*
X1554300Y452980D01*
X1553580Y453980D01*
X1552890Y455000D01*
X1552240Y456050D01*
X1551610Y457110D01*
X1551020Y458200D01*
X1550470Y459300D01*
X1549950Y460420D01*
X1549470Y461560D01*
X1549030Y462710D01*
X1548620Y463870D01*
X1548250Y465050D01*
X1547920Y466240D01*
X1547630Y467440D01*
X1547370Y468640D01*
X1547150Y469860D01*
X1546980Y471080D01*
X1546840Y472300D01*
X1546740Y473530D01*
X1546680Y474770D01*
X1546660Y476000D01*
Y920880D01*
X1546640Y922730D01*
X1546570Y924580D01*
X1546460Y926430D01*
X1546300Y928270D01*
X1546100Y930120D01*
X1545860Y931950D01*
X1545570Y933780D01*
X1545230Y935600D01*
X1544850Y937410D01*
X1544430Y939220D01*
X1543970Y941010D01*
X1543460Y942790D01*
X1542910Y944560D01*
X1542320Y946310D01*
X1541680Y948050D01*
X1541000Y949770D01*
X1540280Y951480D01*
X1539520Y953170D01*
X1538720Y954840D01*
X1537880Y956490D01*
X1537000Y958120D01*
X1536080Y959720D01*
X1535130Y961310D01*
X1534130Y962870D01*
X1533100Y964410D01*
X1532030Y965920D01*
X1530920Y967400D01*
X1529780Y968860D01*
X1528600Y970290D01*
X1527390Y971690D01*
X1526150Y973060D01*
X1524870Y974400D01*
X1523560Y975710D01*
X1522220Y976990D01*
X1520850Y978230D01*
X1519450Y979440D01*
X1518020Y980620D01*
X1516560Y981760D01*
X1515080Y982870D01*
X1513570Y983940D01*
X1512030Y984970D01*
X1510470Y985970D01*
X1508880Y986920D01*
X1507280Y987840D01*
X1505650Y988720D01*
X1504000Y989560D01*
X1502330Y990360D01*
X1500640Y991120D01*
X1498930Y991840D01*
X1497210Y992520D01*
X1495470Y993160D01*
X1493720Y993750D01*
X1491950Y994300D01*
X1490170Y994810D01*
X1488380Y995270D01*
X1486570Y995690D01*
X1484760Y996070D01*
X1482940Y996410D01*
X1481110Y996700D01*
X1479280Y996940D01*
X1477430Y997140D01*
X1475590Y997300D01*
X1473740Y997410D01*
X1471890Y997480D01*
X1470040Y997510D01*
X749940D01*
X748290Y997480D01*
X746640Y997420D01*
X744990Y997320D01*
X743350Y997180D01*
X741710Y997000D01*
X740070Y996780D01*
X738440Y996530D01*
X736820Y996230D01*
X735210Y995890D01*
X733600Y995520D01*
X732000Y995100D01*
X730420Y994650D01*
X728840Y994160D01*
X727280Y993630D01*
X725730Y993060D01*
X724190Y992460D01*
X722670Y991820D01*
X721170Y991140D01*
X719680Y990430D01*
X718210Y989680D01*
X716760Y988890D01*
X715320Y988080D01*
X713910Y987220D01*
X712520Y986330D01*
X711150Y985410D01*
X709810Y984460D01*
X708480Y983470D01*
X707180Y982460D01*
X705910Y981410D01*
X704660Y980330D01*
X703440Y979220D01*
X702250Y978080D01*
X701080Y976910D01*
X699940Y975720D01*
X698830Y974500D01*
X697750Y973250D01*
X696700Y971980D01*
X695690Y970680D01*
X694700Y969350D01*
X693750Y968010D01*
X692830Y966640D01*
X691940Y965250D01*
X691080Y963840D01*
X690270Y962400D01*
X689480Y960950D01*
X688730Y959480D01*
X688020Y957990D01*
X687340Y956490D01*
X686700Y954970D01*
X686100Y953430D01*
X685530Y951880D01*
X685000Y950320D01*
X684510Y948740D01*
X684060Y947160D01*
X683640Y945560D01*
X683270Y943950D01*
X682930Y942340D01*
X682630Y940720D01*
X682380Y939090D01*
X682160Y937450D01*
X681980Y935810D01*
X681840Y934170D01*
X681740Y932520D01*
X681680Y930870D01*
X681660Y929220D01*
Y537510D01*
X641660D01*
D01*
X636660D01*
X1811660Y510850D02*
Y353860D01*
X1811640Y352260D01*
X1811580Y350650D01*
X1811490Y349050D01*
X1811350Y347460D01*
X1811180Y345860D01*
X1810960Y344270D01*
X1810710Y342690D01*
X1810420Y341110D01*
X1810100Y339540D01*
X1809730Y337980D01*
X1809330Y336430D01*
X1808890Y334890D01*
X1808410Y333360D01*
X1807900Y331840D01*
X1807350Y330330D01*
X1806760Y328840D01*
X1806140Y327360D01*
X1805480Y325900D01*
X1804790Y324450D01*
X1804060Y323030D01*
X1803300Y321620D01*
X1802500Y320220D01*
X1801670Y318850D01*
X1800810Y317500D01*
X1799910Y316170D01*
X1798990Y314860D01*
X1798030Y313570D01*
X1797040Y312310D01*
X1796020Y311070D01*
X1794970Y309860D01*
X1793900Y308670D01*
X1792790Y307510D01*
X1791660Y306380D01*
X1790500Y305270D01*
X1789310Y304200D01*
X1788100Y303150D01*
X1786860Y302130D01*
X1785600Y301140D01*
X1784310Y300180D01*
X1783000Y299260D01*
X1781670Y298360D01*
X1780320Y297500D01*
X1778950Y296670D01*
X1777550Y295870D01*
X1776140Y295110D01*
X1774720Y294380D01*
X1773270Y293690D01*
X1771810Y293030D01*
X1770330Y292410D01*
X1768840Y291820D01*
X1767330Y291270D01*
X1765810Y290760D01*
X1764280Y290280D01*
X1762740Y289840D01*
X1761190Y289440D01*
X1759630Y289070D01*
X1758060Y288750D01*
X1756480Y288460D01*
X1754900Y288210D01*
X1753310Y287990D01*
X1751710Y287820D01*
X1750120Y287680D01*
X1748520Y287590D01*
X1746910Y287530D01*
X1745310Y287510D01*
X1620530D01*
X1619310Y287480D01*
X1618090Y287420D01*
X1616870Y287330D01*
X1615660Y287190D01*
X1614450Y287020D01*
X1613250Y286810D01*
X1612050Y286560D01*
X1610860Y286280D01*
X1609690Y285960D01*
X1608520Y285600D01*
X1607360Y285200D01*
X1606220Y284770D01*
X1605090Y284300D01*
X1603980Y283800D01*
X1602880Y283260D01*
X1601800Y282690D01*
X1600740Y282090D01*
X1599700Y281450D01*
X1598680Y280780D01*
X1597680Y280080D01*
X1596710Y279340D01*
X1595750Y278580D01*
X1594820Y277790D01*
X1593920Y276970D01*
X1593040Y276120D01*
X1592190Y275240D01*
X1591370Y274340D01*
X1590580Y273410D01*
X1589820Y272450D01*
X1589080Y271480D01*
X1588380Y270480D01*
X1587710Y269460D01*
X1587070Y268420D01*
X1586470Y267360D01*
X1585900Y266280D01*
X1585360Y265180D01*
X1584860Y264070D01*
X1584390Y262940D01*
X1583960Y261800D01*
X1583560Y260640D01*
X1583200Y259470D01*
X1582880Y258300D01*
X1582600Y257110D01*
X1582350Y255910D01*
X1582140Y254710D01*
X1581970Y253500D01*
X1581830Y252290D01*
X1581740Y251070D01*
X1581680Y249850D01*
X1581660Y248630D01*
Y197030D01*
Y195010D01*
X1287540Y148390D02*
X1286660D01*
Y133630D01*
X1286640Y132840D01*
X1286580Y132050D01*
X1286490Y131260D01*
X1286350Y130490D01*
X1286180Y129710D01*
X1285970Y128950D01*
X1285720Y128200D01*
X1285430Y127460D01*
X1285110Y126740D01*
X1284760Y126030D01*
X1284370Y125340D01*
X1283940Y124670D01*
X1283490Y124030D01*
X1283000Y123400D01*
X1282480Y122800D01*
X1281940Y122230D01*
X1281370Y121690D01*
X1280770Y121170D01*
X1280140Y120680D01*
X1279500Y120230D01*
X1278830Y119800D01*
X1278140Y119410D01*
X1277430Y119060D01*
X1276710Y118740D01*
X1275970Y118450D01*
X1275220Y118200D01*
X1274460Y117990D01*
X1273680Y117820D01*
X1272910Y117680D01*
X1272120Y117590D01*
X1271330Y117530D01*
X1270540Y117510D01*
X1045200D01*
X1044640Y117480D01*
X1044090Y117430D01*
X1043540Y117340D01*
X1042990Y117210D01*
X1042460Y117050D01*
X1041940Y116850D01*
X1041430Y116620D01*
X1040940Y116360D01*
X1040460Y116060D01*
X1040010Y115740D01*
X1039580Y115380D01*
X1039170Y115000D01*
X1038790Y114590D01*
X1038430Y114160D01*
X1038110Y113710D01*
X1037810Y113240D01*
X1037550Y112740D01*
X1037320Y112230D01*
X1037120Y111710D01*
X1036960Y111180D01*
X1036830Y110630D01*
X1036740Y110080D01*
X1036690Y109530D01*
X1036670Y108970D01*
X1036650Y107620D01*
X1036590Y106270D01*
X1036490Y104920D01*
X1036360Y103580D01*
X1036180Y102240D01*
X1035960Y100900D01*
X1035710Y99570D01*
X1035420Y98250D01*
X1035090Y96940D01*
X1034720Y95640D01*
X1034310Y94350D01*
X1033870Y93080D01*
X1033390Y91810D01*
X1032870Y90560D01*
X1032320Y89330D01*
X1031730Y88110D01*
X1031100Y86920D01*
X1030440Y85730D01*
X1029750Y84570D01*
X1029030Y83430D01*
X1028270Y82320D01*
X1027470Y81220D01*
X1026650Y80150D01*
X1025800Y79100D01*
X1024910Y78080D01*
X1024000Y77080D01*
X1023060Y76110D01*
X1022090Y75170D01*
X1021090Y74260D01*
X1020070Y73370D01*
X1019020Y72520D01*
X1017950Y71700D01*
X1016850Y70900D01*
X1015740Y70140D01*
X1014600Y69420D01*
X1013430Y68730D01*
X1012250Y68070D01*
X1011060Y67440D01*
X1009840Y66850D01*
X1008610Y66300D01*
X1007360Y65780D01*
X1006090Y65300D01*
X1004820Y64860D01*
X1003530Y64450D01*
X1002230Y64080D01*
X1000920Y63750D01*
X999600Y63460D01*
X998270Y63210D01*
X996930Y62990D01*
X995590Y62810D01*
X994250Y62680D01*
X992900Y62580D01*
X991550Y62520D01*
X990200Y62510D01*
X723910D01*
X721260Y62540D01*
X718610Y62640D01*
X715960Y62800D01*
X713320Y63030D01*
X710680Y63320D01*
X708060Y63680D01*
X705440Y64100D01*
X702830Y64590D01*
X700240Y65140D01*
X697660Y65750D01*
X695090Y66420D01*
X692550Y67160D01*
X690020Y67960D01*
X687510Y68830D01*
X685030Y69750D01*
X682560Y70730D01*
X680130Y71780D01*
X677720Y72880D01*
X675330Y74050D01*
X672980Y75270D01*
X670660Y76550D01*
X668370Y77880D01*
X666110Y79270D01*
X663890Y80720D01*
X661700Y82220D01*
X659550Y83770D01*
X657440Y85380D01*
X655370Y87030D01*
X653340Y88740D01*
X651350Y90500D01*
X649410Y92300D01*
X647510Y94150D01*
X641470Y100190D01*
X640310Y101380D01*
X639180Y102600D01*
X638080Y103840D01*
X637020Y105110D01*
X635980Y106410D01*
X634970Y107730D01*
X634000Y109080D01*
X633060Y110450D01*
X632160Y111840D01*
X631280Y113250D01*
X630450Y114690D01*
X629650Y116140D01*
X628880Y117610D01*
X628160Y119110D01*
X627460Y120620D01*
X626810Y122140D01*
X626190Y123680D01*
X625610Y125240D01*
X625070Y126810D01*
X624570Y128390D01*
X624110Y129990D01*
X623690Y131590D01*
X623300Y133210D01*
X622960Y134830D01*
X622660Y136460D01*
X622390Y138100D01*
X622170Y139750D01*
X621990Y141400D01*
X621840Y143050D01*
X621740Y144710D01*
X621680Y146370D01*
X621660Y148030D01*
Y315190D01*
X621640Y316470D01*
X621580Y317750D01*
X621490Y319020D01*
X621350Y320290D01*
X621180Y321560D01*
X620970Y322820D01*
X620720Y324070D01*
X620430Y325320D01*
X620110Y326550D01*
X619740Y327780D01*
X619350Y328990D01*
X618910Y330200D01*
X618440Y331390D01*
X617930Y332560D01*
X617390Y333720D01*
X616810Y334860D01*
X616200Y335980D01*
X615560Y337080D01*
X614880Y338170D01*
X614170Y339230D01*
X613430Y340270D01*
X612650Y341290D01*
X611850Y342280D01*
X611020Y343250D01*
X610150Y344200D01*
X609260Y345110D01*
X608350Y346000D01*
X607400Y346870D01*
X606430Y347700D01*
X605440Y348500D01*
X604420Y349280D01*
X603380Y350020D01*
X602320Y350730D01*
X601230Y351410D01*
X600130Y352050D01*
X599010Y352660D01*
X597870Y353240D01*
X596710Y353780D01*
X595540Y354290D01*
X594350Y354760D01*
X593140Y355200D01*
X591930Y355590D01*
X590700Y355960D01*
X589470Y356280D01*
X588220Y356570D01*
X586970Y356820D01*
X585710Y357030D01*
X584440Y357200D01*
X583170Y357340D01*
X581900Y357430D01*
X580620Y357490D01*
X579340Y357510D01*
X450390D01*
X447880Y357540D01*
X445380Y357630D01*
X442880Y357780D01*
X440380Y357990D01*
X437890Y358270D01*
X435400Y358600D01*
X432930Y358990D01*
X430460Y359440D01*
X428010Y359950D01*
X425570Y360520D01*
X423140Y361150D01*
X420730Y361840D01*
X418340Y362590D01*
X415960Y363390D01*
X413610Y364250D01*
X411270Y365170D01*
X408960Y366140D01*
X406680Y367170D01*
X404420Y368250D01*
X402180Y369390D01*
X399980Y370580D01*
X397800Y371830D01*
X395660Y373120D01*
X393540Y374470D01*
X391460Y375870D01*
X389420Y377320D01*
X387410Y378820D01*
X385440Y380360D01*
X383500Y381960D01*
X381600Y383600D01*
X379750Y385280D01*
X377930Y387010D01*
X376160Y388780D01*
X374430Y390600D01*
X372750Y392450D01*
X371110Y394350D01*
X369510Y396290D01*
X367970Y398260D01*
X366470Y400270D01*
X365020Y402310D01*
X363620Y404390D01*
X362270Y406510D01*
X360980Y408650D01*
X359730Y410830D01*
X358540Y413030D01*
X357400Y415270D01*
X356320Y417530D01*
X355290Y419810D01*
X354320Y422120D01*
X353400Y424460D01*
X352540Y426810D01*
X351740Y429190D01*
X350990Y431580D01*
X350300Y433990D01*
X349670Y436420D01*
X349100Y438860D01*
X348590Y441310D01*
X348140Y443780D01*
X347750Y446250D01*
X347420Y448740D01*
X347140Y451230D01*
X346930Y453730D01*
X346780Y456230D01*
X346690Y458730D01*
X346660Y461240D01*
Y545850D01*
X1811660Y554160D02*
Y582510D01*
X1811640Y583490D01*
X1811580Y584470D01*
X1811490Y585450D01*
X1811350Y586420D01*
X1811180Y587390D01*
X1810970Y588350D01*
X1810720Y589300D01*
X1810440Y590240D01*
X1810110Y591160D01*
X1809760Y592080D01*
X1809360Y592980D01*
X1808940Y593860D01*
X1808470Y594730D01*
X1807980Y595570D01*
X1807450Y596400D01*
X1806890Y597200D01*
X1806290Y597990D01*
X1805670Y598750D01*
X1805020Y599480D01*
X1804340Y600190D01*
X1803630Y600870D01*
X1802900Y601520D01*
X1802140Y602140D01*
X1801350Y602740D01*
X1800550Y603300D01*
X1799720Y603830D01*
X1798880Y604320D01*
X1798010Y604790D01*
X1797130Y605210D01*
X1796230Y605610D01*
X1795310Y605960D01*
X1794390Y606290D01*
X1793450Y606570D01*
X1792500Y606820D01*
X1791540Y607030D01*
X1790570Y607200D01*
X1789600Y607340D01*
X1788620Y607430D01*
X1787640Y607490D01*
X1786660Y607510D01*
X1759280D01*
X1758780Y607530D01*
X1758280Y607580D01*
X1757780Y607670D01*
X1757290Y607800D01*
X1756810Y607960D01*
X1756350Y608150D01*
X1755900Y608370D01*
X1755460Y608630D01*
X1755050Y608920D01*
X1754660Y609230D01*
X1754290Y609580D01*
X1753940Y609950D01*
X1753630Y610340D01*
X1753340Y610750D01*
X1753080Y611190D01*
X1752860Y611640D01*
X1752670Y612100D01*
X1752510Y612580D01*
X1752380Y613070D01*
X1752290Y613570D01*
X1752240Y614070D01*
X1752220Y614570D01*
Y627810D01*
X1082130Y1037510D02*
X1081660D01*
Y1053760D01*
X1081680Y1054600D01*
X1081740Y1055440D01*
X1081830Y1056280D01*
X1081960Y1057110D01*
X1082130Y1057930D01*
X1082340Y1058750D01*
X1082580Y1059550D01*
X1082860Y1060350D01*
X1083170Y1061130D01*
X1083520Y1061900D01*
X1083900Y1062650D01*
X1084310Y1063380D01*
X1084760Y1064090D01*
X1085240Y1064780D01*
X1085750Y1065450D01*
X1086290Y1066100D01*
X1086860Y1066720D01*
X1087450Y1067310D01*
X1088070Y1067880D01*
X1088720Y1068420D01*
X1089390Y1068930D01*
X1090080Y1069410D01*
X1090790Y1069860D01*
X1091520Y1070270D01*
X1092270Y1070650D01*
X1093040Y1071000D01*
X1093820Y1071310D01*
X1094620Y1071590D01*
X1095420Y1071830D01*
X1096240Y1072040D01*
X1097060Y1072210D01*
X1097890Y1072340D01*
X1098730Y1072430D01*
X1099570Y1072490D01*
X1100410Y1072510D01*
X1482670D01*
X1485550Y1072480D01*
X1488420Y1072370D01*
X1491290Y1072200D01*
X1494150Y1071950D01*
X1497010Y1071640D01*
X1499860Y1071260D01*
X1502700Y1070810D01*
X1505530Y1070290D01*
X1508350Y1069710D01*
X1511150Y1069050D01*
X1513930Y1068330D01*
X1516690Y1067540D01*
X1519440Y1066690D01*
X1522160Y1065760D01*
X1524860Y1064780D01*
X1527540Y1063730D01*
X1530190Y1062610D01*
X1532810Y1061430D01*
X1535410Y1060190D01*
X1537970Y1058880D01*
X1540500Y1057510D01*
X1542990Y1056090D01*
X1545450Y1054600D01*
X1547880Y1053050D01*
X1550260Y1051450D01*
X1552610Y1049780D01*
X1554920Y1048070D01*
X1557180Y1046290D01*
X1559400Y1044470D01*
X1561570Y1042590D01*
X1563700Y1040650D01*
X1565790Y1038670D01*
X1567820Y1036640D01*
X1569800Y1034550D01*
X1571740Y1032420D01*
X1573620Y1030250D01*
X1575440Y1028030D01*
X1577220Y1025770D01*
X1578930Y1023460D01*
X1580600Y1021110D01*
X1582200Y1018730D01*
X1583750Y1016300D01*
X1585240Y1013840D01*
X1586660Y1011350D01*
X1588030Y1008820D01*
X1589340Y1006260D01*
X1590580Y1003660D01*
X1591760Y1001040D01*
X1592880Y998390D01*
X1593930Y995710D01*
X1594910Y993010D01*
X1595840Y990290D01*
X1596690Y987540D01*
X1597480Y984780D01*
X1598200Y982000D01*
X1598860Y979200D01*
X1599440Y976380D01*
X1599960Y973550D01*
X1600410Y970710D01*
X1600790Y967860D01*
X1601100Y965000D01*
X1601350Y962140D01*
X1601520Y959270D01*
X1601630Y956400D01*
X1601660Y953520D01*
Y714160D01*
X422680Y1121030D02*
X419300D01*
X431660Y1137510D01*
X436820Y1154130D01*
X442390Y1170620D01*
X448370Y1186980D01*
X454740Y1203180D01*
X461500Y1219220D01*
X468650Y1235090D01*
X476190Y1250790D01*
X484110Y1266290D01*
X492410Y1281600D01*
X501080Y1296690D01*
X510110Y1311580D01*
X519510Y1326230D01*
X529260Y1340660D01*
X539360Y1354840D01*
X549800Y1368770D01*
X560580Y1382440D01*
X571690Y1395840D01*
X583130Y1408970D01*
X594880Y1421810D01*
X606950Y1434360D01*
X619310Y1446620D01*
X631970Y1458560D01*
X644920Y1470200D01*
X658160Y1481520D01*
X671660Y1492510D01*
X677030Y1497880D01*
X681510Y1502240D01*
X686090Y1506490D01*
X690770Y1510640D01*
X695560Y1514660D01*
X700440Y1518570D01*
X705420Y1522360D01*
X710480Y1526020D01*
X715640Y1529560D01*
X720880Y1532970D01*
X726210Y1536250D01*
X731610Y1539400D01*
X737090Y1542410D01*
X742640Y1545290D01*
X748260Y1548040D01*
X753940Y1550640D01*
X759690Y1553100D01*
X765500Y1555430D01*
X771360Y1557610D01*
X777270Y1559640D01*
X783240Y1561530D01*
X789240Y1563270D01*
X795290Y1564860D01*
X801370Y1566310D01*
X807490Y1567600D01*
X813640Y1568750D01*
X819810Y1569740D01*
X826010Y1570580D01*
X832230Y1571270D01*
X838460Y1571810D01*
X844700Y1572190D01*
X850950Y1572420D01*
X857200Y1572510D01*
X1349250D01*
X1356150Y1572430D01*
X1363050Y1572170D01*
X1369940Y1571750D01*
X1376820Y1571160D01*
X1383680Y1570410D01*
X1390520Y1569480D01*
X1397330Y1568390D01*
X1404120Y1567130D01*
X1410880Y1565710D01*
X1417590Y1564130D01*
X1424270Y1562380D01*
X1430900Y1560460D01*
X1437490Y1558390D01*
X1444020Y1556150D01*
X1450490Y1553760D01*
X1456910Y1551210D01*
X1463260Y1548510D01*
X1469540Y1545650D01*
X1475750Y1542630D01*
X1481890Y1539470D01*
X1487940Y1536160D01*
X1493910Y1532700D01*
X1499800Y1529090D01*
X1505600Y1525350D01*
X1511300Y1521460D01*
X1516910Y1517440D01*
X1522420Y1513270D01*
X1527820Y1508980D01*
X1533120Y1504560D01*
X1538310Y1500000D01*
X1543390Y1495330D01*
X1551660Y1487510D01*
X1564330Y1476540D01*
X1576720Y1465280D01*
X1588830Y1453720D01*
X1600660Y1441870D01*
X1612200Y1429730D01*
X1623440Y1417320D01*
X1634380Y1404640D01*
X1645000Y1391700D01*
X1655310Y1378510D01*
X1665300Y1365070D01*
X1674960Y1351390D01*
X1684280Y1337480D01*
X1693270Y1323350D01*
X1701910Y1309000D01*
X1710200Y1294450D01*
X1718130Y1279710D01*
X1725710Y1264770D01*
X1732920Y1249660D01*
X1739760Y1234380D01*
X1746230Y1218930D01*
X1752320Y1203330D01*
X1758030Y1187590D01*
X1763360Y1171720D01*
X1768300Y1155720D01*
X1772860Y1139610D01*
X1777020Y1123390D01*
X1780790Y1107070D01*
X1784160Y1090670D01*
X1787130Y1074190D01*
X1789710Y1057640D01*
X1791880Y1041040D01*
X1793640Y1024390D01*
X1795010Y1007700D01*
X1795970Y990980D01*
X1796520Y974250D01*
X1796660Y957510D01*
Y912820D01*
X1796640Y911390D01*
X1796580Y909960D01*
X1796490Y908530D01*
X1796350Y907110D01*
X1796180Y905690D01*
X1795960Y904280D01*
X1795710Y902870D01*
X1795430Y901470D01*
X1795100Y900070D01*
X1794740Y898690D01*
X1794330Y897320D01*
X1793900Y895960D01*
X1793420Y894610D01*
X1792910Y893270D01*
X1792360Y891950D01*
X1791780Y890650D01*
X1791160Y889360D01*
X1790510Y888080D01*
X1789820Y886830D01*
X1789100Y885590D01*
X1788350Y884380D01*
X1787560Y883180D01*
X1786740Y882010D01*
X1785890Y880860D01*
X1785010Y879730D01*
X1784100Y878630D01*
X1783160Y877550D01*
X1782190Y876500D01*
X1781190Y875480D01*
X1780170Y874480D01*
X1779120Y873510D01*
X1778040Y872570D01*
X1776940Y871660D01*
X1775810Y870780D01*
X1774660Y869930D01*
X1773490Y869110D01*
X1772290Y868320D01*
X1771080Y867570D01*
X1769840Y866850D01*
X1768590Y866160D01*
X1767310Y865510D01*
X1766020Y864890D01*
X1764720Y864310D01*
X1763400Y863760D01*
X1762060Y863250D01*
X1760710Y862770D01*
X1759350Y862340D01*
X1757980Y861930D01*
X1756600Y861570D01*
X1755200Y861240D01*
X1753800Y860960D01*
X1752390Y860710D01*
X1750980Y860490D01*
X1749560Y860320D01*
X1748140Y860180D01*
X1746710Y860090D01*
X1745280Y860030D01*
X1743850Y860010D01*
X1743170Y859990D01*
X1742490Y859930D01*
X1741810Y859840D01*
X1741140Y859700D01*
X1740480Y859530D01*
X1739820Y859330D01*
X1739190Y859080D01*
X1738560Y858800D01*
X1737950Y858490D01*
X1737360Y858140D01*
X1736800Y857760D01*
X1736250Y857350D01*
X1735730Y856910D01*
X1735230Y856440D01*
X1734760Y855940D01*
X1734320Y855420D01*
X1733910Y854870D01*
X1733530Y854310D01*
X1733180Y853720D01*
X1732870Y853110D01*
X1732590Y852480D01*
X1732340Y851850D01*
X1732140Y851190D01*
X1731970Y850530D01*
X1731830Y849860D01*
X1731740Y849180D01*
X1731680Y848500D01*
X1731660Y847820D01*
Y834160D01*
X594660Y1421510D02*
X585640Y1430130D01*
X1286660Y1602510D02*
X940660D01*
X940270Y1602530D01*
X939880Y1602590D01*
X939500Y1602680D01*
X939130Y1602810D01*
X938770Y1602980D01*
X938440Y1603180D01*
X938120Y1603420D01*
X937830Y1603680D01*
X937570Y1603970D01*
X937330Y1604290D01*
X937130Y1604620D01*
X936960Y1604980D01*
X936830Y1605350D01*
X936740Y1605730D01*
X936680Y1606120D01*
X936660Y1606510D01*
Y1617510D01*
X934160Y1620010D01*
X934300Y1620150D01*
X935180D01*
X526660Y589160D02*
Y870190D01*
X526640Y871210D01*
X526580Y872230D01*
X526490Y873250D01*
X526350Y874260D01*
X526180Y875270D01*
X525980Y876270D01*
X525730Y877260D01*
X525450Y878240D01*
X525130Y879210D01*
X524770Y880170D01*
X524380Y881110D01*
X523960Y882040D01*
X523500Y882950D01*
X523000Y883850D01*
X522470Y884720D01*
X521910Y885570D01*
X521320Y886410D01*
X520700Y887220D01*
X520050Y888000D01*
X519370Y888770D01*
X518660Y889500D01*
X517930Y890210D01*
X517160Y890890D01*
X516380Y891540D01*
X515570Y892160D01*
X514730Y892750D01*
X513880Y893310D01*
X513010Y893840D01*
X512110Y894340D01*
X511200Y894800D01*
X510270Y895220D01*
X509330Y895610D01*
X508370Y895970D01*
X507400Y896290D01*
X506420Y896570D01*
X505430Y896820D01*
X504430Y897020D01*
X503420Y897190D01*
X502410Y897330D01*
X501390Y897420D01*
X500370Y897480D01*
X499350Y897510D01*
X497090D01*
X495840Y897530D01*
X494600Y897590D01*
X493360Y897680D01*
X492120Y897820D01*
X490890Y897990D01*
X489660Y898200D01*
X488440Y898450D01*
X487230Y898730D01*
X486030Y899050D01*
X484830Y899410D01*
X483650Y899810D01*
X482480Y900240D01*
X481330Y900710D01*
X480190Y901210D01*
X479070Y901750D01*
X477960Y902320D01*
X476870Y902930D01*
X475810Y903570D01*
X474760Y904240D01*
X473730Y904940D01*
X472730Y905680D01*
X471740Y906440D01*
X470790Y907240D01*
X469850Y908060D01*
X468950Y908910D01*
X468060Y909800D01*
X467210Y910700D01*
X466390Y911640D01*
X465590Y912590D01*
X464830Y913580D01*
X464090Y914580D01*
X463390Y915610D01*
X462720Y916660D01*
X462080Y917730D01*
X461470Y918810D01*
X460900Y919920D01*
X460360Y921040D01*
X459860Y922180D01*
X459390Y923330D01*
X458960Y924500D01*
X458560Y925680D01*
X458200Y926880D01*
X457880Y928080D01*
X457600Y929290D01*
X457350Y930510D01*
X457140Y931740D01*
X456970Y932970D01*
X456830Y934210D01*
X456740Y935450D01*
X456680Y936690D01*
X456660Y937940D01*
Y957510D01*
X456870Y972700D01*
X457460Y987880D01*
X458410Y1003050D01*
X459740Y1018180D01*
X461430Y1033280D01*
X463490Y1048330D01*
X465920Y1063330D01*
X468720Y1078260D01*
X471880Y1093120D01*
X475400Y1107900D01*
X479280Y1122590D01*
X483520Y1137180D01*
X488110Y1151660D01*
X493060Y1166030D01*
X498350Y1180270D01*
X504000Y1194370D01*
X509980Y1208340D01*
X516310Y1222150D01*
X522970Y1235810D01*
X529960Y1249290D01*
X537280Y1262610D01*
X544920Y1275740D01*
X552880Y1288680D01*
X561160Y1301420D01*
X569740Y1313950D01*
X578630Y1326280D01*
X587810Y1338380D01*
X597290Y1350250D01*
X607060Y1361890D01*
X617110Y1373290D01*
X627430Y1384430D01*
X638020Y1395320D01*
X648880Y1405950D01*
X659990Y1416320D01*
X671350Y1426400D01*
X682950Y1436210D01*
X694790Y1445730D01*
X706860Y1454950D01*
X719160Y1463880D01*
X731660Y1472510D01*
X735150Y1475910D01*
X738720Y1479230D01*
X742360Y1482470D01*
X746080Y1485610D01*
X749880Y1488670D01*
X753750Y1491640D01*
X757690Y1494520D01*
X761690Y1497300D01*
X765760Y1499980D01*
X769890Y1502570D01*
X774090Y1505060D01*
X778340Y1507440D01*
X782640Y1509730D01*
X787000Y1511910D01*
X791410Y1513990D01*
X795870Y1515960D01*
X800370Y1517830D01*
X804920Y1519580D01*
X809510Y1521230D01*
X814140Y1522770D01*
X818800Y1524200D01*
X823490Y1525520D01*
X828210Y1526730D01*
X832970Y1527820D01*
X837740Y1528800D01*
X842540Y1529660D01*
X847360Y1530410D01*
X852190Y1531050D01*
X857040Y1531570D01*
X861900Y1531980D01*
X866760Y1532270D01*
X871640Y1532440D01*
X876510Y1532510D01*
X1326140D01*
X1332010Y1532440D01*
X1337880Y1532230D01*
X1343740Y1531870D01*
X1349590Y1531380D01*
X1355430Y1530740D01*
X1361250Y1529960D01*
X1367050Y1529040D01*
X1372830Y1527990D01*
X1378580Y1526790D01*
X1384300Y1525460D01*
X1389980Y1523980D01*
X1395630Y1522370D01*
X1401240Y1520630D01*
X1406800Y1518750D01*
X1412320Y1516730D01*
X1417780Y1514590D01*
X1423200Y1512310D01*
X1428550Y1509900D01*
X1433850Y1507370D01*
X1439080Y1504700D01*
X1444250Y1501910D01*
X1449350Y1499000D01*
X1454380Y1495960D01*
X1459330Y1492810D01*
X1464200Y1489530D01*
X1469000Y1486140D01*
X1473710Y1482640D01*
X1478330Y1479020D01*
X1482870Y1475290D01*
X1487320Y1471450D01*
X1491670Y1467510D01*
X1504000Y1458470D01*
X1516110Y1449130D01*
X1528000Y1439500D01*
X1539650Y1429590D01*
X1551060Y1419400D01*
X1562220Y1408940D01*
X1573120Y1398210D01*
X1583760Y1387220D01*
X1594130Y1375970D01*
X1604230Y1364480D01*
X1614040Y1352750D01*
X1623570Y1340780D01*
X1632810Y1328590D01*
X1641750Y1316180D01*
X1650390Y1303560D01*
X1658720Y1290730D01*
X1666730Y1277700D01*
X1674430Y1264480D01*
X1681810Y1251080D01*
X1688860Y1237510D01*
X1695590Y1223770D01*
X1701980Y1209870D01*
X1708030Y1195820D01*
X1713740Y1181630D01*
X1719100Y1167310D01*
X1724120Y1152860D01*
X1728790Y1138290D01*
X1733100Y1123610D01*
X1737060Y1108840D01*
X1740660Y1093970D01*
X1743900Y1079020D01*
X1746780Y1064000D01*
X1749290Y1048910D01*
X1751440Y1033770D01*
X1753220Y1018570D01*
X1754630Y1003340D01*
X1755680Y988080D01*
X1756350Y972800D01*
X1756660Y957510D01*
Y921280D01*
X1756640Y920380D01*
X1756580Y919480D01*
X1756490Y918580D01*
X1756350Y917680D01*
X1756180Y916800D01*
X1755970Y915920D01*
X1755730Y915050D01*
X1755440Y914190D01*
X1755130Y913350D01*
X1754770Y912510D01*
X1754380Y911700D01*
X1753960Y910900D01*
X1753500Y910120D01*
X1753010Y909360D01*
X1752490Y908630D01*
X1751940Y907910D01*
X1751350Y907220D01*
X1750740Y906560D01*
X1750100Y905920D01*
X1749440Y905310D01*
X1748750Y904720D01*
X1748030Y904170D01*
X1747300Y903650D01*
X1746540Y903160D01*
X1745760Y902700D01*
X1744960Y902280D01*
X1744150Y901890D01*
X1743310Y901530D01*
X1742470Y901220D01*
X1741610Y900930D01*
X1740740Y900690D01*
X1739860Y900480D01*
X1738980Y900310D01*
X1738080Y900170D01*
X1737180Y900080D01*
X1736280Y900020D01*
X1735380Y900010D01*
X1690190D01*
X1688900Y899990D01*
X1687610Y899930D01*
X1686320Y899840D01*
X1685040Y899700D01*
X1683760Y899530D01*
X1682490Y899320D01*
X1681220Y899080D01*
X1679970Y898790D01*
X1678720Y898470D01*
X1677480Y898110D01*
X1676250Y897720D01*
X1675030Y897290D01*
X1673830Y896820D01*
X1672640Y896320D01*
X1671470Y895780D01*
X1670310Y895210D01*
X1669170Y894600D01*
X1668050Y893960D01*
X1666950Y893290D01*
X1665870Y892580D01*
X1664810Y891850D01*
X1663780Y891080D01*
X1662760Y890280D01*
X1661770Y889450D01*
X1660810Y888600D01*
X1659870Y887710D01*
X1658960Y886800D01*
X1658070Y885860D01*
X1657220Y884900D01*
X1656390Y883910D01*
X1655590Y882890D01*
X1654820Y881860D01*
X1654090Y880800D01*
X1653380Y879720D01*
X1652710Y878620D01*
X1652070Y877500D01*
X1651460Y876360D01*
X1650890Y875200D01*
X1650350Y874030D01*
X1649850Y872840D01*
X1649380Y871640D01*
X1648950Y870420D01*
X1648560Y869190D01*
X1648200Y867950D01*
X1647880Y866700D01*
X1647590Y865450D01*
X1647350Y864180D01*
X1647140Y862910D01*
X1646970Y861630D01*
X1646830Y860350D01*
X1646740Y859060D01*
X1646680Y857770D01*
X1646660Y856480D01*
Y720420D01*
X1646680Y719810D01*
X1646740Y719200D01*
X1646830Y718600D01*
X1646970Y718000D01*
X1647140Y717410D01*
X1647340Y716840D01*
X1647590Y716280D01*
X1647860Y715730D01*
X1648170Y715210D01*
X1648520Y714700D01*
X1648890Y714220D01*
X1649300Y713760D01*
X1649730Y713330D01*
X1650190Y712920D01*
X1650670Y712550D01*
X1651180Y712200D01*
X1651700Y711890D01*
X1652250Y711620D01*
X1652810Y711370D01*
X1653380Y711170D01*
X1653970Y711000D01*
X1654570Y710860D01*
X1655170Y710770D01*
X1655780Y710710D01*
X1656390Y710680D01*
X1669340D01*
X836660Y709900D02*
Y712510D01*
X1781660Y1116030D02*
X1804020Y1121030D01*
D20*
X172130Y777510D02*
X133440D01*
Y807620D01*
X133460Y808910D01*
X133520Y810190D01*
X133610Y811470D01*
X133750Y812750D01*
X133920Y814030D01*
X134140Y815300D01*
X134390Y816560D01*
X134680Y817810D01*
X135000Y819060D01*
X135370Y820290D01*
X135770Y821510D01*
X136210Y822720D01*
X136680Y823920D01*
X137190Y825100D01*
X137740Y826260D01*
X138320Y827410D01*
X138930Y828540D01*
X139580Y829650D01*
X140260Y830740D01*
X140980Y831810D01*
X141730Y832860D01*
X142500Y833890D01*
X143310Y834890D01*
X144150Y835860D01*
X145020Y836810D01*
X145920Y837730D01*
X148800Y840540D01*
X151740Y843290D01*
X154750Y845960D01*
X157820Y848550D01*
X160950Y851080D01*
X164150Y853530D01*
X167400Y855900D01*
X170700Y858190D01*
X174060Y860400D01*
X177470Y862540D01*
X180930Y864590D01*
X184440Y866560D01*
X188000Y868440D01*
X191600Y870240D01*
X195240Y871950D01*
X198920Y873580D01*
X202640Y875110D01*
X206390Y876560D01*
X243780Y890480D01*
X245670Y891160D01*
X247580Y891790D01*
X249500Y892380D01*
X251440Y892920D01*
X253390Y893410D01*
X255350Y893860D01*
X257310Y894270D01*
X259290Y894620D01*
X261280Y894930D01*
X263270Y895190D01*
X265270Y895410D01*
X267270Y895580D01*
X269280Y895690D01*
X271290Y895770D01*
X273300Y895780D01*
X302600D01*
X303430Y895800D01*
X304270Y895850D01*
X305100Y895940D01*
X305920Y896070D01*
X306740Y896230D01*
X307550Y896430D01*
X308350Y896660D01*
X309140Y896930D01*
X309920Y897240D01*
X310680Y897570D01*
X311430Y897940D01*
X312160Y898340D01*
X312870Y898770D01*
X313570Y899240D01*
X314240Y899730D01*
X314890Y900250D01*
X315520Y900800D01*
X316120Y901380D01*
X321910Y906770D01*
X321930Y907200D01*
X322410Y907700D01*
X322860Y908230D01*
X323280Y908780D01*
X323680Y909360D01*
X324040Y909950D01*
X324380Y910570D01*
X324680Y911200D01*
X324940Y911840D01*
X325180Y912500D01*
X325380Y913170D01*
X325540Y913850D01*
X325670Y914530D01*
X325760Y915230D01*
X325810Y915920D01*
X325830Y916620D01*
Y1004690D01*
X331470Y1061030D01*
X361070Y1185350D01*
X382610Y1242810D01*
X433470Y1342340D01*
X466840Y1393920D01*
X546710Y1487090D01*
X569390Y1509770D01*
X667820Y1584590D01*
X668900Y1585430D01*
X669960Y1586300D01*
X670990Y1587210D01*
X672000Y1588140D01*
X672990Y1589100D01*
X673950Y1590090D01*
X674880Y1591100D01*
X675390Y1591530D01*
X681000Y1595680D01*
X682040Y1596440D01*
X683060Y1597240D01*
X684060Y1598060D01*
X685030Y1598910D01*
X685980Y1599780D01*
X686910Y1600680D01*
X687810Y1601610D01*
X688680Y1602560D01*
X740860Y1660880D01*
X762040Y1669960D01*
X814440Y1692410D01*
X878820Y1713870D01*
X973500Y1732850D01*
X1047090Y1741020D01*
X1054840Y1741440D01*
X1166190D01*
X1252790Y1729070D01*
X1309340Y1717760D01*
X1424760Y1679290D01*
X1467290Y1661060D01*
X1499230Y1634100D01*
Y1629280D01*
X1527130Y1601390D01*
X1527150Y1601290D01*
X1532390Y1597790D01*
X1609610Y1542550D01*
X1616250Y1537020D01*
X1713750Y1440190D01*
X1743300Y1405270D01*
X1799560Y1316580D01*
X1809610Y1296480D01*
X1816450Y1282790D01*
X1851870Y1194240D01*
X1868200Y1145270D01*
X1872900Y1121750D01*
X1886660Y1047510D01*
X1891220Y919870D01*
X1891280Y918800D01*
X1891370Y917740D01*
X1891500Y916680D01*
X1891680Y915630D01*
X1891890Y914590D01*
X1892130Y913550D01*
X1892420Y912530D01*
X1892740Y911510D01*
X1893090Y910510D01*
X1893490Y909520D01*
X1893920Y908540D01*
X1894380Y907580D01*
X1894880Y906640D01*
X1895410Y905720D01*
X1895970Y904810D01*
X1896570Y903930D01*
X1897200Y903070D01*
X1897850Y902230D01*
X1898540Y901420D01*
X1899260Y900630D01*
X1900000Y899870D01*
X1900780Y899130D01*
X1901450Y898550D01*
X1902150Y897980D01*
X1902870Y897450D01*
X1903620Y896940D01*
X1904380Y896460D01*
X1905160Y896020D01*
X1905960Y895610D01*
X1906780Y895230D01*
X1907610Y894890D01*
X1908460Y894580D01*
X1909320Y894300D01*
X1910180Y894060D01*
X1911060Y893860D01*
X1911950Y893700D01*
X1912840Y893570D01*
X1913730Y893470D01*
X1914630Y893420D01*
X1915530Y893400D01*
X1917450Y893380D01*
X1919360Y893310D01*
X1921270Y893190D01*
X1923180Y893030D01*
X1925090Y892820D01*
X1926990Y892570D01*
X1928880Y892270D01*
X1930770Y891920D01*
X1932640Y891530D01*
X1934510Y891090D01*
X1936360Y890610D01*
X1958110Y884680D01*
X1962420Y883440D01*
X1966710Y882110D01*
X1970970Y880680D01*
X1975200Y879150D01*
X1979380Y877520D01*
X1983530Y875790D01*
X1987640Y873970D01*
X1991700Y872050D01*
X1995720Y870040D01*
X1999690Y867940D01*
X2003610Y865750D01*
X2007470Y863460D01*
X2011290Y861090D01*
X2015050Y858630D01*
X2018740Y856080D01*
X2057500Y828700D01*
X1921660Y692860D01*
Y671310D01*
X1871660D01*
Y629160D01*
X1921660Y597030D02*
Y671310D01*
X2057500Y828700D02*
X2068890Y820660D01*
X2067310D01*
X2072010Y818400D01*
X2075070Y816060D01*
X2078080Y813650D01*
X2081020Y811170D01*
X2083910Y808610D01*
X2086730Y805990D01*
X2089490Y803300D01*
X2090770Y801990D01*
X2092010Y800660D01*
X2093220Y799300D01*
X2094410Y797910D01*
X2095550Y796490D01*
X2096670Y795040D01*
X2097750Y793570D01*
X2098800Y792080D01*
X2099810Y790560D01*
X2100790Y789020D01*
X2101730Y787450D01*
X2102630Y785870D01*
X2103500Y784260D01*
X2135520Y723260D01*
X2136810Y720710D01*
X2138050Y718130D01*
X2139230Y715520D01*
X2140340Y712880D01*
X2141390Y710210D01*
X2142370Y707520D01*
X2143290Y704810D01*
X2144140Y702080D01*
X2144930Y699320D01*
X2145650Y696550D01*
X2146300Y693760D01*
X2146880Y690960D01*
X2147400Y688140D01*
X2147850Y685310D01*
X2148230Y682470D01*
X2148540Y679630D01*
X2148780Y676770D01*
X2148950Y673920D01*
X2149060Y671050D01*
X2149090Y668190D01*
Y561430D01*
X2149070Y560320D01*
X2149010Y559220D01*
X2148920Y558110D01*
X2148780Y557010D01*
X2148610Y555920D01*
X2148400Y554830D01*
X2148150Y553750D01*
X2147860Y552680D01*
X2147540Y551620D01*
X2147180Y550570D01*
X2146780Y549540D01*
X2146350Y548520D01*
X2145880Y547520D01*
X2145370Y546530D01*
X2144840Y545560D01*
X2144270Y544610D01*
X2143660Y543680D01*
X2143030Y542770D01*
X2142360Y541890D01*
X2141660Y541030D01*
X2140940Y540190D01*
X2140180Y539380D01*
X2139400Y538600D01*
X2138590Y537840D01*
X2137750Y537120D01*
X2136890Y536420D01*
X2136010Y535750D01*
X2135100Y535120D01*
X2134170Y534510D01*
X2133220Y533940D01*
X2132250Y533410D01*
X2131260Y532900D01*
X2130260Y532430D01*
X2129240Y532000D01*
X2128210Y531600D01*
X2127160Y531240D01*
X2126100Y530920D01*
X2125030Y530630D01*
X2123950Y530380D01*
X2122860Y530170D01*
X2121770Y530000D01*
X2120670Y529860D01*
X2119560Y529770D01*
X2118460Y529710D01*
X2117350Y529690D01*
X2095730D01*
X1871660Y671310D02*
X1776040D01*
X1746660Y690510D02*
X1732040D01*
X1722690Y681160D01*
X1706660Y665120D01*
Y662510D01*
X1669340Y651630D02*
X1658680D01*
X1657570Y651610D01*
X1656460Y651550D01*
X1655350Y651450D01*
X1654250Y651310D01*
X1653150Y651140D01*
X1652060Y650920D01*
X1650980Y650660D01*
X1649910Y650370D01*
X1648850Y650040D01*
X1647800Y649670D01*
X1646760Y649260D01*
X1645740Y648820D01*
X1644740Y648340D01*
X1643760Y647820D01*
X1642790Y647270D01*
X1641840Y646690D01*
X1640920Y646070D01*
X1640020Y645420D01*
X1639140Y644740D01*
X1638290Y644020D01*
X1637460Y643280D01*
X1636660Y642510D01*
Y632510D01*
X1614660Y612510D01*
Y540970D01*
X1614680Y540420D01*
X1614730Y539870D01*
X1614820Y539320D01*
X1614950Y538780D01*
X1615110Y538250D01*
X1615300Y537730D01*
X1615530Y537230D01*
X1615790Y536740D01*
X1616090Y536270D01*
X1616410Y535820D01*
X1616760Y535390D01*
X1617140Y534990D01*
X1617540Y534610D01*
X1617970Y534260D01*
X1618420Y533940D01*
X1618890Y533640D01*
X1619380Y533380D01*
X1619880Y533150D01*
X1620400Y532960D01*
X1620930Y532800D01*
X1621470Y532670D01*
X1622020Y532580D01*
X1622570Y532530D01*
X1623120Y532510D01*
X1856660D01*
X133440Y777510D02*
Y688110D01*
D21*
X205680Y284120D02*
X244410Y269220D01*
X272510Y263600D01*
X377560D01*
X398320Y259860D01*
X404250Y257650D01*
X417190Y252820D01*
X423130Y250600D01*
X424960Y249920D01*
X431930Y247660D01*
X446350Y245040D01*
X453670Y244690D01*
X454530Y244680D01*
X461960Y244660D01*
X486150Y244580D01*
X589540D01*
X601250Y232860D01*
X604160Y229950D01*
Y315190D01*
X603680Y320030D01*
X599980Y328980D01*
X593130Y335820D01*
X584180Y339530D01*
X579340Y340010D01*
X431190D01*
X394670Y351870D01*
X363600Y374450D01*
X341030Y405510D01*
X329160Y442040D01*
Y521010D01*
X328640D01*
X319850Y529800D01*
Y561910D01*
X325450Y567510D01*
X319850Y573100D01*
Y605220D01*
X328640Y614000D01*
X329160D01*
Y886140D01*
X324760Y881740D01*
X324030Y881440D01*
X323650Y881090D01*
X323230Y881110D01*
X311240Y876140D01*
X310880Y875780D01*
X273300D01*
X261850Y874760D01*
X250760Y871730D01*
X242990Y868840D01*
X221130Y860700D01*
X213360Y857810D01*
X198730Y851460D01*
X171930Y834250D01*
X160060Y823590D01*
X157250Y820170D01*
X153880Y812030D01*
X153660Y809770D01*
X154110Y810220D01*
X190160D01*
X198940Y801440D01*
Y753580D01*
X190160Y744790D01*
X154110D01*
X153440Y745450D01*
Y721630D01*
X155320Y720860D01*
X166190Y709990D01*
X172070Y695800D01*
Y680430D01*
X166190Y666240D01*
X155320Y655370D01*
X141130Y649490D01*
X125760D01*
X111570Y655370D01*
X100700Y666240D01*
X94820Y680430D01*
Y695800D01*
X100700Y709990D01*
X111570Y720860D01*
X113440Y721630D01*
Y808140D01*
X92070Y767770D01*
X70980Y716550D01*
X59070Y656980D01*
Y520220D01*
X62010Y481960D01*
X82970Y413090D01*
X118660Y347660D01*
X158720Y307600D01*
X205680Y284120D01*
X200840Y286540D02*
X604160D01*
Y292520D02*
X188870D01*
X176900Y298510D02*
X604160D01*
Y304490D02*
X164930D01*
X155840Y310480D02*
X604160D01*
X604030Y316460D02*
X149850D01*
X143870Y322450D02*
X602680D01*
X600200Y328430D02*
X137880D01*
X131900Y334420D02*
X594530D01*
X604160Y280550D02*
X214950D01*
X230510Y274570D02*
X604160D01*
Y268580D02*
X247600D01*
X125910Y340400D02*
X429960D01*
X411540Y346390D02*
X119930D01*
X116090Y352380D02*
X393980D01*
X385740Y358360D02*
X112820D01*
X109560Y364350D02*
X377500D01*
X369260Y370330D02*
X106290D01*
X103030Y376320D02*
X362240D01*
X357890Y382300D02*
X99760D01*
X96500Y388290D02*
X353540D01*
X349200Y394270D02*
X93230D01*
X89970Y400260D02*
X344850D01*
X340790Y406240D02*
X86700D01*
X83440Y412230D02*
X338850D01*
X336900Y418210D02*
X81410D01*
X79590Y424200D02*
X334960D01*
X333010Y430180D02*
X77770D01*
X75950Y436170D02*
X331070D01*
X329160Y442150D02*
X74120D01*
X72300Y448140D02*
X329160D01*
Y454120D02*
X70480D01*
X68660Y460110D02*
X329160D01*
Y466090D02*
X66840D01*
X65020Y472080D02*
X329160D01*
Y478060D02*
X63200D01*
X61850Y484050D02*
X329160D01*
Y490030D02*
X61390D01*
X60930Y496020D02*
X329160D01*
Y502000D02*
X60470D01*
X60010Y507990D02*
X329160D01*
Y513970D02*
X59550D01*
X59090Y519960D02*
X329160D01*
X323700Y525940D02*
X59070D01*
Y531930D02*
X319850D01*
Y537910D02*
X59070D01*
Y543900D02*
X319850D01*
Y549880D02*
X59070D01*
Y555870D02*
X118020D01*
X116100Y556660D02*
X122760Y553900D01*
X129840Y552500D01*
X130440D01*
Y586120D01*
X96820D01*
Y585510D01*
X98230Y578440D01*
X100990Y571770D01*
X105000Y565770D01*
X110100Y560670D01*
X116100Y556660D01*
X108920Y561850D02*
X59070D01*
Y567840D02*
X103620D01*
X100140Y573820D02*
X59070D01*
Y579810D02*
X97960D01*
X96820Y585790D02*
X59070D01*
Y591780D02*
X130440D01*
Y592120D02*
Y586120D01*
X136440D01*
Y552500D01*
X137050D01*
X144130Y553900D01*
X150790Y556660D01*
X156790Y560670D01*
X161890Y565770D01*
X165900Y571770D01*
X168660Y578440D01*
X170070Y585510D01*
Y586120D01*
X136440D01*
Y592120D01*
X130440D01*
X96820D01*
Y592720D01*
X98230Y599800D01*
X100990Y606460D01*
X105000Y612460D01*
X110100Y617560D01*
X116100Y621570D01*
X122760Y624330D01*
X129840Y625740D01*
X130440D01*
Y592120D01*
Y597760D02*
X136440D01*
Y592120D02*
Y625740D01*
X137050D01*
X144130Y624330D01*
X150790Y621570D01*
X156790Y617560D01*
X161890Y612460D01*
X165900Y606460D01*
X168660Y599800D01*
X170070Y592720D01*
Y592120D01*
X136440D01*
Y591780D02*
X194820D01*
Y596800D02*
Y581440D01*
X200700Y567240D01*
X211570Y556380D01*
X225760Y550500D01*
X241130D01*
X255320Y556380D01*
X266190Y567240D01*
X272070Y581440D01*
Y596800D01*
X266190Y611000D01*
X255320Y621860D01*
X241130Y627740D01*
X225760D01*
X211570Y621860D01*
X200700Y611000D01*
X194820Y596800D01*
X195220Y597760D02*
X169060D01*
X167020Y603750D02*
X197700D01*
X200180Y609730D02*
X163710D01*
X158630Y615720D02*
X205430D01*
X211410Y621710D02*
X150470D01*
X136440D02*
X130440D01*
Y615720D02*
X136440D01*
Y609730D02*
X130440D01*
Y603750D02*
X136440D01*
Y585790D02*
X130440D01*
Y579810D02*
X136440D01*
Y573820D02*
X130440D01*
Y567840D02*
X136440D01*
Y561850D02*
X130440D01*
Y555870D02*
X136440D01*
X148870D02*
X212790D01*
X206090Y561850D02*
X157970D01*
X163270Y567840D02*
X200450D01*
X197970Y573820D02*
X166750D01*
X168930Y579810D02*
X195500D01*
X194820Y585790D02*
X170070D01*
X225640Y627690D02*
X59070D01*
Y621710D02*
X116420D01*
X108250Y615720D02*
X59070D01*
Y609730D02*
X103180D01*
X99870Y603750D02*
X59070D01*
Y597760D02*
X97820D01*
X59070Y633680D02*
X329160D01*
Y639660D02*
X59070D01*
Y645650D02*
X329160D01*
Y651630D02*
X246290D01*
X241130Y649490D02*
X255320Y655370D01*
X266190Y666240D01*
X272070Y680430D01*
Y695800D01*
X266190Y709990D01*
X255320Y720860D01*
X241130Y726730D01*
X225760D01*
X211570Y720860D01*
X200700Y709990D01*
X194820Y695800D01*
Y680430D01*
X200700Y666240D01*
X211570Y655370D01*
X225760Y649490D01*
X241130D01*
X257570Y657620D02*
X329160D01*
Y663600D02*
X263550D01*
X267570Y669590D02*
X329160D01*
Y675570D02*
X270050D01*
X272070Y681560D02*
X329160D01*
Y687540D02*
X272070D01*
Y693530D02*
X329160D01*
Y699510D02*
X270530D01*
X268050Y705500D02*
X329160D01*
Y711480D02*
X264700D01*
X258710Y717470D02*
X329160D01*
Y723450D02*
X249050D01*
X244710Y746790D02*
X248020Y747680D01*
X250980Y749390D01*
X253400Y751810D01*
X255110Y754770D01*
X256000Y758080D01*
Y774600D01*
X234090D01*
Y746790D01*
X244710D01*
X246960Y747390D02*
X329160D01*
Y741410D02*
X153440D01*
Y735420D02*
X329160D01*
Y729440D02*
X153440D01*
Y723450D02*
X217840D01*
X208180Y717470D02*
X158710D01*
X164700Y711480D02*
X202190D01*
X198840Y705500D02*
X168050D01*
X170530Y699510D02*
X196360D01*
X194820Y693530D02*
X172070D01*
Y687540D02*
X194820D01*
Y681560D02*
X172070D01*
X170050Y675570D02*
X196840D01*
X199310Y669590D02*
X167570D01*
X163550Y663600D02*
X203340D01*
X209320Y657620D02*
X157570D01*
X146290Y651630D02*
X220600D01*
X241250Y627690D02*
X329160D01*
Y621710D02*
X255480D01*
X261460Y615720D02*
X329160D01*
X324370Y609730D02*
X266710D01*
X269190Y603750D02*
X319850D01*
Y597760D02*
X271670D01*
X272070Y591780D02*
X319850D01*
Y585790D02*
X272070D01*
X271390Y579810D02*
X319850D01*
Y573820D02*
X268910D01*
X266430Y567840D02*
X325110D01*
X319850Y561850D02*
X260800D01*
X254100Y555870D02*
X319850D01*
X120600Y651630D02*
X59070D01*
X59190Y657620D02*
X109320D01*
X103340Y663600D02*
X60390D01*
X61590Y669590D02*
X99310D01*
X96840Y675570D02*
X62790D01*
X63980Y681560D02*
X94820D01*
Y687540D02*
X65180D01*
X66380Y693530D02*
X94820D01*
X96360Y699510D02*
X67570D01*
X68770Y705500D02*
X98840D01*
X102190Y711480D02*
X69970D01*
X71360Y717470D02*
X108180D01*
X113440Y723450D02*
X73820D01*
X76290Y729440D02*
X113440D01*
Y735420D02*
X78750D01*
X81220Y741410D02*
X113440D01*
Y747390D02*
X83680D01*
X86150Y753380D02*
X113440D01*
Y759360D02*
X88610D01*
X91070Y765350D02*
X113440D01*
Y771330D02*
X93960D01*
X97130Y777320D02*
X113440D01*
Y783300D02*
X100290D01*
X103460Y789290D02*
X113440D01*
Y795270D02*
X106630D01*
X109800Y801260D02*
X113440D01*
Y807240D02*
X112970D01*
X154380Y813230D02*
X329160D01*
Y819210D02*
X156860D01*
X161850Y825200D02*
X329160D01*
Y831180D02*
X168520D01*
X176480Y837170D02*
X329160D01*
Y843150D02*
X185800D01*
X195120Y849140D02*
X329160D01*
Y855120D02*
X207170D01*
X222220Y861110D02*
X329160D01*
Y867090D02*
X238310D01*
X255700Y873080D02*
X329160D01*
Y879060D02*
X318300D01*
X328070Y885050D02*
X329160D01*
Y807240D02*
X248180D01*
X248020Y807340D02*
X244710Y808220D01*
X234090D01*
Y780410D01*
X228280D01*
Y774600D01*
X206380D01*
Y758080D01*
X207260Y754770D01*
X208970Y751810D01*
X211390Y749390D01*
X214360Y747680D01*
X217660Y746790D01*
X228280D01*
Y774600D01*
X234090D01*
Y780410D01*
X256000D01*
Y796930D01*
X255110Y800240D01*
X253400Y803210D01*
X250980Y805630D01*
X248020Y807340D01*
X254520Y801260D02*
X329160D01*
Y795270D02*
X256000D01*
Y789290D02*
X329160D01*
Y783300D02*
X256000D01*
Y771330D02*
X329160D01*
Y765350D02*
X256000D01*
Y759360D02*
X329160D01*
Y753380D02*
X254310D01*
X234090D02*
X228280D01*
Y759360D02*
X234090D01*
Y765350D02*
X228280D01*
Y771330D02*
X234090D01*
Y777320D02*
X329160D01*
X234090Y783300D02*
X228280D01*
Y780410D02*
Y808220D01*
X217660D01*
X214360Y807340D01*
X211390Y805630D01*
X208970Y803210D01*
X207260Y800240D01*
X206380Y796930D01*
Y780410D01*
X228280D01*
Y777320D02*
X198940D01*
Y783300D02*
X206380D01*
Y789290D02*
X198940D01*
Y795270D02*
X206380D01*
X207850Y801260D02*
X198940D01*
X193140Y807240D02*
X214200D01*
X228280D02*
X234090D01*
Y801260D02*
X228280D01*
Y795270D02*
X234090D01*
Y789290D02*
X228280D01*
X206380Y771330D02*
X198940D01*
Y765350D02*
X206380D01*
Y759360D02*
X198940D01*
X198740Y753380D02*
X208070D01*
X215420Y747390D02*
X192760D01*
X228280D02*
X234090D01*
X383130Y262600D02*
X604160D01*
Y256610D02*
X407010D01*
X423060Y250630D02*
X604160D01*
Y244640D02*
X467020D01*
X595460Y238660D02*
X604160D01*
Y232670D02*
X601440D01*
X1545690D02*
X1564160D01*
Y226690D02*
X1545690D01*
Y220700D02*
X1564160D01*
Y217720D02*
X1558770Y212330D01*
X1554660Y202400D01*
Y191660D01*
X1558770Y181740D01*
X1566370Y174140D01*
X1576290Y170030D01*
X1587030D01*
X1596950Y174140D01*
X1604550Y181740D01*
X1608660Y191660D01*
Y202400D01*
X1604550Y212330D01*
X1599160Y217720D01*
Y248630D01*
X1599570Y252800D01*
X1602760Y260510D01*
X1608660Y266400D01*
X1616360Y269600D01*
X1620530Y270010D01*
X1761990D01*
X1792810Y282770D01*
X1816390Y306360D01*
X1829160Y337180D01*
Y486010D01*
X1829680D01*
X1838470Y494800D01*
Y526910D01*
X1832870Y532510D01*
X1838470Y538100D01*
Y546450D01*
X1846170Y542010D01*
X1890940D01*
Y540880D01*
X1918750D01*
Y535070D01*
X1890940D01*
Y524460D01*
X1891830Y521150D01*
X1893540Y518190D01*
X1895960Y515770D01*
X1898930Y514050D01*
X1902230Y513170D01*
X1918750D01*
Y535070D01*
X1924570D01*
Y540880D01*
X1952380D01*
Y542010D01*
X2002910D01*
X2005360Y539550D01*
X2007740D01*
X2008630Y539190D01*
X2010310Y537510D01*
X2018230D01*
X2017270Y532690D01*
X2042730D01*
Y526690D01*
X2048730D01*
Y506480D01*
X2041490Y499240D01*
X2036230Y486560D01*
Y472830D01*
X2041490Y460150D01*
X2051190Y450450D01*
X2063870Y445190D01*
X2077600D01*
X2090280Y450450D01*
X2099980Y460150D01*
X2105230Y472830D01*
Y486560D01*
X2100000Y499190D01*
X2101800D01*
X2113010Y503840D01*
X2118870Y509690D01*
X2127640D01*
X2146660Y517570D01*
X2156100Y527010D01*
Y471400D01*
X2147550Y440080D01*
X2132570Y401110D01*
X2118260Y375370D01*
X2091490Y342650D01*
X2050100Y301260D01*
X2027970Y290190D01*
X1994900Y275160D01*
X1963270Y266530D01*
X1931050Y263600D01*
X1853000D01*
X1852030Y264380D01*
X1844880Y263600D01*
X1837680D01*
X1836800Y262720D01*
X1829340Y261910D01*
X1822310Y259300D01*
X1821130Y259690D01*
X1814690Y256480D01*
X1807940Y253980D01*
X1807420Y252840D01*
X1806970Y252620D01*
X1799990Y250290D01*
X1786710Y247630D01*
X1734780Y244580D01*
X1631810D01*
X1620100Y232860D01*
Y101160D01*
X1620070Y101140D01*
X1620100Y92890D01*
Y92850D01*
X1619490Y86240D01*
X1614620Y73940D01*
X1605550Y64320D01*
X1593560Y58750D01*
X1586990Y57750D01*
X1579090Y58110D01*
X1564310Y63500D01*
X1552840Y74280D01*
X1546540Y88700D01*
X1545690Y96550D01*
Y436270D01*
X1553440Y428530D01*
X1574010Y420010D01*
X1592400D01*
X1723710D01*
X1741540D01*
X1761100Y428110D01*
X1776060Y443070D01*
X1784160Y462620D01*
Y486010D01*
X1784680D01*
X1789160Y490490D01*
X1793640Y486010D01*
X1794160D01*
Y353860D01*
X1793220Y344330D01*
X1785930Y326720D01*
X1772450Y313240D01*
X1754840Y305940D01*
X1745310Y305010D01*
X1609320D01*
X1588600Y296420D01*
X1572740Y280570D01*
X1564160Y259850D01*
Y217720D01*
X1561160Y214720D02*
X1545690D01*
Y208730D02*
X1557280D01*
X1554800Y202750D02*
X1545690D01*
Y196760D02*
X1554660D01*
X1555030Y190780D02*
X1545690D01*
Y184790D02*
X1557510D01*
X1561700Y178810D02*
X1545690D01*
Y172820D02*
X1569560D01*
X1593760D02*
X1620100D01*
Y166840D02*
X1545690D01*
Y160850D02*
X1620100D01*
Y154870D02*
X1545690D01*
Y148880D02*
X1620100D01*
Y142900D02*
X1545690D01*
Y136910D02*
X1620100D01*
Y130930D02*
X1545690D01*
Y124940D02*
X1620100D01*
Y118960D02*
X1545690D01*
Y112970D02*
X1620100D01*
Y106990D02*
X1545690D01*
Y101000D02*
X1620070D01*
X1620090Y95020D02*
X1545860D01*
X1546510Y89030D02*
X1619740D01*
X1618220Y83040D02*
X1549010D01*
X1551620Y77060D02*
X1615860D01*
X1611920Y71070D02*
X1556250D01*
X1562620Y65090D02*
X1606280D01*
X1594330Y59100D02*
X1576370D01*
X1586990Y57750D03*
X1601620Y178810D02*
X1620100D01*
Y184790D02*
X1605810D01*
X1608290Y190780D02*
X1620100D01*
Y196760D02*
X1608660D01*
X1608520Y202750D02*
X1620100D01*
Y208730D02*
X1606040D01*
X1602160Y214720D02*
X1620100D01*
Y220700D02*
X1599160D01*
Y226690D02*
X1620100D01*
Y232670D02*
X1599160D01*
Y238660D02*
X1625890D01*
X1599160Y244640D02*
X1735870D01*
X1773000Y274570D02*
X1992730D01*
X2006770Y280550D02*
X1787450D01*
X1792810Y282770D03*
X1796570Y286540D02*
X2019930D01*
X2032630Y292520D02*
X1802560D01*
X1808540Y298510D02*
X2044610D01*
X2053340Y304490D02*
X1814530D01*
X1816390Y306360D03*
X1818100Y310480D02*
X2059330D01*
X2065310Y316460D02*
X1820580D01*
X1823060Y322450D02*
X2071300D01*
X2077280Y328430D02*
X1825540D01*
X1828020Y334420D02*
X2083270D01*
X2089250Y340400D02*
X1829160D01*
Y346390D02*
X2094560D01*
X2099450Y352380D02*
X1829160D01*
Y358360D02*
X2104350D01*
X2109250Y364350D02*
X1829160D01*
Y370330D02*
X2114140D01*
X2118790Y376320D02*
X1829160D01*
Y382300D02*
X2122120D01*
X2125440Y388290D02*
X1829160D01*
Y394270D02*
X2128770D01*
X2132090Y400260D02*
X1829160D01*
Y406240D02*
X2134540D01*
X2136840Y412230D02*
X1829160D01*
Y418210D02*
X2139140D01*
X2141450Y424200D02*
X1829160D01*
Y430180D02*
X2143750D01*
X2146050Y436170D02*
X1829160D01*
Y442150D02*
X2148120D01*
X2149750Y448140D02*
X2084700D01*
X2093950Y454120D02*
X2151380D01*
X2153020Y460110D02*
X2099940D01*
X2102440Y466090D02*
X2154650D01*
X2156100Y472080D02*
X2104920D01*
X2105230Y478060D02*
X2156100D01*
Y484050D02*
X2105230D01*
X2103790Y490030D02*
X2156100D01*
Y496020D02*
X2101310D01*
X2108580Y502000D02*
X2156100D01*
Y507990D02*
X2117160D01*
X2137970Y513970D02*
X2156100D01*
Y519960D02*
X2149050D01*
X2146660Y517570D03*
X2155030Y525940D02*
X2156100D01*
X2048730D02*
X2042730D01*
Y526690D02*
Y501230D01*
X2037420Y502290D01*
X2032230Y504440D01*
X2027570Y507560D01*
X2023600Y511530D01*
X2020480Y516190D01*
X2018330Y521380D01*
X2017270Y526690D01*
X2042730D01*
Y531930D02*
X1952380D01*
Y535070D02*
X1924570D01*
Y513170D01*
X1941090D01*
X1944390Y514050D01*
X1947360Y515770D01*
X1949780Y518190D01*
X1951490Y521150D01*
X1952380Y524460D01*
Y535070D01*
Y525940D02*
X2017420D01*
X2018920Y519960D02*
X1950800D01*
X1944090Y513970D02*
X2021960D01*
X2027130Y507990D02*
X1838470D01*
Y513970D02*
X1899230D01*
X1892520Y519960D02*
X1838470D01*
Y525940D02*
X1890940D01*
Y531930D02*
X1833450D01*
X1838280Y537910D02*
X1918750D01*
X1924570D02*
X2009900D01*
X2042730Y519960D02*
X2048730D01*
Y513970D02*
X2042730D01*
Y507990D02*
X2048730D01*
X2044250Y502000D02*
X2042730D01*
X2038860D02*
X1838470D01*
Y496020D02*
X2040150D01*
X2037670Y490030D02*
X1833710D01*
X1829160Y484050D02*
X2036230D01*
Y478060D02*
X1829160D01*
Y472080D02*
X2036550D01*
X2039020Y466090D02*
X1829160D01*
Y460110D02*
X2041530D01*
X2047520Y454120D02*
X1829160D01*
Y448140D02*
X2056770D01*
X1924570Y513970D02*
X1918750D01*
Y519960D02*
X1924570D01*
Y525940D02*
X1918750D01*
Y531930D02*
X1924570D01*
X1842890Y543900D02*
X1838470D01*
X1789610Y490030D02*
X1788710D01*
X1784160Y484050D02*
X1794160D01*
Y478060D02*
X1784160D01*
Y472080D02*
X1794160D01*
Y466090D02*
X1784160D01*
X1783120Y460110D02*
X1794160D01*
Y454120D02*
X1780640D01*
X1778160Y448140D02*
X1794160D01*
Y442150D02*
X1775140D01*
X1776060Y443070D03*
X1769160Y436170D02*
X1794160D01*
Y430180D02*
X1763170D01*
X1751660Y424200D02*
X1794160D01*
Y418210D02*
X1545690D01*
Y412230D02*
X1794160D01*
Y406240D02*
X1545690D01*
Y400260D02*
X1794160D01*
Y394270D02*
X1545690D01*
Y388290D02*
X1794160D01*
Y382300D02*
X1545690D01*
Y376320D02*
X1794160D01*
Y370330D02*
X1545690D01*
Y364350D02*
X1794160D01*
Y358360D02*
X1545690D01*
Y352380D02*
X1794010D01*
X1793420Y346390D02*
X1545690D01*
Y340400D02*
X1791600D01*
X1789120Y334420D02*
X1545690D01*
Y328430D02*
X1786640D01*
X1781660Y322450D02*
X1545690D01*
Y316460D02*
X1775670D01*
X1765790Y310480D02*
X1545690D01*
Y304490D02*
X1608080D01*
X1593640Y298510D02*
X1545690D01*
Y292520D02*
X1584700D01*
X1588600Y296420D03*
X1578720Y286540D02*
X1545690D01*
Y280550D02*
X1572740D01*
X1570260Y274570D02*
X1545690D01*
Y268580D02*
X1567780D01*
X1565300Y262600D02*
X1545690D01*
Y256610D02*
X1564160D01*
Y250630D02*
X1545690D01*
Y244640D02*
X1564160D01*
Y238660D02*
X1545690D01*
X1599360Y250630D02*
X1801010D01*
X1814960Y256610D02*
X1601150D01*
X1604850Y262600D02*
X1835680D01*
X1829340Y261910D03*
X1970790Y268580D02*
X1613920D01*
X1563900Y424200D02*
X1545690D01*
Y430180D02*
X1551780D01*
X1553440Y428530D03*
X1545800Y436170D02*
X1545690D01*
X1644340Y651630D02*
X1653530D01*
X1644340D01*
Y649190D01*
X1645600Y644480D01*
X1648040Y640260D01*
X1651200Y637100D01*
Y618450D01*
X1654630Y615010D01*
X1648210D01*
X1629790Y604370D01*
X1619160Y585960D01*
Y579000D01*
Y609800D01*
X1609930Y625780D01*
X1593960Y635010D01*
X1584160D01*
Y646010D01*
X1619680D01*
X1627030Y653350D01*
X1644340D01*
Y651630D01*
X1625300D01*
X1619160Y579810D03*
Y585790D03*
Y591780D02*
X1622520D01*
X1619160Y597760D02*
X1625980D01*
X1629430Y603750D02*
X1619160D01*
Y609730D02*
X1639080D01*
X1629790Y604370D03*
X1615740Y615720D02*
X1653920D01*
X1651200Y621710D02*
X1612290D01*
X1609930Y625780D03*
X1606630Y627690D02*
X1651200D01*
Y633680D02*
X1596260D01*
X1584160Y639660D02*
X1648640D01*
X1645290Y645650D02*
X1584160D01*
X1653530Y651630D03*
X1671660Y652510D02*
X1696660D01*
X1706660Y662510D01*
X1746660Y690510D02*
X1776660D01*
D22*
X1581660Y597030D03*
X1355980Y462170D03*
X1286660Y327030D03*
X1287540Y148390D03*
X1581160Y138010D03*
X1581660Y197030D03*
X1172080Y513320D03*
X1308330Y649450D03*
X997700Y661920D03*
X835990Y709900D03*
X959550Y820660D03*
X1082130Y1037510D03*
X660780Y986630D03*
X419300Y1121030D03*
X585640Y1430130D03*
X935180Y1620150D03*
X1288140D03*
X1622680Y1430130D03*
X1804020Y1121030D03*
X1562540Y986630D03*
X933200Y453860D03*
X641660Y537980D03*
X702540Y106630D03*
X971190Y97510D03*
M02*
