%FSLAX46Y46*%
%MOIN*%
%ADD10R,0.0315X0.0315*%
%ADD12C,0.04724*%
%ADD13C,0.006*%
%ADD14C,0.024*%
%ADD15C,0.005*%
%ADD16C,0.01*%
%LPD*%
D10*
X641660Y537980D03*
Y597030D03*
X933200Y453860D03*
Y394800D03*
X1249270Y649450D03*
X1308330D03*
X1581660Y597030D03*
Y537980D03*
X1286660Y327030D03*
Y267980D03*
X1581660Y197030D03*
Y137980D03*
X971190Y97510D03*
X912130D03*
X900500Y820660D03*
X959550D03*
X1082130Y1037510D03*
X1141190D03*
G36*
X1520780Y1006120D02*
G01*
X1498510Y1028390D01*
X1520780Y1050660D01*
X1543050Y1028390D01*
X1520780Y1006120D01*
G37*
G36*
X1562540Y964360D02*
X1540270Y986630D01*
X1562540Y1008900D01*
X1584810Y986630D01*
X1562540Y964360D01*
G37*
G36*
X1830430Y1083260D02*
X1838580Y1052850D01*
X1808170Y1044700D01*
X1800020Y1075110D01*
X1830430Y1083260D01*
G37*
G36*
X1815150Y1140310D02*
X1823300Y1109900D01*
X1792890Y1101750D01*
X1784740Y1132160D01*
X1815150Y1140310D01*
G37*
G36*
X1662580Y1407070D02*
X1682820Y1382950D01*
X1658700Y1362710D01*
X1638460Y1386830D01*
X1662580Y1407070D01*
G37*
G36*
X1624620Y1452310D02*
X1644860Y1428190D01*
X1620740Y1407950D01*
X1600500Y1432070D01*
X1624620Y1452310D01*
G37*
G36*
X1334050Y1624140D02*
X1364460Y1615990D01*
X1356310Y1585580D01*
X1325900Y1593730D01*
X1334050Y1624140D01*
G37*
G36*
X1277010Y1639430D02*
X1307420Y1631280D01*
X1299270Y1600870D01*
X1268860Y1609020D01*
X1277010Y1639430D01*
G37*
G36*
X954460Y1609020D02*
X924050Y1600870D01*
X915900Y1631280D01*
X946310Y1639430D01*
X954460Y1609020D01*
G37*
G36*
X897420Y1593730D02*
X867010Y1585580D01*
X858860Y1615990D01*
X889270Y1624140D01*
X897420Y1593730D01*
G37*
G36*
X607820Y1432070D02*
X587580Y1407950D01*
X563460Y1428190D01*
X583700Y1452310D01*
X607820Y1432070D01*
G37*
G36*
X569860Y1386830D02*
X549620Y1362710D01*
X525500Y1382950D01*
X545740Y1407070D01*
X569860Y1386830D01*
G37*
G36*
X438580Y1132160D02*
X430430Y1101750D01*
X400020Y1109900D01*
X408170Y1140310D01*
X438580Y1132160D01*
G37*
G36*
X423300Y1075110D02*
X415150Y1044700D01*
X384740Y1052850D01*
X392890Y1083260D01*
X423300Y1075110D01*
G37*
G36*
X638510Y986630D02*
X660780Y1008900D01*
X683050Y986630D01*
X660780Y964360D01*
X638510Y986630D01*
G37*
G36*
X680270Y1028390D02*
X702540Y1050660D01*
X724810Y1028390D01*
X702540Y1006120D01*
X680270Y1028390D01*
G37*
G36*
X841750Y731410D02*
X857500Y704140D01*
X830230Y688390D01*
X814480Y715660D01*
X841750Y731410D01*
G37*
G36*
X871280Y680260D02*
X887030Y652990D01*
X859760Y637240D01*
X844010Y664510D01*
X871280Y680260D01*
G37*
G36*
X976190Y656160D02*
X991940Y683430D01*
X1019210Y667680D01*
X1003460Y640410D01*
X976190Y656160D01*
G37*
G36*
X1005720Y707310D02*
X1021470Y734580D01*
X1048740Y718830D01*
X1032990Y691560D01*
X1005720Y707310D01*
G37*
G36*
X1177840Y534830D02*
X1193590Y507560D01*
X1166320Y491810D01*
X1150570Y519080D01*
X1177840Y534830D01*
G37*
G36*
X1207370Y483680D02*
X1223120Y456410D01*
X1195850Y440660D01*
X1180100Y467930D01*
X1207370Y483680D01*
G37*
G36*
X1334470Y456410D02*
X1350220Y483680D01*
X1377490Y467930D01*
X1361740Y440660D01*
X1334470Y456410D01*
G37*
G36*
X1364000Y507560D02*
X1379750Y534830D01*
X1407020Y519080D01*
X1391270Y491810D01*
X1364000Y507560D01*
G37*
G36*
X1309810Y148390D02*
X1287540Y126120D01*
X1265270Y148390D01*
X1287540Y170660D01*
X1309810Y148390D01*
G37*
G36*
X1268050Y106630D02*
X1245780Y84360D01*
X1223510Y106630D01*
X1245780Y128900D01*
X1268050Y106630D01*
G37*
G36*
X702540Y84360D02*
X680270Y106630D01*
X702540Y128900D01*
X724810Y106630D01*
X702540Y84360D01*
G37*
G36*
X660780Y126120D02*
X638510Y148390D01*
X660780Y170660D01*
X683050Y148390D01*
X660780Y126120D01*
G37*
D12*
X233440Y589120D03*
X133440D03*
Y688110D03*
X233440D03*
D13*
X499800Y687540D02*
X512620D01*
Y681560D02*
X499800D01*
Y675570D02*
X512620D01*
Y669590D02*
X499800D01*
Y663600D02*
X512620D01*
Y657620D02*
X499800D01*
Y651630D02*
X512620D01*
Y645650D02*
X499800D01*
Y639660D02*
X512620D01*
Y633680D02*
X499800D01*
Y627690D02*
X512620D01*
Y621710D02*
X499800D01*
Y615720D02*
X512620D01*
Y609730D02*
X499800D01*
Y603750D02*
X512620D01*
Y597760D02*
X499800D01*
Y591780D02*
X512620D01*
Y585790D02*
X499800D01*
Y579810D02*
X512620D01*
Y573820D02*
X499800D01*
Y567840D02*
X512620D01*
Y561850D02*
X499800D01*
Y555870D02*
X512620D01*
Y549880D02*
X499800D01*
Y543900D02*
X512620D01*
Y537910D02*
X499800D01*
Y531930D02*
X512620D01*
Y525940D02*
X499800D01*
Y519960D02*
X512620D01*
Y513970D02*
X499800D01*
Y507990D02*
X512620D01*
Y502000D02*
X499800D01*
Y496020D02*
X512620D01*
Y490030D02*
X499800D01*
Y484050D02*
X512620D01*
Y478060D02*
X499800D01*
Y472080D02*
X512620D01*
Y466090D02*
X499800D01*
Y460110D02*
X512620D01*
Y454120D02*
X499800D01*
Y448140D02*
X512620D01*
Y442150D02*
X499800D01*
Y436170D02*
X512620D01*
Y430180D02*
X499800D01*
Y424200D02*
X512620D01*
Y418210D02*
X499800D01*
Y412230D02*
X512620D01*
Y406240D02*
X499800D01*
Y400260D02*
X512620D01*
Y394270D02*
X499800D01*
Y388290D02*
X512620D01*
Y382300D02*
X499800D01*
Y376320D02*
X512620D01*
Y370330D02*
X499800D01*
Y364350D02*
X512620D01*
Y358360D02*
X499800D01*
Y352380D02*
X512620D01*
Y346390D02*
X499800D01*
Y340400D02*
X512620D01*
Y334420D02*
X499800D01*
Y328430D02*
X512620D01*
Y322450D02*
X499800D01*
Y316460D02*
X512620D01*
Y310480D02*
X499800D01*
Y304490D02*
X512620D01*
Y298510D02*
X499800D01*
Y292520D02*
X512620D01*
Y286540D02*
X499800D01*
Y280550D02*
X512620D01*
Y274570D02*
X499800D01*
Y268580D02*
X512620D01*
Y262600D02*
X499800D01*
Y256610D02*
X516720D01*
X517310Y256030D02*
X577250D01*
X581930Y260710D01*
Y908470D01*
X589540D01*
X604420Y923350D01*
Y939920D01*
Y944320D01*
X605550Y961580D01*
X614480Y994910D01*
X631740Y1024790D01*
X656140Y1049200D01*
X686030Y1066450D01*
X719360Y1075380D01*
X736610Y1076510D01*
X1485810D01*
X1502970Y1075390D01*
X1536130Y1066520D01*
X1565870Y1049390D01*
X1590180Y1025160D01*
X1607400Y995470D01*
X1616360Y962330D01*
X1617530Y945310D01*
X1617360Y940200D01*
X1617080Y939920D01*
Y931970D01*
X1616820Y924030D01*
X1617080Y923740D01*
Y923350D01*
X1621100Y919330D01*
X1622700Y917730D01*
X1628140Y911930D01*
X1628520Y911910D01*
X1631970Y908470D01*
X1642170D01*
Y257380D01*
X1642240Y257310D01*
X1646860Y252690D01*
X1647340D01*
X1686840D01*
X1693470D01*
X1698150Y257380D01*
Y908470D01*
X1719060D01*
X1723410Y906830D01*
X1724300Y907230D01*
X1723500Y244580D01*
X1631810D01*
X1620100Y232860D01*
Y101160D01*
X1620070Y101140D01*
X1620100Y92890D01*
Y92850D01*
X1619490Y86240D01*
X1614620Y73940D01*
X1605550Y64320D01*
X1593560Y58750D01*
X1586990Y57750D01*
X1579090Y58110D01*
X1564310Y63500D01*
X1552840Y74280D01*
X1546540Y88700D01*
X1545690Y96550D01*
Y917570D01*
X1546120Y918050D01*
X1545690Y925770D01*
Y933500D01*
X1545240Y933950D01*
X1544820Y941590D01*
X1531610Y969180D01*
X1508890Y989650D01*
X1480080Y999920D01*
X1465300Y999200D01*
X751590D01*
X750570Y1000010D01*
X743470Y999200D01*
X736330D01*
X735410Y998270D01*
X728750Y997510D01*
X704830Y984260D01*
X687780Y962870D01*
X680190Y936600D01*
X681570Y924110D01*
Y201720D01*
X681120Y189780D01*
X689610Y166620D01*
X706250Y148410D01*
X728550Y137880D01*
X733200Y137630D01*
X733620Y137210D01*
X741390D01*
X749140Y136800D01*
X749590Y137210D01*
X881240D01*
X892950Y148920D01*
Y582370D01*
X894590Y586690D01*
X892950Y590330D01*
Y594320D01*
X889680Y597590D01*
X887790Y601800D01*
X884060Y603210D01*
X881240Y606040D01*
X877190D01*
X864240Y611930D01*
X836080Y632130D01*
X814070Y658890D01*
X799670Y690400D01*
X793860Y724560D01*
X797020Y759070D01*
X801860Y775490D01*
X809800Y792180D01*
X832390Y821910D01*
X862190Y844400D01*
X896970Y857980D01*
X934140Y861620D01*
X970890Y855060D01*
X979950Y851410D01*
X937590D01*
X928800Y842630D01*
Y839770D01*
X928360Y841430D01*
X926650Y844390D01*
X924230Y846810D01*
X921260Y848530D01*
X917960Y849410D01*
X903500D01*
Y823660D01*
X897500D01*
Y817660D01*
X903500D01*
Y791920D01*
X917960D01*
X921260Y792800D01*
X924230Y794510D01*
X926650Y796930D01*
X928360Y799900D01*
X928800Y801560D01*
Y798700D01*
X937590Y789920D01*
X981510D01*
X990300Y798700D01*
Y842630D01*
X982560Y850360D01*
X987770Y848270D01*
X993750Y844660D01*
X994000Y844730D01*
X1002840Y839580D01*
X1030260Y815340D01*
X1050480Y784840D01*
X1062110Y750140D01*
X1064380Y713610D01*
X1057110Y677740D01*
X1050660Y662320D01*
X1038960Y648010D01*
X1008320Y621950D01*
X990860Y611860D01*
X985550Y609210D01*
X981980D01*
X978420Y605640D01*
X973910Y603390D01*
X972790Y600010D01*
X970270Y597490D01*
Y592450D01*
X968670Y587670D01*
X970270Y584480D01*
Y148920D01*
X981980Y137210D01*
X1233180D01*
X1244900Y148920D01*
Y376370D01*
X1246530Y380800D01*
X1244900Y384330D01*
Y388230D01*
X1241560Y391560D01*
X1239590Y395840D01*
X1235930Y397190D01*
X1233180Y399940D01*
X1229030D01*
X1213100Y407000D01*
X1179590Y430360D01*
X1153080Y461430D01*
X1135300Y498210D01*
X1127390Y538280D01*
X1129880Y579050D01*
X1134570Y597190D01*
X1136250Y601010D01*
X1136630Y601810D01*
X1146180Y620090D01*
X1172790Y652800D01*
X1207150Y677230D01*
X1246780Y691640D01*
X1288810Y694990D01*
X1330210Y687020D01*
X1349530Y679030D01*
X1365060Y669640D01*
X1392470Y645210D01*
X1413130Y614860D01*
X1425820Y580410D01*
X1429770Y543910D01*
X1424740Y507540D01*
X1411040Y473470D01*
X1401400Y458320D01*
X1388620Y443870D01*
X1373750Y431450D01*
X1393590Y465820D01*
X1390380Y477820D01*
X1387900Y479250D01*
X1389560Y478800D01*
X1392990D01*
X1396290Y479690D01*
X1399260Y481400D01*
X1401680Y483820D01*
X1408910Y496340D01*
X1386610Y509220D01*
X1389610Y514410D01*
X1411910Y501540D01*
X1419140Y514060D01*
X1420020Y517370D01*
Y520790D01*
X1419140Y524100D01*
X1417430Y527060D01*
X1415010Y529480D01*
X1402480Y536710D01*
X1389610Y514410D01*
X1384410Y517410D01*
X1381410Y512220D01*
X1359110Y525090D01*
X1351880Y512570D01*
X1351000Y509260D01*
Y505840D01*
X1351880Y502530D01*
X1353600Y499570D01*
X1354810Y498350D01*
X1352340Y499780D01*
X1340340Y496570D01*
X1318370Y458530D01*
X1321590Y446520D01*
X1359630Y424560D01*
X1368270Y426880D01*
X1358280Y418540D01*
X1343270Y409450D01*
X1340270D01*
X1336490Y405670D01*
X1334060Y404360D01*
X1331780Y403130D01*
X1330840Y400030D01*
X1328550Y397740D01*
Y392390D01*
X1327020Y387260D01*
X1328550Y384410D01*
Y109810D01*
X1327760Y101410D01*
X1322300Y85440D01*
X1312150Y71950D01*
X1298330Y62260D01*
X1282180Y57340D01*
X1273790Y56840D01*
X1273540D01*
X1265450Y56990D01*
X1265290Y56840D01*
X746700D01*
X728110Y58130D01*
X692210Y67880D01*
X660040Y86570D01*
X633800Y112930D01*
X615240Y145170D01*
X605640Y181110D01*
X604420Y199710D01*
Y229690D01*
X601250Y232860D01*
X589540Y244580D01*
X499800D01*
Y908470D01*
X512620D01*
Y260710D01*
X517310Y256030D01*
X499800Y250630D02*
X681570D01*
Y256610D02*
X577840D01*
X581930Y262600D02*
X681570D01*
Y268580D02*
X581930D01*
Y274570D02*
X681570D01*
Y280550D02*
X581930D01*
Y286540D02*
X681570D01*
Y292520D02*
X581930D01*
Y298510D02*
X681570D01*
Y304490D02*
X581930D01*
Y310480D02*
X681570D01*
Y316460D02*
X581930D01*
Y322450D02*
X681570D01*
Y328430D02*
X581930D01*
Y334420D02*
X681570D01*
Y340400D02*
X581930D01*
Y346390D02*
X681570D01*
Y352380D02*
X581930D01*
Y358360D02*
X681570D01*
Y364350D02*
X581930D01*
Y370330D02*
X681570D01*
Y376320D02*
X581930D01*
Y382300D02*
X681570D01*
Y388290D02*
X581930D01*
Y394270D02*
X681570D01*
Y400260D02*
X581930D01*
Y406240D02*
X681570D01*
Y412230D02*
X581930D01*
Y418210D02*
X681570D01*
Y424200D02*
X581930D01*
Y430180D02*
X681570D01*
Y436170D02*
X581930D01*
Y442150D02*
X681570D01*
Y448140D02*
X581930D01*
Y454120D02*
X681570D01*
Y460110D02*
X581930D01*
Y466090D02*
X681570D01*
Y472080D02*
X581930D01*
Y478060D02*
X681570D01*
Y484050D02*
X581930D01*
Y490030D02*
X681570D01*
Y496020D02*
X581930D01*
Y502000D02*
X681570D01*
Y507990D02*
X664380D01*
X663620Y507230D02*
X672410Y516020D01*
Y559940D01*
X663620Y568730D01*
X660760D01*
X662430Y569170D01*
X665390Y570880D01*
X667810Y573300D01*
X669520Y576270D01*
X670410Y579570D01*
Y594030D01*
X644660D01*
Y600030D01*
X670410D01*
Y614490D01*
X669520Y617800D01*
X667810Y620760D01*
X665390Y623180D01*
X662430Y624900D01*
X659120Y625780D01*
X644660D01*
Y600030D01*
X638660D01*
Y594030D01*
X612910D01*
Y579570D01*
X613800Y576270D01*
X615510Y573300D01*
X617930Y570880D01*
X620890Y569170D01*
X622560Y568730D01*
X619700D01*
X610910Y559940D01*
Y516020D01*
X619700Y507230D01*
X663620D01*
X670360Y513970D02*
X681570D01*
Y519960D02*
X672410D01*
Y525940D02*
X681570D01*
Y531930D02*
X672410D01*
Y537910D02*
X681570D01*
Y543900D02*
X672410D01*
Y549880D02*
X681570D01*
Y555870D02*
X672410D01*
X670490Y561850D02*
X681570D01*
Y567840D02*
X664510D01*
X668110Y573820D02*
X681570D01*
Y579810D02*
X670410D01*
Y585790D02*
X681570D01*
Y591780D02*
X670410D01*
Y603750D02*
X681570D01*
Y609730D02*
X670410D01*
X670080Y615720D02*
X681570D01*
Y621710D02*
X666870D01*
X681570Y627690D02*
X581930D01*
Y621710D02*
X616450D01*
X615510Y620760D02*
X613800Y617800D01*
X612910Y614490D01*
Y600030D01*
X638660D01*
Y625780D01*
X624200D01*
X620890Y624900D01*
X617930Y623180D01*
X615510Y620760D01*
X613240Y615720D02*
X581930D01*
Y609730D02*
X612910D01*
Y603750D02*
X581930D01*
Y597760D02*
X638660D01*
Y603750D02*
X644660D01*
Y609730D02*
X638660D01*
Y615720D02*
X644660D01*
Y621710D02*
X638660D01*
X644660Y597760D02*
X681570D01*
Y633680D02*
X581930D01*
Y639660D02*
X681570D01*
Y645650D02*
X581930D01*
Y651630D02*
X681570D01*
Y657620D02*
X581930D01*
Y663600D02*
X681570D01*
Y669590D02*
X581930D01*
Y675570D02*
X681570D01*
Y681560D02*
X581930D01*
Y687540D02*
X681570D01*
Y693530D02*
X581930D01*
Y699510D02*
X681570D01*
Y705500D02*
X581930D01*
Y711480D02*
X681570D01*
Y717470D02*
X581930D01*
Y723450D02*
X681570D01*
Y729440D02*
X581930D01*
Y735420D02*
X681570D01*
Y741410D02*
X581930D01*
Y747390D02*
X681570D01*
Y753380D02*
X581930D01*
Y759360D02*
X681570D01*
Y765350D02*
X581930D01*
Y771330D02*
X681570D01*
Y777320D02*
X581930D01*
Y783300D02*
X681570D01*
Y789290D02*
X581930D01*
Y795270D02*
X681570D01*
Y801260D02*
X581930D01*
Y807240D02*
X681570D01*
Y813230D02*
X581930D01*
Y819210D02*
X681570D01*
Y825200D02*
X581930D01*
Y831180D02*
X681570D01*
Y837170D02*
X581930D01*
Y843150D02*
X681570D01*
Y849140D02*
X581930D01*
Y855120D02*
X681570D01*
Y861110D02*
X581930D01*
Y867090D02*
X681570D01*
Y873080D02*
X581930D01*
Y879060D02*
X681570D01*
Y885050D02*
X581930D01*
Y891040D02*
X681570D01*
Y897020D02*
X581930D01*
Y903010D02*
X681570D01*
Y908990D02*
X590060D01*
X596040Y914980D02*
X681570D01*
Y920960D02*
X602030D01*
X604420Y926950D02*
X681260D01*
X680590Y932930D02*
X604420D01*
Y938920D02*
X680860D01*
X680190Y936600D03*
X682590Y944900D02*
X604460D01*
X604850Y950890D02*
X653040D01*
X654570Y949360D02*
X666990D01*
X698050Y980410D01*
Y992840D01*
X696030Y994860D01*
X697520Y994000D01*
X700830Y993110D01*
X704250D01*
X707560Y994000D01*
X710520Y995710D01*
X720750Y1005940D01*
X702540Y1024140D01*
X706780Y1028380D01*
X724990Y1010180D01*
X735210Y1020400D01*
X736920Y1023370D01*
X737810Y1026670D01*
Y1030100D01*
X736920Y1033400D01*
X735210Y1036370D01*
X724990Y1046590D01*
X706780Y1028390D01*
X702540Y1032630D01*
X720750Y1050830D01*
X710520Y1061060D01*
X707560Y1062770D01*
X704250Y1063660D01*
X700830D01*
X697520Y1062770D01*
X694560Y1061060D01*
X684330Y1050830D01*
X702540Y1032630D01*
X698300Y1028390D01*
X680090Y1046590D01*
X669870Y1036370D01*
X668150Y1033400D01*
X667270Y1030100D01*
Y1026670D01*
X668150Y1023370D01*
X669010Y1021880D01*
X666990Y1023900D01*
X654570D01*
X623510Y992840D01*
Y980410D01*
X654570Y949360D01*
X647050Y956870D02*
X605240D01*
X605900Y962860D02*
X641070D01*
X635080Y968840D02*
X607500D01*
X609100Y974830D02*
X629100D01*
X623510Y980810D02*
X610710D01*
X612310Y986800D02*
X623510D01*
Y992780D02*
X613910D01*
X616710Y998770D02*
X629440D01*
X635420Y1004750D02*
X620170D01*
X623620Y1010740D02*
X641410D01*
X647390Y1016720D02*
X627080D01*
X630530Y1022710D02*
X653380D01*
X668180D02*
X668540D01*
X667270Y1028690D02*
X635640D01*
X641620Y1034680D02*
X668890D01*
X674160Y1040660D02*
X647610D01*
X653590Y1046650D02*
X688520D01*
X686130Y1052630D02*
X662090D01*
X672460Y1058620D02*
X692120D01*
X682830Y1064600D02*
X1056520D01*
X1060170Y1068250D02*
X1051380Y1059470D01*
Y1015550D01*
X1060170Y1006760D01*
X1104090D01*
X1112880Y1015550D01*
Y1018400D01*
X1113330Y1016740D01*
X1115040Y1013780D01*
X1117460Y1011360D01*
X1120420Y1009640D01*
X1123730Y1008760D01*
X1138190D01*
Y1034510D01*
X1144190D01*
Y1040510D01*
X1138190D01*
Y1066250D01*
X1123730D01*
X1120420Y1065370D01*
X1117460Y1063660D01*
X1115040Y1061240D01*
X1113330Y1058270D01*
X1112880Y1056610D01*
Y1059470D01*
X1104090Y1068250D01*
X1060170D01*
X1051380Y1058620D02*
X712960D01*
X718950Y1052630D02*
X1051380D01*
Y1046650D02*
X716560D01*
X719060Y1040660D02*
X710570D01*
X713070Y1034680D02*
X704590D01*
X700490D02*
X692000D01*
X694500Y1040660D02*
X686020D01*
X697990Y1028690D02*
X698600D01*
X706470D02*
X707090D01*
X703970Y1022710D02*
X712460D01*
X709960Y1016720D02*
X718440D01*
X715940Y1010740D02*
X725550D01*
X1056190D01*
X1051380Y1016720D02*
X731530D01*
X736540Y1022710D02*
X1051380D01*
Y1028690D02*
X737810D01*
X736190Y1034680D02*
X1051380D01*
Y1040660D02*
X730920D01*
X719560Y1004750D02*
X1503760D01*
X1502570Y1005940D02*
X1512800Y995710D01*
X1515760Y994000D01*
X1519070Y993110D01*
X1522490D01*
X1525800Y994000D01*
X1527290Y994860D01*
X1525270Y992840D01*
Y980410D01*
X1556330Y949360D01*
X1568750D01*
X1599810Y980410D01*
Y992840D01*
X1568750Y1023900D01*
X1556330D01*
X1554310Y1021880D01*
X1555170Y1023370D01*
X1556050Y1026670D01*
Y1030100D01*
X1555170Y1033400D01*
X1553450Y1036370D01*
X1543230Y1046590D01*
X1525020Y1028390D01*
X1520780Y1032630D01*
X1516540Y1028390D01*
X1498330Y1046590D01*
X1488110Y1036370D01*
X1486400Y1033400D01*
X1485510Y1030100D01*
Y1026670D01*
X1486400Y1023370D01*
X1488110Y1020400D01*
X1498330Y1010180D01*
X1516540Y1028380D01*
X1520780Y1024140D01*
X1502570Y1005940D01*
X1498890Y1010740D02*
X1507380D01*
X1504880Y1016720D02*
X1513360D01*
X1510860Y1022710D02*
X1519350D01*
X1516850Y1028690D02*
X1516230D01*
X1520780Y1032630D02*
X1502570Y1050830D01*
X1512800Y1061060D01*
X1515760Y1062770D01*
X1519070Y1063660D01*
X1522490D01*
X1525800Y1062770D01*
X1528760Y1061060D01*
X1538990Y1050830D01*
X1520780Y1032630D01*
X1518730Y1034680D02*
X1510250D01*
X1512750Y1040660D02*
X1504260D01*
X1506760Y1046650D02*
X1169940D01*
Y1052630D02*
X1504370D01*
X1510360Y1058620D02*
X1168850D01*
X1169050Y1058270D02*
X1167340Y1061240D01*
X1164920Y1063660D01*
X1161950Y1065370D01*
X1158650Y1066250D01*
X1144190D01*
Y1040510D01*
X1169940D01*
Y1054970D01*
X1169050Y1058270D01*
X1163280Y1064600D02*
X1539460D01*
X1531200Y1058620D02*
X1549850D01*
X1560240Y1052630D02*
X1537190D01*
X1534800Y1046650D02*
X1568620D01*
X1574620Y1040660D02*
X1549160D01*
X1554430Y1034680D02*
X1580630D01*
X1586630Y1028690D02*
X1556050D01*
X1555140Y1022710D02*
X1554780D01*
X1569940D02*
X1591600D01*
X1595070Y1016720D02*
X1575930D01*
X1581910Y1010740D02*
X1598540D01*
X1602010Y1004750D02*
X1587900D01*
X1593880Y998770D02*
X1605480D01*
X1608120Y992780D02*
X1599810D01*
Y986800D02*
X1609740D01*
X1611360Y980810D02*
X1599810D01*
X1594220Y974830D02*
X1612980D01*
X1614600Y968840D02*
X1588240D01*
X1582250Y962860D02*
X1616220D01*
X1616740Y956870D02*
X1576270D01*
X1570280Y950890D02*
X1617150D01*
X1617520Y944900D02*
X1543230D01*
X1544820Y941590D03*
X1544960Y938920D02*
X1617080D01*
Y932930D02*
X1545690D01*
Y926950D02*
X1616920D01*
X1619480Y920960D02*
X1545960D01*
X1545690Y914980D02*
X1625280D01*
X1631450Y908990D02*
X1545690D01*
Y903010D02*
X1642170D01*
Y897020D02*
X1545690D01*
Y891040D02*
X1642170D01*
Y885050D02*
X1545690D01*
Y879060D02*
X1642170D01*
Y873080D02*
X1545690D01*
Y867090D02*
X1642170D01*
Y861110D02*
X1545690D01*
Y855120D02*
X1642170D01*
Y849140D02*
X1545690D01*
Y843150D02*
X1642170D01*
Y837170D02*
X1545690D01*
Y831180D02*
X1642170D01*
Y825200D02*
X1545690D01*
Y819210D02*
X1642170D01*
Y813230D02*
X1545690D01*
Y807240D02*
X1642170D01*
Y801260D02*
X1545690D01*
Y795270D02*
X1642170D01*
Y789290D02*
X1545690D01*
Y783300D02*
X1642170D01*
Y777320D02*
X1545690D01*
Y771330D02*
X1642170D01*
Y765350D02*
X1545690D01*
Y759360D02*
X1642170D01*
Y753380D02*
X1545690D01*
Y747390D02*
X1642170D01*
Y741410D02*
X1545690D01*
Y735420D02*
X1642170D01*
Y729440D02*
X1545690D01*
Y723450D02*
X1642170D01*
Y717470D02*
X1545690D01*
Y711480D02*
X1642170D01*
Y705500D02*
X1545690D01*
Y699510D02*
X1642170D01*
Y693530D02*
X1545690D01*
Y687540D02*
X1642170D01*
Y681560D02*
X1545690D01*
Y675570D02*
X1642170D01*
Y669590D02*
X1545690D01*
Y663600D02*
X1642170D01*
Y657620D02*
X1545690D01*
Y651630D02*
X1642170D01*
Y645650D02*
X1545690D01*
Y639660D02*
X1642170D01*
Y633680D02*
X1545690D01*
Y627690D02*
X1559610D01*
X1559700Y627780D02*
X1550910Y619000D01*
Y575070D01*
X1559700Y566290D01*
X1562560D01*
X1560890Y565840D01*
X1557930Y564130D01*
X1555510Y561710D01*
X1553800Y558740D01*
X1552910Y555440D01*
Y540980D01*
X1578660D01*
Y534980D01*
X1552910D01*
Y520520D01*
X1553800Y517210D01*
X1555510Y514250D01*
X1557930Y511830D01*
X1560890Y510120D01*
X1564200Y509230D01*
X1578660D01*
Y534980D01*
X1584660D01*
Y540980D01*
X1610410D01*
Y555440D01*
X1609520Y558740D01*
X1607810Y561710D01*
X1605390Y564130D01*
X1602430Y565840D01*
X1600760Y566290D01*
X1603620D01*
X1612410Y575070D01*
Y619000D01*
X1603620Y627780D01*
X1559700D01*
X1553620Y621710D02*
X1545690D01*
Y615720D02*
X1550910D01*
Y609730D02*
X1545690D01*
Y603750D02*
X1550910D01*
Y597760D02*
X1545690D01*
Y591780D02*
X1550910D01*
Y585790D02*
X1545690D01*
Y579810D02*
X1550910D01*
X1552160Y573820D02*
X1545690D01*
Y567840D02*
X1558150D01*
X1555650Y561850D02*
X1545690D01*
Y555870D02*
X1553030D01*
X1552910Y549880D02*
X1545690D01*
Y543900D02*
X1552910D01*
X1545690Y537910D02*
X1578660D01*
Y531930D02*
X1584660D01*
Y534980D02*
Y509230D01*
X1599120D01*
X1602430Y510120D01*
X1605390Y511830D01*
X1607810Y514250D01*
X1609520Y517210D01*
X1610410Y520520D01*
Y534980D01*
X1584660D01*
Y537910D02*
X1642170D01*
Y531930D02*
X1610410D01*
Y525940D02*
X1642170D01*
Y519960D02*
X1610260D01*
X1607540Y513970D02*
X1642170D01*
Y507990D02*
X1545690D01*
Y513970D02*
X1555780D01*
X1553060Y519960D02*
X1545690D01*
Y525940D02*
X1552910D01*
Y531930D02*
X1545690D01*
X1578660Y525940D02*
X1584660D01*
Y519960D02*
X1578660D01*
Y513970D02*
X1584660D01*
X1545690Y502000D02*
X1642170D01*
Y496020D02*
X1545690D01*
Y490030D02*
X1642170D01*
Y484050D02*
X1545690D01*
Y478060D02*
X1642170D01*
Y472080D02*
X1545690D01*
Y466090D02*
X1642170D01*
Y460110D02*
X1545690D01*
Y454120D02*
X1642170D01*
Y448140D02*
X1545690D01*
Y442150D02*
X1642170D01*
Y436170D02*
X1545690D01*
Y430180D02*
X1642170D01*
Y424200D02*
X1545690D01*
Y418210D02*
X1642170D01*
Y412230D02*
X1545690D01*
Y406240D02*
X1642170D01*
Y400260D02*
X1545690D01*
Y394270D02*
X1642170D01*
Y388290D02*
X1545690D01*
Y382300D02*
X1642170D01*
Y376320D02*
X1545690D01*
Y370330D02*
X1642170D01*
Y364350D02*
X1545690D01*
Y358360D02*
X1642170D01*
Y352380D02*
X1545690D01*
Y346390D02*
X1642170D01*
Y340400D02*
X1545690D01*
Y334420D02*
X1642170D01*
Y328430D02*
X1545690D01*
Y322450D02*
X1642170D01*
Y316460D02*
X1545690D01*
Y310480D02*
X1642170D01*
Y304490D02*
X1545690D01*
Y298510D02*
X1642170D01*
Y292520D02*
X1545690D01*
Y286540D02*
X1642170D01*
Y280550D02*
X1545690D01*
Y274570D02*
X1642170D01*
Y268580D02*
X1545690D01*
Y262600D02*
X1642170D01*
X1642940Y256610D02*
X1545690D01*
Y250630D02*
X1723510D01*
Y256610D02*
X1697390D01*
X1698150Y262600D02*
X1723520D01*
X1723530Y268580D02*
X1698150D01*
Y274570D02*
X1723540D01*
Y280550D02*
X1698150D01*
Y286540D02*
X1723550D01*
X1723560Y292520D02*
X1698150D01*
Y298510D02*
X1723560D01*
X1723570Y304490D02*
X1698150D01*
Y310480D02*
X1723580D01*
X1723590Y316460D02*
X1698150D01*
Y322450D02*
X1723590D01*
X1723600Y328430D02*
X1698150D01*
Y334420D02*
X1723610D01*
Y340400D02*
X1698150D01*
Y346390D02*
X1723620D01*
X1723630Y352380D02*
X1698150D01*
Y358360D02*
X1723640D01*
Y364350D02*
X1698150D01*
Y370330D02*
X1723650D01*
X1723660Y376320D02*
X1698150D01*
Y382300D02*
X1723670D01*
Y388290D02*
X1698150D01*
Y394270D02*
X1723680D01*
X1723690Y400260D02*
X1698150D01*
Y406240D02*
X1723690D01*
X1723700Y412230D02*
X1698150D01*
Y418210D02*
X1723710D01*
X1723720Y424200D02*
X1698150D01*
Y430180D02*
X1723720D01*
X1723730Y436170D02*
X1698150D01*
Y442150D02*
X1723740D01*
Y448140D02*
X1698150D01*
Y454120D02*
X1723750D01*
X1723760Y460110D02*
X1698150D01*
Y466090D02*
X1723770D01*
Y472080D02*
X1698150D01*
Y478060D02*
X1723780D01*
X1723790Y484050D02*
X1698150D01*
Y490030D02*
X1723800D01*
Y496020D02*
X1698150D01*
Y502000D02*
X1723810D01*
X1723820Y507990D02*
X1698150D01*
Y513970D02*
X1723820D01*
X1723830Y519960D02*
X1698150D01*
Y525940D02*
X1723840D01*
X1723850Y531930D02*
X1698150D01*
Y537910D02*
X1723850D01*
X1723860Y543900D02*
X1698150D01*
Y549880D02*
X1723870D01*
X1723880Y555870D02*
X1698150D01*
Y561850D02*
X1723880D01*
X1723890Y567840D02*
X1698150D01*
Y573820D02*
X1723900D01*
Y579810D02*
X1698150D01*
Y585790D02*
X1723910D01*
X1723920Y591780D02*
X1698150D01*
Y597760D02*
X1723930D01*
Y603750D02*
X1698150D01*
Y609730D02*
X1723940D01*
X1723950Y615720D02*
X1698150D01*
Y621710D02*
X1723950D01*
X1723960Y627690D02*
X1698150D01*
Y633680D02*
X1723970D01*
X1723980Y639660D02*
X1698150D01*
Y645650D02*
X1723980D01*
X1723990Y651630D02*
X1698150D01*
Y657620D02*
X1724000D01*
X1724010Y663600D02*
X1698150D01*
Y669590D02*
X1724010D01*
X1724020Y675570D02*
X1698150D01*
Y681560D02*
X1724030D01*
Y687540D02*
X1698150D01*
Y693530D02*
X1724040D01*
X1724050Y699510D02*
X1698150D01*
Y705500D02*
X1724060D01*
Y711480D02*
X1698150D01*
Y717470D02*
X1724070D01*
X1724080Y723450D02*
X1698150D01*
Y729440D02*
X1724080D01*
X1724090Y735420D02*
X1698150D01*
Y741410D02*
X1724100D01*
X1724110Y747390D02*
X1698150D01*
Y753380D02*
X1724110D01*
X1724120Y759360D02*
X1698150D01*
Y765350D02*
X1724130D01*
X1724140Y771330D02*
X1698150D01*
Y777320D02*
X1724140D01*
X1724150Y783300D02*
X1698150D01*
Y789290D02*
X1724160D01*
Y795270D02*
X1698150D01*
Y801260D02*
X1724170D01*
X1724180Y807240D02*
X1698150D01*
Y813230D02*
X1724190D01*
Y819210D02*
X1698150D01*
Y825200D02*
X1724200D01*
X1724210Y831180D02*
X1698150D01*
Y837170D02*
X1724210D01*
X1724220Y843150D02*
X1698150D01*
Y849140D02*
X1724230D01*
X1724240Y855120D02*
X1698150D01*
Y861110D02*
X1724240D01*
X1724250Y867090D02*
X1698150D01*
Y873080D02*
X1724260D01*
X1724270Y879060D02*
X1698150D01*
Y885050D02*
X1724270D01*
X1724280Y891040D02*
X1698150D01*
Y897020D02*
X1724290D01*
Y903010D02*
X1698150D01*
X1738730Y914300D02*
X1739890Y917380D01*
X1742690Y920180D01*
Y924830D01*
X1744450Y929510D01*
X1747300Y932430D01*
X1747240Y936960D01*
X1748840Y941200D01*
X1747150Y944920D01*
X1746610Y991830D01*
X1747580Y993170D01*
X1746510Y999910D01*
X1746430Y1006740D01*
X1745250Y1007900D01*
X1734660Y1074610D01*
X1735380Y1075940D01*
X1733390Y1082610D01*
X1732300Y1089470D01*
X1731080Y1090370D01*
X1709580Y1162350D01*
X1710120Y1163790D01*
X1707260Y1170110D01*
X1705280Y1176760D01*
X1703930Y1177490D01*
X1670460Y1251470D01*
X1670820Y1253720D01*
X1667150Y1258790D01*
X1664570Y1264490D01*
X1662440Y1265300D01*
X1603180Y1347130D01*
Y1348940D01*
X1598450Y1353670D01*
X1594520Y1359090D01*
X1592740Y1359380D01*
X1545290Y1406830D01*
X1545180Y1407980D01*
X1539540Y1412580D01*
X1534390Y1417730D01*
X1533240D01*
X1492490Y1451010D01*
X1492270Y1451300D01*
X1516890Y1467710D01*
X1541050Y1512690D01*
X1556040Y1557680D01*
X1548610Y1586970D01*
X1571820Y1571500D01*
X1593150Y1556270D01*
X1629920Y1525620D01*
X1707960Y1447590D01*
X1741560Y1407870D01*
X1761700Y1377670D01*
X1790970Y1333770D01*
X1799390Y1316920D01*
X1802020Y1311660D01*
X1806800Y1302100D01*
X1815640Y1284420D01*
X1828090Y1259530D01*
X1840240Y1229140D01*
X1850120Y1199510D01*
X1868200Y1145270D01*
X1875840Y1107050D01*
X1877750Y1097510D01*
X1879090Y1090810D01*
X1886720Y1052660D01*
X1890360Y998140D01*
X1892930Y959510D01*
Y916890D01*
X1892600Y913940D01*
X1738730Y914300D01*
X1738990Y914980D02*
X1892720D01*
X1892930Y920960D02*
X1742690D01*
X1743480Y926950D02*
X1892930D01*
Y932930D02*
X1747290D01*
X1747980Y938920D02*
X1892930D01*
Y944900D02*
X1747160D01*
X1747080Y950890D02*
X1892930D01*
Y956870D02*
X1747010D01*
X1746940Y962860D02*
X1892710D01*
X1892310Y968840D02*
X1746870D01*
X1746810Y974830D02*
X1891910D01*
X1891510Y980810D02*
X1746740D01*
X1746670Y986800D02*
X1891110D01*
X1890710Y992780D02*
X1747300D01*
X1746700Y998770D02*
X1890310D01*
X1890360Y998140D03*
X1889910Y1004750D02*
X1746460D01*
X1744800Y1010740D02*
X1889520D01*
X1889120Y1016720D02*
X1743850D01*
X1742900Y1022710D02*
X1888720D01*
X1888320Y1028690D02*
X1741950D01*
X1741000Y1034680D02*
X1799800D01*
X1800180Y1034300D02*
X1797760Y1036720D01*
X1796050Y1039680D01*
X1792310Y1053650D01*
X1817180Y1060310D01*
X1815630Y1066110D01*
X1790760Y1059440D01*
X1787020Y1073410D01*
Y1076830D01*
X1787900Y1080140D01*
X1789610Y1083100D01*
X1792030Y1085520D01*
X1793520Y1086380D01*
X1790760Y1085640D01*
X1780000Y1091860D01*
X1768630Y1134280D01*
X1774850Y1145040D01*
X1817270Y1156410D01*
X1828030Y1150200D01*
X1839400Y1107770D01*
X1833190Y1097010D01*
X1830430Y1096270D01*
X1832150D01*
X1835460Y1095390D01*
X1838420Y1093670D01*
X1840840Y1091250D01*
X1842550Y1088290D01*
X1846290Y1074320D01*
X1821420Y1067660D01*
X1822980Y1061860D01*
X1829640Y1036990D01*
X1843610Y1040740D01*
X1846570Y1042450D01*
X1848990Y1044870D01*
X1850700Y1047830D01*
X1851590Y1051140D01*
Y1054560D01*
X1847850Y1068530D01*
X1822980Y1061860D01*
X1817180Y1060310D01*
X1823850Y1035440D01*
X1809880Y1031700D01*
X1806460D01*
X1803150Y1032580D01*
X1800180Y1034300D01*
X1795790Y1040660D02*
X1740050D01*
X1739100Y1046650D02*
X1794190D01*
X1792580Y1052630D02*
X1738150D01*
X1737200Y1058620D02*
X1810860D01*
X1810020Y1064600D02*
X1816030D01*
X1817630Y1058620D02*
X1823850D01*
X1822240Y1064600D02*
X1833200D01*
X1832360Y1070590D02*
X1883130D01*
X1881940Y1076570D02*
X1845690D01*
X1844090Y1082560D02*
X1880740D01*
X1879540Y1088540D02*
X1842410D01*
X1836940Y1094530D02*
X1878350D01*
X1877150Y1100510D02*
X1835210D01*
X1838670Y1106500D02*
X1875950D01*
X1874760Y1112480D02*
X1838140D01*
X1836540Y1118470D02*
X1873560D01*
X1872360Y1124450D02*
X1834930D01*
X1833330Y1130440D02*
X1871160D01*
X1869970Y1136420D02*
X1831720D01*
X1830120Y1142410D02*
X1868770D01*
X1867160Y1148400D02*
X1828520D01*
X1820790Y1154380D02*
X1865160D01*
X1863170Y1160370D02*
X1710170D01*
X1708960Y1166350D02*
X1861170D01*
X1859180Y1172340D02*
X1706600D01*
X1703550Y1178320D02*
X1857180D01*
X1855190Y1184310D02*
X1700840D01*
X1698130Y1190290D02*
X1853190D01*
X1851200Y1196280D02*
X1695430D01*
X1692720Y1202260D02*
X1849200D01*
X1847210Y1208250D02*
X1690010D01*
X1687310Y1214230D02*
X1845210D01*
X1843220Y1220220D02*
X1684600D01*
X1681890Y1226200D02*
X1841220D01*
X1839020Y1232190D02*
X1679190D01*
X1676480Y1238170D02*
X1836630D01*
X1834230Y1244160D02*
X1673770D01*
X1671070Y1250140D02*
X1831840D01*
X1829450Y1256130D02*
X1669080D01*
X1665650Y1262110D02*
X1826790D01*
X1823800Y1268100D02*
X1660420D01*
X1656080Y1274080D02*
X1820810D01*
X1817820Y1280070D02*
X1651750D01*
X1647410Y1286050D02*
X1814820D01*
X1811830Y1292040D02*
X1643080D01*
X1638750Y1298020D02*
X1808840D01*
X1806800Y1302100D03*
X1805850Y1304010D02*
X1634410D01*
X1630080Y1309990D02*
X1802850D01*
X1799860Y1315980D02*
X1625740D01*
X1621410Y1321960D02*
X1796870D01*
X1799390Y1316920D03*
X1793880Y1327950D02*
X1617080D01*
X1612740Y1333930D02*
X1790860D01*
X1786870Y1339920D02*
X1608410D01*
X1604070Y1345900D02*
X1782880D01*
X1778880Y1351890D02*
X1666040D01*
X1665740Y1351640D02*
X1676820Y1360940D01*
X1660270Y1380660D01*
X1664870Y1384520D01*
X1661010Y1389110D01*
X1680730Y1405660D01*
X1671440Y1416740D01*
X1668640Y1418700D01*
X1665420Y1419870D01*
X1662010Y1420170D01*
X1658640Y1419580D01*
X1657080Y1418850D01*
X1659270Y1420690D01*
X1660350Y1433070D01*
X1632120Y1466710D01*
X1619740Y1467800D01*
X1586090Y1439560D01*
X1585010Y1427180D01*
X1613240Y1393540D01*
X1625620Y1392460D01*
X1627810Y1394290D01*
X1626820Y1392880D01*
X1625650Y1389670D01*
X1625350Y1386260D01*
X1625950Y1382880D01*
X1627400Y1379780D01*
X1636690Y1368710D01*
X1656410Y1385260D01*
X1660270Y1380660D01*
X1640550Y1364110D01*
X1649840Y1353030D01*
X1652640Y1351070D01*
X1655860Y1349900D01*
X1659270Y1349600D01*
X1662640Y1350200D01*
X1665740Y1351640D01*
X1673170Y1357870D02*
X1774890D01*
X1770900Y1363860D02*
X1674370D01*
X1677180Y1369840D02*
X1669350D01*
X1672160Y1375830D02*
X1664320D01*
X1661650Y1381810D02*
X1667130D01*
X1664870Y1384520D02*
X1681420Y1364790D01*
X1692490Y1374090D01*
X1694460Y1376890D01*
X1695630Y1380110D01*
X1695930Y1383520D01*
X1695330Y1386890D01*
X1693880Y1389990D01*
X1684590Y1401070D01*
X1664870Y1384520D01*
X1662110Y1387800D02*
X1668780D01*
X1666580Y1393780D02*
X1675910D01*
X1673710Y1399770D02*
X1683040D01*
X1685680D02*
X1746960D01*
X1742970Y1405750D02*
X1680660D01*
X1675640Y1411740D02*
X1738290D01*
X1733230Y1417730D02*
X1670030D01*
X1659530Y1423710D02*
X1728160D01*
X1723100Y1429700D02*
X1660060D01*
X1658160Y1435680D02*
X1718030D01*
X1712970Y1441670D02*
X1653140D01*
X1648110Y1447650D02*
X1707890D01*
X1701910Y1453640D02*
X1643090D01*
X1638070Y1459620D02*
X1695920D01*
X1689940Y1465610D02*
X1633050D01*
X1617130D02*
X1513730D01*
X1518970Y1471590D02*
X1683950D01*
X1677970Y1477580D02*
X1522190D01*
X1525400Y1483560D02*
X1671980D01*
X1666000Y1489550D02*
X1528620D01*
X1531830Y1495530D02*
X1660010D01*
X1654030Y1501520D02*
X1535050D01*
X1538260Y1507500D02*
X1648040D01*
X1642060Y1513490D02*
X1541310D01*
X1543310Y1519470D02*
X1636070D01*
X1630090Y1525460D02*
X1545300D01*
X1547300Y1531440D02*
X1622940D01*
X1615760Y1537430D02*
X1549290D01*
X1551290Y1543410D02*
X1608570D01*
X1601390Y1549400D02*
X1553280D01*
X1555280Y1555380D02*
X1594210D01*
X1586010Y1561370D02*
X1555110D01*
X1553590Y1567350D02*
X1577630D01*
X1569070Y1573340D02*
X1552070D01*
X1550550Y1579320D02*
X1560090D01*
X1551110Y1585310D02*
X1549040D01*
X1504760Y1459620D02*
X1610000D01*
X1602860Y1453640D02*
X1495780D01*
X1496600Y1447650D02*
X1595730D01*
X1588600Y1441670D02*
X1503920D01*
X1511250Y1435680D02*
X1585750D01*
X1585230Y1429700D02*
X1518580D01*
X1525910Y1423710D02*
X1587920D01*
X1592950Y1417730D02*
X1534390D01*
X1540570Y1411740D02*
X1597970D01*
X1602990Y1405750D02*
X1546360D01*
X1552350Y1399770D02*
X1608010D01*
X1613040Y1393780D02*
X1558330D01*
X1564320Y1387800D02*
X1625490D01*
X1626450Y1381810D02*
X1570300D01*
X1576290Y1375830D02*
X1630710D01*
X1635730Y1369840D02*
X1582280D01*
X1588260Y1363860D02*
X1640760D01*
X1638050Y1369840D02*
X1647380D01*
X1645180Y1375830D02*
X1654510D01*
X1652310Y1381810D02*
X1659300D01*
X1645780Y1357870D02*
X1595410D01*
X1600230Y1351890D02*
X1651470D01*
X1687440Y1369840D02*
X1766910D01*
X1762920Y1375830D02*
X1693710D01*
X1695780Y1381810D02*
X1758930D01*
X1761700Y1377670D03*
X1754940Y1387800D02*
X1694910D01*
X1690700Y1393780D02*
X1750950D01*
X1627450D02*
X1627210D01*
X1711960Y1154380D02*
X1809690D01*
X1787350Y1148400D02*
X1713750D01*
X1715530Y1142410D02*
X1773330D01*
X1769870Y1136420D02*
X1717320D01*
X1719110Y1130440D02*
X1769660D01*
X1771270Y1124450D02*
X1720900D01*
X1722680Y1118470D02*
X1772870D01*
X1774470Y1112480D02*
X1724470D01*
X1726260Y1106500D02*
X1776080D01*
X1777680Y1100510D02*
X1728050D01*
X1729830Y1094530D02*
X1779290D01*
X1785740Y1088540D02*
X1732450D01*
X1733410Y1082560D02*
X1789300D01*
X1787020Y1076570D02*
X1735200D01*
X1735300Y1070590D02*
X1787770D01*
X1789370Y1064600D02*
X1736250D01*
X1819240Y1052630D02*
X1825450D01*
X1827050Y1046650D02*
X1820840D01*
X1822450Y1040660D02*
X1828660D01*
X1821000Y1034680D02*
X1887920D01*
X1887520Y1040660D02*
X1843340D01*
X1850020Y1046650D02*
X1887120D01*
X1886720Y1052630D02*
X1851590D01*
X1850500Y1058620D02*
X1885530D01*
X1884330Y1064600D02*
X1848900D01*
X1554800Y950890D02*
X1540370D01*
X1537500Y956870D02*
X1548810D01*
X1542830Y962860D02*
X1534640D01*
X1536840Y968840D02*
X1531770D01*
X1531610Y969180D03*
X1530860Y974830D02*
X1525340D01*
X1525270Y980810D02*
X1518700D01*
X1525270Y986800D02*
X1512060D01*
X1508890Y989650D03*
X1509740Y998770D02*
X1483310D01*
X1500100Y992780D02*
X1525270D01*
X1497770Y1010740D02*
X1163850D01*
X1164920Y1011360D02*
X1167340Y1013780D01*
X1169050Y1016740D01*
X1169940Y1020050D01*
Y1034510D01*
X1144190D01*
Y1008760D01*
X1158650D01*
X1161950Y1009640D01*
X1164920Y1011360D01*
X1169040Y1016720D02*
X1491790D01*
X1486780Y1022710D02*
X1169940D01*
Y1028690D02*
X1485510D01*
X1487130Y1034680D02*
X1144190D01*
Y1040660D02*
X1138190D01*
Y1046650D02*
X1144190D01*
Y1052630D02*
X1138190D01*
Y1058620D02*
X1144190D01*
Y1064600D02*
X1138190D01*
X1119100D02*
X1107740D01*
X1112880Y1058620D02*
X1113530D01*
X1138190Y1028690D02*
X1144190D01*
Y1022710D02*
X1138190D01*
Y1016720D02*
X1144190D01*
Y1010740D02*
X1138190D01*
X1118530D02*
X1108070D01*
X1112880Y1016720D02*
X1113340D01*
X1169940Y1040660D02*
X1492400D01*
X1522830Y1034680D02*
X1531320D01*
X1528820Y1040660D02*
X1537300D01*
X1525330Y1028690D02*
X1524720D01*
X1520920Y1070590D02*
X701470D01*
X713580Y998770D02*
X735900D01*
X728750Y997510D03*
X720220Y992780D02*
X698050D01*
Y986800D02*
X709420D01*
X704830Y984260D03*
X702090Y980810D02*
X698050D01*
X697310Y974830D02*
X692460D01*
X692540Y968840D02*
X686480D01*
X687780Y962870D03*
Y962860D02*
X680490D01*
X686050Y956870D02*
X674510D01*
X668520Y950890D02*
X684320D01*
X830340Y819210D02*
X897500D01*
Y817660D02*
X871750D01*
Y803200D01*
X872630Y799900D01*
X874350Y796930D01*
X876770Y794510D01*
X879730Y792800D01*
X883040Y791920D01*
X897500D01*
Y817660D01*
Y813230D02*
X903500D01*
Y807240D02*
X897500D01*
Y801260D02*
X903500D01*
Y795270D02*
X897500D01*
X908540Y783300D02*
X805570D01*
X802730Y777320D02*
X899870D01*
X891200Y771330D02*
X800630D01*
X798870Y765350D02*
X886010D01*
X887990Y769120D02*
X875510Y745320D01*
Y718450D01*
X887990Y694650D01*
X910110Y679380D01*
X936790Y676140D01*
X961920Y685670D01*
X979740Y705790D01*
X986180Y731890D01*
X979740Y757980D01*
X961920Y778100D01*
X936790Y787630D01*
X910110Y784390D01*
X887990Y769120D01*
X882870Y759360D02*
X797110D01*
X796500Y753380D02*
X879730D01*
X876590Y747390D02*
X839440D01*
X795950D01*
X839640Y747510D02*
X801600Y725550D01*
X798380Y713540D01*
X820350Y675500D01*
X832350Y672290D01*
X834820Y673720D01*
X833610Y672500D01*
X831900Y669540D01*
X831010Y666230D01*
Y662810D01*
X831900Y659500D01*
X839130Y646980D01*
X861420Y659850D01*
X864420Y654660D01*
X842130Y641780D01*
X849350Y629260D01*
X851780Y626840D01*
X854740Y625130D01*
X858050Y624240D01*
X861470D01*
X864780Y625130D01*
X877300Y632360D01*
X864420Y654660D01*
X869620Y657660D01*
X866620Y662850D01*
X888920Y675730D01*
X881690Y688250D01*
X879270Y690670D01*
X876300Y692380D01*
X873000Y693270D01*
X869570D01*
X867910Y692820D01*
X870390Y694250D01*
X873600Y706250D01*
X851640Y744290D01*
X839640Y747510D01*
X795400Y741410D02*
X829080D01*
X818710Y735420D02*
X794850D01*
X794300Y729440D02*
X808340D01*
X801040Y723450D02*
X794040D01*
X795060Y717470D02*
X799440D01*
X799570Y711480D02*
X796080D01*
X797100Y705500D02*
X803030D01*
X806490Y699510D02*
X798120D01*
X799140Y693530D02*
X809940D01*
X813400Y687540D02*
X800970D01*
X803710Y681560D02*
X816850D01*
X820310Y675570D02*
X806440D01*
X809180Y669590D02*
X831920D01*
X831010Y663600D02*
X811910D01*
X815110Y657620D02*
X832980D01*
X836440Y651630D02*
X820040D01*
X824960Y645650D02*
X848820D01*
X847180Y651630D02*
X859180D01*
X857550Y657620D02*
X862710D01*
X869550D02*
X869640D01*
X869620Y657660D02*
X882490Y635360D01*
X895020Y642590D01*
X897440Y645010D01*
X899150Y647970D01*
X900030Y651280D01*
Y654700D01*
X899150Y658010D01*
X891920Y670530D01*
X869620Y657660D01*
X867920Y663600D02*
X879920D01*
X878280Y669590D02*
X890280D01*
X892460D02*
X966620D01*
X970070Y675570D02*
X888650D01*
X885550Y681560D02*
X906970D01*
X898290Y687540D02*
X882100D01*
X889620Y693530D02*
X869130D01*
X871800Y699510D02*
X885440D01*
X882300Y705500D02*
X873400D01*
X870580Y711480D02*
X879160D01*
X876020Y717470D02*
X867130D01*
X863670Y723450D02*
X875510D01*
Y729440D02*
X860220D01*
X856760Y735420D02*
X875510D01*
Y741410D02*
X853310D01*
X876010Y795270D02*
X812150D01*
X808420Y789290D02*
X1047530D01*
X1050990Y783300D02*
X948190D01*
X936790Y787630D03*
X932230Y795270D02*
X924990D01*
X928720Y801260D02*
X928800D01*
X910110Y784390D03*
X872270Y801260D02*
X816700D01*
X821240Y807240D02*
X871750D01*
Y813230D02*
X825790D01*
X836750Y825200D02*
X871750D01*
Y823660D02*
X897500D01*
Y849410D01*
X883040D01*
X879730Y848530D01*
X876770Y846810D01*
X874350Y844390D01*
X872630Y841430D01*
X871750Y838120D01*
Y823660D01*
Y831180D02*
X844670D01*
X852600Y837170D02*
X871750D01*
X873630Y843150D02*
X860530D01*
X874320Y849140D02*
X882020D01*
X889650Y855120D02*
X970520D01*
X983790Y849140D02*
X985600D01*
X989770Y843150D02*
X996700D01*
X990300Y837170D02*
X1005570D01*
X1012340Y831180D02*
X990300D01*
Y825200D02*
X1019110D01*
X1025880Y819210D02*
X990300D01*
Y813230D02*
X1031660D01*
X1035630Y807240D02*
X990300D01*
Y801260D02*
X1039600D01*
X1043560Y795270D02*
X986870D01*
X962610Y777320D02*
X1053000D01*
X1055010Y771330D02*
X967910D01*
X973220Y765350D02*
X1057010D01*
X1059020Y759360D02*
X978520D01*
X979740Y757980D03*
X980880Y753380D02*
X1061030D01*
X1062280Y747390D02*
X1023870D01*
X1023170Y747580D02*
X1019750D01*
X1016440Y746690D01*
X1013480Y744980D01*
X1011060Y742560D01*
X1003830Y730040D01*
X1026130Y717170D01*
X1039000Y739460D01*
X1026480Y746690D01*
X1023170Y747580D01*
X1019050Y747390D02*
X982350D01*
X983830Y741410D02*
X1010390D01*
X1006940Y735420D02*
X985300D01*
X985570Y729440D02*
X1004870D01*
X1000830Y724840D02*
X993600Y712320D01*
X992710Y709020D01*
Y705590D01*
X993600Y702290D01*
X995310Y699320D01*
X996530Y698110D01*
X994050Y699530D01*
X982050Y696320D01*
X960090Y658280D01*
X963310Y646280D01*
X1001340Y624320D01*
X1013350Y627530D01*
X1035310Y665570D01*
X1032090Y677570D01*
X1029620Y679000D01*
X1031280Y678560D01*
X1034700D01*
X1038010Y679440D01*
X1040970Y681150D01*
X1043390Y683570D01*
X1050620Y696100D01*
X1028320Y708970D01*
X1031320Y714170D01*
X1026130Y717170D01*
X1023130Y711970D01*
X1000830Y724840D01*
X1000030Y723450D02*
X984100D01*
X982620Y717470D02*
X996570D01*
X993370Y711480D02*
X981150D01*
X979740Y705790D03*
X979480Y705500D02*
X992740D01*
X968880Y693530D02*
X980440D01*
X976980Y687540D02*
X963580D01*
X961920Y685670D03*
X951060Y681560D02*
X973530D01*
X963160Y663600D02*
X895920D01*
X899250Y657620D02*
X960270D01*
X961870Y651630D02*
X900030D01*
X897800Y645650D02*
X964400D01*
X974760Y639660D02*
X889950D01*
X880010D02*
X873080D01*
X869630Y645650D02*
X876550D01*
X873100Y651630D02*
X866170D01*
X876540Y633680D02*
X985130D01*
X995500Y627690D02*
X869210D01*
X858960Y615720D02*
X997540D01*
X1007900Y621710D02*
X850610D01*
X850920Y627690D02*
X842270D01*
X846810Y633680D02*
X834810D01*
X829890Y639660D02*
X843350D01*
X869060Y609730D02*
X986600D01*
X974630Y603750D02*
X883520D01*
X889600Y597760D02*
X970540D01*
X970040Y591780D02*
X892950D01*
X894250Y585790D02*
X969610D01*
X970270Y579810D02*
X892950D01*
Y573820D02*
X970270D01*
Y567840D02*
X892950D01*
Y561850D02*
X970270D01*
Y555870D02*
X892950D01*
Y549880D02*
X970270D01*
Y543900D02*
X892950D01*
Y537910D02*
X970270D01*
Y531930D02*
X892950D01*
Y525940D02*
X970270D01*
Y519960D02*
X892950D01*
Y513970D02*
X970270D01*
Y507990D02*
X892950D01*
Y502000D02*
X970270D01*
Y496020D02*
X892950D01*
Y490030D02*
X970270D01*
Y484050D02*
X955720D01*
X955160Y484610D02*
X911230D01*
X902450Y475820D01*
Y431900D01*
X911230Y423110D01*
X914090D01*
X912430Y422670D01*
X909470Y420950D01*
X907040Y418530D01*
X905330Y415570D01*
X904450Y412260D01*
Y397800D01*
X930200D01*
Y391800D01*
X936200D01*
Y397800D01*
X961940D01*
Y412260D01*
X961060Y415570D01*
X959350Y418530D01*
X956930Y420950D01*
X953960Y422670D01*
X952300Y423110D01*
X955160D01*
X963940Y431900D01*
Y475820D01*
X955160Y484610D01*
X961700Y478060D02*
X970270D01*
Y472080D02*
X963940D01*
Y466090D02*
X970270D01*
Y460110D02*
X963940D01*
Y454120D02*
X970270D01*
Y448140D02*
X963940D01*
Y442150D02*
X970270D01*
Y436170D02*
X963940D01*
X962230Y430180D02*
X970270D01*
Y424200D02*
X956240D01*
X959530Y418210D02*
X970270D01*
Y412230D02*
X961940D01*
Y406240D02*
X970270D01*
Y400260D02*
X961940D01*
Y391800D02*
X936200D01*
Y366060D01*
X950660D01*
X953960Y366940D01*
X956930Y368650D01*
X959350Y371070D01*
X961060Y374040D01*
X961940Y377340D01*
Y391800D01*
Y388290D02*
X970270D01*
Y394270D02*
X936200D01*
Y388290D02*
X930200D01*
Y391800D02*
Y366060D01*
X915740D01*
X912430Y366940D01*
X909470Y368650D01*
X907040Y371070D01*
X905330Y374040D01*
X904450Y377340D01*
Y391800D01*
X930200D01*
Y394270D02*
X892950D01*
Y388290D02*
X904450D01*
Y382300D02*
X892950D01*
Y376320D02*
X904720D01*
X907790Y370330D02*
X892950D01*
Y364350D02*
X970270D01*
Y370330D02*
X958600D01*
X961670Y376320D02*
X970270D01*
Y382300D02*
X961940D01*
X936200D02*
X930200D01*
Y376320D02*
X936200D01*
Y370330D02*
X930200D01*
X892950Y358360D02*
X970270D01*
Y352380D02*
X892950D01*
Y346390D02*
X970270D01*
Y340400D02*
X892950D01*
Y334420D02*
X970270D01*
Y328430D02*
X892950D01*
Y322450D02*
X970270D01*
Y316460D02*
X892950D01*
Y310480D02*
X970270D01*
Y304490D02*
X892950D01*
Y298510D02*
X970270D01*
Y292520D02*
X892950D01*
Y286540D02*
X970270D01*
Y280550D02*
X892950D01*
Y274570D02*
X970270D01*
Y268580D02*
X892950D01*
Y262600D02*
X970270D01*
Y256610D02*
X892950D01*
Y250630D02*
X970270D01*
Y244640D02*
X892950D01*
Y238660D02*
X970270D01*
Y232670D02*
X892950D01*
Y226690D02*
X970270D01*
Y220700D02*
X892950D01*
Y214720D02*
X970270D01*
Y208730D02*
X892950D01*
Y202750D02*
X970270D01*
Y196760D02*
X892950D01*
Y190780D02*
X970270D01*
Y184790D02*
X892950D01*
Y178810D02*
X970270D01*
Y172820D02*
X892950D01*
Y166840D02*
X970270D01*
Y160850D02*
X892950D01*
Y154870D02*
X970270D01*
X970310Y148880D02*
X892910D01*
X886930Y142900D02*
X976290D01*
X993150Y128250D02*
X1001940Y119470D01*
Y75550D01*
X993150Y66760D01*
X949230D01*
X940440Y75550D01*
Y78400D01*
X939990Y76740D01*
X938280Y73780D01*
X935860Y71360D01*
X932900Y69640D01*
X929590Y68760D01*
X915130D01*
Y94510D01*
X909130D01*
X883380D01*
Y80050D01*
X884270Y76740D01*
X885980Y73780D01*
X888400Y71360D01*
X891370Y69640D01*
X894670Y68760D01*
X909130D01*
Y94510D01*
Y100510D01*
Y126250D01*
X894670D01*
X891370Y125370D01*
X888400Y123660D01*
X885980Y121240D01*
X884270Y118270D01*
X883380Y114970D01*
Y100510D01*
X909130D01*
X915130D01*
Y126250D01*
X929590D01*
X932900Y125370D01*
X935860Y123660D01*
X938280Y121240D01*
X939990Y118270D01*
X940440Y116610D01*
Y119470D01*
X949230Y128250D01*
X993150D01*
X996460Y124940D02*
X1231710D01*
X1227570Y129080D02*
X1237800Y139300D01*
X1240760Y141010D01*
X1244070Y141900D01*
X1247490D01*
X1250800Y141010D01*
X1252290Y140150D01*
X1250270Y142170D01*
Y154600D01*
X1281330Y185660D01*
X1293750D01*
X1324810Y154600D01*
Y142170D01*
X1293750Y111110D01*
X1281330D01*
X1279310Y113130D01*
X1280170Y111640D01*
X1281050Y108340D01*
Y104920D01*
X1280170Y101610D01*
X1278450Y98640D01*
X1268230Y88420D01*
X1250020Y106630D01*
X1245780Y102380D01*
X1227570Y84180D01*
X1237800Y73950D01*
X1240760Y72240D01*
X1244070Y71360D01*
X1247490D01*
X1250800Y72240D01*
X1253760Y73950D01*
X1263990Y84180D01*
X1245780Y102380D01*
X1241540Y106630D01*
X1223330Y124830D01*
X1213110Y114610D01*
X1211400Y111640D01*
X1210510Y108340D01*
Y104920D01*
X1211400Y101610D01*
X1213110Y98640D01*
X1223330Y88420D01*
X1241540Y106630D01*
X1245780Y110870D01*
X1227570Y129080D01*
X1229420Y130930D02*
X721720D01*
X715740Y136910D02*
X749260D01*
X1235410D01*
X1238870Y142900D02*
X1250270D01*
Y148880D02*
X1244860D01*
X1244900Y154870D02*
X1250540D01*
X1244900Y160850D02*
X1256520D01*
X1262510Y166840D02*
X1244900D01*
Y172820D02*
X1268490D01*
X1274480Y178810D02*
X1244900D01*
Y184790D02*
X1280460D01*
X1294620D02*
X1328550D01*
Y178810D02*
X1300600D01*
X1306590Y172820D02*
X1328550D01*
Y166840D02*
X1312570D01*
X1318560Y160850D02*
X1328550D01*
Y154870D02*
X1324540D01*
X1324810Y148880D02*
X1328550D01*
Y142900D02*
X1324810D01*
X1328550Y136910D02*
X1319550D01*
X1313560Y130930D02*
X1328550D01*
Y124940D02*
X1307580D01*
X1301590Y118960D02*
X1328550D01*
Y112970D02*
X1295610D01*
X1281050Y106990D02*
X1328290D01*
X1327620Y101000D02*
X1279810D01*
X1274820Y95020D02*
X1325580D01*
X1323530Y89030D02*
X1267620D01*
X1259140D01*
X1261630Y95020D02*
X1253150D01*
X1255650Y101000D02*
X1247170D01*
X1244400D02*
X1235910D01*
X1238410Y95020D02*
X1229930D01*
X1232430Y89030D02*
X1222720D01*
X1001940D01*
Y83040D02*
X1228710D01*
X1234690Y77060D02*
X1001940D01*
X997470Y71070D02*
X1310910D01*
X1316000Y77060D02*
X1256870D01*
X1262850Y83040D02*
X1320500D01*
X1302360Y65090D02*
X702480D01*
X696330Y69360D02*
X708750D01*
X739810Y100410D01*
Y112840D01*
X708750Y143900D01*
X696330D01*
X694310Y141880D01*
X695170Y143370D01*
X696050Y146670D01*
Y150100D01*
X695170Y153400D01*
X693450Y156370D01*
X683230Y166590D01*
X665020Y148390D01*
X660780Y152630D01*
X656540Y148390D01*
X638330Y166590D01*
X628110Y156370D01*
X626400Y153400D01*
X625510Y150100D01*
Y146670D01*
X626400Y143370D01*
X628110Y140400D01*
X638330Y130180D01*
X656540Y148380D01*
X660780Y144140D01*
X642570Y125940D01*
X652800Y115710D01*
X655760Y114000D01*
X659070Y113110D01*
X662490D01*
X665800Y114000D01*
X667290Y114860D01*
X665270Y112840D01*
Y100410D01*
X696330Y69360D01*
X694610Y71070D02*
X686710D01*
X688620Y77060D02*
X676410D01*
X682640Y83040D02*
X666110D01*
X657590Y89030D02*
X676650D01*
X670670Y95020D02*
X651630D01*
X645670Y101000D02*
X665270D01*
Y106990D02*
X639710D01*
X633770Y112970D02*
X665400D01*
X649550Y118960D02*
X630330D01*
X626880Y124940D02*
X643570D01*
X647560Y130930D02*
X637580D01*
X623440D01*
X619990Y136910D02*
X631600D01*
X626670Y142900D02*
X616550D01*
X614250Y148880D02*
X625510D01*
X627240Y154870D02*
X612650D01*
X611050Y160850D02*
X632590D01*
X644070D02*
X652560D01*
X650060Y154870D02*
X658540D01*
X660780Y152630D02*
X642570Y170830D01*
X652800Y181060D01*
X655760Y182770D01*
X659070Y183660D01*
X662490D01*
X665800Y182770D01*
X668760Y181060D01*
X678990Y170830D01*
X660780Y152630D01*
X663020Y154870D02*
X671500D01*
X669000Y160850D02*
X677490D01*
X674990Y166840D02*
X689530D01*
X689610Y166620D03*
X688970Y160850D02*
X694880D01*
X694320Y154870D02*
X700350D01*
X696050Y148880D02*
X705820D01*
X706250Y148410D03*
X709750Y142900D02*
X717920D01*
X728550Y137880D03*
X727710Y124940D02*
X890630D01*
X884670Y118960D02*
X733690D01*
X739680Y112970D02*
X883380D01*
Y106990D02*
X739810D01*
Y101000D02*
X883380D01*
Y89030D02*
X728430D01*
X734410Y95020D02*
X909130D01*
Y101000D02*
X915130D01*
Y106990D02*
X909130D01*
Y112970D02*
X915130D01*
Y118960D02*
X909130D01*
Y124940D02*
X915130D01*
X933640D02*
X945910D01*
X940440Y118960D02*
X939600D01*
X915130Y89030D02*
X909130D01*
Y83040D02*
X915130D01*
Y77060D02*
X909130D01*
Y71070D02*
X915130D01*
X935380D02*
X944910D01*
X940440Y77060D02*
X940080D01*
X888890Y71070D02*
X710470D01*
X716460Y77060D02*
X884180D01*
X883380Y83040D02*
X722440D01*
X724520Y59100D02*
X1287970D01*
X1241900Y106990D02*
X1241180D01*
X1243680Y112970D02*
X1235200D01*
X1237690Y118960D02*
X1229210D01*
X1217450D02*
X1001940D01*
Y112970D02*
X1212160D01*
X1210510Y106990D02*
X1001940D01*
Y101000D02*
X1211750D01*
X1216740Y95020D02*
X1001940D01*
X1244900Y190780D02*
X1328550D01*
Y196760D02*
X1244900D01*
Y202750D02*
X1328550D01*
Y208730D02*
X1244900D01*
Y214720D02*
X1328550D01*
Y220700D02*
X1244900D01*
Y226690D02*
X1328550D01*
Y232670D02*
X1244900D01*
Y238660D02*
X1328550D01*
Y244640D02*
X1313040D01*
X1312810Y244250D02*
X1314520Y247210D01*
X1315410Y250520D01*
Y264980D01*
X1289660D01*
Y270980D01*
X1315410D01*
Y285440D01*
X1314520Y288740D01*
X1312810Y291710D01*
X1310390Y294130D01*
X1307430Y295840D01*
X1305760Y296290D01*
X1308620D01*
X1317410Y305070D01*
Y349000D01*
X1308620Y357780D01*
X1264700D01*
X1255910Y349000D01*
Y305070D01*
X1264700Y296290D01*
X1267560D01*
X1265890Y295840D01*
X1262930Y294130D01*
X1260510Y291710D01*
X1258800Y288740D01*
X1257910Y285440D01*
Y270980D01*
X1283660D01*
Y264980D01*
X1257910D01*
Y250520D01*
X1258800Y247210D01*
X1260510Y244250D01*
X1262930Y241830D01*
X1265890Y240120D01*
X1269200Y239230D01*
X1283660D01*
Y264980D01*
X1289660D01*
Y239230D01*
X1304120D01*
X1307430Y240120D01*
X1310390Y241830D01*
X1312810Y244250D01*
X1315410Y250630D02*
X1328550D01*
Y256610D02*
X1315410D01*
Y262600D02*
X1328550D01*
Y268580D02*
X1289660D01*
Y262600D02*
X1283660D01*
Y268580D02*
X1244900D01*
Y262600D02*
X1257910D01*
Y256610D02*
X1244900D01*
Y250630D02*
X1257910D01*
X1260280Y244640D02*
X1244900D01*
X1283660D02*
X1289660D01*
Y250630D02*
X1283660D01*
Y256610D02*
X1289660D01*
X1315410Y274570D02*
X1328550D01*
Y280550D02*
X1315410D01*
X1315110Y286540D02*
X1328550D01*
Y292520D02*
X1312000D01*
X1310840Y298510D02*
X1328550D01*
Y304490D02*
X1316830D01*
X1317410Y310480D02*
X1328550D01*
Y316460D02*
X1317410D01*
Y322450D02*
X1328550D01*
Y328430D02*
X1317410D01*
Y334420D02*
X1328550D01*
Y340400D02*
X1317410D01*
Y346390D02*
X1328550D01*
Y352380D02*
X1314030D01*
X1328550Y358360D02*
X1244900D01*
Y352380D02*
X1259290D01*
X1255910Y346390D02*
X1244900D01*
Y340400D02*
X1255910D01*
Y334420D02*
X1244900D01*
Y328430D02*
X1255910D01*
Y322450D02*
X1244900D01*
Y316460D02*
X1255910D01*
Y310480D02*
X1244900D01*
Y304490D02*
X1256490D01*
X1262480Y298510D02*
X1244900D01*
Y292520D02*
X1261320D01*
X1258210Y286540D02*
X1244900D01*
Y280550D02*
X1257910D01*
Y274570D02*
X1244900D01*
Y364350D02*
X1328550D01*
Y370330D02*
X1244900D01*
Y376320D02*
X1328550D01*
Y382300D02*
X1245830D01*
X1244840Y388290D02*
X1327320D01*
X1328550Y394270D02*
X1240310D01*
X1228320Y400260D02*
X1330910D01*
X1334060Y404360D03*
X1337060Y406240D02*
X1214810D01*
X1205600Y412230D02*
X1347850D01*
X1357740Y418210D02*
X1197020D01*
X1197560Y427660D02*
X1200870Y428550D01*
X1213390Y435780D01*
X1200510Y458070D01*
X1178220Y445200D01*
X1185450Y432680D01*
X1187870Y430260D01*
X1190830Y428550D01*
X1194140Y427660D01*
X1197560D01*
X1203700Y430180D02*
X1349900D01*
X1339530Y436170D02*
X1213160D01*
X1218580Y438780D02*
X1205710Y461070D01*
X1200510Y458070D01*
X1197510Y463270D01*
X1175220Y450400D01*
X1167990Y462920D01*
X1167100Y466230D01*
Y469650D01*
X1167990Y472950D01*
X1169700Y475920D01*
X1170910Y477140D01*
X1168440Y475710D01*
X1156440Y478920D01*
X1134480Y516960D01*
X1137690Y528960D01*
X1175730Y550920D01*
X1187730Y547710D01*
X1209690Y509670D01*
X1206480Y497670D01*
X1204000Y496240D01*
X1205660Y496680D01*
X1209090D01*
X1212390Y495800D01*
X1215360Y494090D01*
X1217780Y491670D01*
X1225010Y479140D01*
X1202710Y466270D01*
X1205710Y461070D01*
X1228010Y473950D01*
X1235240Y461430D01*
X1236120Y458120D01*
Y454700D01*
X1235240Y451390D01*
X1233530Y448430D01*
X1231110Y446010D01*
X1218580Y438780D01*
X1216630Y442150D02*
X1209710D01*
X1206250Y448140D02*
X1213180D01*
X1209720Y454120D02*
X1202800D01*
X1204040Y460110D02*
X1206270D01*
X1202810Y466090D02*
X1214400D01*
X1212770Y472080D02*
X1224770D01*
X1229090D02*
X1326200D01*
X1329650Y478060D02*
X1306580D01*
X1294620Y472300D02*
X1323140Y486040D01*
X1342880Y510790D01*
X1349920Y541650D01*
X1342880Y572510D01*
X1323140Y597250D01*
X1294620Y610990D01*
X1262970D01*
X1234450Y597250D01*
X1214720Y572510D01*
X1207670Y541650D01*
X1214720Y510790D01*
X1234450Y486040D01*
X1262970Y472300D01*
X1294620D01*
X1319010Y484050D02*
X1333110D01*
X1336560Y490030D02*
X1326330D01*
X1323140Y486040D03*
X1331100Y496020D02*
X1340020D01*
X1335880Y502000D02*
X1352190D01*
X1351000Y507990D02*
X1340650D01*
X1342880Y510790D03*
X1343610Y513970D02*
X1352700D01*
X1356150Y519960D02*
X1344970D01*
X1346340Y525940D02*
X1369640D01*
X1368010Y519960D02*
X1380010D01*
X1384410Y517410D02*
X1362110Y530290D01*
X1369340Y542810D01*
X1371760Y545230D01*
X1374730Y546940D01*
X1378040Y547830D01*
X1381460D01*
X1384760Y546940D01*
X1397290Y539710D01*
X1384410Y517410D01*
X1385880Y519960D02*
X1392810D01*
X1390370Y513970D02*
X1389350D01*
X1388740Y507990D02*
X1400740D01*
X1399110Y502000D02*
X1411100D01*
X1412170D02*
X1422510D01*
X1424800Y507990D02*
X1415630D01*
X1419090Y513970D02*
X1425630D01*
X1426460Y519960D02*
X1420020D01*
X1418070Y525940D02*
X1427280D01*
X1428110Y531930D02*
X1410770D01*
X1399720D02*
X1392790D01*
X1389340Y525940D02*
X1396270D01*
X1396250Y537910D02*
X1428940D01*
X1429760Y543900D02*
X1390040D01*
X1370430D02*
X1349410D01*
X1349920Y541650D03*
X1349070Y537910D02*
X1366520D01*
X1363060Y531930D02*
X1347710D01*
X1348040Y549880D02*
X1429120D01*
X1428470Y555870D02*
X1346680D01*
X1345310Y561850D02*
X1427830D01*
X1427180Y567840D02*
X1343940D01*
X1342880Y572510D03*
X1341830Y573820D02*
X1426530D01*
X1425880Y579810D02*
X1337060D01*
X1332280Y585790D02*
X1423840D01*
X1421630Y591780D02*
X1327510D01*
X1323140Y597250D03*
X1322080Y597760D02*
X1419430D01*
X1417230Y603750D02*
X1309650D01*
X1297230Y609730D02*
X1415020D01*
X1412550Y615720D02*
X1143900D01*
X1140770Y609730D02*
X1260370D01*
X1266730Y620700D02*
X1252270D01*
Y646450D01*
X1246270D01*
X1220520D01*
Y631990D01*
X1221410Y628680D01*
X1223120Y625720D01*
X1225540Y623300D01*
X1228500Y621590D01*
X1231810Y620700D01*
X1246270D01*
Y646450D01*
Y652450D01*
Y678200D01*
X1231810D01*
X1228500Y677310D01*
X1225540Y675600D01*
X1223120Y673180D01*
X1221410Y670210D01*
X1220520Y666910D01*
Y652450D01*
X1246270D01*
X1252270D01*
Y678200D01*
X1266730D01*
X1270040Y677310D01*
X1273000Y675600D01*
X1275420Y673180D01*
X1277130Y670210D01*
X1277580Y668550D01*
Y671410D01*
X1286360Y680200D01*
X1330290D01*
X1339070Y671410D01*
Y627490D01*
X1330290Y618700D01*
X1286360D01*
X1277580Y627490D01*
Y630340D01*
X1277130Y628680D01*
X1275420Y625720D01*
X1273000Y623300D01*
X1270040Y621590D01*
X1266730Y620700D01*
X1270240Y621710D02*
X1283360D01*
X1277580Y627690D02*
X1276560D01*
X1252270D02*
X1246270D01*
Y621710D02*
X1252270D01*
Y633680D02*
X1246270D01*
Y639660D02*
X1252270D01*
Y645650D02*
X1246270D01*
Y651630D02*
X1171850D01*
X1166980Y645650D02*
X1220520D01*
Y639660D02*
X1162100D01*
X1157230Y633680D02*
X1220520D01*
X1221980Y627690D02*
X1152360D01*
X1147490Y621710D02*
X1228300D01*
X1235510Y597760D02*
X1134820D01*
X1133170Y591780D02*
X1230090D01*
X1234450Y597250D03*
X1225310Y585790D02*
X1131630D01*
X1130080Y579810D02*
X1220540D01*
X1215770Y573820D02*
X1129560D01*
X1129200Y567840D02*
X1213650D01*
X1214720Y572510D03*
X1212290Y561850D02*
X1128830D01*
X1128470Y555870D02*
X1210920D01*
X1209550Y549880D02*
X1179620D01*
X1173930D02*
X1128100D01*
X1127740Y543900D02*
X1163560D01*
X1153190Y537910D02*
X1127470D01*
X1128650Y531930D02*
X1142830D01*
X1136880Y525940D02*
X1129830D01*
X1131010Y519960D02*
X1135280D01*
X1136200Y513970D02*
X1132190D01*
X1133370Y507990D02*
X1139660D01*
X1143110Y502000D02*
X1134550D01*
X1136360Y496020D02*
X1146570D01*
X1150020Y490030D02*
X1139250D01*
X1142150Y484050D02*
X1153480D01*
X1159650Y478060D02*
X1145040D01*
X1147940Y472080D02*
X1167750D01*
X1167140Y466090D02*
X1150830D01*
X1154220Y460110D02*
X1169610D01*
X1173060Y454120D02*
X1159320D01*
X1164430Y448140D02*
X1183300D01*
X1181670Y454120D02*
X1193670D01*
X1192040Y460110D02*
X1199340D01*
X1179980Y442150D02*
X1169530D01*
X1174640Y436170D02*
X1183430D01*
X1179850Y430180D02*
X1188000D01*
X1188430Y424200D02*
X1365060D01*
X1376470Y436170D02*
X1379400D01*
X1379930Y442150D02*
X1386570D01*
X1383380Y448140D02*
X1392400D01*
X1397690Y454120D02*
X1386840D01*
X1390300Y460110D02*
X1402540D01*
X1406350Y466090D02*
X1393520D01*
X1391920Y472080D02*
X1410150D01*
X1412880Y478060D02*
X1389960D01*
X1401810Y484050D02*
X1415290D01*
X1417700Y490030D02*
X1405260D01*
X1408720Y496020D02*
X1420110D01*
X1382430Y513970D02*
X1378370D01*
X1322740Y466090D02*
X1232540D01*
X1235590Y460110D02*
X1319290D01*
X1319550Y454120D02*
X1235970D01*
X1233240Y448140D02*
X1321160D01*
X1329160Y442150D02*
X1224430D01*
X1223130Y478060D02*
X1251010D01*
X1238580Y484050D02*
X1222180D01*
X1218720Y490030D02*
X1231270D01*
X1234450Y486040D03*
X1226490Y496020D02*
X1211580D01*
X1207640Y502000D02*
X1221720D01*
X1216950Y507990D02*
X1209240D01*
X1207210Y513970D02*
X1213990D01*
X1212620Y519960D02*
X1203750D01*
X1200300Y525940D02*
X1211260D01*
X1209890Y531930D02*
X1196840D01*
X1193390Y537910D02*
X1208520D01*
X1208190Y543900D02*
X1189930D01*
X1137650Y603750D02*
X1247940D01*
X1246270Y657620D02*
X1252270D01*
Y663600D02*
X1246270D01*
Y669590D02*
X1252270D01*
Y675570D02*
X1246270D01*
X1235500Y687540D02*
X1327510D01*
X1334910Y675570D02*
X1355250D01*
X1365120Y669590D02*
X1339070D01*
Y663600D02*
X1371830D01*
X1378550Y657620D02*
X1339070D01*
Y651630D02*
X1385270D01*
X1391980Y645650D02*
X1339070D01*
Y639660D02*
X1396250D01*
X1400320Y633680D02*
X1339070D01*
Y627690D02*
X1404400D01*
X1408480Y621710D02*
X1333290D01*
X1343430Y681560D02*
X1219040D01*
X1225510Y675570D02*
X1204820D01*
X1196400Y669590D02*
X1221240D01*
X1220520Y663600D02*
X1187990D01*
X1179570Y657620D02*
X1220520D01*
X1273030Y675570D02*
X1281740D01*
X1277580Y669590D02*
X1277300D01*
X1270460Y693530D02*
X1296400D01*
X1063940Y711480D02*
X1059510D01*
X1060850Y713810D02*
X1061740Y717120D01*
Y720540D01*
X1060850Y723850D01*
X1059140Y726810D01*
X1056720Y729230D01*
X1044200Y736460D01*
X1031320Y714170D01*
X1053620Y701290D01*
X1060850Y713810D01*
X1061740Y717470D02*
X1064140D01*
X1063770Y723450D02*
X1060960D01*
X1063400Y729440D02*
X1056370D01*
X1063030Y735420D02*
X1046000D01*
X1043600D02*
X1036670D01*
X1035640Y741410D02*
X1062650D01*
X1040140Y729440D02*
X1033210D01*
X1029760Y723450D02*
X1036680D01*
X1033230Y717470D02*
X1025610D01*
X1013610D01*
X1015240Y723450D02*
X1003240D01*
X995200Y699510D02*
X993970D01*
X974180D01*
X1029770Y711480D02*
X1035970D01*
X1034340Y705500D02*
X1046340D01*
X1044710Y699510D02*
X1061520D01*
X1060310Y693530D02*
X1049140D01*
X1045680Y687540D02*
X1059090D01*
X1057880Y681560D02*
X1041370D01*
X1032630Y675570D02*
X1056200D01*
X1053700Y669590D02*
X1034230D01*
X1034170Y663600D02*
X1051190D01*
X1046810Y657620D02*
X1030720D01*
X1027260Y651630D02*
X1041920D01*
X1036180Y645650D02*
X1023800D01*
X1020350Y639660D02*
X1029140D01*
X1022100Y633680D02*
X1016890D01*
X1015070Y627690D02*
X1013440D01*
X1056050Y705500D02*
X1062730D01*
X961920Y778100D03*
X929330Y843150D02*
X927360D01*
X935320Y849140D02*
X918980D01*
X903500D02*
X897500D01*
Y843150D02*
X903500D01*
Y837170D02*
X897500D01*
Y831180D02*
X903500D01*
Y825200D02*
X897500D01*
X928890Y861110D02*
X937010D01*
X612910Y591780D02*
X581930D01*
Y585790D02*
X612910D01*
Y579810D02*
X581930D01*
Y573820D02*
X615210D01*
X618810Y567840D02*
X581930D01*
Y561850D02*
X612830D01*
X610910Y555870D02*
X581930D01*
Y549880D02*
X610910D01*
Y543900D02*
X581930D01*
Y537910D02*
X610910D01*
Y531930D02*
X581930D01*
Y525940D02*
X610910D01*
Y519960D02*
X581930D01*
Y513970D02*
X612960D01*
X618940Y507990D02*
X581930D01*
X512620Y693530D02*
X499800D01*
Y699510D02*
X512620D01*
Y705500D02*
X499800D01*
Y711480D02*
X512620D01*
Y717470D02*
X499800D01*
Y723450D02*
X512620D01*
Y729440D02*
X499800D01*
Y735420D02*
X512620D01*
Y741410D02*
X499800D01*
Y747390D02*
X512620D01*
Y753380D02*
X499800D01*
Y759360D02*
X512620D01*
Y765350D02*
X499800D01*
Y771330D02*
X512620D01*
Y777320D02*
X499800D01*
Y783300D02*
X512620D01*
Y789290D02*
X499800D01*
Y795270D02*
X512620D01*
Y801260D02*
X499800D01*
Y807240D02*
X512620D01*
Y813230D02*
X499800D01*
Y819210D02*
X512620D01*
Y825200D02*
X499800D01*
Y831180D02*
X512620D01*
Y837170D02*
X499800D01*
Y843150D02*
X512620D01*
Y849140D02*
X499800D01*
Y855120D02*
X512620D01*
Y861110D02*
X499800D01*
Y867090D02*
X512620D01*
Y873080D02*
X499800D01*
Y879060D02*
X512620D01*
Y885050D02*
X499800D01*
Y891040D02*
X512620D01*
Y897020D02*
X499800D01*
Y903010D02*
X512620D01*
X892950Y484050D02*
X910680D01*
X904690Y478060D02*
X892950D01*
Y472080D02*
X902450D01*
Y466090D02*
X892950D01*
Y460110D02*
X902450D01*
Y454120D02*
X892950D01*
Y448140D02*
X902450D01*
Y442150D02*
X892950D01*
Y436170D02*
X902450D01*
X904160Y430180D02*
X892950D01*
Y424200D02*
X910150D01*
X906860Y418210D02*
X892950D01*
Y412230D02*
X904450D01*
Y406240D02*
X892950D01*
Y400260D02*
X904450D01*
X681570Y244640D02*
X499800D01*
X595460Y238660D02*
X681570D01*
Y232670D02*
X601440D01*
X604420Y226690D02*
X681570D01*
Y220700D02*
X604420D01*
Y214720D02*
X681570D01*
Y208730D02*
X604420D01*
Y202750D02*
X681570D01*
X681380Y196760D02*
X604610D01*
X605010Y190780D02*
X681160D01*
X682950Y184790D02*
X605400D01*
X606250Y178810D02*
X650550D01*
X644560Y172820D02*
X607850D01*
X609450Y166840D02*
X646570D01*
X656040Y148880D02*
X657030D01*
X659530Y142900D02*
X651050D01*
X653550Y136910D02*
X645060D01*
X664530Y148880D02*
X665520D01*
X677000Y172820D02*
X687330D01*
X685140Y178810D02*
X671020D01*
X694890Y142900D02*
X695320D01*
X1279400Y112970D02*
X1279470D01*
X1545690D02*
X1556790D01*
X1557930Y111830D02*
X1560890Y110120D01*
X1564200Y109230D01*
X1578660D01*
Y134980D01*
X1552910D01*
Y120520D01*
X1553800Y117210D01*
X1555510Y114250D01*
X1557930Y111830D01*
X1553330Y118960D02*
X1545690D01*
Y124940D02*
X1552910D01*
Y130930D02*
X1545690D01*
Y136910D02*
X1578660D01*
Y134980D02*
Y140980D01*
Y166290D01*
X1584660D01*
Y140980D01*
X1578660D01*
X1552910D01*
Y155440D01*
X1553800Y158740D01*
X1555510Y161710D01*
X1557930Y164130D01*
X1560890Y165840D01*
X1562560Y166290D01*
X1559700D01*
X1550910Y175070D01*
Y219000D01*
X1559700Y227780D01*
X1603620D01*
X1612410Y219000D01*
Y175070D01*
X1603620Y166290D01*
X1600760D01*
X1602430Y165840D01*
X1605390Y164130D01*
X1607810Y161710D01*
X1609520Y158740D01*
X1610410Y155440D01*
Y140980D01*
X1584660D01*
Y134980D01*
X1610410D01*
Y120520D01*
X1609520Y117210D01*
X1607810Y114250D01*
X1605390Y111830D01*
X1602430Y110120D01*
X1599120Y109230D01*
X1584660D01*
Y134980D01*
X1578660D01*
Y130930D02*
X1584660D01*
Y136910D02*
X1620100D01*
Y130930D02*
X1610410D01*
Y124940D02*
X1620100D01*
Y118960D02*
X1609990D01*
X1606530Y112970D02*
X1620100D01*
Y106990D02*
X1545690D01*
Y101000D02*
X1620070D01*
X1620090Y95020D02*
X1545860D01*
X1546510Y89030D02*
X1619740D01*
X1618220Y83040D02*
X1549010D01*
X1551620Y77060D02*
X1615860D01*
X1611920Y71070D02*
X1556250D01*
X1562620Y65090D02*
X1606280D01*
X1594330Y59100D02*
X1576370D01*
X1586990Y57750D03*
X1584660Y112970D02*
X1578660D01*
Y118960D02*
X1584660D01*
Y124940D02*
X1578660D01*
Y142900D02*
X1584660D01*
Y148880D02*
X1578660D01*
Y154870D02*
X1584660D01*
Y160850D02*
X1578660D01*
X1559150Y166840D02*
X1545690D01*
Y172820D02*
X1553160D01*
X1550910Y178810D02*
X1545690D01*
Y184790D02*
X1550910D01*
Y190780D02*
X1545690D01*
Y196760D02*
X1550910D01*
Y202750D02*
X1545690D01*
Y208730D02*
X1550910D01*
Y214720D02*
X1545690D01*
Y220700D02*
X1552620D01*
X1558600Y226690D02*
X1545690D01*
Y232670D02*
X1620100D01*
Y226690D02*
X1604720D01*
X1610700Y220700D02*
X1620100D01*
Y214720D02*
X1612410D01*
Y208730D02*
X1620100D01*
Y202750D02*
X1612410D01*
Y196760D02*
X1620100D01*
Y190780D02*
X1612410D01*
Y184790D02*
X1620100D01*
Y178810D02*
X1612410D01*
X1610160Y172820D02*
X1620100D01*
Y166840D02*
X1604170D01*
X1608310Y160850D02*
X1620100D01*
Y154870D02*
X1610410D01*
Y148880D02*
X1620100D01*
Y142900D02*
X1610410D01*
X1552910D02*
X1545690D01*
Y148880D02*
X1552910D01*
Y154870D02*
X1545690D01*
Y160850D02*
X1555010D01*
X1545690Y238660D02*
X1625890D01*
X1545690Y244640D02*
X1723500D01*
X1642170Y543900D02*
X1610410D01*
Y549880D02*
X1642170D01*
Y555870D02*
X1610290D01*
X1607670Y561850D02*
X1642170D01*
Y567840D02*
X1605170D01*
X1611160Y573820D02*
X1642170D01*
Y579810D02*
X1612410D01*
Y585790D02*
X1642170D01*
Y591780D02*
X1612410D01*
Y597760D02*
X1642170D01*
Y603750D02*
X1612410D01*
Y609730D02*
X1642170D01*
Y615720D02*
X1612410D01*
X1609700Y621710D02*
X1642170D01*
Y627690D02*
X1603710D01*
D14*
X1581660Y597030D03*
X1355980Y462170D03*
X1286660Y327030D03*
X1287540Y148390D03*
X1581160Y138010D03*
X1581660Y197030D03*
X1172080Y513320D03*
X1308330Y649450D03*
X997700Y661920D03*
X835990Y709900D03*
X959550Y820660D03*
X1082130Y1037510D03*
X660780Y986630D03*
X419300Y1121030D03*
X585640Y1430130D03*
X935180Y1620150D03*
X1288140D03*
X1622680Y1430130D03*
X1804020Y1121030D03*
X1562540Y986630D03*
X933200Y453860D03*
X641660Y537980D03*
X702540Y106630D03*
X971190Y97510D03*
D15*
X243710Y266810D02*
X204670Y281830D01*
X157240Y305550D01*
X116640Y346140D01*
X80650Y412110D01*
X59540Y481490D01*
X56570Y520120D01*
Y657230D01*
X68580Y717280D01*
X89810Y768830D01*
X116720Y819660D01*
X151380Y854330D01*
X195440Y880770D01*
X248000Y898280D01*
X301910D01*
X302060D01*
X295990Y261100D01*
X272260D01*
X243710Y266810D01*
X251660Y563320D02*
Y265510D01*
X296030D01*
X283660Y261100D02*
Y898280D01*
X267660D02*
Y262020D01*
X251070Y562730D02*
X259830Y571490D01*
X264570Y582930D01*
Y595310D01*
X259830Y606750D01*
X251070Y615500D01*
X239630Y620240D01*
X227250D01*
X215810Y615500D01*
X207060Y606750D01*
X202320Y595310D01*
Y582930D01*
X207060Y571490D01*
X215810Y562730D01*
X227250Y558000D01*
X239630D01*
X251070Y562730D01*
X257850Y569510D02*
X298930D01*
X299080Y585510D02*
X264570D01*
X262000Y601510D02*
X299230D01*
X299390Y617510D02*
X246230D01*
X251660Y614920D02*
Y662320D01*
X251070Y661730D02*
X259830Y670480D01*
X264570Y681920D01*
Y694300D01*
X259830Y705740D01*
X251070Y714500D01*
X239630Y719230D01*
X227250D01*
X215810Y714500D01*
X207060Y705740D01*
X202320Y694300D01*
Y681920D01*
X207060Y670480D01*
X215810Y661730D01*
X227250Y656990D01*
X239630D01*
X251070Y661730D01*
X254850Y665510D02*
X299840D01*
X300000Y681510D02*
X264390D01*
X263240Y697510D02*
X300150D01*
X300300Y713510D02*
X251660D01*
Y898280D01*
X235660Y894170D02*
Y719230D01*
X219660Y716090D02*
Y889510D01*
X301980D01*
X299660Y898280D02*
Y646320D01*
X299690Y649510D02*
X56570D01*
Y633510D02*
X299540D01*
X235660Y620240D02*
Y656990D01*
X219660Y660140D02*
Y617510D01*
X155660D01*
Y666320D01*
X154850Y665510D02*
X212040D01*
X203660Y678690D02*
Y598540D01*
X204890Y601510D02*
X167410D01*
X168180Y599650D02*
X165460Y606230D01*
X161500Y612140D01*
X156470Y617180D01*
X150550Y621130D01*
X143980Y623850D01*
X137000Y625240D01*
X135940D01*
Y591620D01*
X130940D01*
Y586620D01*
X97320D01*
Y585560D01*
X98710Y578580D01*
X101430Y572010D01*
X105390Y566090D01*
X110420Y561060D01*
X116330Y557110D01*
X122910Y554380D01*
X129890Y553000D01*
X130940D01*
Y586620D01*
X135940D01*
Y553000D01*
X137000D01*
X143980Y554380D01*
X150550Y557110D01*
X156470Y561060D01*
X161500Y566090D01*
X165460Y572010D01*
X168180Y578580D01*
X169570Y585560D01*
Y586620D01*
X135940D01*
Y591620D01*
X169570D01*
Y592680D01*
X168180Y599650D01*
X169560Y585510D02*
X202320D01*
X203660Y579700D02*
Y281510D01*
X296180D01*
X296330Y297510D02*
X171660D01*
Y866490D01*
X183350Y873510D02*
X301830D01*
X301670Y857510D02*
X155660D01*
Y709910D01*
X152060Y713510D02*
X214820D01*
X163240Y697510D02*
X203660D01*
Y883500D01*
X187660Y876090D02*
Y290330D01*
X219660Y276060D02*
Y561140D01*
X209040Y569510D02*
X163780D01*
X155660Y560520D02*
Y307120D01*
X149270Y313510D02*
X296490D01*
X296640Y329510D02*
X133270D01*
X139660Y323120D02*
Y553510D01*
X298780D01*
X298620Y537510D02*
X56570D01*
Y553510D02*
X127320D01*
X130940D02*
X135940D01*
X123660Y554230D02*
Y339120D01*
X117270Y345510D02*
X296790D01*
X296940Y361510D02*
X107660D01*
Y563820D01*
X103100Y569510D02*
X56570D01*
Y585510D02*
X97330D01*
X97320Y591620D02*
X130940D01*
Y625240D01*
X129890D01*
X122910Y623850D01*
X116330Y621130D01*
X110420Y617180D01*
X105390Y612140D01*
X101430Y606230D01*
X98710Y599650D01*
X97320Y592680D01*
Y591620D01*
X99480Y601510D02*
X56570D01*
Y617510D02*
X110910D01*
X107660Y614420D02*
Y669880D01*
X107060Y670480D02*
X115810Y661730D01*
X127250Y656990D01*
X139630D01*
X151070Y661730D01*
X159830Y670480D01*
X164570Y681920D01*
Y694300D01*
X159830Y705740D01*
X151070Y714500D01*
X139630Y719230D01*
X127250D01*
X115810Y714500D01*
X107060Y705740D01*
X102320Y694300D01*
Y681920D01*
X107060Y670480D01*
X112040Y665510D02*
X58220D01*
X59660Y672690D02*
Y481090D01*
X61970Y473510D02*
X298010D01*
X298160Y489510D02*
X58920D01*
X57690Y505510D02*
X298320D01*
X298470Y521510D02*
X56570D01*
X66840Y457510D02*
X297860D01*
X297710Y441510D02*
X71710D01*
X75660Y428520D02*
Y734480D01*
X73610Y729510D02*
X300450D01*
X300610Y745510D02*
X80200D01*
X86790Y761510D02*
X300760D01*
X300910Y777510D02*
X94400D01*
X91660Y772340D02*
Y393510D01*
X297250D01*
X297400Y409510D02*
X82080D01*
X76580Y425510D02*
X297550D01*
X297100Y377510D02*
X99530D01*
X235660Y269910D02*
Y558000D01*
X155660Y586620D02*
Y591620D01*
X139660D02*
Y585510D01*
X130940D01*
X123660Y586620D02*
Y591620D01*
X130940Y601510D02*
X135940D01*
Y617510D02*
X130940D01*
X123660Y624000D02*
Y658480D01*
X139660Y657000D02*
Y624710D01*
X107660Y591620D02*
Y586620D01*
X130940Y569510D02*
X135940D01*
X164390Y681510D02*
X202490D01*
X139660Y719220D02*
Y841510D01*
X301520D01*
X301370Y825510D02*
X123660D01*
Y717750D01*
X114820Y713510D02*
X67820D01*
X64620Y697510D02*
X103650D01*
X107660Y706340D02*
Y802560D01*
X111340Y809510D02*
X301220D01*
X301060Y793510D02*
X102870D01*
X102490Y681510D02*
X61420D01*
X387890D02*
X499540D01*
X499500Y697510D02*
X387910D01*
X387930Y713510D02*
X499460D01*
X499420Y729510D02*
X387960D01*
X387980Y745510D02*
X499380D01*
X499340Y761510D02*
X388000D01*
X388020Y777510D02*
X499310D01*
X499270Y793510D02*
X388040D01*
X388060Y809510D02*
X499230D01*
X499190Y825510D02*
X388080D01*
X388100Y841510D02*
X499150D01*
X499110Y857510D02*
X388120D01*
X388140Y873510D02*
X499070D01*
X499030Y889510D02*
X388160D01*
X388180Y897940D02*
X428160Y910430D01*
X446490Y914600D01*
X480560Y915140D01*
X482690Y912250D01*
X484170Y912020D01*
X485220Y910970D01*
X491160D01*
X497020Y910080D01*
X498230Y910970D01*
X498980D01*
X500630Y242080D01*
X486450D01*
X422060Y248330D01*
X417290Y250110D01*
X406310Y254210D01*
X397650Y257440D01*
X397400Y257480D01*
X387340Y262360D01*
X388180Y897940D01*
X395660Y900280D02*
Y258330D01*
X387350Y265510D02*
X500570D01*
X500530Y281510D02*
X387370D01*
X387390Y297510D02*
X500490D01*
X500450Y313510D02*
X387410D01*
X387430Y329510D02*
X500410D01*
X500370Y345510D02*
X387450D01*
X387470Y361510D02*
X500330D01*
X500290Y377510D02*
X387490D01*
X387510Y393510D02*
X500250D01*
X500210Y409510D02*
X387540D01*
X387560Y425510D02*
X500170D01*
X500140Y441510D02*
X387580D01*
X387600Y457510D02*
X500100D01*
X500060Y473510D02*
X387620D01*
X387640Y489510D02*
X500020D01*
X499980Y505510D02*
X387660D01*
X387680Y521510D02*
X499940D01*
X499900Y537510D02*
X387700D01*
X387720Y553510D02*
X499860D01*
X499820Y569510D02*
X387750D01*
X387770Y585510D02*
X499780D01*
X499740Y601510D02*
X387790D01*
X387810Y617510D02*
X499700D01*
X499660Y633510D02*
X387830D01*
X387850Y649510D02*
X499620D01*
X499580Y665510D02*
X387870D01*
X417290Y250110D03*
X418910Y249510D02*
X500610D01*
X491660Y242080D02*
Y910890D01*
X498990Y905510D02*
X411660D01*
Y252210D01*
X427660Y910280D02*
Y247790D01*
X443660Y246230D02*
Y913960D01*
X459660Y914810D02*
Y244680D01*
X475660Y243130D02*
Y915060D01*
X721350Y1449370D02*
X687220Y1477710D01*
X662230Y1521860D01*
X656400Y1571840D01*
X659040Y1582860D01*
X660400Y1583770D01*
X660470Y1584090D01*
X673560Y1593440D01*
X676510Y1593860D01*
X679230Y1597490D01*
X682930Y1600130D01*
X683420Y1603070D01*
X695750Y1619510D01*
X696090Y1619570D01*
X700060Y1625270D01*
X704230Y1630820D01*
X704180Y1631170D01*
X708190Y1636930D01*
X720230Y1648960D01*
X736140Y1661580D01*
X822110Y1698420D01*
X868340Y1713830D01*
X918010Y1726250D01*
X964420Y1735530D01*
X1020350Y1741750D01*
X1066950Y1744850D01*
X1154470D01*
X1194450Y1741780D01*
X1237790Y1735580D01*
X1284560Y1726230D01*
X1350090Y1710630D01*
X1396230Y1695250D01*
X1461230Y1667390D01*
X1477030Y1658390D01*
X1499300Y1640510D01*
X1508610Y1626930D01*
Y1625110D01*
X1512590Y1621120D01*
X1515780Y1616480D01*
X1517570Y1616140D01*
X1529010Y1604700D01*
X1529400Y1602790D01*
X1533980Y1599730D01*
X1537880Y1595830D01*
X1539840D01*
X1548700Y1589920D01*
X1556880Y1557680D01*
X1541880Y1511860D01*
X1517720Y1467710D01*
X1490630Y1449310D01*
X1487680Y1453330D01*
X1485240Y1453700D01*
X1483330Y1455250D01*
X1478320Y1454750D01*
X1465010Y1456770D01*
X1463670Y1458020D01*
X1458050Y1457830D01*
X1452490Y1458680D01*
X1451020Y1457590D01*
X1437850Y1457140D01*
X1420160Y1458800D01*
X1400430Y1462290D01*
X1363910Y1474470D01*
X1319200Y1491230D01*
X1318610Y1492210D01*
X1312540Y1493730D01*
X1306690Y1495920D01*
X1305650Y1495450D01*
X1266870Y1505150D01*
X1266250Y1505970D01*
X1259970Y1506870D01*
X1253820Y1508410D01*
X1252930Y1507880D01*
X1198780Y1515610D01*
X1198180Y1516280D01*
X1191720Y1516620D01*
X1185320Y1517540D01*
X1184600Y1517000D01*
X1137400Y1519480D01*
X1137030Y1519860D01*
X1130240D01*
X1123460Y1520210D01*
X1123060Y1519860D01*
X1079420D01*
X1079020Y1520210D01*
X1072240Y1519860D01*
X1065460D01*
X1065080Y1519480D01*
X1017510Y1516980D01*
X1016460Y1517700D01*
X1010430Y1516600D01*
X1004300Y1516280D01*
X1003450Y1515340D01*
X945610Y1504820D01*
X944620Y1505350D01*
X938610Y1503550D01*
X932440Y1502430D01*
X931810Y1501500D01*
X880120Y1486000D01*
X879060Y1486420D01*
X873310Y1483960D01*
X867320Y1482160D01*
X866780Y1481160D01*
X829720Y1465280D01*
X793350Y1458180D01*
X761500Y1456440D01*
X737860D01*
X731910Y1457290D01*
X730780Y1456440D01*
X729370D01*
X725120Y1452200D01*
X721350Y1449370D01*
X721180Y1449510D02*
X721530D01*
X715660Y1454090D02*
Y1644390D01*
X712770Y1641510D02*
X923660D01*
Y1727380D01*
X939660Y1730580D02*
Y1645420D01*
X947380Y1647480D02*
X910950Y1637720D01*
X907850Y1632340D01*
X917610Y1595920D01*
X922990Y1592810D01*
X959410Y1602570D01*
X962520Y1607950D01*
X952760Y1644380D01*
X947380Y1647480D01*
X953530Y1641510D02*
X1269790D01*
X1270560Y1644380D02*
X1275940Y1647480D01*
X1312370Y1637720D01*
X1315470Y1632340D01*
X1305710Y1595920D01*
X1300330Y1592810D01*
X1263910Y1602570D01*
X1260800Y1607950D01*
X1270560Y1644380D01*
X1275660Y1647320D02*
Y1728010D01*
X1259660Y1731210D02*
Y1506950D01*
X1243660Y1509200D02*
Y1734410D01*
X1227660Y1737030D02*
Y1511490D01*
X1211660Y1739320D02*
Y1513510D01*
X1542420D01*
X1547660Y1590610D02*
Y1529510D01*
X661340D01*
X659470Y1545510D02*
X1552890D01*
X1555900Y1561510D02*
X657610D01*
X657760Y1577510D02*
X857400D01*
X857000Y1577900D02*
X859330Y1575570D01*
X862180Y1573930D01*
X865360Y1573080D01*
X868650D01*
X883030Y1576930D01*
X876370Y1601800D01*
X881200Y1603100D01*
X879910Y1607930D01*
X904780Y1614590D01*
X900920Y1628980D01*
X899280Y1631830D01*
X896950Y1634150D01*
X894100Y1635800D01*
X890920Y1636650D01*
X887630D01*
X873240Y1632800D01*
X879910Y1607930D01*
X875080Y1606630D01*
X876370Y1601800D01*
X851500Y1595140D01*
X855350Y1580750D01*
X857000Y1577900D01*
X859660Y1575380D02*
Y1478110D01*
X866970Y1481510D02*
X685070D01*
X683660Y1484000D02*
Y1603390D01*
X688240Y1609510D02*
X847650D01*
X846350Y1614350D02*
X850210Y1599970D01*
X875080Y1606630D01*
X868410Y1631500D01*
X854030Y1627650D01*
X851180Y1626000D01*
X848850Y1623670D01*
X847200Y1620820D01*
X846350Y1617650D01*
Y1614350D01*
X850680Y1625510D02*
X699660D01*
Y1467380D01*
X701910Y1465510D02*
X830260D01*
X827660Y1464870D02*
Y1700270D01*
X843660Y1471250D02*
Y1705510D01*
X1365460D01*
X1371660Y1703440D02*
Y1626280D01*
X1372140Y1626000D02*
X1369290Y1627650D01*
X1354910Y1631500D01*
X1348240Y1606630D01*
X1343410Y1607930D01*
X1350080Y1632800D01*
X1335690Y1636650D01*
X1332400D01*
X1329220Y1635800D01*
X1326370Y1634150D01*
X1324040Y1631830D01*
X1322400Y1628980D01*
X1318540Y1614590D01*
X1343410Y1607930D01*
X1342120Y1603100D01*
X1317250Y1609760D01*
X1313390Y1595370D01*
Y1592080D01*
X1314250Y1588900D01*
X1315890Y1586050D01*
X1318220Y1583730D01*
X1321070Y1582080D01*
X1335460Y1578230D01*
X1342120Y1603100D01*
X1346950Y1601800D01*
X1348240Y1606630D01*
X1373110Y1599970D01*
X1376970Y1614350D01*
Y1617650D01*
X1376120Y1620820D01*
X1374470Y1623670D01*
X1372140Y1626000D01*
X1372640Y1625510D02*
X1508610D01*
X1515660Y1616650D02*
Y1465510D01*
X1390790D01*
X1387660Y1466550D02*
Y1698110D01*
X1403660Y1692070D02*
Y1461720D01*
X1419660Y1458890D02*
Y1685210D01*
X1409630Y1689510D02*
X801310D01*
X795660Y1687090D02*
Y1458630D01*
X779660Y1457430D02*
Y1680230D01*
X763660Y1456560D02*
Y1673510D01*
X1446960D01*
X1451660Y1671490D02*
Y1458070D01*
X1435660Y1457350D02*
Y1678350D01*
X1467660Y1663730D02*
Y1456370D01*
X1483660Y1454990D02*
Y1653060D01*
X1478130Y1657510D02*
X731660D01*
Y1457100D01*
X747660Y1456440D02*
Y1666520D01*
X811660Y1461750D02*
Y1693940D01*
X875660Y1484960D02*
Y1574960D01*
X882880Y1577510D02*
X1340440D01*
X1340280Y1576930D02*
X1354670Y1573080D01*
X1357960D01*
X1361140Y1573930D01*
X1363990Y1575570D01*
X1366320Y1577900D01*
X1367960Y1580750D01*
X1371820Y1595140D01*
X1346950Y1601800D01*
X1340280Y1576930D01*
X1355660Y1573080D02*
Y1477560D01*
X1345140Y1481510D02*
X1525270D01*
X1531660Y1493180D02*
Y1601280D01*
X1524210Y1609510D02*
X1375670D01*
X1371660Y1600360D02*
Y1594540D01*
Y1471880D01*
X1339660Y1483560D02*
Y1593510D01*
X1344730D01*
X1339660Y1603760D02*
Y1609510D01*
X1317180D01*
X1309350D01*
X1307660Y1603180D02*
Y1495560D01*
X1297430Y1497510D02*
X1534030D01*
X1543320Y1593510D02*
X1371380D01*
X1355660Y1599470D02*
Y1604640D01*
X1349010Y1609510D02*
X1343840D01*
X1348120Y1625510D02*
X1353300D01*
X1355660Y1631300D02*
Y1708770D01*
X1339660Y1713110D02*
Y1635590D01*
X1323660Y1631160D02*
Y1716920D01*
X1307660Y1720730D02*
Y1638990D01*
X1298250Y1641510D02*
X1499660D01*
Y1455440D01*
X1490920Y1449510D02*
X1490490D01*
X1551850Y1577510D02*
X1365920D01*
X1323660Y1581390D02*
Y1489560D01*
X1291660Y1498950D02*
Y1595140D01*
X1297750Y1593510D02*
X923660D01*
Y1499060D01*
X918480Y1497510D02*
X676020D01*
X667660Y1512270D02*
Y1589230D01*
X674030Y1593510D02*
X851940D01*
X859660Y1597320D02*
Y1602500D01*
X875660Y1601610D02*
Y1606790D01*
Y1623770D01*
X875200Y1625510D02*
X870020D01*
X875660Y1633440D02*
Y1715660D01*
X891660Y1719660D02*
Y1636450D01*
X901850Y1625510D02*
X909680D01*
X906070Y1609760D02*
X881200Y1603100D01*
X887860Y1578230D01*
X902250Y1582080D01*
X905100Y1583730D01*
X907430Y1586050D01*
X909070Y1588900D01*
X909930Y1592080D01*
Y1595370D01*
X906070Y1609760D01*
X907660Y1603830D02*
Y1723660D01*
X899040Y1721510D02*
X1304410D01*
X1291660Y1724540D02*
Y1643270D01*
X1313640Y1625510D02*
X1321470D01*
X1323660Y1613220D02*
Y1608040D01*
X1313390Y1593510D02*
X1301530D01*
X1275660Y1599420D02*
Y1502950D01*
X1224340Y1737510D02*
X982200D01*
X987660Y1738110D02*
Y1512460D01*
X993390Y1513510D02*
X666960D01*
X859660Y1629160D02*
Y1710940D01*
X955660Y1733780D02*
Y1633540D01*
X957810Y1625510D02*
X1265510D01*
X1261220Y1609510D02*
X962100D01*
X955660Y1601570D02*
Y1506650D01*
X939660Y1503860D02*
Y1597280D01*
X921790Y1593510D02*
X909930D01*
X907660Y1586450D02*
Y1494260D01*
X891660Y1489460D02*
Y1579240D01*
X883770Y1593510D02*
X878590D01*
X879480Y1609510D02*
X874310D01*
X885810D02*
X906140D01*
X913960D01*
X891660Y1611070D02*
Y1605900D01*
X971660Y1509560D02*
Y1736340D01*
X1003660Y1739890D02*
Y1515570D01*
X1019660Y1517090D02*
Y1741670D01*
X1035660Y1742770D02*
Y1517930D01*
X1051660Y1518770D02*
Y1743830D01*
X1067660Y1744850D02*
Y1519860D01*
X1083660D02*
Y1744850D01*
X1099660D02*
Y1519860D01*
X1115660D02*
Y1744850D01*
X1131660D02*
Y1519860D01*
X1147660Y1518940D02*
Y1744850D01*
X1163660Y1744150D02*
Y1518100D01*
X1179660Y1517260D02*
Y1742910D01*
X1195660Y1741600D02*
Y1516410D01*
X1823440Y946250D02*
Y257050D01*
X1829920Y259450D01*
X1837940Y260330D01*
X1838720Y261100D01*
X1845010D01*
X1851270Y261790D01*
X1852120Y261100D01*
X1914230D01*
Y898030D01*
X1911960Y898280D01*
X1905680D01*
X1904900Y899070D01*
X1903790Y899190D01*
X1899870Y904100D01*
X1895430Y908540D01*
Y909650D01*
X1894740Y910510D01*
X1895430Y916750D01*
Y946250D01*
X1823440D01*
Y944380D02*
X1895430D01*
Y939400D02*
X1823440D01*
Y934410D02*
X1895430D01*
Y929420D02*
X1823440D01*
Y924440D02*
X1895430D01*
Y919450D02*
X1823440D01*
Y914470D02*
X1895180D01*
X1895430Y909480D02*
X1823440D01*
Y904500D02*
X1899470D01*
X1903540Y899510D02*
X1823440D01*
X1820100Y898770D02*
Y264860D01*
X1795950Y255700D01*
X1777620Y251530D01*
X1723480Y249030D01*
X1724300Y909980D01*
X1726480Y910970D01*
X1729940D01*
X1732820Y913850D01*
X1734320Y914530D01*
X1769290Y914600D01*
X1789280Y909600D01*
X1804280Y902940D01*
X1815940Y898770D01*
X1820100D01*
X1819660D02*
Y265510D01*
X1723500D01*
X1723520Y281510D02*
X1820100D01*
X1823440Y281360D02*
X1914230D01*
X1912640Y281510D02*
X2014900D01*
X2011660Y280030D02*
Y653510D01*
X2012610Y652570D02*
X2024370Y647690D01*
X2037100D01*
X2048860Y652570D01*
X2057860Y661570D01*
X2062730Y673330D01*
Y686060D01*
X2057860Y697820D01*
X2048860Y706820D01*
X2037100Y711690D01*
X2024370D01*
X2012610Y706820D01*
X2003610Y697820D01*
X1998730Y686060D01*
Y673330D01*
X2003610Y661570D01*
X2012610Y652570D01*
X2019990Y649510D02*
X1914230D01*
Y650260D01*
X1823440D01*
X1820100Y649510D02*
X1723980D01*
X1724000Y665510D02*
X1820100D01*
X1823440Y665210D02*
X1913100D01*
Y665510D01*
X2001970D01*
X1998730Y681510D02*
X1914230D01*
Y680170D01*
X1823440D01*
X1820100Y681510D02*
X1724020D01*
X1724040Y697510D02*
X1820100D01*
X1823440Y695120D02*
X1913140D01*
Y697510D01*
X2003480D01*
X2011660Y705880D02*
Y868390D01*
X2002460Y873510D02*
X1914230D01*
Y874590D01*
X1823440D01*
X1820100Y873510D02*
X1724260D01*
X1724280Y889510D02*
X1820100D01*
X1823440Y889540D02*
X1913370D01*
Y889510D01*
X1959680D01*
X1963660Y888420D02*
Y264060D01*
X1963710D02*
X1931160Y261100D01*
X1912620D01*
X1913380Y898130D01*
X1938180Y895370D01*
X1970770Y886480D01*
X2000520Y874580D01*
X2026910Y859920D01*
X2048800Y842900D01*
X2048820Y842720D01*
X2054500Y838460D01*
X2060100Y834110D01*
X2060280Y834130D01*
X2078990Y820090D01*
X2092940Y806140D01*
X2107680Y785510D01*
X2128970Y752060D01*
X2143770Y719490D01*
X2155610Y678050D01*
X2158600Y639260D01*
Y471060D01*
X2149930Y439300D01*
X2134840Y400050D01*
X2120340Y373960D01*
X2093350Y340970D01*
X2051590Y299200D01*
X2029050Y287940D01*
X1995750Y272800D01*
X1963710Y264060D01*
X1969010Y265510D02*
X1912620D01*
X1914230Y266400D02*
X1823440D01*
Y261420D02*
X1847910D01*
X1851730D02*
X1914230D01*
X1915660Y261100D02*
Y897870D01*
X1914230Y894530D02*
X1823440D01*
Y884560D02*
X1914230D01*
Y879570D02*
X1823440D01*
Y869600D02*
X1914230D01*
Y864620D02*
X1823440D01*
Y859630D02*
X1913330D01*
Y857510D01*
X2030020D01*
X2027660Y859340D02*
Y711690D01*
X2043660Y708980D02*
Y846890D01*
X2050440Y841510D02*
X1913310D01*
X1914230Y839690D02*
X1823440D01*
X1820100Y841510D02*
X1724220D01*
X1724240Y857510D02*
X1820100D01*
X1823440Y854650D02*
X1914230D01*
Y849660D02*
X1823440D01*
Y844680D02*
X1914230D01*
Y834710D02*
X1823440D01*
Y829720D02*
X1914230D01*
X1913290Y825510D02*
X2071780D01*
X2075660Y822590D02*
Y511690D01*
X2077100D02*
X2064370D01*
X2052610Y506820D01*
X2043610Y497820D01*
X2038730Y486060D01*
Y473330D01*
X2043610Y461570D01*
X2052610Y452570D01*
X2064370Y447690D01*
X2077100D01*
X2088860Y452570D01*
X2097860Y461570D01*
X2102730Y473330D01*
Y486060D01*
X2097860Y497820D01*
X2088860Y506820D01*
X2077100Y511690D01*
X2091660Y653510D02*
Y505510D01*
X2158600D01*
Y521510D02*
X1914230D01*
Y520650D01*
X1823440D01*
X1820100Y521510D02*
X1723820D01*
X1723840Y537510D02*
X1820100D01*
X1823440Y535600D02*
X1914230D01*
X2158600Y553510D02*
X1914230D01*
Y555540D01*
X1823440D01*
X1820100Y553510D02*
X1723860D01*
X1723880Y569510D02*
X1820100D01*
X1823440Y570500D02*
X1912980D01*
Y569510D01*
X2158600D01*
Y585510D02*
X1914230D01*
Y585450D01*
X1823440D01*
X1820100Y585510D02*
X1723900D01*
X1723920Y601510D02*
X1820100D01*
X1823440Y600410D02*
X1913020D01*
Y601510D01*
X2158600D01*
Y617510D02*
X1913040D01*
X1914230Y615360D02*
X1823440D01*
X1820100Y617510D02*
X1723940D01*
X1723960Y633510D02*
X1820100D01*
X1823440Y635300D02*
X1913060D01*
Y633510D01*
X2158600D01*
X2157810Y649510D02*
X2123660D01*
Y379930D01*
X2122310Y377510D02*
X1914230D01*
Y376080D01*
X1823440D01*
X1820100Y377510D02*
X1723640D01*
X1723660Y393510D02*
X1820100D01*
X1823440Y391030D02*
X1914230D01*
X1912770Y393510D02*
X2131200D01*
X2138470Y409510D02*
X1914230D01*
Y410970D01*
X1823440D01*
X1820100Y409510D02*
X1723680D01*
X1723660Y396870D02*
Y249510D01*
X1733750D01*
X1739660Y249780D02*
Y914540D01*
X1755660Y914570D02*
Y250520D01*
X1771660Y251260D02*
Y914010D01*
X1787660Y910010D02*
Y253810D01*
X1803660Y258620D02*
Y903210D01*
X1798500Y905510D02*
X1724300D01*
X1724200Y825510D02*
X1820100D01*
X1823440Y824740D02*
X1914230D01*
Y819750D02*
X1823440D01*
Y814770D02*
X1914230D01*
X1820100Y809510D02*
X1724180D01*
X1724160Y793510D02*
X1820100D01*
X1823440Y794830D02*
X1913250D01*
Y793510D01*
X2101970D01*
X2107660Y785540D02*
Y711690D01*
X2104370D02*
X2092610Y706820D01*
X2083610Y697820D01*
X2078730Y686060D01*
Y673330D01*
X2083610Y661570D01*
X2092610Y652570D01*
X2104370Y647690D01*
X2117100D01*
X2128860Y652570D01*
X2137860Y661570D01*
X2142730Y673330D01*
Y686060D01*
X2137860Y697820D01*
X2128860Y706820D01*
X2117100Y711690D01*
X2104370D01*
X2091660Y705880D02*
Y807430D01*
X2089580Y809510D02*
X1914230D01*
Y809780D01*
X1823440D01*
X1914230Y804800D02*
X1823440D01*
Y799810D02*
X1914230D01*
Y789840D02*
X1823440D01*
Y784860D02*
X1914230D01*
Y779870D02*
X1823440D01*
X1820100Y777510D02*
X1724140D01*
X1724120Y761510D02*
X1820100D01*
X1823440Y759930D02*
X1913210D01*
Y761510D01*
X2123660D01*
Y708980D01*
X2137990Y697510D02*
X2150050D01*
X2139660Y693480D02*
Y729510D01*
X1914230D01*
Y730020D01*
X1823440D01*
X1820100Y729510D02*
X1724080D01*
X1724100Y745510D02*
X1820100D01*
X1823440Y744980D02*
X1913190D01*
Y745510D01*
X2131950D01*
X2145480Y713510D02*
X1913160D01*
X1914230Y715060D02*
X1823440D01*
X1820100Y713510D02*
X1724060D01*
X1823440Y710080D02*
X1914230D01*
Y705090D02*
X1823440D01*
Y700110D02*
X1914230D01*
Y690140D02*
X1823440D01*
Y685150D02*
X1914230D01*
Y675180D02*
X1823440D01*
Y670200D02*
X1914230D01*
Y660230D02*
X1823440D01*
Y655240D02*
X1914230D01*
Y645270D02*
X1823440D01*
Y640290D02*
X1914230D01*
Y630320D02*
X1823440D01*
Y625330D02*
X1914230D01*
Y620350D02*
X1823440D01*
Y610380D02*
X1914230D01*
Y605390D02*
X1823440D01*
Y595420D02*
X1914230D01*
Y590440D02*
X1823440D01*
Y580470D02*
X1914230D01*
Y575480D02*
X1823440D01*
Y565510D02*
X1914230D01*
Y560530D02*
X1823440D01*
Y550560D02*
X1914230D01*
Y545570D02*
X1823440D01*
Y540590D02*
X1912950D01*
Y537510D01*
X2158600D01*
X1914230Y530620D02*
X1823440D01*
Y525630D02*
X1914230D01*
Y515660D02*
X1823440D01*
Y510680D02*
X1914230D01*
X1820100Y505510D02*
X1723800D01*
X1723780Y489510D02*
X1820100D01*
X1823440Y490730D02*
X1914230D01*
X1912890Y489510D02*
X2040160D01*
X2043660Y497880D02*
Y649510D01*
X2099990D01*
X2107660Y647690D02*
Y358460D01*
X2110150Y361510D02*
X1914230D01*
Y361120D01*
X1823440D01*
X1820100Y361510D02*
X1723620D01*
X1723600Y345510D02*
X1820100D01*
X1823440Y346170D02*
X1912720D01*
Y345510D01*
X2097060D01*
X2091660Y339280D02*
Y455370D01*
X2093800Y457510D02*
X2154900D01*
X2155660Y460300D02*
Y677430D01*
X2154620Y681510D02*
X2142730D01*
X2156580Y665510D02*
X2139660D01*
Y412590D01*
X2144630Y425510D02*
X1914230D01*
Y425930D01*
X1823440D01*
X1820100Y425510D02*
X1723700D01*
X1723720Y441510D02*
X1820100D01*
X1823440Y440880D02*
X1912830D01*
Y441510D01*
X2150530D01*
X2158600Y473510D02*
X2102730D01*
X2101310Y489510D02*
X2158600D01*
X2081970Y665510D02*
X2059660D01*
Y509740D01*
X2051290Y505510D02*
X1914230D01*
Y505690D01*
X1823440D01*
X1914230Y500710D02*
X1823440D01*
Y495720D02*
X1914230D01*
Y485750D02*
X1823440D01*
Y480760D02*
X1914230D01*
Y475780D02*
X1823440D01*
X1820100Y473510D02*
X1723760D01*
X1723740Y457510D02*
X1820100D01*
X1823440Y455840D02*
X1912850D01*
Y457510D01*
X2047670D01*
X2043660Y461510D02*
Y295240D01*
X2048190Y297510D02*
X1912660D01*
X1914230Y296320D02*
X1823440D01*
X1820100Y297510D02*
X1723540D01*
X1723560Y313510D02*
X1820100D01*
X1823440Y311270D02*
X1914230D01*
X2059660Y307280D02*
Y449640D01*
X2075660Y447690D02*
Y323280D01*
X2081890Y329510D02*
X1914230D01*
Y331210D01*
X1823440D01*
X1820100Y329510D02*
X1723580D01*
X1823440Y326230D02*
X1914230D01*
Y321240D02*
X1823440D01*
Y316260D02*
X1912680D01*
Y313510D01*
X2065890D01*
X1914230Y306290D02*
X1823440D01*
Y301300D02*
X1914230D01*
Y291330D02*
X1823440D01*
Y286350D02*
X1914230D01*
Y276370D02*
X1823440D01*
Y271390D02*
X1914230D01*
X1931660Y261150D02*
Y896100D01*
X1947660Y892790D02*
Y262600D01*
X1979660Y268410D02*
Y882930D01*
X1995660Y876530D02*
Y272770D01*
X2027660Y287300D02*
Y647690D01*
X2062730Y681510D02*
X2078730D01*
X2083480Y697510D02*
X2057990D01*
X2059660Y693480D02*
Y834450D01*
X2112770Y777510D02*
X1914230D01*
Y774890D01*
X1823440D01*
Y769900D02*
X1914230D01*
Y764920D02*
X1823440D01*
Y754950D02*
X1914230D01*
Y749960D02*
X1823440D01*
Y739990D02*
X1914230D01*
Y735010D02*
X1823440D01*
Y725040D02*
X1914230D01*
Y720050D02*
X1823440D01*
Y470790D02*
X1912870D01*
Y473510D01*
X2038730D01*
X1914230Y465810D02*
X1823440D01*
Y460820D02*
X1914230D01*
Y450850D02*
X1823440D01*
Y445870D02*
X1914230D01*
Y435900D02*
X1823440D01*
Y430910D02*
X1914230D01*
Y420940D02*
X1823440D01*
Y415960D02*
X1914230D01*
Y405990D02*
X1823440D01*
Y401000D02*
X1914230D01*
Y396020D02*
X1823440D01*
Y386050D02*
X1914230D01*
Y381060D02*
X1823440D01*
Y371090D02*
X1914230D01*
Y366110D02*
X1823440D01*
Y356140D02*
X1914230D01*
Y351150D02*
X1823440D01*
Y341180D02*
X1914230D01*
Y336200D02*
X1823440D01*
D16*
X719750Y1451300D02*
X704580Y1439920D01*
X702960D01*
X698110Y1435070D01*
X692620Y1430950D01*
X692390Y1429350D01*
X603670Y1340620D01*
X602260Y1340450D01*
X597940Y1334890D01*
X592960Y1329910D01*
Y1328490D01*
X579400Y1311060D01*
X578340Y1310820D01*
X574400Y1304630D01*
X569890Y1298830D01*
X570020Y1297760D01*
X555770Y1275360D01*
X555110Y1275170D01*
X551380Y1268450D01*
X547250Y1261960D01*
X547400Y1261290D01*
X539010Y1246190D01*
X538530Y1246030D01*
X535020Y1239010D01*
X531210Y1232150D01*
X531350Y1231670D01*
X525540Y1220060D01*
X524910Y1219810D01*
X521880Y1212730D01*
X518440Y1205850D01*
X518650Y1205200D01*
X505510Y1174540D01*
X504650Y1174110D01*
X502300Y1167040D01*
X499360Y1160190D01*
X499720Y1159300D01*
X498090Y1154420D01*
X497490Y1154080D01*
X495500Y1146660D01*
X493070Y1139370D01*
X493390Y1138740D01*
X487270Y1115900D01*
X487160Y1115830D01*
X485140Y1107920D01*
X483020Y1100020D01*
X483090Y1099910D01*
X481340Y1093040D01*
X480830Y1092700D01*
X479310Y1085100D01*
X477390Y1077580D01*
X477700Y1077060D01*
X474290Y1060020D01*
X473510Y1059390D01*
X472690Y1052020D01*
X471240Y1044750D01*
X471790Y1043920D01*
X470310Y1030630D01*
X470130Y1030480D01*
X469400Y1022430D01*
X468510Y1014390D01*
X468660Y1014210D01*
X466880Y994720D01*
X466250Y994100D01*
X466140Y986590D01*
X465460Y979100D01*
X466030Y978420D01*
X465480Y939620D01*
X464450Y932780D01*
X465370Y931530D01*
X465350Y929980D01*
X470170Y925010D01*
X472470Y921890D01*
Y920180D01*
X477270Y915390D01*
X477850Y914600D01*
X446490D01*
X427330Y910430D01*
X395670Y897110D01*
Y908770D01*
X322230D01*
Y915420D01*
X325370Y1000030D01*
X331530Y1061630D01*
X343920Y1117400D01*
X359450Y1182610D01*
X377870Y1231740D01*
X396480Y1275160D01*
X421090Y1324380D01*
X455190Y1377090D01*
X482960Y1417200D01*
X519840Y1460220D01*
X569520Y1509910D01*
X615830Y1550040D01*
X637000Y1565160D01*
X649180Y1573280D01*
X649550Y1573220D01*
X656030Y1577840D01*
X659030Y1579850D01*
X657240Y1572670D01*
X661400Y1521860D01*
X686390Y1476870D01*
X697220Y1468540D01*
X719750Y1451300D01*
X714670Y1455180D02*
X595830D01*
X586950Y1462630D02*
X578700Y1461910D01*
X553130Y1431440D01*
X553850Y1423190D01*
X584330Y1397620D01*
X592580Y1398340D01*
X618150Y1428810D01*
X617430Y1437060D01*
X586950Y1462630D01*
X573050Y1455180D02*
X515520D01*
X506960Y1445200D02*
X564680D01*
X556300Y1435210D02*
X498400D01*
X489850Y1425230D02*
X553670D01*
X550290Y1421500D02*
X546400Y1422190D01*
X542460Y1421840D01*
X538750Y1420490D01*
X535520Y1418230D01*
X525970Y1406850D01*
X547330Y1388940D01*
X565240Y1410290D01*
X553870Y1419830D01*
X550290Y1421500D01*
X559340Y1415240D02*
X563320D01*
X561020Y1405260D02*
X568530D01*
X569650Y1406590D02*
X551730Y1385240D01*
X573080Y1367320D01*
X582630Y1378700D01*
X584300Y1382280D01*
X584980Y1386170D01*
X584640Y1390100D01*
X583290Y1393810D01*
X581020Y1397050D01*
X569650Y1406590D01*
X571240Y1405260D02*
X575220D01*
X582260Y1395270D02*
X658320D01*
X648330Y1385290D02*
X584830D01*
X579780Y1375300D02*
X638350D01*
X628360Y1365320D02*
X566530D01*
X569390Y1362920D02*
X548030Y1380840D01*
X530120Y1359480D01*
X541490Y1349940D01*
X545070Y1348270D01*
X548960Y1347590D01*
X552900Y1347930D01*
X556610Y1349280D01*
X559840Y1351550D01*
X569390Y1362920D01*
X563020Y1355330D02*
X618380D01*
X608390Y1345350D02*
X434660D01*
X441120Y1355330D02*
X535070D01*
X535010Y1365320D02*
X527510D01*
X525710Y1363180D02*
X543630Y1384530D01*
X548030Y1380840D01*
X551730Y1385240D01*
X547330Y1388940D01*
X543630Y1384530D01*
X522280Y1402450D01*
X512730Y1391070D01*
X511060Y1387500D01*
X510380Y1383610D01*
X510720Y1379670D01*
X512070Y1375960D01*
X514340Y1372720D01*
X525710Y1363180D01*
X523170Y1365320D02*
X447580D01*
X454040Y1375300D02*
X512530D01*
X510680Y1385290D02*
X460870D01*
X467780Y1395270D02*
X516260D01*
X530830D02*
X539770D01*
X542730Y1385290D02*
X544260D01*
X551670D02*
X551770D01*
X552640Y1395270D02*
X560150D01*
X563570Y1375300D02*
X554630D01*
X543390D02*
X535890D01*
X527870Y1405260D02*
X474700D01*
X481610Y1415240D02*
X533010D01*
X524790Y1465170D02*
X701630D01*
X688630Y1475150D02*
X534770D01*
X544760Y1485140D02*
X681800D01*
X676250Y1495120D02*
X554740D01*
X564730Y1505110D02*
X670700D01*
X665160Y1515090D02*
X575510D01*
X587030Y1525080D02*
X661140D01*
X660320Y1535060D02*
X598550D01*
X610070Y1545050D02*
X659500D01*
X658680Y1555040D02*
X622830D01*
X636800Y1565020D02*
X657860D01*
X657820Y1575010D02*
X652050D01*
X607730Y1445200D02*
X711620D01*
X698260Y1435210D02*
X617590D01*
X615140Y1425230D02*
X688270D01*
X678290Y1415240D02*
X606760D01*
X598390Y1405260D02*
X668300D01*
X598300Y1335360D02*
X428200D01*
X421730Y1325380D02*
X590540D01*
X582770Y1315390D02*
X416590D01*
X411600Y1305410D02*
X574890D01*
X568540Y1295420D02*
X406610D01*
X401620Y1285440D02*
X562180D01*
X555830Y1275450D02*
X396620D01*
X392320Y1265470D02*
X549480D01*
X544170Y1255480D02*
X388040D01*
X383770Y1245500D02*
X538260D01*
X533080Y1235510D02*
X379490D01*
X375540Y1225530D02*
X528280D01*
X523080Y1215540D02*
X371800D01*
X368050Y1205560D02*
X518540D01*
X514530Y1195570D02*
X364310D01*
X360560Y1185590D02*
X510250D01*
X505970Y1175600D02*
X357780D01*
X355400Y1165620D02*
X501690D01*
X498500Y1155630D02*
X353020D01*
X350650Y1145650D02*
X399240D01*
X399580Y1146900D02*
X389280Y1108480D01*
X393430Y1101310D01*
X431850Y1091010D01*
X439020Y1095150D01*
X449320Y1133580D01*
X445180Y1140750D01*
X406750Y1151050D01*
X399580Y1146900D01*
X396570Y1135660D02*
X348270D01*
X345890Y1125680D02*
X393890D01*
X391220Y1115690D02*
X343540D01*
X341320Y1105710D02*
X390890D01*
X390910Y1098270D02*
X387090Y1097250D01*
X383670Y1095270D01*
X380880Y1092480D01*
X378900Y1089060D01*
X375060Y1074720D01*
X401980Y1067510D01*
X400500Y1061950D01*
X406050Y1060460D01*
X398840Y1033540D01*
X413180Y1029700D01*
X417130D01*
X420940Y1030720D01*
X424360Y1032690D01*
X427160Y1035490D01*
X429130Y1038910D01*
X432970Y1053250D01*
X406050Y1060460D01*
X407540Y1066020D01*
X401990Y1067510D01*
X409200Y1094430D01*
X394860Y1098270D01*
X390910D01*
X384440Y1095720D02*
X339100D01*
X336880Y1085730D02*
X378010D01*
X375340Y1075750D02*
X334660D01*
X332450Y1065760D02*
X372660D01*
X373570Y1069170D02*
X369730Y1054820D01*
Y1050870D01*
X370750Y1047060D01*
X372730Y1043640D01*
X375520Y1040850D01*
X378940Y1038870D01*
X393280Y1035030D01*
X400500Y1061950D01*
X373570Y1069170D01*
X386270Y1065760D02*
X401520D01*
X407470D02*
X408480D01*
X407540Y1066020D02*
X434460Y1058800D01*
X438300Y1073150D01*
Y1077100D01*
X437280Y1080910D01*
X435310Y1084330D01*
X432520Y1087120D01*
X429090Y1089100D01*
X414750Y1092940D01*
X407540Y1066020D01*
X410150Y1075750D02*
X404190D01*
X406870Y1085730D02*
X412820D01*
X414270Y1095720D02*
X404380D01*
X433900Y1085730D02*
X479430D01*
X477440Y1075750D02*
X438300D01*
X436330Y1065760D02*
X475440D01*
X473110Y1055780D02*
X423540D01*
X430980Y1045790D02*
X471440D01*
X470890Y1035810D02*
X427340D01*
X402120Y1045790D02*
X396170D01*
X393490Y1035810D02*
X399440D01*
X390370D02*
X328940D01*
X329940Y1045790D02*
X371480D01*
X369990Y1055780D02*
X330940D01*
X327950Y1025820D02*
X469710D01*
X468670Y1015840D02*
X326950D01*
X325950Y1005850D02*
X467900D01*
X466990Y995870D02*
X325210D01*
X324840Y985880D02*
X466080D01*
X465990Y975900D02*
X324470D01*
X324100Y965910D02*
X465850D01*
X465710Y955930D02*
X323730D01*
X323360Y945940D02*
X465570D01*
X464930Y935960D02*
X322990D01*
X322620Y925970D02*
X469240D01*
X476670Y915990D02*
X322250D01*
X386510D01*
Y918760D02*
X322310Y917520D01*
X322230Y915420D01*
Y907500D01*
X321930Y907200D01*
X321910Y906770D01*
X316110Y901380D01*
X310520Y895780D01*
X310090D01*
X309770Y895490D01*
X301860Y895780D01*
X300710D01*
Y263600D01*
X377560D01*
X386510Y261990D01*
Y918760D01*
Y906000D02*
X321090D01*
X310750Y896020D02*
X386510D01*
Y886030D02*
X300710D01*
Y876050D02*
X386510D01*
Y866060D02*
X300710D01*
Y856080D02*
X386510D01*
Y846090D02*
X300710D01*
Y836110D02*
X386510D01*
Y826120D02*
X300710D01*
Y816140D02*
X386510D01*
Y806150D02*
X300710D01*
Y796170D02*
X386510D01*
Y786180D02*
X300710D01*
Y776200D02*
X386510D01*
Y766210D02*
X300710D01*
Y756230D02*
X386510D01*
Y746240D02*
X300710D01*
Y736260D02*
X386510D01*
Y726270D02*
X300710D01*
Y716290D02*
X386510D01*
Y706300D02*
X300710D01*
Y696320D02*
X386510D01*
Y686330D02*
X300710D01*
Y676350D02*
X386510D01*
Y666360D02*
X300710D01*
Y656380D02*
X386510D01*
Y646390D02*
X300710D01*
Y636400D02*
X386510D01*
Y626420D02*
X300710D01*
Y616430D02*
X386510D01*
Y606450D02*
X300710D01*
Y596460D02*
X386510D01*
Y586480D02*
X300710D01*
Y576490D02*
X386510D01*
Y566510D02*
X300710D01*
Y556520D02*
X386510D01*
Y546540D02*
X300710D01*
Y536550D02*
X386510D01*
Y526570D02*
X300710D01*
Y516580D02*
X386510D01*
Y506600D02*
X300710D01*
Y496610D02*
X386510D01*
Y486630D02*
X300710D01*
Y476640D02*
X386510D01*
Y466660D02*
X300710D01*
Y456670D02*
X386510D01*
Y446690D02*
X300710D01*
Y436700D02*
X386510D01*
Y426720D02*
X300710D01*
Y416730D02*
X386510D01*
Y406750D02*
X300710D01*
Y396760D02*
X386510D01*
Y386780D02*
X300710D01*
Y376790D02*
X386510D01*
Y366810D02*
X300710D01*
Y356820D02*
X386510D01*
Y346840D02*
X300710D01*
Y336850D02*
X386510D01*
Y326870D02*
X300710D01*
Y316880D02*
X386510D01*
Y306900D02*
X300710D01*
Y296910D02*
X386510D01*
Y286930D02*
X300710D01*
Y276940D02*
X386510D01*
Y266960D02*
X300710D01*
X395670Y906000D02*
X416800D01*
X404790Y1055780D02*
X398840D01*
X439180Y1095720D02*
X482020D01*
X484540Y1105710D02*
X441850D01*
X444530Y1115690D02*
X487120D01*
X489890Y1125680D02*
X447200D01*
X448120Y1135660D02*
X492560D01*
X495170Y1145650D02*
X426910D01*
M02*
