%FSLAX46Y46*%
%MOIN*%
%ADD10C,0.01*%
%ADD11C,0.043*%
%ADD12R,0.0355X0.0355*%
%ADD14C,0.05124*%
%LPD*%
D10*
X39070Y232510D02*
G01*
X284990Y230010D01*
X286660Y930000D01*
X39070Y931670D01*
Y232510D01*
Y237000D02*
X285010D01*
X285030Y246990D02*
X39070D01*
Y256970D02*
X285060D01*
X285080Y266960D02*
X39070D01*
Y276940D02*
X285110D01*
X285130Y286930D02*
X39070D01*
Y296910D02*
X285150D01*
X285180Y306900D02*
X39070D01*
Y316880D02*
X285200D01*
X285220Y326870D02*
X39070D01*
Y336850D02*
X285250D01*
X285270Y346840D02*
X39070D01*
Y356820D02*
X285300D01*
X285320Y366810D02*
X39070D01*
Y376790D02*
X285340D01*
X285370Y386780D02*
X39070D01*
Y396760D02*
X285390D01*
X285410Y406750D02*
X39070D01*
Y416730D02*
X285440D01*
X285460Y426720D02*
X39070D01*
Y436700D02*
X285490D01*
X285510Y446690D02*
X39070D01*
Y456670D02*
X285530D01*
X285560Y466660D02*
X39070D01*
Y476640D02*
X285580D01*
X285600Y486630D02*
X39070D01*
Y496610D02*
X285630D01*
X285650Y506600D02*
X39070D01*
Y516580D02*
X285680D01*
X285700Y526570D02*
X39070D01*
Y536550D02*
X285720D01*
X285750Y546540D02*
X39070D01*
Y556520D02*
X285770D01*
X285790Y566510D02*
X39070D01*
Y576490D02*
X285820D01*
X285840Y586480D02*
X39070D01*
Y596460D02*
X285870D01*
X285890Y606450D02*
X39070D01*
Y616430D02*
X285910D01*
X285940Y626420D02*
X39070D01*
Y636400D02*
X285960D01*
X285990Y646390D02*
X39070D01*
Y656380D02*
X286010D01*
X286030Y666360D02*
X39070D01*
Y676350D02*
X286060D01*
X286080Y686330D02*
X39070D01*
Y696320D02*
X286100D01*
X286130Y706300D02*
X39070D01*
Y716290D02*
X286150D01*
X286180Y726270D02*
X39070D01*
Y736260D02*
X286200D01*
X286220Y746240D02*
X39070D01*
Y756230D02*
X286250D01*
X286270Y766210D02*
X39070D01*
Y776200D02*
X286290D01*
X286320Y786180D02*
X39070D01*
Y796170D02*
X286340D01*
X286370Y806150D02*
X39070D01*
Y816140D02*
X286390D01*
X286410Y826120D02*
X39070D01*
Y836110D02*
X286440D01*
X286460Y846090D02*
X39070D01*
Y856080D02*
X286480D01*
X286510Y866060D02*
X39070D01*
Y876050D02*
X286530D01*
X286560Y886030D02*
X39070D01*
Y896020D02*
X286580D01*
X286600Y906000D02*
X39070D01*
Y915990D02*
X286630D01*
X286650Y925970D02*
X39070D01*
X395880Y897520D02*
X395040Y260830D01*
X414830Y249870D01*
X491360Y245000D01*
Y915010D01*
X446490Y914600D01*
X427330Y910430D01*
X395880Y897520D01*
Y896020D02*
X491360D01*
Y906000D02*
X416540D01*
X395860Y886030D02*
X491360D01*
Y876050D02*
X395850D01*
X395840Y866060D02*
X491360D01*
Y856080D02*
X395820D01*
X395810Y846090D02*
X491360D01*
Y836110D02*
X395800D01*
X395780Y826120D02*
X491360D01*
Y816140D02*
X395770D01*
X395760Y806150D02*
X491360D01*
Y796170D02*
X395740D01*
X395730Y786180D02*
X491360D01*
Y776200D02*
X395720D01*
X395710Y766210D02*
X491360D01*
Y756230D02*
X395690D01*
X395680Y746240D02*
X491360D01*
Y736260D02*
X395670D01*
X395650Y726270D02*
X491360D01*
Y716290D02*
X395640D01*
X395630Y706300D02*
X491360D01*
Y696320D02*
X395610D01*
X395600Y686330D02*
X491360D01*
Y676350D02*
X395590D01*
X395570Y666360D02*
X491360D01*
Y656380D02*
X395560D01*
X395550Y646390D02*
X491360D01*
Y636400D02*
X395540D01*
X395520Y626420D02*
X491360D01*
Y616430D02*
X395510D01*
X395500Y606450D02*
X491360D01*
Y596460D02*
X395480D01*
X395470Y586480D02*
X491360D01*
Y576490D02*
X395460D01*
X395440Y566510D02*
X491360D01*
Y556520D02*
X395430D01*
X395420Y546540D02*
X491360D01*
Y536550D02*
X395400D01*
X395390Y526570D02*
X491360D01*
Y516580D02*
X395380D01*
X395370Y506600D02*
X491360D01*
Y496610D02*
X395350D01*
X395340Y486630D02*
X491360D01*
Y476640D02*
X395330D01*
X395310Y466660D02*
X491360D01*
Y456670D02*
X395300D01*
X395290Y446690D02*
X491360D01*
Y436700D02*
X395270D01*
X395260Y426720D02*
X491360D01*
Y416730D02*
X395250D01*
X395230Y406750D02*
X491360D01*
Y396760D02*
X395220D01*
X395210Y386780D02*
X491360D01*
Y376790D02*
X395200D01*
X395180Y366810D02*
X491360D01*
Y356820D02*
X395170D01*
X395160Y346840D02*
X491360D01*
Y336850D02*
X395140D01*
X395130Y326870D02*
X491360D01*
Y316880D02*
X395120D01*
X395100Y306900D02*
X491360D01*
Y296910D02*
X395090D01*
X395080Y286930D02*
X491360D01*
Y276940D02*
X395070D01*
X395050Y266960D02*
X491360D01*
Y256970D02*
X402010D01*
X460130Y246990D02*
X491360D01*
X1723800Y249160D02*
Y914180D01*
X1769290Y914600D01*
X1789280Y909600D01*
X1803440Y902940D01*
X1815940Y898770D01*
X1819610Y899180D01*
Y265820D01*
X1795950Y255700D01*
X1777620Y251530D01*
X1723800Y249160D01*
Y256970D02*
X1798920D01*
X1819610Y266960D02*
X1723800D01*
Y276940D02*
X1819610D01*
Y286930D02*
X1723800D01*
Y296910D02*
X1819610D01*
Y306900D02*
X1723800D01*
Y316880D02*
X1819610D01*
Y326870D02*
X1723800D01*
Y336850D02*
X1819610D01*
Y346840D02*
X1723800D01*
Y356820D02*
X1819610D01*
Y366810D02*
X1723800D01*
Y376790D02*
X1819610D01*
Y386780D02*
X1723800D01*
Y396760D02*
X1819610D01*
Y406750D02*
X1723800D01*
Y416730D02*
X1819610D01*
Y426720D02*
X1723800D01*
Y436700D02*
X1819610D01*
Y446690D02*
X1723800D01*
Y456670D02*
X1819610D01*
Y466660D02*
X1723800D01*
Y476640D02*
X1819610D01*
Y486630D02*
X1723800D01*
Y496610D02*
X1819610D01*
Y506600D02*
X1723800D01*
Y516580D02*
X1819610D01*
Y526570D02*
X1723800D01*
Y536550D02*
X1819610D01*
Y546540D02*
X1723800D01*
Y556520D02*
X1819610D01*
Y566510D02*
X1723800D01*
Y576490D02*
X1819610D01*
Y586480D02*
X1723800D01*
Y596460D02*
X1819610D01*
Y606450D02*
X1723800D01*
Y616430D02*
X1819610D01*
Y626420D02*
X1723800D01*
Y636400D02*
X1819610D01*
Y646390D02*
X1723800D01*
Y656380D02*
X1819610D01*
Y666360D02*
X1723800D01*
Y676350D02*
X1819610D01*
Y686330D02*
X1723800D01*
Y696320D02*
X1819610D01*
Y706300D02*
X1723800D01*
Y716290D02*
X1819610D01*
Y726270D02*
X1723800D01*
Y736260D02*
X1819610D01*
Y746240D02*
X1723800D01*
Y756230D02*
X1819610D01*
Y766210D02*
X1723800D01*
Y776200D02*
X1819610D01*
Y786180D02*
X1723800D01*
Y796170D02*
X1819610D01*
Y806150D02*
X1723800D01*
Y816140D02*
X1819610D01*
Y826120D02*
X1723800D01*
Y836110D02*
X1819610D01*
Y846090D02*
X1723800D01*
Y856080D02*
X1819610D01*
Y866060D02*
X1723800D01*
Y876050D02*
X1819610D01*
Y886030D02*
X1723800D01*
Y896020D02*
X1819610D01*
X1796930Y906000D02*
X1723800D01*
X1930070D02*
X2176100D01*
Y896020D02*
X1930070D01*
Y886030D02*
X2176100D01*
Y876050D02*
X1930070D01*
Y866060D02*
X2176100D01*
Y856080D02*
X1930070D01*
Y846090D02*
X2176100D01*
Y836110D02*
X1930070D01*
Y826120D02*
X2176100D01*
Y816140D02*
X1930070D01*
Y806150D02*
X2176100D01*
Y796170D02*
X1930070D01*
Y786180D02*
X2176100D01*
Y776200D02*
X1930070D01*
Y766210D02*
X2176100D01*
Y756230D02*
X1930070D01*
Y746240D02*
X2176100D01*
Y736260D02*
X1930070D01*
Y726270D02*
X2176100D01*
Y716290D02*
X1930070D01*
Y706300D02*
X2176100D01*
Y696320D02*
X1930070D01*
Y686330D02*
X2176100D01*
Y676350D02*
X1930070D01*
Y666360D02*
X2176100D01*
Y656380D02*
X1930070D01*
Y646390D02*
X2176100D01*
Y636400D02*
X1930070D01*
Y626420D02*
X2176100D01*
Y616430D02*
X1930070D01*
Y606450D02*
X2176100D01*
Y596460D02*
X1930070D01*
Y586480D02*
X2176100D01*
Y576490D02*
X1930070D01*
Y566510D02*
X2176100D01*
Y556520D02*
X1930070D01*
Y546540D02*
X2176100D01*
Y536550D02*
X1930070D01*
Y526570D02*
X2176100D01*
Y516580D02*
X1930070D01*
Y506600D02*
X2176100D01*
Y496610D02*
X1930070D01*
Y486630D02*
X2176100D01*
Y476640D02*
X1930070D01*
Y466660D02*
X2176100D01*
Y456670D02*
X1930070D01*
Y446690D02*
X2176100D01*
Y436700D02*
X1930070D01*
Y426720D02*
X2176100D01*
Y416730D02*
X1930070D01*
Y406750D02*
X2176100D01*
Y396760D02*
X1930070D01*
Y386780D02*
X2176100D01*
Y376790D02*
X1930070D01*
Y366810D02*
X2176100D01*
Y356820D02*
X1930070D01*
Y346840D02*
X2176100D01*
Y336850D02*
X1930070D01*
Y326870D02*
X2176100D01*
Y316880D02*
X1930070D01*
Y306900D02*
X2176100D01*
Y296910D02*
X1930070D01*
Y286930D02*
X2176100D01*
Y276940D02*
X1930070D01*
Y266960D02*
X2176100D01*
Y256970D02*
X1930070D01*
Y246990D02*
X2176100D01*
Y237000D02*
X1930070D01*
Y227020D02*
X2176100D01*
Y226680D02*
Y921830D01*
X1930070Y921000D01*
Y225850D01*
X2176100Y226680D01*
Y915990D02*
X1930070D01*
X1516660Y1467510D02*
X1471660Y1437510D01*
X736660D01*
X686660Y1477510D01*
X661660Y1522510D01*
X656660Y1572510D01*
X666660Y1612510D01*
Y1762350D01*
X1541660D01*
Y1617510D01*
X1556660Y1557510D01*
X1541660Y1512510D01*
X1516660Y1467510D01*
X1513150Y1465170D02*
X702080D01*
X689600Y1475150D02*
X1520910D01*
X1526460Y1485140D02*
X682420D01*
X676870Y1495120D02*
X1532000D01*
X1537550Y1505110D02*
X671320D01*
X665780Y1515090D02*
X1542520D01*
X1545850Y1525080D02*
X661400D01*
X660400Y1535060D02*
X1549180D01*
X1552510Y1545050D02*
X659410D01*
X658410Y1555040D02*
X1555840D01*
X1554780Y1565020D02*
X657410D01*
X657280Y1575010D02*
X1552290D01*
X1549790Y1584990D02*
X659780D01*
X662280Y1594980D02*
X1547290D01*
X1544800Y1604960D02*
X664770D01*
X666660Y1614950D02*
X1542300D01*
X1541660Y1624930D02*
X666660D01*
Y1634920D02*
X1541660D01*
Y1644900D02*
X666660D01*
Y1654890D02*
X1541660D01*
Y1664870D02*
X666660D01*
Y1674860D02*
X1541660D01*
Y1684840D02*
X666660D01*
Y1694830D02*
X1541660D01*
Y1704810D02*
X666660D01*
Y1714800D02*
X1541660D01*
Y1724780D02*
X666660D01*
Y1734770D02*
X1541660D01*
Y1744750D02*
X666660D01*
Y1754740D02*
X1541660D01*
X714560Y1455180D02*
X1498180D01*
X1483200Y1445200D02*
X727040D01*
D11*
X2030730Y679690D03*
X2110730D03*
X2070730Y479690D03*
D12*
X1581660Y537980D03*
Y597030D03*
X1308330Y649450D03*
X1249270D03*
X959550Y820660D03*
X900500D03*
X1082130Y1037510D03*
X1141190D03*
X641660Y597030D03*
Y537980D03*
X933200Y453860D03*
Y394800D03*
X912130Y97510D03*
X971190D03*
X1286660Y267980D03*
Y327030D03*
X1581660Y197030D03*
Y137980D03*
G36*
X1312640Y148390D02*
X1287540Y123290D01*
X1262440Y148390D01*
X1287540Y173490D01*
X1312640Y148390D01*
G37*
G36*
X1270880Y106630D02*
X1245780Y81530D01*
X1220680Y106630D01*
X1245780Y131730D01*
X1270880Y106630D01*
G37*
G36*
X1208100Y486410D02*
X1225850Y455680D01*
X1195120Y437930D01*
X1177370Y468660D01*
X1208100Y486410D01*
G37*
G36*
X1178570Y537560D02*
X1196320Y506830D01*
X1165590Y489080D01*
X1147840Y519810D01*
X1178570Y537560D01*
G37*
G36*
X1331740Y455680D02*
X1349490Y486410D01*
X1380220Y468660D01*
X1362470Y437930D01*
X1331740Y455680D01*
G37*
G36*
X1361270Y506830D02*
X1379020Y537560D01*
X1409750Y519810D01*
X1392000Y489080D01*
X1361270Y506830D01*
G37*
G36*
X1002990Y706580D02*
X1020740Y737310D01*
X1051470Y719560D01*
X1033720Y688830D01*
X1002990Y706580D01*
G37*
G36*
X973460Y655430D02*
X991210Y686160D01*
X1021940Y668410D01*
X1004190Y637680D01*
X973460Y655430D01*
G37*
G36*
X872010Y682990D02*
X889760Y652260D01*
X859030Y634510D01*
X841280Y665240D01*
X872010Y682990D01*
G37*
G36*
X842480Y734140D02*
X860230Y703410D01*
X829500Y685660D01*
X811750Y716390D01*
X842480Y734140D01*
G37*
G36*
X635680Y986630D02*
X660780Y1011730D01*
X685880Y986630D01*
X660780Y961530D01*
X635680Y986630D01*
G37*
G36*
X677440Y1028390D02*
X702540Y1053490D01*
X727640Y1028390D01*
X702540Y1003290D01*
X677440Y1028390D01*
G37*
G36*
X441030Y1133580D02*
X431850Y1099300D01*
X397570Y1108480D01*
X406750Y1142760D01*
X441030Y1133580D01*
G37*
G36*
X425750Y1076530D02*
X416570Y1042250D01*
X382290Y1051430D01*
X391470Y1085710D01*
X425750Y1076530D01*
G37*
G36*
X572680Y1387070D02*
X549860Y1359890D01*
X522680Y1382710D01*
X545500Y1409890D01*
X572680Y1387070D01*
G37*
G36*
X610640Y1432310D02*
X587820Y1405130D01*
X560640Y1427950D01*
X583460Y1455130D01*
X610640Y1432310D01*
G37*
G36*
X899870Y1592310D02*
X865590Y1583130D01*
X856410Y1617410D01*
X890690Y1626590D01*
X899870Y1592310D01*
G37*
G36*
X956910Y1607600D02*
X922630Y1598420D01*
X913450Y1632700D01*
X947730Y1641880D01*
X956910Y1607600D01*
G37*
G36*
X1275590Y1641880D02*
X1309870Y1632700D01*
X1300690Y1598420D01*
X1266410Y1607600D01*
X1275590Y1641880D01*
G37*
G36*
X1332630Y1626590D02*
X1366910Y1617410D01*
X1357730Y1583130D01*
X1323450Y1592310D01*
X1332630Y1626590D01*
G37*
G36*
X1624860Y1455130D02*
X1647680Y1427950D01*
X1620500Y1405130D01*
X1597680Y1432310D01*
X1624860Y1455130D01*
G37*
G36*
X1662820Y1409890D02*
X1685640Y1382710D01*
X1658460Y1359890D01*
X1635640Y1387070D01*
X1662820Y1409890D01*
G37*
G36*
X1816570Y1142760D02*
X1825750Y1108480D01*
X1791470Y1099300D01*
X1782290Y1133580D01*
X1816570Y1142760D01*
G37*
G36*
X1831850Y1085710D02*
X1841030Y1051430D01*
X1806750Y1042250D01*
X1797570Y1076530D01*
X1831850Y1085710D01*
G37*
G36*
X1562540Y961530D02*
X1537440Y986630D01*
X1562540Y1011730D01*
X1587640Y986630D01*
X1562540Y961530D01*
G37*
G36*
X1520780Y1003290D02*
X1495680Y1028390D01*
X1520780Y1053490D01*
X1545880Y1028390D01*
X1520780Y1003290D01*
G37*
G36*
X660780Y123290D02*
X635680Y148390D01*
X660780Y173490D01*
X685880Y148390D01*
X660780Y123290D01*
G37*
G36*
X702540Y81530D02*
X677440Y106630D01*
X702540Y131730D01*
X727640Y106630D01*
X702540Y81530D01*
G37*
D14*
X233440Y589120D03*
X133440D03*
Y688110D03*
X233440D03*
M02*
