%FSLAX46Y46*%
%MOIN*%
%ADD10C,0.003*%
%ADD11C,0.005*%
%ADD12R,0.0008X0.00083*%
%ADD13R,0.0025X0.00084*%
%ADD14R,0.0025X0.00083*%
%ADD15R,0.0017X0.00083*%
%ADD16R,0.005X0.00083*%
%ADD17R,0.0075X0.00084*%
%ADD18R,0.0009X0.00084*%
%ADD19R,0.005X0.00084*%
%ADD20R,0.0075X0.00083*%
%ADD21R,0.0108X0.00083*%
%ADD22R,0.0058X0.00083*%
%ADD23R,0.0158X0.00083*%
%ADD24R,0.0059X0.00084*%
%ADD25R,0.0175X0.00084*%
%ADD26R,0.0041X0.00083*%
%ADD27R,0.0125X0.00083*%
%ADD28R,0.0034X0.00083*%
%ADD29R,0.0058X0.00084*%
%ADD30R,0.0016X0.00084*%
%ADD31R,0.0091X0.00084*%
%ADD32R,0.0083X0.00083*%
%ADD33R,0.0042X0.00083*%
%ADD34R,0.0109X0.00083*%
%ADD35R,0.0117X0.00083*%
%ADD36R,0.0141X0.00084*%
%ADD37R,0.0034X0.00084*%
%ADD38R,0.01X0.00083*%
%ADD39R,0.0033X0.00083*%
%ADD40R,0.0017X0.00083*%
%ADD41R,0.0116X0.00084*%
%ADD42R,0.0108X0.00084*%
%ADD43R,0.0008X0.00084*%
%ADD44R,0.0033X0.00084*%
%ADD45R,0.0017X0.00084*%
%ADD46R,0.0067X0.00083*%
%ADD47R,0.0092X0.00083*%
%ADD48R,0.0059X0.00083*%
%ADD49R,0.0117X0.00083*%
%ADD50R,0.0142X0.00083*%
%ADD51R,0.0134X0.00084*%
%ADD52R,0.0192X0.00084*%
%ADD53R,0.0042X0.00084*%
%ADD54R,0.0125X0.00084*%
%ADD55R,0.0092X0.00083*%
%ADD56R,0.0091X0.00083*%
%ADD57R,0.0167X0.00083*%
%ADD58R,0.0042X0.00083*%
%ADD59R,0.0016X0.00083*%
%ADD60R,0.01X0.00084*%
%ADD61R,0.0242X0.00084*%
%ADD62R,0.0175X0.00083*%
%ADD63R,0.0009X0.00083*%
%ADD64R,0.0066X0.00083*%
%ADD65R,0.015X0.00083*%
%ADD66R,0.0325X0.00083*%
%ADD67R,0.015X0.00084*%
%ADD68R,0.0041X0.00084*%
%ADD69R,0.0084X0.00084*%
%ADD70R,0.0042X0.00084*%
%ADD71R,0.0109X0.00084*%
%ADD72R,0.0083X0.00084*%
%ADD73R,0.0634X0.00084*%
%ADD74R,0.0217X0.00084*%
%ADD75R,0.0191X0.00083*%
%ADD76R,0.0116X0.00083*%
%ADD77R,0.0425X0.00083*%
%ADD78R,0.0159X0.00083*%
%ADD79R,0.0067X0.00083*%
%ADD80R,0.0208X0.00083*%
%ADD81R,0.02X0.00083*%
%ADD82R,0.0092X0.00084*%
%ADD83R,0.0158X0.00084*%
%ADD84R,0.0084X0.00083*%
%ADD85R,0.0166X0.00083*%
%ADD86R,0.0216X0.00084*%
%ADD87R,0.0192X0.00084*%
%ADD88R,0.0142X0.00084*%
%ADD89R,0.0159X0.00084*%
%ADD90R,0.0192X0.00083*%
%ADD91R,0.0133X0.00083*%
%ADD92R,0.0209X0.00083*%
%ADD93R,0.0141X0.00083*%
%ADD94R,0.0099X0.00083*%
%ADD95R,0.0133X0.00084*%
%ADD96R,0.0099X0.00084*%
%ADD97R,0.0217X0.00083*%
%ADD98R,0.0051X0.00083*%
%ADD99R,0.0142X0.00083*%
%ADD100R,0.02X0.00084*%
%ADD101R,0.0067X0.00084*%
%ADD102R,0.0284X0.00083*%
%ADD103R,0.0167X0.00083*%
%ADD104R,0.0142X0.00084*%
%ADD105R,0.0117X0.00084*%
%ADD106R,0.0208X0.00084*%
%ADD107R,0.0167X0.00084*%
%ADD108R,0.0225X0.00083*%
%ADD109R,0.0049X0.00083*%
%ADD110R,0.0183X0.00083*%
%ADD111R,0.03X0.00083*%
%ADD112R,0.0226X0.00084*%
%ADD113R,0.0049X0.00084*%
%ADD114R,0.0425X0.00084*%
%ADD115R,0.0066X0.00084*%
%ADD116R,0.0358X0.00084*%
%ADD117R,0.05X0.00083*%
%ADD118R,0.0258X0.00083*%
%ADD119R,0.0292X0.00083*%
%ADD120R,0.0067X0.00084*%
%ADD121R,0.0375X0.00084*%
%ADD122R,0.0183X0.00084*%
%ADD123R,0.0149X0.00083*%
%ADD124R,0.0384X0.00083*%
%ADD125R,0.0201X0.00083*%
%ADD126R,0.0341X0.00084*%
%ADD127R,0.0184X0.00084*%
%ADD128R,0.0209X0.00084*%
%ADD129R,0.04X0.00083*%
%ADD130R,0.0392X0.00083*%
%ADD131R,0.0184X0.00083*%
%ADD132R,0.0092X0.00084*%
%ADD133R,0.04X0.00084*%
%ADD134R,0.0416X0.00083*%
%ADD135R,0.0333X0.00083*%
%ADD136R,0.0134X0.00083*%
%ADD137R,0.0366X0.00083*%
%ADD138R,0.0325X0.00084*%
%ADD139R,0.0666X0.00083*%
%ADD140R,0.0658X0.00084*%
%ADD141R,0.0658X0.00083*%
%ADD142R,0.0192X0.00083*%
%ADD143R,0.065X0.00083*%
%ADD144R,0.0117X0.00084*%
%ADD145R,0.0291X0.00083*%
%ADD146R,0.0234X0.00084*%
%ADD147R,0.035X0.00084*%
%ADD148R,0.0408X0.00084*%
%ADD149R,0.0417X0.00083*%
%ADD150R,0.0791X0.00083*%
%ADD151R,0.0375X0.00083*%
%ADD152R,0.0367X0.00084*%
%ADD153R,0.0791X0.00084*%
%ADD154R,0.08X0.00083*%
%ADD155R,0.0625X0.00083*%
%ADD156R,0.0608X0.00084*%
%ADD157R,0.0241X0.00083*%
%ADD158R,0.0608X0.00083*%
%ADD159R,0.0267X0.00083*%
%ADD160R,0.0267X0.00083*%
%ADD161R,0.0642X0.00083*%
%ADD162R,0.0017X0.00084*%
%ADD163R,0.0284X0.00084*%
%ADD164R,0.0659X0.00084*%
%ADD165R,0.0684X0.00083*%
%ADD166R,0.07X0.00083*%
%ADD167R,0.0191X0.00084*%
%ADD168R,0.0725X0.00084*%
%ADD169R,0.0742X0.00083*%
%ADD170R,0.0741X0.00083*%
%ADD171R,0.0333X0.00084*%
%ADD172R,0.075X0.00084*%
%ADD173R,0.0775X0.00083*%
%ADD174R,0.05X0.00084*%
%ADD175R,0.0283X0.00084*%
%ADD176R,0.0358X0.00083*%
%ADD177R,0.0758X0.00083*%
%ADD178R,0.0342X0.00084*%
%ADD179R,0.0542X0.00084*%
%ADD180R,0.0217X0.00084*%
%ADD181R,0.0341X0.00083*%
%ADD182R,0.0566X0.00083*%
%ADD183R,0.0683X0.00084*%
%ADD184R,0.055X0.00083*%
%ADD185R,0.0508X0.00083*%
%ADD186R,0.085X0.00083*%
%ADD187R,0.0492X0.00084*%
%ADD188R,0.0858X0.00084*%
%ADD189R,0.0467X0.00083*%
%ADD190R,0.0433X0.00083*%
%ADD191R,0.0442X0.00083*%
%ADD192R,0.0434X0.00084*%
%ADD193R,0.0466X0.00083*%
%ADD194R,0.0275X0.00083*%
%ADD195R,0.0316X0.00083*%
%ADD196R,0.045X0.00083*%
%ADD197R,0.0441X0.00083*%
%ADD198R,0.0292X0.00083*%
%ADD199R,0.0441X0.00084*%
%ADD200R,0.0292X0.00084*%
%ADD201R,0.0342X0.00083*%
%ADD202R,0.0259X0.00083*%
%ADD203R,0.0458X0.00084*%
%ADD204R,0.0258X0.00084*%
%ADD205R,0.0534X0.00083*%
%ADD206R,0.025X0.00083*%
%ADD207R,0.0392X0.00083*%
%ADD208R,0.0291X0.00084*%
%ADD209R,0.0391X0.00083*%
%ADD210R,0.0308X0.00083*%
%ADD211R,0.0383X0.00083*%
%ADD212R,0.0334X0.00083*%
%ADD213R,0.0483X0.00084*%
%ADD214R,0.0642X0.00083*%
%ADD215R,0.0641X0.00083*%
%ADD216R,0.0624X0.00084*%
%ADD217R,0.0217X0.00083*%
%ADD218R,0.035X0.00083*%
%ADD219R,0.0442X0.00084*%
%ADD220R,0.0384X0.00084*%
%ADD221R,0.1234X0.00083*%
%ADD222R,0.0933X0.00084*%
%ADD223R,0.0833X0.00083*%
%ADD224R,0.0408X0.00083*%
%ADD225R,0.0076X0.00083*%
%ADD226R,0.0216X0.00083*%
%ADD227R,0.0126X0.00084*%
%ADD228R,0.0317X0.00083*%
%ADD229R,0.0259X0.00084*%
%ADD230R,0.025X0.00084*%
%ADD231R,0.0266X0.00083*%
%ADD232R,0.0575X0.00083*%
%ADD233R,0.0166X0.00084*%
%ADD234R,0.0558X0.00084*%
%ADD235R,0.0483X0.00083*%
%ADD236R,0.0517X0.00083*%
%ADD237R,0.0242X0.00083*%
%ADD238R,0.0233X0.00083*%
%ADD239C,0.00591*%
%ADD240R,0.001X0.0005*%
%ADD241R,0.0055X0.0005*%
%ADD242R,0.006X0.0005*%
%ADD243R,0.007X0.0005*%
%ADD244R,0.008X0.0005*%
%ADD245R,0.0085X0.0005*%
%ADD246R,0.009X0.0005*%
%ADD247R,0.0095X0.0005*%
%ADD248R,0.01X0.0005*%
%ADD249R,0.0105X0.0005*%
%ADD250R,0.011X0.0005*%
%ADD251R,0.0065X0.0005*%
%ADD252R,0.005X0.0005*%
%ADD253R,0.0005X0.0005*%
%ADD254R,0.0015X0.0005*%
%ADD255R,0.0025X0.0005*%
%ADD256R,0.002X0.0005*%
%ADD257R,0.0035X0.0005*%
%ADD258R,0.003X0.0005*%
%ADD259R,0.0045X0.0005*%
%ADD260R,0.0115X0.0005*%
%ADD261R,0.0125X0.0005*%
%ADD262R,0.0145X0.0005*%
%ADD263R,0.0175X0.0005*%
%ADD264R,0.0185X0.0005*%
%ADD265R,0.019X0.0005*%
%ADD266R,0.0195X0.0005*%
%ADD267R,0.02X0.0005*%
%ADD268R,0.021X0.0005*%
%ADD269R,0.0205X0.0005*%
%ADD270R,0.0215X0.0005*%
%ADD271R,0.022X0.0005*%
%ADD272R,0.0225X0.0005*%
%ADD273R,0.023X0.0005*%
%ADD274R,0.0235X0.0005*%
%ADD275R,0.024X0.0005*%
%ADD276R,0.0245X0.0005*%
%ADD277R,0.025X0.0005*%
%ADD278R,0.0255X0.0005*%
%ADD279R,0.026X0.0005*%
%ADD280R,0.0265X0.0005*%
%ADD281R,0.027X0.0005*%
%ADD282R,0.0275X0.0005*%
%ADD283R,0.028X0.0005*%
%ADD284R,0.029X0.0005*%
%ADD285R,0.0285X0.0005*%
%ADD286R,0.0585X0.0005*%
%ADD287R,0.06X0.0005*%
%ADD288R,0.0595X0.0005*%
%ADD289R,0.061X0.0005*%
%ADD290R,0.062X0.0005*%
%ADD291R,0.058X0.0005*%
%ADD292R,0.063X0.0005*%
%ADD293R,0.0575X0.0005*%
%ADD294R,0.059X0.0005*%
%ADD295R,0.065X0.0005*%
%LPD*%
D10*
X133720Y438220D02*
G01*
Y444380D01*
X113160D01*
Y432050D01*
X113180Y431490D01*
X113240Y430930D01*
X113330Y430380D01*
X113460Y429830D01*
X113630Y429300D01*
X113840Y428780D01*
X114080Y428270D01*
X114360Y427780D01*
X114660Y427310D01*
X115000Y426860D01*
X115370Y426440D01*
X115770Y426040D01*
X116190Y425670D01*
X116640Y425330D01*
X117110Y425030D01*
X117600Y424750D01*
X118110Y424510D01*
X118630Y424300D01*
X119160Y424130D01*
X119710Y424000D01*
X120260Y423910D01*
X120820Y423850D01*
X121380Y423830D01*
X141940D01*
X142500Y423850D01*
X143060Y423910D01*
X143610Y424000D01*
X144160Y424130D01*
X144690Y424300D01*
X145210Y424510D01*
X145720Y424750D01*
X146210Y425030D01*
X146680Y425330D01*
X147130Y425670D01*
X147550Y426040D01*
X147950Y426440D01*
X148320Y426860D01*
X148660Y427310D01*
X148960Y427780D01*
X149240Y428270D01*
X149480Y428780D01*
X149690Y429300D01*
X149860Y429830D01*
X149990Y430380D01*
X150080Y430930D01*
X150140Y431490D01*
X150160Y432050D01*
Y444380D01*
X113160Y462230D02*
X150160D01*
X113160Y482780D01*
X150160D01*
Y500630D02*
Y510910D01*
X150140Y511530D01*
X150090Y512150D01*
X149990Y512760D01*
X149860Y513370D01*
X149690Y513970D01*
X149490Y514560D01*
X149250Y515130D01*
X148980Y515690D01*
X148680Y516230D01*
X148340Y516750D01*
X147970Y517250D01*
X147570Y517730D01*
X147150Y518180D01*
X146700Y518600D01*
X146220Y519000D01*
X145720Y519370D01*
X145200Y519710D01*
X144660Y520010D01*
X144100Y520280D01*
X143530Y520520D01*
X142940Y520720D01*
X142340Y520890D01*
X141730Y521020D01*
X141120Y521120D01*
X140500Y521170D01*
X139880Y521180D01*
X123440D01*
X122820Y521170D01*
X122200Y521120D01*
X121590Y521020D01*
X120980Y520890D01*
X120380Y520720D01*
X119790Y520520D01*
X119220Y520280D01*
X118660Y520010D01*
X118120Y519710D01*
X117600Y519370D01*
X117100Y519000D01*
X116620Y518600D01*
X116170Y518180D01*
X115750Y517730D01*
X115350Y517250D01*
X114980Y516750D01*
X114640Y516230D01*
X114340Y515690D01*
X114070Y515130D01*
X113830Y514560D01*
X113630Y513970D01*
X113460Y513370D01*
X113330Y512760D01*
X113230Y512150D01*
X113180Y511530D01*
X113160Y510910D01*
Y500630D01*
X150160D01*
X419050Y699010D02*
Y717510D01*
X419070Y717990D01*
X419130Y718480D01*
X419220Y718950D01*
X419350Y719420D01*
X419520Y719870D01*
X419720Y720310D01*
X419960Y720730D01*
X420230Y721140D01*
X420530Y721520D01*
X420860Y721870D01*
X421210Y722200D01*
X421590Y722500D01*
X422000Y722770D01*
X422420Y723010D01*
X422860Y723210D01*
X423310Y723380D01*
X423780Y723510D01*
X424250Y723600D01*
X424740Y723660D01*
X425220Y723670D01*
X443720D01*
Y699010D01*
X431380D02*
Y723670D01*
X460700Y707230D02*
X481260D01*
X473040Y736010D01*
X466870Y715450D02*
Y699010D01*
X514180Y730870D02*
X514630Y729910D01*
X515040Y728930D01*
X515420Y727930D01*
X515770Y726930D01*
X516080Y725910D01*
X516360Y724880D01*
X516590Y723850D01*
X516800Y722800D01*
X516960Y721750D01*
X517090Y720700D01*
X517190Y719640D01*
X517240Y718570D01*
X517260Y717510D01*
X517240Y716450D01*
X517190Y715380D01*
X517090Y714320D01*
X516960Y713270D01*
X516800Y712220D01*
X516590Y711170D01*
X516360Y710140D01*
X516080Y709110D01*
X515770Y708090D01*
X515420Y707090D01*
X515040Y706090D01*
X514630Y705110D01*
X514180Y704140D01*
X513990Y703650D01*
X513770Y703180D01*
X513520Y702720D01*
X513240Y702280D01*
X512920Y701860D01*
X512580Y701460D01*
X512210Y701080D01*
X511820Y700740D01*
X511400Y700420D01*
X510970Y700130D01*
X510510Y699870D01*
X510040Y699640D01*
X509550Y699450D01*
X509050Y699290D01*
X508540Y699160D01*
X508030Y699070D01*
X507500Y699020D01*
X506980Y699000D01*
X506460Y699020D01*
X505930Y699070D01*
X505420Y699160D01*
X504910Y699290D01*
X504410Y699450D01*
X503920Y699640D01*
X503450Y699870D01*
X502990Y700130D01*
X502560Y700420D01*
X502140Y700740D01*
X501750Y701080D01*
X501380Y701460D01*
X501040Y701860D01*
X500730Y702280D01*
X500440Y702720D01*
X500190Y703180D01*
X499970Y703650D01*
X499780Y704140D01*
X499340Y705110D01*
X498930Y706090D01*
X498550Y707090D01*
X498200Y708090D01*
X497890Y709110D01*
X497610Y710140D01*
X497380Y711170D01*
X497170Y712220D01*
X497010Y713270D01*
X496880Y714320D01*
X496780Y715380D01*
X496730Y716450D01*
X496710Y717510D01*
X496720Y718570D01*
X496770Y719640D01*
X496870Y720700D01*
X497000Y721750D01*
X497160Y722800D01*
X497370Y723850D01*
X497600Y724880D01*
X497880Y725910D01*
X498190Y726930D01*
X498540Y727930D01*
X498920Y728930D01*
X499330Y729910D01*
X499780Y730870D01*
X499970Y731360D01*
X500190Y731830D01*
X500440Y732290D01*
X500730Y732730D01*
X501040Y733150D01*
X501380Y733550D01*
X501750Y733930D01*
X502140Y734270D01*
X502560Y734590D01*
X502990Y734880D01*
X503450Y735140D01*
X503920Y735370D01*
X504410Y735560D01*
X504910Y735720D01*
X505420Y735850D01*
X505930Y735940D01*
X506460Y735990D01*
X506980Y736010D01*
X507500Y735990D01*
X508030Y735940D01*
X508540Y735850D01*
X509050Y735720D01*
X509550Y735560D01*
X510040Y735370D01*
X510510Y735140D01*
X510970Y734880D01*
X511400Y734590D01*
X511820Y734270D01*
X512210Y733930D01*
X512580Y733550D01*
X512920Y733150D01*
X513240Y732730D01*
X513520Y732290D01*
X513770Y731830D01*
X513990Y731360D01*
X514180Y730870D01*
X498760Y727780D02*
X515200Y707230D01*
X527790Y736010D02*
X529850D01*
X530330Y735990D01*
X530820Y735930D01*
X531290Y735840D01*
X531760Y735710D01*
X532210Y735540D01*
X532650Y735340D01*
X533070Y735100D01*
X533480Y734830D01*
X533860Y734530D01*
X534210Y734200D01*
X534540Y733850D01*
X534840Y733470D01*
X535110Y733060D01*
X535350Y732640D01*
X535550Y732200D01*
X535720Y731750D01*
X535850Y731280D01*
X535940Y730810D01*
X536000Y730320D01*
X536020Y729840D01*
Y699010D01*
X569020Y736010D02*
Y699010D01*
X558750D01*
X558270Y699020D01*
X557780Y699080D01*
X557310Y699170D01*
X556840Y699300D01*
X556390Y699470D01*
X555950Y699670D01*
X555530Y699910D01*
X555120Y700180D01*
X554740Y700480D01*
X554390Y700810D01*
X554060Y701160D01*
X553760Y701540D01*
X553490Y701950D01*
X553250Y702370D01*
X553050Y702810D01*
X552880Y703260D01*
X552750Y703730D01*
X552660Y704200D01*
X552600Y704690D01*
X552580Y705170D01*
Y717510D01*
X552600Y717990D01*
X552660Y718480D01*
X552750Y718950D01*
X552880Y719420D01*
X553050Y719870D01*
X553250Y720310D01*
X553490Y720730D01*
X553760Y721140D01*
X554060Y721520D01*
X554390Y721870D01*
X554740Y722200D01*
X555120Y722500D01*
X555530Y722770D01*
X555950Y723010D01*
X556390Y723210D01*
X556840Y723380D01*
X557310Y723510D01*
X557780Y723600D01*
X558270Y723660D01*
X558750Y723670D01*
X569020D01*
X540130D02*
X527790D01*
X585500Y707230D02*
X606060D01*
X597840Y736010D01*
X591670Y715450D02*
Y699010D01*
X617870Y719560D02*
Y723670D01*
X630200D01*
Y699010D01*
X644920D02*
X653140D01*
X653700Y699030D01*
X654260Y699090D01*
X654810Y699180D01*
X655360Y699310D01*
X655890Y699480D01*
X656410Y699690D01*
X656920Y699930D01*
X657410Y700210D01*
X657880Y700510D01*
X658330Y700850D01*
X658750Y701220D01*
X659150Y701620D01*
X659520Y702040D01*
X659860Y702490D01*
X660160Y702960D01*
X660440Y703450D01*
X660680Y703960D01*
X660890Y704480D01*
X661060Y705010D01*
X661190Y705560D01*
X661280Y706110D01*
X661340Y706670D01*
X661360Y707230D01*
Y727780D01*
X661340Y728340D01*
X661280Y728900D01*
X661190Y729450D01*
X661060Y730000D01*
X660890Y730530D01*
X660680Y731050D01*
X660440Y731560D01*
X660160Y732050D01*
X659860Y732520D01*
X659520Y732970D01*
X659150Y733390D01*
X658750Y733790D01*
X658330Y734160D01*
X657880Y734500D01*
X657410Y734800D01*
X656920Y735080D01*
X656410Y735320D01*
X655890Y735530D01*
X655360Y735700D01*
X654810Y735830D01*
X654260Y735920D01*
X653700Y735980D01*
X653140Y736010D01*
X644920D01*
X238860Y856010D02*
X226530Y819010D01*
X214190Y856010D01*
X154460Y819010D02*
X162680D01*
X163240Y819030D01*
X163800Y819090D01*
X164350Y819180D01*
X164900Y819310D01*
X165430Y819480D01*
X165950Y819690D01*
X166460Y819930D01*
X166950Y820210D01*
X167420Y820510D01*
X167870Y820850D01*
X168290Y821220D01*
X168690Y821620D01*
X169060Y822040D01*
X169400Y822490D01*
X169700Y822960D01*
X169980Y823450D01*
X170220Y823960D01*
X170430Y824480D01*
X170600Y825010D01*
X170730Y825560D01*
X170820Y826110D01*
X170880Y826670D01*
X170910Y827230D01*
Y847780D01*
X170880Y848340D01*
X170820Y848900D01*
X170730Y849450D01*
X170600Y850000D01*
X170430Y850530D01*
X170220Y851050D01*
X169980Y851560D01*
X169700Y852050D01*
X169400Y852520D01*
X169060Y852970D01*
X168690Y853390D01*
X168290Y853790D01*
X167870Y854160D01*
X167420Y854500D01*
X166950Y854800D01*
X166460Y855080D01*
X165950Y855320D01*
X165430Y855530D01*
X164900Y855700D01*
X164350Y855830D01*
X163800Y855920D01*
X163240Y855980D01*
X162680Y856010D01*
X154460D01*
X184460D02*
X192680D01*
X193240Y855980D01*
X193800Y855920D01*
X194350Y855830D01*
X194900Y855700D01*
X195430Y855530D01*
X195950Y855320D01*
X196460Y855080D01*
X196950Y854800D01*
X197420Y854500D01*
X197870Y854160D01*
X198290Y853790D01*
X198690Y853390D01*
X199060Y852970D01*
X199400Y852520D01*
X199700Y852050D01*
X199980Y851560D01*
X200220Y851050D01*
X200430Y850530D01*
X200600Y850000D01*
X200730Y849450D01*
X200820Y848900D01*
X200880Y848340D01*
X200910Y847780D01*
Y827230D01*
X200880Y826670D01*
X200820Y826110D01*
X200730Y825560D01*
X200600Y825010D01*
X200430Y824480D01*
X200220Y823960D01*
X199980Y823450D01*
X199700Y822960D01*
X199400Y822490D01*
X199060Y822040D01*
X198690Y821620D01*
X198290Y821220D01*
X197870Y820850D01*
X197420Y820510D01*
X196950Y820210D01*
X196460Y819930D01*
X195950Y819690D01*
X195430Y819480D01*
X194900Y819310D01*
X194350Y819180D01*
X193800Y819090D01*
X193240Y819030D01*
X192680Y819010D01*
X184460D01*
X1777330Y447120D02*
X1760880D01*
X1777330Y422450D01*
X1760880D01*
X1789620Y447120D02*
X1801950D01*
X1797840Y459450D02*
Y428620D01*
X1797830Y428140D01*
X1797770Y427650D01*
X1797680Y427180D01*
X1797550Y426710D01*
X1797380Y426260D01*
X1797180Y425820D01*
X1796940Y425400D01*
X1796670Y424990D01*
X1796370Y424610D01*
X1796040Y424260D01*
X1795690Y423930D01*
X1795310Y423630D01*
X1794900Y423360D01*
X1794480Y423120D01*
X1794040Y422920D01*
X1793590Y422750D01*
X1793120Y422620D01*
X1792650Y422530D01*
X1792160Y422470D01*
X1791680Y422450D01*
X1789620D01*
X1814030D02*
X1834580D01*
X1824300D02*
Y459450D01*
X1834580Y451230D01*
X1853630Y459450D02*
Y428620D01*
X1853620Y428140D01*
X1853560Y427650D01*
X1853470Y427180D01*
X1853340Y426710D01*
X1853170Y426260D01*
X1852970Y425820D01*
X1852730Y425400D01*
X1852460Y424990D01*
X1852160Y424610D01*
X1851830Y424260D01*
X1851480Y423930D01*
X1851100Y423630D01*
X1850690Y423360D01*
X1850270Y423120D01*
X1849830Y422920D01*
X1849380Y422750D01*
X1848910Y422620D01*
X1848440Y422530D01*
X1847950Y422470D01*
X1847470Y422450D01*
X1877790Y443010D02*
X1877160Y442990D01*
X1876530Y442930D01*
X1875900Y442830D01*
X1875280Y442700D01*
X1874670Y442530D01*
X1874080Y442320D01*
X1873490Y442070D01*
X1872930Y441790D01*
X1872380Y441470D01*
X1871850Y441120D01*
X1871350Y440740D01*
X1870860Y440330D01*
X1870410Y439890D01*
X1869980Y439420D01*
X1869590Y438930D01*
X1869220Y438410D01*
X1868890Y437870D01*
X1868590Y437310D01*
X1868320Y436740D01*
X1868090Y436150D01*
X1867900Y435540D01*
X1867750Y434930D01*
X1867630Y434310D01*
X1867550Y433680D01*
X1867510Y433050D01*
Y432410D01*
X1867550Y431780D01*
X1867630Y431150D01*
X1867750Y430530D01*
X1867900Y429920D01*
X1868090Y429310D01*
X1868320Y428720D01*
X1868590Y428150D01*
X1868890Y427590D01*
X1869220Y427050D01*
X1869590Y426530D01*
X1869980Y426040D01*
X1870410Y425570D01*
X1870860Y425130D01*
X1871350Y424720D01*
X1871850Y424340D01*
X1872380Y423990D01*
X1872930Y423670D01*
X1873490Y423390D01*
X1874080Y423140D01*
X1874670Y422930D01*
X1875280Y422760D01*
X1875900Y422630D01*
X1876530Y422530D01*
X1877160Y422470D01*
X1877790Y422450D01*
X1888070D01*
Y459450D01*
X1877790D01*
X1877230Y459430D01*
X1876670Y459370D01*
X1876120Y459280D01*
X1875570Y459150D01*
X1875040Y458980D01*
X1874520Y458770D01*
X1874010Y458530D01*
X1873520Y458250D01*
X1873050Y457950D01*
X1872600Y457610D01*
X1872180Y457240D01*
X1871780Y456840D01*
X1871410Y456420D01*
X1871070Y455970D01*
X1870770Y455500D01*
X1870490Y455010D01*
X1870250Y454500D01*
X1870040Y453980D01*
X1869870Y453450D01*
X1869740Y452900D01*
X1869650Y452350D01*
X1869590Y451790D01*
X1869570Y451230D01*
X1869590Y450670D01*
X1869650Y450110D01*
X1869740Y449560D01*
X1869870Y449010D01*
X1870040Y448480D01*
X1870250Y447960D01*
X1870490Y447450D01*
X1870770Y446960D01*
X1871070Y446490D01*
X1871410Y446040D01*
X1871780Y445620D01*
X1872180Y445220D01*
X1872600Y444850D01*
X1873050Y444510D01*
X1873520Y444210D01*
X1874010Y443930D01*
X1874520Y443690D01*
X1875040Y443480D01*
X1875570Y443310D01*
X1876120Y443180D01*
X1876670Y443090D01*
X1877230Y443030D01*
X1877790Y443010D01*
X1888070D01*
D11*
X344570Y265010D02*
Y283010D01*
X337070D01*
X336650Y282990D01*
X336240Y282930D01*
X335840Y282840D01*
X335440Y282710D01*
X335060Y282540D01*
X334700Y282340D01*
X334360Y282100D01*
X334040Y281840D01*
X333740Y281540D01*
X333480Y281220D01*
X333240Y280880D01*
X333040Y280520D01*
X332870Y280140D01*
X332740Y279740D01*
X332650Y279340D01*
X332590Y278930D01*
X332570Y278510D01*
Y265010D01*
X371450D02*
Y283010D01*
X363950D01*
X363530Y282990D01*
X363120Y282930D01*
X362720Y282840D01*
X362320Y282710D01*
X361940Y282540D01*
X361580Y282340D01*
X361240Y282100D01*
X360920Y281840D01*
X360620Y281540D01*
X360360Y281220D01*
X360120Y280880D01*
X359920Y280520D01*
X359750Y280140D01*
X359620Y279740D01*
X359530Y279340D01*
X359470Y278930D01*
X359450Y278510D01*
Y265010D01*
X397050Y283010D02*
X391050D01*
X390630Y282990D01*
X390220Y282930D01*
X389820Y282840D01*
X389420Y282710D01*
X389040Y282540D01*
X388680Y282340D01*
X388340Y282100D01*
X388020Y281840D01*
X387720Y281540D01*
X387460Y281220D01*
X387220Y280880D01*
X387020Y280520D01*
X386850Y280140D01*
X386720Y279740D01*
X386630Y279340D01*
X386570Y278930D01*
X386550Y278510D01*
Y265010D01*
X393300D01*
X393750Y265030D01*
X394190Y265090D01*
X394620Y265180D01*
X395050Y265310D01*
X395460Y265480D01*
X395860Y265680D01*
X396240Y265910D01*
X396600Y266180D01*
X396930Y266470D01*
X397240Y266790D01*
X397520Y267140D01*
X397770Y267510D01*
X397990Y267900D01*
X398170Y268300D01*
X398320Y268720D01*
X398430Y269150D01*
X398510Y269590D01*
X398550Y270040D01*
Y270480D01*
X398510Y270930D01*
X398430Y271370D01*
X398320Y271800D01*
X398170Y272220D01*
X397990Y272620D01*
X397770Y273010D01*
X397520Y273380D01*
X397240Y273730D01*
X396930Y274050D01*
X396600Y274340D01*
X396240Y274610D01*
X395860Y274840D01*
X395460Y275040D01*
X395050Y275210D01*
X394620Y275340D01*
X394190Y275430D01*
X393750Y275490D01*
X393300Y275510D01*
X386550D01*
X431090Y265010D02*
Y283010D01*
X417590D01*
X417170Y282990D01*
X416760Y282930D01*
X416360Y282840D01*
X415960Y282710D01*
X415580Y282540D01*
X415220Y282340D01*
X414880Y282100D01*
X414560Y281840D01*
X414260Y281540D01*
X414000Y281220D01*
X413760Y280880D01*
X413560Y280520D01*
X413390Y280140D01*
X413260Y279740D01*
X413170Y279340D01*
X413110Y278930D01*
X413090Y278510D01*
Y265010D01*
X422090D02*
Y283010D01*
X443650Y265010D02*
X444070Y265030D01*
X444480Y265090D01*
X444880Y265180D01*
X445280Y265310D01*
X445660Y265480D01*
X446020Y265680D01*
X446360Y265920D01*
X446680Y266180D01*
X446980Y266480D01*
X447240Y266800D01*
X447480Y267140D01*
X447680Y267500D01*
X447850Y267880D01*
X447980Y268280D01*
X448070Y268680D01*
X448130Y269090D01*
X448150Y269510D01*
Y292010D01*
X463510D02*
Y269510D01*
X463490Y269090D01*
X463430Y268680D01*
X463340Y268280D01*
X463210Y267880D01*
X463040Y267500D01*
X462840Y267140D01*
X462600Y266800D01*
X462340Y266480D01*
X462040Y266180D01*
X461720Y265920D01*
X461380Y265680D01*
X461020Y265480D01*
X460640Y265310D01*
X460240Y265180D01*
X459840Y265090D01*
X459430Y265030D01*
X459010Y265010D01*
X475850D02*
Y283010D01*
X475100Y290510D02*
X476600D01*
Y292010D01*
X475100D01*
Y290510D01*
X489470Y284510D02*
Y272510D01*
X489490Y271970D01*
X489550Y271440D01*
X489640Y270920D01*
X489770Y270400D01*
X489940Y269890D01*
X490150Y269390D01*
X490390Y268920D01*
X490660Y268460D01*
X490970Y268020D01*
X491300Y267600D01*
X491670Y267210D01*
X492060Y266840D01*
X492480Y266510D01*
X492920Y266200D01*
X493380Y265930D01*
X493850Y265690D01*
X494350Y265480D01*
X494860Y265310D01*
X495380Y265180D01*
X495900Y265090D01*
X496430Y265030D01*
X496970Y265010D01*
X504470D01*
Y292010D01*
X496970D01*
X496430Y291990D01*
X495900Y291930D01*
X495380Y291840D01*
X494860Y291710D01*
X494350Y291540D01*
X493850Y291330D01*
X493380Y291090D01*
X492920Y290820D01*
X492480Y290510D01*
X492060Y290180D01*
X491670Y289810D01*
X491300Y289420D01*
X490970Y289000D01*
X490660Y288560D01*
X490390Y288100D01*
X490150Y287630D01*
X489940Y287130D01*
X489770Y286620D01*
X489640Y286100D01*
X489550Y285580D01*
X489490Y285050D01*
X489470Y284510D01*
X540160Y265010D02*
Y283010D01*
X531160D01*
Y280010D01*
X554330Y265010D02*
X561830D01*
X562250Y265030D01*
X562660Y265090D01*
X563060Y265180D01*
X563460Y265310D01*
X563840Y265480D01*
X564200Y265680D01*
X564540Y265920D01*
X564860Y266180D01*
X565160Y266480D01*
X565420Y266800D01*
X565660Y267140D01*
X565860Y267500D01*
X566030Y267880D01*
X566160Y268280D01*
X566250Y268680D01*
X566310Y269090D01*
X566330Y269510D01*
Y277010D01*
Y274010D02*
X554330D01*
Y277010D01*
X554350Y277490D01*
X554410Y277970D01*
X554500Y278450D01*
X554640Y278910D01*
X554810Y279360D01*
X555020Y279800D01*
X555260Y280220D01*
X555530Y280610D01*
X555840Y280990D01*
X556170Y281340D01*
X556540Y281660D01*
X556920Y281950D01*
X557330Y282210D01*
X557760Y282430D01*
X558200Y282620D01*
X558660Y282770D01*
X559130Y282890D01*
X559610Y282970D01*
X560090Y283010D01*
X560570D01*
X561050Y282970D01*
X561530Y282890D01*
X562000Y282770D01*
X562460Y282620D01*
X562900Y282430D01*
X563330Y282210D01*
X563740Y281950D01*
X564120Y281660D01*
X564490Y281340D01*
X564820Y280990D01*
X565130Y280610D01*
X565400Y280220D01*
X565640Y279800D01*
X565850Y279360D01*
X566020Y278910D01*
X566160Y278450D01*
X566250Y277970D01*
X566310Y277490D01*
X566330Y277010D01*
X577830Y283010D02*
X589830Y274010D01*
X584580Y277760D02*
X577830Y265010D01*
X589830D02*
Y292010D01*
X610240Y265010D02*
Y283010D01*
X601240D01*
Y280010D01*
X625590Y275510D02*
X632340D01*
X632790Y275490D01*
X633230Y275430D01*
X633660Y275340D01*
X634090Y275210D01*
X634500Y275040D01*
X634900Y274840D01*
X635280Y274610D01*
X635640Y274340D01*
X635970Y274050D01*
X636280Y273730D01*
X636560Y273380D01*
X636810Y273010D01*
X637030Y272620D01*
X637210Y272220D01*
X637360Y271800D01*
X637470Y271370D01*
X637550Y270930D01*
X637590Y270480D01*
Y270040D01*
X637550Y269590D01*
X637470Y269150D01*
X637360Y268720D01*
X637210Y268300D01*
X637030Y267900D01*
X636810Y267510D01*
X636560Y267140D01*
X636280Y266790D01*
X635970Y266470D01*
X635640Y266180D01*
X635280Y265910D01*
X634900Y265680D01*
X634500Y265480D01*
X634090Y265310D01*
X633660Y265180D01*
X633230Y265090D01*
X632790Y265030D01*
X632340Y265010D01*
X625590D01*
Y278510D01*
X625610Y278930D01*
X625670Y279340D01*
X625760Y279740D01*
X625890Y280140D01*
X626060Y280520D01*
X626260Y280880D01*
X626500Y281220D01*
X626760Y281540D01*
X627060Y281840D01*
X627380Y282100D01*
X627720Y282340D01*
X628080Y282540D01*
X628460Y282710D01*
X628860Y282840D01*
X629260Y282930D01*
X629670Y282990D01*
X630090Y283010D01*
X636090D01*
X664160Y265010D02*
Y292010D01*
X656660D01*
X656120Y291990D01*
X655590Y291930D01*
X655070Y291840D01*
X654550Y291710D01*
X654040Y291540D01*
X653540Y291330D01*
X653070Y291090D01*
X652610Y290820D01*
X652170Y290510D01*
X651750Y290180D01*
X651360Y289810D01*
X650990Y289420D01*
X650660Y289000D01*
X650350Y288560D01*
X650080Y288100D01*
X649840Y287630D01*
X649630Y287130D01*
X649460Y286620D01*
X649330Y286100D01*
X649240Y285580D01*
X649180Y285050D01*
X649160Y284510D01*
X649180Y283970D01*
X649240Y283440D01*
X649330Y282920D01*
X649460Y282400D01*
X649630Y281890D01*
X649840Y281390D01*
X650080Y280920D01*
X650350Y280460D01*
X650660Y280020D01*
X650990Y279600D01*
X651360Y279210D01*
X651750Y278840D01*
X652170Y278510D01*
X652610Y278200D01*
X653070Y277930D01*
X653540Y277690D01*
X654040Y277480D01*
X654550Y277310D01*
X655070Y277180D01*
X655590Y277090D01*
X656120Y277030D01*
X656660Y277010D01*
X664160D01*
Y315010D02*
Y342010D01*
X656660D01*
X656120Y341990D01*
X655590Y341930D01*
X655070Y341840D01*
X654550Y341710D01*
X654040Y341540D01*
X653540Y341330D01*
X653070Y341090D01*
X652610Y340820D01*
X652170Y340510D01*
X651750Y340180D01*
X651360Y339810D01*
X650990Y339420D01*
X650660Y339000D01*
X650350Y338560D01*
X650080Y338100D01*
X649840Y337630D01*
X649630Y337130D01*
X649460Y336620D01*
X649330Y336100D01*
X649240Y335580D01*
X649180Y335050D01*
X649160Y334510D01*
X649180Y333970D01*
X649240Y333440D01*
X649330Y332920D01*
X649460Y332400D01*
X649630Y331890D01*
X649840Y331390D01*
X650080Y330920D01*
X650350Y330460D01*
X650660Y330020D01*
X650990Y329600D01*
X651360Y329210D01*
X651750Y328840D01*
X652170Y328510D01*
X652610Y328200D01*
X653070Y327930D01*
X653540Y327690D01*
X654040Y327480D01*
X654550Y327310D01*
X655070Y327180D01*
X655590Y327090D01*
X656120Y327030D01*
X656660Y327010D01*
X664160D01*
X655160D02*
X649160Y315010D01*
X612170Y342010D02*
X603170Y315010D01*
X594170Y342010D01*
X582800Y330760D02*
X581300D01*
Y329260D01*
X582800D01*
Y330760D01*
Y318760D02*
X581300D01*
Y317260D01*
X582800D01*
Y318760D01*
X553070Y315010D02*
X538070D01*
X545570D02*
Y342010D01*
X553070Y336010D01*
X566600Y362010D02*
X578600D01*
X604430Y365010D02*
Y392010D01*
X596930D01*
X596390Y391990D01*
X595860Y391930D01*
X595340Y391840D01*
X594820Y391710D01*
X594310Y391540D01*
X593810Y391330D01*
X593340Y391090D01*
X592880Y390820D01*
X592440Y390510D01*
X592020Y390180D01*
X591630Y389810D01*
X591260Y389420D01*
X590930Y389000D01*
X590620Y388560D01*
X590350Y388100D01*
X590110Y387630D01*
X589900Y387130D01*
X589730Y386620D01*
X589600Y386100D01*
X589510Y385580D01*
X589450Y385050D01*
X589430Y384510D01*
X589450Y383970D01*
X589510Y383440D01*
X589600Y382920D01*
X589730Y382400D01*
X589900Y381890D01*
X590110Y381390D01*
X590350Y380920D01*
X590620Y380460D01*
X590930Y380020D01*
X591260Y379600D01*
X591630Y379210D01*
X592020Y378840D01*
X592440Y378510D01*
X592880Y378200D01*
X593340Y377930D01*
X593810Y377690D01*
X594310Y377480D01*
X594820Y377310D01*
X595340Y377180D01*
X595860Y377090D01*
X596390Y377030D01*
X596930Y377010D01*
X604430D01*
X617940Y365010D02*
X629940D01*
Y392010D01*
X617940D01*
X620940Y380010D02*
X629940D01*
X664160Y365010D02*
Y392010D01*
X655160Y377010D01*
X646160Y392010D01*
Y365010D01*
X634590Y330010D02*
X625590D01*
X622590Y315010D02*
X634590D01*
Y342010D01*
X622590D01*
X555140Y368760D02*
X554650Y368300D01*
X554150Y367860D01*
X553620Y367450D01*
X553070Y367080D01*
X552510Y366730D01*
X551920Y366410D01*
X551320Y366120D01*
X550700Y365860D01*
X550080Y365640D01*
X549440Y365450D01*
X548790Y365290D01*
X548130Y365170D01*
X547470Y365080D01*
X546810Y365030D01*
X546140Y365010D01*
X545670Y365030D01*
X545200Y365080D01*
X544740Y365180D01*
X544290Y365300D01*
X543840Y365470D01*
X543420Y365660D01*
X543010Y365890D01*
X542610Y366160D01*
X542240Y366450D01*
X541900Y366770D01*
X541580Y367110D01*
X541290Y367480D01*
X541020Y367880D01*
X540790Y368290D01*
X540600Y368710D01*
X540430Y369160D01*
X540310Y369610D01*
X540210Y370070D01*
X540160Y370540D01*
X540140Y371010D01*
X540160Y371500D01*
X540220Y371980D01*
X540310Y372460D01*
X540450Y372920D01*
X540620Y373380D01*
X540830Y373820D01*
X541070Y374240D01*
X541340Y374640D01*
X541650Y375020D01*
X541980Y375370D01*
X542340Y375700D01*
X542730Y375990D01*
X543140Y376260D01*
X551390Y380760D01*
X551800Y381030D01*
X552190Y381320D01*
X552550Y381650D01*
X552880Y382000D01*
X553190Y382380D01*
X553460Y382780D01*
X553700Y383200D01*
X553910Y383640D01*
X554080Y384100D01*
X554220Y384560D01*
X554310Y385040D01*
X554370Y385520D01*
X554390Y386010D01*
X554370Y386480D01*
X554320Y386950D01*
X554220Y387410D01*
X554100Y387860D01*
X553930Y388310D01*
X553740Y388730D01*
X553510Y389140D01*
X553240Y389540D01*
X552950Y389910D01*
X552630Y390250D01*
X552290Y390570D01*
X551920Y390860D01*
X551520Y391130D01*
X551110Y391360D01*
X550690Y391550D01*
X550240Y391720D01*
X549790Y391840D01*
X549330Y391940D01*
X548860Y391990D01*
X548390Y392010D01*
X547730Y391990D01*
X547080Y391930D01*
X546430Y391840D01*
X545780Y391700D01*
X545150Y391530D01*
X544520Y391320D01*
X543910Y391080D01*
X543320Y390800D01*
X542740Y390490D01*
X542180Y390140D01*
X541640Y389760D01*
X528800Y365010D02*
X519800Y392010D01*
X510800Y365010D01*
X513050Y371760D02*
X526550D01*
X498500Y372510D02*
Y384510D01*
X498480Y385050D01*
X498420Y385580D01*
X498330Y386100D01*
X498200Y386620D01*
X498030Y387130D01*
X497820Y387630D01*
X497580Y388100D01*
X497310Y388560D01*
X497000Y389000D01*
X496670Y389420D01*
X496300Y389810D01*
X495910Y390180D01*
X495490Y390510D01*
X495050Y390820D01*
X494590Y391090D01*
X494120Y391330D01*
X493620Y391540D01*
X493110Y391710D01*
X492590Y391840D01*
X492070Y391930D01*
X491540Y391990D01*
X491000Y392010D01*
X490460Y391990D01*
X489930Y391930D01*
X489410Y391840D01*
X488890Y391710D01*
X488380Y391540D01*
X487880Y391330D01*
X487410Y391090D01*
X486950Y390820D01*
X486510Y390510D01*
X486090Y390180D01*
X485700Y389810D01*
X485330Y389420D01*
X485000Y389000D01*
X484690Y388560D01*
X484420Y388100D01*
X484180Y387630D01*
X483970Y387130D01*
X483800Y386620D01*
X483670Y386100D01*
X483580Y385580D01*
X483520Y385050D01*
X483500Y384510D01*
Y372510D01*
X483520Y371970D01*
X483580Y371440D01*
X483670Y370920D01*
X483800Y370400D01*
X483970Y369890D01*
X484180Y369390D01*
X484420Y368920D01*
X484690Y368460D01*
X485000Y368020D01*
X485330Y367600D01*
X485700Y367210D01*
X486090Y366840D01*
X486510Y366510D01*
X486950Y366200D01*
X487410Y365930D01*
X487880Y365690D01*
X488380Y365480D01*
X488890Y365310D01*
X489410Y365180D01*
X489930Y365090D01*
X490460Y365030D01*
X491000Y365010D01*
X491540Y365030D01*
X492070Y365090D01*
X492590Y365180D01*
X493110Y365310D01*
X493620Y365480D01*
X494120Y365690D01*
X494590Y365930D01*
X495050Y366200D01*
X495490Y366510D01*
X495910Y366840D01*
X496300Y367210D01*
X496670Y367600D01*
X497000Y368020D01*
X497310Y368460D01*
X497580Y368920D01*
X497820Y369390D01*
X498030Y369890D01*
X498200Y370400D01*
X498330Y370920D01*
X498420Y371440D01*
X498480Y371970D01*
X498500Y372510D01*
X501540Y425510D02*
X508290D01*
X508740Y425490D01*
X509180Y425430D01*
X509610Y425340D01*
X510040Y425210D01*
X510450Y425040D01*
X510850Y424840D01*
X511230Y424610D01*
X511590Y424340D01*
X511920Y424050D01*
X512230Y423730D01*
X512510Y423380D01*
X512760Y423010D01*
X512980Y422620D01*
X513160Y422220D01*
X513310Y421800D01*
X513420Y421370D01*
X513500Y420930D01*
X513540Y420480D01*
Y420040D01*
X513500Y419590D01*
X513420Y419150D01*
X513310Y418720D01*
X513160Y418300D01*
X512980Y417900D01*
X512760Y417510D01*
X512510Y417140D01*
X512230Y416790D01*
X511920Y416470D01*
X511590Y416180D01*
X511230Y415910D01*
X510850Y415680D01*
X510450Y415480D01*
X510040Y415310D01*
X509610Y415180D01*
X509180Y415090D01*
X508740Y415030D01*
X508290Y415010D01*
X501540D01*
Y428510D01*
X501560Y428930D01*
X501620Y429340D01*
X501710Y429740D01*
X501840Y430140D01*
X502010Y430520D01*
X502210Y430880D01*
X502450Y431220D01*
X502710Y431540D01*
X503010Y431840D01*
X503330Y432100D01*
X503670Y432340D01*
X504030Y432540D01*
X504410Y432710D01*
X504810Y432840D01*
X505210Y432930D01*
X505620Y432990D01*
X506040Y433010D01*
X512040D01*
X524820Y430010D02*
X536820D01*
X524820Y442010D02*
X536820D01*
Y415010D01*
X551240Y421010D02*
Y427010D01*
X551260Y427490D01*
X551320Y427970D01*
X551410Y428450D01*
X551550Y428910D01*
X551720Y429360D01*
X551930Y429800D01*
X552170Y430220D01*
X552440Y430610D01*
X552750Y430990D01*
X553080Y431340D01*
X553450Y431660D01*
X553830Y431950D01*
X554240Y432210D01*
X554670Y432430D01*
X555110Y432620D01*
X555570Y432770D01*
X556040Y432890D01*
X556520Y432970D01*
X557000Y433010D01*
X557480D01*
X557960Y432970D01*
X558440Y432890D01*
X558910Y432770D01*
X559370Y432620D01*
X559810Y432430D01*
X560240Y432210D01*
X560650Y431950D01*
X561030Y431660D01*
X561400Y431340D01*
X561730Y430990D01*
X562040Y430610D01*
X562310Y430220D01*
X562550Y429800D01*
X562760Y429360D01*
X562930Y428910D01*
X563070Y428450D01*
X563160Y427970D01*
X563220Y427490D01*
X563240Y427010D01*
Y421010D01*
X563220Y420530D01*
X563160Y420050D01*
X563070Y419570D01*
X562930Y419110D01*
X562760Y418660D01*
X562550Y418220D01*
X562310Y417800D01*
X562040Y417410D01*
X561730Y417030D01*
X561400Y416680D01*
X561030Y416360D01*
X560650Y416070D01*
X560240Y415810D01*
X559810Y415590D01*
X559370Y415400D01*
X558910Y415250D01*
X558440Y415130D01*
X557960Y415050D01*
X557480Y415010D01*
X557000D01*
X556520Y415050D01*
X556040Y415130D01*
X555570Y415250D01*
X555110Y415400D01*
X554670Y415590D01*
X554240Y415810D01*
X553830Y416070D01*
X553450Y416360D01*
X553080Y416680D01*
X552750Y417030D01*
X552440Y417410D01*
X552170Y417800D01*
X551930Y418220D01*
X551720Y418660D01*
X551550Y419110D01*
X551410Y419570D01*
X551320Y420050D01*
X551260Y420530D01*
X551240Y421010D01*
X573190Y430010D02*
Y433010D01*
X582190D01*
Y415010D01*
X594930D02*
X600930D01*
X601350Y415030D01*
X601760Y415090D01*
X602160Y415180D01*
X602560Y415310D01*
X602940Y415480D01*
X603300Y415680D01*
X603640Y415920D01*
X603960Y416180D01*
X604260Y416480D01*
X604520Y416800D01*
X604760Y417140D01*
X604960Y417500D01*
X605130Y417880D01*
X605260Y418280D01*
X605350Y418680D01*
X605410Y419090D01*
X605430Y419510D01*
Y428510D01*
X605410Y428930D01*
X605350Y429340D01*
X605260Y429740D01*
X605130Y430140D01*
X604960Y430520D01*
X604760Y430880D01*
X604520Y431220D01*
X604260Y431540D01*
X603960Y431840D01*
X603640Y432100D01*
X603300Y432340D01*
X602940Y432540D01*
X602560Y432710D01*
X602160Y432840D01*
X601760Y432930D01*
X601350Y432990D01*
X600930Y433010D01*
X594930D01*
X630120D02*
X624120D01*
X623700Y432990D01*
X623290Y432930D01*
X622890Y432840D01*
X622490Y432710D01*
X622110Y432540D01*
X621750Y432340D01*
X621410Y432100D01*
X621090Y431840D01*
X620790Y431540D01*
X620530Y431220D01*
X620290Y430880D01*
X620090Y430520D01*
X619920Y430140D01*
X619790Y429740D01*
X619700Y429340D01*
X619640Y428930D01*
X619620Y428510D01*
Y415010D01*
X626370D01*
X626820Y415030D01*
X627260Y415090D01*
X627690Y415180D01*
X628120Y415310D01*
X628530Y415480D01*
X628930Y415680D01*
X629310Y415910D01*
X629670Y416180D01*
X630000Y416470D01*
X630310Y416790D01*
X630590Y417140D01*
X630840Y417510D01*
X631060Y417900D01*
X631240Y418300D01*
X631390Y418720D01*
X631500Y419150D01*
X631580Y419590D01*
X631620Y420040D01*
Y420480D01*
X631580Y420930D01*
X631500Y421370D01*
X631390Y421800D01*
X631240Y422220D01*
X631060Y422620D01*
X630840Y423010D01*
X630590Y423380D01*
X630310Y423730D01*
X630000Y424050D01*
X629670Y424340D01*
X629310Y424610D01*
X628930Y424840D01*
X628530Y425040D01*
X628120Y425210D01*
X627690Y425340D01*
X627260Y425430D01*
X626820Y425490D01*
X626370Y425510D01*
X619620D01*
X664160Y415010D02*
Y442010D01*
X655160Y427010D01*
X646160Y442010D01*
Y415010D01*
X625020Y495010D02*
X624400Y494240D01*
X623800Y493440D01*
X623240Y492620D01*
X622710Y491770D01*
X622210Y490910D01*
X621750Y490030D01*
X621320Y489130D01*
X620920Y488220D01*
X620570Y487290D01*
X620240Y486350D01*
X619960Y485390D01*
X619710Y484430D01*
X619500Y483460D01*
X619330Y482480D01*
X619190Y481490D01*
X619100Y480500D01*
X619040Y479510D01*
X619020Y478510D01*
X619040Y477510D01*
X619100Y476520D01*
X619190Y475530D01*
X619330Y474540D01*
X619500Y473560D01*
X619710Y472590D01*
X619960Y471630D01*
X620240Y470670D01*
X620570Y469730D01*
X620920Y468800D01*
X621320Y467890D01*
X621750Y466990D01*
X622210Y466110D01*
X622710Y465250D01*
X623240Y464400D01*
X623800Y463580D01*
X624400Y462780D01*
X625020Y462010D01*
X635600Y483010D02*
X641600D01*
X642020Y482990D01*
X642430Y482930D01*
X642830Y482840D01*
X643230Y482710D01*
X643610Y482540D01*
X643970Y482340D01*
X644310Y482100D01*
X644630Y481840D01*
X644930Y481540D01*
X645190Y481220D01*
X645430Y480880D01*
X645630Y480520D01*
X645800Y480140D01*
X645930Y479740D01*
X646020Y479340D01*
X646080Y478930D01*
X646100Y478510D01*
Y469510D01*
X646080Y469090D01*
X646020Y468680D01*
X645930Y468280D01*
X645800Y467880D01*
X645630Y467500D01*
X645430Y467140D01*
X645190Y466800D01*
X644930Y466480D01*
X644630Y466180D01*
X644310Y465920D01*
X643970Y465680D01*
X643610Y465480D01*
X643230Y465310D01*
X642830Y465180D01*
X642430Y465090D01*
X642020Y465030D01*
X641600Y465010D01*
X635600D01*
X658160Y462010D02*
X658780Y462780D01*
X659380Y463580D01*
X659940Y464400D01*
X660470Y465250D01*
X660970Y466110D01*
X661430Y466990D01*
X661860Y467890D01*
X662260Y468800D01*
X662610Y469730D01*
X662940Y470670D01*
X663220Y471630D01*
X663470Y472590D01*
X663680Y473560D01*
X663850Y474540D01*
X663990Y475530D01*
X664080Y476520D01*
X664140Y477510D01*
X664160Y478510D01*
X664140Y479510D01*
X664080Y480500D01*
X663990Y481490D01*
X663850Y482480D01*
X663680Y483460D01*
X663470Y484430D01*
X663220Y485390D01*
X662940Y486350D01*
X662610Y487290D01*
X662260Y488220D01*
X661860Y489130D01*
X661430Y490030D01*
X660970Y490910D01*
X660470Y491770D01*
X659940Y492620D01*
X659380Y493440D01*
X658780Y494240D01*
X658160Y495010D01*
X593310Y524200D02*
X550010D01*
Y610810D01*
X593310D01*
Y524200D01*
X548310D02*
X505010D01*
Y610810D01*
X548310D01*
Y524200D01*
X532450Y486010D02*
X524950Y492010D01*
Y465010D01*
X532450D02*
X517450D01*
X503650Y472510D02*
X503630Y471970D01*
X503570Y471440D01*
X503480Y470920D01*
X503350Y470400D01*
X503180Y469890D01*
X502970Y469390D01*
X502730Y468920D01*
X502460Y468460D01*
X502150Y468020D01*
X501820Y467600D01*
X501450Y467210D01*
X501060Y466840D01*
X500640Y466510D01*
X500200Y466200D01*
X499740Y465930D01*
X499270Y465690D01*
X498770Y465480D01*
X498260Y465310D01*
X497740Y465180D01*
X497220Y465090D01*
X496690Y465030D01*
X496150Y465010D01*
X495610Y465030D01*
X495080Y465090D01*
X494560Y465180D01*
X494040Y465310D01*
X493530Y465480D01*
X493030Y465690D01*
X492560Y465930D01*
X492100Y466200D01*
X491660Y466510D01*
X491240Y466840D01*
X490850Y467210D01*
X490480Y467600D01*
X490150Y468020D01*
X489840Y468460D01*
X489570Y468920D01*
X489330Y469390D01*
X489120Y469890D01*
X488950Y470400D01*
X488820Y470920D01*
X488730Y471440D01*
X488670Y471970D01*
X488650Y472510D01*
X488670Y473050D01*
X488730Y473580D01*
X488820Y474100D01*
X488950Y474620D01*
X489120Y475130D01*
X489330Y475630D01*
X489570Y476100D01*
X489840Y476560D01*
X490150Y477000D01*
X490480Y477420D01*
X490850Y477810D01*
X491240Y478180D01*
X491660Y478510D01*
X492100Y478820D01*
X492560Y479090D01*
X493030Y479330D01*
X493530Y479540D01*
X494040Y479710D01*
X494560Y479840D01*
X495080Y479930D01*
X495610Y479990D01*
X496150Y480010D01*
X496690Y479990D01*
X497220Y479930D01*
X497740Y479840D01*
X498260Y479710D01*
X498770Y479540D01*
X499270Y479330D01*
X499740Y479090D01*
X500200Y478820D01*
X500640Y478510D01*
X501060Y478180D01*
X501450Y477810D01*
X501820Y477420D01*
X502150Y477000D01*
X502460Y476560D01*
X502730Y476100D01*
X502970Y475630D01*
X503180Y475130D01*
X503350Y474620D01*
X503480Y474100D01*
X503570Y473580D01*
X503630Y473050D01*
X503650Y472510D01*
X502150Y486010D02*
X502130Y485530D01*
X502070Y485050D01*
X501980Y484570D01*
X501840Y484110D01*
X501670Y483660D01*
X501460Y483220D01*
X501220Y482800D01*
X500950Y482410D01*
X500640Y482030D01*
X500310Y481680D01*
X499940Y481360D01*
X499560Y481070D01*
X499150Y480810D01*
X498720Y480590D01*
X498280Y480400D01*
X497820Y480250D01*
X497350Y480130D01*
X496870Y480050D01*
X496390Y480010D01*
X495910D01*
X495430Y480050D01*
X494950Y480130D01*
X494480Y480250D01*
X494020Y480400D01*
X493580Y480590D01*
X493150Y480810D01*
X492740Y481070D01*
X492360Y481360D01*
X491990Y481680D01*
X491660Y482030D01*
X491350Y482410D01*
X491080Y482800D01*
X490840Y483220D01*
X490630Y483660D01*
X490460Y484110D01*
X490320Y484570D01*
X490230Y485050D01*
X490170Y485530D01*
X490150Y486010D01*
X490170Y486490D01*
X490230Y486970D01*
X490320Y487450D01*
X490460Y487910D01*
X490630Y488360D01*
X490840Y488800D01*
X491080Y489220D01*
X491350Y489610D01*
X491660Y489990D01*
X491990Y490340D01*
X492360Y490660D01*
X492740Y490950D01*
X493150Y491210D01*
X493580Y491430D01*
X494020Y491620D01*
X494480Y491770D01*
X494950Y491890D01*
X495430Y491970D01*
X495910Y492010D01*
X496390D01*
X496870Y491970D01*
X497350Y491890D01*
X497820Y491770D01*
X498280Y491620D01*
X498720Y491430D01*
X499150Y491210D01*
X499560Y490950D01*
X499940Y490660D01*
X500310Y490340D01*
X500640Y489990D01*
X500950Y489610D01*
X501220Y489220D01*
X501460Y488800D01*
X501670Y488360D01*
X501840Y487910D01*
X501980Y487450D01*
X502070Y486970D01*
X502130Y486490D01*
X502150Y486010D01*
X561250Y478510D02*
X561230Y477590D01*
X561170Y476680D01*
X561080Y475760D01*
X560950Y474860D01*
X560780Y473950D01*
X560570Y473060D01*
X560330Y472180D01*
X560050Y471300D01*
X559740Y470440D01*
X559380Y469590D01*
X559000Y468760D01*
X558830Y468330D01*
X558630Y467920D01*
X558400Y467530D01*
X558130Y467150D01*
X557830Y466800D01*
X557510Y466480D01*
X557160Y466180D01*
X556790Y465910D01*
X556390Y465680D01*
X555980Y465480D01*
X555550Y465310D01*
X555110Y465180D01*
X554660Y465090D01*
X554210Y465030D01*
X553750Y465010D01*
X553290Y465030D01*
X552840Y465090D01*
X552390Y465180D01*
X551950Y465310D01*
X551520Y465480D01*
X551110Y465680D01*
X550710Y465910D01*
X550340Y466180D01*
X549990Y466480D01*
X549670Y466800D01*
X549370Y467150D01*
X549100Y467530D01*
X548870Y467920D01*
X548670Y468330D01*
X548500Y468760D01*
X548120Y469590D01*
X547760Y470440D01*
X547450Y471300D01*
X547170Y472180D01*
X546930Y473060D01*
X546720Y473950D01*
X546550Y474860D01*
X546420Y475760D01*
X546330Y476680D01*
X546270Y477590D01*
X546250Y478510D01*
X546270Y479430D01*
X546330Y480340D01*
X546420Y481260D01*
X546550Y482160D01*
X546720Y483070D01*
X546930Y483960D01*
X547170Y484840D01*
X547450Y485720D01*
X547760Y486580D01*
X548120Y487430D01*
X548500Y488260D01*
X548670Y488690D01*
X548870Y489100D01*
X549100Y489490D01*
X549370Y489870D01*
X549670Y490220D01*
X549990Y490540D01*
X550340Y490840D01*
X550710Y491110D01*
X551110Y491340D01*
X551520Y491540D01*
X551950Y491710D01*
X552390Y491840D01*
X552840Y491930D01*
X553290Y491990D01*
X553750Y492010D01*
X554210Y491990D01*
X554660Y491930D01*
X555110Y491840D01*
X555550Y491710D01*
X555980Y491540D01*
X556390Y491340D01*
X556790Y491110D01*
X557160Y490840D01*
X557510Y490540D01*
X557830Y490220D01*
X558130Y489870D01*
X558400Y489490D01*
X558630Y489100D01*
X558830Y488690D01*
X559000Y488260D01*
X559380Y487430D01*
X559740Y486580D01*
X560050Y485720D01*
X560330Y484840D01*
X560570Y483960D01*
X560780Y483070D01*
X560950Y482160D01*
X561080Y481260D01*
X561170Y480340D01*
X561230Y479430D01*
X561250Y478510D01*
X559750Y471010D02*
X547750Y486010D01*
X590050Y486000D02*
X589850Y486540D01*
X589620Y487070D01*
X589360Y487580D01*
X589060Y488070D01*
X588730Y488540D01*
X588370Y488980D01*
X587980Y489410D01*
X587570Y489800D01*
X587130Y490170D01*
X586660Y490510D01*
X586180Y490810D01*
X585670Y491090D01*
X585150Y491330D01*
X584620Y491530D01*
X584070Y491700D01*
X583510Y491830D01*
X582940Y491920D01*
X582370Y491980D01*
X581800Y492000D01*
X581300Y491990D01*
X580790Y491930D01*
X580300Y491840D01*
X579810Y491710D01*
X579330Y491540D01*
X578870Y491340D01*
X578430Y491110D01*
X578000Y490840D01*
X577590Y490540D01*
X577210Y490210D01*
X576850Y489850D01*
X576520Y489470D01*
X576220Y489060D01*
X575950Y488640D01*
X575720Y488190D01*
X575520Y487730D01*
X575350Y487250D01*
X575220Y486760D01*
X575130Y486270D01*
X575070Y485760D01*
X575050Y485260D01*
X575070Y484730D01*
X575130Y484200D01*
X575230Y483670D01*
X575360Y483160D01*
X575540Y482650D01*
X575750Y482160D01*
X575990Y481690D01*
X576270Y481230D01*
X576580Y480800D01*
X576930Y480390D01*
X577300Y480010D01*
X590050Y465010D01*
X575050D01*
X486220Y442010D02*
Y415010D01*
X478720D01*
X478300Y415030D01*
X477890Y415090D01*
X477490Y415180D01*
X477090Y415310D01*
X476710Y415480D01*
X476350Y415680D01*
X476010Y415920D01*
X475690Y416180D01*
X475390Y416480D01*
X475130Y416800D01*
X474890Y417140D01*
X474690Y417500D01*
X474520Y417880D01*
X474390Y418280D01*
X474300Y418680D01*
X474240Y419090D01*
X474220Y419510D01*
Y428510D01*
X474240Y428930D01*
X474300Y429340D01*
X474390Y429740D01*
X474520Y430140D01*
X474690Y430520D01*
X474890Y430880D01*
X475130Y431220D01*
X475390Y431540D01*
X475690Y431840D01*
X476010Y432100D01*
X476350Y432340D01*
X476710Y432540D01*
X477090Y432710D01*
X477490Y432840D01*
X477890Y432930D01*
X478300Y432990D01*
X478720Y433010D01*
X486220D01*
X462950Y415010D02*
Y416510D01*
X461450D01*
Y415010D01*
X462950D01*
X427880Y427010D02*
Y421010D01*
X427860Y420530D01*
X427800Y420050D01*
X427710Y419570D01*
X427570Y419110D01*
X427400Y418660D01*
X427190Y418220D01*
X426950Y417800D01*
X426680Y417410D01*
X426370Y417030D01*
X426040Y416680D01*
X425670Y416360D01*
X425290Y416070D01*
X424880Y415810D01*
X424450Y415590D01*
X424010Y415400D01*
X423550Y415250D01*
X423080Y415130D01*
X422600Y415050D01*
X422120Y415010D01*
X421640D01*
X421160Y415050D01*
X420680Y415130D01*
X420210Y415250D01*
X419750Y415400D01*
X419310Y415590D01*
X418880Y415810D01*
X418470Y416070D01*
X418090Y416360D01*
X417720Y416680D01*
X417390Y417030D01*
X417080Y417410D01*
X416810Y417800D01*
X416570Y418220D01*
X416360Y418660D01*
X416190Y419110D01*
X416050Y419570D01*
X415960Y420050D01*
X415900Y420530D01*
X415880Y421010D01*
Y427010D01*
X415900Y427490D01*
X415960Y427970D01*
X416050Y428450D01*
X416190Y428910D01*
X416360Y429360D01*
X416570Y429800D01*
X416810Y430220D01*
X417080Y430610D01*
X417390Y430990D01*
X417720Y431340D01*
X418090Y431660D01*
X418470Y431950D01*
X418880Y432210D01*
X419310Y432430D01*
X419750Y432620D01*
X420210Y432770D01*
X420680Y432890D01*
X421160Y432970D01*
X421640Y433010D01*
X422120D01*
X422600Y432970D01*
X423080Y432890D01*
X423550Y432770D01*
X424010Y432620D01*
X424450Y432430D01*
X424880Y432210D01*
X425290Y431950D01*
X425670Y431660D01*
X426040Y431340D01*
X426370Y430990D01*
X426680Y430610D01*
X426950Y430220D01*
X427190Y429800D01*
X427400Y429360D01*
X427570Y428910D01*
X427710Y428450D01*
X427800Y427970D01*
X427860Y427490D01*
X427880Y427010D01*
X439410Y415010D02*
X445410D01*
X445830Y415030D01*
X446240Y415090D01*
X446640Y415180D01*
X447040Y415310D01*
X447420Y415480D01*
X447780Y415680D01*
X448120Y415920D01*
X448440Y416180D01*
X448740Y416480D01*
X449000Y416800D01*
X449240Y417140D01*
X449440Y417500D01*
X449610Y417880D01*
X449740Y418280D01*
X449830Y418680D01*
X449890Y419090D01*
X449910Y419510D01*
Y428510D01*
X449890Y428930D01*
X449830Y429340D01*
X449740Y429740D01*
X449610Y430140D01*
X449440Y430520D01*
X449240Y430880D01*
X449000Y431220D01*
X448740Y431540D01*
X448440Y431840D01*
X448120Y432100D01*
X447780Y432340D01*
X447420Y432540D01*
X447040Y432710D01*
X446640Y432840D01*
X446240Y432930D01*
X445830Y432990D01*
X445410Y433010D01*
X439410D01*
X458110Y465010D02*
Y492010D01*
X449110Y477010D01*
X440110Y492010D01*
Y465010D01*
X413570Y475510D02*
X420320D01*
X420770Y475490D01*
X421210Y475430D01*
X421640Y475340D01*
X422070Y475210D01*
X422480Y475040D01*
X422880Y474840D01*
X423260Y474610D01*
X423620Y474340D01*
X423950Y474050D01*
X424260Y473730D01*
X424540Y473380D01*
X424790Y473010D01*
X425010Y472620D01*
X425190Y472220D01*
X425340Y471800D01*
X425450Y471370D01*
X425530Y470930D01*
X425570Y470480D01*
Y470040D01*
X425530Y469590D01*
X425450Y469150D01*
X425340Y468720D01*
X425190Y468300D01*
X425010Y467900D01*
X424790Y467510D01*
X424540Y467140D01*
X424260Y466790D01*
X423950Y466470D01*
X423620Y466180D01*
X423260Y465910D01*
X422880Y465680D01*
X422480Y465480D01*
X422070Y465310D01*
X421640Y465180D01*
X421210Y465090D01*
X420770Y465030D01*
X420320Y465010D01*
X413570D01*
Y478510D01*
X413590Y478930D01*
X413650Y479340D01*
X413740Y479740D01*
X413870Y480140D01*
X414040Y480520D01*
X414240Y480880D01*
X414480Y481220D01*
X414740Y481540D01*
X415040Y481840D01*
X415360Y482100D01*
X415700Y482340D01*
X416060Y482540D01*
X416440Y482710D01*
X416840Y482840D01*
X417240Y482930D01*
X417650Y482990D01*
X418070Y483010D01*
X424070D01*
X376140Y465010D02*
Y483010D01*
X367140D01*
Y480010D01*
X388880Y465010D02*
X394880D01*
X395300Y465030D01*
X395710Y465090D01*
X396110Y465180D01*
X396510Y465310D01*
X396890Y465480D01*
X397250Y465680D01*
X397590Y465920D01*
X397910Y466180D01*
X398210Y466480D01*
X398470Y466800D01*
X398710Y467140D01*
X398910Y467500D01*
X399080Y467880D01*
X399210Y468280D01*
X399300Y468680D01*
X399360Y469090D01*
X399380Y469510D01*
Y478510D01*
X399360Y478930D01*
X399300Y479340D01*
X399210Y479740D01*
X399080Y480140D01*
X398910Y480520D01*
X398710Y480880D01*
X398470Y481220D01*
X398210Y481540D01*
X397910Y481840D01*
X397590Y482100D01*
X397250Y482340D01*
X396890Y482540D01*
X396510Y482710D01*
X396110Y482840D01*
X395710Y482930D01*
X395300Y482990D01*
X394880Y483010D01*
X388880D01*
X401120Y415010D02*
Y433010D01*
X387620D01*
X387200Y432990D01*
X386790Y432930D01*
X386390Y432840D01*
X385990Y432710D01*
X385610Y432540D01*
X385250Y432340D01*
X384910Y432100D01*
X384590Y431840D01*
X384290Y431540D01*
X384030Y431220D01*
X383790Y430880D01*
X383590Y430520D01*
X383420Y430140D01*
X383290Y429740D01*
X383200Y429340D01*
X383140Y428930D01*
X383120Y428510D01*
Y415010D01*
X392120Y433010D02*
Y415010D01*
X330770Y465010D02*
Y492010D01*
X318770D01*
Y480010D02*
X330770D01*
X345190Y477010D02*
Y471010D01*
X345210Y470530D01*
X345270Y470050D01*
X345360Y469570D01*
X345500Y469110D01*
X345670Y468660D01*
X345880Y468220D01*
X346120Y467800D01*
X346390Y467410D01*
X346700Y467030D01*
X347030Y466680D01*
X347400Y466360D01*
X347780Y466070D01*
X348190Y465810D01*
X348620Y465590D01*
X349060Y465400D01*
X349520Y465250D01*
X349990Y465130D01*
X350470Y465050D01*
X350950Y465010D01*
X351430D01*
X351910Y465050D01*
X352390Y465130D01*
X352860Y465250D01*
X353320Y465400D01*
X353760Y465590D01*
X354190Y465810D01*
X354600Y466070D01*
X354980Y466360D01*
X355350Y466680D01*
X355680Y467030D01*
X355990Y467410D01*
X356260Y467800D01*
X356500Y468220D01*
X356710Y468660D01*
X356880Y469110D01*
X357020Y469570D01*
X357110Y470050D01*
X357170Y470530D01*
X357190Y471010D01*
Y477010D01*
X357170Y477490D01*
X357110Y477970D01*
X357020Y478450D01*
X356880Y478910D01*
X356710Y479360D01*
X356500Y479800D01*
X356260Y480220D01*
X355990Y480610D01*
X355680Y480990D01*
X355350Y481340D01*
X354980Y481660D01*
X354600Y481950D01*
X354190Y482210D01*
X353760Y482430D01*
X353320Y482620D01*
X352860Y482770D01*
X352390Y482890D01*
X351910Y482970D01*
X351430Y483010D01*
X350950D01*
X350470Y482970D01*
X349990Y482890D01*
X349520Y482770D01*
X349060Y482620D01*
X348620Y482430D01*
X348190Y482210D01*
X347780Y481950D01*
X347400Y481660D01*
X347030Y481340D01*
X346700Y480990D01*
X346390Y480610D01*
X346120Y480220D01*
X345880Y479800D01*
X345670Y479360D01*
X345500Y478910D01*
X345360Y478450D01*
X345270Y477970D01*
X345210Y477490D01*
X345190Y477010D01*
X305990Y483010D02*
X299990D01*
X299570Y482990D01*
X299160Y482930D01*
X298760Y482840D01*
X298360Y482710D01*
X297980Y482540D01*
X297620Y482340D01*
X297280Y482100D01*
X296960Y481840D01*
X296660Y481540D01*
X296400Y481220D01*
X296160Y480880D01*
X295960Y480520D01*
X295790Y480140D01*
X295660Y479740D01*
X295570Y479340D01*
X295510Y478930D01*
X295490Y478510D01*
Y465010D01*
X302240D01*
X302690Y465030D01*
X303130Y465090D01*
X303560Y465180D01*
X303990Y465310D01*
X304400Y465480D01*
X304800Y465680D01*
X305180Y465910D01*
X305540Y466180D01*
X305870Y466470D01*
X306180Y466790D01*
X306460Y467140D01*
X306710Y467510D01*
X306930Y467900D01*
X307110Y468300D01*
X307260Y468720D01*
X307370Y469150D01*
X307450Y469590D01*
X307490Y470040D01*
Y470480D01*
X307450Y470930D01*
X307370Y471370D01*
X307260Y471800D01*
X307110Y472220D01*
X306930Y472620D01*
X306710Y473010D01*
X306460Y473380D01*
X306180Y473730D01*
X305870Y474050D01*
X305540Y474340D01*
X305180Y474610D01*
X304800Y474840D01*
X304400Y475040D01*
X303990Y475210D01*
X303560Y475340D01*
X303130Y475430D01*
X302690Y475490D01*
X302240Y475510D01*
X295490D01*
X280170Y483010D02*
X272670D01*
X272250Y482990D01*
X271840Y482930D01*
X271440Y482840D01*
X271040Y482710D01*
X270660Y482540D01*
X270300Y482340D01*
X269960Y482100D01*
X269640Y481840D01*
X269340Y481540D01*
X269080Y481220D01*
X268840Y480880D01*
X268640Y480520D01*
X268470Y480140D01*
X268340Y479740D01*
X268250Y479340D01*
X268190Y478930D01*
X268170Y478510D01*
Y469510D01*
X268190Y469090D01*
X268250Y468680D01*
X268340Y468280D01*
X268470Y467880D01*
X268640Y467500D01*
X268840Y467140D01*
X269080Y466800D01*
X269340Y466480D01*
X269640Y466180D01*
X269960Y465920D01*
X270300Y465680D01*
X270660Y465480D01*
X271040Y465310D01*
X271440Y465180D01*
X271840Y465090D01*
X272250Y465030D01*
X272670Y465010D01*
X280170D01*
Y492010D01*
X257060Y466510D02*
X255560D01*
Y465010D01*
X257810Y459010D01*
X257060Y465010D02*
Y466510D01*
Y465010D02*
X255560D01*
X223390Y492010D02*
X226390D01*
Y465010D01*
X223390D01*
X210310D02*
Y483010D01*
X202810D01*
X202390Y482990D01*
X201980Y482930D01*
X201580Y482840D01*
X201180Y482710D01*
X200800Y482540D01*
X200440Y482340D01*
X200100Y482100D01*
X199780Y481840D01*
X199480Y481540D01*
X199220Y481220D01*
X198980Y480880D01*
X198780Y480520D01*
X198610Y480140D01*
X198480Y479740D01*
X198390Y479340D01*
X198330Y478930D01*
X198310Y478510D01*
Y465010D01*
X173840Y483010D02*
X179840D01*
X180260Y482990D01*
X180670Y482930D01*
X181070Y482840D01*
X181470Y482710D01*
X181850Y482540D01*
X182210Y482340D01*
X182550Y482100D01*
X182870Y481840D01*
X183170Y481540D01*
X183430Y481220D01*
X183670Y480880D01*
X183870Y480520D01*
X184040Y480140D01*
X184170Y479740D01*
X184260Y479340D01*
X184320Y478930D01*
X184340Y478510D01*
Y469510D01*
X184320Y469090D01*
X184260Y468680D01*
X184170Y468280D01*
X184040Y467880D01*
X183870Y467500D01*
X183670Y467140D01*
X183430Y466800D01*
X183170Y466480D01*
X182870Y466180D01*
X182550Y465920D01*
X182210Y465680D01*
X181850Y465480D01*
X181470Y465310D01*
X181070Y465180D01*
X180670Y465090D01*
X180260Y465030D01*
X179840Y465010D01*
X173840D01*
X83440Y539120D02*
Y639120D01*
X283440D01*
Y539120D01*
X83440D01*
X270940D02*
X270960Y539820D01*
X271020Y540520D01*
X271120Y541210D01*
X271250Y541900D01*
X271430Y542580D01*
X271640Y543250D01*
X271890Y543900D01*
X272180Y544540D01*
X272500Y545170D01*
X272860Y545770D01*
X273250Y546350D01*
X273670Y546910D01*
X274120Y547450D01*
X274600Y547960D01*
X275110Y548440D01*
X275650Y548890D01*
X276210Y549310D01*
X276790Y549700D01*
X277390Y550060D01*
X278020Y550380D01*
X278660Y550670D01*
X279310Y550920D01*
X279980Y551130D01*
X280660Y551310D01*
X281350Y551440D01*
X282040Y551540D01*
X282740Y551600D01*
X283440Y551620D01*
X284140Y551600D01*
X284840Y551540D01*
X285530Y551440D01*
X286220Y551310D01*
X286900Y551130D01*
X287570Y550920D01*
X288220Y550670D01*
X288860Y550380D01*
X289490Y550060D01*
X290090Y549700D01*
X290670Y549310D01*
X291230Y548890D01*
X291770Y548440D01*
X292280Y547960D01*
X292760Y547450D01*
X293210Y546910D01*
X293630Y546350D01*
X294020Y545770D01*
X294380Y545170D01*
X294700Y544540D01*
X294990Y543900D01*
X295240Y543250D01*
X295450Y542580D01*
X295630Y541900D01*
X295760Y541210D01*
X295860Y540520D01*
X295920Y539820D01*
X295940Y539120D01*
X295920Y538420D01*
X295860Y537720D01*
X295760Y537030D01*
X295630Y536340D01*
X295450Y535660D01*
X295240Y534990D01*
X294990Y534340D01*
X294700Y533700D01*
X294380Y533070D01*
X294020Y532470D01*
X293630Y531890D01*
X293210Y531330D01*
X292760Y530790D01*
X292280Y530280D01*
X291770Y529800D01*
X291230Y529350D01*
X290670Y528930D01*
X290090Y528540D01*
X289490Y528180D01*
X288860Y527860D01*
X288220Y527570D01*
X287570Y527320D01*
X286900Y527110D01*
X286220Y526930D01*
X285530Y526800D01*
X284840Y526700D01*
X284140Y526640D01*
X283440Y526620D01*
X282740Y526640D01*
X282040Y526700D01*
X281350Y526800D01*
X280660Y526930D01*
X279980Y527110D01*
X279310Y527320D01*
X278660Y527570D01*
X278020Y527860D01*
X277390Y528180D01*
X276790Y528540D01*
X276210Y528930D01*
X275650Y529350D01*
X275110Y529800D01*
X274600Y530280D01*
X274120Y530790D01*
X273670Y531330D01*
X273250Y531890D01*
X272860Y532470D01*
X272500Y533070D01*
X272180Y533700D01*
X271890Y534340D01*
X271640Y534990D01*
X271430Y535660D01*
X271250Y536340D01*
X271120Y537030D01*
X271020Y537720D01*
X270960Y538420D01*
X270940Y539120D01*
X83440Y638110D02*
Y738110D01*
X283440D01*
Y638110D01*
X83440D01*
X270940D02*
X270960Y638810D01*
X271020Y639510D01*
X271120Y640200D01*
X271250Y640890D01*
X271430Y641570D01*
X271640Y642240D01*
X271890Y642890D01*
X272180Y643530D01*
X272500Y644160D01*
X272860Y644760D01*
X273250Y645340D01*
X273670Y645900D01*
X274120Y646440D01*
X274600Y646950D01*
X275110Y647430D01*
X275650Y647880D01*
X276210Y648300D01*
X276790Y648690D01*
X277390Y649050D01*
X278020Y649370D01*
X278660Y649660D01*
X279310Y649910D01*
X279980Y650120D01*
X280660Y650300D01*
X281350Y650430D01*
X282040Y650530D01*
X282740Y650590D01*
X283440Y650610D01*
X284140Y650590D01*
X284840Y650530D01*
X285530Y650430D01*
X286220Y650300D01*
X286900Y650120D01*
X287570Y649910D01*
X288220Y649660D01*
X288860Y649370D01*
X289490Y649050D01*
X290090Y648690D01*
X290670Y648300D01*
X291230Y647880D01*
X291770Y647430D01*
X292280Y646950D01*
X292760Y646440D01*
X293210Y645900D01*
X293630Y645340D01*
X294020Y644760D01*
X294380Y644160D01*
X294700Y643530D01*
X294990Y642890D01*
X295240Y642240D01*
X295450Y641570D01*
X295630Y640890D01*
X295760Y640200D01*
X295860Y639510D01*
X295920Y638810D01*
X295940Y638110D01*
X295920Y637410D01*
X295860Y636710D01*
X295760Y636020D01*
X295630Y635330D01*
X295450Y634650D01*
X295240Y633980D01*
X294990Y633330D01*
X294700Y632690D01*
X294380Y632060D01*
X294020Y631460D01*
X293630Y630880D01*
X293210Y630320D01*
X292760Y629780D01*
X292280Y629270D01*
X291770Y628790D01*
X291230Y628340D01*
X290670Y627920D01*
X290090Y627530D01*
X289490Y627170D01*
X288860Y626850D01*
X288220Y626560D01*
X287570Y626310D01*
X286900Y626100D01*
X286220Y625920D01*
X285530Y625790D01*
X284840Y625690D01*
X284140Y625630D01*
X283440Y625610D01*
X282740Y625630D01*
X282040Y625690D01*
X281350Y625790D01*
X280660Y625920D01*
X279980Y626100D01*
X279310Y626310D01*
X278660Y626560D01*
X278020Y626850D01*
X277390Y627170D01*
X276790Y627530D01*
X276210Y627920D01*
X275650Y628340D01*
X275110Y628790D01*
X274600Y629270D01*
X274120Y629780D01*
X273670Y630320D01*
X273250Y630880D01*
X272860Y631460D01*
X272500Y632060D01*
X272180Y632690D01*
X271890Y633330D01*
X271640Y633980D01*
X271430Y634650D01*
X271250Y635330D01*
X271120Y636020D01*
X271020Y636710D01*
X270960Y637410D01*
X270940Y638110D01*
X121660Y752510D02*
Y817510D01*
X136660Y832510D01*
X146660D01*
X146540Y805070D02*
X256780D01*
Y749950D01*
X146540D01*
Y805070D01*
X325010Y610810D02*
Y524200D01*
X368310D01*
Y610810D01*
X325010D01*
X370010D02*
Y524200D01*
X413310D01*
Y610810D01*
X370010D01*
X415010D02*
Y524200D01*
X458310D01*
Y610810D01*
X415010D01*
X460010D02*
Y524200D01*
X503310D01*
Y610810D01*
X460010D01*
X1580010Y649200D02*
Y735810D01*
X1623310D01*
Y649200D01*
X1580010D01*
X1615010Y575810D02*
Y489200D01*
X1658310D01*
Y575810D01*
X1615010D01*
X1660010D02*
Y489200D01*
X1703310D01*
Y575810D01*
X1660010D01*
X1700010D02*
Y489200D01*
X1743310D01*
Y575810D01*
X1700010D01*
X1745010D02*
Y489200D01*
X1788310D01*
Y575810D01*
X1745010D01*
X1790010D02*
Y489200D01*
X1833310D01*
Y575810D01*
X1790010D01*
X1850010Y564200D02*
Y650810D01*
X1893310D01*
Y564200D01*
X1850010D01*
X1894100Y512390D02*
Y622620D01*
X1949220D01*
Y512390D01*
X1894100D01*
X1904960Y732500D02*
Y689190D01*
X1818340D01*
Y732500D01*
X1904960D01*
X1809310Y732340D02*
X1809040Y734370D01*
X1808250Y736270D01*
X1807000Y737900D01*
X1805370Y739160D01*
X1803470Y739940D01*
X1801430Y740210D01*
X1799390Y739940D01*
X1797490Y739160D01*
X1795860Y737900D01*
X1794610Y736270D01*
X1793830Y734370D01*
X1793560Y732340D01*
X1793830Y730300D01*
X1794610Y728400D01*
X1795860Y726770D01*
X1797490Y725520D01*
X1799390Y724730D01*
X1801430Y724460D01*
X1803470Y724730D01*
X1805370Y725520D01*
X1807000Y726770D01*
X1808250Y728400D01*
X1809040Y730300D01*
X1809310Y732340D01*
X1808920Y730020D02*
X1793940D01*
X1794090Y735010D02*
X1808780D01*
X1803100Y739990D02*
X1799760D01*
X1798660Y725040D02*
X1804200D01*
X1753310Y769200D02*
Y855810D01*
X1710010D01*
Y769200D01*
X1753310D01*
X1708310D02*
Y855810D01*
X1665010D01*
Y769200D01*
X1708310D01*
X2000730Y774690D02*
X2140730D01*
X2142130Y774670D01*
X2143530Y774610D01*
X2144930Y774510D01*
X2146330Y774380D01*
X2147720Y774200D01*
X2149110Y773980D01*
X2150480Y773730D01*
X2151860Y773440D01*
X2153220Y773110D01*
X2154570Y772740D01*
X2155910Y772330D01*
X2157240Y771880D01*
X2158560Y771400D01*
X2159860Y770880D01*
X2161150Y770330D01*
X2162420Y769740D01*
X2163680Y769110D01*
X2164920Y768450D01*
X2166130Y767760D01*
X2167330Y767030D01*
X2168510Y766260D01*
X2169660Y765470D01*
X2170800Y764640D01*
X2171900Y763780D01*
X2172990Y762890D01*
X2174050Y761970D01*
X2175080Y761020D01*
X2176090Y760050D01*
X2176100Y759040D01*
Y758010D01*
Y756950D01*
Y755860D01*
Y754760D01*
Y753620D01*
Y752470D01*
Y751290D01*
Y750090D01*
Y748880D01*
Y747640D01*
Y746380D01*
Y745110D01*
Y743820D01*
Y742520D01*
Y741200D01*
Y739870D01*
Y738530D01*
Y737180D01*
Y735820D01*
Y734440D01*
Y733070D01*
Y731680D01*
Y730290D01*
Y728890D01*
Y727490D01*
Y726090D01*
Y724690D01*
Y434690D01*
Y433290D01*
Y431890D01*
Y430490D01*
Y429090D01*
Y427700D01*
Y426310D01*
Y424940D01*
Y423560D01*
Y422200D01*
Y420850D01*
Y419510D01*
Y418180D01*
Y416860D01*
Y415560D01*
Y414270D01*
Y413000D01*
Y411740D01*
Y410500D01*
Y409290D01*
Y408090D01*
Y406910D01*
Y405760D01*
Y404620D01*
Y403520D01*
Y402430D01*
Y401370D01*
Y400340D01*
X2176090Y399330D01*
X2175080Y398360D01*
X2174050Y397410D01*
X2172990Y396490D01*
X2171900Y395600D01*
X2170800Y394740D01*
X2169660Y393910D01*
X2168510Y393120D01*
X2167330Y392350D01*
X2166130Y391620D01*
X2164920Y390930D01*
X2163680Y390270D01*
X2162420Y389640D01*
X2161150Y389050D01*
X2159860Y388500D01*
X2158560Y387980D01*
X2157240Y387500D01*
X2155910Y387050D01*
X2154570Y386640D01*
X2153220Y386270D01*
X2151860Y385940D01*
X2150480Y385650D01*
X2149110Y385400D01*
X2147720Y385180D01*
X2146330Y385000D01*
X2144930Y384870D01*
X2143530Y384770D01*
X2142130Y384710D01*
X2140730Y384690D01*
X2000730D01*
X1999330Y384710D01*
X1997930Y384770D01*
X1996530Y384870D01*
X1995130Y385000D01*
X1993740Y385180D01*
X1992350Y385400D01*
X1990980Y385650D01*
X1989600Y385940D01*
X1988240Y386270D01*
X1986890Y386640D01*
X1985550Y387050D01*
X1984220Y387500D01*
X1982900Y387980D01*
X1981600Y388500D01*
X1980310Y389050D01*
X1979040Y389640D01*
X1977780Y390270D01*
X1976540Y390930D01*
X1975330Y391620D01*
X1974130Y392350D01*
X1972950Y393120D01*
X1971800Y393910D01*
X1970660Y394740D01*
X1969560Y395600D01*
X1968470Y396490D01*
X1967410Y397410D01*
X1966380Y398360D01*
X1965370Y399330D01*
X1964400Y400340D01*
X1963450Y401370D01*
X1962530Y402430D01*
X1961640Y403520D01*
X1960780Y404620D01*
X1959950Y405760D01*
X1959160Y406910D01*
X1958390Y408090D01*
X1957660Y409290D01*
X1956970Y410500D01*
X1956310Y411740D01*
X1955680Y413000D01*
X1955090Y414270D01*
X1954540Y415560D01*
X1954020Y416860D01*
X1953540Y418180D01*
X1953090Y419510D01*
X1952680Y420850D01*
X1952310Y422200D01*
X1951980Y423560D01*
X1951690Y424940D01*
X1951440Y426310D01*
X1951220Y427700D01*
X1951040Y429090D01*
X1950910Y430490D01*
X1950810Y431890D01*
X1950750Y433290D01*
X1950730Y434690D01*
Y724690D01*
X1950750Y726090D01*
X1950810Y727490D01*
X1950910Y728890D01*
X1951040Y730290D01*
X1951220Y731680D01*
X1951440Y733070D01*
X1951690Y734440D01*
X1951980Y735820D01*
X1952310Y737180D01*
X1952680Y738530D01*
X1953090Y739870D01*
X1953540Y741200D01*
X1954020Y742520D01*
X1954540Y743820D01*
X1955090Y745110D01*
X1955680Y746380D01*
X1956310Y747640D01*
X1956970Y748880D01*
X1957660Y750090D01*
X1958390Y751290D01*
X1959160Y752470D01*
X1959950Y753620D01*
X1960780Y754760D01*
X1961640Y755860D01*
X1962530Y756950D01*
X1963450Y758010D01*
X1964400Y759040D01*
X1965370Y760050D01*
X1966380Y761020D01*
X1967410Y761970D01*
X1968470Y762890D01*
X1969560Y763780D01*
X1970660Y764640D01*
X1971800Y765470D01*
X1972950Y766260D01*
X1974130Y767030D01*
X1975330Y767760D01*
X1976540Y768450D01*
X1977780Y769110D01*
X1979040Y769740D01*
X1980310Y770330D01*
X1981600Y770880D01*
X1982900Y771400D01*
X1984220Y771880D01*
X1985550Y772330D01*
X1986890Y772740D01*
X1988240Y773110D01*
X1989600Y773440D01*
X1990980Y773730D01*
X1992350Y773980D01*
X1993740Y774200D01*
X1995130Y774380D01*
X1996530Y774510D01*
X1997930Y774610D01*
X1999330Y774670D01*
X2000730Y774690D01*
D12*
X1658540Y438200D03*
X1668540Y386530D03*
X1678540Y371530D03*
X1698540Y381530D03*
X1702740Y363200D03*
X1713540Y346530D03*
X1773540Y330700D03*
X1767740Y310700D03*
X1770240Y304030D03*
X1801040Y303200D03*
X1808540Y305700D03*
X1807740Y296530D03*
X1803540Y281530D03*
X1722740Y289030D03*
X1716040Y304030D03*
X1657740Y331530D03*
X1621040D03*
X1612740Y324030D03*
X1580240Y353200D03*
X1578540Y356530D03*
X1623540Y366530D03*
X1631040Y371530D03*
X1635240Y379030D03*
X1648540Y296530D03*
X1749340Y410700D03*
D13*
X1701090Y387360D03*
X1696090D03*
X1704390Y367360D03*
X1691090Y347360D03*
X1662690Y332360D03*
X1656890Y337360D03*
X1645190Y312360D03*
X1631090Y297360D03*
X1670190Y299860D03*
X1679390D03*
X1709390Y314860D03*
X1711090Y317360D03*
X1711890Y319860D03*
X1712690Y322360D03*
X1710190Y284860D03*
X1783590Y294860D03*
X1610190Y382360D03*
X1588590Y339860D03*
X1587690Y337360D03*
X1586890Y334860D03*
D14*
Y335700D03*
X1587690Y336530D03*
Y338200D03*
X1588590Y341530D03*
X1606890Y344030D03*
X1613590Y346530D03*
X1612690Y333200D03*
X1619390Y324030D03*
X1645190Y313200D03*
X1661890Y330700D03*
X1655190Y340700D03*
X1682690Y329030D03*
X1694390Y319030D03*
X1710190Y315700D03*
X1711090Y316530D03*
X1711890Y319030D03*
Y320700D03*
X1712690Y321530D03*
X1713590Y323200D03*
Y324030D03*
X1721890Y341530D03*
X1693590D03*
Y340700D03*
X1691090Y348200D03*
X1687690Y354030D03*
X1727690Y390700D03*
X1691090Y406530D03*
X1683590Y425700D03*
X1668590Y436530D03*
X1658590Y406530D03*
X1666090Y403200D03*
X1711890Y429030D03*
X1621890Y450700D03*
X1626090Y366530D03*
X1672690Y306530D03*
X1671890Y303200D03*
X1671090Y301530D03*
Y300700D03*
X1670190Y299030D03*
X1678590D03*
X1686890Y300700D03*
X1711090Y285700D03*
X1731890Y296530D03*
X1766090Y304030D03*
X1768590Y296530D03*
X1797690Y303200D03*
X1808590Y300700D03*
X1791090Y335700D03*
D15*
X1784790Y314030D03*
X1714790Y285700D03*
X1689790Y341530D03*
X1694790Y348200D03*
X1662290Y331530D03*
X1647290Y348200D03*
X1612290Y344030D03*
X1587290Y334030D03*
Y333200D03*
D16*
X1583140Y348200D03*
X1609840Y330700D03*
X1603140Y323200D03*
X1638140Y334030D03*
Y335700D03*
Y336530D03*
X1645640Y319030D03*
X1640640Y313200D03*
X1653140Y305700D03*
X1674840Y311530D03*
X1688940Y304030D03*
X1713140Y286530D03*
X1725640Y291530D03*
X1729840Y294030D03*
X1720640Y305700D03*
X1733140Y310700D03*
Y321530D03*
X1743140Y319030D03*
Y318200D03*
X1760640Y308200D03*
X1762340Y311530D03*
X1763140Y313200D03*
X1763940Y314030D03*
X1776440Y296530D03*
X1793940Y313200D03*
X1794840Y320700D03*
Y321530D03*
X1757340Y390700D03*
X1760640Y403200D03*
X1732340Y419030D03*
X1730640Y416530D03*
X1729840Y414030D03*
X1728940Y413200D03*
X1728140Y411530D03*
X1727340Y410700D03*
X1703940Y414030D03*
X1703140Y411530D03*
X1701440Y408200D03*
X1696440Y415700D03*
Y416530D03*
Y418200D03*
X1683140Y406530D03*
X1648140Y399030D03*
X1647340Y398200D03*
X1649840Y393200D03*
X1648140Y391530D03*
Y390700D03*
X1646440Y389030D03*
X1645640Y388200D03*
X1643940Y386530D03*
Y385700D03*
X1638140Y388200D03*
X1636440Y385700D03*
X1640640Y391530D03*
X1626440Y400700D03*
X1620640Y396530D03*
X1619840Y395700D03*
X1618140Y394030D03*
X1613140Y389030D03*
X1610640Y385700D03*
X1631440Y366530D03*
X1622340Y356530D03*
X1621440Y355700D03*
X1657340Y336530D03*
X1683140Y328200D03*
X1686440Y336530D03*
X1698140Y363200D03*
X1627340Y449030D03*
X1613140Y463200D03*
D17*
X1633590Y442360D03*
X1658590Y439860D03*
X1691890Y422360D03*
X1701090Y407360D03*
X1723590Y392360D03*
X1731090Y397360D03*
X1744390Y394860D03*
X1756890Y407360D03*
X1750190Y412360D03*
X1691890Y377360D03*
X1692690Y349860D03*
X1694390Y324860D03*
X1734390Y312360D03*
X1735190Y314860D03*
X1776090Y294860D03*
X1785190Y309860D03*
X1781890Y312360D03*
X1776890Y322360D03*
X1793590Y324860D03*
X1794390Y314860D03*
X1715190Y287360D03*
X1642690Y307360D03*
Y309860D03*
X1644390Y319860D03*
X1627690Y334860D03*
X1628590Y339860D03*
X1609390Y342360D03*
D18*
X1636890Y367360D03*
X1614390Y384860D03*
X1701890Y377360D03*
X1706890Y407360D03*
X1711890Y429860D03*
X1676890Y297360D03*
X1791890Y287360D03*
D19*
X1798140D03*
X1769840Y297360D03*
X1761440Y309860D03*
X1764840Y314860D03*
X1743140Y317360D03*
X1733940D03*
X1727340Y292360D03*
X1675640Y312360D03*
X1688140Y332360D03*
X1698140Y339860D03*
X1638140Y334860D03*
X1618940Y324860D03*
X1623140Y314860D03*
X1640640Y312360D03*
X1618940Y359860D03*
X1610640Y384860D03*
X1618940Y394860D03*
X1621440Y397360D03*
X1628140Y402360D03*
X1641440Y392360D03*
X1644840Y387360D03*
X1647340Y389860D03*
X1648940Y392360D03*
X1646440Y397360D03*
X1648940Y399860D03*
X1673140Y432360D03*
X1696440Y417360D03*
X1709840Y424860D03*
X1728140Y412360D03*
X1727340Y409860D03*
X1725640Y407360D03*
X1729840Y414860D03*
X1731440Y417360D03*
X1628140Y449860D03*
D20*
X1648590Y444030D03*
X1655190Y441530D03*
X1679390Y429030D03*
X1651090Y401530D03*
X1641090Y380700D03*
X1625190Y374030D03*
X1596890Y346530D03*
X1582690Y350700D03*
Y351530D03*
X1611890Y341530D03*
X1614390Y340700D03*
X1618590Y339030D03*
Y325700D03*
X1625190Y321530D03*
X1631090Y325700D03*
Y326530D03*
X1636890Y330700D03*
X1642690Y311530D03*
Y310700D03*
Y309030D03*
Y308200D03*
X1641890Y306530D03*
Y305700D03*
X1656890Y303200D03*
X1654390Y295700D03*
X1688590Y321530D03*
Y334030D03*
X1693590Y336530D03*
X1701890D03*
X1716890Y329030D03*
Y328200D03*
Y326530D03*
Y325700D03*
X1734390Y313200D03*
X1711090Y304030D03*
X1716090Y288200D03*
X1683590Y341530D03*
X1691090Y396530D03*
X1724390Y393200D03*
X1743590Y395700D03*
X1756090Y384030D03*
X1759390Y381530D03*
X1771090Y370700D03*
X1772690Y369030D03*
X1776090Y364030D03*
X1793590Y325700D03*
X1794390Y316530D03*
Y315700D03*
X1782690Y311530D03*
X1806090Y303200D03*
X1758590Y405700D03*
X1757690Y406530D03*
X1756090Y408200D03*
X1751890Y411530D03*
X1748590Y413200D03*
X1744390Y416530D03*
X1606890Y329030D03*
D21*
X1613540Y321530D03*
X1636040Y329030D03*
X1635240Y355700D03*
X1631040Y403200D03*
X1685240Y340700D03*
X1711840Y309030D03*
X1710240Y306530D03*
X1698540Y301530D03*
X1646040Y300700D03*
X1640240Y304030D03*
X1752740Y389030D03*
X1785240Y291530D03*
X1796040Y288200D03*
D22*
X1776040Y295700D03*
X1732740Y326530D03*
X1717740Y331530D03*
Y333200D03*
X1702740Y345700D03*
X1700240Y319030D03*
Y318200D03*
X1711040Y314030D03*
X1707740Y301530D03*
X1717740Y289030D03*
X1676040Y313200D03*
X1637740Y333200D03*
X1636040Y321530D03*
Y320700D03*
X1623540Y314030D03*
X1628540Y341530D03*
X1617740Y359030D03*
X1626040Y371530D03*
X1625240Y373200D03*
X1592740Y348200D03*
X1650240Y400700D03*
X1681040Y388200D03*
X1683540Y408200D03*
Y409030D03*
X1692740Y411530D03*
X1695240Y419030D03*
X1676040Y430700D03*
X1670240Y434030D03*
X1662740Y438200D03*
X1636840Y449030D03*
X1636040Y441530D03*
X1725240Y406530D03*
X1745240Y393200D03*
X1760240Y404030D03*
X1753540Y410700D03*
X1765240Y376530D03*
Y375700D03*
X1775240Y366530D03*
Y365700D03*
D23*
X1690240Y413200D03*
Y414030D03*
X1641040Y341530D03*
Y340700D03*
X1616040Y308200D03*
X1627740Y300700D03*
X1652740Y299030D03*
X1682740Y318200D03*
X1701040Y300700D03*
X1793540Y289030D03*
D24*
X1806890Y302360D03*
X1794390Y319860D03*
Y322360D03*
X1769390Y372360D03*
X1764390Y377360D03*
X1709390Y342360D03*
X1699390Y347360D03*
X1694390Y382360D03*
X1684390Y409860D03*
X1681890Y427360D03*
X1669390Y434860D03*
X1661890Y427360D03*
X1642690Y379860D03*
X1629390Y342360D03*
X1686890Y307360D03*
X1721890Y289860D03*
D25*
X1794390D03*
X1730190Y367360D03*
D26*
X1759390Y396530D03*
X1726890Y409030D03*
X1731890Y418200D03*
X1709390Y424030D03*
X1706890Y419030D03*
X1701890Y409030D03*
X1664390Y436530D03*
X1626890Y448200D03*
Y401530D03*
X1616890Y393200D03*
X1614390Y390700D03*
X1621890Y380700D03*
X1636890Y386530D03*
X1619390Y360700D03*
X1626890Y333200D03*
Y309030D03*
X1659390Y306530D03*
Y305700D03*
X1664390D03*
Y306530D03*
X1674390Y310700D03*
X1681890Y303200D03*
X1684390Y299030D03*
X1686890Y308200D03*
X1704390Y325700D03*
X1696890Y331530D03*
X1724390Y290700D03*
X1761890Y310700D03*
X1769390Y298200D03*
X1781890Y354030D03*
D27*
X1747690Y315700D03*
X1781890Y293200D03*
X1790190Y290700D03*
X1681090Y343200D03*
X1641090Y318200D03*
X1619390Y303200D03*
X1632690Y369030D03*
X1646890Y371530D03*
X1649390Y369030D03*
X1622690Y445700D03*
X1614390Y461530D03*
D28*
X1705640Y416530D03*
X1678140Y370700D03*
X1698140Y348200D03*
X1708140Y334030D03*
X1705640Y328200D03*
X1718940Y324030D03*
X1720640Y308200D03*
X1683140Y304030D03*
X1680640Y301530D03*
X1673140Y308200D03*
X1663140Y299030D03*
X1658140Y298200D03*
X1663140Y333200D03*
X1658140Y341530D03*
X1653140Y339030D03*
X1603940Y320700D03*
X1588140Y339030D03*
X1590640Y349030D03*
X1800640Y290700D03*
X1808140Y301530D03*
D29*
X1762740Y312360D03*
X1733540Y307360D03*
X1708540Y302360D03*
X1700240Y317360D03*
X1717740Y332360D03*
X1703540Y344860D03*
X1661040Y329860D03*
X1637740Y332360D03*
X1613540D03*
X1608540Y329860D03*
X1623540Y357360D03*
X1625240Y372360D03*
X1643540Y394860D03*
X1682740Y389860D03*
X1683540Y407360D03*
X1696040Y414860D03*
X1663540Y437360D03*
X1636040Y449860D03*
X1626040Y447360D03*
X1776040Y364860D03*
X1660240Y292360D03*
D30*
X1658140Y332360D03*
X1613140Y344860D03*
X1588140Y342360D03*
X1693140Y387360D03*
X1780640Y327360D03*
X1778140Y292360D03*
D31*
X1784390D03*
X1781890Y324860D03*
X1699390Y302360D03*
X1676890Y334860D03*
X1641890Y327360D03*
X1636890Y329860D03*
X1611890Y322360D03*
X1604390Y324860D03*
D32*
X1619790Y316530D03*
X1608990Y343200D03*
X1599790Y345700D03*
X1583990Y349030D03*
X1641490Y379030D03*
X1668990Y366530D03*
X1694790Y398200D03*
X1693990Y420700D03*
X1678990Y419030D03*
X1673990Y421530D03*
X1658990Y429030D03*
X1657290Y430700D03*
X1651490Y433200D03*
X1642290Y446530D03*
X1638990Y448200D03*
X1741490Y419030D03*
X1742290Y418200D03*
X1737290Y401530D03*
X1742290Y396530D03*
X1757290Y383200D03*
X1714790Y369030D03*
Y368200D03*
X1694790Y324030D03*
X1712290Y313200D03*
X1734790Y314030D03*
X1784790Y310700D03*
X1787290Y308200D03*
X1659790Y293200D03*
X1653990Y296530D03*
X1656490Y300700D03*
D33*
X1663540D03*
Y301530D03*
X1673540Y309030D03*
X1683540Y298200D03*
X1703540Y323200D03*
Y324030D03*
X1706040Y329030D03*
X1708540Y335700D03*
Y336530D03*
X1703540Y339030D03*
X1708540Y343200D03*
X1696040Y333200D03*
X1686040Y335700D03*
X1698540Y361530D03*
X1703540Y413200D03*
X1708540Y423200D03*
X1726040Y408200D03*
X1758540Y395700D03*
Y394030D03*
X1761040Y400700D03*
Y401530D03*
X1781040Y356530D03*
Y355700D03*
X1761040Y309030D03*
X1743540Y316530D03*
X1733540Y318200D03*
Y309030D03*
Y308200D03*
X1721040Y306530D03*
X1728540Y293200D03*
X1628540Y306530D03*
X1603540Y321530D03*
X1626040Y331530D03*
X1611040Y386530D03*
X1623540Y399030D03*
X1638540Y389030D03*
D34*
X1614390Y358200D03*
Y331530D03*
X1609390Y316530D03*
X1641890D03*
Y315700D03*
X1659390Y294030D03*
X1704390Y333200D03*
X1631890Y450700D03*
X1616890Y448200D03*
D35*
X1634790Y356530D03*
X1614790Y351530D03*
Y350700D03*
Y349030D03*
X1654790Y304030D03*
X1699790Y334030D03*
X1747290Y314030D03*
Y313200D03*
X1779790Y294030D03*
D36*
X1671890Y329860D03*
X1654390Y307360D03*
X1659390Y294860D03*
X1631890Y384860D03*
D37*
X1698140Y362360D03*
X1708140Y334860D03*
X1703140Y322360D03*
X1685640Y299860D03*
X1673140Y307360D03*
X1730640Y294860D03*
X1603140Y322360D03*
D38*
X1626440Y335700D03*
X1615640Y348200D03*
X1632340Y368200D03*
X1648940Y336530D03*
X1645640Y324030D03*
X1642340Y314030D03*
X1628940Y299030D03*
X1665640Y296530D03*
Y295700D03*
X1696440Y306530D03*
X1695640Y309030D03*
X1699840Y304030D03*
X1711440Y308200D03*
X1693940Y323200D03*
X1711440Y341530D03*
X1746440Y311530D03*
X1751440Y318200D03*
X1713940Y373200D03*
Y374030D03*
X1714840Y375700D03*
Y376530D03*
X1691440Y381530D03*
X1685640Y415700D03*
X1690640Y423200D03*
X1668940Y424030D03*
X1657340Y405700D03*
X1631440Y451530D03*
X1753140Y388200D03*
D39*
X1715590Y406530D03*
X1706490Y418200D03*
X1662290Y403200D03*
X1622290Y398200D03*
X1618990Y384030D03*
X1622290Y379030D03*
X1587290Y343200D03*
X1628990Y305700D03*
X1629790Y304030D03*
Y303200D03*
X1658990Y301530D03*
X1663990Y303200D03*
Y304030D03*
X1664790Y308200D03*
X1672290Y305700D03*
Y304030D03*
X1669790Y298200D03*
X1678990D03*
X1679790Y300700D03*
X1688990Y303200D03*
X1693990Y318200D03*
X1686490Y323200D03*
Y324030D03*
X1704790Y326530D03*
X1711490Y318200D03*
X1697290Y339030D03*
X1731490Y295700D03*
X1769790Y330700D03*
D40*
X1768990Y299030D03*
Y295700D03*
X1678990Y366530D03*
X1640590Y369030D03*
X1641490Y319030D03*
X1588990Y340700D03*
X1586490Y344030D03*
X1731490Y401530D03*
D41*
X1743140Y307360D03*
X1653140Y297360D03*
D42*
X1666040D03*
X1650240Y332360D03*
X1635240Y354860D03*
X1646040Y372360D03*
X1613540Y357360D03*
X1617740Y327360D03*
X1711040Y307360D03*
X1713540Y367360D03*
X1737740Y399860D03*
X1735240Y422360D03*
D43*
X1688540Y417360D03*
X1683540Y424860D03*
X1690240Y387360D03*
X1643540Y402360D03*
X1638540Y379860D03*
X1628540Y377360D03*
X1606040Y359860D03*
X1580240Y352360D03*
X1678540Y297360D03*
X1712740Y334860D03*
X1745240Y302360D03*
X1760240Y317360D03*
X1803540Y307360D03*
X1760240Y377360D03*
X1620240Y462360D03*
D44*
X1622290Y379860D03*
X1661490Y382360D03*
X1696490Y332360D03*
X1697290Y322360D03*
X1688990Y302360D03*
X1681490Y297360D03*
X1671490Y302360D03*
X1672290Y304860D03*
X1663990Y302360D03*
X1658990D03*
X1654790D03*
X1719790Y317360D03*
X1781490Y354860D03*
X1759790Y397360D03*
D45*
X1727290Y334860D03*
X1732290Y297360D03*
X1632290Y452360D03*
D46*
X1644790Y445700D03*
X1684790Y411530D03*
Y391530D03*
X1692290Y376530D03*
Y375700D03*
X1722290Y391530D03*
X1729790Y396530D03*
X1744790Y394030D03*
X1749790Y390700D03*
X1754790Y385700D03*
X1762290Y379030D03*
X1767290Y373200D03*
X1769790Y371530D03*
X1777290Y363200D03*
X1754790Y409030D03*
X1704790Y344030D03*
X1702290Y338200D03*
X1699790Y329030D03*
Y316530D03*
X1717290Y330700D03*
X1734790Y316530D03*
Y315700D03*
X1794790Y318200D03*
Y319030D03*
X1637290Y331530D03*
X1604790Y328200D03*
X1629790Y298200D03*
D47*
X1650240D03*
X1700240Y303200D03*
Y340700D03*
X1645240Y374030D03*
X1677740Y383200D03*
X1680240Y418200D03*
X1670240Y423200D03*
X1737740Y400700D03*
X1782740Y325700D03*
X1605240Y324030D03*
D48*
X1656890Y335700D03*
X1691890Y344030D03*
X1716890Y334030D03*
X1734390Y311530D03*
X1709390Y303200D03*
X1664390Y298200D03*
X1624390Y365700D03*
X1642690Y394030D03*
X1644390Y395700D03*
X1684390Y410700D03*
X1674390Y431530D03*
X1671890Y433200D03*
X1749390Y391530D03*
X1766890Y374030D03*
X1794390Y324030D03*
Y323200D03*
D49*
X1696490Y298200D03*
X1636490Y353200D03*
X1736490Y420700D03*
Y421530D03*
D50*
X1696040Y299030D03*
X1618540Y304030D03*
D51*
X1628140Y299860D03*
D52*
X1651040D03*
X1636040Y324860D03*
D53*
X1658540Y304860D03*
X1663540Y299860D03*
X1673540Y309860D03*
X1681040Y302360D03*
X1686040Y324860D03*
X1703540Y339860D03*
X1721040Y307360D03*
X1733540Y309860D03*
X1688540Y382360D03*
X1703540Y412360D03*
X1706040Y417360D03*
X1708540Y422360D03*
X1761040Y402360D03*
X1758540Y394860D03*
X1621040Y362360D03*
Y354860D03*
X1613540Y389860D03*
X1616040Y392360D03*
X1583540Y347360D03*
X1628540Y452360D03*
D54*
X1712690Y369860D03*
X1705190Y357360D03*
X1701890Y329860D03*
X1698590Y299860D03*
X1747690Y314860D03*
X1752690Y389860D03*
X1615190Y352360D03*
D55*
X1613540Y356530D03*
X1646040Y373200D03*
X1648540Y335700D03*
X1641040Y325700D03*
X1621040Y301530D03*
X1701040Y341530D03*
Y346530D03*
X1741040Y326530D03*
X1746040Y310700D03*
X1723540Y304030D03*
X1781040Y324030D03*
X1746040Y415700D03*
X1628540Y444030D03*
D56*
X1639390Y439030D03*
X1649390Y434030D03*
X1656890Y440700D03*
X1664390Y426530D03*
X1611890Y384030D03*
X1641890Y326530D03*
X1631890Y301530D03*
X1704390Y331530D03*
X1694390Y349030D03*
X1745190Y309030D03*
Y308200D03*
X1776890Y315700D03*
X1779390Y323200D03*
X1786890Y309030D03*
D57*
X1697290Y335700D03*
Y374030D03*
X1647290Y301530D03*
D58*
X1627740Y308200D03*
X1602740Y344030D03*
X1620240Y354030D03*
Y361530D03*
X1622740Y378200D03*
X1612740Y388200D03*
X1615240Y391530D03*
X1640240Y390700D03*
X1645240Y396530D03*
X1702740Y410700D03*
X1705240Y415700D03*
X1707740Y420700D03*
Y421530D03*
X1730240Y415700D03*
X1760240Y399030D03*
Y398200D03*
X1757740Y393200D03*
Y391530D03*
X1687740Y353200D03*
X1692740Y343200D03*
X1719340Y323200D03*
Y321530D03*
Y320700D03*
Y319030D03*
Y318200D03*
Y316530D03*
Y315700D03*
X1720240Y311530D03*
Y309030D03*
Y303200D03*
X1732740Y319030D03*
Y320700D03*
X1687740Y309030D03*
Y301530D03*
X1627740Y453200D03*
D59*
X1620640Y444030D03*
X1635640Y380700D03*
X1638140Y371530D03*
X1613140Y345700D03*
X1605640Y360700D03*
X1583140Y346530D03*
Y345700D03*
X1600640Y316530D03*
X1630640Y333200D03*
X1683140Y314030D03*
X1698140Y328200D03*
Y345700D03*
X1730640Y405700D03*
X1753140Y301530D03*
X1780640Y304030D03*
D60*
X1751440Y302360D03*
X1745640Y309860D03*
X1682340Y342360D03*
X1666440Y334860D03*
X1648140Y337360D03*
X1615640Y339860D03*
X1620640Y302360D03*
X1696440Y367360D03*
X1714840Y374860D03*
X1740640Y397360D03*
X1695640Y399860D03*
X1686440Y414860D03*
X1681440Y417360D03*
X1676440Y419860D03*
X1668140Y424860D03*
X1667340Y402360D03*
X1678140Y387360D03*
X1647340Y444860D03*
X1613940Y462360D03*
D61*
X1640240Y302360D03*
D62*
X1642690Y303200D03*
X1739390Y323200D03*
X1760190Y306530D03*
X1768590Y318200D03*
X1788590Y330700D03*
X1801090Y304030D03*
X1730190Y365700D03*
Y366530D03*
X1731890Y423200D03*
X1658590Y396530D03*
D63*
X1666890Y370700D03*
X1636890Y366530D03*
X1634390Y371530D03*
X1621890Y346530D03*
X1586890Y348200D03*
X1599390Y315700D03*
X1724390Y303200D03*
X1779390D03*
X1786890Y344030D03*
X1719390Y401530D03*
X1699390Y424030D03*
X1706890Y429030D03*
X1626890Y443200D03*
D64*
X1636440Y440700D03*
X1650640Y443200D03*
X1660640Y439030D03*
X1668140Y435700D03*
X1650640Y394030D03*
X1688140D03*
X1690640Y395700D03*
X1725640Y394030D03*
X1728140Y395700D03*
X1760640Y380700D03*
X1763140Y378200D03*
X1773140Y368200D03*
X1765640Y315700D03*
X1735640Y303200D03*
X1700640Y320700D03*
X1688140Y333200D03*
X1655640Y345700D03*
X1628140Y340700D03*
Y334030D03*
X1613140Y354030D03*
X1603140Y325700D03*
X1653140Y306530D03*
D65*
X1654840Y308200D03*
X1652340Y334030D03*
X1672340Y330700D03*
X1673140Y333200D03*
X1714840Y310700D03*
X1749840Y303200D03*
X1621440Y330700D03*
X1612340Y314030D03*
X1617340Y305700D03*
X1736440Y398200D03*
X1614840Y460700D03*
D66*
X1671090Y349030D03*
Y348200D03*
X1676890Y345700D03*
X1747690Y304030D03*
D67*
X1737340Y327360D03*
X1698140Y337360D03*
X1673140Y332360D03*
X1652340Y334860D03*
X1638140Y349860D03*
X1624840Y337360D03*
X1621440Y329860D03*
X1616440Y307360D03*
X1618140Y304860D03*
X1789840Y327360D03*
D68*
X1794390Y312360D03*
X1704390Y324860D03*
X1664390Y307360D03*
Y304860D03*
X1629390D03*
X1626890Y332360D03*
X1654390Y339860D03*
X1637690Y387360D03*
X1639390Y389860D03*
X1624390Y399860D03*
X1611890Y387360D03*
X1701890Y409860D03*
X1704390Y414860D03*
D69*
X1658140Y429860D03*
X1648140Y434860D03*
X1618140Y447360D03*
X1640640Y304860D03*
D70*
X1652740D03*
X1627740Y307360D03*
X1622740Y377360D03*
X1692740Y342360D03*
X1705240Y327360D03*
X1719340Y322360D03*
Y319860D03*
Y314860D03*
X1720240Y312360D03*
X1732740Y319860D03*
X1757740Y392360D03*
X1760240Y399860D03*
X1707740Y419860D03*
D71*
X1626890Y374860D03*
X1641890Y314860D03*
X1686890Y304860D03*
X1746890Y312360D03*
D72*
X1716490Y324860D03*
X1704790Y332360D03*
X1701490Y342360D03*
X1688990Y334860D03*
Y322360D03*
X1698990Y304860D03*
X1619790Y317360D03*
X1603990Y327360D03*
X1593990Y347360D03*
X1583990Y349860D03*
X1651490Y402360D03*
X1672290Y422360D03*
X1678990Y429860D03*
X1642290Y437360D03*
X1747290Y414860D03*
X1777290Y362360D03*
Y314860D03*
D73*
X1760640Y334860D03*
X1735640Y304860D03*
D74*
X1798990D03*
X1616490Y312360D03*
Y457360D03*
D75*
X1614390Y453200D03*
X1639390Y346530D03*
X1644390Y338200D03*
X1656890Y309030D03*
X1691890Y305700D03*
X1796890D03*
D76*
X1745640Y320700D03*
X1710640Y305700D03*
X1668140Y343200D03*
X1650640Y331530D03*
X1625640Y336530D03*
X1615640Y353200D03*
X1635640Y354030D03*
X1683140Y416530D03*
X1690640Y424030D03*
D77*
X1743590Y369030D03*
X1761090Y361530D03*
X1717690Y360700D03*
X1661890Y321530D03*
X1746890Y305700D03*
D78*
X1641890Y339030D03*
X1616890Y306530D03*
X1701890Y406530D03*
D79*
X1686490Y393200D03*
X1683990Y390700D03*
X1681490Y389030D03*
X1683990Y426530D03*
X1681490Y428200D03*
X1661490D03*
X1641490Y438200D03*
X1631490Y443200D03*
X1721490Y390700D03*
X1701490Y343200D03*
X1676490Y314030D03*
X1686490Y306530D03*
X1793990Y314030D03*
D80*
X1767740Y356530D03*
X1738540Y306530D03*
X1685240Y316530D03*
X1671040Y335700D03*
X1658540Y316530D03*
X1617740Y310700D03*
X1641040Y350700D03*
D81*
X1668140Y340700D03*
X1658940Y318200D03*
X1658140Y315700D03*
Y314030D03*
Y313200D03*
X1756440Y326530D03*
X1760640Y323200D03*
X1796440Y306530D03*
D82*
X1751040Y317360D03*
X1696040Y307360D03*
X1758540Y382360D03*
X1753540Y387360D03*
X1653540Y432360D03*
D83*
X1638540Y377360D03*
X1760240Y307360D03*
X1792740D03*
D84*
X1780640Y313200D03*
X1778140Y314030D03*
X1750640Y316530D03*
X1700640Y321530D03*
X1695640Y308200D03*
X1628140Y339030D03*
X1618140Y326530D03*
X1610640Y323200D03*
X1603140Y326530D03*
X1613140Y355700D03*
X1668140Y401530D03*
X1675640Y420700D03*
X1665640Y425700D03*
X1655640Y431530D03*
X1645640Y435700D03*
X1643940Y436530D03*
X1693140Y421530D03*
X1695640Y399030D03*
X1725640Y401530D03*
X1748140Y414030D03*
D85*
X1730640Y368200D03*
X1615640Y309030D03*
D86*
X1618140Y309860D03*
D87*
X1657740D03*
Y312360D03*
D88*
X1693540Y309860D03*
X1616040Y449860D03*
D89*
X1689390Y412360D03*
X1641890Y339860D03*
X1611890Y314860D03*
X1714390Y309860D03*
D90*
X1657740Y310700D03*
Y311530D03*
X1617740Y320700D03*
X1647740Y403200D03*
X1730240Y424030D03*
D91*
X1704790Y358200D03*
X1702290Y330700D03*
X1694790Y313200D03*
X1693990Y310700D03*
X1638990Y378200D03*
D92*
X1639390Y345700D03*
X1659390Y319030D03*
X1616890Y311530D03*
X1614390Y315700D03*
D93*
X1632690Y324030D03*
X1651890Y333200D03*
X1669390Y341530D03*
X1636890Y348200D03*
X1694390Y311530D03*
X1736890Y399030D03*
X1621890Y446530D03*
D94*
X1712290Y311530D03*
X1744790Y321530D03*
D95*
X1694790Y312360D03*
X1668990Y342360D03*
X1634790Y357360D03*
D96*
X1712290Y312360D03*
D97*
X1671490Y336530D03*
X1616490Y313200D03*
Y458200D03*
D98*
X1642290Y393200D03*
X1719790Y314030D03*
Y313200D03*
D99*
X1695240Y314030D03*
X1672740Y331530D03*
X1637740Y349030D03*
X1790240Y329030D03*
D100*
X1761440Y322360D03*
X1755640Y327360D03*
X1692340Y314860D03*
X1658140D03*
X1661440Y397360D03*
D101*
X1692290Y374860D03*
X1727290Y394860D03*
X1759790Y404860D03*
X1772290Y369860D03*
X1717290Y334860D03*
Y329860D03*
Y327360D03*
X1677290Y314860D03*
X1794790Y317360D03*
X1694790Y419860D03*
X1652290Y442360D03*
D102*
X1665640Y324030D03*
X1688140Y315700D03*
D103*
X1738990Y324030D03*
X1771490Y316530D03*
X1623990Y338200D03*
X1621490Y329030D03*
D104*
X1607740Y317360D03*
X1650240Y329860D03*
X1635240Y404860D03*
X1625240Y444860D03*
X1737740Y419860D03*
X1790240Y329860D03*
D105*
X1641490Y317360D03*
D106*
X1658540D03*
X1685240D03*
D107*
X1641490Y342360D03*
X1771490Y317360D03*
D108*
X1652690Y366530D03*
X1641890Y351530D03*
X1624390Y328200D03*
X1612690Y319030D03*
Y318200D03*
D109*
X1637290Y319030D03*
D110*
X1681490D03*
X1698990Y373200D03*
X1712290Y428200D03*
X1614790Y451530D03*
D111*
X1638940Y370700D03*
X1723940Y403200D03*
X1768140Y358200D03*
X1761440Y319030D03*
X1727340Y335700D03*
D112*
X1613540Y319860D03*
D113*
X1637290D03*
D114*
X1670190D03*
X1642690Y364860D03*
D115*
X1630640Y367360D03*
X1613140Y354860D03*
X1600640Y344860D03*
X1638140Y337360D03*
X1635640Y322360D03*
X1700640Y319860D03*
X1685640Y392360D03*
X1693140Y397360D03*
X1743140Y417360D03*
X1748140Y392360D03*
X1755640Y384860D03*
X1638140Y439860D03*
X1640640Y447360D03*
D116*
X1758540Y319860D03*
D117*
X1666440Y320700D03*
D118*
X1726040Y386530D03*
X1765240Y320700D03*
D119*
X1766040Y321530D03*
X1723540Y361530D03*
D120*
X1688990Y394860D03*
X1651490D03*
X1686490Y337360D03*
X1626490Y322360D03*
X1761490Y379860D03*
X1766490Y374860D03*
X1773990Y367360D03*
X1753990Y409860D03*
D121*
X1741090Y372360D03*
X1660190Y322360D03*
D122*
X1739790D03*
X1614790Y452360D03*
D123*
X1632290Y323200D03*
D124*
X1660640D03*
X1673140Y346530D03*
X1733140Y358200D03*
D125*
X1759790Y324030D03*
D126*
X1664390Y324860D03*
D127*
X1738140D03*
D128*
X1759390D03*
X1726890Y424860D03*
D129*
X1674840Y351530D03*
X1675640Y350700D03*
X1663140Y353200D03*
X1668140Y326530D03*
Y325700D03*
X1766440Y335700D03*
Y336530D03*
D130*
X1748540Y325700D03*
D131*
X1788140Y326530D03*
X1725640Y389030D03*
D132*
X1644340Y384860D03*
X1645240Y374860D03*
X1615240Y347360D03*
X1630240Y327360D03*
D133*
X1668140D03*
D134*
X1658140Y328200D03*
D135*
X1746490D03*
Y329030D03*
Y330700D03*
X1737290Y376530D03*
D136*
X1690640Y383200D03*
X1655640Y395700D03*
X1650640Y330700D03*
X1615640Y449030D03*
X1613140Y450700D03*
X1790640Y328200D03*
D137*
X1660640Y329030D03*
D138*
X1671090Y347360D03*
X1677690Y344860D03*
X1746090Y329860D03*
X1756090Y362360D03*
D139*
X1763140Y331530D03*
D140*
X1762740Y332360D03*
D141*
Y333200D03*
D142*
X1671040Y334030D03*
X1616040Y459030D03*
D143*
X1761440Y334030D03*
D144*
X1699790Y334860D03*
X1614790Y349860D03*
D145*
X1666890Y398200D03*
X1726890Y336530D03*
D146*
X1670640Y337360D03*
X1725640Y387360D03*
D147*
X1738940Y374860D03*
X1724840Y337360D03*
X1659840Y357360D03*
D148*
X1742740Y369860D03*
X1765240Y337360D03*
D149*
X1677290Y338200D03*
D150*
X1746890D03*
Y339030D03*
D151*
X1741090Y373200D03*
X1729390Y381530D03*
X1706890Y426530D03*
X1682690Y400700D03*
X1676090Y339030D03*
D152*
X1676490Y339860D03*
D153*
X1746890D03*
D154*
X1746440Y340700D03*
X1743940Y353200D03*
D155*
X1755190Y341530D03*
D156*
X1755240Y342360D03*
X1661040Y352360D03*
D157*
X1639390Y343200D03*
D158*
X1638540Y383200D03*
X1755240Y343200D03*
D159*
X1641490Y344030D03*
D160*
X1674790D03*
D161*
X1753540D03*
D162*
X1586490Y344860D03*
D163*
X1643140D03*
D164*
X1751890D03*
D165*
X1750640Y345700D03*
D166*
X1749840Y346530D03*
D167*
X1639390Y347360D03*
D168*
X1748590D03*
D169*
X1747740Y348200D03*
D170*
X1746890Y349030D03*
D171*
X1671490Y349860D03*
D172*
X1746440D03*
D173*
X1745190Y350700D03*
Y351530D03*
X1739390Y355700D03*
D174*
X1729840Y352360D03*
D175*
X1724790Y362360D03*
X1769790Y352360D03*
D176*
X1740240Y374030D03*
X1701040Y370700D03*
X1663540Y354030D03*
X1661040Y356530D03*
D177*
X1741040Y354030D03*
D178*
X1680240Y369860D03*
X1662740Y354860D03*
D179*
X1728540D03*
D180*
X1767290D03*
D181*
X1661890Y355700D03*
D182*
X1728140Y356530D03*
D183*
X1748990Y357360D03*
D184*
X1648940Y358200D03*
D185*
X1647740Y359030D03*
D186*
X1740640D03*
D187*
X1647740Y359860D03*
D188*
X1740240D03*
D189*
X1647290Y360700D03*
D190*
X1724790Y383200D03*
X1761490Y360700D03*
D191*
X1646040Y361530D03*
D192*
X1645640Y362360D03*
D193*
X1643140Y363200D03*
D194*
X1635190Y375700D03*
X1634390Y376530D03*
X1725190Y363200D03*
X1755190Y365700D03*
D195*
X1755640Y363200D03*
D196*
X1643140Y364030D03*
D197*
X1716890D03*
D198*
X1755240D03*
D199*
X1716890Y364860D03*
D200*
X1755240D03*
D201*
X1646040Y365700D03*
D202*
X1706890D03*
Y366530D03*
X1754390D03*
D203*
X1666040Y367360D03*
D204*
X1753540D03*
D205*
X1670640Y368200D03*
D206*
X1690640Y401530D03*
X1753140Y368200D03*
X1617340Y455700D03*
D207*
X1677740Y369030D03*
D208*
X1704390Y372360D03*
X1639390Y369860D03*
D209*
X1646890Y404030D03*
X1729390Y380700D03*
X1741890Y370700D03*
D210*
X1703540Y371530D03*
D211*
X1741490D03*
D212*
X1738140Y375700D03*
D213*
X1729790Y377360D03*
D214*
X1720240Y378200D03*
D215*
X1719390Y379030D03*
D216*
X1718540Y379860D03*
D217*
X1697290Y380700D03*
D218*
X1637340Y381530D03*
D219*
X1635240Y382360D03*
D220*
X1728140D03*
D221*
X1683140Y384030D03*
D222*
X1696490Y384860D03*
D223*
X1699790Y385700D03*
D224*
X1690240Y386530D03*
D225*
X1753540D03*
D226*
X1725640Y388200D03*
D227*
X1723540Y389860D03*
D228*
X1669790Y399030D03*
D229*
X1676890Y399860D03*
X1709390Y427360D03*
D230*
X1727340Y402360D03*
X1691440D03*
X1617340Y454860D03*
D231*
X1693140Y403200D03*
D232*
X1708590Y404030D03*
D233*
X1693140Y424860D03*
X1655640Y404860D03*
X1615640Y459860D03*
D234*
X1707740Y404860D03*
D235*
X1704790Y405700D03*
D236*
X1711490Y425700D03*
D237*
X1617740Y454030D03*
D238*
X1617290Y456530D03*
D239*
X1660680Y637850D02*
Y619150D01*
X1679380D01*
X1766000D02*
X1784700D01*
Y637850D01*
Y724460D02*
Y743160D01*
X1766000D01*
X1679380D02*
X1660680D01*
Y724460D01*
D240*
X551410Y804510D03*
X546410Y807010D03*
X523410D03*
X522410Y806510D03*
X519410Y805010D03*
X518410Y804510D03*
X515410Y807010D03*
X533410Y755010D03*
X536910D03*
D241*
X535160Y755510D03*
Y756010D03*
X538160Y762510D03*
X538660Y763010D03*
Y763510D03*
X539160Y765010D03*
Y765510D03*
X540160Y766010D03*
X541160Y767510D03*
Y768010D03*
X541660Y768510D03*
Y769010D03*
Y769510D03*
Y770010D03*
X542160Y770510D03*
Y771010D03*
X542660Y771510D03*
Y772010D03*
X543160Y772510D03*
Y773010D03*
X543660Y773510D03*
Y774010D03*
X544160Y774510D03*
Y775010D03*
X544660Y775510D03*
Y776010D03*
Y776510D03*
X545160Y777510D03*
X545660Y777010D03*
X546160Y778010D03*
X546660Y779010D03*
Y779510D03*
X547160Y780010D03*
Y780510D03*
X547660Y781010D03*
Y781510D03*
Y782010D03*
X548160Y782510D03*
Y783010D03*
X548660Y783510D03*
Y784010D03*
X549160Y784510D03*
Y785010D03*
X549660Y785510D03*
Y786010D03*
X550160Y786510D03*
Y787010D03*
Y787510D03*
X550660Y788010D03*
Y788510D03*
X551660Y789010D03*
X552160Y790010D03*
Y790510D03*
X552660Y791010D03*
Y791510D03*
X553160Y792010D03*
Y792510D03*
Y793010D03*
X553660Y793510D03*
Y794010D03*
X554160Y794510D03*
Y795010D03*
X554660Y795510D03*
Y796010D03*
X555160Y796510D03*
Y797010D03*
X555660Y797510D03*
Y798010D03*
Y798510D03*
X556160Y799010D03*
Y799510D03*
X557160Y800010D03*
X557660Y801010D03*
Y801510D03*
X558160Y802010D03*
Y802510D03*
X558660Y803010D03*
Y803510D03*
X559160Y804510D03*
Y805010D03*
X559660Y805510D03*
Y806010D03*
X560160Y806510D03*
Y807010D03*
X560660Y807510D03*
Y808010D03*
X561160Y808510D03*
Y809010D03*
X561660Y809510D03*
Y810010D03*
Y810510D03*
X562160Y811510D03*
X563160Y812010D03*
X563660Y813010D03*
Y813510D03*
X564160Y814010D03*
Y814510D03*
X564660Y815010D03*
Y815510D03*
Y816010D03*
X565160Y816510D03*
Y817010D03*
X565660Y817510D03*
Y818010D03*
X566160Y818510D03*
Y819010D03*
X566660Y819510D03*
Y820010D03*
X567160Y820510D03*
Y821010D03*
Y821510D03*
X567660Y822010D03*
Y822510D03*
X568660Y823010D03*
X569160Y824010D03*
Y824510D03*
X569660Y825010D03*
Y825510D03*
X570160Y826010D03*
Y826510D03*
Y827010D03*
X570660Y827510D03*
Y828010D03*
X571160Y828510D03*
Y829010D03*
X627160Y835010D03*
X627660Y836010D03*
X628160Y836510D03*
X628660Y837510D03*
X629160Y839010D03*
X629660Y839510D03*
Y840010D03*
X631160Y841510D03*
X632160Y843010D03*
X632660Y844510D03*
X633160Y845510D03*
X633660Y846510D03*
X634160Y847010D03*
X634660Y848010D03*
X635160Y849010D03*
X637160Y852010D03*
X637660Y853010D03*
X638160Y853510D03*
Y854010D03*
X638660Y854510D03*
X639160Y855010D03*
Y855510D03*
Y856010D03*
X639660Y856510D03*
X640160Y857510D03*
X640660Y858510D03*
X641160Y859510D03*
X642660Y861510D03*
X643160Y862510D03*
X643660Y863010D03*
X644160Y864010D03*
X644660Y865010D03*
X645160Y866010D03*
Y866510D03*
X645660Y867010D03*
X514660Y797010D03*
Y796510D03*
X515160Y796010D03*
Y795510D03*
X515660Y795010D03*
Y794510D03*
X516160Y794010D03*
Y793510D03*
X516660Y792510D03*
Y792010D03*
X517660Y791510D03*
X518160Y790510D03*
Y790010D03*
X518660Y789510D03*
Y789010D03*
X519160Y788510D03*
Y788010D03*
X519660Y787510D03*
Y787010D03*
Y786510D03*
X520160Y786010D03*
Y785510D03*
X520660Y785010D03*
Y784510D03*
X521160Y784010D03*
Y783510D03*
X521660Y783010D03*
Y782510D03*
X522160Y781510D03*
Y781010D03*
X523160Y780510D03*
X523660Y779510D03*
Y779010D03*
X524160Y778510D03*
Y778010D03*
X524660Y777510D03*
Y777010D03*
X525160Y776510D03*
Y776010D03*
Y775510D03*
X525660Y775010D03*
Y774510D03*
X526160Y774010D03*
Y773510D03*
X526660Y773010D03*
Y772510D03*
X527160Y772010D03*
Y771510D03*
X527660Y771010D03*
Y770510D03*
X529160Y768510D03*
X529660Y767510D03*
Y767010D03*
X530160Y766510D03*
Y766010D03*
X530660Y765510D03*
Y765010D03*
X531160Y764510D03*
Y764010D03*
Y763510D03*
X531660Y763010D03*
Y762510D03*
X514160Y797510D03*
Y798010D03*
Y798510D03*
X513660Y799010D03*
Y799510D03*
X513160Y800010D03*
Y800510D03*
X512660Y801010D03*
Y801510D03*
X512160Y802510D03*
X510660Y804510D03*
X510160Y805510D03*
Y806010D03*
X509660Y806510D03*
Y807010D03*
X509160Y807510D03*
Y808010D03*
X508660Y808510D03*
Y809010D03*
X508160Y809510D03*
Y810010D03*
Y810510D03*
X507660Y811010D03*
Y811510D03*
X507160Y812010D03*
Y812510D03*
X506160Y814510D03*
X505160Y815010D03*
Y815510D03*
X504660Y816510D03*
Y817010D03*
X504160Y818010D03*
X503660Y819010D03*
X503160Y819510D03*
Y820010D03*
X502660Y821010D03*
Y821510D03*
X502160Y822510D03*
X501660Y823010D03*
Y823510D03*
X501160Y824510D03*
X500660Y825510D03*
X499660Y826510D03*
X499160Y827510D03*
Y828010D03*
X498660Y829010D03*
X443660Y834510D03*
X442660Y835010D03*
X441660Y836510D03*
X441160Y837510D03*
X440660Y839010D03*
X440160Y840010D03*
X439660Y840510D03*
Y841010D03*
X439160Y841510D03*
X438660Y842510D03*
X438160Y843510D03*
Y844010D03*
X437160Y844510D03*
X436660Y845510D03*
X436160Y846510D03*
X435660Y847010D03*
Y847510D03*
X435160Y848010D03*
X434660Y849010D03*
Y849510D03*
X434160Y850510D03*
X433660Y851010D03*
X433160Y852010D03*
X432660Y853010D03*
X432160Y854010D03*
X431160Y854510D03*
X430660Y856010D03*
X430160Y857010D03*
X429660Y857510D03*
Y858010D03*
X429160Y858510D03*
X428660Y859510D03*
X428160Y860010D03*
X427660Y861510D03*
X427160Y862510D03*
X426660Y863510D03*
X425660Y864010D03*
X425160Y865010D03*
X424660Y866010D03*
Y866510D03*
X424160Y867010D03*
D242*
X424910Y865510D03*
X425910Y864510D03*
X427410Y862010D03*
X427910Y861010D03*
Y860510D03*
X428910Y859010D03*
X430410Y856510D03*
X430910Y855510D03*
Y855010D03*
X431910Y853510D03*
X432910Y852510D03*
X433410Y851510D03*
X434410Y850010D03*
X434910Y848510D03*
X436410Y846010D03*
X438410Y843010D03*
X438910Y842010D03*
X440410Y839510D03*
X440910Y838510D03*
Y838010D03*
X441410Y837010D03*
X442410Y836010D03*
X499910Y827010D03*
X501410Y824010D03*
X505410Y816010D03*
X505910Y814010D03*
X506410Y813510D03*
X510910Y805010D03*
Y804010D03*
X511410Y803010D03*
X511910Y802010D03*
X516910Y809010D03*
Y793010D03*
X517410Y791010D03*
X522410Y782010D03*
X522910Y780010D03*
X528410Y770010D03*
Y769010D03*
X528910Y768010D03*
X538910Y764510D03*
Y764010D03*
X540410Y767010D03*
X535410Y756510D03*
X545910Y778510D03*
X551410Y789510D03*
X556910Y800510D03*
X558910Y804010D03*
X553410Y809010D03*
X562410Y811010D03*
X562910Y812510D03*
X568410Y823510D03*
X626910Y834510D03*
X627410Y835510D03*
X628410Y837010D03*
X628910Y838010D03*
Y838510D03*
X630410Y840510D03*
X631410Y842510D03*
X632410Y843510D03*
Y844010D03*
X632910Y845010D03*
X633410Y846010D03*
X634410Y847510D03*
X634910Y848510D03*
X635410Y849510D03*
X635910Y850010D03*
X637410Y852510D03*
X639910Y857010D03*
X640410Y858010D03*
X640910Y859010D03*
X641910Y860010D03*
X643910Y863510D03*
X644410Y864510D03*
X644910Y865510D03*
D243*
X553410Y810010D03*
Y809510D03*
X517410D03*
Y810010D03*
X535410Y757510D03*
X534910Y757010D03*
D244*
Y758010D03*
D245*
X535160Y758510D03*
Y759010D03*
X517660Y810510D03*
D246*
X552410D03*
X534910Y759510D03*
D247*
X535160Y760010D03*
D248*
X534910Y760510D03*
X518410Y811010D03*
D249*
X551660D03*
X535160Y761010D03*
D250*
X534910Y761510D03*
Y762010D03*
D251*
X540160Y766510D03*
X500660Y825010D03*
X442660Y835510D03*
X437160Y845010D03*
X426660Y863010D03*
X630660Y841010D03*
X631160Y842010D03*
X636160Y850510D03*
X636660Y851510D03*
X642160Y860510D03*
Y861010D03*
X642660Y862010D03*
D252*
X636410Y851010D03*
X528410Y769510D03*
X511410Y803510D03*
X506910Y813010D03*
X504410Y817510D03*
X503910Y818510D03*
X502910Y820510D03*
X502410Y822010D03*
X498910Y828510D03*
D253*
X504160Y830010D03*
X517660Y803510D03*
X550660Y805010D03*
X552160Y803510D03*
X552660Y803010D03*
X425660Y869010D03*
D254*
Y868510D03*
X518160Y804010D03*
X520160Y805510D03*
X521160Y806010D03*
X535160Y809510D03*
Y810010D03*
X545160Y807510D03*
X547660Y806510D03*
X548660Y806010D03*
X549660Y805510D03*
X551660Y804010D03*
X554660Y807010D03*
X644660Y868510D03*
D255*
X554160Y807510D03*
X528660Y808510D03*
X516160Y808010D03*
X515660Y807510D03*
D256*
X524910D03*
D257*
X516660Y808510D03*
X554160Y808010D03*
D258*
X543410D03*
X541410Y808510D03*
X526410Y808010D03*
X424910Y868010D03*
X644910D03*
D259*
X645160Y867510D03*
X553660Y808510D03*
X500160Y826010D03*
X424660Y867510D03*
D260*
X534660Y809010D03*
D261*
X519160Y811510D03*
X551160D03*
D262*
X550160Y812010D03*
X519660D03*
D263*
X521160Y812510D03*
X549160D03*
D264*
Y813010D03*
X521660D03*
D265*
X521410Y814010D03*
X548910D03*
Y813510D03*
D266*
X521660D03*
X521160Y814510D03*
D267*
X548910D03*
Y815010D03*
D268*
X549410Y816010D03*
X521410D03*
Y815510D03*
Y815010D03*
D269*
X549160Y815510D03*
D270*
X549660Y816510D03*
X521160D03*
D271*
X521410Y817010D03*
X549410D03*
D272*
X549660Y817510D03*
Y818010D03*
X521160D03*
Y817510D03*
D273*
X549910Y818510D03*
D274*
X549660Y819010D03*
X521160D03*
Y818510D03*
D275*
X520910Y820010D03*
X549910Y819510D03*
D276*
X520660D03*
D277*
X549410Y820010D03*
X549910Y820510D03*
Y821010D03*
Y821510D03*
D278*
X550160Y822010D03*
X520660Y821510D03*
Y821010D03*
Y820510D03*
D279*
X520410Y822010D03*
Y822510D03*
D280*
X549660D03*
Y823010D03*
D281*
X549910Y823510D03*
Y824010D03*
X520410Y823510D03*
Y823010D03*
D282*
X520160Y824010D03*
D283*
X520410Y824510D03*
X549910D03*
D284*
Y825010D03*
D285*
X520160D03*
D286*
X535160Y825510D03*
X470660Y833010D03*
Y833510D03*
X598660Y830510D03*
X599160Y831510D03*
Y832010D03*
Y832510D03*
D287*
X535410Y827010D03*
Y826010D03*
D288*
X535160Y826510D03*
X599660Y834010D03*
D289*
X535410Y828010D03*
Y827510D03*
D290*
Y828510D03*
Y829010D03*
D291*
X471910Y829510D03*
Y830010D03*
X471410Y831010D03*
X470910Y831510D03*
Y832010D03*
Y832510D03*
X597910Y830010D03*
Y829510D03*
X598410Y831010D03*
D292*
X535410Y829510D03*
D293*
X471660Y830510D03*
D294*
X470410Y834010D03*
X599410Y833510D03*
Y833010D03*
D295*
X534910Y833510D03*
M02*
