%
M48
;FILE_FORMAT=4:6
INCH,TZ
T01C0.012
T02C0.0315
%
T01
G05
X641700Y538000
X836000Y709900
X959600Y820700
X997700Y661900
X1172100Y513300
X1308300Y649400
X1356000Y462200
X1286700Y327000
X1287500Y148400
X1581200Y138000
X1581700Y197000
X1581700Y597000
X1562500Y986600
X1804000Y1121000
X1622700Y1430100
X1288100Y1620100
X935200Y1620100
X585600Y1430100
X419300Y1121000
X660800Y986600
X1082100Y1037500
X933200Y453900
X971200Y97500
X702500Y106600
T02
X233400Y589100
X133400Y589100
X133400Y688100
X233400Y688100
M30
