%FSLAX46Y46*%
%MOIN*%
%ADD10C,0.01*%
%ADD11C,0*%
%ADD12C,0.01*%
%LPD*%
D10*
X1637540Y945240D02*
G01*
X1637080Y931640D01*
X1640250Y928470D01*
X1722690D01*
X1727200Y940480D01*
X1726530Y998220D01*
X1713850Y1078160D01*
X1688480Y1163100D01*
X1649770Y1248700D01*
X1583180Y1340650D01*
X1526110Y1397730D01*
X1477880Y1437110D01*
X1457030Y1440290D01*
X1437330Y1439620D01*
X1417820Y1441440D01*
X1396110Y1445290D01*
X1358060Y1457970D01*
X1307330Y1476990D01*
X1256600Y1489670D01*
X1190020Y1499190D01*
X1129780Y1502360D01*
X1072700D01*
X1012460Y1499190D01*
X942710Y1486500D01*
X879290Y1467480D01*
X834900Y1448460D01*
X795520Y1440770D01*
X761980Y1438940D01*
X736610D01*
X711250Y1419920D01*
X612960Y1321630D01*
X590760Y1293090D01*
X568570Y1258220D01*
X552720Y1229680D01*
X540030Y1204320D01*
X521010Y1159930D01*
X514670Y1140900D01*
X504480Y1102850D01*
X498810Y1080660D01*
X492470Y1048950D01*
X489300Y1020420D01*
X486130Y985540D01*
X485460Y937980D01*
X492470Y928470D01*
X581250D01*
X584420Y931640D01*
Y944320D01*
X584460Y948000D01*
X584600Y951670D01*
X584820Y955340D01*
X585130Y959010D01*
X585530Y962660D01*
X586020Y966310D01*
X586590Y969940D01*
X587260Y973560D01*
X588010Y977160D01*
X588840Y980740D01*
X589770Y984300D01*
X590770Y987840D01*
X591870Y991350D01*
X593050Y994830D01*
X594310Y998290D01*
X595660Y1001710D01*
X597080Y1005100D01*
X598590Y1008450D01*
X600180Y1011770D01*
X601850Y1015050D01*
X603600Y1018280D01*
X605430Y1021470D01*
X607330Y1024620D01*
X609310Y1027720D01*
X611360Y1030770D01*
X613490Y1033780D01*
X615680Y1036720D01*
X617950Y1039620D01*
X620290Y1042460D01*
X622690Y1045240D01*
X625170Y1047960D01*
X627700Y1050630D01*
X630300Y1053230D01*
X632970Y1055760D01*
X635690Y1058240D01*
X638470Y1060640D01*
X641310Y1062980D01*
X644210Y1065250D01*
X647160Y1067440D01*
X650160Y1069570D01*
X653210Y1071620D01*
X656310Y1073600D01*
X659460Y1075500D01*
X662650Y1077330D01*
X665880Y1079080D01*
X669160Y1080750D01*
X672480Y1082340D01*
X675830Y1083850D01*
X679220Y1085270D01*
X682640Y1086620D01*
X686100Y1087880D01*
X689580Y1089060D01*
X693090Y1090160D01*
X696630Y1091160D01*
X700190Y1092090D01*
X703770Y1092920D01*
X707370Y1093670D01*
X710990Y1094340D01*
X714620Y1094910D01*
X718270Y1095400D01*
X721920Y1095800D01*
X725590Y1096110D01*
X729260Y1096330D01*
X732930Y1096470D01*
X736610Y1096510D01*
X1485810D01*
X1489530Y1096460D01*
X1493240Y1096330D01*
X1496950Y1096100D01*
X1500650Y1095780D01*
X1504350Y1095370D01*
X1508030Y1094870D01*
X1511700Y1094280D01*
X1515360Y1093610D01*
X1518990Y1092840D01*
X1522610Y1091980D01*
X1526200Y1091030D01*
X1529770Y1090000D01*
X1533320Y1088880D01*
X1536830Y1087670D01*
X1540320Y1086380D01*
X1543770Y1085000D01*
X1547190Y1083540D01*
X1550570Y1082000D01*
X1553910Y1080370D01*
X1557210Y1078660D01*
X1560470Y1076870D01*
X1563680Y1075000D01*
X1566850Y1073060D01*
X1569960Y1071030D01*
X1573030Y1068930D01*
X1576050Y1066760D01*
X1579010Y1064510D01*
X1581910Y1062200D01*
X1584760Y1059810D01*
X1587550Y1057350D01*
X1590270Y1054820D01*
X1592940Y1052230D01*
X1595540Y1049570D01*
X1598070Y1046860D01*
X1600540Y1044070D01*
X1602940Y1041230D01*
X1605260Y1038340D01*
X1607520Y1035380D01*
X1609700Y1032370D01*
X1611810Y1029310D01*
X1613840Y1026200D01*
X1615800Y1023040D01*
X1617680Y1019830D01*
X1619480Y1016580D01*
X1621190Y1013290D01*
X1622830Y1009950D01*
X1624390Y1006570D01*
X1625860Y1003160D01*
X1627250Y999710D01*
X1628550Y996230D01*
X1629770Y992720D01*
X1630900Y989180D01*
X1631940Y985610D01*
X1632900Y982020D01*
X1633770Y978410D01*
X1634550Y974770D01*
X1635240Y971120D01*
X1635840Y967450D01*
X1636350Y963770D01*
X1636770Y960080D01*
X1637100Y956380D01*
X1637330Y952670D01*
X1637480Y948950D01*
X1637540Y945240D01*
X1350830Y390680D02*
X1348550Y389450D01*
X1227670Y541650D02*
X1227690Y543080D01*
X1227750Y544500D01*
X1227850Y545930D01*
X1227990Y547350D01*
X1228170Y548770D01*
X1228390Y550180D01*
X1228640Y551580D01*
X1228940Y552980D01*
X1229280Y554370D01*
X1229650Y555740D01*
X1230060Y557110D01*
X1230510Y558460D01*
X1231000Y559810D01*
X1231530Y561130D01*
X1232090Y562450D01*
X1232690Y563740D01*
X1233320Y565020D01*
X1233990Y566280D01*
X1234700Y567520D01*
X1235440Y568740D01*
X1236210Y569940D01*
X1237020Y571120D01*
X1237860Y572280D01*
X1238730Y573410D01*
X1239630Y574520D01*
X1240570Y575600D01*
X1241530Y576650D01*
X1242520Y577680D01*
X1243540Y578680D01*
X1244590Y579650D01*
X1245660Y580590D01*
X1246760Y581500D01*
X1247890Y582380D01*
X1249040Y583220D01*
X1250210Y584040D01*
X1251400Y584820D01*
X1252620Y585570D01*
X1253860Y586280D01*
X1255110Y586960D01*
X1256390Y587610D01*
X1257680Y588210D01*
X1258990Y588780D01*
X1260310Y589320D01*
X1261650Y589820D01*
X1263000Y590280D01*
X1264360Y590700D01*
X1265740Y591080D01*
X1267120Y591430D01*
X1268520Y591740D01*
X1269920Y592000D01*
X1271330Y592230D01*
X1272750Y592420D01*
X1274170Y592570D01*
X1275590Y592680D01*
X1277020Y592750D01*
X1278440Y592780D01*
X1279870Y592770D01*
X1281300Y592720D01*
X1282720Y592630D01*
X1284140Y592500D01*
X1285560Y592330D01*
X1286970Y592120D01*
X1288380Y591870D01*
X1289780Y591590D01*
X1291170Y591260D01*
X1292550Y590900D01*
X1293920Y590490D01*
X1295280Y590050D01*
X1296620Y589570D01*
X1297950Y589060D01*
X1299270Y588500D01*
X1300570Y587910D01*
X1301850Y587290D01*
X1303120Y586630D01*
X1304370Y585930D01*
X1305590Y585200D01*
X1306800Y584430D01*
X1307980Y583640D01*
X1309140Y582800D01*
X1310280Y581940D01*
X1311390Y581050D01*
X1312480Y580120D01*
X1313540Y579170D01*
X1314570Y578180D01*
X1315580Y577170D01*
X1316560Y576130D01*
X1317510Y575060D01*
X1318420Y573970D01*
X1319310Y572850D01*
X1320170Y571700D01*
X1320990Y570540D01*
X1321780Y569350D01*
X1322530Y568140D01*
X1323260Y566910D01*
X1323950Y565650D01*
X1324600Y564380D01*
X1325210Y563100D01*
X1325800Y561790D01*
X1326340Y560470D01*
X1326850Y559140D01*
X1327320Y557790D01*
X1327750Y556430D01*
X1328140Y555060D01*
X1328500Y553670D01*
X1328810Y552280D01*
X1329090Y550880D01*
X1329330Y549470D01*
X1329530Y548060D01*
X1329690Y546640D01*
X1329810Y545220D01*
X1329890Y543790D01*
X1329930Y542360D01*
Y540940D01*
X1329890Y539510D01*
X1329810Y538080D01*
X1329690Y536660D01*
X1329530Y535240D01*
X1329330Y533830D01*
X1329090Y532420D01*
X1328810Y531020D01*
X1328500Y529630D01*
X1328140Y528240D01*
X1327750Y526870D01*
X1327320Y525510D01*
X1326850Y524160D01*
X1326340Y522830D01*
X1325800Y521510D01*
X1325210Y520200D01*
X1324600Y518920D01*
X1323950Y517650D01*
X1323260Y516390D01*
X1322530Y515160D01*
X1321780Y513950D01*
X1320990Y512760D01*
X1320170Y511600D01*
X1319310Y510450D01*
X1318420Y509330D01*
X1317510Y508240D01*
X1316560Y507170D01*
X1315580Y506130D01*
X1314570Y505120D01*
X1313540Y504130D01*
X1312480Y503180D01*
X1311390Y502250D01*
X1310280Y501360D01*
X1309140Y500500D01*
X1307980Y499660D01*
X1306800Y498870D01*
X1305590Y498100D01*
X1304360Y497370D01*
X1303120Y496670D01*
X1301850Y496010D01*
X1300570Y495390D01*
X1299270Y494800D01*
X1297950Y494240D01*
X1296620Y493730D01*
X1295280Y493250D01*
X1293920Y492810D01*
X1292550Y492400D01*
X1291170Y492040D01*
X1289780Y491710D01*
X1288380Y491430D01*
X1286970Y491180D01*
X1285560Y490970D01*
X1284140Y490800D01*
X1282720Y490670D01*
X1281300Y490580D01*
X1279870Y490530D01*
X1278440Y490520D01*
X1277020Y490550D01*
X1275590Y490620D01*
X1274170Y490730D01*
X1272750Y490880D01*
X1271330Y491070D01*
X1269920Y491300D01*
X1268520Y491560D01*
X1267120Y491870D01*
X1265740Y492220D01*
X1264360Y492600D01*
X1263000Y493020D01*
X1261650Y493480D01*
X1260310Y493980D01*
X1258990Y494520D01*
X1257680Y495090D01*
X1256390Y495690D01*
X1255110Y496340D01*
X1253860Y497020D01*
X1252620Y497730D01*
X1251400Y498480D01*
X1250210Y499260D01*
X1249040Y500080D01*
X1247890Y500920D01*
X1246760Y501800D01*
X1245660Y502710D01*
X1244590Y503650D01*
X1243540Y504620D01*
X1242520Y505620D01*
X1241530Y506650D01*
X1240570Y507700D01*
X1239630Y508780D01*
X1238730Y509890D01*
X1237860Y511020D01*
X1237020Y512180D01*
X1236210Y513360D01*
X1235440Y514560D01*
X1234700Y515780D01*
X1233990Y517020D01*
X1233320Y518280D01*
X1232690Y519560D01*
X1232090Y520850D01*
X1231530Y522170D01*
X1231000Y523490D01*
X1230510Y524840D01*
X1230060Y526190D01*
X1229650Y527560D01*
X1229280Y528930D01*
X1228940Y530320D01*
X1228640Y531720D01*
X1228390Y533120D01*
X1228170Y534530D01*
X1227990Y535950D01*
X1227850Y537370D01*
X1227750Y538800D01*
X1227690Y540220D01*
X1227670Y541650D01*
X893870Y731890D02*
X893890Y733090D01*
X893950Y734290D01*
X894050Y735490D01*
X894190Y736680D01*
X894370Y737870D01*
X894590Y739050D01*
X894840Y740230D01*
X895140Y741390D01*
X895480Y742550D01*
X895850Y743690D01*
X896260Y744820D01*
X896710Y745930D01*
X897190Y747030D01*
X897720Y748110D01*
X898270Y749180D01*
X898860Y750220D01*
X899490Y751250D01*
X900150Y752250D01*
X900840Y753240D01*
X901570Y754190D01*
X902330Y755130D01*
X903120Y756030D01*
X903930Y756920D01*
X904780Y757770D01*
X905650Y758590D01*
X906550Y759390D01*
X907480Y760150D01*
X908430Y760890D01*
X909410Y761590D01*
X910410Y762260D01*
X911430Y762890D01*
X912470Y763490D01*
X913530Y764060D01*
X914610Y764590D01*
X915700Y765080D01*
X916810Y765540D01*
X917940Y765960D01*
X919080Y766340D01*
X920230Y766690D01*
X921390Y767000D01*
X922560Y767260D01*
X923740Y767490D01*
X924930Y767680D01*
X926120Y767830D01*
X927320Y767940D01*
X928520Y768010D01*
X929720Y768040D01*
X930920Y768030D01*
X932120Y767980D01*
X933320Y767890D01*
X934520Y767760D01*
X935700Y767590D01*
X936890Y767380D01*
X938060Y767130D01*
X939230Y766850D01*
X940390Y766520D01*
X941530Y766160D01*
X942670Y765760D01*
X943780Y765320D01*
X944890Y764840D01*
X945980Y764330D01*
X947040Y763780D01*
X948090Y763200D01*
X949130Y762580D01*
X950140Y761930D01*
X951120Y761240D01*
X952090Y760520D01*
X953030Y759770D01*
X953940Y758990D01*
X954830Y758180D01*
X955690Y757350D01*
X956520Y756480D01*
X957320Y755580D01*
X958090Y754660D01*
X958840Y753720D01*
X959550Y752750D01*
X960220Y751750D01*
X960870Y750740D01*
X961480Y749700D01*
X962050Y748650D01*
X962590Y747570D01*
X963090Y746480D01*
X963560Y745380D01*
X963990Y744250D01*
X964380Y743120D01*
X964740Y741970D01*
X965050Y740810D01*
X965330Y739640D01*
X965570Y738460D01*
X965770Y737280D01*
X965930Y736090D01*
X966050Y734890D01*
X966130Y733690D01*
X966170Y732490D01*
Y731290D01*
X966130Y730090D01*
X966050Y728890D01*
X965930Y727690D01*
X965770Y726500D01*
X965570Y725320D01*
X965330Y724140D01*
X965050Y722970D01*
X964740Y721810D01*
X964380Y720660D01*
X963990Y719530D01*
X963560Y718400D01*
X963090Y717300D01*
X962590Y716210D01*
X962050Y715130D01*
X961480Y714080D01*
X960870Y713040D01*
X960220Y712030D01*
X959550Y711030D01*
X958840Y710060D01*
X958090Y709120D01*
X957320Y708200D01*
X956520Y707300D01*
X955690Y706430D01*
X954830Y705600D01*
X953940Y704790D01*
X953030Y704010D01*
X952090Y703260D01*
X951120Y702540D01*
X950140Y701850D01*
X949130Y701200D01*
X948100Y700580D01*
X947040Y700000D01*
X945980Y699450D01*
X944890Y698940D01*
X943780Y698460D01*
X942670Y698020D01*
X941530Y697620D01*
X940390Y697260D01*
X939230Y696930D01*
X938060Y696650D01*
X936890Y696400D01*
X935700Y696190D01*
X934520Y696020D01*
X933320Y695890D01*
X932120Y695800D01*
X930920Y695750D01*
X929720Y695740D01*
X928520Y695770D01*
X927320Y695840D01*
X926120Y695950D01*
X924930Y696100D01*
X923740Y696290D01*
X922560Y696520D01*
X921390Y696780D01*
X920230Y697090D01*
X919080Y697440D01*
X917940Y697820D01*
X916810Y698240D01*
X915700Y698700D01*
X914610Y699190D01*
X913530Y699720D01*
X912470Y700290D01*
X911430Y700890D01*
X910410Y701520D01*
X909410Y702190D01*
X908430Y702890D01*
X907480Y703630D01*
X906550Y704390D01*
X905650Y705190D01*
X904780Y706010D01*
X903930Y706860D01*
X903120Y707750D01*
X902330Y708650D01*
X901570Y709590D01*
X900840Y710540D01*
X900150Y711530D01*
X899490Y712530D01*
X898860Y713560D01*
X898270Y714600D01*
X897720Y715670D01*
X897190Y716750D01*
X896710Y717850D01*
X896260Y718960D01*
X895850Y720090D01*
X895480Y721230D01*
X895140Y722390D01*
X894840Y723550D01*
X894590Y724730D01*
X894370Y725910D01*
X894190Y727100D01*
X894050Y728290D01*
X893950Y729490D01*
X893890Y730690D01*
X893870Y731890D01*
D11*
X2051230Y479690D02*
X2051250Y480570D01*
X2051310Y481450D01*
X2051410Y482330D01*
X2051550Y483200D01*
X2051730Y484060D01*
X2051940Y484910D01*
X2052200Y485760D01*
X2052490Y486590D01*
X2052820Y487410D01*
X2053190Y488210D01*
X2053590Y488990D01*
X2054030Y489760D01*
X2054500Y490500D01*
X2055010Y491220D01*
X2055540Y491920D01*
X2056110Y492600D01*
X2056710Y493240D01*
X2057340Y493860D01*
X2057990Y494450D01*
X2058670Y495010D01*
X2059380Y495540D01*
X2060100Y496040D01*
X2060850Y496500D01*
X2061620Y496930D01*
X2062410Y497330D01*
X2063220Y497680D01*
X2064040Y498010D01*
X2064870Y498290D01*
X2065720Y498540D01*
X2066580Y498740D01*
X2067440Y498910D01*
X2068310Y499040D01*
X2069190Y499130D01*
X2070070Y499180D01*
X2070950Y499190D01*
X2071830Y499160D01*
X2072710Y499090D01*
X2073580Y498980D01*
X2074450Y498830D01*
X2075310Y498640D01*
X2076170Y498420D01*
X2077010Y498150D01*
X2077830Y497850D01*
X2078650Y497510D01*
X2079450Y497130D01*
X2080220Y496720D01*
X2080980Y496280D01*
X2081720Y495800D01*
X2082440Y495280D01*
X2083130Y494740D01*
X2083800Y494160D01*
X2084440Y493560D01*
X2085050Y492920D01*
X2085640Y492260D01*
X2086190Y491580D01*
X2086710Y490860D01*
X2087200Y490130D01*
X2087650Y489380D01*
X2088070Y488600D01*
X2088460Y487810D01*
X2088810Y487000D01*
X2089120Y486170D01*
X2089390Y485340D01*
X2089630Y484490D01*
X2089830Y483630D01*
X2089990Y482760D01*
X2090110Y481890D01*
X2090190Y481010D01*
X2090230Y480130D01*
Y479250D01*
X2090190Y478370D01*
X2090110Y477490D01*
X2089990Y476620D01*
X2089830Y475750D01*
X2089630Y474890D01*
X2089390Y474040D01*
X2089120Y473210D01*
X2088810Y472380D01*
X2088460Y471570D01*
X2088070Y470780D01*
X2087650Y470000D01*
X2087200Y469250D01*
X2086710Y468520D01*
X2086190Y467800D01*
X2085640Y467120D01*
X2085050Y466460D01*
X2084440Y465820D01*
X2083800Y465220D01*
X2083130Y464640D01*
X2082440Y464100D01*
X2081720Y463580D01*
X2080980Y463100D01*
X2080220Y462660D01*
X2079450Y462250D01*
X2078650Y461870D01*
X2077830Y461530D01*
X2077010Y461230D01*
X2076170Y460960D01*
X2075310Y460740D01*
X2074450Y460550D01*
X2073580Y460400D01*
X2072710Y460290D01*
X2071830Y460220D01*
X2070950Y460190D01*
X2070070Y460200D01*
X2069190Y460250D01*
X2068310Y460340D01*
X2067440Y460470D01*
X2066580Y460640D01*
X2065720Y460840D01*
X2064870Y461090D01*
X2064040Y461370D01*
X2063220Y461700D01*
X2062410Y462050D01*
X2061620Y462450D01*
X2060850Y462880D01*
X2060100Y463340D01*
X2059380Y463840D01*
X2058670Y464370D01*
X2057990Y464930D01*
X2057340Y465520D01*
X2056710Y466140D01*
X2056110Y466780D01*
X2055540Y467460D01*
X2055010Y468160D01*
X2054500Y468880D01*
X2054030Y469620D01*
X2053590Y470390D01*
X2053190Y471170D01*
X2052820Y471970D01*
X2052490Y472790D01*
X2052200Y473620D01*
X2051940Y474470D01*
X2051730Y475320D01*
X2051550Y476180D01*
X2051410Y477050D01*
X2051310Y477930D01*
X2051250Y478810D01*
X2051230Y479690D01*
X2011230Y679690D02*
X2011250Y680570D01*
X2011310Y681450D01*
X2011410Y682330D01*
X2011550Y683200D01*
X2011730Y684060D01*
X2011940Y684910D01*
X2012200Y685760D01*
X2012490Y686590D01*
X2012820Y687410D01*
X2013190Y688210D01*
X2013590Y688990D01*
X2014030Y689760D01*
X2014500Y690500D01*
X2015010Y691220D01*
X2015540Y691920D01*
X2016110Y692600D01*
X2016710Y693240D01*
X2017340Y693860D01*
X2017990Y694450D01*
X2018670Y695010D01*
X2019380Y695540D01*
X2020100Y696040D01*
X2020850Y696500D01*
X2021620Y696930D01*
X2022410Y697330D01*
X2023220Y697680D01*
X2024040Y698010D01*
X2024870Y698290D01*
X2025720Y698540D01*
X2026580Y698740D01*
X2027440Y698910D01*
X2028310Y699040D01*
X2029190Y699130D01*
X2030070Y699180D01*
X2030950Y699190D01*
X2031830Y699160D01*
X2032710Y699090D01*
X2033580Y698980D01*
X2034450Y698830D01*
X2035310Y698640D01*
X2036170Y698420D01*
X2037010Y698150D01*
X2037830Y697850D01*
X2038650Y697510D01*
X2039450Y697130D01*
X2040220Y696720D01*
X2040980Y696280D01*
X2041720Y695800D01*
X2042440Y695280D01*
X2043130Y694740D01*
X2043800Y694160D01*
X2044440Y693560D01*
X2045050Y692920D01*
X2045640Y692260D01*
X2046190Y691580D01*
X2046710Y690860D01*
X2047200Y690130D01*
X2047650Y689380D01*
X2048070Y688600D01*
X2048460Y687810D01*
X2048810Y687000D01*
X2049120Y686170D01*
X2049390Y685340D01*
X2049630Y684490D01*
X2049830Y683630D01*
X2049990Y682760D01*
X2050110Y681890D01*
X2050190Y681010D01*
X2050230Y680130D01*
Y679250D01*
X2050190Y678370D01*
X2050110Y677490D01*
X2049990Y676620D01*
X2049830Y675750D01*
X2049630Y674890D01*
X2049390Y674040D01*
X2049120Y673210D01*
X2048810Y672380D01*
X2048460Y671570D01*
X2048070Y670780D01*
X2047650Y670000D01*
X2047200Y669250D01*
X2046710Y668520D01*
X2046190Y667800D01*
X2045640Y667120D01*
X2045050Y666460D01*
X2044440Y665820D01*
X2043800Y665220D01*
X2043130Y664640D01*
X2042440Y664100D01*
X2041720Y663580D01*
X2040980Y663100D01*
X2040220Y662660D01*
X2039450Y662250D01*
X2038650Y661870D01*
X2037830Y661530D01*
X2037010Y661230D01*
X2036170Y660960D01*
X2035310Y660740D01*
X2034450Y660550D01*
X2033580Y660400D01*
X2032710Y660290D01*
X2031830Y660220D01*
X2030950Y660190D01*
X2030070Y660200D01*
X2029190Y660250D01*
X2028310Y660340D01*
X2027440Y660470D01*
X2026580Y660640D01*
X2025720Y660840D01*
X2024870Y661090D01*
X2024040Y661370D01*
X2023220Y661700D01*
X2022410Y662050D01*
X2021620Y662450D01*
X2020850Y662880D01*
X2020100Y663340D01*
X2019380Y663840D01*
X2018670Y664370D01*
X2017990Y664930D01*
X2017340Y665520D01*
X2016710Y666140D01*
X2016110Y666780D01*
X2015540Y667460D01*
X2015010Y668160D01*
X2014500Y668880D01*
X2014030Y669620D01*
X2013590Y670390D01*
X2013190Y671170D01*
X2012820Y671970D01*
X2012490Y672790D01*
X2012200Y673620D01*
X2011940Y674470D01*
X2011730Y675320D01*
X2011550Y676180D01*
X2011410Y677050D01*
X2011310Y677930D01*
X2011250Y678810D01*
X2011230Y679690D01*
X2091230D02*
X2091250Y680570D01*
X2091310Y681450D01*
X2091410Y682330D01*
X2091550Y683200D01*
X2091730Y684060D01*
X2091940Y684910D01*
X2092200Y685760D01*
X2092490Y686590D01*
X2092820Y687410D01*
X2093190Y688210D01*
X2093590Y688990D01*
X2094030Y689760D01*
X2094500Y690500D01*
X2095010Y691220D01*
X2095540Y691920D01*
X2096110Y692600D01*
X2096710Y693240D01*
X2097340Y693860D01*
X2097990Y694450D01*
X2098670Y695010D01*
X2099380Y695540D01*
X2100100Y696040D01*
X2100850Y696500D01*
X2101620Y696930D01*
X2102410Y697330D01*
X2103220Y697680D01*
X2104040Y698010D01*
X2104870Y698290D01*
X2105720Y698540D01*
X2106580Y698740D01*
X2107440Y698910D01*
X2108310Y699040D01*
X2109190Y699130D01*
X2110070Y699180D01*
X2110950Y699190D01*
X2111830Y699160D01*
X2112710Y699090D01*
X2113580Y698980D01*
X2114450Y698830D01*
X2115310Y698640D01*
X2116170Y698420D01*
X2117010Y698150D01*
X2117830Y697850D01*
X2118650Y697510D01*
X2119450Y697130D01*
X2120220Y696720D01*
X2120980Y696280D01*
X2121720Y695800D01*
X2122440Y695280D01*
X2123130Y694740D01*
X2123800Y694160D01*
X2124440Y693560D01*
X2125050Y692920D01*
X2125640Y692260D01*
X2126190Y691580D01*
X2126710Y690860D01*
X2127200Y690130D01*
X2127650Y689380D01*
X2128070Y688600D01*
X2128460Y687810D01*
X2128810Y687000D01*
X2129120Y686170D01*
X2129390Y685340D01*
X2129630Y684490D01*
X2129830Y683630D01*
X2129990Y682760D01*
X2130110Y681890D01*
X2130190Y681010D01*
X2130230Y680130D01*
Y679250D01*
X2130190Y678370D01*
X2130110Y677490D01*
X2129990Y676620D01*
X2129830Y675750D01*
X2129630Y674890D01*
X2129390Y674040D01*
X2129120Y673210D01*
X2128810Y672380D01*
X2128460Y671570D01*
X2128070Y670780D01*
X2127650Y670000D01*
X2127200Y669250D01*
X2126710Y668520D01*
X2126190Y667800D01*
X2125640Y667120D01*
X2125050Y666460D01*
X2124440Y665820D01*
X2123800Y665220D01*
X2123130Y664640D01*
X2122440Y664100D01*
X2121720Y663580D01*
X2120980Y663100D01*
X2120220Y662660D01*
X2119450Y662250D01*
X2118650Y661870D01*
X2117830Y661530D01*
X2117010Y661230D01*
X2116170Y660960D01*
X2115310Y660740D01*
X2114450Y660550D01*
X2113580Y660400D01*
X2112710Y660290D01*
X2111830Y660220D01*
X2110950Y660190D01*
X2110070Y660200D01*
X2109190Y660250D01*
X2108310Y660340D01*
X2107440Y660470D01*
X2106580Y660640D01*
X2105720Y660840D01*
X2104870Y661090D01*
X2104040Y661370D01*
X2103220Y661700D01*
X2102410Y662050D01*
X2101620Y662450D01*
X2100850Y662880D01*
X2100100Y663340D01*
X2099380Y663840D01*
X2098670Y664370D01*
X2097990Y664930D01*
X2097340Y665520D01*
X2096710Y666140D01*
X2096110Y666780D01*
X2095540Y667460D01*
X2095010Y668160D01*
X2094500Y668880D01*
X2094030Y669620D01*
X2093590Y670390D01*
X2093190Y671170D01*
X2092820Y671970D01*
X2092490Y672790D01*
X2092200Y673620D01*
X2091940Y674470D01*
X2091730Y675320D01*
X2091550Y676180D01*
X2091410Y677050D01*
X2091310Y677930D01*
X2091250Y678810D01*
X2091230Y679690D01*
D12*
X1275140Y36820D02*
X1276930Y36850D01*
X1278710Y36930D01*
X1280500Y37040D01*
X1282280Y37210D01*
X1284060Y37410D01*
X1285830Y37660D01*
X1287590Y37950D01*
X1289350Y38280D01*
X1291100Y38650D01*
X1292840Y39070D01*
X1294570Y39530D01*
X1296280Y40030D01*
X1297990Y40570D01*
X1299680Y41160D01*
X1301350Y41780D01*
X1303010Y42450D01*
X1304660Y43150D01*
X1306280Y43890D01*
X1307890Y44680D01*
X1309480Y45500D01*
X1311050Y46360D01*
X1312590Y47260D01*
X1314120Y48190D01*
X1315620Y49170D01*
X1317100Y50180D01*
X1318550Y51220D01*
X1319970Y52300D01*
X1321370Y53410D01*
X1322750Y54560D01*
X1324090Y55740D01*
X1325410Y56950D01*
X1326690Y58190D01*
X1327950Y59460D01*
X1329170Y60770D01*
X1330360Y62100D01*
X1331520Y63460D01*
X1332650Y64850D01*
X1333740Y66270D01*
X1334800Y67710D01*
X1335820Y69180D01*
X1336810Y70670D01*
X1337760Y72180D01*
X1338670Y73720D01*
X1339550Y75280D01*
X1340380Y76860D01*
X1341180Y78460D01*
X1341940Y80080D01*
X1342660Y81720D01*
X1343340Y83370D01*
X1343980Y85040D01*
X1344580Y86730D01*
X1345140Y88430D01*
X1345660Y90140D01*
X1346130Y91860D01*
X1346570Y93600D01*
X1346960Y95340D01*
X1347310Y97100D01*
X1347620Y98860D01*
X1347880Y100630D01*
X1348100Y102400D01*
X1348280Y104180D01*
X1348410Y105960D01*
X1348500Y107750D01*
X1348550Y109540D01*
Y389450D01*
X1355320Y393170D01*
X1359750Y395760D01*
X1364120Y398450D01*
X1368420Y401250D01*
X1372660Y404150D01*
X1376820Y407150D01*
X1380910Y410250D01*
X1384930Y413450D01*
X1388870Y416740D01*
X1392730Y420120D01*
X1396510Y423590D01*
X1400200Y427150D01*
X1403820Y430800D01*
X1407340Y434530D01*
X1410770Y438340D01*
X1414120Y442240D01*
X1417360Y446210D01*
X1419770Y449610D01*
X1422090Y453080D01*
X1424330Y456600D01*
X1426480Y460170D01*
X1428540Y463790D01*
X1430510Y467470D01*
X1432390Y471190D01*
X1434180Y474960D01*
X1435880Y478770D01*
X1437490Y482620D01*
X1438990Y486510D01*
X1440410Y490430D01*
X1441720Y494390D01*
X1442940Y498380D01*
X1444060Y502390D01*
X1445090Y506440D01*
X1446010Y510510D01*
X1446830Y514590D01*
X1447560Y518700D01*
X1448180Y522830D01*
X1448700Y526960D01*
X1449120Y531110D01*
X1449430Y535270D01*
X1449650Y539440D01*
X1449760Y543610D01*
X1449770Y547780D01*
X1449680Y551950D01*
X1449490Y556110D01*
X1449190Y560270D01*
X1448790Y564430D01*
X1448290Y568570D01*
X1447690Y572690D01*
X1446990Y576810D01*
X1446190Y580900D01*
X1445290Y584970D01*
X1444290Y589020D01*
X1443190Y593040D01*
X1441990Y597040D01*
X1440690Y601000D01*
X1439300Y604930D01*
X1437810Y608830D01*
X1436230Y612690D01*
X1434550Y616510D01*
X1432780Y620280D01*
X1430910Y624010D01*
X1428960Y627700D01*
X1426920Y631330D01*
X1424790Y634920D01*
X1422570Y638450D01*
X1420260Y641930D01*
X1417870Y645340D01*
X1415400Y648700D01*
X1412840Y652000D01*
X1410210Y655230D01*
X1407500Y658400D01*
X1404710Y661500D01*
X1401840Y664530D01*
X1398910Y667490D01*
X1395900Y670380D01*
X1392820Y673190D01*
X1389670Y675930D01*
X1386460Y678590D01*
X1383180Y681170D01*
X1379840Y683670D01*
X1376440Y686080D01*
X1372980Y688410D01*
X1369460Y690660D01*
X1365900Y692820D01*
X1362280Y694890D01*
X1358610Y696870D01*
X1354700Y698740D01*
X1350750Y700520D01*
X1346750Y702200D01*
X1342720Y703780D01*
X1338640Y705270D01*
X1334540Y706650D01*
X1330400Y707930D01*
X1326230Y709110D01*
X1322030Y710190D01*
X1317800Y711160D01*
X1313560Y712030D01*
X1309290Y712800D01*
X1305010Y713460D01*
X1300710Y714020D01*
X1296400Y714470D01*
X1292080Y714820D01*
X1287750Y715060D01*
X1283420Y715190D01*
X1279080Y715220D01*
X1274750Y715140D01*
X1270420Y714950D01*
X1266100Y714660D01*
X1261780Y714270D01*
X1257480Y713760D01*
X1253180Y713160D01*
X1248910Y712440D01*
X1244650Y711630D01*
X1240420Y710710D01*
X1236210Y709680D01*
X1232020Y708550D01*
X1227860Y707330D01*
X1223740Y706000D01*
X1219650Y704560D01*
X1215590Y703030D01*
X1211580Y701400D01*
X1207600Y699670D01*
X1203670Y697850D01*
X1199780Y695930D01*
X1195950Y693910D01*
X1192160Y691810D01*
X1188430Y689610D01*
X1184750Y687310D01*
X1181120Y684930D01*
X1177560Y682470D01*
X1174060Y679910D01*
X1170620Y677270D01*
X1167250Y674550D01*
X1163950Y671740D01*
X1160710Y668860D01*
X1157550Y665890D01*
X1154460Y662850D01*
X1151450Y659740D01*
X1148510Y656550D01*
X1145650Y653290D01*
X1142880Y649960D01*
X1140180Y646570D01*
X1137570Y643110D01*
X1135050Y639590D01*
X1132610Y636000D01*
X1130260Y632360D01*
X1128000Y628660D01*
X1125830Y624910D01*
X1123750Y621100D01*
X1121770Y617250D01*
X1119880Y613350D01*
X1118090Y609400D01*
X1115990Y605100D01*
X1114680Y600920D01*
X1113460Y596700D01*
X1112350Y592450D01*
X1111340Y588180D01*
X1110440Y583890D01*
X1109640Y579570D01*
X1108950Y575240D01*
X1108370Y570890D01*
X1107890Y566530D01*
X1107510Y562160D01*
X1107240Y557780D01*
X1107080Y553390D01*
X1107030Y549010D01*
X1107080Y544620D01*
X1107240Y540230D01*
X1107510Y535850D01*
X1107880Y531480D01*
X1108360Y527120D01*
X1108950Y522770D01*
X1109640Y518440D01*
X1110440Y514120D01*
X1111340Y509830D01*
X1112340Y505560D01*
X1113450Y501310D01*
X1114670Y497100D01*
X1115980Y492910D01*
X1117400Y488760D01*
X1118910Y484640D01*
X1120530Y480560D01*
X1122250Y476520D01*
X1124060Y472530D01*
X1125970Y468580D01*
X1127980Y464670D01*
X1130080Y460820D01*
X1132270Y457020D01*
X1134560Y453280D01*
X1136930Y449590D01*
X1139400Y445960D01*
X1141950Y442390D01*
X1144590Y438880D01*
X1147320Y435440D01*
X1150120Y432070D01*
X1153010Y428770D01*
X1155980Y425540D01*
X1159020Y422380D01*
X1162140Y419290D01*
X1165340Y416290D01*
X1168610Y413360D01*
X1171950Y410510D01*
X1175350Y407740D01*
X1178830Y405060D01*
X1182360Y402470D01*
X1185960Y399960D01*
X1189620Y397540D01*
X1193340Y395210D01*
X1197110Y392970D01*
X1200940Y390820D01*
X1204820Y388760D01*
X1208740Y386810D01*
X1212720Y384940D01*
X1216730Y383180D01*
X1220790Y381510D01*
X1224900Y379940D01*
Y157210D01*
X990270D01*
Y589210D01*
X999810Y593980D01*
X1003820Y596050D01*
X1007790Y598210D01*
X1011700Y600470D01*
X1015550Y602820D01*
X1019350Y605270D01*
X1023080Y607800D01*
X1026760Y610430D01*
X1030370Y613140D01*
X1033910Y615940D01*
X1037380Y618820D01*
X1040790Y621790D01*
X1044120Y624840D01*
X1047380Y627970D01*
X1050560Y631170D01*
X1053660Y634450D01*
X1056680Y637810D01*
X1059620Y641230D01*
X1062480Y644730D01*
X1065250Y648290D01*
X1067940Y651920D01*
X1069650Y655430D01*
X1071270Y658990D01*
X1072810Y662580D01*
X1074250Y666220D01*
X1075610Y669880D01*
X1076870Y673580D01*
X1078050Y677310D01*
X1079130Y681070D01*
X1080120Y684850D01*
X1081010Y688660D01*
X1081820Y692480D01*
X1082520Y696330D01*
X1083140Y700190D01*
X1083660Y704060D01*
X1084080Y707950D01*
X1084410Y711850D01*
X1084640Y715750D01*
X1084780Y719660D01*
X1084820Y723570D01*
X1084760Y727470D01*
X1084610Y731380D01*
X1084370Y735280D01*
X1084020Y739180D01*
X1083590Y743060D01*
X1083050Y746940D01*
X1082430Y750790D01*
X1081700Y754640D01*
X1080890Y758460D01*
X1079980Y762260D01*
X1078980Y766040D01*
X1077880Y769790D01*
X1076690Y773520D01*
X1075410Y777210D01*
X1074050Y780880D01*
X1072590Y784500D01*
X1071040Y788090D01*
X1069410Y791650D01*
X1067690Y795160D01*
X1065880Y798620D01*
X1063990Y802050D01*
X1062020Y805420D01*
X1059960Y808750D01*
X1057820Y812020D01*
X1055610Y815240D01*
X1053310Y818400D01*
X1050940Y821510D01*
X1048490Y824560D01*
X1045970Y827550D01*
X1043370Y830470D01*
X1040710Y833330D01*
X1037970Y836130D01*
X1035170Y838850D01*
X1032300Y841510D01*
X1029370Y844090D01*
X1026370Y846610D01*
X1023320Y849050D01*
X1020200Y851410D01*
X1017030Y853690D01*
X1013800Y855900D01*
X1010520Y858030D01*
X1007190Y860070D01*
X1003810Y862040D01*
X1000380Y863920D01*
X996910Y865710D01*
X996970Y866070D01*
X993540Y867680D01*
X990080Y869210D01*
X986570Y870650D01*
X983040Y872010D01*
X979470Y873280D01*
X975870Y874470D01*
X972240Y875560D01*
X968590Y876570D01*
X964910Y877490D01*
X961210Y878320D01*
X957500Y879060D01*
X953760Y879720D01*
X950020Y880280D01*
X946260Y880750D01*
X942490Y881130D01*
X938710Y881410D01*
X934920Y881610D01*
X931140Y881710D01*
X927350Y881720D01*
X923560Y881640D01*
X919770Y881470D01*
X915990Y881210D01*
X912220Y880860D01*
X908460Y880410D01*
X904710Y879870D01*
X900970Y879250D01*
X897250Y878530D01*
X893540Y877720D01*
X889860Y876820D01*
X886200Y875840D01*
X882570Y874760D01*
X878960Y873600D01*
X875390Y872350D01*
X871840Y871020D01*
X868330Y869600D01*
X864850Y868090D01*
X861410Y866500D01*
X858010Y864830D01*
X854650Y863080D01*
X851330Y861240D01*
X848060Y859330D01*
X844840Y857340D01*
X841670Y855270D01*
X838540Y853120D01*
X835470Y850900D01*
X832460Y848600D01*
X829500Y846240D01*
X826600Y843800D01*
X823760Y841290D01*
X820980Y838710D01*
X818260Y836070D01*
X815610Y833370D01*
X813030Y830590D01*
X810510Y827760D01*
X808060Y824870D01*
X805680Y821920D01*
X803380Y818910D01*
X801150Y815850D01*
X798990Y812730D01*
X796910Y809560D01*
X794910Y806350D01*
X792980Y803080D01*
X791140Y799770D01*
X789370Y796420D01*
X787690Y793020D01*
X786090Y789590D01*
X784580Y786120D01*
X783140Y782610D01*
X781900Y779080D01*
X780740Y775520D01*
X779670Y771930D01*
X778680Y768320D01*
X777780Y764680D01*
X776980Y761030D01*
X776260Y757350D01*
X775630Y753660D01*
X775090Y749950D01*
X774640Y746230D01*
X774280Y742500D01*
X774020Y738770D01*
X773840Y735030D01*
X773760Y731280D01*
X773770Y727540D01*
X773860Y723790D01*
X774050Y720050D01*
X774330Y716320D01*
X774710Y712590D01*
X775170Y708880D01*
X775720Y705170D01*
X776370Y701480D01*
X777100Y697810D01*
X777920Y694160D01*
X778830Y690520D01*
X779830Y686910D01*
X780920Y683330D01*
X782090Y679770D01*
X783350Y676250D01*
X784700Y672750D01*
X786130Y669290D01*
X787640Y665860D01*
X789240Y662480D01*
X790920Y659130D01*
X792680Y655820D01*
X794520Y652560D01*
X796440Y649350D01*
X798440Y646180D01*
X800510Y643060D01*
X802660Y639990D01*
X804890Y636980D01*
X807180Y634020D01*
X809550Y631120D01*
X811990Y628280D01*
X814500Y625490D01*
X817070Y622770D01*
X819710Y620120D01*
X822410Y617520D01*
X825180Y615000D01*
X828000Y612540D01*
X830890Y610150D01*
X833830Y607840D01*
X836830Y605590D01*
X839880Y603420D01*
X842990Y601330D01*
X846140Y599310D01*
X849340Y597360D01*
X852590Y595500D01*
X855880Y593720D01*
X859220Y592020D01*
X862600Y590390D01*
X866010Y588860D01*
X869460Y587400D01*
X872950Y586040D01*
Y157210D01*
X741910D01*
X740640Y157290D01*
X739370Y157420D01*
X738110Y157580D01*
X736850Y157780D01*
X735590Y158010D01*
X734350Y158290D01*
X733110Y158600D01*
X731890Y158950D01*
X730670Y159330D01*
X729470Y159750D01*
X728280Y160210D01*
X727100Y160700D01*
X725940Y161230D01*
X724800Y161790D01*
X723670Y162390D01*
X722560Y163020D01*
X721470Y163680D01*
X720400Y164370D01*
X719360Y165100D01*
X718330Y165850D01*
X717330Y166640D01*
X716350Y167460D01*
X715390Y168300D01*
X714470Y169180D01*
X713570Y170080D01*
X712690Y171010D01*
X711850Y171960D01*
X711030Y172940D01*
X710240Y173940D01*
X709480Y174970D01*
X708760Y176020D01*
X708060Y177090D01*
X707400Y178180D01*
X706770Y179280D01*
X706180Y180410D01*
X705620Y181560D01*
X705090Y182720D01*
X704600Y183890D01*
X704140Y185080D01*
X703720Y186290D01*
X703340Y187500D01*
X702990Y188730D01*
X702680Y189960D01*
X702400Y191210D01*
X702170Y192460D01*
X701970Y193720D01*
X701810Y194990D01*
X701680Y196250D01*
X701600Y197530D01*
X701550Y198800D01*
X701540Y200070D01*
X701570Y201340D01*
Y925210D01*
X701430Y926600D01*
X701340Y927990D01*
X701290Y929380D01*
X701270Y930780D01*
X701300Y932170D01*
X701360Y933560D01*
X701460Y934950D01*
X701610Y936340D01*
X701790Y937720D01*
X702010Y939100D01*
X702280Y940470D01*
X702580Y941830D01*
X702910Y943180D01*
X703290Y944520D01*
X703710Y945850D01*
X704160Y947170D01*
X704650Y948470D01*
X705180Y949760D01*
X705740Y951040D01*
X706340Y952300D01*
X706980Y953540D01*
X707650Y954760D01*
X708360Y955960D01*
X709100Y957140D01*
X709870Y958300D01*
X710670Y959440D01*
X711510Y960550D01*
X712380Y961640D01*
X713280Y962710D01*
X714210Y963740D01*
X715170Y964760D01*
X716150Y965740D01*
X717170Y966690D01*
X718210Y967620D01*
X719280Y968520D01*
X720370Y969380D01*
X721490Y970220D01*
X722630Y971020D01*
X723790Y971790D01*
X724970Y972520D01*
X726180Y973220D01*
X727400Y973890D01*
X728650Y974520D01*
X729910Y975120D01*
X731180Y975680D01*
X732470Y976200D01*
X733780Y976690D01*
X735100Y977130D01*
X736430Y977550D01*
X737770Y977920D01*
X739130Y978250D01*
X740490Y978550D01*
X741860Y978810D01*
X743230Y979020D01*
X744620Y979200D01*
X1465780D01*
X1467270Y979260D01*
X1468760Y979270D01*
X1470250Y979240D01*
X1471740Y979180D01*
X1473230Y979080D01*
X1474720Y978940D01*
X1476200Y978760D01*
X1477670Y978540D01*
X1479140Y978280D01*
X1480600Y977990D01*
X1482060Y977660D01*
X1483500Y977280D01*
X1484940Y976880D01*
X1486360Y976430D01*
X1487770Y975950D01*
X1489170Y975430D01*
X1490550Y974870D01*
X1491920Y974280D01*
X1493280Y973660D01*
X1494610Y972990D01*
X1495930Y972300D01*
X1497230Y971570D01*
X1498510Y970800D01*
X1499770Y970010D01*
X1501010Y969180D01*
X1502230Y968310D01*
X1503430Y967420D01*
X1504600Y966500D01*
X1505740Y965540D01*
X1506860Y964560D01*
X1507960Y963550D01*
X1509030Y962500D01*
X1510070Y961440D01*
X1511080Y960340D01*
X1512060Y959220D01*
X1513020Y958070D01*
X1513940Y956900D01*
X1514830Y955710D01*
X1515700Y954490D01*
X1516530Y953250D01*
X1517320Y951990D01*
X1518090Y950710D01*
X1518820Y949410D01*
X1519510Y948090D01*
X1520170Y946750D01*
X1520800Y945400D01*
X1521390Y944030D01*
X1521950Y942640D01*
X1522460Y941240D01*
X1522950Y939830D01*
X1523390Y938410D01*
X1523800Y936970D01*
X1524170Y935530D01*
X1524500Y934080D01*
X1524800Y932610D01*
X1525050Y931140D01*
X1525270Y929670D01*
X1525450Y928190D01*
X1525590Y926700D01*
X1525690Y925210D01*
Y96420D01*
X1525720Y94900D01*
X1525790Y93380D01*
X1525900Y91870D01*
X1526040Y90360D01*
X1526230Y88850D01*
X1526450Y87340D01*
X1526720Y85850D01*
X1527020Y84360D01*
X1527360Y82870D01*
X1527740Y81400D01*
X1528150Y79940D01*
X1528600Y78490D01*
X1529090Y77050D01*
X1529620Y75620D01*
X1530180Y74210D01*
X1530780Y72820D01*
X1531420Y71430D01*
X1532090Y70070D01*
X1532790Y68720D01*
X1533530Y67400D01*
X1534300Y66090D01*
X1535110Y64800D01*
X1535950Y63530D01*
X1536820Y62290D01*
X1537730Y61060D01*
X1538660Y59860D01*
X1539630Y58690D01*
X1540620Y57540D01*
X1541650Y56420D01*
X1542700Y55320D01*
X1543780Y54250D01*
X1544890Y53210D01*
X1546020Y52200D01*
X1547180Y51220D01*
X1548370Y50260D01*
X1549570Y49340D01*
X1550810Y48450D01*
X1552060Y47590D01*
X1553340Y46770D01*
X1554630Y45980D01*
X1555950Y45220D01*
X1557290Y44490D01*
X1558640Y43800D01*
X1560010Y43150D01*
X1561400Y42530D01*
X1562800Y41940D01*
X1564220Y41390D01*
X1565650Y40880D01*
X1567100Y40410D01*
X1568550Y39970D01*
X1570020Y39570D01*
X1571500Y39210D01*
X1572980Y38890D01*
X1574470Y38600D01*
X1575970Y38360D01*
X1577480Y38150D01*
X1578990Y37980D01*
X1580510Y37850D01*
X1582020Y37760D01*
X1583540Y37700D01*
X1585060Y37690D01*
X1586580Y37720D01*
X1588100Y37780D01*
X1589570Y37890D01*
X1591030Y38030D01*
X1592480Y38200D01*
X1593930Y38420D01*
X1595380Y38680D01*
X1596810Y38970D01*
X1598240Y39300D01*
X1599660Y39670D01*
X1601070Y40080D01*
X1602460Y40530D01*
X1603850Y41010D01*
X1605220Y41530D01*
X1606580Y42080D01*
X1607920Y42680D01*
X1609240Y43300D01*
X1610550Y43960D01*
X1611840Y44660D01*
X1613110Y45390D01*
X1614370Y46160D01*
X1615600Y46950D01*
X1616810Y47780D01*
X1617990Y48640D01*
X1619160Y49540D01*
X1620290Y50460D01*
X1621410Y51410D01*
X1622500Y52400D01*
X1623560Y53410D01*
X1624590Y54450D01*
X1625600Y55520D01*
X1626570Y56610D01*
X1627520Y57730D01*
X1628440Y58870D01*
X1629330Y60040D01*
X1630180Y61230D01*
X1631010Y62440D01*
X1631800Y63680D01*
X1632550Y64930D01*
X1633280Y66210D01*
X1633970Y67500D01*
X1634620Y68810D01*
X1635240Y70140D01*
X1635830Y71490D01*
X1636380Y72850D01*
X1636890Y74220D01*
X1637360Y75610D01*
X1637800Y77010D01*
X1638200Y78420D01*
X1638560Y79840D01*
X1638890Y81270D01*
X1639180Y82710D01*
X1639420Y84150D01*
X1639630Y85600D01*
X1639810Y87060D01*
X1639940Y88520D01*
X1640030Y89980D01*
X1640080Y91450D01*
X1640100Y92910D01*
Y224580D01*
X1735370D01*
X1789270Y227750D01*
X1805130Y230920D01*
X1814640Y234090D01*
X1822660Y238100D01*
X1824720Y238840D01*
X1826790Y239530D01*
X1828870Y240170D01*
X1830970Y240760D01*
X1833080Y241310D01*
X1835210Y241810D01*
X1837340Y242270D01*
X1839490Y242670D01*
X1841640Y243030D01*
X1843800Y243340D01*
X1845960Y243600D01*
X1931950D01*
X1966830Y246770D01*
X2001710Y256290D01*
X2036590Y272140D01*
X2061950Y284820D01*
X2106340Y329210D01*
X2134880Y364090D01*
X2150730Y392620D01*
X2166580Y433840D01*
X2176100Y468720D01*
Y639940D01*
X2172930Y681160D01*
X2160240Y725540D01*
X2144390Y760420D01*
X2122190Y795300D01*
X2106340Y817490D01*
X2090490Y833350D01*
X2065120Y852370D01*
X2036590Y874570D01*
X2008050Y890420D01*
X1976340Y903100D01*
X1941470Y912610D01*
X1912930Y915780D01*
Y960170D01*
X1909760Y1007730D01*
X1906590Y1055290D01*
X1897080Y1102850D01*
X1887570Y1150410D01*
X1871710Y1197970D01*
X1859030Y1236020D01*
X1846350Y1267730D01*
X1833660Y1293090D01*
X1820980Y1318460D01*
X1808300Y1343820D01*
X1782930Y1381870D01*
X1757570Y1419920D01*
X1722690Y1461140D01*
X1643420Y1540410D01*
X1605380Y1572110D01*
X1583180Y1587970D01*
X1545130Y1613330D01*
X1526110Y1632350D01*
X1512270Y1652540D01*
X1486900Y1672900D01*
X1469040Y1683090D01*
X1402450Y1711620D01*
X1354890Y1727470D01*
X1288310Y1743330D01*
X1240750Y1752840D01*
X1196360Y1759180D01*
X1155140Y1762350D01*
X1066360D01*
X1018800Y1759180D01*
X961730Y1752840D01*
X914170Y1743330D01*
X863440Y1730650D01*
X815880Y1714790D01*
X727100Y1676740D01*
X708570Y1662050D01*
X694720Y1648210D01*
X685880Y1635530D01*
X666860Y1610160D01*
X644660Y1594310D01*
X625640Y1581620D01*
X603450Y1565770D01*
X555890Y1524550D01*
X505160Y1473820D01*
X467110Y1429430D01*
X438570Y1388210D01*
X403690Y1334310D01*
X378330Y1283580D01*
X359300Y1239190D01*
X340280Y1188460D01*
X324430Y1121880D01*
X311740Y1064810D01*
X305400Y1001390D01*
X302230Y915780D01*
X245160D01*
X188090Y896760D01*
X140530Y868220D01*
X102480Y830180D01*
X73940Y776270D01*
X51750Y722370D01*
X39070Y658960D01*
Y519450D01*
X42240Y478230D01*
X64430Y405310D01*
X102480Y335550D01*
X146870Y291160D01*
X197600Y265800D01*
X238820Y249940D01*
X270530Y243600D01*
X367020D01*
X369350Y243570D01*
X371680Y243490D01*
X374000Y243350D01*
X376320Y243160D01*
X378630Y242910D01*
X380940Y242600D01*
X383240Y242250D01*
X385530Y241830D01*
X387820Y241360D01*
X390080Y240840D01*
X392340Y240270D01*
X394580Y239640D01*
X396810Y238950D01*
X399020Y238220D01*
X401210Y237430D01*
X417960Y231180D01*
X420250Y230360D01*
X422550Y229590D01*
X424870Y228880D01*
X427210Y228220D01*
X429560Y227620D01*
X431930Y227070D01*
X434300Y226580D01*
X436690Y226150D01*
X439090Y225770D01*
X441500Y225450D01*
X443910Y225180D01*
X446330Y224970D01*
X448750Y224820D01*
X451180Y224730D01*
X453610Y224690D01*
X486130Y224580D01*
X581250D01*
X584420Y221410D01*
Y199710D01*
X584470Y195720D01*
X584620Y191740D01*
X584860Y187760D01*
X585200Y183790D01*
X585640Y179830D01*
X586170Y175870D01*
X586810Y171940D01*
X587530Y168020D01*
X588360Y164120D01*
X589280Y160240D01*
X590290Y156380D01*
X591400Y152550D01*
X592600Y148750D01*
X593890Y144980D01*
X595280Y141240D01*
X596750Y137540D01*
X598320Y133870D01*
X599980Y130250D01*
X601720Y126660D01*
X603550Y123120D01*
X605470Y119620D01*
X607470Y116180D01*
X609560Y112780D01*
X611730Y109440D01*
X613980Y106140D01*
X616310Y102910D01*
X618720Y99730D01*
X621200Y96620D01*
X623760Y93560D01*
X626400Y90570D01*
X629110Y87640D01*
X631880Y84780D01*
X634730Y81990D01*
X637650Y79270D01*
X640630Y76630D01*
X643670Y74050D01*
X646780Y71550D01*
X649950Y69130D01*
X653170Y66790D01*
X656450Y64520D01*
X659790Y62340D01*
X663180Y60240D01*
X666620Y58220D01*
X670100Y56290D01*
X673640Y54440D01*
X677220Y52690D01*
X680830Y51010D01*
X684490Y49430D01*
X688190Y47940D01*
X691920Y46540D01*
X695690Y45230D01*
X699490Y44010D01*
X703310Y42890D01*
X707160Y41860D01*
X711040Y40930D01*
X714940Y40090D01*
X718850Y39340D01*
X722790Y38690D01*
X726730Y38140D01*
X730700Y37690D01*
X734670Y37330D01*
X738640Y37070D01*
X742630Y36910D01*
X746620Y36840D01*
X1273350D01*
X1275140Y36820D01*
M02*
