%FSLAX46Y46*%
%MOIN*%
%ADD10R,0.0315X0.0315*%
%LPD*%
D10*
X641660Y537980D03*
Y597030D03*
X933200Y453860D03*
Y394800D03*
X1249270Y649450D03*
X1308330D03*
X1581660Y597030D03*
Y537980D03*
X1286660Y327030D03*
Y267980D03*
X1581660Y197030D03*
Y137980D03*
X971190Y97510D03*
X912130D03*
X900500Y820660D03*
X959550D03*
X1082130Y1037510D03*
X1141190D03*
G36*
X660780Y126120D02*
G01*
X638510Y148390D01*
X660780Y170660D01*
X683050Y148390D01*
X660780Y126120D01*
G37*
G36*
X702540Y84360D02*
X680270Y106630D01*
X702540Y128900D01*
X724810Y106630D01*
X702540Y84360D01*
G37*
G36*
X1207370Y483680D02*
X1223120Y456410D01*
X1195850Y440660D01*
X1180100Y467930D01*
X1207370Y483680D01*
G37*
G36*
X1177840Y534830D02*
X1193590Y507560D01*
X1166320Y491810D01*
X1150570Y519080D01*
X1177840Y534830D01*
G37*
G36*
X1334470Y456410D02*
X1350220Y483680D01*
X1377490Y467930D01*
X1361740Y440660D01*
X1334470Y456410D01*
G37*
G36*
X1364000Y507560D02*
X1379750Y534830D01*
X1407020Y519080D01*
X1391270Y491810D01*
X1364000Y507560D01*
G37*
G36*
X1005720Y707310D02*
X1021470Y734580D01*
X1048740Y718830D01*
X1032990Y691560D01*
X1005720Y707310D01*
G37*
G36*
X976190Y656160D02*
X991940Y683430D01*
X1019210Y667680D01*
X1003460Y640410D01*
X976190Y656160D01*
G37*
G36*
X871280Y680260D02*
X887030Y652990D01*
X859760Y637240D01*
X844010Y664510D01*
X871280Y680260D01*
G37*
G36*
X841750Y731410D02*
X857500Y704140D01*
X830230Y688390D01*
X814480Y715660D01*
X841750Y731410D01*
G37*
G36*
X638510Y986630D02*
X660780Y1008900D01*
X683050Y986630D01*
X660780Y964360D01*
X638510Y986630D01*
G37*
G36*
X680270Y1028390D02*
X702540Y1050660D01*
X724810Y1028390D01*
X702540Y1006120D01*
X680270Y1028390D01*
G37*
G36*
X438580Y1132160D02*
X430430Y1101750D01*
X400020Y1109900D01*
X408170Y1140310D01*
X438580Y1132160D01*
G37*
G36*
X423300Y1075110D02*
X415150Y1044700D01*
X384740Y1052850D01*
X392890Y1083260D01*
X423300Y1075110D01*
G37*
G36*
X569860Y1386830D02*
X549620Y1362710D01*
X525500Y1382950D01*
X545740Y1407070D01*
X569860Y1386830D01*
G37*
G36*
X607820Y1432070D02*
X587580Y1407950D01*
X563460Y1428190D01*
X583700Y1452310D01*
X607820Y1432070D01*
G37*
G36*
X897420Y1593730D02*
X867010Y1585580D01*
X858860Y1615990D01*
X889270Y1624140D01*
X897420Y1593730D01*
G37*
G36*
X954460Y1609020D02*
X924050Y1600870D01*
X915900Y1631280D01*
X946310Y1639430D01*
X954460Y1609020D01*
G37*
G36*
X1277010Y1639430D02*
X1307420Y1631280D01*
X1299270Y1600870D01*
X1268860Y1609020D01*
X1277010Y1639430D01*
G37*
G36*
X1334050Y1624140D02*
X1364460Y1615990D01*
X1356310Y1585580D01*
X1325900Y1593730D01*
X1334050Y1624140D01*
G37*
G36*
X1624620Y1452310D02*
X1644860Y1428190D01*
X1620740Y1407950D01*
X1600500Y1432070D01*
X1624620Y1452310D01*
G37*
G36*
X1662580Y1407070D02*
X1682820Y1382950D01*
X1658700Y1362710D01*
X1638460Y1386830D01*
X1662580Y1407070D01*
G37*
G36*
X1815150Y1140310D02*
X1823300Y1109900D01*
X1792890Y1101750D01*
X1784740Y1132160D01*
X1815150Y1140310D01*
G37*
G36*
X1830430Y1083260D02*
X1838580Y1052850D01*
X1808170Y1044700D01*
X1800020Y1075110D01*
X1830430Y1083260D01*
G37*
G36*
X1562540Y964360D02*
X1540270Y986630D01*
X1562540Y1008900D01*
X1584810Y986630D01*
X1562540Y964360D01*
G37*
G36*
X1520780Y1006120D02*
X1498510Y1028390D01*
X1520780Y1050660D01*
X1543050Y1028390D01*
X1520780Y1006120D01*
G37*
G36*
X1309810Y148390D02*
X1287540Y126120D01*
X1265270Y148390D01*
X1287540Y170660D01*
X1309810Y148390D01*
G37*
G36*
X1268050Y106630D02*
X1245780Y84360D01*
X1223510Y106630D01*
X1245780Y128900D01*
X1268050Y106630D01*
G37*
M02*
