G75*
%MOIN*%
%OFA0B0*%
%FSLAX25Y25*%
%IPPOS*%
%LPD*%
%AMOC8*
5,1,8,0,0,1.08239X$1,22.5*
%
%ADD10C,0.00500*%
%ADD11R,0.02762X0.02369*%
%ADD12R,0.03550X0.03550*%
%ADD13C,0.03500*%
%ADD14C,0.00000*%
%ADD15C,0.04300*%
%ADD16C,0.09750*%
%ADD17C,0.01340*%
%ADD18R,0.01739X0.01739*%
%ADD19C,0.01502*%
%ADD20C,0.06306*%
D10*
X0003750Y0001400D02*
X0003750Y0051400D01*
X0103750Y0051400D01*
X0103750Y0001400D01*
X0003750Y0001400D01*
D11*
X0046750Y0024235D03*
X0051750Y0024235D03*
X0056750Y0024235D03*
X0056750Y0028565D03*
X0051750Y0028565D03*
X0046750Y0028565D03*
X0099750Y0020565D03*
X0099750Y0016235D03*
D12*
X0099750Y0027447D03*
X0099750Y0033353D03*
D13*
X0029750Y0028900D03*
X0024750Y0028900D03*
X0019750Y0028900D03*
X0019750Y0023900D03*
X0024750Y0023900D03*
X0029750Y0023900D03*
D14*
X0032800Y0022400D02*
X0032802Y0022488D01*
X0032808Y0022576D01*
X0032818Y0022664D01*
X0032832Y0022751D01*
X0032850Y0022837D01*
X0032871Y0022922D01*
X0032897Y0023007D01*
X0032926Y0023090D01*
X0032959Y0023172D01*
X0032996Y0023252D01*
X0033036Y0023330D01*
X0033080Y0023407D01*
X0033127Y0023481D01*
X0033178Y0023553D01*
X0033231Y0023623D01*
X0033288Y0023691D01*
X0033348Y0023755D01*
X0033411Y0023817D01*
X0033476Y0023876D01*
X0033544Y0023932D01*
X0033615Y0023985D01*
X0033687Y0024035D01*
X0033762Y0024081D01*
X0033839Y0024124D01*
X0033918Y0024164D01*
X0033999Y0024199D01*
X0034081Y0024232D01*
X0034164Y0024260D01*
X0034249Y0024285D01*
X0034335Y0024305D01*
X0034421Y0024322D01*
X0034508Y0024335D01*
X0034596Y0024344D01*
X0034684Y0024349D01*
X0034772Y0024350D01*
X0034860Y0024347D01*
X0034948Y0024340D01*
X0035035Y0024329D01*
X0035122Y0024314D01*
X0035208Y0024295D01*
X0035294Y0024273D01*
X0035378Y0024246D01*
X0035460Y0024216D01*
X0035542Y0024182D01*
X0035622Y0024144D01*
X0035699Y0024103D01*
X0035775Y0024059D01*
X0035849Y0024011D01*
X0035921Y0023959D01*
X0035990Y0023905D01*
X0036057Y0023847D01*
X0036121Y0023787D01*
X0036182Y0023723D01*
X0036241Y0023657D01*
X0036296Y0023589D01*
X0036348Y0023517D01*
X0036397Y0023444D01*
X0036442Y0023369D01*
X0036484Y0023291D01*
X0036523Y0023212D01*
X0036558Y0023131D01*
X0036589Y0023048D01*
X0036616Y0022965D01*
X0036640Y0022880D01*
X0036660Y0022794D01*
X0036676Y0022707D01*
X0036688Y0022620D01*
X0036696Y0022532D01*
X0036700Y0022444D01*
X0036700Y0022356D01*
X0036696Y0022268D01*
X0036688Y0022180D01*
X0036676Y0022093D01*
X0036660Y0022006D01*
X0036640Y0021920D01*
X0036616Y0021835D01*
X0036589Y0021752D01*
X0036558Y0021669D01*
X0036523Y0021588D01*
X0036484Y0021509D01*
X0036442Y0021431D01*
X0036397Y0021356D01*
X0036348Y0021283D01*
X0036296Y0021211D01*
X0036241Y0021143D01*
X0036182Y0021077D01*
X0036121Y0021013D01*
X0036057Y0020953D01*
X0035990Y0020895D01*
X0035921Y0020841D01*
X0035849Y0020789D01*
X0035775Y0020741D01*
X0035699Y0020697D01*
X0035622Y0020656D01*
X0035542Y0020618D01*
X0035460Y0020584D01*
X0035378Y0020554D01*
X0035294Y0020527D01*
X0035208Y0020505D01*
X0035122Y0020486D01*
X0035035Y0020471D01*
X0034948Y0020460D01*
X0034860Y0020453D01*
X0034772Y0020450D01*
X0034684Y0020451D01*
X0034596Y0020456D01*
X0034508Y0020465D01*
X0034421Y0020478D01*
X0034335Y0020495D01*
X0034249Y0020515D01*
X0034164Y0020540D01*
X0034081Y0020568D01*
X0033999Y0020601D01*
X0033918Y0020636D01*
X0033839Y0020676D01*
X0033762Y0020719D01*
X0033687Y0020765D01*
X0033615Y0020815D01*
X0033544Y0020868D01*
X0033476Y0020924D01*
X0033411Y0020983D01*
X0033348Y0021045D01*
X0033288Y0021109D01*
X0033231Y0021177D01*
X0033178Y0021247D01*
X0033127Y0021319D01*
X0033080Y0021393D01*
X0033036Y0021470D01*
X0032996Y0021548D01*
X0032959Y0021628D01*
X0032926Y0021710D01*
X0032897Y0021793D01*
X0032871Y0021878D01*
X0032850Y0021963D01*
X0032832Y0022049D01*
X0032818Y0022136D01*
X0032808Y0022224D01*
X0032802Y0022312D01*
X0032800Y0022400D01*
X0022575Y0016400D02*
X0022577Y0016537D01*
X0022583Y0016673D01*
X0022593Y0016809D01*
X0022607Y0016945D01*
X0022625Y0017081D01*
X0022647Y0017216D01*
X0022672Y0017350D01*
X0022702Y0017483D01*
X0022736Y0017615D01*
X0022773Y0017747D01*
X0022814Y0017877D01*
X0022860Y0018006D01*
X0022908Y0018134D01*
X0022961Y0018260D01*
X0023017Y0018384D01*
X0023077Y0018507D01*
X0023140Y0018628D01*
X0023207Y0018747D01*
X0023277Y0018864D01*
X0023351Y0018980D01*
X0023428Y0019092D01*
X0023508Y0019203D01*
X0023592Y0019311D01*
X0023679Y0019417D01*
X0023768Y0019520D01*
X0023861Y0019620D01*
X0023956Y0019718D01*
X0024055Y0019813D01*
X0024156Y0019905D01*
X0024260Y0019993D01*
X0024366Y0020079D01*
X0024475Y0020162D01*
X0024586Y0020241D01*
X0024699Y0020318D01*
X0024815Y0020391D01*
X0024932Y0020460D01*
X0025052Y0020526D01*
X0025173Y0020588D01*
X0025297Y0020647D01*
X0025422Y0020703D01*
X0025548Y0020754D01*
X0025676Y0020802D01*
X0025805Y0020846D01*
X0025936Y0020887D01*
X0026068Y0020923D01*
X0026200Y0020956D01*
X0026334Y0020984D01*
X0026468Y0021009D01*
X0026603Y0021030D01*
X0026739Y0021047D01*
X0026875Y0021060D01*
X0027011Y0021069D01*
X0027148Y0021074D01*
X0027284Y0021075D01*
X0027421Y0021072D01*
X0027557Y0021065D01*
X0027693Y0021054D01*
X0027829Y0021039D01*
X0027964Y0021020D01*
X0028099Y0020997D01*
X0028233Y0020970D01*
X0028366Y0020940D01*
X0028498Y0020905D01*
X0028630Y0020867D01*
X0028759Y0020825D01*
X0028888Y0020779D01*
X0029015Y0020729D01*
X0029141Y0020675D01*
X0029265Y0020618D01*
X0029388Y0020558D01*
X0029508Y0020493D01*
X0029627Y0020426D01*
X0029743Y0020355D01*
X0029858Y0020280D01*
X0029970Y0020202D01*
X0030080Y0020121D01*
X0030188Y0020037D01*
X0030293Y0019949D01*
X0030395Y0019859D01*
X0030495Y0019766D01*
X0030592Y0019669D01*
X0030686Y0019570D01*
X0030777Y0019469D01*
X0030865Y0019364D01*
X0030950Y0019257D01*
X0031032Y0019148D01*
X0031111Y0019036D01*
X0031186Y0018922D01*
X0031258Y0018806D01*
X0031327Y0018688D01*
X0031392Y0018568D01*
X0031454Y0018446D01*
X0031512Y0018322D01*
X0031566Y0018197D01*
X0031617Y0018070D01*
X0031663Y0017942D01*
X0031707Y0017812D01*
X0031746Y0017681D01*
X0031782Y0017549D01*
X0031813Y0017416D01*
X0031841Y0017283D01*
X0031865Y0017148D01*
X0031885Y0017013D01*
X0031901Y0016877D01*
X0031913Y0016741D01*
X0031921Y0016605D01*
X0031925Y0016468D01*
X0031925Y0016332D01*
X0031921Y0016195D01*
X0031913Y0016059D01*
X0031901Y0015923D01*
X0031885Y0015787D01*
X0031865Y0015652D01*
X0031841Y0015517D01*
X0031813Y0015384D01*
X0031782Y0015251D01*
X0031746Y0015119D01*
X0031707Y0014988D01*
X0031663Y0014858D01*
X0031617Y0014730D01*
X0031566Y0014603D01*
X0031512Y0014478D01*
X0031454Y0014354D01*
X0031392Y0014232D01*
X0031327Y0014112D01*
X0031258Y0013994D01*
X0031186Y0013878D01*
X0031111Y0013764D01*
X0031032Y0013652D01*
X0030950Y0013543D01*
X0030865Y0013436D01*
X0030777Y0013331D01*
X0030686Y0013230D01*
X0030592Y0013131D01*
X0030495Y0013034D01*
X0030395Y0012941D01*
X0030293Y0012851D01*
X0030188Y0012763D01*
X0030080Y0012679D01*
X0029970Y0012598D01*
X0029858Y0012520D01*
X0029743Y0012445D01*
X0029627Y0012374D01*
X0029508Y0012307D01*
X0029388Y0012242D01*
X0029265Y0012182D01*
X0029141Y0012125D01*
X0029015Y0012071D01*
X0028888Y0012021D01*
X0028759Y0011975D01*
X0028630Y0011933D01*
X0028498Y0011895D01*
X0028366Y0011860D01*
X0028233Y0011830D01*
X0028099Y0011803D01*
X0027964Y0011780D01*
X0027829Y0011761D01*
X0027693Y0011746D01*
X0027557Y0011735D01*
X0027421Y0011728D01*
X0027284Y0011725D01*
X0027148Y0011726D01*
X0027011Y0011731D01*
X0026875Y0011740D01*
X0026739Y0011753D01*
X0026603Y0011770D01*
X0026468Y0011791D01*
X0026334Y0011816D01*
X0026200Y0011844D01*
X0026068Y0011877D01*
X0025936Y0011913D01*
X0025805Y0011954D01*
X0025676Y0011998D01*
X0025548Y0012046D01*
X0025422Y0012097D01*
X0025297Y0012153D01*
X0025173Y0012212D01*
X0025052Y0012274D01*
X0024932Y0012340D01*
X0024815Y0012409D01*
X0024699Y0012482D01*
X0024586Y0012559D01*
X0024475Y0012638D01*
X0024366Y0012721D01*
X0024260Y0012807D01*
X0024156Y0012895D01*
X0024055Y0012987D01*
X0023956Y0013082D01*
X0023861Y0013180D01*
X0023768Y0013280D01*
X0023679Y0013383D01*
X0023592Y0013489D01*
X0023508Y0013597D01*
X0023428Y0013708D01*
X0023351Y0013820D01*
X0023277Y0013936D01*
X0023207Y0014053D01*
X0023140Y0014172D01*
X0023077Y0014293D01*
X0023017Y0014416D01*
X0022961Y0014540D01*
X0022908Y0014666D01*
X0022860Y0014794D01*
X0022814Y0014923D01*
X0022773Y0015053D01*
X0022736Y0015185D01*
X0022702Y0015317D01*
X0022672Y0015450D01*
X0022647Y0015584D01*
X0022625Y0015719D01*
X0022607Y0015855D01*
X0022593Y0015991D01*
X0022583Y0016127D01*
X0022577Y0016263D01*
X0022575Y0016400D01*
X0010075Y0016400D02*
X0010077Y0016537D01*
X0010083Y0016673D01*
X0010093Y0016809D01*
X0010107Y0016945D01*
X0010125Y0017081D01*
X0010147Y0017216D01*
X0010172Y0017350D01*
X0010202Y0017483D01*
X0010236Y0017615D01*
X0010273Y0017747D01*
X0010314Y0017877D01*
X0010360Y0018006D01*
X0010408Y0018134D01*
X0010461Y0018260D01*
X0010517Y0018384D01*
X0010577Y0018507D01*
X0010640Y0018628D01*
X0010707Y0018747D01*
X0010777Y0018864D01*
X0010851Y0018980D01*
X0010928Y0019092D01*
X0011008Y0019203D01*
X0011092Y0019311D01*
X0011179Y0019417D01*
X0011268Y0019520D01*
X0011361Y0019620D01*
X0011456Y0019718D01*
X0011555Y0019813D01*
X0011656Y0019905D01*
X0011760Y0019993D01*
X0011866Y0020079D01*
X0011975Y0020162D01*
X0012086Y0020241D01*
X0012199Y0020318D01*
X0012315Y0020391D01*
X0012432Y0020460D01*
X0012552Y0020526D01*
X0012673Y0020588D01*
X0012797Y0020647D01*
X0012922Y0020703D01*
X0013048Y0020754D01*
X0013176Y0020802D01*
X0013305Y0020846D01*
X0013436Y0020887D01*
X0013568Y0020923D01*
X0013700Y0020956D01*
X0013834Y0020984D01*
X0013968Y0021009D01*
X0014103Y0021030D01*
X0014239Y0021047D01*
X0014375Y0021060D01*
X0014511Y0021069D01*
X0014648Y0021074D01*
X0014784Y0021075D01*
X0014921Y0021072D01*
X0015057Y0021065D01*
X0015193Y0021054D01*
X0015329Y0021039D01*
X0015464Y0021020D01*
X0015599Y0020997D01*
X0015733Y0020970D01*
X0015866Y0020940D01*
X0015998Y0020905D01*
X0016130Y0020867D01*
X0016259Y0020825D01*
X0016388Y0020779D01*
X0016515Y0020729D01*
X0016641Y0020675D01*
X0016765Y0020618D01*
X0016888Y0020558D01*
X0017008Y0020493D01*
X0017127Y0020426D01*
X0017243Y0020355D01*
X0017358Y0020280D01*
X0017470Y0020202D01*
X0017580Y0020121D01*
X0017688Y0020037D01*
X0017793Y0019949D01*
X0017895Y0019859D01*
X0017995Y0019766D01*
X0018092Y0019669D01*
X0018186Y0019570D01*
X0018277Y0019469D01*
X0018365Y0019364D01*
X0018450Y0019257D01*
X0018532Y0019148D01*
X0018611Y0019036D01*
X0018686Y0018922D01*
X0018758Y0018806D01*
X0018827Y0018688D01*
X0018892Y0018568D01*
X0018954Y0018446D01*
X0019012Y0018322D01*
X0019066Y0018197D01*
X0019117Y0018070D01*
X0019163Y0017942D01*
X0019207Y0017812D01*
X0019246Y0017681D01*
X0019282Y0017549D01*
X0019313Y0017416D01*
X0019341Y0017283D01*
X0019365Y0017148D01*
X0019385Y0017013D01*
X0019401Y0016877D01*
X0019413Y0016741D01*
X0019421Y0016605D01*
X0019425Y0016468D01*
X0019425Y0016332D01*
X0019421Y0016195D01*
X0019413Y0016059D01*
X0019401Y0015923D01*
X0019385Y0015787D01*
X0019365Y0015652D01*
X0019341Y0015517D01*
X0019313Y0015384D01*
X0019282Y0015251D01*
X0019246Y0015119D01*
X0019207Y0014988D01*
X0019163Y0014858D01*
X0019117Y0014730D01*
X0019066Y0014603D01*
X0019012Y0014478D01*
X0018954Y0014354D01*
X0018892Y0014232D01*
X0018827Y0014112D01*
X0018758Y0013994D01*
X0018686Y0013878D01*
X0018611Y0013764D01*
X0018532Y0013652D01*
X0018450Y0013543D01*
X0018365Y0013436D01*
X0018277Y0013331D01*
X0018186Y0013230D01*
X0018092Y0013131D01*
X0017995Y0013034D01*
X0017895Y0012941D01*
X0017793Y0012851D01*
X0017688Y0012763D01*
X0017580Y0012679D01*
X0017470Y0012598D01*
X0017358Y0012520D01*
X0017243Y0012445D01*
X0017127Y0012374D01*
X0017008Y0012307D01*
X0016888Y0012242D01*
X0016765Y0012182D01*
X0016641Y0012125D01*
X0016515Y0012071D01*
X0016388Y0012021D01*
X0016259Y0011975D01*
X0016130Y0011933D01*
X0015998Y0011895D01*
X0015866Y0011860D01*
X0015733Y0011830D01*
X0015599Y0011803D01*
X0015464Y0011780D01*
X0015329Y0011761D01*
X0015193Y0011746D01*
X0015057Y0011735D01*
X0014921Y0011728D01*
X0014784Y0011725D01*
X0014648Y0011726D01*
X0014511Y0011731D01*
X0014375Y0011740D01*
X0014239Y0011753D01*
X0014103Y0011770D01*
X0013968Y0011791D01*
X0013834Y0011816D01*
X0013700Y0011844D01*
X0013568Y0011877D01*
X0013436Y0011913D01*
X0013305Y0011954D01*
X0013176Y0011998D01*
X0013048Y0012046D01*
X0012922Y0012097D01*
X0012797Y0012153D01*
X0012673Y0012212D01*
X0012552Y0012274D01*
X0012432Y0012340D01*
X0012315Y0012409D01*
X0012199Y0012482D01*
X0012086Y0012559D01*
X0011975Y0012638D01*
X0011866Y0012721D01*
X0011760Y0012807D01*
X0011656Y0012895D01*
X0011555Y0012987D01*
X0011456Y0013082D01*
X0011361Y0013180D01*
X0011268Y0013280D01*
X0011179Y0013383D01*
X0011092Y0013489D01*
X0011008Y0013597D01*
X0010928Y0013708D01*
X0010851Y0013820D01*
X0010777Y0013936D01*
X0010707Y0014053D01*
X0010640Y0014172D01*
X0010577Y0014293D01*
X0010517Y0014416D01*
X0010461Y0014540D01*
X0010408Y0014666D01*
X0010360Y0014794D01*
X0010314Y0014923D01*
X0010273Y0015053D01*
X0010236Y0015185D01*
X0010202Y0015317D01*
X0010172Y0015450D01*
X0010147Y0015584D01*
X0010125Y0015719D01*
X0010107Y0015855D01*
X0010093Y0015991D01*
X0010083Y0016127D01*
X0010077Y0016263D01*
X0010075Y0016400D01*
X0012800Y0026400D02*
X0012802Y0026488D01*
X0012808Y0026576D01*
X0012818Y0026664D01*
X0012832Y0026751D01*
X0012850Y0026837D01*
X0012871Y0026922D01*
X0012897Y0027007D01*
X0012926Y0027090D01*
X0012959Y0027172D01*
X0012996Y0027252D01*
X0013036Y0027330D01*
X0013080Y0027407D01*
X0013127Y0027481D01*
X0013178Y0027553D01*
X0013231Y0027623D01*
X0013288Y0027691D01*
X0013348Y0027755D01*
X0013411Y0027817D01*
X0013476Y0027876D01*
X0013544Y0027932D01*
X0013615Y0027985D01*
X0013687Y0028035D01*
X0013762Y0028081D01*
X0013839Y0028124D01*
X0013918Y0028164D01*
X0013999Y0028199D01*
X0014081Y0028232D01*
X0014164Y0028260D01*
X0014249Y0028285D01*
X0014335Y0028305D01*
X0014421Y0028322D01*
X0014508Y0028335D01*
X0014596Y0028344D01*
X0014684Y0028349D01*
X0014772Y0028350D01*
X0014860Y0028347D01*
X0014948Y0028340D01*
X0015035Y0028329D01*
X0015122Y0028314D01*
X0015208Y0028295D01*
X0015294Y0028273D01*
X0015378Y0028246D01*
X0015460Y0028216D01*
X0015542Y0028182D01*
X0015622Y0028144D01*
X0015699Y0028103D01*
X0015775Y0028059D01*
X0015849Y0028011D01*
X0015921Y0027959D01*
X0015990Y0027905D01*
X0016057Y0027847D01*
X0016121Y0027787D01*
X0016182Y0027723D01*
X0016241Y0027657D01*
X0016296Y0027589D01*
X0016348Y0027517D01*
X0016397Y0027444D01*
X0016442Y0027369D01*
X0016484Y0027291D01*
X0016523Y0027212D01*
X0016558Y0027131D01*
X0016589Y0027048D01*
X0016616Y0026965D01*
X0016640Y0026880D01*
X0016660Y0026794D01*
X0016676Y0026707D01*
X0016688Y0026620D01*
X0016696Y0026532D01*
X0016700Y0026444D01*
X0016700Y0026356D01*
X0016696Y0026268D01*
X0016688Y0026180D01*
X0016676Y0026093D01*
X0016660Y0026006D01*
X0016640Y0025920D01*
X0016616Y0025835D01*
X0016589Y0025752D01*
X0016558Y0025669D01*
X0016523Y0025588D01*
X0016484Y0025509D01*
X0016442Y0025431D01*
X0016397Y0025356D01*
X0016348Y0025283D01*
X0016296Y0025211D01*
X0016241Y0025143D01*
X0016182Y0025077D01*
X0016121Y0025013D01*
X0016057Y0024953D01*
X0015990Y0024895D01*
X0015921Y0024841D01*
X0015849Y0024789D01*
X0015775Y0024741D01*
X0015699Y0024697D01*
X0015622Y0024656D01*
X0015542Y0024618D01*
X0015460Y0024584D01*
X0015378Y0024554D01*
X0015294Y0024527D01*
X0015208Y0024505D01*
X0015122Y0024486D01*
X0015035Y0024471D01*
X0014948Y0024460D01*
X0014860Y0024453D01*
X0014772Y0024450D01*
X0014684Y0024451D01*
X0014596Y0024456D01*
X0014508Y0024465D01*
X0014421Y0024478D01*
X0014335Y0024495D01*
X0014249Y0024515D01*
X0014164Y0024540D01*
X0014081Y0024568D01*
X0013999Y0024601D01*
X0013918Y0024636D01*
X0013839Y0024676D01*
X0013762Y0024719D01*
X0013687Y0024765D01*
X0013615Y0024815D01*
X0013544Y0024868D01*
X0013476Y0024924D01*
X0013411Y0024983D01*
X0013348Y0025045D01*
X0013288Y0025109D01*
X0013231Y0025177D01*
X0013178Y0025247D01*
X0013127Y0025319D01*
X0013080Y0025393D01*
X0013036Y0025470D01*
X0012996Y0025548D01*
X0012959Y0025628D01*
X0012926Y0025710D01*
X0012897Y0025793D01*
X0012871Y0025878D01*
X0012850Y0025963D01*
X0012832Y0026049D01*
X0012818Y0026136D01*
X0012808Y0026224D01*
X0012802Y0026312D01*
X0012800Y0026400D01*
X0010075Y0036400D02*
X0010077Y0036537D01*
X0010083Y0036673D01*
X0010093Y0036809D01*
X0010107Y0036945D01*
X0010125Y0037081D01*
X0010147Y0037216D01*
X0010172Y0037350D01*
X0010202Y0037483D01*
X0010236Y0037615D01*
X0010273Y0037747D01*
X0010314Y0037877D01*
X0010360Y0038006D01*
X0010408Y0038134D01*
X0010461Y0038260D01*
X0010517Y0038384D01*
X0010577Y0038507D01*
X0010640Y0038628D01*
X0010707Y0038747D01*
X0010777Y0038864D01*
X0010851Y0038980D01*
X0010928Y0039092D01*
X0011008Y0039203D01*
X0011092Y0039311D01*
X0011179Y0039417D01*
X0011268Y0039520D01*
X0011361Y0039620D01*
X0011456Y0039718D01*
X0011555Y0039813D01*
X0011656Y0039905D01*
X0011760Y0039993D01*
X0011866Y0040079D01*
X0011975Y0040162D01*
X0012086Y0040241D01*
X0012199Y0040318D01*
X0012315Y0040391D01*
X0012432Y0040460D01*
X0012552Y0040526D01*
X0012673Y0040588D01*
X0012797Y0040647D01*
X0012922Y0040703D01*
X0013048Y0040754D01*
X0013176Y0040802D01*
X0013305Y0040846D01*
X0013436Y0040887D01*
X0013568Y0040923D01*
X0013700Y0040956D01*
X0013834Y0040984D01*
X0013968Y0041009D01*
X0014103Y0041030D01*
X0014239Y0041047D01*
X0014375Y0041060D01*
X0014511Y0041069D01*
X0014648Y0041074D01*
X0014784Y0041075D01*
X0014921Y0041072D01*
X0015057Y0041065D01*
X0015193Y0041054D01*
X0015329Y0041039D01*
X0015464Y0041020D01*
X0015599Y0040997D01*
X0015733Y0040970D01*
X0015866Y0040940D01*
X0015998Y0040905D01*
X0016130Y0040867D01*
X0016259Y0040825D01*
X0016388Y0040779D01*
X0016515Y0040729D01*
X0016641Y0040675D01*
X0016765Y0040618D01*
X0016888Y0040558D01*
X0017008Y0040493D01*
X0017127Y0040426D01*
X0017243Y0040355D01*
X0017358Y0040280D01*
X0017470Y0040202D01*
X0017580Y0040121D01*
X0017688Y0040037D01*
X0017793Y0039949D01*
X0017895Y0039859D01*
X0017995Y0039766D01*
X0018092Y0039669D01*
X0018186Y0039570D01*
X0018277Y0039469D01*
X0018365Y0039364D01*
X0018450Y0039257D01*
X0018532Y0039148D01*
X0018611Y0039036D01*
X0018686Y0038922D01*
X0018758Y0038806D01*
X0018827Y0038688D01*
X0018892Y0038568D01*
X0018954Y0038446D01*
X0019012Y0038322D01*
X0019066Y0038197D01*
X0019117Y0038070D01*
X0019163Y0037942D01*
X0019207Y0037812D01*
X0019246Y0037681D01*
X0019282Y0037549D01*
X0019313Y0037416D01*
X0019341Y0037283D01*
X0019365Y0037148D01*
X0019385Y0037013D01*
X0019401Y0036877D01*
X0019413Y0036741D01*
X0019421Y0036605D01*
X0019425Y0036468D01*
X0019425Y0036332D01*
X0019421Y0036195D01*
X0019413Y0036059D01*
X0019401Y0035923D01*
X0019385Y0035787D01*
X0019365Y0035652D01*
X0019341Y0035517D01*
X0019313Y0035384D01*
X0019282Y0035251D01*
X0019246Y0035119D01*
X0019207Y0034988D01*
X0019163Y0034858D01*
X0019117Y0034730D01*
X0019066Y0034603D01*
X0019012Y0034478D01*
X0018954Y0034354D01*
X0018892Y0034232D01*
X0018827Y0034112D01*
X0018758Y0033994D01*
X0018686Y0033878D01*
X0018611Y0033764D01*
X0018532Y0033652D01*
X0018450Y0033543D01*
X0018365Y0033436D01*
X0018277Y0033331D01*
X0018186Y0033230D01*
X0018092Y0033131D01*
X0017995Y0033034D01*
X0017895Y0032941D01*
X0017793Y0032851D01*
X0017688Y0032763D01*
X0017580Y0032679D01*
X0017470Y0032598D01*
X0017358Y0032520D01*
X0017243Y0032445D01*
X0017127Y0032374D01*
X0017008Y0032307D01*
X0016888Y0032242D01*
X0016765Y0032182D01*
X0016641Y0032125D01*
X0016515Y0032071D01*
X0016388Y0032021D01*
X0016259Y0031975D01*
X0016130Y0031933D01*
X0015998Y0031895D01*
X0015866Y0031860D01*
X0015733Y0031830D01*
X0015599Y0031803D01*
X0015464Y0031780D01*
X0015329Y0031761D01*
X0015193Y0031746D01*
X0015057Y0031735D01*
X0014921Y0031728D01*
X0014784Y0031725D01*
X0014648Y0031726D01*
X0014511Y0031731D01*
X0014375Y0031740D01*
X0014239Y0031753D01*
X0014103Y0031770D01*
X0013968Y0031791D01*
X0013834Y0031816D01*
X0013700Y0031844D01*
X0013568Y0031877D01*
X0013436Y0031913D01*
X0013305Y0031954D01*
X0013176Y0031998D01*
X0013048Y0032046D01*
X0012922Y0032097D01*
X0012797Y0032153D01*
X0012673Y0032212D01*
X0012552Y0032274D01*
X0012432Y0032340D01*
X0012315Y0032409D01*
X0012199Y0032482D01*
X0012086Y0032559D01*
X0011975Y0032638D01*
X0011866Y0032721D01*
X0011760Y0032807D01*
X0011656Y0032895D01*
X0011555Y0032987D01*
X0011456Y0033082D01*
X0011361Y0033180D01*
X0011268Y0033280D01*
X0011179Y0033383D01*
X0011092Y0033489D01*
X0011008Y0033597D01*
X0010928Y0033708D01*
X0010851Y0033820D01*
X0010777Y0033936D01*
X0010707Y0034053D01*
X0010640Y0034172D01*
X0010577Y0034293D01*
X0010517Y0034416D01*
X0010461Y0034540D01*
X0010408Y0034666D01*
X0010360Y0034794D01*
X0010314Y0034923D01*
X0010273Y0035053D01*
X0010236Y0035185D01*
X0010202Y0035317D01*
X0010172Y0035450D01*
X0010147Y0035584D01*
X0010125Y0035719D01*
X0010107Y0035855D01*
X0010093Y0035991D01*
X0010083Y0036127D01*
X0010077Y0036263D01*
X0010075Y0036400D01*
X0022575Y0036400D02*
X0022577Y0036537D01*
X0022583Y0036673D01*
X0022593Y0036809D01*
X0022607Y0036945D01*
X0022625Y0037081D01*
X0022647Y0037216D01*
X0022672Y0037350D01*
X0022702Y0037483D01*
X0022736Y0037615D01*
X0022773Y0037747D01*
X0022814Y0037877D01*
X0022860Y0038006D01*
X0022908Y0038134D01*
X0022961Y0038260D01*
X0023017Y0038384D01*
X0023077Y0038507D01*
X0023140Y0038628D01*
X0023207Y0038747D01*
X0023277Y0038864D01*
X0023351Y0038980D01*
X0023428Y0039092D01*
X0023508Y0039203D01*
X0023592Y0039311D01*
X0023679Y0039417D01*
X0023768Y0039520D01*
X0023861Y0039620D01*
X0023956Y0039718D01*
X0024055Y0039813D01*
X0024156Y0039905D01*
X0024260Y0039993D01*
X0024366Y0040079D01*
X0024475Y0040162D01*
X0024586Y0040241D01*
X0024699Y0040318D01*
X0024815Y0040391D01*
X0024932Y0040460D01*
X0025052Y0040526D01*
X0025173Y0040588D01*
X0025297Y0040647D01*
X0025422Y0040703D01*
X0025548Y0040754D01*
X0025676Y0040802D01*
X0025805Y0040846D01*
X0025936Y0040887D01*
X0026068Y0040923D01*
X0026200Y0040956D01*
X0026334Y0040984D01*
X0026468Y0041009D01*
X0026603Y0041030D01*
X0026739Y0041047D01*
X0026875Y0041060D01*
X0027011Y0041069D01*
X0027148Y0041074D01*
X0027284Y0041075D01*
X0027421Y0041072D01*
X0027557Y0041065D01*
X0027693Y0041054D01*
X0027829Y0041039D01*
X0027964Y0041020D01*
X0028099Y0040997D01*
X0028233Y0040970D01*
X0028366Y0040940D01*
X0028498Y0040905D01*
X0028630Y0040867D01*
X0028759Y0040825D01*
X0028888Y0040779D01*
X0029015Y0040729D01*
X0029141Y0040675D01*
X0029265Y0040618D01*
X0029388Y0040558D01*
X0029508Y0040493D01*
X0029627Y0040426D01*
X0029743Y0040355D01*
X0029858Y0040280D01*
X0029970Y0040202D01*
X0030080Y0040121D01*
X0030188Y0040037D01*
X0030293Y0039949D01*
X0030395Y0039859D01*
X0030495Y0039766D01*
X0030592Y0039669D01*
X0030686Y0039570D01*
X0030777Y0039469D01*
X0030865Y0039364D01*
X0030950Y0039257D01*
X0031032Y0039148D01*
X0031111Y0039036D01*
X0031186Y0038922D01*
X0031258Y0038806D01*
X0031327Y0038688D01*
X0031392Y0038568D01*
X0031454Y0038446D01*
X0031512Y0038322D01*
X0031566Y0038197D01*
X0031617Y0038070D01*
X0031663Y0037942D01*
X0031707Y0037812D01*
X0031746Y0037681D01*
X0031782Y0037549D01*
X0031813Y0037416D01*
X0031841Y0037283D01*
X0031865Y0037148D01*
X0031885Y0037013D01*
X0031901Y0036877D01*
X0031913Y0036741D01*
X0031921Y0036605D01*
X0031925Y0036468D01*
X0031925Y0036332D01*
X0031921Y0036195D01*
X0031913Y0036059D01*
X0031901Y0035923D01*
X0031885Y0035787D01*
X0031865Y0035652D01*
X0031841Y0035517D01*
X0031813Y0035384D01*
X0031782Y0035251D01*
X0031746Y0035119D01*
X0031707Y0034988D01*
X0031663Y0034858D01*
X0031617Y0034730D01*
X0031566Y0034603D01*
X0031512Y0034478D01*
X0031454Y0034354D01*
X0031392Y0034232D01*
X0031327Y0034112D01*
X0031258Y0033994D01*
X0031186Y0033878D01*
X0031111Y0033764D01*
X0031032Y0033652D01*
X0030950Y0033543D01*
X0030865Y0033436D01*
X0030777Y0033331D01*
X0030686Y0033230D01*
X0030592Y0033131D01*
X0030495Y0033034D01*
X0030395Y0032941D01*
X0030293Y0032851D01*
X0030188Y0032763D01*
X0030080Y0032679D01*
X0029970Y0032598D01*
X0029858Y0032520D01*
X0029743Y0032445D01*
X0029627Y0032374D01*
X0029508Y0032307D01*
X0029388Y0032242D01*
X0029265Y0032182D01*
X0029141Y0032125D01*
X0029015Y0032071D01*
X0028888Y0032021D01*
X0028759Y0031975D01*
X0028630Y0031933D01*
X0028498Y0031895D01*
X0028366Y0031860D01*
X0028233Y0031830D01*
X0028099Y0031803D01*
X0027964Y0031780D01*
X0027829Y0031761D01*
X0027693Y0031746D01*
X0027557Y0031735D01*
X0027421Y0031728D01*
X0027284Y0031725D01*
X0027148Y0031726D01*
X0027011Y0031731D01*
X0026875Y0031740D01*
X0026739Y0031753D01*
X0026603Y0031770D01*
X0026468Y0031791D01*
X0026334Y0031816D01*
X0026200Y0031844D01*
X0026068Y0031877D01*
X0025936Y0031913D01*
X0025805Y0031954D01*
X0025676Y0031998D01*
X0025548Y0032046D01*
X0025422Y0032097D01*
X0025297Y0032153D01*
X0025173Y0032212D01*
X0025052Y0032274D01*
X0024932Y0032340D01*
X0024815Y0032409D01*
X0024699Y0032482D01*
X0024586Y0032559D01*
X0024475Y0032638D01*
X0024366Y0032721D01*
X0024260Y0032807D01*
X0024156Y0032895D01*
X0024055Y0032987D01*
X0023956Y0033082D01*
X0023861Y0033180D01*
X0023768Y0033280D01*
X0023679Y0033383D01*
X0023592Y0033489D01*
X0023508Y0033597D01*
X0023428Y0033708D01*
X0023351Y0033820D01*
X0023277Y0033936D01*
X0023207Y0034053D01*
X0023140Y0034172D01*
X0023077Y0034293D01*
X0023017Y0034416D01*
X0022961Y0034540D01*
X0022908Y0034666D01*
X0022860Y0034794D01*
X0022814Y0034923D01*
X0022773Y0035053D01*
X0022736Y0035185D01*
X0022702Y0035317D01*
X0022672Y0035450D01*
X0022647Y0035584D01*
X0022625Y0035719D01*
X0022607Y0035855D01*
X0022593Y0035991D01*
X0022583Y0036127D01*
X0022577Y0036263D01*
X0022575Y0036400D01*
X0032800Y0030400D02*
X0032802Y0030488D01*
X0032808Y0030576D01*
X0032818Y0030664D01*
X0032832Y0030751D01*
X0032850Y0030837D01*
X0032871Y0030922D01*
X0032897Y0031007D01*
X0032926Y0031090D01*
X0032959Y0031172D01*
X0032996Y0031252D01*
X0033036Y0031330D01*
X0033080Y0031407D01*
X0033127Y0031481D01*
X0033178Y0031553D01*
X0033231Y0031623D01*
X0033288Y0031691D01*
X0033348Y0031755D01*
X0033411Y0031817D01*
X0033476Y0031876D01*
X0033544Y0031932D01*
X0033615Y0031985D01*
X0033687Y0032035D01*
X0033762Y0032081D01*
X0033839Y0032124D01*
X0033918Y0032164D01*
X0033999Y0032199D01*
X0034081Y0032232D01*
X0034164Y0032260D01*
X0034249Y0032285D01*
X0034335Y0032305D01*
X0034421Y0032322D01*
X0034508Y0032335D01*
X0034596Y0032344D01*
X0034684Y0032349D01*
X0034772Y0032350D01*
X0034860Y0032347D01*
X0034948Y0032340D01*
X0035035Y0032329D01*
X0035122Y0032314D01*
X0035208Y0032295D01*
X0035294Y0032273D01*
X0035378Y0032246D01*
X0035460Y0032216D01*
X0035542Y0032182D01*
X0035622Y0032144D01*
X0035699Y0032103D01*
X0035775Y0032059D01*
X0035849Y0032011D01*
X0035921Y0031959D01*
X0035990Y0031905D01*
X0036057Y0031847D01*
X0036121Y0031787D01*
X0036182Y0031723D01*
X0036241Y0031657D01*
X0036296Y0031589D01*
X0036348Y0031517D01*
X0036397Y0031444D01*
X0036442Y0031369D01*
X0036484Y0031291D01*
X0036523Y0031212D01*
X0036558Y0031131D01*
X0036589Y0031048D01*
X0036616Y0030965D01*
X0036640Y0030880D01*
X0036660Y0030794D01*
X0036676Y0030707D01*
X0036688Y0030620D01*
X0036696Y0030532D01*
X0036700Y0030444D01*
X0036700Y0030356D01*
X0036696Y0030268D01*
X0036688Y0030180D01*
X0036676Y0030093D01*
X0036660Y0030006D01*
X0036640Y0029920D01*
X0036616Y0029835D01*
X0036589Y0029752D01*
X0036558Y0029669D01*
X0036523Y0029588D01*
X0036484Y0029509D01*
X0036442Y0029431D01*
X0036397Y0029356D01*
X0036348Y0029283D01*
X0036296Y0029211D01*
X0036241Y0029143D01*
X0036182Y0029077D01*
X0036121Y0029013D01*
X0036057Y0028953D01*
X0035990Y0028895D01*
X0035921Y0028841D01*
X0035849Y0028789D01*
X0035775Y0028741D01*
X0035699Y0028697D01*
X0035622Y0028656D01*
X0035542Y0028618D01*
X0035460Y0028584D01*
X0035378Y0028554D01*
X0035294Y0028527D01*
X0035208Y0028505D01*
X0035122Y0028486D01*
X0035035Y0028471D01*
X0034948Y0028460D01*
X0034860Y0028453D01*
X0034772Y0028450D01*
X0034684Y0028451D01*
X0034596Y0028456D01*
X0034508Y0028465D01*
X0034421Y0028478D01*
X0034335Y0028495D01*
X0034249Y0028515D01*
X0034164Y0028540D01*
X0034081Y0028568D01*
X0033999Y0028601D01*
X0033918Y0028636D01*
X0033839Y0028676D01*
X0033762Y0028719D01*
X0033687Y0028765D01*
X0033615Y0028815D01*
X0033544Y0028868D01*
X0033476Y0028924D01*
X0033411Y0028983D01*
X0033348Y0029045D01*
X0033288Y0029109D01*
X0033231Y0029177D01*
X0033178Y0029247D01*
X0033127Y0029319D01*
X0033080Y0029393D01*
X0033036Y0029470D01*
X0032996Y0029548D01*
X0032959Y0029628D01*
X0032926Y0029710D01*
X0032897Y0029793D01*
X0032871Y0029878D01*
X0032850Y0029963D01*
X0032832Y0030049D01*
X0032818Y0030136D01*
X0032808Y0030224D01*
X0032802Y0030312D01*
X0032800Y0030400D01*
D15*
X0034750Y0030400D03*
X0034750Y0022400D03*
X0014750Y0026400D03*
D16*
X0014750Y0036400D03*
X0027250Y0036400D03*
X0027250Y0016400D03*
X0014750Y0016400D03*
D17*
X0065071Y0021721D02*
X0070429Y0021721D01*
X0065071Y0021721D02*
X0065071Y0027079D01*
X0070429Y0027079D01*
X0070429Y0021721D01*
X0070429Y0023060D02*
X0065071Y0023060D01*
X0065071Y0024399D02*
X0070429Y0024399D01*
X0070429Y0025738D02*
X0065071Y0025738D01*
X0065071Y0027077D02*
X0070429Y0027077D01*
D18*
X0072730Y0029380D03*
X0062770Y0029380D03*
X0062770Y0019420D03*
X0072730Y0019420D03*
D19*
X0070703Y0019715D02*
X0070703Y0018415D01*
X0068734Y0018415D02*
X0068734Y0019715D01*
X0066766Y0019715D02*
X0066766Y0018415D01*
X0064797Y0018415D02*
X0064797Y0019715D01*
X0063065Y0021447D02*
X0061765Y0021447D01*
X0061765Y0023416D02*
X0063065Y0023416D01*
X0063065Y0025384D02*
X0061765Y0025384D01*
X0061765Y0027353D02*
X0063065Y0027353D01*
X0064797Y0029085D02*
X0064797Y0030385D01*
X0066766Y0030385D02*
X0066766Y0029085D01*
X0068734Y0029085D02*
X0068734Y0030385D01*
X0070703Y0030385D02*
X0070703Y0029085D01*
X0072435Y0027353D02*
X0073735Y0027353D01*
X0073735Y0025384D02*
X0072435Y0025384D01*
X0072435Y0023416D02*
X0073735Y0023416D01*
X0073735Y0021447D02*
X0072435Y0021447D01*
D20*
X0068750Y0006400D03*
X0078750Y0006400D03*
X0088750Y0006400D03*
X0058750Y0006400D03*
X0048750Y0006400D03*
X0038750Y0006400D03*
X0028750Y0006400D03*
X0018750Y0006400D03*
X0008750Y0006400D03*
X0008750Y0046400D03*
X0018750Y0046400D03*
X0028750Y0046400D03*
X0038750Y0046400D03*
X0048750Y0046400D03*
X0058750Y0046400D03*
X0068750Y0046400D03*
X0078750Y0046400D03*
X0088750Y0046400D03*
X0098750Y0046400D03*
M02*
