G75*
%MOIN*%
%OFA0B0*%
%FSLAX25Y25*%
%IPPOS*%
%LPD*%
%AMOC8*
5,1,8,0,0,1.08239X$1,22.5*
%
%ADD10C,0.00000*%
%ADD11C,0.00039*%
D10*
X0001824Y0001500D02*
X0001824Y0135500D01*
X0156824Y0135500D01*
X0156824Y0001500D01*
X0001824Y0001500D01*
D11*
X0006434Y0100024D02*
X0009190Y0100024D01*
X0010174Y0101008D02*
X0010172Y0101070D01*
X0010166Y0101131D01*
X0010157Y0101192D01*
X0010143Y0101253D01*
X0010126Y0101312D01*
X0010105Y0101370D01*
X0010080Y0101427D01*
X0010052Y0101482D01*
X0010021Y0101535D01*
X0009986Y0101586D01*
X0009948Y0101635D01*
X0009907Y0101682D01*
X0009864Y0101725D01*
X0009817Y0101766D01*
X0009768Y0101804D01*
X0009717Y0101839D01*
X0009664Y0101870D01*
X0009609Y0101898D01*
X0009552Y0101923D01*
X0009494Y0101944D01*
X0009435Y0101961D01*
X0009374Y0101975D01*
X0009313Y0101984D01*
X0009252Y0101990D01*
X0009190Y0101992D01*
X0006434Y0101992D01*
X0005450Y0101008D02*
X0005452Y0100946D01*
X0005458Y0100885D01*
X0005467Y0100824D01*
X0005481Y0100763D01*
X0005498Y0100704D01*
X0005519Y0100646D01*
X0005544Y0100589D01*
X0005572Y0100534D01*
X0005603Y0100481D01*
X0005638Y0100430D01*
X0005676Y0100381D01*
X0005717Y0100334D01*
X0005760Y0100291D01*
X0005807Y0100250D01*
X0005856Y0100212D01*
X0005907Y0100177D01*
X0005960Y0100146D01*
X0006015Y0100118D01*
X0006072Y0100093D01*
X0006130Y0100072D01*
X0006189Y0100055D01*
X0006250Y0100041D01*
X0006311Y0100032D01*
X0006372Y0100026D01*
X0006434Y0100024D01*
X0005450Y0101008D02*
X0005452Y0101070D01*
X0005458Y0101131D01*
X0005467Y0101192D01*
X0005481Y0101253D01*
X0005498Y0101312D01*
X0005519Y0101370D01*
X0005544Y0101427D01*
X0005572Y0101482D01*
X0005603Y0101535D01*
X0005638Y0101586D01*
X0005676Y0101635D01*
X0005717Y0101682D01*
X0005760Y0101725D01*
X0005807Y0101766D01*
X0005856Y0101804D01*
X0005907Y0101839D01*
X0005960Y0101870D01*
X0006015Y0101898D01*
X0006072Y0101923D01*
X0006130Y0101944D01*
X0006189Y0101961D01*
X0006250Y0101975D01*
X0006311Y0101984D01*
X0006372Y0101990D01*
X0006434Y0101992D01*
X0009190Y0100024D02*
X0009252Y0100026D01*
X0009313Y0100032D01*
X0009374Y0100041D01*
X0009435Y0100055D01*
X0009494Y0100072D01*
X0009552Y0100093D01*
X0009609Y0100118D01*
X0009664Y0100146D01*
X0009717Y0100177D01*
X0009768Y0100212D01*
X0009817Y0100250D01*
X0009864Y0100291D01*
X0009907Y0100334D01*
X0009948Y0100381D01*
X0009986Y0100430D01*
X0010021Y0100481D01*
X0010052Y0100534D01*
X0010080Y0100589D01*
X0010105Y0100646D01*
X0010126Y0100704D01*
X0010143Y0100763D01*
X0010157Y0100824D01*
X0010166Y0100885D01*
X0010172Y0100946D01*
X0010174Y0101008D01*
X0009190Y0126008D02*
X0006434Y0126008D01*
X0006372Y0126010D01*
X0006311Y0126016D01*
X0006250Y0126025D01*
X0006189Y0126039D01*
X0006130Y0126056D01*
X0006072Y0126077D01*
X0006015Y0126102D01*
X0005960Y0126130D01*
X0005907Y0126161D01*
X0005856Y0126196D01*
X0005807Y0126234D01*
X0005760Y0126275D01*
X0005717Y0126318D01*
X0005676Y0126365D01*
X0005638Y0126414D01*
X0005603Y0126465D01*
X0005572Y0126518D01*
X0005544Y0126573D01*
X0005519Y0126630D01*
X0005498Y0126688D01*
X0005481Y0126747D01*
X0005467Y0126808D01*
X0005458Y0126869D01*
X0005452Y0126930D01*
X0005450Y0126992D01*
X0005452Y0127054D01*
X0005458Y0127115D01*
X0005467Y0127176D01*
X0005481Y0127237D01*
X0005498Y0127296D01*
X0005519Y0127354D01*
X0005544Y0127411D01*
X0005572Y0127466D01*
X0005603Y0127519D01*
X0005638Y0127570D01*
X0005676Y0127619D01*
X0005717Y0127666D01*
X0005760Y0127709D01*
X0005807Y0127750D01*
X0005856Y0127788D01*
X0005907Y0127823D01*
X0005960Y0127854D01*
X0006015Y0127882D01*
X0006072Y0127907D01*
X0006130Y0127928D01*
X0006189Y0127945D01*
X0006250Y0127959D01*
X0006311Y0127968D01*
X0006372Y0127974D01*
X0006434Y0127976D01*
X0009190Y0127976D01*
X0009252Y0127974D01*
X0009313Y0127968D01*
X0009374Y0127959D01*
X0009435Y0127945D01*
X0009494Y0127928D01*
X0009552Y0127907D01*
X0009609Y0127882D01*
X0009664Y0127854D01*
X0009717Y0127823D01*
X0009768Y0127788D01*
X0009817Y0127750D01*
X0009864Y0127709D01*
X0009907Y0127666D01*
X0009948Y0127619D01*
X0009986Y0127570D01*
X0010021Y0127519D01*
X0010052Y0127466D01*
X0010080Y0127411D01*
X0010105Y0127354D01*
X0010126Y0127296D01*
X0010143Y0127237D01*
X0010157Y0127176D01*
X0010166Y0127115D01*
X0010172Y0127054D01*
X0010174Y0126992D01*
X0010172Y0126930D01*
X0010166Y0126869D01*
X0010157Y0126808D01*
X0010143Y0126747D01*
X0010126Y0126688D01*
X0010105Y0126630D01*
X0010080Y0126573D01*
X0010052Y0126518D01*
X0010021Y0126465D01*
X0009986Y0126414D01*
X0009948Y0126365D01*
X0009907Y0126318D01*
X0009864Y0126275D01*
X0009817Y0126234D01*
X0009768Y0126196D01*
X0009717Y0126161D01*
X0009664Y0126130D01*
X0009609Y0126102D01*
X0009552Y0126077D01*
X0009494Y0126056D01*
X0009435Y0126039D01*
X0009374Y0126025D01*
X0009313Y0126016D01*
X0009252Y0126010D01*
X0009190Y0126008D01*
M02*
