G75*
%MOIN*%
%OFA0B0*%
%FSLAX25Y25*%
%IPPOS*%
%LPD*%
%AMOC8*
5,1,8,0,0,1.08239X$1,22.5*
%
%ADD10C,0.00000*%
%ADD11R,0.05715X0.01975*%
%ADD12R,0.05912X0.06699*%
%ADD13R,0.07880X0.07880*%
%ADD14C,0.03943*%
%ADD15R,0.06306X0.16148*%
%ADD16R,0.06306X0.04337*%
%ADD17R,0.07487X0.06699*%
%ADD18C,0.06000*%
%ADD19C,0.09258*%
%ADD20R,0.03943X0.02762*%
%ADD21R,0.04731X0.05321*%
%ADD22R,0.03156X0.05518*%
%ADD23R,0.05715X0.05715*%
%ADD24R,0.03943X0.06699*%
D10*
X0001824Y0001500D02*
X0001824Y0135500D01*
X0156824Y0135500D01*
X0156824Y0001500D01*
X0001824Y0001500D01*
D11*
X0018324Y0108882D03*
X0018324Y0111441D03*
X0018324Y0114000D03*
X0018324Y0116559D03*
X0018324Y0119118D03*
D12*
X0018324Y0126598D03*
X0018324Y0101402D03*
D13*
X0007792Y0109276D03*
X0007792Y0118724D03*
D14*
X0009190Y0126992D02*
X0009190Y0126992D01*
X0006434Y0126992D01*
X0006434Y0126992D01*
X0009190Y0126992D01*
X0009190Y0101008D02*
X0009190Y0101008D01*
X0006434Y0101008D01*
X0006434Y0101008D01*
X0009190Y0101008D01*
D15*
X0101529Y0114000D03*
D16*
X0127119Y0114000D03*
X0127119Y0123055D03*
X0127119Y0104945D03*
D17*
X0039324Y0115488D03*
X0039324Y0126512D03*
D18*
X0058924Y0124000D03*
X0066824Y0124000D03*
X0074724Y0124000D03*
D19*
X0082974Y0124000D03*
X0050674Y0124000D03*
D20*
X0036824Y0107453D03*
X0036824Y0101547D03*
D21*
X0139403Y0121500D03*
X0149245Y0121500D03*
D22*
X0148064Y0106500D03*
X0140584Y0106500D03*
D23*
X0140824Y0054500D03*
X0140824Y0044500D03*
X0140824Y0034500D03*
X0130824Y0034500D03*
X0130824Y0044500D03*
X0130824Y0054500D03*
X0028824Y0054500D03*
X0028824Y0044500D03*
X0028824Y0034500D03*
X0018824Y0034500D03*
X0018824Y0044500D03*
X0018824Y0054500D03*
X0018824Y0064500D03*
X0028824Y0064500D03*
X0028824Y0024500D03*
X0018824Y0024500D03*
D24*
X0108615Y0094500D03*
X0120033Y0094500D03*
X0139115Y0130000D03*
X0150533Y0130000D03*
M02*
