%
M48
M72
T01C0.0197
T02C0.0315
T03C0.0354
T04C0.0591
%
T01
X4182Y10750
X13482Y10650
X14582Y12950
T02
X5892Y12400
X6682Y12400
X7472Y12400
T03
X1882Y6450
X2882Y6450
X2882Y5450
X1882Y5450
X1882Y4450
X1882Y3450
X2882Y3450
X2882Y4450
X2882Y2450
X1882Y2450
X13082Y3450
X13082Y4450
X13082Y5450
X14082Y5450
X14082Y4450
X14082Y3450
T04
X5067Y12400
X8297Y12400
M30
