G75*
%MOIN*%
%OFA0B0*%
%FSLAX25Y25*%
%IPPOS*%
%LPD*%
%AMOC8*
5,1,8,0,0,1.08239X$1,22.5*
%
%ADD10C,0.00000*%
%ADD11R,0.05315X0.01575*%
%ADD12R,0.05512X0.06299*%
%ADD13R,0.07480X0.07480*%
%ADD14C,0.03543*%
%ADD15R,0.05906X0.15748*%
%ADD16R,0.05906X0.03937*%
%ADD17R,0.07087X0.06299*%
%ADD18R,0.03543X0.02362*%
%ADD19R,0.04331X0.04921*%
%ADD20R,0.02756X0.05118*%
%ADD21R,0.03543X0.06299*%
D10*
X0001824Y0001500D02*
X0001824Y0135500D01*
X0156824Y0135500D01*
X0156824Y0001500D01*
X0001824Y0001500D01*
D11*
X0018324Y0108882D03*
X0018324Y0111441D03*
X0018324Y0114000D03*
X0018324Y0116559D03*
X0018324Y0119118D03*
D12*
X0018324Y0126598D03*
X0018324Y0101402D03*
D13*
X0007792Y0109276D03*
X0007792Y0118724D03*
D14*
X0009190Y0126992D02*
X0009190Y0126992D01*
X0006434Y0126992D01*
X0006434Y0126992D01*
X0009190Y0126992D01*
X0009190Y0101008D02*
X0009190Y0101008D01*
X0006434Y0101008D01*
X0006434Y0101008D01*
X0009190Y0101008D01*
D15*
X0101529Y0114000D03*
D16*
X0127119Y0114000D03*
X0127119Y0123055D03*
X0127119Y0104945D03*
D17*
X0039324Y0115488D03*
X0039324Y0126512D03*
D18*
X0036824Y0107453D03*
X0036824Y0101547D03*
D19*
X0139403Y0121500D03*
X0149245Y0121500D03*
D20*
X0148064Y0106500D03*
X0140584Y0106500D03*
D21*
X0120033Y0094500D03*
X0108615Y0094500D03*
X0067533Y0109000D03*
X0056115Y0109000D03*
M02*
