G75*
%MOIN*%
%OFA0B0*%
%FSLAX25Y25*%
%IPPOS*%
%LPD*%
%AMOC8*
5,1,8,0,0,1.08239X$1,22.5*
%
%ADD10C,0.00000*%
%ADD11C,0.03543*%
%ADD12C,0.05600*%
%ADD13C,0.08858*%
%ADD14R,0.05315X0.05315*%
%ADD15C,0.01000*%
%ADD16C,0.03169*%
%ADD17C,0.01600*%
D10*
X0001824Y0001500D02*
X0001824Y0135500D01*
X0156824Y0135500D01*
X0156824Y0001500D01*
X0001824Y0001500D01*
D11*
X0009190Y0101008D02*
X0009190Y0101008D01*
X0006434Y0101008D01*
X0006434Y0101008D01*
X0009190Y0101008D01*
X0009190Y0126992D02*
X0009190Y0126992D01*
X0006434Y0126992D01*
X0006434Y0126992D01*
X0009190Y0126992D01*
D12*
X0058924Y0124000D03*
X0066824Y0124000D03*
X0074724Y0124000D03*
D13*
X0082974Y0124000D03*
X0050674Y0124000D03*
D14*
X0028824Y0064500D03*
X0018824Y0064500D03*
X0018824Y0054500D03*
X0028824Y0054500D03*
X0028824Y0044500D03*
X0028824Y0034500D03*
X0018824Y0034500D03*
X0018824Y0044500D03*
X0018824Y0024500D03*
X0028824Y0024500D03*
X0130824Y0034500D03*
X0140824Y0034500D03*
X0140824Y0044500D03*
X0140824Y0054500D03*
X0130824Y0054500D03*
X0130824Y0044500D03*
D15*
X0127067Y0044436D02*
X0032581Y0044436D01*
X0032581Y0045434D02*
X0127067Y0045434D01*
X0127067Y0046433D02*
X0032581Y0046433D01*
X0032581Y0047432D02*
X0127067Y0047432D01*
X0127067Y0047613D02*
X0127067Y0041387D01*
X0127711Y0040743D01*
X0133937Y0040743D01*
X0134581Y0041387D01*
X0134581Y0047613D01*
X0133937Y0048257D01*
X0127711Y0048257D01*
X0127067Y0047613D01*
X0127711Y0050743D02*
X0133937Y0050743D01*
X0134581Y0051387D01*
X0134581Y0057613D01*
X0133937Y0058257D01*
X0127711Y0058257D01*
X0127067Y0057613D01*
X0127067Y0051387D01*
X0127711Y0050743D01*
X0127067Y0051426D02*
X0032581Y0051426D01*
X0032581Y0051387D02*
X0032581Y0057613D01*
X0031937Y0058257D01*
X0025711Y0058257D01*
X0025067Y0057613D01*
X0025067Y0051387D01*
X0025711Y0050743D01*
X0031937Y0050743D01*
X0032581Y0051387D01*
X0032581Y0052424D02*
X0127067Y0052424D01*
X0127067Y0053423D02*
X0032581Y0053423D01*
X0032581Y0054421D02*
X0127067Y0054421D01*
X0127067Y0055420D02*
X0032581Y0055420D01*
X0032581Y0056418D02*
X0127067Y0056418D01*
X0127067Y0057417D02*
X0032581Y0057417D01*
X0031679Y0060343D02*
X0029210Y0060343D01*
X0029210Y0064114D01*
X0029210Y0064886D01*
X0032981Y0064886D01*
X0032981Y0067355D01*
X0032879Y0067736D01*
X0032682Y0068078D01*
X0032402Y0068358D01*
X0032060Y0068555D01*
X0031679Y0068657D01*
X0029210Y0068657D01*
X0029210Y0064886D01*
X0028438Y0064886D01*
X0028438Y0068657D01*
X0025969Y0068657D01*
X0025588Y0068555D01*
X0025245Y0068358D01*
X0024966Y0068078D01*
X0024769Y0067736D01*
X0024667Y0067355D01*
X0024666Y0064886D01*
X0028438Y0064886D01*
X0028438Y0064114D01*
X0029210Y0064114D01*
X0032981Y0064114D01*
X0032981Y0061645D01*
X0032879Y0061264D01*
X0032682Y0060921D01*
X0032402Y0060642D01*
X0032060Y0060445D01*
X0031679Y0060343D01*
X0031939Y0060412D02*
X0155324Y0060412D01*
X0155324Y0059414D02*
X0003324Y0059414D01*
X0003324Y0060412D02*
X0025709Y0060412D01*
X0025588Y0060445D02*
X0025969Y0060343D01*
X0028438Y0060343D01*
X0028438Y0064114D01*
X0024667Y0064114D01*
X0024667Y0061645D01*
X0024769Y0061264D01*
X0024966Y0060921D01*
X0025245Y0060642D01*
X0025588Y0060445D01*
X0024729Y0061411D02*
X0022581Y0061411D01*
X0022581Y0061387D02*
X0022581Y0067613D01*
X0021937Y0068257D01*
X0015711Y0068257D01*
X0015067Y0067613D01*
X0015067Y0061387D01*
X0015711Y0060743D01*
X0021937Y0060743D01*
X0022581Y0061387D01*
X0022581Y0062409D02*
X0024667Y0062409D01*
X0024667Y0063408D02*
X0022581Y0063408D01*
X0022581Y0064406D02*
X0028438Y0064406D01*
X0029210Y0064406D02*
X0155324Y0064406D01*
X0155324Y0063408D02*
X0032981Y0063408D01*
X0032981Y0062409D02*
X0155324Y0062409D01*
X0155324Y0061411D02*
X0032919Y0061411D01*
X0029210Y0061411D02*
X0028438Y0061411D01*
X0028438Y0062409D02*
X0029210Y0062409D01*
X0029210Y0063408D02*
X0028438Y0063408D01*
X0028438Y0065405D02*
X0029210Y0065405D01*
X0029210Y0066403D02*
X0028438Y0066403D01*
X0028438Y0067402D02*
X0029210Y0067402D01*
X0029210Y0068400D02*
X0028438Y0068400D01*
X0025319Y0068400D02*
X0003324Y0068400D01*
X0003324Y0067402D02*
X0015067Y0067402D01*
X0015067Y0066403D02*
X0003324Y0066403D01*
X0003324Y0065405D02*
X0015067Y0065405D01*
X0015067Y0064406D02*
X0003324Y0064406D01*
X0003324Y0063408D02*
X0015067Y0063408D01*
X0015067Y0062409D02*
X0003324Y0062409D01*
X0003324Y0061411D02*
X0015067Y0061411D01*
X0015969Y0058657D02*
X0015588Y0058555D01*
X0015245Y0058358D01*
X0014966Y0058078D01*
X0014769Y0057736D01*
X0014667Y0057355D01*
X0014666Y0054886D01*
X0018438Y0054886D01*
X0018438Y0058657D01*
X0015969Y0058657D01*
X0015345Y0058415D02*
X0003324Y0058415D01*
X0003324Y0057417D02*
X0014683Y0057417D01*
X0014667Y0056418D02*
X0003324Y0056418D01*
X0003324Y0055420D02*
X0014667Y0055420D01*
X0014667Y0054114D02*
X0014667Y0051645D01*
X0014769Y0051264D01*
X0014966Y0050921D01*
X0015245Y0050642D01*
X0015588Y0050445D01*
X0015969Y0050343D01*
X0018438Y0050343D01*
X0018438Y0054114D01*
X0019210Y0054114D01*
X0019210Y0054886D01*
X0022981Y0054886D01*
X0022981Y0057355D01*
X0022879Y0057736D01*
X0022682Y0058078D01*
X0022402Y0058358D01*
X0022060Y0058555D01*
X0021679Y0058657D01*
X0019210Y0058657D01*
X0019210Y0054886D01*
X0018438Y0054886D01*
X0018438Y0054114D01*
X0014667Y0054114D01*
X0014667Y0053423D02*
X0003324Y0053423D01*
X0003324Y0054421D02*
X0018438Y0054421D01*
X0019210Y0054421D02*
X0025067Y0054421D01*
X0025067Y0053423D02*
X0022981Y0053423D01*
X0022981Y0054114D02*
X0022981Y0051645D01*
X0022879Y0051264D01*
X0022682Y0050921D01*
X0022402Y0050642D01*
X0022060Y0050445D01*
X0021679Y0050343D01*
X0019210Y0050343D01*
X0019210Y0054114D01*
X0022981Y0054114D01*
X0022981Y0055420D02*
X0025067Y0055420D01*
X0025067Y0056418D02*
X0022981Y0056418D01*
X0022965Y0057417D02*
X0025067Y0057417D01*
X0022303Y0058415D02*
X0155324Y0058415D01*
X0155324Y0057417D02*
X0144581Y0057417D01*
X0144581Y0057613D02*
X0143937Y0058257D01*
X0137711Y0058257D01*
X0137067Y0057613D01*
X0137067Y0051387D01*
X0137711Y0050743D01*
X0143937Y0050743D01*
X0144581Y0051387D01*
X0144581Y0057613D01*
X0144581Y0056418D02*
X0155324Y0056418D01*
X0155324Y0055420D02*
X0144581Y0055420D01*
X0144581Y0054421D02*
X0155324Y0054421D01*
X0155324Y0053423D02*
X0144581Y0053423D01*
X0144581Y0052424D02*
X0155324Y0052424D01*
X0155324Y0051426D02*
X0144581Y0051426D01*
X0143937Y0048257D02*
X0144581Y0047613D01*
X0144581Y0041387D01*
X0143937Y0040743D01*
X0137711Y0040743D01*
X0137067Y0041387D01*
X0137067Y0047613D01*
X0137711Y0048257D01*
X0143937Y0048257D01*
X0144581Y0047432D02*
X0155324Y0047432D01*
X0155324Y0048430D02*
X0003324Y0048430D01*
X0003324Y0047432D02*
X0015067Y0047432D01*
X0015067Y0047613D02*
X0015067Y0041387D01*
X0015711Y0040743D01*
X0021937Y0040743D01*
X0022581Y0041387D01*
X0022581Y0047613D01*
X0021937Y0048257D01*
X0015711Y0048257D01*
X0015067Y0047613D01*
X0015067Y0046433D02*
X0003324Y0046433D01*
X0003324Y0045434D02*
X0015067Y0045434D01*
X0015067Y0044436D02*
X0003324Y0044436D01*
X0003324Y0043437D02*
X0015067Y0043437D01*
X0015067Y0042439D02*
X0003324Y0042439D01*
X0003324Y0041440D02*
X0015067Y0041440D01*
X0015711Y0038257D02*
X0015067Y0037613D01*
X0015067Y0031387D01*
X0015711Y0030743D01*
X0021937Y0030743D01*
X0022581Y0031387D01*
X0022581Y0037613D01*
X0021937Y0038257D01*
X0015711Y0038257D01*
X0015067Y0037446D02*
X0003324Y0037446D01*
X0003324Y0036448D02*
X0015067Y0036448D01*
X0015067Y0035449D02*
X0003324Y0035449D01*
X0003324Y0034451D02*
X0015067Y0034451D01*
X0015067Y0033452D02*
X0003324Y0033452D01*
X0003324Y0032454D02*
X0015067Y0032454D01*
X0015067Y0031455D02*
X0003324Y0031455D01*
X0003324Y0030457D02*
X0137567Y0030457D01*
X0137588Y0030445D02*
X0137969Y0030343D01*
X0140438Y0030343D01*
X0140438Y0034114D01*
X0141210Y0034114D01*
X0141210Y0034886D01*
X0144981Y0034886D01*
X0144981Y0037355D01*
X0144879Y0037736D01*
X0144682Y0038078D01*
X0144402Y0038358D01*
X0144060Y0038555D01*
X0143679Y0038657D01*
X0141210Y0038657D01*
X0141210Y0034886D01*
X0140438Y0034886D01*
X0140438Y0038657D01*
X0137969Y0038657D01*
X0137588Y0038555D01*
X0137245Y0038358D01*
X0136966Y0038078D01*
X0136769Y0037736D01*
X0136667Y0037355D01*
X0136666Y0034886D01*
X0140438Y0034886D01*
X0140438Y0034114D01*
X0136667Y0034114D01*
X0136667Y0031645D01*
X0136769Y0031264D01*
X0136966Y0030921D01*
X0137245Y0030642D01*
X0137588Y0030445D01*
X0136717Y0031455D02*
X0134581Y0031455D01*
X0134581Y0031387D02*
X0134581Y0037613D01*
X0133937Y0038257D01*
X0127711Y0038257D01*
X0127067Y0037613D01*
X0127067Y0031387D01*
X0127711Y0030743D01*
X0133937Y0030743D01*
X0134581Y0031387D01*
X0134581Y0032454D02*
X0136667Y0032454D01*
X0136667Y0033452D02*
X0134581Y0033452D01*
X0134581Y0034451D02*
X0140438Y0034451D01*
X0141210Y0034451D02*
X0155324Y0034451D01*
X0155324Y0035449D02*
X0144981Y0035449D01*
X0144981Y0036448D02*
X0155324Y0036448D01*
X0155324Y0037446D02*
X0144957Y0037446D01*
X0144252Y0038445D02*
X0155324Y0038445D01*
X0155324Y0039443D02*
X0003324Y0039443D01*
X0003324Y0038445D02*
X0137396Y0038445D01*
X0136691Y0037446D02*
X0134581Y0037446D01*
X0134581Y0036448D02*
X0136667Y0036448D01*
X0136667Y0035449D02*
X0134581Y0035449D01*
X0140438Y0035449D02*
X0141210Y0035449D01*
X0141210Y0036448D02*
X0140438Y0036448D01*
X0140438Y0037446D02*
X0141210Y0037446D01*
X0141210Y0038445D02*
X0140438Y0038445D01*
X0137067Y0041440D02*
X0134581Y0041440D01*
X0134581Y0042439D02*
X0137067Y0042439D01*
X0137067Y0043437D02*
X0134581Y0043437D01*
X0134581Y0044436D02*
X0137067Y0044436D01*
X0137067Y0045434D02*
X0134581Y0045434D01*
X0134581Y0046433D02*
X0137067Y0046433D01*
X0137067Y0047432D02*
X0134581Y0047432D01*
X0134581Y0051426D02*
X0137067Y0051426D01*
X0137067Y0052424D02*
X0134581Y0052424D01*
X0134581Y0053423D02*
X0137067Y0053423D01*
X0137067Y0054421D02*
X0134581Y0054421D01*
X0134581Y0055420D02*
X0137067Y0055420D01*
X0137067Y0056418D02*
X0134581Y0056418D01*
X0134581Y0057417D02*
X0137067Y0057417D01*
X0144581Y0046433D02*
X0155324Y0046433D01*
X0155324Y0045434D02*
X0144581Y0045434D01*
X0144581Y0044436D02*
X0155324Y0044436D01*
X0155324Y0043437D02*
X0144581Y0043437D01*
X0144581Y0042439D02*
X0155324Y0042439D01*
X0155324Y0041440D02*
X0144581Y0041440D01*
X0144981Y0034114D02*
X0141210Y0034114D01*
X0141210Y0030343D01*
X0143679Y0030343D01*
X0144060Y0030445D01*
X0144402Y0030642D01*
X0144682Y0030921D01*
X0144879Y0031264D01*
X0144981Y0031645D01*
X0144981Y0034114D01*
X0144981Y0033452D02*
X0155324Y0033452D01*
X0155324Y0032454D02*
X0144981Y0032454D01*
X0144931Y0031455D02*
X0155324Y0031455D01*
X0155324Y0030457D02*
X0144081Y0030457D01*
X0141210Y0030457D02*
X0140438Y0030457D01*
X0140438Y0031455D02*
X0141210Y0031455D01*
X0141210Y0032454D02*
X0140438Y0032454D01*
X0140438Y0033452D02*
X0141210Y0033452D01*
X0127067Y0033452D02*
X0032581Y0033452D01*
X0032581Y0032454D02*
X0127067Y0032454D01*
X0127067Y0031455D02*
X0032581Y0031455D01*
X0032581Y0031387D02*
X0032581Y0037613D01*
X0031937Y0038257D01*
X0025711Y0038257D01*
X0025067Y0037613D01*
X0025067Y0031387D01*
X0025711Y0030743D01*
X0031937Y0030743D01*
X0032581Y0031387D01*
X0031937Y0028257D02*
X0025711Y0028257D01*
X0025067Y0027613D01*
X0025067Y0021387D01*
X0025711Y0020743D01*
X0031937Y0020743D01*
X0032581Y0021387D01*
X0032581Y0027613D01*
X0031937Y0028257D01*
X0032581Y0027461D02*
X0155324Y0027461D01*
X0155324Y0026463D02*
X0032581Y0026463D01*
X0032581Y0025464D02*
X0155324Y0025464D01*
X0155324Y0024466D02*
X0032581Y0024466D01*
X0032581Y0023467D02*
X0155324Y0023467D01*
X0155324Y0022469D02*
X0032581Y0022469D01*
X0032581Y0021470D02*
X0155324Y0021470D01*
X0155324Y0020472D02*
X0003324Y0020472D01*
X0003324Y0021470D02*
X0015067Y0021470D01*
X0015067Y0021387D02*
X0015711Y0020743D01*
X0021937Y0020743D01*
X0022581Y0021387D01*
X0022581Y0027613D01*
X0021937Y0028257D01*
X0015711Y0028257D01*
X0015067Y0027613D01*
X0015067Y0021387D01*
X0015067Y0022469D02*
X0003324Y0022469D01*
X0003324Y0023467D02*
X0015067Y0023467D01*
X0015067Y0024466D02*
X0003324Y0024466D01*
X0003324Y0025464D02*
X0015067Y0025464D01*
X0015067Y0026463D02*
X0003324Y0026463D01*
X0003324Y0027461D02*
X0015067Y0027461D01*
X0022581Y0027461D02*
X0025067Y0027461D01*
X0025067Y0026463D02*
X0022581Y0026463D01*
X0022581Y0025464D02*
X0025067Y0025464D01*
X0025067Y0024466D02*
X0022581Y0024466D01*
X0022581Y0023467D02*
X0025067Y0023467D01*
X0025067Y0022469D02*
X0022581Y0022469D01*
X0022581Y0021470D02*
X0025067Y0021470D01*
X0025067Y0031455D02*
X0022581Y0031455D01*
X0022581Y0032454D02*
X0025067Y0032454D01*
X0025067Y0033452D02*
X0022581Y0033452D01*
X0022581Y0034451D02*
X0025067Y0034451D01*
X0025067Y0035449D02*
X0022581Y0035449D01*
X0022581Y0036448D02*
X0025067Y0036448D01*
X0025067Y0037446D02*
X0022581Y0037446D01*
X0025711Y0040743D02*
X0025067Y0041387D01*
X0025067Y0047613D01*
X0025711Y0048257D01*
X0031937Y0048257D01*
X0032581Y0047613D01*
X0032581Y0041387D01*
X0031937Y0040743D01*
X0025711Y0040743D01*
X0025067Y0041440D02*
X0022581Y0041440D01*
X0022581Y0042439D02*
X0025067Y0042439D01*
X0025067Y0043437D02*
X0022581Y0043437D01*
X0022581Y0044436D02*
X0025067Y0044436D01*
X0025067Y0045434D02*
X0022581Y0045434D01*
X0022581Y0046433D02*
X0025067Y0046433D01*
X0025067Y0047432D02*
X0022581Y0047432D01*
X0021994Y0050427D02*
X0155324Y0050427D01*
X0155324Y0049429D02*
X0003324Y0049429D01*
X0003324Y0050427D02*
X0015654Y0050427D01*
X0014725Y0051426D02*
X0003324Y0051426D01*
X0003324Y0052424D02*
X0014667Y0052424D01*
X0018438Y0052424D02*
X0019210Y0052424D01*
X0019210Y0051426D02*
X0018438Y0051426D01*
X0018438Y0050427D02*
X0019210Y0050427D01*
X0019210Y0053423D02*
X0018438Y0053423D01*
X0018438Y0055420D02*
X0019210Y0055420D01*
X0019210Y0056418D02*
X0018438Y0056418D01*
X0018438Y0057417D02*
X0019210Y0057417D01*
X0019210Y0058415D02*
X0018438Y0058415D01*
X0022981Y0052424D02*
X0025067Y0052424D01*
X0025067Y0051426D02*
X0022923Y0051426D01*
X0032581Y0043437D02*
X0127067Y0043437D01*
X0127067Y0042439D02*
X0032581Y0042439D01*
X0032581Y0041440D02*
X0127067Y0041440D01*
X0127067Y0037446D02*
X0032581Y0037446D01*
X0032581Y0036448D02*
X0127067Y0036448D01*
X0127067Y0035449D02*
X0032581Y0035449D01*
X0032581Y0034451D02*
X0127067Y0034451D01*
X0155324Y0029458D02*
X0003324Y0029458D01*
X0003324Y0028460D02*
X0155324Y0028460D01*
X0155324Y0019473D02*
X0003324Y0019473D01*
X0003324Y0018475D02*
X0155324Y0018475D01*
X0155324Y0017476D02*
X0003324Y0017476D01*
X0003324Y0016478D02*
X0155324Y0016478D01*
X0155324Y0015479D02*
X0003324Y0015479D01*
X0003324Y0014481D02*
X0155324Y0014481D01*
X0155324Y0013482D02*
X0003324Y0013482D01*
X0003324Y0012484D02*
X0155324Y0012484D01*
X0155324Y0011485D02*
X0003324Y0011485D01*
X0003324Y0010487D02*
X0155324Y0010487D01*
X0155324Y0009488D02*
X0003324Y0009488D01*
X0003324Y0008490D02*
X0155324Y0008490D01*
X0155324Y0007491D02*
X0003324Y0007491D01*
X0003324Y0006493D02*
X0155324Y0006493D01*
X0155324Y0005494D02*
X0003324Y0005494D01*
X0003324Y0004496D02*
X0155324Y0004496D01*
X0155324Y0003497D02*
X0003324Y0003497D01*
X0003324Y0003000D02*
X0003324Y0134000D01*
X0155324Y0134000D01*
X0155324Y0003000D01*
X0003324Y0003000D01*
X0003324Y0040442D02*
X0155324Y0040442D01*
X0155324Y0065405D02*
X0032981Y0065405D01*
X0032981Y0066403D02*
X0155324Y0066403D01*
X0155324Y0067402D02*
X0032969Y0067402D01*
X0032329Y0068400D02*
X0155324Y0068400D01*
X0155324Y0069399D02*
X0003324Y0069399D01*
X0003324Y0070397D02*
X0155324Y0070397D01*
X0155324Y0071396D02*
X0003324Y0071396D01*
X0003324Y0072394D02*
X0155324Y0072394D01*
X0155324Y0073393D02*
X0003324Y0073393D01*
X0003324Y0074391D02*
X0155324Y0074391D01*
X0155324Y0075390D02*
X0003324Y0075390D01*
X0003324Y0076388D02*
X0155324Y0076388D01*
X0155324Y0077387D02*
X0003324Y0077387D01*
X0003324Y0078385D02*
X0155324Y0078385D01*
X0155324Y0079384D02*
X0003324Y0079384D01*
X0003324Y0080382D02*
X0155324Y0080382D01*
X0155324Y0081381D02*
X0003324Y0081381D01*
X0003324Y0082379D02*
X0155324Y0082379D01*
X0155324Y0083378D02*
X0003324Y0083378D01*
X0003324Y0084376D02*
X0155324Y0084376D01*
X0155324Y0085375D02*
X0003324Y0085375D01*
X0003324Y0086373D02*
X0155324Y0086373D01*
X0155324Y0087372D02*
X0003324Y0087372D01*
X0003324Y0088370D02*
X0155324Y0088370D01*
X0155324Y0089369D02*
X0003324Y0089369D01*
X0003324Y0090368D02*
X0155324Y0090368D01*
X0155324Y0091366D02*
X0003324Y0091366D01*
X0003324Y0092365D02*
X0155324Y0092365D01*
X0155324Y0093363D02*
X0003324Y0093363D01*
X0003324Y0094362D02*
X0155324Y0094362D01*
X0155324Y0095360D02*
X0003324Y0095360D01*
X0003324Y0096359D02*
X0155324Y0096359D01*
X0155324Y0097357D02*
X0003324Y0097357D01*
X0003324Y0098356D02*
X0005333Y0098356D01*
X0004808Y0098573D02*
X0005863Y0098136D01*
X0009761Y0098136D01*
X0010817Y0098573D01*
X0011625Y0099381D01*
X0012062Y0100437D01*
X0012062Y0101579D01*
X0011625Y0102635D01*
X0010817Y0103442D01*
X0009761Y0103880D01*
X0005863Y0103880D01*
X0004808Y0103442D01*
X0004000Y0102635D01*
X0003563Y0101579D01*
X0003563Y0100437D01*
X0004000Y0099381D01*
X0004808Y0098573D01*
X0004027Y0099354D02*
X0003324Y0099354D01*
X0003324Y0100353D02*
X0003597Y0100353D01*
X0003563Y0101351D02*
X0003324Y0101351D01*
X0003324Y0102350D02*
X0003882Y0102350D01*
X0003324Y0103348D02*
X0004713Y0103348D01*
X0003324Y0104347D02*
X0155324Y0104347D01*
X0155324Y0105345D02*
X0003324Y0105345D01*
X0003324Y0106344D02*
X0155324Y0106344D01*
X0155324Y0107342D02*
X0003324Y0107342D01*
X0003324Y0108341D02*
X0155324Y0108341D01*
X0155324Y0109339D02*
X0003324Y0109339D01*
X0003324Y0110338D02*
X0155324Y0110338D01*
X0155324Y0111336D02*
X0003324Y0111336D01*
X0003324Y0112335D02*
X0155324Y0112335D01*
X0155324Y0113333D02*
X0003324Y0113333D01*
X0003324Y0114332D02*
X0155324Y0114332D01*
X0155324Y0115330D02*
X0003324Y0115330D01*
X0003324Y0116329D02*
X0155324Y0116329D01*
X0155324Y0117327D02*
X0003324Y0117327D01*
X0003324Y0118326D02*
X0155324Y0118326D01*
X0155324Y0119324D02*
X0086118Y0119324D01*
X0086106Y0119313D02*
X0087661Y0120868D01*
X0088503Y0122900D01*
X0088503Y0125100D01*
X0087661Y0127132D01*
X0086106Y0128687D01*
X0084074Y0129529D01*
X0081874Y0129529D01*
X0079842Y0128687D01*
X0078287Y0127132D01*
X0077941Y0126298D01*
X0076933Y0127306D01*
X0075500Y0127900D01*
X0073948Y0127900D01*
X0072515Y0127306D01*
X0071418Y0126209D01*
X0070824Y0124776D01*
X0070824Y0123224D01*
X0071418Y0121791D01*
X0072515Y0120694D01*
X0073948Y0120100D01*
X0075500Y0120100D01*
X0076933Y0120694D01*
X0077941Y0121702D01*
X0078287Y0120868D01*
X0079842Y0119313D01*
X0081874Y0118471D01*
X0084074Y0118471D01*
X0086106Y0119313D01*
X0087116Y0120323D02*
X0155324Y0120323D01*
X0155324Y0121321D02*
X0087849Y0121321D01*
X0088263Y0122320D02*
X0155324Y0122320D01*
X0155324Y0123318D02*
X0088503Y0123318D01*
X0088503Y0124317D02*
X0155324Y0124317D01*
X0155324Y0125315D02*
X0088414Y0125315D01*
X0088000Y0126314D02*
X0155324Y0126314D01*
X0155324Y0127312D02*
X0087481Y0127312D01*
X0086482Y0128311D02*
X0155324Y0128311D01*
X0155324Y0129309D02*
X0084604Y0129309D01*
X0081344Y0129309D02*
X0052304Y0129309D01*
X0051774Y0129529D02*
X0049574Y0129529D01*
X0047542Y0128687D01*
X0045987Y0127132D01*
X0045145Y0125100D01*
X0045145Y0122900D01*
X0045987Y0120868D01*
X0047542Y0119313D01*
X0049574Y0118471D01*
X0051774Y0118471D01*
X0053806Y0119313D01*
X0055361Y0120868D01*
X0055707Y0121702D01*
X0056715Y0120694D01*
X0058148Y0120100D01*
X0059700Y0120100D01*
X0061133Y0120694D01*
X0062230Y0121791D01*
X0062824Y0123224D01*
X0062824Y0124776D01*
X0062230Y0126209D01*
X0061133Y0127306D01*
X0059700Y0127900D01*
X0058148Y0127900D01*
X0056715Y0127306D01*
X0055707Y0126298D01*
X0055361Y0127132D01*
X0053806Y0128687D01*
X0051774Y0129529D01*
X0054182Y0128311D02*
X0079466Y0128311D01*
X0078467Y0127312D02*
X0076918Y0127312D01*
X0077925Y0126314D02*
X0077948Y0126314D01*
X0072530Y0127312D02*
X0069018Y0127312D01*
X0069033Y0127306D02*
X0067600Y0127900D01*
X0066048Y0127900D01*
X0064615Y0127306D01*
X0063518Y0126209D01*
X0062924Y0124776D01*
X0062924Y0123224D01*
X0063518Y0121791D01*
X0064615Y0120694D01*
X0066048Y0120100D01*
X0067600Y0120100D01*
X0069033Y0120694D01*
X0070130Y0121791D01*
X0070724Y0123224D01*
X0070724Y0124776D01*
X0070130Y0126209D01*
X0069033Y0127306D01*
X0070025Y0126314D02*
X0071522Y0126314D01*
X0071048Y0125315D02*
X0070500Y0125315D01*
X0070724Y0124317D02*
X0070824Y0124317D01*
X0070824Y0123318D02*
X0070724Y0123318D01*
X0070349Y0122320D02*
X0071199Y0122320D01*
X0071887Y0121321D02*
X0069661Y0121321D01*
X0068138Y0120323D02*
X0073410Y0120323D01*
X0076038Y0120323D02*
X0078832Y0120323D01*
X0078099Y0121321D02*
X0077561Y0121321D01*
X0079830Y0119324D02*
X0053818Y0119324D01*
X0054816Y0120323D02*
X0057610Y0120323D01*
X0056087Y0121321D02*
X0055549Y0121321D01*
X0060238Y0120323D02*
X0065510Y0120323D01*
X0063987Y0121321D02*
X0061761Y0121321D01*
X0062449Y0122320D02*
X0063299Y0122320D01*
X0062924Y0123318D02*
X0062824Y0123318D01*
X0062824Y0124317D02*
X0062924Y0124317D01*
X0063148Y0125315D02*
X0062600Y0125315D01*
X0062125Y0126314D02*
X0063622Y0126314D01*
X0064630Y0127312D02*
X0061118Y0127312D01*
X0056730Y0127312D02*
X0055181Y0127312D01*
X0055700Y0126314D02*
X0055722Y0126314D01*
X0049044Y0129309D02*
X0010934Y0129309D01*
X0010817Y0129427D02*
X0009761Y0129864D01*
X0005863Y0129864D01*
X0004808Y0129427D01*
X0004000Y0128619D01*
X0003563Y0127563D01*
X0003563Y0126421D01*
X0004000Y0125365D01*
X0004808Y0124558D01*
X0005863Y0124120D01*
X0009761Y0124120D01*
X0010817Y0124558D01*
X0011625Y0125365D01*
X0012062Y0126421D01*
X0012062Y0127563D01*
X0011625Y0128619D01*
X0010817Y0129427D01*
X0011752Y0128311D02*
X0047166Y0128311D01*
X0046167Y0127312D02*
X0012062Y0127312D01*
X0012017Y0126314D02*
X0045648Y0126314D01*
X0045234Y0125315D02*
X0011575Y0125315D01*
X0010236Y0124317D02*
X0045145Y0124317D01*
X0045145Y0123318D02*
X0003324Y0123318D01*
X0003324Y0122320D02*
X0045385Y0122320D01*
X0045799Y0121321D02*
X0003324Y0121321D01*
X0003324Y0120323D02*
X0046532Y0120323D01*
X0047530Y0119324D02*
X0003324Y0119324D01*
X0003324Y0124317D02*
X0005389Y0124317D01*
X0004050Y0125315D02*
X0003324Y0125315D01*
X0003324Y0126314D02*
X0003607Y0126314D01*
X0003563Y0127312D02*
X0003324Y0127312D01*
X0003324Y0128311D02*
X0003872Y0128311D01*
X0003324Y0129309D02*
X0004690Y0129309D01*
X0003324Y0130308D02*
X0155324Y0130308D01*
X0155324Y0131306D02*
X0003324Y0131306D01*
X0003324Y0132305D02*
X0155324Y0132305D01*
X0155324Y0133303D02*
X0003324Y0133303D01*
X0010911Y0103348D02*
X0155324Y0103348D01*
X0155324Y0102350D02*
X0011743Y0102350D01*
X0012062Y0101351D02*
X0155324Y0101351D01*
X0155324Y0100353D02*
X0012027Y0100353D01*
X0011597Y0099354D02*
X0155324Y0099354D01*
X0155324Y0098356D02*
X0010291Y0098356D01*
X0022581Y0067402D02*
X0024679Y0067402D01*
X0024667Y0066403D02*
X0022581Y0066403D01*
X0022581Y0065405D02*
X0024667Y0065405D01*
X0028438Y0060412D02*
X0029210Y0060412D01*
X0134824Y0106500D02*
X0135824Y0107500D01*
X0135824Y0109500D01*
D16*
X0134824Y0106500D03*
X0048824Y0108500D03*
D17*
X0048824Y0110500D01*
M02*
