G75*
%MOIN*%
%OFA0B0*%
%FSLAX25Y25*%
%IPPOS*%
%LPD*%
%AMOC8*
5,1,8,0,0,1.08239X$1,22.5*
%
%ADD10C,0.00000*%
%ADD11R,0.05315X0.01575*%
%ADD12R,0.05512X0.06299*%
%ADD13R,0.07480X0.07480*%
%ADD14C,0.03543*%
%ADD15R,0.05906X0.15748*%
%ADD16R,0.05906X0.03937*%
%ADD17R,0.07087X0.06299*%
%ADD18C,0.05600*%
%ADD19C,0.08858*%
%ADD20R,0.03543X0.02362*%
%ADD21R,0.04331X0.04921*%
%ADD22R,0.02756X0.05118*%
%ADD23R,0.05315X0.05315*%
%ADD24R,0.03543X0.06299*%
%ADD25C,0.03169*%
%ADD26C,0.01600*%
%ADD27C,0.01000*%
D10*
X0001824Y0001500D02*
X0001824Y0135500D01*
X0156824Y0135500D01*
X0156824Y0001500D01*
X0001824Y0001500D01*
D11*
X0018324Y0108882D03*
X0018324Y0111441D03*
X0018324Y0114000D03*
X0018324Y0116559D03*
X0018324Y0119118D03*
D12*
X0018324Y0126598D03*
X0018324Y0101402D03*
D13*
X0007792Y0109276D03*
X0007792Y0118724D03*
D14*
X0009190Y0126992D02*
X0009190Y0126992D01*
X0006434Y0126992D01*
X0006434Y0126992D01*
X0009190Y0126992D01*
X0009190Y0101008D02*
X0009190Y0101008D01*
X0006434Y0101008D01*
X0006434Y0101008D01*
X0009190Y0101008D01*
D15*
X0101529Y0114000D03*
D16*
X0127119Y0114000D03*
X0127119Y0123055D03*
X0127119Y0104945D03*
D17*
X0039324Y0115488D03*
X0039324Y0126512D03*
D18*
X0058924Y0124000D03*
X0066824Y0124000D03*
X0074724Y0124000D03*
D19*
X0082974Y0124000D03*
X0050674Y0124000D03*
D20*
X0036824Y0107453D03*
X0036824Y0101547D03*
D21*
X0139403Y0121500D03*
X0149245Y0121500D03*
D22*
X0148064Y0106500D03*
X0140584Y0106500D03*
D23*
X0140824Y0054500D03*
X0140824Y0044500D03*
X0140824Y0034500D03*
X0130824Y0034500D03*
X0130824Y0044500D03*
X0130824Y0054500D03*
X0028824Y0054500D03*
X0028824Y0044500D03*
X0028824Y0034500D03*
X0018824Y0034500D03*
X0018824Y0044500D03*
X0018824Y0054500D03*
X0018824Y0064500D03*
X0028824Y0064500D03*
X0028824Y0024500D03*
X0018824Y0024500D03*
D24*
X0108615Y0094500D03*
X0120033Y0094500D03*
X0139115Y0130000D03*
X0150533Y0130000D03*
D25*
X0145824Y0129500D03*
X0134824Y0106500D03*
X0041824Y0107500D03*
D26*
X0040777Y0107453D01*
X0036824Y0107453D01*
X0032871Y0107453D01*
X0031442Y0108882D01*
X0018324Y0108882D01*
X0018324Y0101402D02*
X0036678Y0101402D01*
X0036824Y0101547D01*
X0039324Y0115488D02*
X0033836Y0115488D01*
X0030206Y0119118D01*
X0018324Y0119118D01*
X0039324Y0126512D02*
X0043312Y0130500D01*
X0058924Y0130500D01*
X0127119Y0130500D01*
X0138615Y0130500D01*
X0138659Y0130498D01*
X0138702Y0130492D01*
X0138744Y0130483D01*
X0138786Y0130470D01*
X0138826Y0130453D01*
X0138865Y0130433D01*
X0138902Y0130410D01*
X0138936Y0130383D01*
X0138969Y0130354D01*
X0138998Y0130321D01*
X0139025Y0130287D01*
X0139048Y0130250D01*
X0139068Y0130211D01*
X0139085Y0130171D01*
X0139098Y0130129D01*
X0139107Y0130087D01*
X0139113Y0130044D01*
X0139115Y0130000D01*
X0139115Y0121787D01*
X0139116Y0121787D02*
X0139118Y0121755D01*
X0139123Y0121723D01*
X0139132Y0121692D01*
X0139144Y0121662D01*
X0139160Y0121634D01*
X0139179Y0121608D01*
X0139200Y0121584D01*
X0139224Y0121563D01*
X0139250Y0121544D01*
X0139278Y0121528D01*
X0139308Y0121516D01*
X0139339Y0121507D01*
X0139371Y0121502D01*
X0139403Y0121500D01*
X0133824Y0118500D02*
X0133824Y0109500D01*
X0114824Y0109500D01*
X0114824Y0081500D01*
X0070824Y0081500D01*
X0070824Y0121542D01*
X0071215Y0121003D01*
X0071727Y0120491D01*
X0072313Y0120066D01*
X0072958Y0119737D01*
X0073647Y0119513D01*
X0074362Y0119400D01*
X0074724Y0119400D01*
X0075086Y0119400D01*
X0075801Y0119513D01*
X0076490Y0119737D01*
X0077135Y0120066D01*
X0077721Y0120491D01*
X0078002Y0120772D01*
X0078032Y0120698D01*
X0079672Y0119058D01*
X0081814Y0118171D01*
X0084133Y0118171D01*
X0086276Y0119058D01*
X0087916Y0120698D01*
X0088803Y0122841D01*
X0088803Y0125159D01*
X0087916Y0127302D01*
X0087718Y0127500D01*
X0120824Y0127500D01*
X0120824Y0118500D01*
X0133824Y0118500D01*
X0133824Y0118191D02*
X0106281Y0118191D01*
X0106281Y0116593D02*
X0122470Y0116593D01*
X0122489Y0116663D02*
X0122367Y0116205D01*
X0122367Y0114184D01*
X0126935Y0114184D01*
X0126935Y0113816D01*
X0122367Y0113816D01*
X0122367Y0111795D01*
X0122489Y0111337D01*
X0122726Y0110926D01*
X0123061Y0110591D01*
X0123472Y0110354D01*
X0123930Y0110231D01*
X0126935Y0110231D01*
X0126935Y0113816D01*
X0127304Y0113816D01*
X0127304Y0114184D01*
X0131872Y0114184D01*
X0131872Y0116205D01*
X0131749Y0116663D01*
X0131512Y0117074D01*
X0131177Y0117409D01*
X0130767Y0117646D01*
X0130309Y0117768D01*
X0127304Y0117768D01*
X0127304Y0114184D01*
X0126935Y0114184D01*
X0126935Y0117768D01*
X0123930Y0117768D01*
X0123472Y0117646D01*
X0123061Y0117409D01*
X0122726Y0117074D01*
X0122489Y0116663D01*
X0122367Y0114994D02*
X0106281Y0114994D01*
X0106281Y0114676D02*
X0106281Y0122111D01*
X0106159Y0122569D01*
X0105922Y0122979D01*
X0105587Y0123314D01*
X0105176Y0123551D01*
X0104718Y0123674D01*
X0102205Y0123674D01*
X0102205Y0114676D01*
X0106281Y0114676D01*
X0106281Y0113324D02*
X0102205Y0113324D01*
X0102205Y0114676D01*
X0100852Y0114676D01*
X0100852Y0113324D01*
X0096776Y0113324D01*
X0096776Y0105889D01*
X0096899Y0105431D01*
X0097136Y0105021D01*
X0097471Y0104686D01*
X0097881Y0104449D01*
X0098339Y0104326D01*
X0100852Y0104326D01*
X0100852Y0113324D01*
X0102205Y0113324D01*
X0102205Y0104326D01*
X0104718Y0104326D01*
X0105176Y0104449D01*
X0105587Y0104686D01*
X0105922Y0105021D01*
X0106159Y0105431D01*
X0106281Y0105889D01*
X0106281Y0113324D01*
X0106281Y0111797D02*
X0122367Y0111797D01*
X0122367Y0113396D02*
X0102205Y0113396D01*
X0101529Y0114000D02*
X0108615Y0114000D01*
X0108615Y0094500D01*
X0108529Y0094586D02*
X0108529Y0094414D01*
X0105044Y0094414D01*
X0105044Y0091113D01*
X0105166Y0090656D01*
X0105403Y0090245D01*
X0105738Y0089910D01*
X0106149Y0089673D01*
X0106607Y0089550D01*
X0108529Y0089550D01*
X0108529Y0094414D01*
X0108701Y0094414D01*
X0108701Y0089550D01*
X0110624Y0089550D01*
X0111082Y0089673D01*
X0111492Y0089910D01*
X0111827Y0090245D01*
X0112064Y0090656D01*
X0112187Y0091113D01*
X0112187Y0094414D01*
X0108701Y0094414D01*
X0108701Y0094586D01*
X0108529Y0094586D01*
X0105044Y0094586D01*
X0105044Y0097887D01*
X0105166Y0098344D01*
X0105403Y0098755D01*
X0105738Y0099090D01*
X0106149Y0099327D01*
X0106607Y0099450D01*
X0108529Y0099450D01*
X0108529Y0094586D01*
X0108701Y0094586D02*
X0108701Y0099450D01*
X0110624Y0099450D01*
X0111082Y0099327D01*
X0111492Y0099090D01*
X0111827Y0098755D01*
X0112064Y0098344D01*
X0112187Y0097887D01*
X0112187Y0094586D01*
X0108701Y0094586D01*
X0108701Y0094214D02*
X0108529Y0094214D01*
X0108529Y0095812D02*
X0108701Y0095812D01*
X0108701Y0097411D02*
X0108529Y0097411D01*
X0108529Y0099009D02*
X0108701Y0099009D01*
X0111573Y0099009D02*
X0114824Y0099009D01*
X0114824Y0097411D02*
X0112187Y0097411D01*
X0112187Y0095812D02*
X0114824Y0095812D01*
X0114824Y0094214D02*
X0112187Y0094214D01*
X0112187Y0092615D02*
X0114824Y0092615D01*
X0114824Y0091017D02*
X0112161Y0091017D01*
X0114824Y0089418D02*
X0070824Y0089418D01*
X0070824Y0087820D02*
X0114824Y0087820D01*
X0114824Y0086221D02*
X0070824Y0086221D01*
X0070824Y0084623D02*
X0114824Y0084623D01*
X0114824Y0083024D02*
X0070824Y0083024D01*
X0066824Y0080500D02*
X0066824Y0124000D01*
X0070824Y0121388D02*
X0070936Y0121388D01*
X0070824Y0119790D02*
X0072855Y0119790D01*
X0074724Y0119790D02*
X0074724Y0119790D01*
X0074724Y0119400D02*
X0074724Y0124000D01*
X0074724Y0114000D01*
X0101529Y0114000D01*
X0127119Y0114000D01*
X0127304Y0113816D02*
X0127304Y0110231D01*
X0130309Y0110231D01*
X0130767Y0110354D01*
X0131177Y0110591D01*
X0131512Y0110926D01*
X0131749Y0111337D01*
X0131872Y0111795D01*
X0131872Y0113816D01*
X0127304Y0113816D01*
X0127304Y0113396D02*
X0126935Y0113396D01*
X0126935Y0114994D02*
X0127304Y0114994D01*
X0127304Y0116593D02*
X0126935Y0116593D01*
X0131768Y0116593D02*
X0133824Y0116593D01*
X0133824Y0114994D02*
X0131872Y0114994D01*
X0131872Y0113396D02*
X0133824Y0113396D01*
X0133824Y0111797D02*
X0131872Y0111797D01*
X0133824Y0110199D02*
X0106281Y0110199D01*
X0106281Y0108600D02*
X0114824Y0108600D01*
X0114824Y0107002D02*
X0106281Y0107002D01*
X0106143Y0105403D02*
X0114824Y0105403D01*
X0114824Y0103805D02*
X0070824Y0103805D01*
X0070824Y0105403D02*
X0096915Y0105403D01*
X0096776Y0107002D02*
X0070824Y0107002D01*
X0070824Y0108600D02*
X0096776Y0108600D01*
X0096776Y0110199D02*
X0070824Y0110199D01*
X0070824Y0111797D02*
X0096776Y0111797D01*
X0096776Y0114676D02*
X0096776Y0122111D01*
X0096899Y0122569D01*
X0097136Y0122979D01*
X0097471Y0123314D01*
X0097881Y0123551D01*
X0098339Y0123674D01*
X0100852Y0123674D01*
X0100852Y0114676D01*
X0096776Y0114676D01*
X0096776Y0114994D02*
X0070824Y0114994D01*
X0070824Y0113396D02*
X0100852Y0113396D01*
X0100852Y0114994D02*
X0102205Y0114994D01*
X0102205Y0116593D02*
X0100852Y0116593D01*
X0100852Y0118191D02*
X0102205Y0118191D01*
X0102205Y0119790D02*
X0100852Y0119790D01*
X0100852Y0121388D02*
X0102205Y0121388D01*
X0102205Y0122987D02*
X0100852Y0122987D01*
X0097143Y0122987D02*
X0088803Y0122987D01*
X0088803Y0124585D02*
X0120824Y0124585D01*
X0120824Y0122987D02*
X0105914Y0122987D01*
X0106281Y0121388D02*
X0120824Y0121388D01*
X0120824Y0119790D02*
X0106281Y0119790D01*
X0102205Y0111797D02*
X0100852Y0111797D01*
X0100852Y0110199D02*
X0102205Y0110199D01*
X0102205Y0108600D02*
X0100852Y0108600D01*
X0100852Y0107002D02*
X0102205Y0107002D01*
X0102205Y0105403D02*
X0100852Y0105403D01*
X0105658Y0099009D02*
X0070824Y0099009D01*
X0070824Y0097411D02*
X0105044Y0097411D01*
X0105044Y0095812D02*
X0070824Y0095812D01*
X0070824Y0094214D02*
X0105044Y0094214D01*
X0105044Y0092615D02*
X0070824Y0092615D01*
X0070824Y0091017D02*
X0105070Y0091017D01*
X0108529Y0091017D02*
X0108701Y0091017D01*
X0108701Y0092615D02*
X0108529Y0092615D01*
X0114824Y0100608D02*
X0070824Y0100608D01*
X0070824Y0102206D02*
X0114824Y0102206D01*
X0119824Y0102500D02*
X0119824Y0094512D01*
X0120033Y0094512D01*
X0120033Y0094500D01*
X0119824Y0102500D02*
X0122269Y0104945D01*
X0127119Y0104945D01*
X0133269Y0104945D01*
X0134824Y0106500D01*
X0140584Y0106500D01*
X0148064Y0106500D02*
X0148064Y0121500D01*
X0149245Y0121500D01*
X0150533Y0130000D02*
X0146324Y0130000D01*
X0145824Y0129500D01*
X0127119Y0130500D02*
X0127119Y0123055D01*
X0120824Y0126184D02*
X0088379Y0126184D01*
X0088202Y0121388D02*
X0096776Y0121388D01*
X0096776Y0119790D02*
X0087007Y0119790D01*
X0084183Y0118191D02*
X0096776Y0118191D01*
X0096776Y0116593D02*
X0070824Y0116593D01*
X0070824Y0118191D02*
X0081765Y0118191D01*
X0078941Y0119790D02*
X0076593Y0119790D01*
X0074724Y0119400D02*
X0074724Y0124000D01*
X0074724Y0124000D01*
X0074724Y0122987D02*
X0074724Y0122987D01*
X0074724Y0121388D02*
X0074724Y0121388D01*
X0058924Y0124000D02*
X0058924Y0130500D01*
X0066824Y0080500D02*
X0080824Y0066500D01*
X0142824Y0066500D01*
X0149824Y0059500D01*
X0149824Y0033310D01*
X0145298Y0028784D01*
X0136540Y0028784D01*
X0130824Y0034500D01*
X0127304Y0111797D02*
X0126935Y0111797D01*
D27*
X0125824Y0059500D02*
X0133824Y0059500D01*
X0135824Y0057500D01*
X0135824Y0051500D01*
X0133824Y0049500D01*
X0131824Y0049500D01*
X0130824Y0048500D01*
X0130824Y0044500D01*
X0134824Y0040500D02*
X0135824Y0041500D01*
X0135824Y0047500D01*
X0137824Y0049500D01*
X0139410Y0049500D01*
X0140824Y0050914D01*
X0140824Y0054500D01*
X0140824Y0044500D02*
X0140824Y0040500D01*
X0138824Y0038500D01*
X0043824Y0038500D01*
X0034824Y0029500D01*
X0023824Y0029500D01*
X0018824Y0034500D01*
X0023824Y0039500D02*
X0038824Y0039500D01*
X0039824Y0040500D01*
X0134824Y0040500D01*
X0130824Y0054500D02*
X0125824Y0054500D01*
X0115824Y0044500D01*
X0028824Y0044500D01*
X0023824Y0039500D02*
X0018824Y0044500D01*
X0028824Y0054500D02*
X0120824Y0054500D01*
X0125824Y0059500D01*
X0018324Y0101402D02*
X0013812Y0101402D01*
X0007812Y0101008D01*
X0007792Y0102008D01*
X0007792Y0109276D01*
X0007792Y0118724D01*
X0007812Y0118724D01*
X0007812Y0126992D01*
X0013812Y0126598D01*
X0018324Y0126598D01*
M02*
