G75*
%MOIN*%
%OFA0B0*%
%FSLAX25Y25*%
%IPPOS*%
%LPD*%
%AMOC8*
5,1,8,0,0,1.08239X$1,22.5*
%
%ADD10C,0.00000*%
%ADD11C,0.00600*%
%ADD12C,0.00500*%
%ADD13C,0.00800*%
%ADD14C,0.00200*%
%ADD15R,0.00126X0.02370*%
%ADD16R,0.00124X0.03130*%
%ADD17R,0.00126X0.03630*%
%ADD18R,0.00125X0.03870*%
%ADD19R,0.00124X0.04370*%
%ADD20R,0.00126X0.04630*%
%ADD21R,0.00125X0.05130*%
%ADD22R,0.00124X0.05370*%
%ADD23R,0.00126X0.05630*%
%ADD24R,0.00125X0.05870*%
%ADD25R,0.00124X0.06130*%
%ADD26R,0.00126X0.06370*%
%ADD27R,0.00124X0.06630*%
%ADD28R,0.00126X0.06870*%
%ADD29R,0.00124X0.07130*%
%ADD30R,0.00125X0.07370*%
%ADD31R,0.00126X0.07630*%
%ADD32R,0.00125X0.07870*%
%ADD33R,0.00124X0.08130*%
%ADD34R,0.00126X0.08370*%
%ADD35R,0.00125X0.08630*%
%ADD36R,0.00124X0.08870*%
%ADD37R,0.00126X0.09130*%
%ADD38R,0.00125X0.09370*%
%ADD39R,0.00124X0.09630*%
%ADD40R,0.00126X0.09870*%
%ADD41R,0.00125X0.10130*%
%ADD42R,0.00125X0.10370*%
%ADD43R,0.00125X0.10630*%
%ADD44R,0.00124X0.10870*%
%ADD45R,0.00125X0.11130*%
%ADD46R,0.00126X0.11370*%
%ADD47R,0.00125X0.11630*%
%ADD48R,0.00125X0.05250*%
%ADD49R,0.00124X0.05250*%
%ADD50R,0.00124X0.05120*%
%ADD51R,0.00126X0.05120*%
%ADD52R,0.00125X0.05120*%
%ADD53R,0.00124X0.05130*%
%ADD54R,0.00126X0.05250*%
%ADD55R,0.00126X0.05130*%
%ADD56R,0.00125X0.05370*%
%ADD57R,0.00125X0.06130*%
%ADD58R,0.00125X0.06370*%
%ADD59R,0.00125X0.06630*%
%ADD60R,0.00125X0.06870*%
%ADD61R,0.00125X0.07130*%
%ADD62R,0.00124X0.07630*%
%ADD63R,0.00125X0.02870*%
%ADD64R,0.00125X0.04620*%
%ADD65R,0.00125X0.02880*%
%ADD66R,0.00125X0.04630*%
%ADD67R,0.00126X0.02870*%
%ADD68R,0.00126X0.04620*%
%ADD69R,0.00124X0.02880*%
%ADD70R,0.00124X0.04630*%
%ADD71R,0.00125X0.04500*%
%ADD72R,0.00125X0.04250*%
%ADD73R,0.00125X0.04000*%
%ADD74R,0.00125X0.03750*%
%ADD75R,0.00125X0.03500*%
%ADD76R,0.00125X0.03250*%
%ADD77R,0.00124X0.02870*%
%ADD78R,0.00124X0.03250*%
%ADD79R,0.00125X0.03120*%
%ADD80R,0.00125X0.03130*%
%ADD81R,0.00126X0.03250*%
%ADD82R,0.00124X0.03120*%
%ADD83R,0.00125X0.00250*%
%ADD84R,0.00125X0.00500*%
%ADD85R,0.00125X0.00630*%
%ADD86R,0.00126X0.05000*%
%ADD87R,0.00126X0.04000*%
%ADD88R,0.00126X0.00870*%
%ADD89R,0.00125X0.05000*%
%ADD90R,0.00125X0.04120*%
%ADD91R,0.00125X0.01130*%
%ADD92R,0.00124X0.05000*%
%ADD93R,0.00124X0.04250*%
%ADD94R,0.00124X0.01250*%
%ADD95R,0.00125X0.04870*%
%ADD96R,0.00125X0.04370*%
%ADD97R,0.00125X0.01500*%
%ADD98R,0.00125X0.04880*%
%ADD99R,0.00125X0.04380*%
%ADD100R,0.00125X0.01750*%
%ADD101R,0.00125X0.01880*%
%ADD102R,0.00125X0.04750*%
%ADD103R,0.00125X0.02120*%
%ADD104R,0.00125X0.02250*%
%ADD105R,0.00125X0.02370*%
%ADD106R,0.00125X0.01630*%
%ADD107R,0.00125X0.02000*%
%ADD108R,0.00125X0.02630*%
%ADD109R,0.00125X0.01380*%
%ADD110R,0.00125X0.02750*%
%ADD111R,0.00125X0.01370*%
%ADD112R,0.00126X0.04120*%
%ADD113R,0.00126X0.01250*%
%ADD114R,0.00126X0.01370*%
%ADD115R,0.00126X0.03130*%
%ADD116R,0.00125X0.01250*%
%ADD117R,0.00125X0.03370*%
%ADD118R,0.00125X0.01120*%
%ADD119R,0.00125X0.03620*%
%ADD120R,0.00125X0.05380*%
%ADD121R,0.00125X0.03630*%
%ADD122R,0.00124X0.03370*%
%ADD123R,0.00125X0.01870*%
%ADD124R,0.00125X0.05500*%
%ADD125R,0.00126X0.05500*%
%ADD126R,0.00126X0.01620*%
%ADD127R,0.00125X0.05630*%
%ADD128R,0.00125X0.05620*%
%ADD129R,0.00125X0.01620*%
%ADD130R,0.00124X0.05630*%
%ADD131R,0.00124X0.01750*%
%ADD132R,0.00124X0.05500*%
%ADD133R,0.00126X0.05620*%
%ADD134R,0.00126X0.03000*%
%ADD135R,0.00125X0.01000*%
%ADD136R,0.00124X0.05620*%
%ADD137R,0.00126X0.11250*%
%ADD138R,0.00124X0.11000*%
%ADD139R,0.00126X0.10750*%
%ADD140R,0.00124X0.10500*%
%ADD141R,0.00126X0.10250*%
%ADD142R,0.00124X0.10000*%
%ADD143R,0.00126X0.09750*%
%ADD144R,0.00125X0.09500*%
%ADD145R,0.00125X0.09250*%
%ADD146R,0.00125X0.09000*%
%ADD147R,0.00125X0.08750*%
%ADD148R,0.00125X0.08500*%
%ADD149R,0.00124X0.08370*%
%ADD150R,0.00126X0.08130*%
%ADD151R,0.00124X0.07870*%
%ADD152R,0.00124X0.07370*%
%ADD153R,0.00126X0.07130*%
%ADD154R,0.00124X0.06870*%
%ADD155R,0.00126X0.06630*%
%ADD156R,0.00124X0.06370*%
%ADD157R,0.00126X0.06130*%
%ADD158R,0.00124X0.05870*%
%ADD159R,0.00126X0.04370*%
%ADD160R,0.00124X0.03870*%
%ADD161R,0.00126X0.03370*%
D10*
X0001824Y0001500D02*
X0001824Y0135500D01*
X0156824Y0135500D01*
X0156824Y0001500D01*
X0001824Y0001500D01*
D11*
X0106003Y0083206D02*
X0106570Y0082639D01*
X0108839Y0082639D01*
X0109406Y0083206D01*
X0109406Y0084340D01*
X0108839Y0084907D01*
X0109406Y0086322D02*
X0107137Y0088590D01*
X0106570Y0088590D01*
X0106003Y0088023D01*
X0106003Y0086889D01*
X0106570Y0086322D01*
X0106570Y0084907D02*
X0106003Y0084340D01*
X0106003Y0083206D01*
X0109406Y0086322D02*
X0109406Y0088590D01*
X0057142Y0097662D02*
X0056575Y0097095D01*
X0054306Y0097095D01*
X0053739Y0097662D01*
X0053739Y0098797D01*
X0054306Y0099364D01*
X0054873Y0100778D02*
X0053739Y0101913D01*
X0057142Y0101913D01*
X0057142Y0103047D02*
X0057142Y0100778D01*
X0056575Y0099364D02*
X0057142Y0098797D01*
X0057142Y0097662D01*
X0044855Y0102946D02*
X0044855Y0105214D01*
X0044855Y0106629D02*
X0044855Y0108897D01*
X0044855Y0107763D02*
X0041452Y0107763D01*
X0042586Y0106629D01*
X0041452Y0102946D02*
X0044855Y0102946D01*
X0027087Y0123251D02*
X0024251Y0123251D01*
X0027087Y0123251D02*
X0027654Y0123818D01*
X0027654Y0124952D01*
X0027087Y0125519D01*
X0024251Y0125519D01*
X0024818Y0126934D02*
X0025385Y0126934D01*
X0025952Y0127501D01*
X0025952Y0128635D01*
X0026520Y0129202D01*
X0027087Y0129202D01*
X0027654Y0128635D01*
X0027654Y0127501D01*
X0027087Y0126934D01*
X0024818Y0126934D02*
X0024251Y0127501D01*
X0024251Y0128635D01*
X0024818Y0129202D01*
X0024251Y0130617D02*
X0024251Y0132318D01*
X0024818Y0132885D01*
X0025385Y0132885D01*
X0025952Y0132318D01*
X0025952Y0130617D01*
X0024251Y0130617D02*
X0027654Y0130617D01*
X0027654Y0132318D01*
X0027087Y0132885D01*
X0026520Y0132885D01*
X0025952Y0132318D01*
D12*
X0022379Y0130063D02*
X0022379Y0097937D01*
X0018442Y0094000D01*
X0002084Y0094000D01*
X0002084Y0134000D01*
X0018442Y0134000D01*
X0022379Y0130063D01*
X0034350Y0116549D02*
X0034350Y0114748D01*
X0034350Y0115648D02*
X0031647Y0115648D01*
X0032548Y0114748D01*
X0031647Y0113603D02*
X0031647Y0111801D01*
X0034350Y0111801D01*
X0032998Y0111801D02*
X0032998Y0112702D01*
X0034068Y0110012D02*
X0034068Y0098988D01*
X0039580Y0098988D01*
X0039580Y0110012D01*
X0034068Y0110012D01*
X0049895Y0115535D02*
X0083753Y0115535D01*
X0083753Y0132465D01*
X0049895Y0132465D01*
X0049895Y0115535D01*
X0053163Y0113331D02*
X0053163Y0104669D01*
X0070485Y0104669D01*
X0070485Y0113331D01*
X0053163Y0113331D01*
X0041824Y0084500D02*
X0041824Y0004500D01*
X0005824Y0004500D01*
X0005824Y0084500D01*
X0041824Y0084500D01*
X0051772Y0079009D02*
X0051772Y0077657D01*
X0052223Y0077207D01*
X0053124Y0077207D01*
X0053574Y0077657D01*
X0053574Y0079009D01*
X0053574Y0076062D02*
X0052223Y0076062D01*
X0051772Y0075612D01*
X0051772Y0074261D01*
X0053574Y0074261D01*
X0053574Y0073197D02*
X0053574Y0072296D01*
X0053574Y0072747D02*
X0050872Y0072747D01*
X0050872Y0073197D02*
X0050872Y0072296D01*
X0053124Y0068286D02*
X0053124Y0067836D01*
X0053574Y0067836D01*
X0053574Y0068286D01*
X0053124Y0068286D01*
X0053574Y0068286D02*
X0054475Y0067385D01*
X0053124Y0066240D02*
X0052223Y0066240D01*
X0051772Y0065790D01*
X0051772Y0064439D01*
X0050872Y0064439D02*
X0053574Y0064439D01*
X0053574Y0065790D01*
X0053124Y0066240D01*
X0053574Y0063294D02*
X0052223Y0063294D01*
X0051772Y0062843D01*
X0051772Y0061943D01*
X0052673Y0061943D02*
X0052673Y0063294D01*
X0053574Y0063294D02*
X0053574Y0061943D01*
X0053124Y0061492D01*
X0052673Y0061943D01*
X0050872Y0060347D02*
X0050872Y0058546D01*
X0053574Y0058546D01*
X0053124Y0057401D02*
X0052223Y0057401D01*
X0051772Y0056950D01*
X0051772Y0056050D01*
X0052223Y0055599D01*
X0053124Y0055599D01*
X0053574Y0056050D01*
X0053574Y0056950D01*
X0053124Y0057401D01*
X0052223Y0058546D02*
X0052223Y0059447D01*
X0051772Y0054495D02*
X0051772Y0054045D01*
X0052673Y0053144D01*
X0053574Y0053144D02*
X0051772Y0053144D01*
X0051772Y0051999D02*
X0051772Y0050648D01*
X0052223Y0050197D01*
X0053124Y0050197D01*
X0053574Y0050648D01*
X0053574Y0051999D01*
X0053574Y0049052D02*
X0052223Y0049052D01*
X0051772Y0048602D01*
X0051772Y0047701D01*
X0052673Y0047701D02*
X0052673Y0049052D01*
X0053574Y0049052D02*
X0053574Y0047701D01*
X0053124Y0047251D01*
X0052673Y0047701D01*
X0053574Y0046106D02*
X0050872Y0046106D01*
X0051772Y0045205D01*
X0050872Y0044304D01*
X0053574Y0044304D01*
X0056772Y0044755D02*
X0057223Y0044304D01*
X0058124Y0044304D01*
X0058574Y0044755D01*
X0058574Y0046106D01*
X0058124Y0047251D02*
X0057223Y0047251D01*
X0056772Y0047701D01*
X0056772Y0048602D01*
X0057223Y0049052D01*
X0058124Y0049052D01*
X0058574Y0048602D01*
X0058574Y0047701D01*
X0058124Y0047251D01*
X0056772Y0046106D02*
X0056772Y0044755D01*
X0058124Y0043281D02*
X0058574Y0043281D01*
X0058574Y0042831D01*
X0058124Y0042831D01*
X0058124Y0043281D01*
X0058124Y0041686D02*
X0057223Y0041686D01*
X0056772Y0041236D01*
X0056772Y0039885D01*
X0055872Y0039885D02*
X0058574Y0039885D01*
X0058574Y0041236D01*
X0058124Y0041686D01*
X0060872Y0041195D02*
X0060872Y0039393D01*
X0060872Y0040294D02*
X0063574Y0040294D01*
X0063124Y0042340D02*
X0061322Y0042340D01*
X0060872Y0042790D01*
X0060872Y0043691D01*
X0061322Y0044142D01*
X0063124Y0044142D02*
X0063574Y0043691D01*
X0063574Y0042790D01*
X0063124Y0042340D01*
X0063574Y0038248D02*
X0063574Y0036447D01*
X0061772Y0038248D01*
X0061322Y0038248D01*
X0060872Y0037798D01*
X0060872Y0036897D01*
X0061322Y0036447D01*
X0061772Y0035302D02*
X0061772Y0033951D01*
X0062223Y0033500D01*
X0062673Y0033951D01*
X0062673Y0034852D01*
X0063124Y0035302D01*
X0063574Y0034852D01*
X0063574Y0033500D01*
X0063124Y0032355D02*
X0062223Y0032355D01*
X0061772Y0031905D01*
X0061772Y0030554D01*
X0060872Y0030554D02*
X0063574Y0030554D01*
X0063574Y0031905D01*
X0063124Y0032355D01*
X0063574Y0029409D02*
X0062223Y0029409D01*
X0061772Y0028959D01*
X0061772Y0028058D01*
X0062673Y0028058D02*
X0062673Y0029409D01*
X0063574Y0029409D02*
X0063574Y0028058D01*
X0063124Y0027607D01*
X0062673Y0028058D01*
X0063574Y0026462D02*
X0063574Y0024661D01*
X0060872Y0024661D01*
X0063574Y0023597D02*
X0063574Y0022697D01*
X0063574Y0023147D02*
X0061772Y0023147D01*
X0061772Y0022697D01*
X0060872Y0023147D02*
X0060421Y0023147D01*
X0061322Y0021552D02*
X0060872Y0021101D01*
X0060872Y0020200D01*
X0061322Y0019750D01*
X0061772Y0019750D01*
X0062223Y0020200D01*
X0062223Y0021101D01*
X0062673Y0021552D01*
X0063124Y0021552D01*
X0063574Y0021101D01*
X0063574Y0020200D01*
X0063124Y0019750D01*
X0065872Y0019750D02*
X0065872Y0021101D01*
X0066322Y0021552D01*
X0067223Y0021552D01*
X0067673Y0021101D01*
X0067673Y0019750D01*
X0067673Y0020651D02*
X0068574Y0021552D01*
X0068574Y0022697D02*
X0065872Y0022697D01*
X0065872Y0024498D01*
X0065872Y0025643D02*
X0067673Y0025643D01*
X0068574Y0026544D01*
X0067673Y0027445D01*
X0065872Y0027445D01*
X0066772Y0028590D02*
X0067223Y0028590D01*
X0067223Y0029040D01*
X0066772Y0029040D01*
X0066772Y0028590D01*
X0068124Y0028590D02*
X0068124Y0029040D01*
X0068574Y0029040D01*
X0068574Y0028590D01*
X0068124Y0028590D01*
X0070872Y0028098D02*
X0073574Y0028098D01*
X0072673Y0028098D02*
X0073574Y0029450D01*
X0073124Y0030554D02*
X0072223Y0030554D01*
X0071772Y0031004D01*
X0071772Y0031905D01*
X0072223Y0032355D01*
X0072673Y0032355D01*
X0072673Y0030554D01*
X0073124Y0030554D02*
X0073574Y0031004D01*
X0073574Y0031905D01*
X0073574Y0033500D02*
X0071772Y0033500D01*
X0071772Y0034401D02*
X0071772Y0034852D01*
X0071772Y0034401D02*
X0072673Y0033500D01*
X0068574Y0033910D02*
X0065872Y0033910D01*
X0066772Y0033009D01*
X0068574Y0033009D02*
X0068574Y0034811D01*
X0070872Y0038902D02*
X0070872Y0040253D01*
X0071322Y0040704D01*
X0073124Y0040704D01*
X0073574Y0040253D01*
X0073574Y0038902D01*
X0070872Y0038902D01*
X0071772Y0041849D02*
X0071772Y0042299D01*
X0073574Y0042299D01*
X0073574Y0041849D02*
X0073574Y0042750D01*
X0073574Y0043813D02*
X0073574Y0044714D01*
X0073574Y0044264D02*
X0070872Y0044264D01*
X0070872Y0043813D01*
X0070872Y0042299D02*
X0070421Y0042299D01*
X0070872Y0045778D02*
X0070872Y0046228D01*
X0073574Y0046228D01*
X0073574Y0045778D02*
X0073574Y0046678D01*
X0073574Y0047742D02*
X0071772Y0047742D01*
X0071772Y0048192D01*
X0072223Y0048643D01*
X0071772Y0049093D01*
X0072223Y0049543D01*
X0073574Y0049543D01*
X0073574Y0048643D02*
X0072223Y0048643D01*
X0073124Y0050688D02*
X0072673Y0051139D01*
X0072673Y0052490D01*
X0072223Y0052490D02*
X0073574Y0052490D01*
X0073574Y0051139D01*
X0073124Y0050688D01*
X0071772Y0051139D02*
X0071772Y0052040D01*
X0072223Y0052490D01*
X0071772Y0053635D02*
X0071772Y0054986D01*
X0072223Y0055436D01*
X0073574Y0055436D01*
X0073574Y0056581D02*
X0071772Y0056581D01*
X0071772Y0057933D01*
X0072223Y0058383D01*
X0073574Y0058383D01*
X0073574Y0053635D02*
X0071772Y0053635D01*
X0058574Y0051999D02*
X0057223Y0051999D01*
X0056772Y0051548D01*
X0057223Y0051098D01*
X0058574Y0051098D01*
X0058574Y0050197D02*
X0056772Y0050197D01*
X0056772Y0050648D01*
X0057223Y0051098D01*
X0053124Y0040213D02*
X0052673Y0040213D01*
X0052223Y0039762D01*
X0052223Y0038411D01*
X0053124Y0038411D01*
X0053574Y0038862D01*
X0053574Y0039762D01*
X0053124Y0040213D01*
X0051322Y0039312D02*
X0052223Y0038411D01*
X0051322Y0039312D02*
X0050872Y0040213D01*
X0048574Y0040928D02*
X0047673Y0040027D01*
X0047673Y0040477D02*
X0047673Y0039126D01*
X0048574Y0039126D02*
X0045872Y0039126D01*
X0045872Y0040477D01*
X0046322Y0040928D01*
X0047223Y0040928D01*
X0047673Y0040477D01*
X0048574Y0037981D02*
X0048574Y0036180D01*
X0045872Y0036180D01*
X0045872Y0037981D01*
X0047223Y0037080D02*
X0047223Y0036180D01*
X0045872Y0035035D02*
X0048574Y0035035D01*
X0048574Y0033233D02*
X0045872Y0033233D01*
X0046772Y0034134D01*
X0045872Y0035035D01*
X0045872Y0032088D02*
X0048574Y0032088D01*
X0048574Y0030286D02*
X0045872Y0030286D01*
X0046772Y0031187D01*
X0045872Y0032088D01*
X0046772Y0029142D02*
X0048574Y0029142D01*
X0047223Y0029142D02*
X0047223Y0027340D01*
X0046772Y0027340D02*
X0045872Y0028241D01*
X0046772Y0029142D01*
X0046772Y0027340D02*
X0048574Y0027340D01*
X0048574Y0026195D02*
X0047673Y0025294D01*
X0047673Y0025745D02*
X0047673Y0024393D01*
X0048574Y0024393D02*
X0045872Y0024393D01*
X0045872Y0025745D01*
X0046322Y0026195D01*
X0047223Y0026195D01*
X0047673Y0025745D01*
X0047223Y0023248D02*
X0047223Y0022348D01*
X0047223Y0023248D02*
X0048124Y0023248D01*
X0048574Y0022798D01*
X0048574Y0021897D01*
X0048124Y0021447D01*
X0046322Y0021447D01*
X0045872Y0021897D01*
X0045872Y0022798D01*
X0046322Y0023248D01*
X0046322Y0020302D02*
X0045872Y0019852D01*
X0045872Y0018951D01*
X0046322Y0018500D01*
X0048124Y0018500D01*
X0048574Y0018951D01*
X0048574Y0019852D01*
X0048124Y0020302D01*
X0046322Y0020302D01*
X0046322Y0017355D02*
X0045872Y0016905D01*
X0045872Y0015554D01*
X0048574Y0015554D01*
X0047673Y0015554D02*
X0047673Y0016905D01*
X0047223Y0017355D01*
X0046322Y0017355D01*
X0047673Y0016455D02*
X0048574Y0017355D01*
X0047223Y0014409D02*
X0047673Y0013959D01*
X0047673Y0012607D01*
X0048574Y0012607D02*
X0045872Y0012607D01*
X0045872Y0013959D01*
X0046322Y0014409D01*
X0047223Y0014409D01*
X0049024Y0011462D02*
X0049024Y0009661D01*
X0048574Y0008597D02*
X0048574Y0007697D01*
X0048574Y0008147D02*
X0045872Y0008147D01*
X0045872Y0007697D02*
X0045872Y0008597D01*
X0046322Y0006552D02*
X0045872Y0006101D01*
X0045872Y0005200D01*
X0046322Y0004750D01*
X0046772Y0004750D01*
X0047223Y0005200D01*
X0047223Y0006101D01*
X0047673Y0006552D01*
X0048124Y0006552D01*
X0048574Y0006101D01*
X0048574Y0005200D01*
X0048124Y0004750D01*
X0051772Y0019750D02*
X0050872Y0020651D01*
X0051772Y0019750D02*
X0052673Y0019750D01*
X0053574Y0020651D01*
X0053124Y0021714D02*
X0053574Y0022165D01*
X0053574Y0023516D01*
X0053574Y0024661D02*
X0052673Y0025562D01*
X0051772Y0025562D01*
X0050872Y0024661D01*
X0051772Y0023516D02*
X0051772Y0022165D01*
X0052223Y0021714D01*
X0053124Y0021714D01*
X0055872Y0021552D02*
X0058574Y0021552D01*
X0058124Y0022697D02*
X0057673Y0023147D01*
X0057673Y0024498D01*
X0057223Y0024498D02*
X0058574Y0024498D01*
X0058574Y0023147D01*
X0058124Y0022697D01*
X0056772Y0023147D02*
X0056772Y0024048D01*
X0057223Y0024498D01*
X0057223Y0025643D02*
X0058124Y0025643D01*
X0058574Y0026093D01*
X0058574Y0027445D01*
X0058574Y0028590D02*
X0056772Y0028590D01*
X0056772Y0029490D02*
X0056772Y0029941D01*
X0056772Y0029490D02*
X0057673Y0028590D01*
X0056772Y0027445D02*
X0056772Y0026093D01*
X0057223Y0025643D01*
X0055872Y0021552D02*
X0056772Y0020651D01*
X0055872Y0019750D01*
X0058574Y0019750D01*
X0065872Y0019750D02*
X0068574Y0019750D01*
X0070872Y0019750D02*
X0070872Y0021101D01*
X0071322Y0021552D01*
X0072223Y0021552D01*
X0072673Y0021101D01*
X0072673Y0019750D01*
X0073574Y0019750D02*
X0070872Y0019750D01*
X0071772Y0023147D02*
X0071772Y0024048D01*
X0072223Y0024498D01*
X0073574Y0024498D01*
X0073574Y0023147D01*
X0073124Y0022697D01*
X0072673Y0023147D01*
X0072673Y0024498D01*
X0072673Y0025643D02*
X0071772Y0026544D01*
X0071772Y0026994D01*
X0071772Y0025643D02*
X0073574Y0025643D01*
X0072673Y0028098D02*
X0071772Y0029450D01*
X0068574Y0024498D02*
X0068574Y0022697D01*
X0067223Y0022697D02*
X0067223Y0023597D01*
X0058574Y0031495D02*
X0058574Y0032396D01*
X0058124Y0032847D01*
X0057223Y0032847D01*
X0056772Y0032396D01*
X0056772Y0031495D01*
X0057223Y0031045D01*
X0058124Y0031045D01*
X0058574Y0031495D01*
X0058574Y0033991D02*
X0055872Y0033991D01*
X0055872Y0035793D01*
X0057223Y0034892D02*
X0057223Y0033991D01*
X0058124Y0036938D02*
X0057673Y0037388D01*
X0057673Y0038740D01*
X0057223Y0038740D02*
X0058574Y0038740D01*
X0058574Y0037388D01*
X0058124Y0036938D01*
X0056772Y0037388D02*
X0056772Y0038289D01*
X0057223Y0038740D01*
X0053574Y0037266D02*
X0053574Y0035465D01*
X0053574Y0036366D02*
X0050872Y0036366D01*
X0051772Y0035465D01*
X0051322Y0034320D02*
X0053124Y0032518D01*
X0053574Y0032969D01*
X0053574Y0033869D01*
X0053124Y0034320D01*
X0051322Y0034320D01*
X0050872Y0033869D01*
X0050872Y0032969D01*
X0051322Y0032518D01*
X0053124Y0032518D01*
X0053574Y0031373D02*
X0053574Y0029572D01*
X0051772Y0031373D01*
X0051322Y0031373D01*
X0050872Y0030923D01*
X0050872Y0030022D01*
X0051322Y0029572D01*
X0008824Y0034500D02*
X0003824Y0034500D01*
X0003824Y0054500D01*
X0008824Y0054500D01*
X0008824Y0034500D01*
X0008824Y0034900D02*
X0003824Y0034900D01*
X0003824Y0035399D02*
X0008824Y0035399D01*
X0008824Y0035897D02*
X0003824Y0035897D01*
X0003824Y0036396D02*
X0008824Y0036396D01*
X0008824Y0036894D02*
X0003824Y0036894D01*
X0003824Y0037393D02*
X0008824Y0037393D01*
X0008824Y0037891D02*
X0003824Y0037891D01*
X0003824Y0038390D02*
X0008824Y0038390D01*
X0008824Y0038888D02*
X0003824Y0038888D01*
X0003824Y0039387D02*
X0008824Y0039387D01*
X0008824Y0039885D02*
X0003824Y0039885D01*
X0003824Y0040384D02*
X0008824Y0040384D01*
X0008824Y0040882D02*
X0003824Y0040882D01*
X0003824Y0041381D02*
X0008824Y0041381D01*
X0008824Y0041879D02*
X0003824Y0041879D01*
X0003824Y0042378D02*
X0008824Y0042378D01*
X0008824Y0042876D02*
X0003824Y0042876D01*
X0003824Y0043375D02*
X0008824Y0043375D01*
X0008824Y0043873D02*
X0003824Y0043873D01*
X0003824Y0044372D02*
X0008824Y0044372D01*
X0008824Y0044870D02*
X0003824Y0044870D01*
X0003824Y0045369D02*
X0008824Y0045369D01*
X0008824Y0045868D02*
X0003824Y0045868D01*
X0003824Y0046366D02*
X0008824Y0046366D01*
X0008824Y0046865D02*
X0003824Y0046865D01*
X0003824Y0047363D02*
X0008824Y0047363D01*
X0008824Y0047862D02*
X0003824Y0047862D01*
X0003824Y0048360D02*
X0008824Y0048360D01*
X0008824Y0048859D02*
X0003824Y0048859D01*
X0003824Y0049357D02*
X0008824Y0049357D01*
X0008824Y0049856D02*
X0003824Y0049856D01*
X0003824Y0050354D02*
X0008824Y0050354D01*
X0008824Y0050853D02*
X0003824Y0050853D01*
X0003824Y0051351D02*
X0008824Y0051351D01*
X0008824Y0051850D02*
X0003824Y0051850D01*
X0003824Y0052348D02*
X0008824Y0052348D01*
X0008824Y0052847D02*
X0003824Y0052847D01*
X0003824Y0053345D02*
X0008824Y0053345D01*
X0008824Y0053844D02*
X0003824Y0053844D01*
X0003824Y0054342D02*
X0008824Y0054342D01*
X0005174Y0063277D02*
X0005174Y0065078D01*
X0005174Y0064178D02*
X0002472Y0064178D01*
X0003372Y0063277D01*
X0089572Y0119840D02*
X0089572Y0121191D01*
X0090022Y0121641D01*
X0090923Y0121641D01*
X0091373Y0121191D01*
X0091373Y0119840D01*
X0092274Y0119840D02*
X0089572Y0119840D01*
X0089572Y0122786D02*
X0092274Y0122786D01*
X0091373Y0123687D01*
X0092274Y0124588D01*
X0089572Y0124588D01*
X0089572Y0125733D02*
X0089572Y0127084D01*
X0090022Y0127534D01*
X0090923Y0127534D01*
X0091373Y0127084D01*
X0091373Y0125733D01*
X0091373Y0126633D02*
X0092274Y0127534D01*
X0092274Y0125733D02*
X0089572Y0125733D01*
X0107434Y0126795D02*
X0121214Y0126795D01*
X0121214Y0101205D01*
X0107434Y0101205D01*
X0107434Y0126795D01*
X0136253Y0124846D02*
X0136253Y0118154D01*
X0152395Y0118154D01*
X0152395Y0124846D01*
X0153182Y0124846D01*
X0153182Y0118154D01*
X0152395Y0118154D01*
X0152395Y0124846D01*
X0136253Y0124846D01*
X0143733Y0122681D02*
X0143733Y0120319D01*
X0144915Y0121500D01*
X0143733Y0122681D01*
X0143733Y0122638D02*
X0143776Y0122638D01*
X0143733Y0122140D02*
X0144275Y0122140D01*
X0144773Y0121641D02*
X0143733Y0121641D01*
X0143733Y0121143D02*
X0144557Y0121143D01*
X0144059Y0120644D02*
X0143733Y0120644D01*
X0139105Y0116963D02*
X0139105Y0115162D01*
X0139105Y0116063D02*
X0136402Y0116063D01*
X0137303Y0115162D01*
X0136853Y0114017D02*
X0136402Y0113566D01*
X0136402Y0112215D01*
X0139105Y0112215D01*
X0139105Y0113566D01*
X0138654Y0114017D01*
X0136853Y0114017D01*
X0137237Y0110043D02*
X0137237Y0102957D01*
X0151411Y0102957D01*
X0151411Y0110043D01*
X0137237Y0110043D01*
X0140105Y0101192D02*
X0140105Y0099390D01*
X0140105Y0100291D02*
X0137402Y0100291D01*
X0138303Y0099390D01*
X0137853Y0098245D02*
X0138754Y0098245D01*
X0139204Y0097795D01*
X0139204Y0096444D01*
X0139204Y0097344D02*
X0140105Y0098245D01*
X0140105Y0096444D02*
X0137402Y0096444D01*
X0137402Y0097795D01*
X0137853Y0098245D01*
X0122985Y0098831D02*
X0122985Y0090169D01*
X0105663Y0090169D01*
X0105663Y0098831D01*
X0122985Y0098831D01*
X0119289Y0074500D02*
X0119289Y0014500D01*
X0152359Y0014500D01*
X0152359Y0074500D01*
X0119289Y0074500D01*
X0115152Y0073155D02*
X0115152Y0072254D01*
X0114702Y0071803D01*
X0112900Y0073605D01*
X0114702Y0073605D01*
X0115152Y0073155D01*
X0114702Y0071803D02*
X0112900Y0071803D01*
X0112450Y0072254D01*
X0112450Y0073155D01*
X0112900Y0073605D01*
X0112900Y0070659D02*
X0113350Y0070659D01*
X0113801Y0070208D01*
X0114251Y0070659D01*
X0114702Y0070659D01*
X0115152Y0070208D01*
X0115152Y0069307D01*
X0114702Y0068857D01*
X0114702Y0067712D02*
X0112900Y0067712D01*
X0114702Y0065910D01*
X0115152Y0066361D01*
X0115152Y0067262D01*
X0114702Y0067712D01*
X0114702Y0065910D02*
X0112900Y0065910D01*
X0112450Y0066361D01*
X0112450Y0067262D01*
X0112900Y0067712D01*
X0112900Y0068857D02*
X0112450Y0069307D01*
X0112450Y0070208D01*
X0112900Y0070659D01*
X0113801Y0070208D02*
X0113801Y0069758D01*
X0113350Y0064765D02*
X0112900Y0064765D01*
X0112450Y0064315D01*
X0112450Y0063414D01*
X0112900Y0062964D01*
X0112900Y0061819D02*
X0112450Y0061369D01*
X0112450Y0060468D01*
X0112900Y0060017D01*
X0114702Y0060017D01*
X0115152Y0060468D01*
X0115152Y0061369D01*
X0114702Y0061819D01*
X0115152Y0062964D02*
X0113350Y0064765D01*
X0115152Y0064765D02*
X0115152Y0062964D01*
X0112450Y0058872D02*
X0112450Y0057071D01*
X0112450Y0057972D02*
X0115152Y0057972D01*
X0152359Y0049500D02*
X0152359Y0039500D01*
X0155824Y0039500D01*
X0155824Y0049500D01*
X0152359Y0049500D01*
X0152359Y0049357D02*
X0155824Y0049357D01*
X0155824Y0048859D02*
X0152359Y0048859D01*
X0152359Y0048360D02*
X0155824Y0048360D01*
X0155824Y0047862D02*
X0152359Y0047862D01*
X0152359Y0047363D02*
X0155824Y0047363D01*
X0155824Y0046865D02*
X0152359Y0046865D01*
X0152359Y0046366D02*
X0155824Y0046366D01*
X0155824Y0045868D02*
X0152359Y0045868D01*
X0152359Y0045369D02*
X0155824Y0045369D01*
X0155824Y0044870D02*
X0152359Y0044870D01*
X0152359Y0044372D02*
X0155824Y0044372D01*
X0155824Y0043873D02*
X0152359Y0043873D01*
X0152359Y0043375D02*
X0155824Y0043375D01*
X0155824Y0042876D02*
X0152359Y0042876D01*
X0152359Y0042378D02*
X0155824Y0042378D01*
X0155824Y0041879D02*
X0152359Y0041879D01*
X0152359Y0041381D02*
X0155824Y0041381D01*
X0155824Y0040882D02*
X0152359Y0040882D01*
X0152359Y0040384D02*
X0155824Y0040384D01*
X0155824Y0039885D02*
X0152359Y0039885D01*
X0157174Y0035078D02*
X0157174Y0033277D01*
X0157174Y0034177D02*
X0154472Y0034177D01*
X0155372Y0033277D01*
X0153182Y0118650D02*
X0152395Y0118650D01*
X0152395Y0119149D02*
X0153182Y0119149D01*
X0153182Y0119647D02*
X0152395Y0119647D01*
X0152395Y0120146D02*
X0153182Y0120146D01*
X0153182Y0120644D02*
X0152395Y0120644D01*
X0152395Y0121143D02*
X0153182Y0121143D01*
X0153182Y0121641D02*
X0152395Y0121641D01*
X0152395Y0122140D02*
X0153182Y0122140D01*
X0153182Y0122638D02*
X0152395Y0122638D01*
X0152395Y0123137D02*
X0153182Y0123137D01*
X0153182Y0123635D02*
X0152395Y0123635D01*
X0152395Y0124134D02*
X0153182Y0124134D01*
X0153182Y0124632D02*
X0152395Y0124632D01*
D13*
X0095641Y0112394D02*
X0095641Y0109591D01*
X0094940Y0107790D02*
X0091437Y0107790D01*
X0092838Y0109591D02*
X0091437Y0110993D01*
X0095641Y0110993D01*
X0094940Y0107790D02*
X0095641Y0107089D01*
X0095641Y0105688D01*
X0094940Y0104987D01*
X0091437Y0104987D01*
D14*
X0043655Y0111551D02*
X0034993Y0111551D01*
X0034993Y0130449D01*
X0043655Y0130449D01*
X0043655Y0111551D01*
D15*
X0112824Y0044375D03*
D16*
X0112699Y0044375D03*
D17*
X0112574Y0044375D03*
D18*
X0112448Y0044375D03*
X0098073Y0057375D03*
X0097198Y0040125D03*
X0097073Y0040125D03*
X0098073Y0031375D03*
X0098198Y0031375D03*
X0098323Y0031375D03*
X0098448Y0031375D03*
D19*
X0112324Y0044375D03*
D20*
X0112199Y0044375D03*
D21*
X0112073Y0044375D03*
X0108573Y0047875D03*
X0108324Y0048125D03*
X0108073Y0048375D03*
X0107823Y0048625D03*
X0107073Y0049375D03*
X0108324Y0040625D03*
X0108073Y0040375D03*
X0107823Y0040125D03*
X0107073Y0039375D03*
X0106323Y0038625D03*
X0106073Y0038375D03*
X0105324Y0037625D03*
X0105074Y0037375D03*
X0104823Y0037125D03*
X0104573Y0036875D03*
X0103824Y0036125D03*
X0103574Y0035875D03*
X0103323Y0035625D03*
X0103073Y0035375D03*
X0102823Y0035125D03*
X0102573Y0034875D03*
X0102324Y0034625D03*
X0102074Y0034375D03*
X0101823Y0034125D03*
X0101573Y0033875D03*
X0101323Y0033625D03*
X0101073Y0033375D03*
X0100574Y0032875D03*
X0096574Y0032125D03*
X0096699Y0056625D03*
D22*
X0096824Y0046625D03*
X0111949Y0044375D03*
D23*
X0111824Y0044375D03*
X0106574Y0049625D03*
X0084074Y0044375D03*
D24*
X0106448Y0049625D03*
X0111698Y0044375D03*
D25*
X0111574Y0044375D03*
D26*
X0111449Y0044375D03*
D27*
X0111324Y0044375D03*
D28*
X0111199Y0044375D03*
D29*
X0111074Y0044375D03*
D30*
X0110949Y0044375D03*
X0105698Y0049625D03*
D31*
X0110824Y0044375D03*
X0085074Y0044375D03*
D32*
X0110698Y0044375D03*
D33*
X0110574Y0044375D03*
D34*
X0110449Y0044375D03*
D35*
X0110323Y0044375D03*
D36*
X0110199Y0044375D03*
D37*
X0110074Y0044375D03*
D38*
X0109948Y0044375D03*
D39*
X0109824Y0044375D03*
D40*
X0109699Y0044375D03*
D41*
X0109573Y0044375D03*
D42*
X0109448Y0044375D03*
D43*
X0109323Y0044375D03*
D44*
X0109199Y0044375D03*
D45*
X0109074Y0044375D03*
D46*
X0108949Y0044375D03*
D47*
X0108823Y0044375D03*
D48*
X0108698Y0047685D03*
X0108698Y0041065D03*
X0108573Y0040935D03*
X0107198Y0039565D03*
X0105948Y0038315D03*
X0105823Y0038185D03*
X0105698Y0038065D03*
X0104448Y0036815D03*
X0104323Y0036685D03*
X0096449Y0032185D03*
X0096324Y0032315D03*
X0096199Y0032435D03*
X0097323Y0047185D03*
X0096324Y0056315D03*
X0096449Y0056435D03*
D49*
X0106824Y0049565D03*
X0108449Y0040815D03*
X0083949Y0044315D03*
D50*
X0102449Y0034750D03*
X0108449Y0048000D03*
D51*
X0108199Y0048250D03*
X0108199Y0040500D03*
X0104949Y0037250D03*
X0103449Y0035750D03*
X0101949Y0034250D03*
D52*
X0102199Y0034500D03*
X0102698Y0035000D03*
X0102948Y0035250D03*
X0103198Y0035500D03*
X0103699Y0036000D03*
X0103949Y0036250D03*
X0104198Y0036500D03*
X0104698Y0037000D03*
X0105199Y0037500D03*
X0105449Y0037750D03*
X0106198Y0038500D03*
X0106448Y0038750D03*
X0106699Y0039000D03*
X0106948Y0039250D03*
X0107449Y0039750D03*
X0107698Y0040000D03*
X0107948Y0040250D03*
X0101698Y0034000D03*
X0101448Y0033750D03*
X0101198Y0033500D03*
X0100948Y0033250D03*
X0100699Y0033000D03*
X0100449Y0032750D03*
X0107948Y0048500D03*
X0107698Y0048750D03*
X0107449Y0049000D03*
X0107198Y0049250D03*
X0106948Y0049500D03*
X0096574Y0056500D03*
D53*
X0107574Y0048875D03*
X0107574Y0039875D03*
X0106824Y0039125D03*
X0105574Y0037875D03*
X0104074Y0036375D03*
X0100824Y0033125D03*
D54*
X0107324Y0039685D03*
D55*
X0106574Y0038875D03*
X0107324Y0049125D03*
D56*
X0106699Y0049625D03*
X0097073Y0046875D03*
X0096574Y0046375D03*
X0096074Y0056125D03*
X0095949Y0032625D03*
D57*
X0106323Y0049625D03*
D58*
X0106198Y0049625D03*
D59*
X0106073Y0049625D03*
D60*
X0105948Y0049625D03*
D61*
X0105823Y0049625D03*
D62*
X0105574Y0049625D03*
D63*
X0105449Y0047125D03*
X0105199Y0046875D03*
X0104698Y0046375D03*
X0104448Y0046125D03*
X0104198Y0045875D03*
X0103949Y0045625D03*
X0103699Y0045375D03*
X0103198Y0044875D03*
X0102948Y0044625D03*
X0102698Y0044375D03*
X0102199Y0043875D03*
X0101698Y0043375D03*
X0101448Y0043125D03*
X0101198Y0042875D03*
X0100948Y0042625D03*
X0100699Y0042375D03*
X0100449Y0042125D03*
X0096574Y0040125D03*
X0083198Y0044375D03*
D64*
X0097198Y0031750D03*
X0105449Y0051250D03*
X0105199Y0051500D03*
X0104698Y0052000D03*
X0104448Y0052250D03*
X0104198Y0052500D03*
X0103949Y0052750D03*
X0103699Y0053000D03*
X0097323Y0057000D03*
D65*
X0098949Y0057750D03*
X0105324Y0047000D03*
X0105074Y0046750D03*
X0104823Y0046500D03*
X0104573Y0046250D03*
X0104323Y0046000D03*
X0103824Y0045500D03*
X0103574Y0045250D03*
X0103323Y0045000D03*
X0103073Y0044750D03*
X0102823Y0044500D03*
X0102573Y0044250D03*
X0102324Y0044000D03*
X0102074Y0043750D03*
X0101823Y0043500D03*
X0101573Y0043250D03*
X0101323Y0043000D03*
X0101073Y0042750D03*
X0100574Y0042250D03*
D66*
X0105324Y0051375D03*
X0105074Y0051625D03*
X0104823Y0051875D03*
X0104573Y0052125D03*
X0104323Y0052375D03*
X0103824Y0052875D03*
X0103574Y0053125D03*
X0103323Y0053375D03*
X0099324Y0031875D03*
D67*
X0101949Y0043625D03*
X0103449Y0045125D03*
X0104949Y0046625D03*
D68*
X0104949Y0051750D03*
X0103449Y0053250D03*
D69*
X0104074Y0045750D03*
X0100824Y0042500D03*
D70*
X0104074Y0052625D03*
X0083699Y0044375D03*
D71*
X0093074Y0045810D03*
X0103198Y0053440D03*
X0097448Y0057060D03*
X0099199Y0031810D03*
X0099074Y0031690D03*
X0097323Y0031690D03*
D72*
X0097573Y0031565D03*
X0098824Y0031565D03*
X0099324Y0040315D03*
X0099449Y0040435D03*
X0099574Y0040565D03*
X0092949Y0045815D03*
X0103073Y0053435D03*
X0097698Y0057185D03*
D73*
X0097948Y0057310D03*
X0102948Y0053440D03*
X0092824Y0045810D03*
X0097823Y0031440D03*
X0097948Y0031440D03*
X0098573Y0031440D03*
D74*
X0092699Y0045815D03*
X0102823Y0053435D03*
X0098198Y0057435D03*
D75*
X0098448Y0057560D03*
X0102698Y0053440D03*
X0092574Y0045810D03*
D76*
X0098824Y0049685D03*
X0098949Y0049815D03*
X0099074Y0049935D03*
X0099699Y0050565D03*
X0099824Y0050685D03*
X0099949Y0050815D03*
X0100198Y0051065D03*
X0100449Y0051315D03*
X0100574Y0051435D03*
X0101073Y0051935D03*
X0101198Y0052065D03*
X0101323Y0052185D03*
X0101448Y0052315D03*
X0101573Y0052435D03*
X0101698Y0052565D03*
X0101823Y0052685D03*
X0102573Y0053435D03*
D77*
X0102449Y0044125D03*
D78*
X0100074Y0050935D03*
X0102449Y0053315D03*
D79*
X0102324Y0053250D03*
X0102074Y0053000D03*
X0099574Y0050500D03*
X0099324Y0050250D03*
X0098573Y0049500D03*
X0098323Y0049250D03*
X0098073Y0049000D03*
X0097823Y0048750D03*
X0097573Y0048500D03*
X0098824Y0057750D03*
D80*
X0102199Y0053125D03*
X0100948Y0051875D03*
X0100699Y0051625D03*
X0099449Y0050375D03*
X0099199Y0050125D03*
X0098448Y0049375D03*
X0098198Y0049125D03*
X0097948Y0048875D03*
X0097698Y0048625D03*
X0096699Y0040125D03*
D81*
X0100324Y0051185D03*
X0101949Y0052815D03*
X0098699Y0057685D03*
D82*
X0100824Y0051750D03*
D83*
X0100699Y0058185D03*
D84*
X0100574Y0058190D03*
D85*
X0100449Y0058125D03*
D86*
X0083824Y0044310D03*
X0100324Y0032690D03*
D87*
X0100324Y0041440D03*
D88*
X0100324Y0058125D03*
D89*
X0097448Y0047440D03*
X0100198Y0032560D03*
X0096699Y0032060D03*
D90*
X0097698Y0031500D03*
X0100198Y0041250D03*
X0097823Y0057250D03*
D91*
X0100198Y0058125D03*
D92*
X0096824Y0056690D03*
X0100074Y0032440D03*
X0096824Y0031940D03*
D93*
X0100074Y0041065D03*
D94*
X0100074Y0058065D03*
D95*
X0097073Y0056875D03*
X0099949Y0032375D03*
X0099699Y0032125D03*
X0096948Y0031875D03*
D96*
X0097448Y0031625D03*
X0098949Y0031625D03*
X0099699Y0040625D03*
X0099949Y0040875D03*
X0097573Y0057125D03*
D97*
X0099949Y0058060D03*
X0095573Y0047810D03*
X0095198Y0047940D03*
X0094573Y0047940D03*
X0094198Y0047810D03*
X0094073Y0047810D03*
X0093948Y0043940D03*
X0094073Y0043810D03*
X0095824Y0043940D03*
X0095949Y0044060D03*
X0097698Y0041560D03*
X0097573Y0041440D03*
X0098949Y0041440D03*
D98*
X0099824Y0032250D03*
X0096948Y0056750D03*
D99*
X0099824Y0040750D03*
D100*
X0099074Y0041435D03*
X0097323Y0038935D03*
X0096199Y0040065D03*
X0096199Y0044315D03*
X0093698Y0044065D03*
X0093698Y0047565D03*
X0099824Y0058065D03*
D101*
X0099699Y0058000D03*
X0097323Y0041250D03*
D102*
X0093324Y0045815D03*
X0093199Y0045815D03*
X0097198Y0056935D03*
X0099574Y0032065D03*
X0099449Y0031935D03*
X0097073Y0031815D03*
D103*
X0096324Y0044500D03*
X0093449Y0047250D03*
X0099574Y0058000D03*
D104*
X0099449Y0057935D03*
X0096199Y0047565D03*
X0096324Y0040065D03*
X0083073Y0044315D03*
D105*
X0099324Y0057875D03*
D106*
X0095824Y0047625D03*
X0093823Y0047625D03*
X0096074Y0044125D03*
X0097448Y0041375D03*
X0099199Y0038875D03*
D107*
X0099199Y0041310D03*
X0093449Y0044310D03*
X0092198Y0045810D03*
X0096074Y0047560D03*
D108*
X0092323Y0045875D03*
X0096449Y0040125D03*
X0099199Y0057875D03*
D109*
X0095073Y0048000D03*
X0094948Y0048000D03*
X0094823Y0048000D03*
X0094698Y0048000D03*
X0094448Y0043750D03*
X0094323Y0043750D03*
X0094198Y0043750D03*
X0095323Y0043750D03*
X0095448Y0043750D03*
X0098824Y0041500D03*
X0098949Y0038750D03*
X0099074Y0038750D03*
X0097448Y0038750D03*
D110*
X0096324Y0047435D03*
X0099074Y0057815D03*
D111*
X0095448Y0047875D03*
X0095323Y0047875D03*
X0094448Y0047875D03*
X0094323Y0047875D03*
X0095573Y0043875D03*
X0097823Y0041625D03*
X0097948Y0041625D03*
X0098073Y0041625D03*
X0098198Y0041625D03*
X0098323Y0041625D03*
X0098448Y0041625D03*
X0098573Y0041625D03*
X0098824Y0038625D03*
X0097698Y0038625D03*
X0097573Y0038625D03*
D112*
X0098699Y0031500D03*
D113*
X0098699Y0038565D03*
D114*
X0098699Y0041625D03*
X0095699Y0043875D03*
D115*
X0098699Y0049625D03*
D116*
X0095198Y0043685D03*
X0095073Y0043685D03*
X0094948Y0043685D03*
X0094823Y0043685D03*
X0094698Y0043685D03*
X0094573Y0043685D03*
X0096074Y0040065D03*
X0097823Y0038565D03*
X0097948Y0038565D03*
X0098573Y0038565D03*
X0082948Y0044315D03*
D117*
X0098573Y0057625D03*
D118*
X0098448Y0038500D03*
X0098323Y0038500D03*
X0098198Y0038500D03*
X0098073Y0038500D03*
D119*
X0098323Y0057500D03*
D120*
X0096199Y0056250D03*
X0095824Y0056000D03*
X0097198Y0047000D03*
X0096948Y0046750D03*
X0096699Y0046500D03*
X0096449Y0046250D03*
X0096074Y0032500D03*
D121*
X0096948Y0040125D03*
D122*
X0096824Y0040125D03*
D123*
X0095949Y0047625D03*
D124*
X0091573Y0051810D03*
X0091448Y0051690D03*
X0091323Y0051560D03*
X0091198Y0051440D03*
X0091073Y0051310D03*
X0090948Y0051190D03*
X0090823Y0051060D03*
X0090698Y0050940D03*
X0090573Y0050810D03*
X0090324Y0050560D03*
X0090199Y0050440D03*
X0090074Y0050310D03*
X0089949Y0050190D03*
X0089824Y0050060D03*
X0089699Y0049940D03*
X0089574Y0049810D03*
X0089323Y0049560D03*
X0089198Y0049440D03*
X0089073Y0049310D03*
X0088948Y0049190D03*
X0088823Y0049060D03*
X0088698Y0048940D03*
X0088573Y0048810D03*
X0088448Y0048690D03*
X0088323Y0048560D03*
X0088198Y0048440D03*
X0088073Y0048310D03*
X0087948Y0048190D03*
X0091698Y0051940D03*
X0091823Y0052060D03*
X0091948Y0052190D03*
X0092073Y0052310D03*
X0092198Y0052440D03*
X0092323Y0052560D03*
X0092574Y0052810D03*
X0092699Y0052940D03*
X0092824Y0053060D03*
X0092949Y0053190D03*
X0093074Y0053310D03*
X0093199Y0053440D03*
X0093324Y0053560D03*
X0093449Y0053690D03*
X0093698Y0053940D03*
X0093823Y0054060D03*
X0093948Y0054190D03*
X0094073Y0054310D03*
X0094198Y0054440D03*
X0094323Y0054560D03*
X0094448Y0054690D03*
X0094573Y0054810D03*
X0094698Y0054940D03*
X0094823Y0055060D03*
X0094948Y0055190D03*
X0095073Y0055310D03*
X0095198Y0055440D03*
X0095323Y0055560D03*
X0095448Y0055690D03*
X0095573Y0055810D03*
X0095949Y0056060D03*
X0095448Y0033060D03*
X0095573Y0032940D03*
X0095824Y0032690D03*
D125*
X0095699Y0032810D03*
X0087449Y0040940D03*
X0087199Y0041190D03*
X0087199Y0047440D03*
X0087449Y0047690D03*
X0087699Y0047940D03*
X0089449Y0049690D03*
X0092449Y0052690D03*
X0095699Y0055940D03*
D126*
X0095699Y0047750D03*
D127*
X0088323Y0040125D03*
X0088073Y0040375D03*
X0088573Y0039875D03*
X0088823Y0039625D03*
X0089073Y0039375D03*
X0089323Y0039125D03*
X0089574Y0038875D03*
X0089824Y0038625D03*
X0090074Y0038375D03*
X0090324Y0038125D03*
X0090573Y0037875D03*
X0090823Y0037625D03*
X0091073Y0037375D03*
X0091323Y0037125D03*
X0091573Y0036875D03*
X0091823Y0036625D03*
X0092073Y0036375D03*
X0092323Y0036125D03*
X0092574Y0035875D03*
X0092824Y0035625D03*
X0093074Y0035375D03*
X0093324Y0035125D03*
X0093823Y0034625D03*
X0094073Y0034375D03*
X0094323Y0034125D03*
X0094573Y0033875D03*
X0094823Y0033625D03*
X0095073Y0033375D03*
X0095323Y0033125D03*
D128*
X0095198Y0033250D03*
X0094948Y0033500D03*
X0094698Y0033750D03*
X0094448Y0034000D03*
X0094198Y0034250D03*
X0093948Y0034500D03*
X0093698Y0034750D03*
X0093449Y0035000D03*
X0093199Y0035250D03*
X0092949Y0035500D03*
X0092699Y0035750D03*
X0092198Y0036250D03*
X0091948Y0036500D03*
X0091698Y0036750D03*
X0091448Y0037000D03*
X0091198Y0037250D03*
X0090948Y0037500D03*
X0090698Y0037750D03*
X0090199Y0038250D03*
X0089949Y0038500D03*
X0089699Y0038750D03*
X0089198Y0039250D03*
X0088948Y0039500D03*
X0088698Y0039750D03*
X0088448Y0040000D03*
X0088198Y0040250D03*
X0087948Y0040500D03*
D129*
X0093823Y0044000D03*
X0093948Y0047750D03*
D130*
X0087074Y0041375D03*
X0087574Y0040875D03*
X0087824Y0040625D03*
X0093574Y0034875D03*
D131*
X0093574Y0044185D03*
X0093574Y0047435D03*
D132*
X0090449Y0050690D03*
X0087824Y0048060D03*
X0087574Y0047810D03*
X0087324Y0047560D03*
X0087324Y0041060D03*
X0093574Y0053810D03*
D133*
X0087699Y0040750D03*
X0089449Y0039000D03*
X0092449Y0036000D03*
D134*
X0092449Y0045810D03*
D135*
X0092073Y0045810D03*
D136*
X0087074Y0047250D03*
X0090449Y0038000D03*
D137*
X0086949Y0044315D03*
D138*
X0086824Y0044310D03*
D139*
X0086699Y0044315D03*
D140*
X0086574Y0044310D03*
D141*
X0086449Y0044315D03*
D142*
X0086324Y0044310D03*
D143*
X0086199Y0044315D03*
D144*
X0086073Y0044310D03*
D145*
X0085948Y0044315D03*
D146*
X0085823Y0044310D03*
D147*
X0085698Y0044315D03*
D148*
X0085573Y0044310D03*
D149*
X0085449Y0044375D03*
D150*
X0085324Y0044375D03*
D151*
X0085199Y0044375D03*
D152*
X0084949Y0044375D03*
D153*
X0084824Y0044375D03*
D154*
X0084699Y0044375D03*
D155*
X0084574Y0044375D03*
D156*
X0084449Y0044375D03*
D157*
X0084324Y0044375D03*
D158*
X0084199Y0044375D03*
D159*
X0083574Y0044375D03*
D160*
X0083449Y0044375D03*
D161*
X0083324Y0044375D03*
M02*
